<svg xmlns="http://www.w3.org/2000/svg" viewBox="0 0 1165 238" preserveAspectRatio="xMidYMid meet">
  <path d="M663 168.3h-2c-9.4 0-10.7-2.3-10.7-14.5V96.6h12.6c27.4 0 32.5 20 32.5 35.6 0 16-5 36.1-32.5 36.1zm-111.3-36.6v-35h10.8c11.8 0 17.1 8 17.1 17.6 0 9.2-5.3 17.4-17.1 17.4h-10.8zm110.4-43H615v5c14.8 0 17.2 3.2 17.2 21.9v33.7c0 18.8-2.4 22.2-17.2 22.2-11.3-1.6-19-7.7-29.5-19.3l-12.1-13.1c16.3-3 25-13.2 25-24.8 0-14.5-12.4-25.6-35.6-25.6h-46.4v5c14.8 0 17.2 3.2 17.2 21.9v33.7c0 18.8-2.4 22.2-17.2 22.2v5h52.5v-5c-14.8 0-17.1-3.4-17.1-22.2V140h4.4l29.3 36.6h76.7c37.7 0 54-20 54-44s-16.3-43.8-54-43.8zm-292.6 52.7l18.2-53.8c5.3-15.5 2.9-20-14-20v-5.3h49.6v5.3c-16.6 0-20.6 4-27.2 23.2l-30 90.2h-3.5l-26.9-82.5-27.4 82.5H305l-29.3-90.2c-6.3-19.2-10.5-23.2-25.8-23.2v-5.3h58.5v5.3c-15.5 0-19.7 3.7-14.2 20l17.7 53.8 26.6-79h5l26 79zm89.6-47.9c-24.2 0-32.7 21.8-32.7 39 0 17.4 8.5 39 32.7 39 24.6 0 33-21.6 33-39 0-17.2-8.4-39-33-39m0 86.4c-29 0-52.7-21.3-52.7-47.4 0-25.9 23.7-47.2 52.7-47.2 29 0 52.8 21.3 52.8 47.2 0 26-23.8 47.4-52.8 47.4M775.5 71.8h-15v46h15c14.8 0 21.6-10.4 21.6-22.8 0-12.6-6.8-23.2-21.6-23.2m5.8 99.4v5.3h-60.4v-5.3c17.7 0 20.9-4.5 20.9-30.8V98.2c0-26.4-3.2-30.6-20.9-30.6v-5.3h54.6c27.2 0 42.2 14 42.2 32.7 0 18.2-15 32.5-42.2 32.5h-15v12.9c0 26.3 3.1 30.8 20.8 30.8m77.7-39.5v-35h11c11.9 0 17.1 8 17.1 17.6 0 9.2-5.2 17.4-17.1 17.4h-11zm139.8 20l-1.3 4.8c-2.4 8.7-5.3 11.8-24 11.8h-3.7c-13.7 0-16-3.1-16-21.9v-12c20.5 0 22 1.8 22 15.5h5v-39.3h-5c0 13.7-1.5 15.5-22 15.5V96.6h14.4c18.7 0 21.6 3.2 24 11.9l1.3 5h4.3l-1.9-24.8h-77.5v5c14.8 0 17.1 3.2 17.1 21.9v33.7c0 17.2-2 21.5-13.6 22.1-11-1.7-18.7-7.7-29-19.2l-12.2-13.1c16.3-3 25-13.2 25-24.8 0-14.5-12.3-25.6-35.5-25.6h-46.5v5c14.8 0 17.2 3.2 17.2 21.9v33.7c0 18.8-2.4 22.2-17.2 22.2v5h52.5v-5c-14.7 0-17.1-3.4-17.1-22.2V140h4.5l29.2 36.6h108.4l1.6-24.8h-4zm53.5 28.3a39 39 0 01-23.7-9 19 19 0 00-4.2 9h-5v-36.5h5.2c2.2 17.4 14.3 27.7 29.8 27.7 8.5 0 15.3-4.7 15.3-12.6 0-6.9-6-12.2-16.8-17.2l-15-7c-10.6-5-18.5-13.8-18.5-25.4 0-12.6 11.8-23.5 28.2-23.5a33 33 0 0120.5 6.9c1.4-1 2.7-4 3.5-7.1h5v31h-5.6c-1.8-12.3-8.7-22.6-22.6-22.6-7.4 0-14.3 4.2-14.3 10.8 0 6.9 5.6 10.6 18.2 16.4l14.5 7c12.7 6.2 17.7 16 17.7 23.8 0 16.6-14.5 28.2-32.2 28.2m79.7.1a39 39 0 01-23.7-9 19 19 0 00-4.2 9h-5v-36.5h5.3c2 17.4 14.2 27.7 29.8 27.7 8.4 0 15.2-4.7 15.2-12.6 0-6.9-6-12.2-16.8-17.2l-15-7c-10.6-5-18.5-13.8-18.5-25.4 0-12.6 11.9-23.5 28.2-23.5a33 33 0 0120.6 6.9c1.3-1 2.6-4 3.4-7.1h5v31h-5.5c-1.9-12.3-8.7-22.6-22.7-22.6-7.4 0-14.2 4.2-14.2 10.8 0 6.9 5.5 10.6 18.1 16.4l14.5 7c12.7 6.2 17.7 16 17.7 23.8 0 16.6-14.5 28.2-32.2 28.2M119.3.6a118.6 118.6 0 100 237.3 118.6 118.6 0 000-237.3m0 7.2a110.8 110.8 0 0192.5 49.1 111.5 111.5 0 11-92.5-49.1"/>
  <path d="M206 71.9c.5 3.1.7 6.5.7 10.1 0 10-1.9 21.3-7.5 35.4L169 204.7A98.8 98.8 0 00206 72zm-85 56l-29.6 86.2a98.8 98.8 0 0060.7-1.5 9 9 0 01-.7-1.4L121 127.9zm65-13.6a52 52 0 00-8-27.3c-5-8.1-9.7-15-9.7-23.2 0-9 6.9-17.5 16.6-17.5h1.3A98.8 98.8 0 0036.7 65c2.3.2 4.5.2 6.3.2 10.4 0 26.4-1.3 26.4-1.3 5.3-.3 6 7.6.6 8.2 0 0-5.3.6-11.3 1l36 107 21.7-64.9L101 73c-5.4-.3-10.4-1-10.4-1-5.3-.2-4.7-8.4.6-8 0 0 16.3 1.2 26 1.2 10.4 0 26.4-1.3 26.4-1.3 5.3-.3 6 7.6.6 8.2 0 0-5.3.6-11.3 1l35.7 106.2 10.2-32.3a114 114 0 007.2-32.6zm-165.6 5c0 39.1 22.8 73 55.7 89L29 79a98.5 98.5 0 00-8.6 40.3z"/>
</svg>
