<svg xmlns="http://www.w3.org/2000/svg" viewBox="0 0 35 40" preserveAspectRatio="xMidYMid meet">
  <path d="M17.8 39.9c-5.96-.04-10.53-2-13.6-5.84-2.74-3.4-4.15-8.15-4.2-14.1v-.02c.05-5.95 1.46-10.7 4.2-14.1C7.27 2 11.85.04 17.8 0h.02c4.57.03 8.38 1.2 11.35 3.49 2.79 2.14 4.75 5.2 5.83 9.08l-3.4.95c-1.83-6.58-6.47-9.95-13.8-10-4.83.04-8.49 1.56-10.87 4.52-2.22 2.77-3.37 6.78-3.41 11.9.04 5.14 1.2 9.14 3.42 11.92 2.38 2.96 6.03 4.48 10.87 4.51 4.36-.03 7.24-1.05 9.64-3.4A7.14 7.14 0 0 0 29.26 25a6.4 6.4 0 0 0-2.71-2.91 11.01 11.01 0 0 1-2.14 5.44c-1.47 1.83-3.56 2.83-6.2 2.97a9.1 9.1 0 0 1-5.42-1.33 6.21 6.21 0 0 1-.7-10.05c1.47-1.26 3.52-2 5.96-2.14 1.79-.1 3.47-.02 5.02.23a5.79 5.79 0 0 0-1.25-2.92c-.85-.97-2.17-1.47-3.92-1.48h-.05c-1.4 0-3.3.39-4.52 2.2l-2.92-1.96c1.63-2.42 4.27-3.75 7.44-3.75h.07c5.31.03 8.48 3.28 8.8 8.95l.53.24a10.3 10.3 0 0 1 5.24 5.1 10.64 10.64 0 0 1-2.57 11.9c-3.08 3-6.8 4.37-12.1 4.4h-.01Zm1.68-19.44c-.4 0-.81.01-1.23.04-3.05.17-4.96 1.57-4.85 3.56.11 2.09 2.41 3.06 4.63 2.94 2.03-.11 4.68-.9 5.13-6.17a17.45 17.45 0 0 0-3.68-.37Z"/>
</svg>
