<svg xmlns="http://www.w3.org/2000/svg" viewBox="0 0 28 28" preserveAspectRatio="xMidYMid meet">
  <path d="M20 14q0-.58-.47-.84l-8-5q-.48-.32-1.02-.03Q10 8.4 10 9v10q0 .6.51.88.25.12.49.12.31 0 .53-.16l8-5q.47-.26.47-.84zm8 0q0 1.5-.02 2.34t-.13 2.14-.35 2.3q-.25 1.14-1.08 1.92t-1.94.91q-3.46.4-10.48.4t-10.48-.4q-1.11-.13-1.95-.9T.5 20.77q-.22-1.01-.34-2.3t-.13-2.14T0 14t.02-2.34.13-2.14.35-2.3Q.75 6.08 1.58 5.3t1.94-.91q3.47-.4 10.48-.4t10.48.4q1.11.13 1.95.9t1.09 1.93q.21 1.01.33 2.3t.13 2.14T28 14z"/>
</svg>
