<?xml version="1.0" encoding="utf-8"?>
<!-- Generator: Adobe Illustrator 27.5.0, SVG Export Plug-In . SVG Version: 6.00 Build 0)  -->
<svg version="1.1" id="Layer_1" xmlns="http://www.w3.org/2000/svg" xmlns:xlink="http://www.w3.org/1999/xlink" x="0px" y="0px"
	 viewBox="0 0 109.4 22.1" style="enable-background:new 0 0 109.4 22.1;" xml:space="preserve">
<g>
	<path d="M29.2,16.5c-0.3,0-0.6-0.1-0.7-0.3c-0.2-0.2-0.2-0.4-0.2-0.7v-10c0-0.3,0.1-0.6,0.2-0.7c0.2-0.2,0.4-0.3,0.7-0.3
		s0.5,0.1,0.7,0.3s0.3,0.4,0.3,0.7v2.1l-0.3-0.3c0.3-0.9,0.8-1.6,1.5-2.1c0.7-0.5,1.5-0.7,2.4-0.7c1,0,1.8,0.2,2.4,0.7
		c0.6,0.5,1,1.2,1.2,2.2h-0.4c0.3-0.9,0.8-1.6,1.5-2.1c0.7-0.5,1.6-0.8,2.6-0.8c0.9,0,1.6,0.2,2.2,0.5c0.6,0.3,1,0.8,1.3,1.5
		C45,7.2,45.1,8,45.1,9.1v6.4c0,0.3-0.1,0.6-0.3,0.7c-0.2,0.2-0.4,0.3-0.7,0.3c-0.3,0-0.5-0.1-0.7-0.3c-0.2-0.2-0.3-0.4-0.3-0.7V9.2
		c0-1.1-0.2-1.9-0.6-2.4S41.6,6,40.8,6c-1,0-1.7,0.3-2.3,1c-0.6,0.7-0.8,1.6-0.8,2.7v5.8c0,0.3-0.1,0.6-0.3,0.7
		c-0.2,0.2-0.4,0.3-0.7,0.3c-0.3,0-0.5-0.1-0.7-0.3c-0.2-0.2-0.3-0.4-0.3-0.7V9.2c0-1.1-0.2-1.9-0.6-2.4c-0.4-0.5-1-0.8-1.9-0.8
		c-1,0-1.7,0.3-2.3,1c-0.6,0.7-0.8,1.6-0.8,2.7v5.8C30.2,16.2,29.9,16.5,29.2,16.5z"/>
	<path d="M52.4,16.6c-0.8,0-1.5-0.2-2.1-0.5c-0.6-0.3-1.1-0.7-1.5-1.3c-0.4-0.5-0.6-1.2-0.6-1.8c0-0.9,0.2-1.5,0.7-2
		c0.4-0.5,1.2-0.8,2.2-1.1c1-0.2,2.4-0.3,4.2-0.3h1.1v1.3h-1.1c-1.3,0-2.3,0.1-3.1,0.2c-0.7,0.1-1.3,0.3-1.6,0.6s-0.4,0.7-0.4,1.2
		c0,0.7,0.2,1.2,0.7,1.6c0.5,0.4,1.1,0.6,1.9,0.6c0.6,0,1.2-0.2,1.7-0.5c0.5-0.3,0.9-0.7,1.2-1.2c0.3-0.5,0.4-1.1,0.4-1.8V8.8
		c0-1-0.2-1.7-0.6-2.1C55,6.2,54.3,6,53.4,6c-0.6,0-1.1,0.1-1.7,0.2c-0.6,0.1-1.2,0.4-1.8,0.7C49.7,7,49.6,7.1,49.4,7
		S49.1,6.9,49,6.8s-0.2-0.3-0.2-0.4s0-0.3,0.1-0.5c0.1-0.2,0.2-0.3,0.4-0.4c0.7-0.4,1.4-0.6,2.1-0.8c0.7-0.2,1.3-0.2,2-0.2
		c1,0,1.8,0.2,2.5,0.5c0.7,0.3,1.1,0.8,1.5,1.5S57.9,8,57.9,9v6.5c0,0.3-0.1,0.6-0.2,0.7c-0.2,0.2-0.4,0.3-0.7,0.3
		c-0.3,0-0.5-0.1-0.7-0.3c-0.2-0.2-0.2-0.4-0.2-0.7v-1.9h0.2c-0.1,0.6-0.4,1.1-0.7,1.6c-0.4,0.4-0.8,0.8-1.3,1
		C53.7,16.4,53.1,16.6,52.4,16.6z"/>
	<path d="M62.4,20.8c-0.3,0-0.6-0.1-0.7-0.3c-0.2-0.2-0.2-0.4-0.2-0.7V5.5c0-0.3,0.1-0.6,0.2-0.7c0.2-0.2,0.4-0.3,0.7-0.3
		c0.3,0,0.6,0.1,0.7,0.3s0.3,0.4,0.3,0.7v2.3l-0.3-0.3c0.3-0.9,0.8-1.6,1.5-2.2c0.8-0.5,1.7-0.8,2.7-0.8c1,0,1.9,0.2,2.7,0.7
		c0.8,0.5,1.4,1.2,1.8,2.1c0.4,0.9,0.6,2,0.6,3.2c0,1.2-0.2,2.3-0.6,3.2c-0.4,0.9-1,1.6-1.8,2.1c-0.8,0.5-1.7,0.7-2.7,0.7
		c-1.1,0-2-0.3-2.7-0.8c-0.8-0.5-1.3-1.3-1.5-2.1h0.3v6.2c0,0.3-0.1,0.6-0.3,0.7S62.7,20.8,62.4,20.8z M67,15c0.7,0,1.4-0.2,1.9-0.5
		c0.5-0.4,1-0.9,1.2-1.5c0.3-0.7,0.4-1.5,0.4-2.4c0-1.5-0.3-2.6-1-3.3C68.9,6.4,68.1,6,67,6c-0.7,0-1.4,0.2-1.9,0.5
		c-0.5,0.3-1,0.8-1.3,1.5c-0.3,0.7-0.4,1.5-0.4,2.5c0,1.4,0.3,2.5,1,3.3C65,14.6,65.9,15,67,15z"/>
	<path d="M79.4,16.6c-0.7,0-1.4-0.1-2.2-0.3c-0.7-0.2-1.4-0.5-2-0.9c-0.2-0.1-0.3-0.2-0.3-0.4c-0.1-0.2-0.1-0.3-0.1-0.5
		c0-0.2,0.1-0.3,0.2-0.4c0.1-0.1,0.2-0.2,0.4-0.2c0.2,0,0.3,0,0.5,0.1c0.6,0.4,1.2,0.7,1.8,0.8c0.6,0.2,1.2,0.2,1.7,0.2
		c0.9,0,1.6-0.2,2.1-0.5s0.7-0.8,0.7-1.4c0-0.4-0.2-0.8-0.5-1.1c-0.3-0.3-0.8-0.5-1.4-0.6L78.1,11c-1-0.2-1.8-0.6-2.2-1.1
		c-0.5-0.5-0.7-1.2-0.7-2c0-0.7,0.2-1.3,0.6-1.9s0.9-0.9,1.6-1.2c0.7-0.3,1.5-0.4,2.4-0.4c0.7,0,1.4,0.1,2,0.3
		c0.6,0.2,1.2,0.5,1.7,0.9c0.2,0.1,0.3,0.2,0.3,0.4c0.1,0.2,0.1,0.3,0,0.5c0,0.2-0.1,0.3-0.2,0.4C83.4,7,83.3,7,83.1,7
		c-0.2,0-0.3,0-0.5-0.1c-0.5-0.3-1-0.6-1.5-0.7C80.7,6,80.2,6,79.7,6c-0.9,0-1.6,0.2-2,0.5C77.2,6.8,77,7.3,77,7.9
		c0,0.4,0.1,0.8,0.4,1.1c0.3,0.3,0.7,0.5,1.3,0.6l2.2,0.5c1,0.2,1.8,0.6,2.3,1.1c0.5,0.5,0.8,1.1,0.8,2c0,1.1-0.4,1.9-1.3,2.5
		C81.9,16.2,80.8,16.6,79.4,16.6z"/>
	<path d="M91.1,16.5c-0.3,0-0.5-0.1-0.7-0.2c-0.2-0.2-0.4-0.4-0.5-0.7l-4.2-9.7c-0.1-0.2-0.2-0.5-0.1-0.7c0-0.2,0.1-0.4,0.3-0.5
		c0.2-0.1,0.4-0.2,0.7-0.2c0.3,0,0.5,0.1,0.6,0.2c0.1,0.1,0.3,0.3,0.4,0.6l3.9,9.6h-0.6l4-9.6c0.1-0.3,0.2-0.5,0.4-0.6
		c0.1-0.1,0.4-0.2,0.6-0.2c0.3,0,0.5,0.1,0.6,0.2c0.1,0.1,0.2,0.3,0.2,0.5c0,0.2,0,0.4-0.1,0.7l-4.2,9.7c-0.1,0.3-0.3,0.6-0.5,0.7
		S91.4,16.5,91.1,16.5z"/>
	<path d="M104.1,20.9c-0.8,0-1.7-0.1-2.5-0.3c-0.8-0.2-1.5-0.5-2.2-0.9c-0.2-0.1-0.3-0.2-0.4-0.4c-0.1-0.2-0.1-0.3,0-0.5
		c0-0.2,0.1-0.3,0.2-0.4c0.1-0.1,0.2-0.2,0.4-0.2s0.3,0,0.5,0.1c0.7,0.4,1.4,0.7,2,0.9c0.6,0.2,1.3,0.2,1.9,0.2c1.1,0,2-0.3,2.6-0.9
		c0.6-0.6,0.9-1.5,0.9-2.6v-2.7h0.2c-0.2,0.9-0.7,1.7-1.5,2.2c-0.8,0.5-1.7,0.8-2.7,0.8c-1.1,0-2-0.2-2.8-0.7
		c-0.8-0.5-1.4-1.2-1.8-2.1c-0.4-0.9-0.6-1.9-0.6-3c0-0.9,0.1-1.7,0.4-2.4s0.6-1.3,1-1.8c0.5-0.5,1-0.9,1.7-1.2
		c0.6-0.3,1.4-0.4,2.2-0.4c1.1,0,2,0.3,2.7,0.8c0.8,0.5,1.3,1.3,1.5,2.2l-0.2,0.3V5.5c0-0.3,0.1-0.6,0.3-0.7s0.4-0.3,0.7-0.3
		c0.3,0,0.6,0.1,0.7,0.3s0.2,0.4,0.2,0.7v10c0,1.8-0.4,3.1-1.3,4C107.1,20.4,105.8,20.9,104.1,20.9z M103.8,14.5
		c0.8,0,1.4-0.2,1.9-0.5s1-0.8,1.3-1.5c0.3-0.6,0.4-1.4,0.4-2.3c0-1.3-0.3-2.3-1-3.1c-0.7-0.8-1.5-1.1-2.7-1.1
		c-0.7,0-1.4,0.2-1.9,0.5c-0.5,0.3-1,0.8-1.3,1.5c-0.3,0.6-0.4,1.4-0.4,2.2c0,1.3,0.3,2.3,1,3.1S102.7,14.5,103.8,14.5z"/>
</g>
<path d="M11.1,0C5,0,0,5,0,11.1s5,11.1,11.1,11.1s11.1-5,11.1-11.1S17.2,0,11.1,0z M18.3,16.1H3.8c-0.6,0-1-0.7-0.7-1.2l7.3-12.6
	c0.3-0.5,1.1-0.5,1.4,0L19,14.8C19.3,15.4,19,16.1,18.3,16.1z"/>
<g>
</g>
<g>
</g>
<g>
</g>
<g>
</g>
<g>
</g>
<g>
</g>
</svg>
