<?xml version="1.0" encoding="UTF-8" standalone="no"?>
<svg
   version="1.1"
   xmlns:mapsvg="http://mapsvg.com"	 
   mapsvg:geoViewBox="19.264243 42.660316 21.057021 39.645057"
   id="svg154"
   sodipodi:docname="albania.svg"
   inkscape:version="1.2 (dc2aeda, 2022-05-15)"
   width="355.745"
   height="791.99799"
   xmlns:inkscape="http://www.inkscape.org/namespaces/inkscape"
   xmlns:sodipodi="http://sodipodi.sourceforge.net/DTD/sodipodi-0.dtd"
   xmlns="http://www.w3.org/2000/svg"
   xmlns:svg="http://www.w3.org/2000/svg">  
  <path
     id="AL-01"
     title="Berat"
     class="land"
     d="m 110.026,476.906 0.675,0.523 -0.357,2.745 1.548,0.522 v 0 l 2.6,-0.888 1.469,0.784 v 0 l -0.178,1.046 -2.819,0.051 -0.595,1.204 2.719,1.411 -0.238,3.344 0.794,1.123 0.794,-2.325 1.548,-0.157 2.7,-6.742 2.957,-1.36 4.923,0.052 6.868,-4.157 8.476,0.497 2.461,-2.72 4.546,-0.654 1.508,9.047 -0.258,6.352 0.814,3.396 1.528,-0.444 3.811,-3.345 0.854,0.81 -0.576,2.404 1.985,2.012 1.032,0.287 3.116,-0.914 0.834,3.944 4.07,5.301 1.349,4.673 4.665,3.627 -0.238,3.289 5.895,0.783 5.419,-2.244 2.203,1.696 3.236,3.913 1.31,0.6 7.126,-0.887 5.935,-1.461 v 0 l 3.236,4.383 1.746,5.945 2.72,3.546 2.858,8.209 2.402,2.893 2.144,0.676 -0.06,4.168 1.231,2.76 2.58,1.927 4.546,-0.781 5.538,1.198 0.238,1.484 -0.913,3.384 -3.335,5.413 -0.556,2.212 3.097,4.812 0.833,8.061 1.767,6.473 0.417,5.196 v 0 l -3.613,0.312 -2.52,1.143 -2.799,0.26 -2.62,-1.066 -2.383,-0.155 -1.588,1.715 -0.793,3.221 0.417,2.493 1.726,3.479 -0.496,1.973 -2.322,0.338 -2.859,-1.351 -6.034,0.338 -3.057,1.168 -1.866,1.609 1.866,1.532 0.159,1.506 -6.531,4.359 -2.243,-3.711 -7.503,-7.812 -1.488,-4.519 -3.295,-0.857 -3.593,0.234 -0.338,-4.806 -4.367,-7.145 -4.545,-4.939 -4.625,-1.716 -2.045,-2.184 -1.826,-0.442 -3.076,1.249 -1.211,5.25 -2.283,-2.754 -1.171,-2.418 -0.873,-0.338 -1.45,0.103 -2.421,1.405 -4.764,-1.508 -2.858,-0.027 -5.38,2.496 -12.227,-3.848 v 0 l 0.218,-3.693 -0.754,-2.626 -3.057,-4.137 -2.64,0.416 -0.575,-0.391 -0.04,-1.795 -1.608,-0.989 -1.091,-1.665 -1.192,-5.961 -4.486,-6.77 -1.448,-0.13 0.218,-1.433 3.632,-4.429 -1.429,-9.122 -2.66,-2.45 -1.528,-4.198 -4.962,-5.477 -0.894,-2.792 0.159,-3.549 -1.926,-6.211 -4.168,-6.919 0.1,-6.504 0.734,0.836 0.853,0.051 1.727,-1.75 -1.667,-1.437 0.278,-0.941 1.965,-1.62 -1.549,-0.496 -0.397,-0.732 0.378,-0.967 1.329,-0.471 -0.218,-1.933 2.561,0.287 1.092,-0.941 1.131,2.143 0.655,0.026 2.303,-4.365 z" />
  <path
     id="AL-09"
     title="Dibër"
     class="land"
     d="m 190.04,210.776 1.33,0.107 1.826,1.434 4.168,-1.355 4.903,-3.081 0.894,-1.195 4.625,-1.859 0.277,-3.136 1.549,-0.239 5.478,4.198 0.695,1.089 0.357,5.737 -1.39,3.505 0.08,2.283 4.01,5.839 2.6,0.982 2.402,-0.159 2.282,-1.327 5.439,-1.699 0.477,-2.017 -0.596,-3.477 0.576,-0.876 6.014,-0.399 11.572,0.824 5.935,-1.567 -0.119,-1.381 -1.845,-1.275 0.357,-1.354 1.29,-0.159 2.124,1.381 v 0 l 0.576,6.319 -0.596,5.255 2.303,7.058 0.039,2.308 -4.942,0.079 -0.258,2.175 -2.6,1.007 0.416,2.122 -2.898,4.798 -0.139,3.632 -1.072,3.365 0.814,2.887 1.549,2.146 0.516,4.635 -2.64,7.228 2.124,2.726 -0.219,3.731 1.549,1.138 1.925,2.725 -0.477,0.582 0.973,1.375 0.278,1.64 1.171,1.323 0.735,5.684 -3.256,1.322 -3.593,3.145 -5.061,0.793 -1.628,0.872 -3.652,-0.316 -1.43,0.501 -0.198,0.582 2.124,1.532 -0.079,2.167 -3.355,4.517 0.119,2.298 1.926,1.4 2.322,0.37 -0.139,2.086 1.409,1.636 2.223,0.819 1.767,4.54 0.417,3.668 1.231,2.296 -0.834,1.556 0.278,0.897 1.608,1.372 1.23,-0.264 0.775,0.66 2.62,0.158 -0.378,1.978 3.593,2.954 0.655,2.294 0.12,1.634 -1.311,0.712 -0.893,3.005 -0.933,0.896 1.211,1.528 v 0.923 l -2.402,2.319 -0.496,2.081 -1.846,1.212 -0.278,2.555 -1.885,1.949 -2.601,-2.396 -0.953,-0.238 -0.238,2.634 -1.25,1.185 1.31,1.527 2.143,6.74 -0.397,1.369 0.794,1.895 v 0 l -2.123,0.316 -2.899,-0.527 -3.533,1.711 -1.727,-0.395 -2.739,0.816 -2.62,-0.368 -1.926,-1.474 -1.21,-2.974 -0.973,-0.579 -6.669,3.869 -2.482,0.842 -1.925,-0.395 0.317,-1.289 1.867,-2.343 0.833,-5.844 -0.218,-2.265 -0.913,-1.553 -6.451,-4.083 0.615,-5.322 -1.171,-1.607 -2.958,-1.819 -4.406,-0.29 -2.204,0.712 -3.176,3.241 -6.312,4.532 -3.712,1.132 v 0 l -0.516,-3.055 -1.469,-1.37 -2.779,-0.554 -2.937,0.949 -1.847,-0.422 -2.282,-2.529 -6.074,-9.358 -1.767,-1.371 -2.6,0.474 -4.863,6.697 -0.437,-0.053 -0.695,-4.139 -2.898,-3.797 -2.838,-1.925 -3.792,-0.633 -2.064,-1.477 -3.017,-8.284 -4.287,-6.071 -8.278,-6.389 -4.248,-0.475 v 0 l -1.707,-3.434 -4.029,-4.993 -4.724,-3.594 -3.276,-5.419 v 0 l -1.488,-9.731 -3.891,-5.53 0.457,-5.266 -0.476,-2.938 -1.569,-2.86 -4.763,-4.899 4.902,-2.596 4.288,-4.583 4.625,5.219 6.55,0.398 5.32,-2.199 2.501,0.821 2.58,1.695 4.863,1.457 1.926,-4.159 1.389,-1.245 4.308,-2.146 2.759,0.927 2.322,3.577 2.402,0.344 2.144,-1.457 0.357,-2.887 1.945,-2.279 1.33,-0.689 0.417,-1.67 2.005,-1.855 0.655,-2.386 7.562,-0.477 11.077,-1.935 2.243,0.132 -0.993,-5.171 -0.159,-4.562 -2.521,-0.849 -0.654,-1.035 0.436,-7.909 2.759,-1.486 1.608,-5.602 2.243,-0.823 z" />
  <path
     id="AL-02"
     title="Durrës"
     class="land"
     d="m 42.319,289.626 7.166,1.375 3.335,-0.238 5.558,-1.639 v 0 l 2.918,1.824 3.196,-0.502 0.556,0.238 -0.02,1.321 1.806,-0.529 7.424,2.247 6.669,2.933 6.193,0.555 4.526,-0.502 14.232,-3.806 3.95,-1.665 5.3,-3.516 v 0 l 3.275,5.418 4.724,3.594 4.029,4.993 1.707,3.434 v 0 l -0.179,3.855 -1.647,1.743 -2.58,4.857 -2.561,2.507 -2.62,3.958 -1.528,0.343 -1.846,-1.583 -2.601,1.979 -6.431,0.923 -5.102,3.772 -2.58,3.323 -3.752,2.136 -5.22,0.369 -3.99,-2.979 -0.496,-11.924 -2.799,1.452 0.457,2.902 -2.382,0.264 -1.607,1.688 -0.794,0.053 -1.37,-1.451 -1.211,-0.29 -2.898,1.82 -1.628,-0.501 -1.409,2.321 1.072,7.015 -0.615,5.509 3.731,6.482 v 1.687 l -1.171,2.95 -0.06,2.871 1.548,6.872 -0.119,1.421 -5.677,7.105 -2.302,5.156 -1.688,-2.052 -2.144,-1.184 -7.007,1.368 -5.359,-1.052 v 0 l -1.688,-5.025 -2.68,-3.5 -0.04,-0.921 -1.965,-1.948 -1.052,-0.737 -0.734,-0.369 -3.037,-0.447 -0.258,0.421 -1.33,-0.368 -0.854,2 0.437,1.053 -1.111,-1.396 -2.441,-0.869 -0.338,-1.948 -2.263,-1.58 -0.496,-7.138 0.238,-5.006 0.714,-1.159 0.02,-1.397 -0.596,-1.45 -2.68,-2.108 -0.377,-1.45 -1.231,-1.001 -1.449,-2.452 2.759,1.503 0.556,1.081 -0.874,-0.896 0.337,0.896 1.925,1.397 3.553,0.211 2.104,-1.054 1.072,-1.134 1.35,-3.164 0.04,-0.316 -0.734,1.213 0.278,-1.978 0.714,0.343 -0.297,-1.055 -0.318,-1.793 0.357,-0.264 -0.119,-0.264 -0.501,0.3 -0.452,-0.511 0.099,0.712 -0.953,-0.607 1.032,2.057 -0.337,0.158 0.258,2.189 -0.615,-2.822 -1.449,-2.453 3.831,-0.791 4.129,-2.849 1.945,-2.111 3.851,-6.202 1.31,-3.749 -0.02,-6.575 -0.595,-3.117 -1.33,-1.77 -6.808,-2.642 -1.747,-1.533 -0.496,-0.819 0.159,-1.718 -2.322,-4.943 -0.874,-0.74 5.221,2.142 z" />
  <path
     id="AL-03"
     title="Elbasan"
     class="land"
     d="m 188.551,348.945 3.712,-1.132 6.312,-4.532 3.176,-3.241 2.204,-0.712 4.406,0.29 2.958,1.819 1.171,1.607 -0.615,5.322 6.451,4.083 0.913,1.553 0.218,2.265 -0.833,5.844 -1.867,2.343 -0.317,1.289 1.925,0.395 2.482,-0.842 6.669,-3.869 0.973,0.579 1.21,2.974 1.926,1.474 2.62,0.368 2.739,-0.816 1.727,0.395 3.533,-1.711 2.899,0.527 2.123,-0.316 v 0 l 0.556,0.632 -0.575,2.552 0.357,3.473 1.945,4.577 -1.032,1.42 -0.318,2.366 3.335,5.416 0.675,3.311 4.565,1.735 0.517,2.628 3.811,5.936 0.555,2.285 1.985,3.046 0.437,2.652 -1.27,1.208 -1.191,3.412 1.627,2.02 0.834,2.624 0.992,0.604 v 0 l 2.383,6.872 -2.303,10.226 -0.238,4.691 -1.35,-3.355 -0.933,-0.628 -7.325,-1.049 -2.302,0.21 -4.169,1.677 -4.248,0.367 -4.505,3.433 -3.95,2.122 -5.34,0.917 -1.449,2.07 -0.774,7.699 -1.111,3.587 -3.831,4.685 -0.159,1.413 2.699,5.286 5.28,6.172 4.169,8.157 4.267,6.481 -1.29,10.37 -0.456,1.228 -2.105,2.167 -0.436,2.819 -1.191,1.227 -1.806,0.73 -1.529,3.759 -1.469,-0.027 -4.188,-1.905 -4.784,0.601 -4.843,-1.175 -1.092,0.679 -1.052,2.479 -1.409,1.096 -6.967,-0.757 1.27,2.922 v 0 l -5.935,1.461 -7.126,0.887 -1.31,-0.6 -3.236,-3.913 -2.203,-1.696 -5.419,2.244 -5.895,-0.783 0.238,-3.289 -4.665,-3.627 -1.349,-4.673 -4.07,-5.301 -0.834,-3.944 -3.116,0.914 -1.032,-0.287 -1.985,-2.012 0.576,-2.404 -0.854,-0.81 -3.811,3.345 -1.528,0.444 -0.814,-3.396 0.258,-6.352 -1.508,-9.047 -4.546,0.654 -2.461,2.72 -8.476,-0.497 -6.868,4.157 -4.923,-0.052 -2.957,1.36 -2.7,6.742 -1.548,0.157 -0.794,2.325 -0.794,-1.123 0.238,-3.344 -2.719,-1.411 0.595,-1.204 2.819,-0.051 0.178,-1.046 v 0 l -1.191,-0.784 -2.878,0.888 v 0 l -1.548,-0.522 0.357,-2.745 -0.675,-0.523 v 0 l 1.41,-1.229 -0.755,-4.603 -4.367,-3.897 0.04,-1.334 1.806,-3.297 0.258,-4.841 -0.158,-3.403 -2.164,-4.032 -0.178,-4.793 2.203,-5.763 -0.953,-0.629 -4.883,0.025 -8.138,-2.881 -3.256,1.021 -2.56,-0.472 -1.628,-1.441 -2.839,-5.479 -2.461,-2.804 v 0 l 2.203,-2.124 3.573,-1.391 2.065,-6.243 6.51,-5.3 0.874,-4.488 1.727,-1.628 2.144,-0.263 2.104,2.232 1.786,0.709 4.506,-2.022 1.747,0.683 0.913,-0.263 1.727,-2.179 1.985,-1.418 2.639,0.368 1.47,-3.913 2.52,-1.209 1.509,-2.678 3.096,-0.421 1.985,-1.471 4.764,-2.023 3.415,-3.416 7.264,-4.968 5.876,-11.439 2.322,-2.604 2.978,-0.842 4.684,2.946 2.739,0.737 1.668,-0.421 6.153,-4.683 3.256,-1.684 0.476,-2 -1.112,-4.001 1.072,-2.528 3.672,-2.527 9.647,-3.635 1.171,-0.737 z" />
  <path
     id="AL-04"
     title="Fier"
     class="land"
     d="m 34.161,440.762 2.183,-1.048 2.601,-0.21 -0.06,-1.52 -1.131,-0.943 -0.417,-2.909 0.893,-1.468 1.132,-0.551 -0.318,-1.73 0.774,-0.104 0.913,1.573 0.813,-0.079 0.159,-0.892 -1.29,-0.733 -0.635,-1.652 1.131,-0.629 0.596,0.734 1.31,-1.364 1.568,0.604 1.787,4.273 0.635,0.419 0.973,-1.153 -0.159,-3.172 1.409,1.914 1.171,-1.652 0.833,-0.235 2.184,1.049 2.66,-0.079 0.854,0.787 1.707,0.104 0.496,-0.604 -0.496,-1.992 0.278,-1.206 3.553,-0.314 0.595,-2.309 0.874,-0.445 1.707,0.367 1.291,-1.049 1.846,2.098 0.834,-0.184 1.35,-1.94 0.993,0.288 -0.894,1.652 0.298,0.446 2.184,-1.601 0.298,1.889 0.635,0.708 1.31,-1.704 2.481,-0.42 3.334,3.278 v 0 l 2.461,2.805 2.839,5.479 1.627,1.441 2.561,0.472 3.255,-1.021 8.138,2.882 4.883,-0.025 0.953,0.629 -2.203,5.763 0.179,4.793 2.164,4.032 0.159,3.403 -0.258,4.841 -1.806,3.297 -0.04,1.334 4.367,3.897 0.754,4.603 -1.409,1.229 v 0 l -0.854,0.549 -2.303,4.365 -0.655,-0.026 -1.131,-2.143 -1.092,0.94 -2.561,-0.287 0.218,1.934 -1.33,0.471 -0.377,0.967 0.397,0.732 1.548,0.496 -1.965,1.62 -0.278,0.94 1.667,1.438 -1.727,1.75 -0.854,-0.052 -0.734,-0.836 -0.1,6.504 4.168,6.919 1.925,6.212 -0.159,3.549 0.894,2.792 4.962,5.477 1.528,4.198 2.66,2.45 1.429,9.122 -3.632,4.429 -0.218,1.433 1.449,0.13 4.486,6.771 1.191,5.961 1.091,1.665 1.608,0.989 0.04,1.795 0.575,0.391 2.64,-0.416 3.057,4.137 0.754,2.627 -0.218,3.692 v 0 l -3.632,-0.286 -1.211,0.547 -3.771,3.743 -2.124,3.458 -5.28,4.496 -1.627,4.209 -1.945,2.701 -2.283,1.896 -3.375,1.194 v 0 l -2.104,-2.856 -1.41,-0.806 -0.317,-2.364 -1.826,-0.363 -1.747,-1.741 -1.191,-0.077 0.833,-4.834 1.191,-1.976 -0.576,-2.781 0.238,-2.002 -2.044,-0.26 -3.117,1.378 -1.25,-1.092 v -1.404 l 3.097,-5.045 -0.079,-1.69 -2.224,-0.547 -2.164,0.547 -3.314,-0.131 -0.933,-0.962 -3.692,-1.431 -2.481,-1.691 -1.23,-1.848 -5.359,-2.706 -1.727,-0.104 -1.965,2.187 -0.854,-0.364 -0.794,-1.927 -0.973,-0.676 h -0.615 l -0.635,1.483 -1.826,-0.417 -0.615,-1.405 0.337,-2.29 -1.171,0.13 -0.497,-1.041 0.179,-0.703 1.548,-0.417 0.06,-0.885 -2.521,-1.302 -1.945,1.979 -1.985,0.755 -1.032,-1.718 0.159,-3.906 -1.767,-1.12 -2.342,0.495 -0.357,-0.651 0.397,-0.989 -0.774,-1.172 -3.334,0.469 -1.33,-1.276 -0.873,1.067 -0.913,-0.234 -0.1,-1.927 1.767,-2.032 -3.196,-0.886 -1.191,-1.277 -1.905,0.417 -1.33,-2.11 1.032,-2.971 -0.754,-0.704 -4.188,2.397 -1.727,0.078 -0.774,1.277 0.516,1.303 -0.754,0.521 -2.858,-1.199 -1.25,-3.179 -0.913,-0.729 -7.384,-2.477 -2.997,0.704 -3.275,3.414 -2.719,-0.651 v 0 l -1.072,-1.877 1.985,-2.268 1.747,-0.392 -2.263,1.356 4.506,-1.46 1.35,-1.33 0.794,0.678 0.596,-0.417 -0.457,-1.512 0.02,1.226 -1.191,-0.704 -3.037,2.138 4.844,-5.319 3.533,-7.276 0.119,-9.577 0.04,-1.749 0.397,-2.141 0.774,0.966 0.834,-0.783 0.278,-2.585 -0.814,-1.619 -0.754,-0.234 0.04,-1.202 1.727,-6.582 0.497,0.574 0.258,0.602 1.806,-2.561 -0.297,1.594 1.449,-0.94 -1.33,-1.568 -0.397,0.941 -0.993,-0.523 -1.37,1.464 -0.794,-0.497 3.375,-6.429 1.886,-6.823 1.528,-2.354 -1.39,4.524 0.516,0.496 1.211,-0.104 1.25,-0.941 -0.08,-2.563 -0.536,-0.967 -0.596,0.078 0.179,-1.281 -1.548,-1.831 -0.536,0.811 0.496,2.459 -0.417,1.046 -0.635,-8.632 2.184,1.701 1.449,-0.157 -0.437,-1.334 -0.595,0.941 -0.06,-3.741 -2.184,2.276 0.833,-1.963 0.397,-0.366 2.66,-3.323 5.975,-4.424 0.199,0.498 -4.943,3.298 -1.846,2.146 2.878,0.942 1.667,-0.393 2.26,0.465 0.874,-0.628 -0.258,-1.832 1.21,0.785 -1.409,-2.303 3.513,-4.686 -1.945,0.864 0.675,0.287 -1.211,0.157 0.457,0.419 -1.231,-0.157 2.938,-2.173 0.973,-1.676 0.477,-5.08 -1.469,-4.191 -0.297,0.341 0.734,1.44 -2.858,-1.859 -0.159,-0.839 -2.422,-0.209 0.596,0.917 1.35,0.471 -1.012,-0.025 -1.965,-0.498 z" />
  <path
     id="AL-05"
     title="Gjirokastër"
     class="land"
     d="m 128.129,570.59 12.227,3.848 5.38,-2.496 2.858,0.027 4.764,1.508 2.421,-1.405 1.45,-0.103 0.873,0.338 1.171,2.418 2.283,2.754 1.211,-5.25 3.076,-1.249 1.826,0.442 2.045,2.184 4.625,1.716 4.545,4.939 4.367,7.145 0.338,4.806 3.593,-0.234 3.295,0.857 1.488,4.519 7.503,7.812 2.243,3.711 6.531,-4.359 -0.159,-1.506 -1.866,-1.532 1.866,-1.609 3.057,-1.168 6.034,-0.338 2.859,1.351 2.322,-0.338 0.496,-1.973 -1.726,-3.479 -0.417,-2.493 0.793,-3.221 1.588,-1.715 2.383,0.155 2.62,1.066 2.799,-0.26 2.52,-1.143 3.613,-0.312 v 0 l -0.258,7.014 -1.429,4.622 2.421,4.386 4.566,4.076 -0.496,2.464 -3.474,6.019 -0.278,1.427 0.655,2.541 2.561,2.282 0.417,9.306 0.893,0.492 2.223,5.959 1.628,7.874 1.965,4.453 6.868,8.799 -0.358,5.277 5.34,5.87 1.806,3.698 1.052,4.498 1.648,2.248 1.965,1.369 v 0 l -1.787,1.886 -2.223,-0.207 -2.997,1.266 -4.169,0.284 -7.959,-4.857 -0.913,2.171 -1.688,0.981 -0.853,1.551 -1.052,0.31 -3.335,-0.801 -1.846,-2.016 -2.243,0.234 -6.173,3.306 -1.826,2.609 -0.318,1.292 0.933,2.04 -1.568,4.028 -1.747,1.678 0.318,2.582 -1.131,2.787 -4.447,1.781 -7.483,-0.723 -4.268,0.258 1.29,3.87 3.236,3.793 2.005,3.688 -1.41,5.879 2.164,2.062 2.699,1.547 1.747,4.304 1.946,1.16 1.448,5.358 5.4,7.315 -0.715,1.441 0.496,1.443 -0.873,4.632 -3.831,5.276 -1.965,1.183 -2.442,-0.771 -3.573,-3.783 -6.709,-1.93 -2.62,-1.57 v 0 l -2.521,-5.509 -3.513,-1.314 -0.913,-4.352 -3.156,-6.982 -5.062,-5.747 -0.417,-4.072 0.953,-3.275 -0.179,-1.418 -7.463,-2.322 -4.486,-4.9 -4.744,-1.909 -1.648,-1.265 -3.513,-4.18 -2.065,-1.446 -1.191,-3.433 -5.061,-4.725 -2.819,-4.106 -4.525,-3.85 -0.775,0.259 -0.813,1.601 -1.251,0.129 -6.154,-4.107 -4.704,3.694 -1.151,0.207 -1.171,-0.75 -3.434,-8.76 -4.705,-8.738 -4.049,-3.88 -5.101,-3.051 -3.434,-11.155 -5.002,-7.948 -0.477,-4.922 -2.262,-4.223 0.019,-0.83 1.826,-2.539 -2.818,-1.114 -1.231,-3.837 -10.203,-11.307 0.794,-1.686 10.56,-10.095 -2.044,-2.752 -1.39,-0.364 -2.084,-4.492 v 0 l 3.375,-1.195 2.283,-1.896 1.945,-2.701 1.627,-4.209 5.28,-4.496 2.124,-3.458 3.772,-3.743 1.211,-0.547 z" />
  <path
     id="AL-06"
     title="Korçë"
     class="land"
     d="m 267.334,417.165 11.989,1.495 12.029,45.299 5.379,2.094 2.581,-0.472 2.62,0.315 4.407,1.412 3.057,-1.648 2.441,-5.599 2.442,-3.167 8.575,3.611 2.461,1.701 1.191,0.105 1.31,-1.414 2.024,0.262 2.501,-0.706 1.232,0.366 2.58,2.538 1.39,0.628 3.334,4.683 0.576,25.59 -1.271,3.16 -4.327,3.186 2.024,0.834 1.232,1.253 1.945,0.053 0.178,6.473 0.973,1.409 3.414,1.827 3.474,4.043 6.65,11.369 -0.696,7.559 0.616,3.882 -0.516,1.224 -1.509,1.068 0.238,3.099 -0.417,1.797 -0.793,0.703 0.933,4.478 -0.655,4.295 -2.045,1.093 -1.786,-0.781 -3.236,0.885 -1.349,2.811 -0.338,2.315 -3.791,2.472 -0.556,1.274 -1.41,-0.078 -0.892,2.861 0.873,2.756 -0.139,2.132 -3.116,4.056 0.833,1.195 -5.875,2.002 -4.01,-3.457 -4.029,0.233 -2.938,1.014 -1.647,-0.39 -1.648,-1.455 -2.402,-0.546 -2.184,3.326 -0.456,3.431 -1.647,2.027 -0.1,1.689 -2.024,-0.234 -3.296,1.871 -1.845,1.817 1.31,3.455 -1.072,3.168 1.151,4.568 -0.496,5.425 -2.66,1.557 -0.238,0.83 0.595,1.323 -0.913,-0.052 -1.965,1.454 -0.894,1.737 -0.178,1.22 1.231,2.567 -2.005,2.022 -3.533,0.674 -1.191,3.785 -3.375,3.474 -0.675,1.711 -0.337,2.073 0.477,1.995 2.203,1.839 0.257,2.773 -0.456,2.279 0.754,2.123 -0.714,2.253 -1.767,1.761 -1.151,2.744 -2.759,0.828 -2.819,1.786 0.437,1.062 -1.032,5.174 3.692,3.39 -0.417,1.216 -1.747,1.707 -1.37,3.517 0.775,3.697 -0.635,2.766 0.357,1.422 -2.799,0.465 -1.33,0.983 -6.312,-0.052 -0.933,0.62 -0.477,1.447 -2.143,1.602 v 0 l -1.965,-1.369 -1.648,-2.248 -1.052,-4.498 -1.806,-3.698 -5.34,-5.87 0.358,-5.277 -6.868,-8.799 -1.965,-4.453 -1.628,-7.874 -2.223,-5.959 -0.893,-0.492 -0.417,-9.306 -2.561,-2.282 -0.655,-2.541 0.278,-1.427 3.474,-6.019 0.496,-2.464 -4.566,-4.076 -2.421,-4.386 1.429,-4.622 0.258,-7.014 v 0 l -0.417,-5.196 -1.767,-6.473 -0.833,-8.061 -3.097,-4.812 0.556,-2.212 3.335,-5.413 0.913,-3.384 -0.238,-1.484 -5.538,-1.198 -4.546,0.781 -2.58,-1.927 -1.231,-2.76 0.06,-4.168 -2.144,-0.676 -2.402,-2.893 -2.858,-8.209 -2.72,-3.546 -1.746,-5.945 -3.236,-4.383 v 0 l -1.27,-2.922 6.967,0.757 1.409,-1.096 1.052,-2.479 1.092,-0.679 4.843,1.175 4.784,-0.601 4.188,1.905 1.469,0.027 1.529,-3.759 1.806,-0.73 1.191,-1.227 0.436,-2.819 2.105,-2.167 0.456,-1.228 1.29,-10.37 -4.267,-6.481 -4.169,-8.157 -5.28,-6.172 -2.699,-5.286 0.159,-1.413 3.831,-4.685 1.111,-3.587 0.774,-7.699 1.449,-2.07 5.34,-0.917 3.95,-2.122 4.505,-3.433 4.248,-0.367 4.169,-1.677 2.302,-0.21 7.325,1.049 0.933,0.628 1.35,3.355 0.238,-4.691 2.303,-10.226 -2.383,-6.872 v 0 z" />
  <path
     id="AL-07"
     title="Kukës"
     class="land"
     d="m 168.722,35.784 1.31,-0.054 0.357,1.208 5.994,2.469 2.66,2.066 0.08,2.602 2.441,2.601 0.874,3.62 1.33,0.805 1.369,1.903 -1.072,1.769 0.1,1.1 5.398,4.716 1.231,2.921 0.159,1.822 -2.342,1.901 -1.251,2.572 6.193,5.57 0.119,1.74 0.953,1.071 -0.258,4.416 -1.509,1.231 1.986,3.424 0.059,0.91 -0.754,1.017 0.357,0.909 2.005,0.561 0.675,1.044 6.53,-1.418 3.057,2.327 4.188,-3.316 h 2.104 l 1.509,0.802 1.846,2.3 -0.198,1.872 4.247,1.07 3.851,1.845 2.144,3.529 3.593,0.668 0.536,1.149 2.898,0.268 3.652,1.63 3.136,3.074 0.417,1.763 3.97,3.206 0.615,2.858 4.645,4.753 1.588,7.261 2.6,5.631 -0.397,1.04 2.899,3.628 -0.279,1.947 2.204,4.48 -1.231,3.866 0.933,2.772 -2.143,4.104 3.116,6.021 1.409,0.693 3.335,3.915 0.615,5.883 0.933,1.119 2.263,8.275 2.144,2.501 0.377,3.405 -1.41,6.142 -5.22,3.27 -1.369,2.259 -1.827,0.744 3.395,8.369 0.079,1.939 -4.129,0.505 -2.461,1.753 v 0 l -2.124,-1.381 -1.29,0.159 -0.357,1.354 1.845,1.275 0.119,1.381 -5.935,1.567 -11.572,-0.824 -6.014,0.399 -0.576,0.876 0.596,3.477 -0.477,2.017 -5.439,1.699 -2.282,1.327 -2.402,0.159 -2.6,-0.982 -4.01,-5.839 -0.08,-2.283 1.39,-3.505 -0.357,-5.737 -0.695,-1.089 -5.478,-4.198 -1.549,0.239 -0.277,3.136 -4.625,1.859 -0.894,1.195 -4.903,3.081 -4.168,1.355 -1.826,-1.434 -1.33,-0.107 v 0 l 1.767,-7.544 -0.179,-5.42 9.329,-9.997 -1.925,-9.336 0.496,-1.783 1.013,-1.011 -0.199,-1.837 -0.774,-1.41 -2.382,-1.199 -1.032,-2.662 v 0 l -1.846,-1.144 -1.946,0.106 -1.23,-0.612 -1.152,-4.474 -4.386,-7.086 -2.879,1.811 -1.727,2.798 -1.925,-0.747 -2.124,0.161 -0.615,-0.56 3.493,-2.504 2.045,-2.905 -0.893,-6.823 2.223,-4.666 1.489,-1.253 0.218,-1.413 1.171,-1.254 3.692,-2.054 3.434,-3.122 1.826,-4.536 -0.476,-0.854 -2.66,0.134 -3.672,-2.616 -1.767,-0.027 -0.834,-1.441 -1.389,0.24 -1.429,-2.696 -2.799,-0.348 -1.886,0.615 -2.858,-0.802 -1.131,-0.64 -2.978,-3.605 -3.136,0.347 -1.35,-1.042 -1.211,0.027 -2.481,-2.511 -2.322,-0.08 -3.196,-3.419 -4.029,-0.107 -2.462,-2.886 -0.377,-1.337 -4.903,1.524 -2.799,-0.214 -4.942,0.882 -4.03,-2.005 -2.799,0.108 -1.984,1.149 -2.462,4.195 -3.99,0.855 -1.766,1.949 -1.012,-1.362 -4.467,-3.339 -0.496,-2.485 2.382,-8.554 -2.322,-5.134 -1.072,-8.373 -2.025,-2.435 -1.171,-3.614 0.119,-1.606 1.628,-3.48 0.099,-2.571 -2.481,-3.83 -1.271,-5.545 0.457,-2.573 2.838,-6.809 v 0 l 0.516,0.108 1.112,-1.502 0.139,-1.903 2.184,-0.054 1.071,-1.207 2.7,0.376 1.945,-3.755 3.871,2.869 1.389,-1.823 0.378,-3.756 1.488,-0.187 3.653,-2.415 2.163,-0.403 1.826,1.503 2.283,0.403 3.077,-0.644 4.803,0.751 2.124,-5.179 0.139,-3.274 6.471,-2.228 1.608,-2.31 4.804,1.102 1.389,0.858 2.402,4.725 z" />
  <path
     id="AL-08"
     title="Lezhë"
     class="land"
     d="m 66.198,274.896 -0.457,0.026 0.04,0.714 -0.457,-0.608 -0.258,2.037 -0.318,-3.175 -1.072,-2.434 z m -6.522,-5.091 -0.485,-1.921 0.159,-0.529 0.833,-0.053 z m 136.478,-101.228 1.032,2.662 2.382,1.198 0.774,1.411 0.199,1.836 -1.013,1.011 -0.496,1.783 1.925,9.337 -9.329,9.996 0.179,5.421 -1.767,7.544 v 0 l -3.454,0.292 -2.243,0.823 -1.608,5.602 -2.759,1.486 -0.437,7.909 0.655,1.035 2.521,0.849 0.159,4.562 0.993,5.171 -2.243,-0.132 -11.076,1.936 -7.563,0.477 -0.655,2.386 -2.005,1.855 -0.417,1.669 -1.33,0.689 -1.945,2.279 -0.357,2.888 -2.144,1.457 -2.402,-0.344 -2.322,-3.577 -2.759,-0.927 -4.308,2.146 -1.39,1.245 -1.925,4.159 -4.863,-1.457 -2.58,-1.695 -2.501,-0.821 -5.319,2.199 -6.55,-0.397 -4.625,-5.219 -4.288,4.583 -4.903,2.596 4.764,4.899 1.568,2.859 0.476,2.938 -0.457,5.267 3.891,5.529 1.489,9.731 v 0 l -5.3,3.516 -3.95,1.665 -14.232,3.806 -4.526,0.502 -6.193,-0.555 -6.669,-2.933 -7.424,-2.247 -1.806,0.529 0.02,-1.321 -0.556,-0.238 -3.196,0.502 -2.918,-1.824 v 0 l 1.31,-0.846 1.012,-1.798 0.199,-3.411 1.826,0.767 0.854,-0.793 1.409,-5.687 1.092,1.058 0.238,3.121 1.072,0.529 -0.139,-2.433 0.893,-2.777 -0.576,-3.757 -1.667,-0.318 0.139,-1.005 -2.164,-1.111 -0.536,0.185 0.139,0.794 h -0.913 l -0.653,0.382 -0.915,-0.224 -1.151,-1.799 0.933,-2.355 -0.973,-1.244 2.461,-5.93 1.171,-5.721 -0.099,-3.656 -3.057,-7.34 -0.199,-1.644 1.826,-3.367 0.993,-0.212 1.608,0.795 1.826,-0.716 0.794,-4.27 -0.357,-4.456 -0.496,-2.042 -1.25,-1.459 -0.973,-0.212 -0.576,1.327 -1.667,-0.664 -8.099,-6.13 -8.714,-3.902 v 0 l 1.31,-2.92 0.357,-2.602 -1.032,-5.684 -7.503,-6.909 -0.516,-2.923 2.521,-1.436 2.898,0.186 2.303,2.419 2.799,1.435 7.305,5.846 3.077,1.806 h 1.31 l 1.568,-1.063 0.477,-1.116 -1.767,-5.208 1.25,-2.206 -0.774,-5.875 1.012,-1.382 2.064,-0.691 2.342,0.452 3.434,2.074 3.236,0.106 0.417,1.489 -0.695,2.579 0.596,1.355 5.955,0.718 6.352,-0.983 4.744,2.206 2.104,2.259 1.33,2.524 1.032,0.425 1.667,-1.089 3.116,-3.481 1.39,-3.402 0.04,-3.11 3.811,-1.037 1.925,-2.526 1.807,0.027 1.151,1.648 2.184,1.462 2.7,0.16 4.685,-1.941 0.794,-1.037 0.317,-1.782 2.64,-1.702 1.588,-0.186 3.831,1.17 2.799,-3.085 1.568,-0.292 1.588,2.66 5.419,20.759 1.032,0.504 1.866,-1.886 1.846,-0.372 2.759,0.531 2.203,2.417 1.469,0.345 3.97,-6.748 2.938,-6.378 4.367,-2.313 3.077,-2.925 1.409,-3.43 -0.02,-2.713 0.854,-1.835 12.902,-6.492 12.367,-4.685 z" />
  <path
     id="AL-10"
     title="Shkodër"
     class="land"
     d="m 96.409,8.658 0.556,3.655 1.429,0.994 0.972,2.418 1.886,1.908 0.417,2.955 -0.734,0.699 -3.93,-0.027 -0.774,1.987 1.132,2.712 -1.032,2.148 0.06,1.611 -1.211,0.725 0.179,1.127 3.057,5.636 0.973,5.178 2.978,1.556 2.501,3.862 7.245,4.183 v 0 l -2.838,6.809 -0.457,2.573 1.271,5.545 2.481,3.83 -0.099,2.571 -1.628,3.48 -0.119,1.606 1.171,3.613 2.024,2.435 1.072,8.373 2.322,5.134 -2.382,8.554 0.496,2.485 4.466,3.339 1.012,1.362 1.767,-1.95 3.99,-0.855 2.461,-4.195 1.985,-1.149 2.799,-0.107 4.029,2.004 4.943,-0.882 2.799,0.214 4.903,-1.523 0.377,1.336 2.461,2.886 4.029,0.107 3.196,3.419 2.322,0.08 2.481,2.511 1.211,-0.026 1.35,1.042 3.136,-0.347 2.978,3.605 1.131,0.641 2.858,0.801 1.886,-0.614 2.799,0.347 1.429,2.696 1.389,-0.24 0.834,1.441 1.767,0.027 3.672,2.616 2.66,-0.133 0.476,0.854 -1.826,4.536 -3.434,3.122 -3.692,2.054 -1.171,1.254 -0.218,1.413 -1.489,1.253 -2.223,4.666 0.893,6.823 -2.044,2.904 -3.494,2.504 0.615,0.56 2.124,-0.16 1.925,0.746 1.727,-2.797 2.878,-1.812 4.387,7.086 1.151,4.474 1.23,0.612 1.945,-0.106 1.846,1.145 v 0 l -3.593,2.343 -12.367,4.685 -12.902,6.492 -0.854,1.835 0.02,2.713 -1.409,3.43 -3.075,2.925 -4.367,2.313 -2.938,6.378 -3.97,6.748 -1.469,-0.345 -2.203,-2.417 -2.759,-0.531 -1.846,0.372 -1.866,1.886 -1.032,-0.504 -5.419,-20.759 -1.588,-2.66 -1.568,0.292 -2.799,3.085 -3.831,-1.17 -1.588,0.186 -2.64,1.702 -0.317,1.782 -0.794,1.037 -4.685,1.941 -2.7,-0.16 -2.184,-1.462 -1.151,-1.648 -1.807,-0.027 -1.925,2.526 -3.811,1.037 -0.04,3.11 -1.39,3.402 -3.116,3.481 -1.667,1.089 -1.032,-0.425 -1.33,-2.524 -2.104,-2.259 -4.744,-2.206 -6.352,0.983 -5.955,-0.718 -0.596,-1.355 0.695,-2.579 -0.417,-1.489 -3.236,-0.106 -3.434,-2.074 -2.342,-0.452 -2.064,0.691 -1.012,1.382 0.774,5.875 -1.25,2.206 1.767,5.208 -0.477,1.116 -1.568,1.063 h -1.31 l -3.077,-1.806 -7.305,-5.846 -2.799,-1.435 -2.303,-2.419 -2.898,-0.186 -2.521,1.436 0.516,2.923 7.503,6.909 1.032,5.684 -0.357,2.602 -1.31,2.92 v 0 l -8.456,-2.602 -6.649,-0.982 -2.501,0.558 -3.156,3.558 -2.005,-1.088 -1.151,0.133 0.833,-3.187 0.159,-3.718 1.072,-2.284 -2.283,-0.85 -0.893,-2.55 -3.792,-1.249 -0.693,-1.542 0.774,-1.222 3.632,-0.93 1.409,-1.674 -0.516,-1.648 -3.612,-3.031 0.02,-4.121 1.509,-1.011 4.843,-0.452 1.012,-1.064 -2.263,-2.553 1.032,-3.485 -0.536,-2.714 -1.39,-2.155 -0.496,-8.732 1.528,-3.382 0.516,-6.047 4.248,-7.968 -23.977,-20.297 13.498,-16.154 1.568,-4.275 5.002,-6.227 0.536,-3.983 7.444,-8.611 -1.072,-2.194 -0.536,-4.04 1.786,-1.338 -0.099,-2.783 0.794,-1.606 2.402,-2.784 1.231,-0.643 2.421,-0.134 3.057,-2.035 2.958,-5.062 0.615,-2.733 1.171,-0.348 0.477,-2.331 1.33,-1.688 2.66,-1.152 0.536,-2.439 1.607,-1.287 1.707,-2.815 0.397,-1.958 1.905,-3.486 1.945,-2.253 0.854,-4.936 7.86,-4.508 0.258,-1.476 2.441,-1.477 -0.536,-4.215 -0.734,-1.154 0.337,-4.028 9.667,-13.3 0.933,-0.914 2.283,0.591 L 82.911,8.442 86.365,4.437 86.325,2.904 87.397,1.559 91.03,0 l 1.826,0.86 1.886,4.087 2.898,1.156 0.079,1.021 z" />
  <path
     id="AL-11"
     title="Tiranë"
     class="land"
     d="m 128.863,305.163 4.248,0.475 8.278,6.389 4.287,6.071 3.017,8.284 2.064,1.477 3.792,0.633 2.838,1.925 2.898,3.797 0.695,4.139 0.437,0.053 4.863,-6.697 2.6,-0.474 1.767,1.371 6.074,9.358 2.282,2.529 1.847,0.422 2.937,-0.949 2.779,0.554 1.469,1.37 0.516,3.055 v 0 l -0.02,1.265 -1.171,0.737 -9.647,3.635 -3.672,2.527 -1.072,2.528 1.112,4.001 -0.476,2 -3.256,1.684 -6.153,4.683 -1.668,0.421 -2.739,-0.737 -4.684,-2.946 -2.978,0.842 -2.322,2.604 -5.876,11.439 -7.264,4.968 -3.415,3.416 -4.764,2.023 -1.985,1.471 -3.096,0.421 -1.509,2.678 -2.52,1.209 -1.47,3.913 -2.639,-0.368 -1.985,1.418 -1.727,2.179 -0.913,0.263 -1.747,-0.683 -4.506,2.022 -1.786,-0.709 -2.104,-2.232 -2.144,0.263 -1.727,1.628 -0.874,4.488 -6.51,5.3 -2.065,6.243 -3.573,1.391 -2.203,2.124 v 0 l -3.335,-3.279 -2.481,0.42 -1.31,1.704 -0.635,-0.708 -0.298,-1.888 -2.183,1.6 -0.298,-0.446 0.893,-1.652 -0.992,-0.288 -1.35,1.94 -0.834,0.184 -1.846,-2.098 -1.29,1.049 -1.707,-0.367 -0.874,0.445 -0.595,2.309 -3.553,0.314 -0.278,1.206 0.496,1.992 -0.496,0.604 -1.707,-0.105 -0.854,-0.787 -2.659,0.079 -2.184,-1.049 -0.833,0.236 -1.172,1.652 -1.409,-1.914 0.159,3.172 -0.973,1.153 -0.635,-0.419 -1.787,-4.273 -1.568,-0.604 -1.31,1.365 -0.595,-0.735 -1.132,0.629 0.636,1.652 1.29,0.734 -0.159,0.891 -0.814,0.08 -0.913,-1.574 -0.774,0.105 0.318,1.73 -1.132,0.551 -0.893,1.468 0.417,2.909 1.131,0.943 0.06,1.52 -2.601,0.21 -2.183,1.048 v 0 l 0.377,-6.132 2.799,-9.622 0.774,-6.452 -0.476,-7.899 -3.494,-8.558 4.228,-0.526 2.382,-2.836 0.556,-4.649 1.211,-2.68 0.536,-3.18 4.903,-5.625 1.905,-4.707 0.774,-4.023 -0.337,-3.025 v 0 l 5.359,1.052 7.007,-1.368 2.144,1.184 1.687,2.052 2.302,-5.157 5.678,-7.105 0.119,-1.422 -1.549,-6.872 0.06,-2.87 1.171,-2.95 v -1.687 l -3.732,-6.482 0.616,-5.51 -1.072,-7.014 1.409,-2.322 1.628,0.502 2.898,-1.82 1.211,0.29 1.37,1.451 0.793,-0.053 1.608,-1.688 2.382,-0.264 -0.456,-2.902 2.798,-1.452 0.497,11.924 3.989,2.979 5.221,-0.369 3.751,-2.136 2.581,-3.322 5.101,-3.772 6.431,-0.924 2.601,-1.979 1.846,1.583 1.528,-0.342 2.62,-3.958 2.561,-2.508 2.58,-4.857 1.648,-1.742 z" />
  <path
     id="AL-12"
     title="Vlorë"
     class="land"
     d="m 3.334,570.356 1.807,0.702 0.675,1.794 -1.469,5.121 -1.29,-0.416 -1.092,-3.899 -1.271,-1.092 -0.694,-2.263 0.397,-2.548 1.092,-0.156 z m 5.678,-38.554 2.719,0.651 3.275,-3.414 2.997,-0.704 7.384,2.477 0.913,0.729 1.25,3.179 2.858,1.199 0.754,-0.521 -0.516,-1.303 0.774,-1.277 1.727,-0.078 4.188,-2.397 0.754,0.704 -1.032,2.971 1.33,2.11 1.905,-0.417 1.191,1.277 3.196,0.886 -1.767,2.032 0.1,1.927 0.913,0.234 0.873,-1.067 1.33,1.276 3.334,-0.469 0.774,1.172 -0.397,0.989 0.357,0.651 2.342,-0.495 1.767,1.12 -0.159,3.906 1.032,1.718 1.985,-0.755 1.945,-1.979 2.521,1.302 -0.06,0.885 -1.548,0.417 -0.179,0.703 0.497,1.041 1.171,-0.13 -0.337,2.29 0.615,1.405 1.826,0.417 0.635,-1.483 h 0.615 l 0.973,0.676 0.794,1.927 0.854,0.364 1.965,-2.187 1.727,0.104 5.359,2.706 1.23,1.848 2.481,1.691 3.692,1.431 0.933,0.962 3.314,0.131 2.164,-0.547 2.224,0.547 0.079,1.69 -3.097,5.045 v 1.404 l 1.25,1.092 3.117,-1.378 2.044,0.26 -0.238,2.002 0.576,2.781 -1.191,1.976 -0.833,4.834 1.191,0.077 1.747,1.741 1.826,0.363 0.317,2.364 1.41,0.806 2.104,2.856 v 0 l 2.084,4.492 1.39,0.364 2.044,2.752 -10.56,10.095 -0.794,1.687 10.203,11.307 1.231,3.837 2.818,1.114 -1.826,2.539 -0.02,0.83 2.263,4.223 0.477,4.922 5.002,7.948 3.434,11.154 5.101,3.052 4.049,3.88 4.705,8.738 3.434,8.76 1.171,0.75 1.151,-0.207 4.704,-3.694 6.154,4.107 1.25,-0.129 0.813,-1.602 0.774,-0.259 4.525,3.85 2.819,4.106 5.062,4.725 1.191,3.434 2.064,1.445 3.514,4.181 1.647,1.265 4.744,1.909 4.486,4.9 7.463,2.321 0.179,1.418 -0.953,3.275 0.417,4.072 5.062,5.747 3.156,6.981 0.913,4.353 3.514,1.313 2.521,5.509 v 0 l -0.655,1.39 -2.322,1.725 3.513,5.738 -0.774,2.032 -2.204,2.393 0.754,1.672 1.747,1.671 0.377,1.749 2.838,2.031 0.218,1.851 -1.905,0.951 -2.62,2.981 -3.156,1.003 -1.489,3.032 -1.767,1.002 -0.337,6.243 -2.283,-1.259 -1.469,-1.876 -2.064,-0.591 -0.933,0.258 0.06,1.644 -2.421,3.134 1.905,3.698 -1.012,1.181 -6.57,0.334 -6.927,-2.362 -5.221,-0.205 -2.759,-1.9 -0.675,-1.079 -2.283,-1.156 -1.767,-2.723 -2.858,0.257 -2.243,-2.158 -3.792,-1.053 -1.727,0.462 -1.29,-2.286 -1.25,1.361 -1.588,-0.025 -1.291,1.002 -1.151,-0.514 -0.635,2.106 -0.337,-1.67 -1.072,-0.309 0.218,1.183 -2.283,-0.129 -0.477,-1.953 0.814,-0.719 0.079,-0.951 -0.774,0.386 v -1.413 l 1.31,-3.984 0.933,-0.205 0.556,-1.183 0.357,-3.06 -0.913,-1.209 1.469,-2.108 -1.092,-0.617 0.298,1.029 -0.615,0.565 -0.734,-0.206 0.119,0.874 -1.012,-0.643 0.04,0.771 -1.111,0.334 1.032,0.515 0.953,-0.438 -0.556,0.746 -1.826,-0.694 -0.794,-2.494 1.29,-2.572 h 0.734 l 0.119,-1.466 1.489,0.025 0.734,0.823 0.457,-0.565 -0.179,-1.492 0.894,0.154 -0.06,-1.312 1.151,-0.541 -0.814,-3.087 -1.925,-0.258 0.615,-0.849 -0.615,-0.309 1.568,-0.618 0.973,-1.775 -0.139,-1.287 0.317,-0.592 0.595,0.283 0.497,-1.287 -0.576,-4.531 2.303,-2.188 -0.338,-4.172 -1.389,-3.117 -1.608,0.181 -0.536,1.082 -2.64,-1.521 -0.02,0.901 -0.893,0.052 -1.092,-0.953 0.655,-0.67 -2.124,-0.231 -1.588,-1.494 -0.734,0.025 -0.357,-1.933 -0.774,-0.645 0.496,-0.695 -3.533,0.489 -0.913,-2.087 -0.595,0.876 -0.834,-0.979 -2.342,0.541 -1.012,-1.778 0.06,-0.928 1.866,0.593 -0.516,-1.34 1.607,-2.217 1.271,-1.187 1.211,0.361 0.457,-0.361 -0.715,-0.645 0.179,-3.326 -4.347,-5.958 -0.575,-2.967 -1.548,-1.394 -0.337,-1.367 -1.588,-1.781 -0.734,-2.349 -5.598,-8.52 -1.806,-1.782 -3.672,-1.988 -3.95,-0.207 -0.953,1.524 -1.449,-0.749 -0.278,0.826 -1.151,-0.206 -0.754,-0.775 0.159,-0.981 1.886,0.129 0.119,-0.594 -1.151,-1.369 -1.429,-0.31 0.595,-0.388 -0.595,-1.215 -1.747,-1.007 -0.933,0.103 -0.178,3.592 -0.993,-0.827 -0.794,-4.961 -2.124,-0.438 -1.449,0.568 0.655,-1.24 -0.675,-1.034 1.052,-1.137 -0.615,-1.345 -1.727,-0.827 -1.807,0.362 -1.806,-2.249 -1.945,-0.232 -0.02,-0.802 -2.838,-0.025 0.298,-1.681 -0.457,-0.543 -4.942,-0.854 -0.953,-0.62 -2.342,0.232 -1.389,-0.931 -0.516,-1.5 -1.548,-1.475 -3.176,-1.189 -3.871,-3.156 -2.699,-0.957 -2.7,-3.001 -8.773,-3.235 -2.978,-2.097 -2.441,-0.802 -4.605,-4.064 -2.72,-0.958 -0.953,-1.632 -1.29,-0.803 -2.858,-2.46 -0.497,-0.906 -1.25,-1.477 -0.556,-1.943 -3.712,-3.445 -1.866,-3.784 -4.804,-4.977 -1.508,-2.359 0.159,-1.737 1.171,-0.104 -1.052,-1.349 -0.238,-3.138 -0.734,-2.932 -1.052,-1.375 0.199,-0.648 -1.41,-0.934 -3.096,-6.15 -3.533,-3.92 -0.02,-0.779 -3.116,-2.804 0.278,-0.623 -1.429,-1.169 -0.556,-0.233 -2.025,-1.402 0.457,-0.936 2.005,-0.078 1.092,-1.922 2.818,-1.61 2.064,1.975 1.925,-0.598 3.474,2.961 2.223,2.935 1.767,0.986 0.397,1.272 3.116,3.22 1.826,3.296 1.052,4.516 -0.735,0.312 0.556,1.168 -0.596,1.479 0.516,0.882 -0.377,0.778 2.402,2.983 0.178,0.83 -0.615,0.44 0.814,0.934 2.402,0.078 4.288,-1.504 1.925,-1.479 1.548,-2.205 2.024,-1.22 0.238,-1.842 -0.973,-2.465 0.457,-2.076 -0.695,-1.531 1.211,-2.518 -1.072,-1.739 -0.199,-1.479 0.556,-4.232 1.767,-2.364 0.754,-2.077 v -4.079 l -1.091,-0.884 -0.516,0.598 -0.715,-0.208 -0.139,-0.701 -3.99,-2.261 -6.888,-9.176 -2.64,-1.353 -1.429,0.572 -0.735,-0.884 -2.917,-4.863 0.476,-1.535 -2.064,-1.457 -0.417,-1.743 0.794,-0.025 0.437,-1.146 -1.449,-5.334 0.496,-0.547 -0.854,-1.146 0.218,1.067 -0.377,-0.391 -6.829,-14.635 z" />
</svg>
