<?xml version="1.0" encoding="UTF-8" standalone="no"?>
<svg
   xmlns:mapsvg="http://mapsvg.com"
   xmlns:dc="http://purl.org/dc/elements/1.1/"
   xmlns:cc="http://creativecommons.org/ns#"
   xmlns:rdf="http://www.w3.org/1999/02/22-rdf-syntax-ns#"
   xmlns:svg="http://www.w3.org/2000/svg"
   xmlns="http://www.w3.org/2000/svg"
   xmlns:sodipodi="http://sodipodi.sourceforge.net/DTD/sodipodi-0.dtd"
   xmlns:inkscape="http://www.inkscape.org/namespaces/inkscape"
   width="2302.4851"
   height="2175.8657"
   mapsvg:geoViewBox="112.921259 -10.120332 153.638701 -43.678808"
   id="svg2"
   version="1.1"
   inkscape:version="0.91 r13725"
   sodipodi:docname="australia.svg">
  <path
     d="m 1017.359,144.43512 0,-1.88599 3.2299,-4.1387 -7.8142,-5.29123 1.7712,-4.1387 2.188,-1.10014 7.9705,0.26193 0.5209,-1.8336 -0.573,-4.97692 -1.5629,-3.09089 1.4587,-2.14795 5.0532,0.26195 5.6262,3.66719 7.3975,0.36671 5.2095,3.77198 3.1777,0.47149 24.7971,-1.67643 7.3975,2.35749 9.1166,-6.28661 7.7621,0.15715 3.1778,6.07707 -1.9275,4.19109 3.0736,-3.14332 0.4167,-1.3621 -1.146,-6.75812 1.0939,-2.04315 7.5538,-2.72419 5.9388,2.20031 3.7508,-0.31434 -2.188,-0.26193 -4.0113,-2.98615 -0.6251,-2.67182 0.4168,-16.607155 3.1777,-5.029296 -8.5435,-6.391399 -2.8652,-4.086303 -2.3443,-1.466879 -4.2718,-0.785826 -8.0746,1.3621 -6.9807,3.771973 -1.094,-0.104777 -5.47,-5.500793 -1.094,-3.771972 -5.9388,-3.1957 -5.3136,0.471497 -0.3647,-0.628662 6.1993,-7.439168 6.2513,-2.881368 5.9909,5.919902 4.2718,10.163369 2.188,0.209555 1.7191,-3.143311 -2.4484,-7.648722 -2.6048,-4.714965 1.9796,-0.471497 5.3658,1.833598 3.6466,-1.938374 9.2208,7.753497 0.573,2.514649 8.9603,11.525472 3.0736,0.68105 2.6048,-2.043153 5.7825,-8.696491 2.4485,0.209554 4.428,4.767354 8.4915,15.45461 2.0838,1.676431 3.855,1.152549 3.1777,-2.14793 2.8132,0 2.8652,4.19108 8.0226,3.405254 3.855,0.104776 2.761,-0.890604 5.47,-2.986143 2.0838,-2.828982 6.1471,1.047771 0.6252,1.781211 -3.9071,2.252704 -0.8856,1.362103 0.2604,1.414489 1.7713,1.676442 4.0633,1.72882 3.1257,-1.46687 1.6671,-2.200335 1.3023,-0.209554 7.658,5.867519 -0.6773,1.10016 0.7815,4.66257 1.0939,0.8906 9.2208,-1.36209 2.9173,1.20493 5.3658,0.4715 4.6885,-0.57627 4.1676,-3.1957 5.5742,-0.31433 5.6262,7.85828 7.137,3.71958 4.8969,4.08629 6.1472,0.57628 2.1879,0.99538 -0.3125,-1.10015 2.2921,-5.9723 3.4904,-3.51002 2.9173,-1.25733 3.282,1.46688 8.3872,-0.99539 4.3239,-3.51002 -1.3024,-0.73343 -3.2298,1.93835 -0.5731,-1.41447 1.1982,-4.34825 5.2095,-1.41449 3.855,0.10478 7.1891,-5.762745 -0.2084,-4.033913 2.0838,0.05239 1.9275,2.252705 -1.7191,2.776591 -9.6376,8.225012 2.3964,2.82897 -6.5119,6.70573 -0.2604,1.83361 1.094,2.7242 2.6568,2.51464 2.8652,-1.25733 0.8335,-2.35747 4.6365,-3.82438 7.8663,-2.30508 -4.7928,6.07706 1.9276,2.93375 4.1675,-1.93837 0.9898,1.72882 -4.5322,6.60095 1.5628,3.87676 1.6671,1.57165 2.3442,-1.51927 4.2718,-0.4715 0.7814,1.36209 3.9071,-0.36671 3.0215,-2.35748 3.9592,-10.11098 -1.5107,-1.99077 -5.3658,0.68105 -3.4382,-1.46687 -0.2605,-1.41449 5.8867,-5.86752 9.5854,-6.44378 6.3035,-1.15255 -1.3024,4.34825 3.5425,10.00621 4.0113,5.86749 2.5526,-0.0524 2.188,-1.57166 -0.1563,-1.25733 -3.6987,-1.3621 0.3126,-1.10015 4.5843,-1.15255 5.7304,2.93375 5.7826,7.85828 -9.846,6.91528 -3.334,3.87674 -5.7305,9.27278 -1.3023,7.02006 -7.137,-2.67182 -0.5731,3.87675 3.4904,6.49617 -0.052,5.60557 -0.9377,5.50081 -3.9592,5.97229 -0.521,-1.83362 -4.5843,1.57168 0.2084,-10.32056 -0.8856,-0.8906 -1.7712,0.41911 -2.2401,6.07707 -4.8448,4.24346 -2.2922,0.15718 -0.7814,-2.25271 -2.7611,-1.10015 -5.8867,2.30509 -3.7508,3.09092 -2.0317,3.51002 0.1563,1.62404 2.2922,1.78122 -1.5108,3.40525 -2.5005,2.09555 -1.0419,6.54857 2.4484,7.28199 2.188,1.20493 3.1257,-0.78583 2.4485,-2.7766 -0.3126,4.34826 -1.7712,6.07707 -3.5946,5.55318 -1.5628,10.53009 -1.5629,3.03855 -6.5639,4.45301 -7.4496,9.69187 -4.5843,7.96306 -0.1042,4.24346 -7.0849,4.81975 -2.2922,-0.0523 3.4904,10.16338 2.3964,3.6148 3.7508,3.1957 7.2412,2.61942 10.2626,6.60096 5.2616,4.81974 15.1596,7.91066 1.6149,1.41449 1.3545,7.17723 3.1257,3.66718 14.0656,6.75814 5.7825,4.81973 5.2616,5.76275 14.9512,0.62865 5.9909,3.14331 13.1278,9.37756 6.7203,2.88136 3.1257,-0.10477 5.8346,1.93836 5.1574,2.56703 6.8765,11.00159 8.0226,6.86289 0,0 0,573.91607 0,0 -382.6883,0.0523 0,0 -75.38114,-0.0523 0,0 -50.58403,0.3667 0,0 -0.31257,-532.26717 0,0 0,-109.96349 0,0 0,-30.90921 0,0 5.05319,1.67643 5.41786,4.71497 -0.62514,10.68726 0.93771,1.15254 3.69873,-4.61019 -2.13589,-14.19728 0.62514,-1.30971 5.83461,1.62402 7.29327,3.7196 11.66923,13.09713 0.46886,2.82898 3.12568,-1.20493 -3.85501,-5.08171 -2.08379,-4.34823 -0.72933,-4.34826 1.25028,-2.46224 0.62513,-3.92915 8.69983,1.51927 3.59454,-1.20492 4.53225,-4.40066 -10.10639,3.19571 -5.10529,-3.30048 -4.06339,-5.34362 -0.93771,-2.72421 2.08379,-1.04777 4.48016,-0.47149 3.69873,-2.61943 0.20837,-1.25732 -6.35556,2.14793 -6.77232,-1.25733 -4.79272,-2.7766 -5.46995,-5.23884 0.67723,-4.66258 3.38616,-6.49617 3.49035,-4.66258 13.59674,-8.5917 3.07359,-14.56401 -0.31257,-2.67183 2.65684,-10.53008 4.01129,-4.19108 0.52095,3.6672 1.9796,1.15255 5.46996,-0.99539 6.9286,-4.71496 5.67833,-6.02469 -0.57304,-2.14792 -3.54244,-4.87213 -1.92751,-1.62404 -1.92751,-0.41912 -0.46885,-1.25732 0.52095,-10.26814 0.9377,-2.56704 2.34427,-1.04778 0.78142,1.46689 1.66703,0.78583 2.13589,-0.4715 3.64663,-2.61943 1.45866,-3.1957 -0.52095,-7.70111 0.57304,-1.93837 8.75193,-3.92914 5.20948,5.9723 5.0011,-0.36673 -4.7927,-1.4145 -1.61497,-6.12945 1.51077,-3.71958 0.4167,-4.61019 -1.71909,-1.30971 2.76099,-1.15255 8.0226,2.56706 7.1891,12.2065 z m 3.5424,-40.5487 -5.522,-4.610201 -10.3669,-4.295858 -10.41891,-8.224994 -4.21967,-11.158752 -3.0215,-11.263529 0.41676,-4.243469 1.19818,-0.942993 7.86631,6.915282 2.34426,3.824361 7.44957,2.357483 7.9184,-1.885986 3.0736,-2.881368 5.9388,2.567037 6.616,-5.134073 1.7191,-0.157166 1.1461,3.929137 2.9173,4.191082 0.2605,-1.466878 -1.9275,-4.872131 0.6772,-2.881369 3.7509,-2.986145 8.283,3.352865 6.2514,8.277383 0.4689,4.348246 -14.4303,15.245055 -1.8233,0.261943 -6.9807,4.505412 -9.5855,7.229626 z m 336.4802,129.97588 0.8857,-1.46688 2.4484,-0.15718 -1.4586,7.3344 -2.9694,1.15255 -7.8143,-2.09554 -6.7202,0.99539 -14.3781,-3.61481 1.9796,-10.00622 -0.4168,-4.29585 1.3024,-4.87212 1.6149,-2.7766 7.6579,-1.46687 1.8234,-1.4145 -1.615,-3.66718 4.7406,-3.98154 2.4485,0.15717 -0.4168,2.6718 -2.1879,1.51928 2.0837,6.07706 5.3658,0.94299 1.8754,-1.99076 -0.573,-1.99076 1.0419,-1.41449 1.8754,-0.52388 1.667,1.20493 0.4168,2.14793 -5.5742,5.76273 -2.9694,1.93838 -3.4903,7.80589 0.1042,5.39601 1.6149,1.41449 7.5538,1.15255 2.0837,-1.93837 z M 994.5415,98.071283 l -9.37706,-3.614807 -13.07579,3.352865 -3.12569,-0.628662 -0.88561,-1.414489 -0.41676,-1.519267 3.12569,-5.710348 2.60474,1.571655 2.13588,0.104776 2.08379,-2.04315 -0.15628,-8.015441 -0.93771,-2.462261 4.63644,-8.120218 5.0011,-1.047769 8.33516,20.955402 4.0113,1.047771 4.2197,3.824359 -1.3024,2.881368 -6.8765,0.838216 z m 339.9184,-22.055561 0.2084,-2.671812 7.658,-11.158753 4.8448,-9.849039 2.5526,-1.362102 -2.761,10.687256 -9.2208,12.992349 -1.2503,1.152547 -2.0317,0.209554 z m -220.986,-6.443786 -1.6671,-1.781209 -1.9796,-5.500792 -1.667,-9.587097 4.3239,-1.676433 2.7089,8.958435 -0.1042,5.657958 -1.6149,3.929138 z m 252.1387,260.842374 -3.2299,-2.40987 -3.5424,-5.29124 1.0419,-3.03853 3.2299,-3.1957 2.5526,3.1957 2.1359,6.96766 -1.4587,3.7196 -0.7293,0.0523 z m -48.2397,-115.14993 0.1562,-2.09555 -1.8233,-3.1957 -1.4586,0.99539 0.8856,2.7766 -2.3964,0 -0.8856,-1.10016 0.521,-4.87214 4.949,-3.92914 2.3963,0.41911 2.5006,3.40524 -0.7815,3.7196 -1.8754,3.03853 -2.1879,0.83822 z m -1.0419,-125.732423 0,-2.671813 5.1573,-4.138693 4.2718,-0.209554 7.5017,-5.867513 -0.521,2.881369 -5.6783,4.348246 -10.7315,5.657958 z m 19.3271,230.090323 -1.4586,-0.73344 1.1461,-4.92453 3.2298,-2.20031 1.615,0.73344 -0.9898,6.44379 -3.5425,0.68105 z"
     title="Northern Territory"
     id="AU-NT"
     data-label-x="1168"
     data-label-y="606"
     inkscape:connector-curvature="0" />
  <path
     d="m 75.381151,947.13178 0.989801,-1.93838 0.0521,-7.70112 -12.659032,-13.46383 -6.720227,-12.67803 -6.147184,-15.66415 -5.990903,-3.6672 -5.105288,-14.56401 -0.468853,-2.77658 0.625137,-5.65797 -3.49035,-5.81514 -7.136985,-8.38213 -2.031697,-5.97229 -0.312569,-12.3113 2.292171,-5.97231 1.250274,-7.64871 4.844815,-15.71655 3.907109,-7.85828 8.022596,-6.339 1.406559,-5.29125 0.781422,-7.07246 -1.250275,-8.1726 3.281974,-10.05859 -0.625137,-5.97229 -3.073595,-8.53932 -4.636436,-6.60097 -0.833516,-4.9769 8.126786,-16.55476 7.553746,-21.84601 5.469952,-8.17261 3.334066,-1.88598 4.167583,-0.73345 0.729327,1.46689 -2.813119,5.34363 -2.761023,16.08326 3.646635,7.75351 -1.771223,11.31591 2.448455,2.51466 12.346463,-5.23886 1.562844,-6.54856 3.438255,-8.85366 9.324966,-16.29282 1.458654,-5.0293 16.514041,-9.22038 6.19927,-0.4715 10.88781,-5.4484 11.66924,-4.50542 9.48125,-11.26352 3.43825,-2.67183 7.13699,-3.0909 6.72022,-10.16338 13.28417,-6.23423 1.45866,-3.87674 3.59454,-1.99077 3.43825,-0.4191 9.37706,-3.35287 7.39746,-4.61019 5.73043,-4.87212 4.58434,0.99536 2.44845,2.46227 2.50055,0.68107 10.78362,-5.81514 5.57414,1.93837 1.82332,2.09553 3.95921,1.78124 4.21968,0.78581 3.59453,-0.0523 15.78472,-3.24809 9.32497,-4.0863 12.39856,-11.99697 6.19927,-3.71959 0.78143,1.51927 2.39637,0.0524 17.55594,-2.93374 6.35556,0.36671 8.12679,-2.72422 8.43935,-10.16336 1.66703,-4.55779 5.67834,-4.34825 6.14718,-0.57627 13.85721,3.45763 8.33517,3.24809 11.51294,-5.97229 25.68273,-3.77197 5.52205,-1.8336 30.63173,-12.83518 8.43935,-4.40064 14.11768,-11.83979 11.98181,-16.29284 8.54354,-18.49311 7.81421,-10.58248 -0.67723,-4.81974 2.0317,-4.50542 1.35446,-1.30971 3.69874,0.8906 2.81312,-1.51926 4.16758,-3.35285 3.02149,-4.45303 3.49037,-1.72883 11.82551,-9.37754 1.71913,-4.19107 -0.31257,-3.24809 -1.66703,-1.57166 -4.48015,-1.25733 -2.55264,-3.82436 -0.62514,-11.21114 -3.33407,-8.69648 0.15629,-11.57787 1.77122,-7.07245 4.63643,-8.01544 6.92861,-6.60094 3.85501,-2.46227 7.18908,-0.0524 -2.86521,-6.44378 2.39636,-3.2481 1.56284,-0.62864 1.25028,1.20493 1.35446,0 6.35557,-2.20032 0.57304,-1.67644 -1.45865,-2.14793 1.35446,-5.71035 1.61494,-1.83358 2.9694,-0.62867 2.9694,-3.30048 0.31257,-3.24808 1.19818,-1.93837 4.0113,-1.46689 3.85501,3.87676 -1.19818,1.51927 -2.81311,-0.31434 -1.87542,6.54855 3.59454,4.92452 4.32387,2.72421 1.14609,4.5054 10.83571,20.37914 13.90931,22.3699 1.25027,4.87212 1.0419,-5.18646 -1.92751,-3.77198 0.20838,-4.66257 3.12569,-9.53471 -2.55265,-7.85827 1.04191,-4.50541 3.59454,-0.10477 7.18908,8.74887 4.16758,3.77197 2.0317,0.8906 1.40656,-0.78582 -2.18798,-1.04777 -2.60474,-3.24809 -2.0317,-8.17261 5.36576,-6.18183 -1.87541,-0.99539 -4.32387,1.30971 -0.88561,-0.62865 -2.76103,-5.91991 -6.19928,-6.75812 0.31257,-6.44379 -6.35556,0.10478 -4.32386,-3.92914 3.85501,-0.15715 8.33517,1.88598 3.85501,-5.86752 0.46884,-3.03852 -0.57304,-2.3051 -6.30346,-1.25732 -2.03169,-1.8336 -0.15629,-5.18647 0.78142,-1.67644 8.80402,-1.93837 4.53225,3.56243 -1.25028,2.77659 -2.91731,0.78584 6.043,6.39138 2.96939,0.62866 0.1042,-2.30509 4.06339,-5.55319 6.87652,0.99539 3.02149,1.36209 1.51075,0.99539 2.0317,4.87214 1.56284,1.10016 5.83462,0.31432 2.91731,-3.35287 5.15738,2.51465 5.83461,0.57628 8.49145,-1.20495 6.043,2.67183 3.22987,-1.36211 -4.37596,-0.41911 -6.66813,-3.1433 -4.63643,-1.10016 -2.96941,-0.20955 -4.63643,1.3621 -3.49035,0 -0.9898,-1.04777 -1.40656,-6.339 3.07359,-7.02008 2.29217,-0.52388 2.70893,4.13869 4.21968,-2.93375 -0.41676,-5.39601 1.66703,-6.12946 6.35556,-6.4438 -3.17778,-1.30971 -3.07359,0.89061 -4.58434,7.85828 -2.65683,0.0523 -4.94901,-4.29584 -1.61494,-11.52547 4.84482,-11.15875 1.77122,-0.78584 5.26157,3.03855 4.21968,-2.20032 0.9898,-1.46688 -0.62514,-11.26353 2.39636,-0.57628 11.72132,6.02468 4.58434,4.45303 10.62734,5.18645 -5.93881,-5.29123 -0.31257,-1.30973 2.70893,-4.97689 -1.19818,-1.25733 -4.84481,-0.0523 -5.62624,2.09554 -0.62514,-3.35286 2.08379,-2.93376 2.18798,-1.04778 1.61494,1.04778 2.24009,-3.87674 -1.77122,-0.47151 -7.39746,4.92452 -1.56286,-0.0523 -1.66702,-4.45303 1.82332,-2.35746 2.44844,-1.15257 3.33407,0.99538 1.19818,-0.36671 2.9694,-2.09554 -0.83352,-1.99077 3.38617,-2.40987 3.9071,8.85367 0.9898,0.62864 0.57305,-2.51464 -0.72933,-5.02928 6.66813,3.92912 0.15629,2.09555 2.24007,1.10016 5.26158,-0.26195 1.14608,-1.10016 -0.9898,-0.83822 -1.71913,0.15719 -1.51075,-1.36212 1.66704,-1.62403 -6.14719,-4.40065 -5.57414,-2.77659 1.87541,-2.20032 1.51075,-0.52388 -6.04299,-9.01083 6.09509,-8.74887 5.26157,-4.40064 2.9694,1.25732 11.35666,0.26196 0.57305,-7.12485 -1.09399,-6.86288 0.72932,-3.92915 1.45866,-1.10016 6.25137,2.98615 -4.89691,20.85062 1.0419,-1.10015 3.49035,-12.10175 6.82441,3.51003 -1.04189,6.28663 1.09399,2.04313 3.33406,2.09556 5.0011,-5.60559 2.65684,-1.88597 1.61494,-10.0062 4.32386,-8.85367 0.20838,-3.66718 -3.69873,-9.53472 -3.59454,-2.3051 2.81312,-0.62866 4.53225,0.68105 3.90711,1.99077 -0.46886,4.40063 -2.91731,1.25733 1.92751,6.39139 2.39636,0.68105 3.0215,3.09094 1.45865,-2.3051 -1.04189,-3.09093 2.24007,-5.23886 5.52205,-4.40063 4.0113,-0.57626 -2.65684,6.54855 6.40766,8.32978 1.82332,0.52388 5.83461,-6.18184 4.84482,-8.85365 -2.44846,-10.26815 6.35557,-2.56703 5.52204,-1.30973 3.49036,2.82897 3.22987,4.19109 -0.9898,2.20032 4.0113,4.9769 1.40656,-2.25271 0.0521,-1.88597 4.94901,-0.20956 10.36686,3.35288 5.41786,7.70109 7.76212,5.23885 16.9308,23.67961 2.44846,-1.20494 9.58544,8.27739 1.04189,5.71036 -2.70893,3.92912 -4.01129,13.62102 0.57304,6.18184 -0.36466,11.15875 -2.96941,5.97229 2.70893,-1.57166 1.56284,-2.2003 1.97961,-12.88758 2.81311,1.15254 4.27178,4.24347 1.66703,5.55319 0.26047,-5.65797 -3.80292,-6.65333 -1.82331,-7.3344 6.45975,-8.90604 1.14609,0.20956 1.51074,7.49155 5.36577,0.15718 0.57304,-2.67183 -2.24008,-4.0863 -1.77122,-7.7011 8.38726,-2.40988 26.25577,6.60095 0,0 0,30.90921 0,0 0,109.96348 0,0 0.31257,532.21481 0,0 -0.67723,367.87213 0,0 -11.72133,5.1341 -13.49255,7.9106 -20.99419,9.5871 -9.63754,3.8768 -15.52424,3.0385 -22.76541,8.8536 -11.87761,2.0956 -24.74502,1.1525 -16.25358,-1.5716 -12.45065,-3.6148 -6.25137,3.0909 -5.46996,-1.2049 -9.37706,5.134 -16.46195,13.621 -4.0113,1.7812 -8.0226,1.7289 -17.34756,9.6394 -6.56395,5.9199 -7.50165,4.558 -19.43135,3.1955 -6.82442,2.7243 -5.20947,4.2959 -4.74063,6.077 -5.88671,17.1834 -2.65683,11.2636 -5.41786,3.8243 -5.10529,5.3961 -1.92751,3.8767 -0.0521,1.8335 -2.50055,2.7766 -8.49145,5.8152 -9.74172,-0.7335 -1.45866,0.5764 -3.38616,4.6101 -2.60474,1.9907 -3.85501,1.2574 -3.80292,-9.0109 -4.68853,-1.9906 -9.79382,3.3528 -6.51184,-0.9431 -7.71003,0.3143 -1.04189,1.0478 -8.07469,0.8383 -4.48015,-0.8907 -3.17779,1.2575 -2.03169,2.3575 -0.62514,3.4576 -7.50165,0.7858 -2.188,-0.7334 1.1982,-2.567 -1.66705,-5.92 -3.28197,-4.2434 -1.14609,-0.4193 -4.37596,0.7859 -3.12569,2.9862 -4.58434,1.3097 -14.58654,-5.2913 -3.49035,-0.2618 -7.08489,-0.1573 -16.09729,2.8289 -10.67943,0 -4.01129,2.1479 -14.22188,1.9909 -6.9807,3.8766 -9.27287,-2.3572 -14.0135,-0.7335 -10.83571,3.3529 -4.16758,4.6101 -6.92861,3.7195 -2.9694,3.4053 -4.68853,8.2774 -0.78143,4.1911 -8.02259,7.9106 -6.61604,3.9291 -7.34536,-2.6195 -9.48125,-0.8905 -9.74173,6.6534 -1.14608,1.7288 1.9796,2.2003 -1.9796,2.2527 -4.58434,2.829 -9.11659,2.9861 -3.33407,3.4576 -1.71912,4.5578 -5.9909,4.5055 -11.30457,6.077 -13.80512,2.5147 -0.20838,1.4144 1.35447,1.4669 7.81421,1.7288 -3.49035,1.9908 -4.27177,-0.7857 -4.21968,-3.3531 -3.22987,-1.2049 -3.54245,0.2096 -1.77122,1.2575 -1.30237,4.7671 -4.32387,-3.4576 -11.35666,-4.8196 -21.61933,-0.1048 -2.96941,2.7765 -1.30237,0.052 -8.38726,-2.7241 -6.9286,1.1001 -8.0226,-2.3051 -13.75302,-9.2203 -13.75302,-3.1958 -3.38616,-8.0154 -5.62624,-6.5485 -9.37706,-9.6395 -8.59564,-5.7628 -10.26267,-5.396 -4.11549,-0.4715 -4.11549,0.9953 -2.60474,3.4053 -6.40766,-6.8629 0.0521,-5.92 -2.9694,-21.1649 -0.20838,-11.8398 2.44845,-11.4206 2.39636,0.6811 3.49035,5.2388 6.72023,2.8814 5.36576,-0.4715 4.58434,-1.6764 1.87542,-1.1003 15.99309,-23.1557 -2.44845,-19.0695 -4.21968,-20.9552 1.30237,-4.5579 4.32387,-5.396 -0.20838,2.148 -3.22988,3.6148 -0.10419,2.7241 2.29217,6.5487 1.56285,2.3573 1.04189,-0.7334 -0.10419,-3.6672 2.60474,-9.6395 -1.66703,-16.8689 1.30237,-8.6441 -0.9898,-6.4439 0.31257,-13.4639 -2.13589,-11.7873 -1.35446,-3.7197 -13.80512,-25.3036 -3.90711,-11.7351 -3.28197,-7.6486 -8.07469,-14.1449 -6.82442,-17.5502 0.41676,-1.7812 -1.77122,-13.3067 -3.75083,-12.9923 -1.14608,-0.9954 0.26047,-25.4085 2.0317,-11.8921 -2.81312,-9.9015 -1.45865,-2.3575 -0.88562,-6.0771 -2.9694,-7.0722 -12.190178,-14.5642 -1.562844,-4.7673 -0.416758,-10.5826 -4.584341,-9.3249 -11.044094,-16.6073 -4.271772,-2.6195 -4.375961,-6.2865 -3.386161,-15.3499 0.729327,-4.7673 1.875412,-4.4531 -1.093991,-6.6532 -2.761023,-9.692 -7.710028,-16.0831 -7.81422,-14.7214 -12.085989,-17.55002 -17.243373,-18.44075 -3.177781,-10.11098 2.604739,-5.23884 -0.364664,-5.81513 0.208379,-1.51927 1.093991,-0.78583 0.937706,12.25892 1.719128,3.56241 1.771222,-10.0586 8.38726,10.42532 1.146085,3.40526 0.677232,10.73964 1.30237,3.87675 4.167582,5.34363 1.771223,0.36672 0.156284,-1.62405 3.646635,-2.51465 2.39636,0.57629 4.063396,-6.07708 0.312568,-10.79202 -4.063395,-5.44842 -7.762123,-5.13408 -5.730426,-5.97227 -3.281971,-13.62102 -5.730426,-9.32515 0.989801,-5.18646 3.438255,-5.50079 1.614939,1.20494 5.261573,9.5347 5.9909,5.18647 2.083791,5.91989 -1.354464,7.43917 -1.562844,1.72883 0.156284,5.34362 1.667033,4.87213 2.865213,0.26194 1.927507,-2.09555 4.532249,-8.80126 2.969403,14.77356 1.562843,4.03391 6.251374,8.43454 7.08489,-5.60557 1.510749,-5.08168 -1.719128,-2.46224 -1.09399,-4.45303 1.927507,-12.20653 1.979601,0.943 z M 16.878709,956.19499 15.211676,954.83288 6.8244163,942.05009 2.6047391,933.51076 0,923.66173 l 0.36466347,-5.5008 2.24007563,-3.24808 2.813118,0.68104 -1.1460852,2.7766 0.2083792,1.72881 6.6681319,19.1742 5.730426,10.47771 1.146085,4.13868 -1.146085,2.3051 z m 639.984411,-648.36013 -0.46885,-1.62403 -3.0215,-2.82899 0.46886,-2.61942 1.40655,-2.25271 3.69873,-1.51927 4.89691,8.22499 -6.9807,2.61943 z m -517.66586,323.55138 -1.92751,-1.62402 -1.40656,1.36209 -0.41676,-0.4715 0.0521,-3.1957 5.78252,-7.85829 1.87541,-1.15254 0.67723,0.36672 0.78142,4.1387 -0.26047,1.83359 -3.28197,5.13408 -1.87541,1.46687 z m 552.51727,-370.17714 -2.9694,-1.62406 0.36466,-4.45302 1.30237,-3.35285 2.65684,-2.7766 2.60474,2.93376 -1.30237,6.3914 -2.0317,0.99538 -0.62514,1.88599 z"
     title="Western Australia"
     id="AU-WA"
     data-label-x="526"
     data-label-y="975"
     inkscape:connector-curvature="0" />
  <path
     d="m 2043.5741,1603.193 -6.5639,-3.3529 -7.5017,-11.2636 -1.5107,-4.1385 0.1042,-9.6395 2.7089,-13.4115 14.847,-11.0016 6.616,3.772 2.9694,3.5099 5.2095,1.9385 3.4904,2.2526 -2.5527,2.3052 -5.2615,-0.7334 -4.2197,2.0433 -2.709,3.7718 -3.2298,13.0447 1.2502,14.4068 -0.4167,2.0431 z"
     title="Australian Capital Territory"
     id="AU-ACT"
          data-label-x="526"
     data-label-y="975"

     inkscape:connector-curvature="0" />
  <path
     d="m 2096.4503,1715.6711 -100.2824,-50.8168 -5.1053,-0.4192 4.5843,-7.963 0.5731,-5.0817 -5.2095,-10.6871 -3.5946,-4.6102 -2.9173,-23.1558 -6.1472,-3.9292 -9.4812,-4.0863 -4.8448,1.8861 -7.9705,-1.5193 -5.2616,0.8906 -5.2616,6.6009 -5.1053,0.4715 -9.4812,3.353 -7.6058,-0.5241 -12.607,-3.9813 -5.0532,-3.9817 -5.8346,-0.8905 -3.5424,0.4715 -1.9796,2.0955 -5.9388,2.567 -11.7214,-1.0478 -16.1494,-3.0909 -3.9592,-1.6763 -6.6681,-6.4439 -4.1155,-3.2481 -1.4065,-0.1572 -4.2718,0.9429 -4.949,2.7244 -4.949,-0.4716 -1.9275,-1.5716 -6.9286,0 -7.0849,1.8336 -1.0419,1.2573 -1.9796,7.2298 0.8856,7.1247 -10.0022,2.8289 -2.188,-0.5762 -6.9807,-4.0863 -11.8776,-13.9878 -2.9173,-6.7056 -1.3024,-1.3621 -3.2298,-1.0479 -5.7305,-5.1341 -4.3759,-6.0771 -9.6897,-5.1864 -8.6998,-6.6533 -4.0113,-1.4669 -2.3443,0.524 -3.4903,-2.6195 -0.9377,-1.467 1.3024,-3.9814 -2.188,-3.4052 -4.5844,-1.1527 -4.2196,-2.6194 -2.6048,-5.7626 -1.5107,-8.6441 1.3544,-6.8629 0.052,-4.3483 -0.7293,-1.1002 -12.0339,-6.6008 -8.4393,-0.5764 -6.6682,-2.7242 -0.7814,-1.8859 -3.5424,-2.3577 -3.2299,1.1003 -0.9898,1.4146 -1.8233,8.1201 -2.5527,3.2481 -4.7927,-0.9429 -1.9275,-2.2529 0.1563,-1.362 -3.0215,-8.1202 -4.8969,-4.5579 -0.2605,-9.849 -7.8663,-13.3067 -4.5323,-3.1433 -6.5118,-2.986 -8.8561,1.8335 -8.3873,-2.2004 -5.0011,1.9384 -3.1778,4.4007 -2.761,1.4669 -0.9898,-1.3622 -6.3035,-3.8766 -9.2728,-4.3483 -9.7418,-0.7335 -1.7191,-0.4714 -2.6568,-2.6196 0,0 0.2605,-333.7148 0,0 6.7202,-0.052 0,0 113.5666,0.052 0,0 88.0923,0 0,0 71.7866,0 0,0 169.4643,0 4.3239,-2.1478 6.616,-8.3299 18.0769,-15.4544 6.2514,-1.7289 1.4586,0.2619 0.8856,1.886 4.9491,1.4669 17.3996,-1.5192 8.1268,-3.1435 7.6579,-0.9429 1.5629,0.3666 4.3238,4.5056 3.9071,2.6719 9.4292,0.2618 8.5435,-1.7813 14.274,6.5487 14.4303,12.5208 0.6772,9.8491 2.2922,5.1342 1.2503,0.5761 2.761,-0.681 2.7089,-2.8814 5.1053,-10.4777 9.7417,-4.3483 2.0838,4.034 3.4904,1.6764 10.8357,-5.2389 1.8233,-10.5301 -5.1053,-11.6301 5.47,-4.3483 6.3555,-3.1434 11.2525,-3.7196 2.2922,-1.5715 1.146,-2.9339 3.2299,-2.7242 2.5006,0.3669 3.6987,3.8243 9.2729,2.0431 10.5752,-1.1003 9.325,0.6287 4.3238,-5.7627 7.5538,-1.4144 6.1993,-2.4099 4.2196,-3.4577 0,0 4.0634,3.7196 0.7815,4.2435 -1.8234,13.9878 1.0419,7.3343 2.6048,3.5624 -1.0419,12.9924 -8.9082,11.735 -6.2514,18.4408 1.5628,4.5577 -6.3034,36.0956 -2.761,10.5826 -10.5232,29.7567 -0.7293,17.5502 0.8856,3.1956 1.9796,0.262 0.9898,4.0339 -5.7825,19.4886 -1.094,7.701 -5.9388,19.7505 -5.0011,10.2682 -11.4609,14.564 -2.6047,6.8106 1.667,8.8534 -0.6772,9.3777 -9.8459,8.382 -4.2197,4.9245 -8.6998,5.4484 -0.4689,2.8814 1.4066,3.0386 -10.8357,3.8244 -7.9705,4.1387 -8.0747,12.2065 -5.3658,13.3591 -1.2503,1.0479 -2.8652,0.2094 -2.6568,2.1479 -0.5731,3.0909 2.3964,2.1479 -1.8233,7.2821 -6.4598,8.6964 -2.4484,18.336 -1.3545,4.9246 -2.0317,1.5717 -3.282,-0.3668 -4.428,1.7812 3.1257,0.8381 2.2921,2.1481 -4.5843,7.4917 -5.1053,3.8242 -5.0532,7.4915 -5.3136,15.5595 2.2921,2.8289 -2.8131,12.8876 -3.6466,2.3051 -1.1461,3.9814 1.9796,5.8152 3.9592,4.1387 -0.8856,4.6101 -1.5108,1.3099 -1.8754,-2.0433 0.6772,-1.4143 -0.7814,-3.1958 -1.5107,-0.1572 -3.5946,2.2527 -0.4167,2.305 1.4586,3.5625 -3.1777,3.5624 -6.043,3.3529 -3.0736,5.815 -0.3126,2.934 -4.1676,12.1541 -2.8652,4.6625 -10.9399,24.0986 -1.4066,11.9971 -0.1042,15.1926 -3.2819,4.2959 -3.0215,16.869 -3.2299,11.7875 -3.5945,9.1154 0.2604,10.3207 5.6263,6.5487 0.7293,4.9244 -0.052,2.3576 -1.667,-0.524 -2.3964,1.7812 0.1042,8.2774 1.8754,8.0678 z m -49.6463,-116.9312 0.4167,-2.0955 -1.2502,-14.4067 3.2298,-12.9924 2.709,-3.8244 4.2717,-2.043 5.2616,0.7333 2.5006,-2.2528 -3.4904,-2.2526 -5.2095,-1.886 -2.9694,-3.5624 -6.616,-3.772 -14.847,11.0016 -2.7089,13.4115 -0.1042,9.6919 1.5107,4.1385 7.5538,11.2636 1.3544,1.1526 5.6784,1.9384 2.7089,-4.2436 z"
     title="New South Wales"
     id="AU-NSW"
     data-label-x="1891"
     data-label-y="1391"
/>
  <path
     d="m 1323.2596,1484.114 -5.6263,9.1156 -4.5843,2.043 -4.8448,8.33 -5.8346,3.667 -3.4904,6.9678 -4.0113,12.2065 1.4066,0.681 2.5005,-0.3142 7.5538,-5.3439 0.7814,3.6151 -0.8856,13.5684 -2.709,1.1526 -1.5107,-2.8814 -4.7406,-5.2912 -3.3862,-2.0956 -3.5424,0.524 -2.5006,5.9199 -2.0317,-0.052 -2.1359,-4.1387 -7.4495,-9.7966 -8.3873,-8.6965 -4.428,-3.5625 -1.8234,-0.5762 -5.8346,2.0431 2.2401,-6.2342 3.2299,-4.6627 0.2605,4.296 7.3974,7.963 2.9694,2.0431 5.6262,-1.8336 -5.7304,-2.305 -0.7293,-2.148 -0.3126,-1.7812 0.9377,-2.0955 -2.5005,-14.145 -4.3239,-11.5778 -0.6772,-7.7534 -3.8029,-5.9199 -9.0645,-10.2681 -10.8878,-8.9061 1.5628,-6.5486 -0.573,-4.7149 -2.8132,-8.0679 -5.7304,-11.8922 -6.4597,-2.5147 -10.4711,1.6766 -4.4801,2.5669 -3.4383,-3.8767 0.052,-1.7288 -4.1676,-11.1587 -6.8765,-15.7167 4.5323,0.3144 2.24,2.0955 0.7815,3.4053 3.855,-5.2913 1.1461,-3.4577 -1.1461,-5.9723 -4.0113,-5.7102 -3.5425,-3.091 -1.6149,-0.2619 -8.9603,2.8289 -3.6467,3.5101 -2.1358,-0.4191 0.1042,-5.4483 1.6149,-3.7196 2.8652,1.1524 0.9377,-1.5716 -7.0328,-9.849 -5.6783,-3.3528 -3.5425,-3.1959 0.6252,-2.4622 -3.855,-1.2049 -1.4066,1.1525 -0.8335,3.4053 -4.6364,2.9337 -18.0248,-1.2573 -1.7192,-0.4191 -3.9592,-4.2959 -5.2095,-1.8859 -7.9705,-7.5963 -2.7089,-1.467 -11.3566,-1.3619 -5.4179,1.1001 -4.2197,3.929 -4.8969,1.7288 -3.5424,0.262 -3.9071,-0.9953 -9.5334,-9.692 -14.5865,-10.6347 -22.8696,-11.8922 -12.2423,-4.6103 -1.8754,0.2095 -5.7825,4.7151 -9.5334,3.7196 -2.8652,0.3666 -30.00659,-2.2526 -6.45975,0.2094 -12.03389,0.943 -5.52205,1.4145 -34.27837,2.9339 -13.02369,2.1479 0,0 0.31257,-367.66256 0,0 50.58403,-0.36673 0,0 75.38114,0.0523 0,0 382.6883,-0.0523 0,0 169.6727,0 0.1563,191.47999 0,0 -0.2605,333.7147 0,0 -1.4587,-1.9384 -0.2084,284.9936 0,0 -6.616,-0.6811 -4.4801,1.3622 -4.1155,-0.1572 -9.5334,-5.1341 -9.8459,-9.9538 -6.6681,-13.5687 -6.6161,-10.1108 -4.0633,-2.8815 -3.1778,0.1571 -10.1585,-13.7258 -3.5425,-7.1249 1.7713,-3.667 -0.1563,-2.8813 -2.6569,-6.6535 1.0419,-6.5485 4.0113,-3.3529 2.188,-5.6579 -0.052,-9.4823 -2.0838,-7.4916 -9.898,-24.2559 -15.6284,-20.9555 -10.3148,-11.1585 -6.043,-4.9246 2.7611,0.8906 15.42,13.5685 10.2106,14.0925 4.3239,8.9585 -0.6252,-4.8721 -2.6047,-7.3868 -2.1359,-3.1958 -6.7202,-7.8059 -19.6919,-18.9646 -0.1042,-6.1819 3.4904,-1.4145 4.2718,3.7196 -0.521,8.749 0.8856,1.2049 5.3137,-0.5762 1.4587,-6.077 0.6772,-9.2729 -0.9377,-6.6533 -8.1268,-4.034 -4.376,4.3485 -3.1257,0.9428 -3.334,-0.1571 -2.8652,1.2572 -1.1461,2.8291 0.573,1.8335 3.2299,1.0479 1.094,1.362 -2.5527,3.3004 -15.2637,-1.3097 -4.0113,1.6765 -3.3862,4.1386 -3.0736,2.1482 -20.4211,1.1 -4.6365,-3.51 3.3862,-6.0247 7.5016,-3.7721 8.6478,-9.3774 1.6149,-9.168 -0.6772,-2.4099 0.573,-4.4005 2.761,-6.0772 -1.8754,-11.2111 1.3024,-6.1819 -0.4688,-3.0386 -3.4383,-5.9723 -9.0645,-11.1588 -3.1257,-11.3158 -7.1891,-12.3112 -1.3544,0.3142 -3.4383,8.0679 1.5108,3.0386 -0.8335,2.8814 -5.3658,5.5531 -1.9796,6.8628 -0.7814,12.783 -7.137,23.3651 -0.052,5.7628 -4.1676,3.4052 -8.0226,-3.6672 -4.1155,-1.0477 -2.188,0.4191 -10.6273,4.0339 -2.3964,3.9292 -1.3544,0.8905 -7.8663,-1.2049 -4.376,3.8767 -3.2299,1.205 -1.8233,-0.8907 -1.6149,-2.7242 2.0838,-3.4052 3.855,-3.8243 1.3544,-3.3005 0.9377,-9.7442 2.6569,-3.9292 4.7406,1.886 4.8448,-1.3097 5.0011,-0.3145 0.9898,1.5718 4.8448,2.2003 2.8132,-1.5192 1.146,-2.8814 2.5006,-16.4501 -0.9898,-12.8351 0.6772,-12.7303 -2.3442,-8.6442 0.8335,-1.1526 2.761,0 1.667,-3.248 2.8652,-9.5347 0.4689,-4.9246 9.898,-12.7304 6.3556,-6.2866 2.3963,-0.681 0.9377,-2.4624 -1.8233,-8.0153 -5.7304,-11.0541 1.7191,-5.134 3.2299,-2.305 3.0215,-1.2051 3.6466,-0.1047 1.5629,-1.2575 -0.4168,-3.4576 -1.7191,-3.3003 -3.0736,-1.3099 -3.282,-14.9829 -2.9694,-6.6534 -1.5628,-8.1202 -3.0215,-2.3051 -0.4689,10.9491 1.3024,0.7335 1.3024,2.3051 0.3646,7.1772 -1.8754,9.7442 -2.9694,0.1572 -7.1891,2.3052 -6.043,6.6008 -5.8346,11.6828 -0.3125,5.6055 -1.0419,3.1433 -8.5436,16.0833 -3.855,3.2481 -6.8765,0.2619 -4.0113,-2.4623 -3.6987,5.5532 1.0419,0.7335 -2.188,2.3051 -16.0452,8.5393 -9.4292,7.4391 -3.2299,3.3528 -0.3125,2.2005 -2.8131,5.3436 z m 90.8012,105.72 8.5956,2.3575 2.761,3.7719 0.052,3.6672 -4.1155,3.7197 -6.7202,-3.3006 -9.0645,-0.6811 -7.9705,3.772 -1.0419,1.467 0.7293,4.8198 -1.6149,1.6239 -7.3974,3.6671 -5.5221,-5.6579 -7.4496,-1.4144 -2.0837,0.681 -0.6252,2.5669 -1.6149,0.9431 -6.7202,-0.6286 -7.4496,1.1525 -10.6273,0.3143 -1.8234,-3.0384 -8.0225,-6.7059 -0.2605,-2.4622 2.6568,-7.8583 20.7337,-6.1818 4.4281,-0.052 5.3137,-1.2574 11.1482,-4.9768 11.8256,0.9953 3.334,3.1956 -0.052,5.658 0.7815,1.0477 5.4178,0.7335 5.5742,3.1957 3.334,0.262 3.4904,-5.396 z"
     title="South Australia"
     id="AU-SA"
     data-label-x="1230"
     data-label-y="1149"
/>
  <path
     d="m 2073.8933,1731.5972 -6.8765,3.4053 -8.3352,0.8382 -27.3498,0.1572 -9.4812,1.3621 -9.325,-0.3666 -10.471,0.7333 -19.5356,5.8152 -11.565,5.7627 -12.3465,9.4298 -9.5333,8.9585 -9.0124,9.0109 -13.753,16.0832 -5.4179,4.8197 -12.659,1.6242 -12.3986,3.1434 -4.428,-1.4146 -5.1574,0.3142 -2.3443,0.9955 -1.9796,2.9861 6.3035,11.5778 6.5118,-4.6101 1.1982,-4.4007 2.0317,0.943 0.8335,19.6982 -3.3341,4.2433 -1.7712,0.8906 -2.6568,-1.2572 -1.5629,-2.3575 -4.1154,-10.8444 -5.9388,-7.4917 -4.376,-1.8859 -2.761,0.8905 -0.7815,2.2529 -5.5741,-0.4715 -4.5843,-9.3251 1.3544,-2.2005 -1.7712,-3.3528 -5.0011,-0.7858 -3.9071,2.6194 -2.8652,0.4715 -2.3443,-1.3621 -8.4914,-8.6441 0.9377,-6.7582 5.0011,-2.0955 1.9796,-3.51 -3.9592,-9.1157 -2.3443,-1.5191 -10.6794,0.7858 -2.3964,8.0678 -10.3147,10.6872 -5.0011,0.9954 -2.2922,-0.3666 -7.9184,-9.2729 6.7202,0 5.9388,-2.6718 8.2831,-14.6688 -1.8233,-6.7581 -6.9807,-10.8444 -3.282,-1.6763 -5.2616,2.4098 -7.5537,7.2819 -9.2729,6.9678 -7.9705,0.8381 -0.9898,0.9954 0.3126,2.6195 7.8142,1.3621 4.3759,-1.5193 2.6048,-1.9383 3.9071,1.1 0.8335,2.0954 -0.6251,3.1959 -2.9173,4.5054 -1.4066,1.0479 -4.8448,-1.1527 -8.6998,1.886 -1.8234,1.1002 -17.0349,11.5777 -12.3986,15.3499 -6.2514,1.7288 -2.0838,1.467 -1.2502,3.1957 -7.3454,5.4483 -2.1359,-0.5762 -3.4903,-4.1387 -3.1778,-1.886 -11.7214,-3.7719 -2.6568,-2.7244 -4.7927,-2.986 -4.3239,-0.5763 -9.5333,-3.8767 -15.1596,-11.7875 -8.804,-3.5101 -6.2514,1.5194 -1.0419,1.2049 -5.1053,-0.1048 -5.522,-3.1956 -5.5221,-4.6102 -8.1268,-1.7813 -3.9592,-0.052 -4.0634,1.1525 -3.334,2.8291 0,2.2526 1.7191,3.4052 -4.4801,1.2574 -6.6161,-3.2481 -4.8969,-5.9723 -9.8459,-9.2727 -5.0532,-3.3529 -7.6579,-3.5625 0,0 0.2083,-284.9935 1.4587,1.9384 0,0 2.6568,2.6195 1.7192,0.4715 9.7417,0.7335 9.2729,4.3481 6.3034,3.8767 0.9898,1.3622 2.7611,-1.4669 3.1777,-4.4005 5.0011,-1.9384 8.3873,2.2002 8.8561,-1.8336 6.5119,2.9862 4.5322,3.1433 7.8663,13.3067 0.2605,9.849 4.8969,4.5579 3.0215,8.1203 -0.1563,1.362 1.9275,2.2526 4.7927,0.943 2.5527,-3.2482 1.8233,-8.1201 0.9898,-1.4145 3.2299,-1.1001 3.5424,2.3576 0.7814,1.8859 6.6682,2.7241 8.4393,0.5762 12.0339,6.6011 0.7293,1.1002 -0.052,4.3482 -1.3545,6.863 1.5107,8.644 2.6048,5.7627 4.2197,2.6196 4.5843,1.1524 2.188,3.4053 -1.3024,3.9815 0.9377,1.4669 3.4904,2.6193 2.3442,-0.5237 4.0113,1.4667 8.6999,6.6534 9.6896,5.1865 4.3759,6.0769 5.7305,5.1342 3.2298,1.0477 1.3024,1.3622 2.9173,6.7057 11.8776,13.9877 6.9807,4.0863 2.188,0.5762 10.0022,-2.8289 -0.8856,-7.1249 1.9796,-7.2295 1.0419,-1.2573 7.0849,-1.8335 6.9286,0 1.9275,1.5715 4.949,0.4714 4.949,-2.7241 4.2718,-0.943 1.4065,0.1571 4.1155,3.2482 6.6682,6.4437 3.9592,1.6765 16.1494,3.0909 11.7213,1.0478 5.9388,-2.5671 1.9796,-2.0955 3.5424,-0.4715 5.8346,0.8907 5.0532,3.9814 12.607,3.9816 7.6058,0.5238 9.4813,-3.3528 5.1053,-0.4715 5.2615,-6.6009 5.2616,-0.8906 7.9705,1.5192 4.8448,-1.8859 9.4813,4.0861 6.1471,3.9293 2.9174,23.1557 3.5945,4.6101 5.2095,10.6874 -0.5731,5.0817 -4.5843,7.9631 5.1053,0.4189 100.2824,50.817 0,0 -4.428,2.8288 -6.4598,0.5763 -6.3555,9.7444 -5.1053,2.6193 z m -238.8025,50.0311 -4.0634,-1.5717 -0.7293,-3.3004 1.4065,-4.6625 9.0645,1.8859 2.2922,2.7242 -0.6251,1.0477 -3.6467,0.052 -3.6987,3.8244 z m -0.1042,10.0585 -1.9275,-2.3574 -2.761,-1.2049 -8.7519,0.7334 0.1562,-0.7857 3.9592,-3.8768 5.2616,-1.0479 1.5108,0.9955 3.0215,7.2819 -0.4689,0.2619 z"
     title="Victoria"
     id="AU-VIC"
     data-label-x="1809"
     data-label-y="1686"

     />
  <path
     d="m 2096.4503,734.22488 0,0.94299 3.4904,3.35288 -2.9173,-10.11099 -3.6988,-7.64871 0.052,-2.88138 2.188,-5.81513 2.2401,-2.93374 2.5005,-0.68106 1.9796,0.83821 4.3239,6.70573 2.5526,7.28201 6.8766,2.82899 8.9603,6.18183 6.4076,2.93377 -3.282,-7.8059 -0.052,-4.61019 1.5629,-3.1957 4.1155,0.73344 4.0113,6.02468 -1.6671,3.87675 0.4168,2.98615 7.6579,10.9492 -3.5945,24.46543 3.1778,6.60095 -0.6773,8.80126 3.7509,7.64873 4.5843,2.51464 4.2197,0.62866 1.6149,3.71959 3.855,2.93376 2.709,7.85828 4.0113,2.20032 1.8754,0 2.6568,1.88598 5.9909,7.43918 3.855,1.15253 3.0215,2.40987 -0.8856,1.41449 0.3647,1.72883 1.5628,0.62867 2.761,-2.72422 0.1042,-3.35286 1.3545,-1.30972 2.5005,0.73344 5.8868,6.81052 8.2309,7.38676 4.3239,12.93997 6.8765,11.31593 8.231,6.33901 7.9705,3.14329 2.8131,3.2481 1.667,4.03392 0.5731,7.49154 9.2729,15.4546 7.7621,2.35751 5.5741,0.36671 2.188,9.22036 -0.6772,5.5532 -2.2922,2.35749 0.3126,7.33438 1.2502,3.51003 1.8754,1.78122 1.7192,0.47148 3.0215,7.43917 8.1268,3.71959 0.2083,1.51927 -2.7089,5.91989 -3.6987,15.19268 1.0419,4.0863 1.4065,18.7027 1.5629,3.82435 0.7814,22.36991 -3.4903,1.1001 -3.4383,4.8722 1.7191,8.6965 6.1993,4.8197 4.5843,5.7627 3.5425,12.2065 4.7927,6.7582 1.667,4.5577 -1.2502,8.5393 2.8131,7.1249 2.6047,3.6674 0,0 -4.2197,3.4575 -6.1992,2.4099 -7.5538,1.4144 -4.3238,5.7628 -9.325,-0.6287 -10.5752,1.1001 -9.2729,-2.0432 -3.6988,-3.8243 -2.5005,-0.3667 -3.2299,2.7243 -1.1461,2.9338 -2.2921,1.5716 -11.2525,3.7195 -6.3556,3.1434 -5.4699,4.3482 5.1053,11.6303 -1.8233,10.53 -10.8358,5.2388 -3.4903,-1.6764 -2.0838,-4.0338 -9.7417,4.3481 -5.1053,10.4778 -2.7089,2.8814 -2.7611,0.681 -1.2502,-0.5763 -2.2922,-5.134 -0.6772,-9.8492 -14.4303,-12.5206 -14.274,-6.5487 -8.5435,1.7812 -9.4292,-0.262 -3.9071,-2.6716 -4.3238,-4.5056 -1.5629,-0.3667 -7.6579,0.943 -8.1268,3.1433 -17.3997,1.5192 -4.949,-1.4667 -0.8856,-1.8861 -1.4586,-0.262 -6.2514,1.7289 -18.0769,15.4546 -6.616,8.3298 -4.3239,2.1479 -169.4643,0 0,0 -71.995,0 0,0 -88.0402,0 0,0 -113.5666,-0.052 0,0 -6.7723,0.1572 0,0 -0.1042,-191.42761 -169.6727,0 0,0 0,-573.91604 0,0 10.992,9.01081 5.4178,2.09555 11.0962,2.67182 8.6477,-0.5239 2.709,1.99077 8.804,3.71959 9.4812,1.36209 7.3975,10.32053 1.1982,7.64873 2.8652,5.55318 2.7089,2.67183 4.3239,1.51924 5.6783,0.68106 5.5742,3.71959 4.5843,4.66258 11.2004,3.24807 3.855,2.30511 5.4699,4.92451 2.2401,0.94299 6.4077,0.36673 14.9512,-2.72421 7.7621,-2.88136 4.8448,-2.61943 7.8142,-6.07707 4.2718,-1.51926 2.9694,-5.44841 3.1778,-12.36368 0.8335,-8.85366 13.4405,-17.55015 5.2094,-11.83979 1.6671,-8.59172 6.3034,-16.65956 -1.4586,-9.90143 3.3861,-21.68883 9.846,-22.68422 1.7712,-7.17723 -5.5742,-15.40222 -2.5526,-16.50237 0.8335,-4.81975 3.2299,-8.32978 0.4167,-6.49617 -1.2502,-4.5578 -5.6784,-6.81051 -0.4688,-7.02006 4.1155,-17.18344 8.283,-16.18804 -0.6251,-2.56703 -2.6047,-2.93376 -2.5527,-10.05858 0.4689,-1.67644 0.7293,-1.30972 5.7825,-3.66718 2.188,-2.67183 2.761,-7.7011 3.3862,1.04778 1.8233,3.14329 0.052,4.66259 2.3964,3.66718 0.4688,-2.46225 -3.1778,-9.32515 -2.5005,-1.8336 -6.8765,-10.37292 1.667,-1.3621 -1.094,-0.83823 -3.6987,-0.26194 -0.4689,3.40525 1.7713,2.40987 -3.282,1.04779 -1.9796,-0.89062 0.1042,-1.30971 5.3136,-11.57785 4.949,-6.86291 -0.8856,-1.99075 2.5527,-7.3344 2.4484,-3.66719 2.4485,-1.10016 1.4065,6.91529 6.043,-1.20495 0.4689,-1.41448 -4.5843,-4.50541 -0.2084,-2.35749 1.2502,-6.705731 8.6999,-25.146483 2.0317,-12.835182 -1.1461,-10.110983 0.5209,-1.41449 2.0838,-1.519266 8.9603,-1.571657 3.1778,-4.243467 2.5527,-6.443788 4.2196,-0.157165 5.3137,2.514648 -1.7712,2.724203 -3.7508,3.457641 -0.4168,5.291239 3.5945,-4.610188 2.0317,0.157165 7.658,6.548564 2.4484,5.396017 4.376,17.916868 -1.4587,6.915284 1.5629,11.787414 -0.4168,6.758115 6.1472,5.448422 3.9071,0.31432 3.6987,-1.67644 1.615,0.62867 3.8029,4.19107 -5.47,8.85366 -1.146,4.87213 -0.2605,6.33902 2.9173,0.83821 1.7712,-0.47148 5.0011,2.46224 1.5629,1.72883 0.2083,6.07706 2.5006,2.61942 2.1359,0.20956 3.855,2.93377 -3.1257,7.28198 -0.7293,6.12947 2.4484,1.25733 5.5742,-0.62867 0.573,1.15255 -0.8856,12.73041 1.3024,11.94457 0.4167,2.09554 2.2401,2.14794 1.4587,3.1433 -0.4689,5.4484 -3.1778,13.41145 4.0113,10.47772 4.7927,5.08169 0.7294,9.42993 2.1879,7.80588 2.5527,5.5008 1.9275,2.09552 4.0634,2.20034 7.0328,0.0523 8.0226,-6.28662 15.941,-7.33439 2.3443,-5.29123 2.24,0.52389 3.5425,5.34362 -0.6773,5.55318 2.709,7.38678 3.5424,4.24346 8.5436,3.30049 3.855,0.26194 3.5424,7.91066 13.9614,6.33901 6.1993,4.87213 -0.3647,3.45764 -4.2717,7.59634 0.2083,3.45763 2.2401,3.71959 0.7293,4.34825 -2.2921,6.75812 3.1778,6.33901 3.0735,10.53008 0,10.63487 2.8653,2.88138 2.9694,6.96766 -0.9377,12.04935 -2.1359,2.98614 -0.3647,6.07708 0.521,1.72883 2.9694,1.88598 19.3271,24.25588 1.8754,-1.57166 5.2616,-0.89061 1.3545,1.67643 -4.376,8.32977 0.2605,1.83359 4.0113,6.9153 4.428,10.42531 3.0215,11.15876 1.0419,8.22499 -1.0419,5.65797 0.8336,6.07704 -0.3647,3.92915 -5.2095,11.10636 0.4168,5.71036 11.4608,15.08787 6.8765,2.61943 -0.4167,6.65335 -2.5527,5.97229 -0.7293,6.33901 0.5209,1.99076 3.282,4.40063 4.949,3.87675 1.4066,2.72417 6.616,4.34825 5.0532,2.40987 6.1993,0.15718 6.9286,6.96766 3.855,0.15716 6.7202,2.20033 3.803,3.61481 6.4597,1.3621 10.1064,-0.78583 0.8335,-1.78121 -2.5526,-4.45303 3.2298,3.71958 5.47,9.90143 2.2401,11.52546 1.3544,2.77661 2.8653,3.09093 3.0735,0.73343 2.6048,-0.62866 -0.8856,-4.87214 0.4167,-2.09554 3.4383,0.0523 1.667,1.78121 0.6773,6.65334 2.7089,2.56703 3.3861,1.46688 7.0849,-0.31432 6.9807,2.04314 4.4802,5.44842 -1.8233,0.73344 0.4688,1.62403 3.3341,4.13869 4.4801,3.66721 2.9694,-1.30973 0.2084,-3.56241 -1.7712,-1.62404 0.7814,-2.09555 3.9071,1.46689 8.5436,7.7011 5.4178,0.99539 1.9275,2.67181 3.5946,10.16337 2.1359,0.57628 1.7191,4.81975 -3.1778,-0.78584 -2.7089,-2.77659 -2.2922,-1.10015 -2.761,1.15255 -4.1676,5.18645 3.4904,9.42993 6.8244,7.17724 4.0634,2.82896 6.043,2.14794 7.5016,5.86751 3.0736,3.92913 -0.573,4.50542 1.9796,7.54394 2.8131,2.40988 2.188,7.22961 3.2298,5.71034 3.2299,3.09093 -0.7293,11.57784 5.1574,18.54555 3.9071,9.5347 3.5945,5.18648 2.4485,1.99075 0.1563,6.23422 -1.7192,2.61943 3.8029,-1.93837 3.0215,-2.51465 1.4066,-2.35748 8.8561,11.05397 z m 175.5594,200.01932 -2.4484,-0.52388 -2.2922,-3.09093 -3.0736,-11.26351 3.0215,-7.43918 3.8029,-6.339 -0.052,-5.39602 -0.7814,-1.36212 2.3443,-4.9245 5.8867,-4.76736 2.6047,-5.13407 0.4689,-2.77658 -0.5731,-2.14794 -3.3861,-5.55319 -1.094,-0.62867 2.1359,-3.98151 4.8448,-3.1957 0.4688,12.78279 1.3024,2.88137 2.7089,1.7812 0.5731,2.20032 -13.8051,32.69043 -2.5006,8.22501 0.8335,5.08167 -0.9898,2.88137 z m -787.9856,-548.97913 -0.5731,-3.45764 1.5108,-6.02468 3.2298,-4.50541 4.7407,-3.6148 9.7938,-1.20495 3.0736,-1.67643 10.8878,1.78122 0.3126,3.45764 -2.4485,1.15256 -3.6987,0.78582 -2.4485,-1.99076 -5.2095,2.09553 0.8336,1.83359 -3.4904,5.81513 -6.3035,2.40988 -8.1788,1.51926 -2.0317,1.62404 z m 683.1188,423.77061 -3.0736,-2.88137 -2.1879,-4.87213 -3.803,-3.45765 -2.1879,-4.92451 -0.521,-4.29587 2.5006,-0.57627 7.9184,5.02929 1.094,1.83361 3.6466,7.02006 0.6772,4.81974 -1.5107,1.8336 -2.5527,0.4715 z m -279.228,-320.98437 -3.9071,-1.51925 -1.094,-5.44841 -2.5005,-3.40524 -2.6048,-1.25734 -1.4065,-2.61941 2.3442,-0.57628 8.0226,3.77197 4.6885,6.81051 -1.667,3.24808 -1.8754,0.99537 z m 402.4843,568.78199 -0.9898,-2.2004 0.3126,-5.4483 2.1879,-12.4685 2.188,-0.5238 3.9071,0.6809 -3.7508,12.4686 -1.1982,7.1771 -2.6568,0.3144 z m 1.0419,-23.4701 -3.7508,-10.5825 0,-8.5916 4.8448,-2.6719 1.2502,0.943 -2.9173,11.1063 0.5731,9.7967 z m -635.7647,-996.848411 -3.5425,-2.881369 -0.2605,-3.614807 3.3862,-2.252706 2.3443,-0.471495 2.761,4.191079 -0.3647,2.147929 -2.7089,0.68105 -1.6149,2.200319 z m 5.4699,-29.0232327 -3.9071,-1.676432 -1.1982,-1.8859862 2.188,-3.35286454 L 1661.3547,0 l 1.8754,0.89060464 1.3024,2.30509426 -3.3862,4.2958574 z m -161.2854,400.5101237 -1.615,-3.40524 5.7826,-5.4484 2.9173,2.09553 0.9377,4.34825 -6.6682,-0.15716 -1.3544,2.56702 z"
     title="Queensland"
     id="AU-QLD"
     data-label-x="1790"
     data-label-y="803"
     
      />
  <path
     d="m 1923.3394,2173.5084 -4.6886,2.3574 -1.0419,-2.3574 -7.2932,-1.1526 -4.897,-3.7194 -4.7927,-1.0478 -12.3464,-0.6288 -1.1982,-0.8382 -0.8335,-2.2528 -1.615,-0.4713 -6.8244,2.0955 -4.0634,-1.3621 -5.9909,-9.4823 3.3341,-2.3575 6.2514,0.9429 3.0736,1.6765 4.2717,0.8907 0.1042,-5.1341 -4.0113,-3.353 -2.188,3.9817 -15.0554,-1.9385 -1.2502,-0.8906 -6.1993,-12.7304 -7.4496,-11.9446 -1.1981,-1.2049 -3.5425,0.1572 -2.9173,-4.7151 -2.0838,-4.4529 -3.9071,-14.5116 -2.4485,-2.6718 -2.8652,-0.8381 -3.5424,-22.9464 0.4167,-4.3482 1.0419,-1.3621 1.5108,2.7242 9.9501,7.6488 2.4485,11.4206 4.6885,-13.2018 -2.9694,-2.0955 -2.3443,0.2093 -10.0543,-11.1062 -1.094,-3.1432 0.1042,-4.6103 -0.8335,-3.4576 -3.5945,-7.3869 -7.3454,-6.9676 -5.6783,-10.111 -15.2117,-37.5627 0.5209,-2.6718 -1.5628,-7.963 -1.7191,-3.2481 -1.0419,-7.5438 4.5843,-4.1911 0.1042,-8.6965 3.4383,-2.3051 12.659,1.5192 7.3975,5.5008 8.9603,-1.4669 3.4382,2.9338 11.513,3.772 18.8583,11.2634 18.129,8.5918 11.9818,1.1002 5.3136,-1.624 4.8969,2.7766 -0.2604,-2.6195 4.428,-4.7151 4.0113,-1.4144 2.9694,0.943 1.2503,4.9769 2.9694,1.5193 4.7406,-0.1047 -1.667,-2.41 -3.9592,-0.8906 -1.1461,-1.1001 -0.2605,-3.6149 2.5527,-2.3574 8.6477,-3.9291 7.3454,2.4621 11.8255,-2.4097 3.4382,3.0908 4.0634,-2.4622 5.6784,-9.9014 1.2502,-0.7858 3.5946,-0.8907 1.3544,1.9908 5.8867,2.6718 1.9796,-0.1047 3.5946,-2.0955 1.8233,-3.091 0.9898,-4.5579 1.1461,-1.2571 2.3963,0.1046 3.6988,1.7289 8.0226,5.9723 2.9694,3.9291 3.1257,7.0724 -3.5946,12.8876 0.4168,3.8768 2.3442,3.0909 0.2084,5.7103 -2.4484,9.0108 0.3646,6.4439 1.9275,5.6055 -2.8131,15.2975 1.8754,16.7643 3.4383,5.6056 0.3126,8.6964 -2.9694,4.2435 -2.0317,-1.7288 -0.2605,-1.8336 1.5107,-1.9385 0.6773,-5.0292 -4.0113,-10.8444 -2.4485,-4.0339 -6.5639,13.0971 -4.2718,31.0664 -2.5526,2.6195 -0.8336,4.4005 0.6252,7.963 -4.0634,4.2435 -2.2922,7.7535 0.7814,1.2574 2.4485,-0.1571 -1.0419,-2.2528 1.667,-1.2572 3.5946,2.2002 1.4586,2.8813 0.3126,5.3961 -2.1359,1.4144 -0.8856,6.7581 3.0215,6.8629 -0.521,4.4008 -1.4065,0.1047 -4.0113,-3.5624 -4.0634,1.7812 -2.1359,3.1958 -5.2095,-6.4962 -3.6987,-7.5963 -0.7293,-3.7198 3.1257,-5.6054 1.8233,-0.524 1.3544,1.2574 0.2605,1.886 -0.8856,1.8334 3.4904,3.7721 4.8448,-0.3667 1.7712,-1.5192 -4.1676,-7.3344 -13.2321,-8.1203 -1.9275,0.3145 -3.1257,2.3573 1.094,5.2913 1.7713,3.8767 -1.5108,3.0386 -5.5741,1.8337 -1.3024,-3.2481 1.094,-0.6812 -0.8335,-7.8581 -5.1053,-3.3007 1.7712,4.5055 -1.2503,8.0679 -3.2819,4.0339 -1.5108,5.6579 1.1461,5.4484 -0.8335,5.0817 -1.9275,1.2573 -1.9796,-0.2619 -4.5323,-2.9337 -4.1155,-4.8723 -0.7814,-4.9244 -1.1982,-0.4716 -1.1981,1.9384 -0.052,5.2389 7.1369,6.5485 -2.2921,5.7627 -2.9694,4.6628 -2.8131,8.2249 -0.8336,5.658 z m 68.5567,-254.8177 -5.1053,-2.8289 -1.4587,-5.5533 0.3126,-1.5715 -6.4597,-12.2065 -8.0747,-7.2298 6.8765,-9.1155 4.8448,-2.0956 11.2004,15.0355 2.0838,1.5194 4.3238,1.1524 0.4689,2.1479 2.6568,14.6165 -0.2084,1.9907 -1.5628,1.4669 -7.137,1.3097 z m -237.9169,-10.2157 -1.9796,-1.4669 -0.7293,-3.8244 1.0419,-0.7858 0,-5.134 -3.2299,-4.2435 0.1563,-4.0339 0.9898,-11.8922 4.4281,-3.3006 0.6772,-1.9383 -0.5731,-4.2435 2.3964,-0.6811 5.0532,3.0909 2.3443,3.4054 0.7814,11.997 1.3544,7.701 -0.5209,4.0338 -1.7191,3.8768 z m 249.7945,27.242 -0.1563,-3.6149 -0.9898,-1.4667 -13.1279,1.6762 -5.0532,-2.2002 0.1042,-2.8814 3.7508,-3.0909 3.8551,-0.2096 3.9592,1.205 7.9184,-4.034 7.71,9.2205 -0.1042,0.7858 -3.9071,1.5193 z m -58.6066,229.6188 -3.5946,-1.6764 -3.5945,0.7858 -2.9694,-6.2342 10.0022,-12.4162 3.6466,9.5872 -2.5005,9.1156 z m 3.334,-19.541 -3.9071,-8.2248 3.6467,-6.3916 2.24,3.4577 2.0317,9.4823 -0.1563,0.8906 z m 36.9352,-39.5009 0.2605,-10.2681 3.282,-2.5145 2.9173,0.2617 2.5526,5.0294 -0.2604,0.7857 -3.9592,0.052 z m -176.7576,-153.7077 -0.9898,-0.7335 -0.2604,-3.6149 3.3861,-4.0339 5.1053,5.8675 z"
     title="Tasmania"
     id="AU-TAS"
     data-label-x="1911"
     data-label-y="2054"

      />
</svg>
