<?xml version="1.0" encoding="UTF-8" standalone="no"?>
<svg
   xmlns:mapsvg="http://mapsvg.com"
   xmlns:dc="http://purl.org/dc/elements/1.1/"
   xmlns:cc="http://creativecommons.org/ns#"
   xmlns:rdf="http://www.w3.org/1999/02/22-rdf-syntax-ns#"
   xmlns:svg="http://www.w3.org/2000/svg"
   xmlns="http://www.w3.org/2000/svg"
   width="751.62"
   height="613.27765"
   mapsvg:geoViewBox="2.545901 51.505143 6.408114 49.497104"
   id="svg2"
   version="1.1">
  <metadata
     id="metadata19">
    <rdf:RDF>
      <cc:Work
         rdf:about="">
        <dc:format>image/svg+xml</dc:format>
        <dc:type
           rdf:resource="http://purl.org/dc/dcmitype/StillImage" />
        <dc:title></dc:title>
      </cc:Work>
    </rdf:RDF>
  </metadata>
  <defs
     id="defs17" />
  <path
     d="m 468.18,15.384915 -3,1.43606 0.14,5.312415 -4.42,-1.938178 0.72,-3.34411 1.87,1.998432 1.65,-2.440297 -1.58,-1.064491 4.62,0.04017 z M 435.75,0 l 11.07,6.005339 0.88,7.039703 -4.16,3.755848 1.42,7.622161 3.17,-0.251059 -2.18,1.7775 -11.89,-4.689789 -0.31,5.282289 18.11,1.687118 4.16,-2.560805 6.24,7.401229 16.24,-15.907119 0.64,-7.3208894 4.28,-5.382712 3.25,4.2579661 6.42,0.4016949 5.1,12.2516944 -6.34,12.030763 11.71,14.230043 0.53,10.233178 5.47,1.656991 7.26,-3.394322 7.84,5.201949 -2.86,11.498517 2.24,2.028559 0,0 -4.08,4.579322 -0.41,8.12428 9.03,11.378009 0.27,10.253262 -5.41,5.43292 -5.5,-2.07877 -2.39,5.34255 -5.17,0.65275 0,0 -1.58,0.28119 0,0 -5.52,0.34144 -6.79,9.86161 -16.18,3.4144 -0.47,5.45301 -5.62,7.06983 0,0 -3.02,-3.37423 -6.05,2.69135 0,0 -0.91,0 0,0 -6.32,4.67975 -15.62,3.28385 -5.06,-8.60631 -5.99,4.42869 -5.39,-0.49208 -7,8.45568 1.93,-4.89064 -4.49,-3.19347 -15.29,4.42868 -1.17,5.42289 -3.15,0.65275 -6.36,-4.17763 -3.93,3.65543 -7.76,-4.89064 -2.04,5.29233 -5.21,-4.36843 -11.22,3.12318 -1.11,-4.67975 -3.19,-1.05445 1.42,-5.08144 -7.12,4.36843 0.64,-3.25373 -12.88,-5.02118 -7.96,1.76746 0,0 -1.46,-1.94822 -3.89,3.2236 -4.28,-2.28966 1.5,-5.45301 -2.28,-1.02432 -2.28,-12.37221 7.14,-6.42712 7.1,2.23945 12.8,-3.53491 3.35,-9.09839 -0.14,-8.797121 -2.45,-1.215127 1.42,-4.539153 -4.24,-1.305508 -2.78,-14.8125 6.24,-9.30928 -8.11,-5.603644 -2,-12.281822 -6.28,-3.615254 0,0 -4.08,-6.587797 23.09,-0.994195 1.5,5.864746 7.92,1.024322 9.38,-2.781737 -9.22,-17.584195 2.45,-6.376907 -3.6,-1.747373 18.44,-9.7913135 12.66,-1.2854237 1.81,2.8419915 -3.35,7.3510167 1.05,8.12428 7.76,-2.902246 12.49,3.032797 5.66,-1.154873 -0.35,-5.653856 5.04,-2.309746 L 429.55,0.17072034 435.75,0 Z"
     title="Antwerp"
     id="BE-VAN" />
  <path
     d="m 302.66,246.30928 10.68,-7.33093 4.76,7.3008 5.51,-0.62262 7.72,6.03546 2.9,-3.23364 8.62,0 1.55,-6.33674 4.07,1.07453 -2.04,-3.59517 2.02,-1.90805 3.25,5.35259 4.18,0.0904 0,0 0,-3.84623 0,0 23.46,-8.21466 -0.17,4.02699 6.36,4.52911 0.13,-3.4847 9.53,-2.46038 4.05,-5.20195 1.67,7.01962 5.9,-0.46195 4.12,-4.00691 -3.5,-5.14169 1.01,-8.25483 9.77,3.02275 3.63,-1.97835 0.78,2.09886 1.85,-4.03704 6.87,-1.41597 6.11,2.55076 4.16,6.6581 4.41,0.28118 0.04,3.93661 12.28,-1.74737 0,0 1.48,0 0,0 -0.02,5.84466 3.63,2.0386 11.05,-8.28496 7.3,6.09572 0,0 -0.68,5.39276 -4.57,2.61102 4.64,6.48737 -3.05,2.5608 0.2,9.24903 -3.66,7.0397 0,0 -6.27,-1.47623 -4.64,6.14594 -5.59,-0.49208 0.29,2.11894 -22.05,6.41708 0.75,3.43449 -4.14,-3.46462 -5.17,3.89644 -1.87,-6.65809 -4.01,0.73309 -1.69,4.29814 -7.82,-3.77594 -1.71,4.26801 2.68,8.06403 -4.76,1.90805 -8.5,-2.79178 -5,2.35996 0.56,6.10576 0,0 -12.76,4.75004 -2.14,-4.35839 -4.98,0.83352 -1.75,2.81186 0.6,-9.34945 -3.85,1.26534 -7.39,-3.25373 -10.51,0.82348 -5.03,5.67394 0.6,-7.39119 -6.28,0.0603 -5.74,-8.21466 -5.1,-0.0703 1.19,-6.59784 -10.31,-2.35996 0.85,-7.00957 -4.57,-4.69983 -7.51,9.15864 -7.17,-0.12051 -2.94,-6.29657 0.54,-15.16398 3.68,-0.98415 z"
     title="Walloon Brabant"
     id="BE-WBR" />
  <path
     d="m 366.21,187.08941 0.78,0.58245 0,0 1.38,5.22204 -2.86,3.45457 7.26,4.85047 2.93,9.03814 -4.74,3.05288 0.76,2.18923 0,0 3.09,0.34145 0,0 3.69,4.0069 -2.76,0.24102 0,0 -2.53,1.08458 0,0 -15.21,7.11 -9.88,-3.32403 -5.43,-11.39809 -4.53,1.35572 -6.59,-3.33407 0,0 -0.49,0.49208 0,0 -0.12,-0.37157 0,0 1.97,-2.56081 0,0 0.56,-2.77169 5,-0.25106 -0.5,-9.46996 3.26,-4.85047 0,0 3.35,-3.11313 0,0 1.07,-0.62263 0,0 2.78,-1.97835 0,0 1.25,-0.27114 0,0 7.23,1.32559 0,0 4.15,-4.63957 0,0 2.52,1.85784 0,0 1.99,1.35572 0,0 z"
     title="Brussels Capital Region"
     id="BE-BRU" />
  <path
     d="m 178.07,227.49992 6.65,3.11313 8.66,-2.06873 0.64,9.51013 13.31,0.46195 2.86,3.04284 0,0 1.07,0.34144 0,0 9.22,-15.82678 6.4,-2.99263 0.8,4.46886 8.66,-4.18767 -0.95,3.08301 4.16,7.24055 6.96,-0.71301 5.49,2.65118 7.96,-2.95245 3.15,5.75428 0,0 -1.15,6.95936 4.26,5.84466 8.27,0.64271 0,0 1.3,0 0,0 17.37,-3.87635 1.71,2.21936 5.04,-6.33673 0,0 0,0.713 0,0 2.76,1.72729 0,0 2.49,0.34144 -3.68,0.98416 -0.54,15.15394 2.94,6.29656 7.18,0.12051 7.51,-9.15864 4.57,4.69983 -0.86,6.99953 10.31,2.35996 -1.19,6.59784 5.1,0.0602 5.74,8.22471 6.28,-0.0603 -0.6,7.39119 5.04,-5.67394 10.5,-0.82348 7.39,3.25373 3.85,-1.25529 -0.6,9.34945 1.75,-2.82191 4.98,-0.82348 2.14,4.34835 12.76,-4.75004 0,0 -3.77,11.76966 0,0 0,1.01428 0,0 0.76,3.21356 6.03,-3.12318 -1.56,1.86788 2.63,6.12585 -5.45,9.85157 8.91,5.14169 -2.67,6.63801 -3.64,1.22517 3.97,3.97678 -3.17,1.49631 -1.71,6.86899 2.67,9.39966 -14.57,3.26377 -2.9,-3.90648 -4.1,0.0602 -4.57,7.11 -10.87,-1.82771 -0.95,4.60945 -5.47,1.3758 -2.12,5.0011 -5.84,-0.55233 -8.07,6.57776 11.19,8.7469 4.22,-4.78016 1.89,1.09461 0,0 1.91,0 0,0 2.76,2.00848 0,0 -0.16,1.03436 0,0 -0.39,4.99106 0,0 -0.68,0 0,0 0.45,8.64649 -6.59,4.75004 7.49,13.82834 -2.88,4.40861 0.93,17.54402 3.66,1.27538 0.93,14.46102 5.85,12.27178 -2.31,4.87055 0,0 -15.93,-3.45458 -8.13,-4.87055 -22.2,3.96674 -0.56,-4.26801 -9.67,-2.60097 3.91,-6.54763 -5.06,-5.60364 4.67,-8.70674 6.44,-0.36153 7.2,-6.03546 -6.42,-10.96627 0.54,-8.38538 -9.08,-0.15064 0.23,2.12898 -5.12,-2.18923 5.17,-8.99797 -0.84,-15.15394 4.3,-1.00424 9.4,-11.14703 -2.47,-5.88483 -5.95,-1.00424 -3.03,-4.20775 -2.43,4.32826 3.38,5.09148 -5.76,0.0904 -4.03,-13.86851 -4.05,-3.17339 -3.85,0.91385 -10.08,-14.68195 -7.31,4.98102 -2.61,-1.64695 -1.01,2.07877 -0.16,-2.19928 -12.76,6.55767 -10.1,-7.66233 -4.67,-0.15063 -2.3,2.72148 -1.3,-3.23365 -11.71,0.94399 -2.68,2.41017 -0.82,9.15864 -4.03,-2.22941 1.71,4.23789 -1.89,0.49207 -6.71,-9.02809 -2.98,-10.65496 3.23,-10.17292 -2.92,-16.3289 -10.13,-12.06089 -4.92,1.68712 -2.84,-3.0328 -13.25,4.04708 -0.89,-3.49475 4.44,-7.6322 -8.58,-2.94242 -5.33,8.18454 -2,-1.19505 -11.87,5.88484 -2.84,-3.91653 -13.6,-6.24636 -2.45,-4.37847 0.02,-17.33314 -7.72,-19.25123 5.06,-5.65385 -2.41,-3.93661 1.52,-3.8161 -13.17,-6.85894 1.21,-3.32403 -4.2,-6.61792 0,0 8.25,-3.14327 8.25,4.40861 8.5,-1.07454 3.64,10.4039 6.87,3.69559 9.03,-11.32779 5.41,-0.80339 0,0 0,-1.20509 0,0 4.97,-4.55923 z m -116.15,18.61855 1.36,-1.78754 -5.62,-6.92924 2.04,-1.69716 -1.85,-2.98258 5.19,-3.02276 1.71,1.69717 0.06,-2.21937 3.37,2.68132 5.15,-1.26534 -0.12,-2.33988 7.8,-2.80182 -4.61,-6.10576 12.39,-5.21199 2.8,2.33987 -1.21,6.19614 4.07,0.86365 -2.04,2.15911 0,0 -8.21,6.83885 -7.26,2.05869 1.23,4.06716 -7.04,11.74958 -9.21,-4.2881 z"
     title="Hainaut"
     id="BE-WHT" />
  <path
     d="m 612.63,213.75191 1.56,9.05822 -3.58,7.46148 0,0 6.17,3.2939 0,0 0.95,0.12051 0,0 2.67,-2.49051 2.47,1.8478 0,0 0.27,0.86364 0,0 7.45,0 7.02,10.12271 7.72,-0.95402 4.22,2.21936 5.45,-7.82301 -3.56,-6.43716 0,0 4.83,1.38585 8.65,-3.6253 3.76,2.86208 7.72,-0.52221 4.2,3.38428 -0.39,7.88327 1.19,-2.93238 13.83,1.8478 12.92,21.86225 -2.75,2.55076 2.9,3.2939 -1.32,1.80762 4.01,-2.02856 13.81,1.99844 -4.94,11.47843 -3.54,-0.3314 -9.57,10.0022 0.44,4.68979 3.44,1.5867 -1.47,3.16334 3.77,1.74738 3.52,7.84309 8.58,-3.0328 15.62,5.05132 -1.98,8.11424 6.1,2.41016 0.86,5.63378 -6.85,17.21262 12.84,13.67771 -0.58,3.90649 -8.17,2.47042 -0.24,3.14326 -5.62,-5.70406 -4.88,1.15487 -5.29,15.7364 -12.59,3.01271 -3.54,5.94508 -4,0.70297 -1.85,4.37848 4.67,11.59894 -8.7,2.21936 -2.53,6.59784 4.07,3.555 -2.8,3.7458 -5.22,-1.82771 2.45,-3.94665 -2.29,-5.29233 -6.25,-1.49631 -0.29,4.56928 -3.67,0.90381 -5.8,-3.25373 -1.28,-5.925 0,0 1.84,-6.87903 -4.08,0.0904 -0.58,-33.11975 -5.22,-1.95826 -0.78,-2.89221 -22.7,-5.22203 -2.21,6.13589 3.5,3.99686 -4.67,10.12272 0,0 1.03,0 0,0 5.95,0.46195 -7.64,5.69402 -5.94,-1.06449 -0.72,3.01271 -1.61,-3.16335 -6.28,-0.94398 -8.39,1.94822 4.85,-12.0408 -4.54,-0.0904 -4.22,-8.51593 3.5,-8.60631 -9.68,0.36152 0.87,-3.66546 -8.48,-0.82348 -7.76,-8.42555 -10.97,2.00848 -4.79,-9.93191 -8.54,5.38271 -9.24,-6.78864 -2.74,5.20195 0,0 3.07,0 0,0 1.5,3.4847 -7.06,6.80873 0,0 -8.13,-2.75161 -10.54,7.08991 -3.15,-3.93661 1.12,-4.83038 -10.13,-2.99262 -2.61,-4.00691 2.71,-6.63801 -7.36,-12.57305 -6.81,3.18343 -2.45,-4.37847 1.99,-1.59674 -5.31,-0.91386 -0.94,-3.76589 2.45,-2.8219 -4.84,2.57085 -4.26,-3.18344 -0.41,-4.87055 -11.09,-0.79335 3.39,-2.39008 -1.09,-6.10576 -3.99,-8.52598 -9.39,-9.1486 1.01,-7.40123 0,0 3.66,-7.0397 -0.2,-9.24903 3.05,-2.5608 -4.64,-6.48737 4.57,-2.61102 0.68,-5.39276 0,0 5.15,3.17339 -0.48,4.86051 4.96,5.26221 6.05,-0.61259 0,0 12.62,4.08725 2.98,-2.7014 -2.49,-3.17339 1.3,-2.8922 10.82,1.99843 1.63,-2.89221 3.89,3.57509 3.46,-4.03703 5.47,3.72572 8.66,-9.07831 7.39,-0.58246 5.99,8.91763 5.7,-0.30127 2.72,-5.69403 3.02,4.51907 9.14,-5.5936 0.49,-5.18186 0,0 1.1,0.56237 0,0 15.04,-5.64382 8.46,-9.36953 6.25,0.43182 0.44,-2.33987 0,0 z"
     title="Liege"
     id="BE-WLG" />
  <path
     d="m 630.3,227.03797 4.86,3.78597 7.08,-2.62106 0.97,3.11314 6.89,-4.55924 1.34,4.27805 0,0 3.56,6.43716 -5.45,7.81297 -4.22,-2.21937 -7.72,0.95403 -7.02,-10.12271 -7.45,0 0,0 -0.27,-0.86365 0,0 -2.47,-1.84779 -2.67,2.4905 0,0 -0.95,-0.1205 0,0 -6.17,-3.2939 0,0 11.07,-0.74314 5.58,-6.7786 3.04,4.29814 z m -48.4,-157.605004 4.32,4.077203 0.78,13.205721 17.6,7.49161 1.26,3.946653 20.78,0.431822 2.28,9.941945 9.1,-5.0011 5.89,7.39119 -8.81,8.2247 4.34,6.20619 -7.02,2.01852 0.84,9.32936 -5.08,-0.37157 -3.05,8.83729 3.52,3.31398 -1.93,7.86318 -8.81,10.98636 1.5,2.28966 4.4,-1.48627 1.23,3.00267 -6.71,12.61322 -4.51,-0.34144 -4.12,9.04817 -6.54,2.93238 0.86,13.60741 7.55,4.71992 0,0 -0.45,2.33987 -6.24,-0.43182 -8.46,9.36953 -15.04,5.63377 0,0 -1.11,-0.55233 0,0 -0.49,5.17182 -9.14,5.60365 -3.02,-4.52911 -2.72,5.69402 -5.7,0.31132 -5.99,-8.92767 -7.39,0.58246 -8.66,9.0783 -5.47,-3.72572 -3.46,4.02699 -3.89,-3.56504 -1.63,2.8922 -10.84,-1.97834 -1.3,2.8922 2.49,3.17339 -2.98,2.71144 -12.63,-4.08725 0,0 3.75,-8.1544 -3.52,-1.81767 1.21,-4.83038 0,0 1.62,-2.09886 0,0 -1.3,-6.89911 8.29,-6.96941 0,0 -1.38,-0.0602 0,0 -2.98,-1.63691 1.19,-10.36373 3.56,-9.41974 4.32,0.58246 1.81,-8.21467 -3.68,-3.06292 -6.11,0.15064 -0.6,-2.56081 0,0 -3.97,1.5164 0,0 -4.03,2.28966 -2.65,-3.83619 -2.51,1.45615 -4.28,-7.97365 6.58,-5.38271 0.64,-7.95356 8.87,-3.52487 -1.75,-7.28072 2.14,-1.08458 0.41,2.66123 5.5,-2.69135 -7.84,-7.93348 -7.39,0.93394 0.64,7.16021 -4.9,2.79178 -2.74,-3.06292 -3.99,1.42602 -2.59,-6.00534 -5.58,1.42601 0,0 5.62,-7.06983 0.47,-5.453 16.18,-3.41441 6.79,-9.86161 5.52,-0.34144 0,0 1.58,-0.28119 0,0 5.17,-0.65275 2.39,-5.34254 5.5,2.07877 5.41,-5.43293 -0.27,-10.25326 -9.03,-11.378008 0.41,-8.12428 4.08,-4.579322 0,0 19.1,-0.502119 1.93,-3.796017 13.91,3.735763 13.34,-11.870085 5.93,1.556568 3.68,5.442966 z"
     title="Limburg"
     id="BE-VLI" />
  <path
     d="m 554.49,346.82339 7.06,-6.80873 -1.5,-3.4847 0,0 -3.07,0 0,0 2.74,-5.20195 9.24,6.78864 8.54,-5.38271 4.79,9.93191 10.97,-2.00848 7.76,8.42555 8.48,0.82348 -0.87,3.66546 9.68,-0.36152 -3.5,8.60631 4.22,8.51593 4.54,0.0904 -4.85,12.0408 8.39,-1.94822 6.28,0.94398 1.61,3.16335 0.72,-3.01271 5.94,1.06449 7.64,-5.69402 -5.95,-0.46195 0,0 -1.03,0 0,0 4.67,-10.12272 -3.5,-3.99686 2.21,-6.13589 22.7,5.22203 0.78,2.89221 5.22,1.95826 0.58,33.11975 4.08,-0.0904 -1.84,6.87903 0,0 -11.29,3.13322 -1.1,12.55297 -12.4,5.95512 -1.86,10.35369 -6.44,5.70407 2.95,3.73576 -1.9,5.43292 -7.92,4.94085 3.39,9.63064 -5.88,5.3325 -6.01,0.76322 -2.53,13.46682 -5.33,5.20195 9.48,6.16602 -1.85,3.50478 -3.78,-1.53648 1.03,4.67975 -2.64,1.06449 2.2,1.86788 -3.45,3.35415 2.69,13.64759 6.59,-1.29547 8.11,14.50119 -0.77,7.45144 7.45,-0.96407 4,5.03123 -4,9.78127 8.83,3.82614 -0.88,8.00378 -3.71,0.63266 -2.4,8.08412 -5.09,3.75584 0.76,2.62106 3.52,-0.18076 0.02,4.10733 -5.72,6.24636 -4.77,2.31978 -11.09,-4.99106 -2.6,6.8489 -18.72,-3.75584 -6.63,6.84889 -0.84,6.38695 -3.77,-4.61949 -6.89,-2.18924 -2.93,3.9567 -10.92,2.37 -2.47,3.30394 -4.35,-6.17606 3.3,-2.73153 -0.25,-3.63533 -4.59,-3.87636 2.53,-4.52911 -3.29,-0.81343 -1.75,-7.69246 -15.66,-10.49428 -1.98,4.18767 -4.83,1.73733 -1.5,-5.50322 4.91,-7.3711 -10.8,-11.5889 -1.81,-1.26534 -4.63,3.43449 -7.29,-3.13322 -7.63,0.72305 -0.8,-6.73843 -6.78,0.69292 -6.46,-14.89283 -5.84,0.36152 -10.91,-6.24636 -2.47,-5.37266 -5.2,-0.45191 0,0 3.74,-6.72839 0.29,-8.8172 13.27,-9.09839 -2.75,-2.90225 5.67,-5.78441 9.27,-3.20351 -4.24,-4.23789 0.76,-7.07987 -8.11,-7.27068 -9.94,1.21513 0.35,-5.03123 -7.35,-9.64068 2.99,0.45191 1.66,-5.18186 2.78,1.9683 5.99,-4.6697 0.87,-6.85894 2.63,-0.15064 -1.52,-3.37424 2.67,-10.65495 2,9.04818 24.26,-1.0645 13.36,-5.10152 0,0 0,-1.21513 0,0 -5.21,-4.95089 8.17,-4.49898 -0.66,-3.31398 -7.12,-8.54606 1.3,-1.73733 -3.38,-0.82348 2.41,-2.86208 -7.53,-3.28385 9.73,-3.28386 -1.25,-3.38428 5.53,-2.77169 2.94,2.09885 3.52,-1.79758 15.87,-12.79398 -1.07,-8.45568 -4.63,-0.57242 -3.17,3.74581 -1.15,-2.7717 10.06,-6.49741 -2.59,-4.66971 3.85,-4.92076 z"
     title="Luxembourg"
     id="BE-WLX" />
  <path
     d="m 395.72,297.13373 -0.56,-6.10576 5,-2.35996 8.5,2.79178 4.76,-1.90805 -2.68,-8.06403 1.71,-4.26801 7.82,3.77594 1.69,-4.29814 4.01,-0.73309 1.87,6.65809 5.17,-3.89644 4.14,3.46462 -0.75,-3.43449 22.05,-6.41708 -0.29,-2.11894 5.59,0.49208 4.64,-6.14594 6.27,1.47623 0,0 -1.01,7.40123 9.39,9.1486 3.99,8.52598 1.09,6.10576 -3.39,2.39008 11.09,0.79335 0.41,4.87055 4.26,3.18344 4.84,-2.57085 -2.45,2.8219 0.94,3.76589 5.31,0.91386 -1.99,1.59674 2.45,4.37847 6.81,-3.18343 7.36,12.57305 -2.71,6.63801 2.61,4.00691 10.13,2.99262 -1.12,4.83038 3.15,3.93661 10.54,-7.08991 8.13,2.75161 0,0 1.36,3.60521 -3.85,4.92076 2.59,4.66971 -10.06,6.49741 1.15,2.7717 3.17,-3.74581 4.63,0.57242 1.07,8.45568 -15.87,12.79398 -3.52,1.79758 -2.94,-2.09885 -5.53,2.77169 1.25,3.38428 -9.73,3.28386 7.53,3.28385 -2.41,2.86208 3.38,0.82348 -1.3,1.73733 7.12,8.54606 0.66,3.31398 -8.17,4.49898 5.21,4.95089 0,0 0,1.21513 0,0 -13.36,5.10152 -24.26,1.0645 -2,-9.04818 -2.67,10.65495 1.52,3.37424 -2.63,0.15064 -0.87,6.85894 -5.99,4.6697 -2.78,-1.9683 -1.66,5.18186 -2.99,-0.45191 7.35,9.64068 -0.35,5.03123 9.94,-1.21513 8.11,7.27068 -0.76,7.07987 4.24,4.23789 -9.27,3.20351 -5.67,5.78441 2.75,2.90225 -13.27,9.09839 -0.29,8.8172 -3.74,6.72839 0,0 -7.74,4.34835 -15.09,-1.80763 4.53,-8.00377 -5.39,-14.23004 2.65,-0.0904 5.35,-12.84419 -7.96,-11.70941 -10.97,-3.00267 -0.27,-3.21356 0.64,-4.1475 4.92,-3.57508 0.29,-9.52017 4.18,-3.75585 -4.1,-8.16445 3.5,-0.66279 2.53,-10.44407 4.07,4.12741 -0.84,-9.63063 5.56,-5.16178 -3.79,-4.93081 -8.02,-0.39165 -1.71,-4.31822 -12.41,9.67081 -2.45,7.5619 -11.03,8.08411 -2.64,5.61369 3.79,4.6697 -3.01,7.67238 1.69,9.09838 -18.4,2.66123 -11.03,5.30238 -3.23,5.63377 -17.69,2.69135 0,0 2.32,-4.87055 -5.86,-12.27178 -0.93,-14.46101 -3.66,-1.27539 -0.93,-17.54402 2.88,-4.39856 -7.49,-13.83839 6.59,-4.74 -0.44,-8.64648 0,0 0.68,0 0,0 0.39,-4.99106 0,0 0.15,-1.03437 0,0 -2.76,-2.01851 0,0 -1.91,0 0,0 -1.88,-1.09462 -4.22,4.78017 -11.19,-8.73687 8.07,-6.58779 5.84,0.55233 2.12,-5.0011 5.46,-1.36577 0.96,-4.60945 10.87,1.82772 4.57,-7.11 4.11,-0.0603 2.9,3.90648 14.57,-3.26377 -2.67,-9.39966 1.71,-6.86898 3.17,-1.50636 -3.96,-3.96673 3.63,-1.22517 2.67,-6.63801 -8.91,-5.13165 5.45,-9.85157 -2.63,-6.12585 1.56,-1.86788 -6.03,3.12318 -0.76,-3.21356 0,0 0,-1.01428 0,0 z"
     title="Namur"
     id="BE-WNA" />
  <path
     d="m 329.29,45.933814 6.28,3.615254 2.01,12.281822 8.11,5.613686 -6.25,9.30928 2.79,14.8125 4.24,1.305508 -1.42,4.539153 2.45,1.215127 0.13,8.787076 -3.34,9.09839 -12.8,3.54496 -7.1,-2.23945 -7.14,6.42712 2.28,12.3722 2.27,1.02432 -1.5,5.45301 4.28,2.28966 3.89,-3.21356 1.46,1.94822 0,0 -0.72,5.76433 -2.82,1.20508 2.12,4.05712 -6.73,5.63377 0,0 -2.1,0.0602 0,0 -5.23,-1.91809 -3.06,6.52754 2.59,8.84733 0,0 0.99,2.28966 0,0 -4.63,4.41865 -8.57,-4.5492 0.95,7.27068 -4.63,2.87212 2.72,3.21356 -1.11,4.06716 -8.36,11.66924 5.39,1.17496 -1.31,13.90868 -9.06,6.15598 -3.31,-2.52064 -2.43,3.8161 -7.18,-3.17339 -3.34,5.36263 3.89,8.15441 -5.64,0.95402 0,0 -1.72,-0.0904 0,0 -3.54,-0.86364 0,0 -3.15,-5.75428 -7.95,2.95245 -5.49,-2.64114 -6.96,0.70297 -4.17,-7.24055 0.96,-3.07297 -8.66,4.18767 -0.8,-4.46886 -6.4,2.99263 -9.22,15.82678 0,0 -1.07,-0.34144 0,0 -2.86,-3.05288 -13.3,-0.46195 -0.64,-9.51013 -8.66,2.06873 -6.65,-3.11313 0,0 12.06,-11.80984 -4.28,-5.70406 2.43,-3.45458 -11.55,-9.99216 5.05,-9.23898 -3.67,-3.14327 -5.26,3.08301 -3.21,-2.15911 3.45,-4.10733 -1.5,-3.7458 5.02,-0.0301 -2.45,-3.33407 4.16,-0.68288 -9.06,-4.29814 5.85,-2.78173 -3.38,-4.70988 4.98,-7.7025 -5.08,-10.22313 0,0 1.17,0 0,0 2.76,-2.57085 -2.1,-2.04864 -20.25,-13.94886 8.34,-5.58356 7.08,-13.51703 -4.9,-8.013815 -4.96,-1.707204 4.69,-3.454576 -3.42,-7.652288 6.02,-2.952458 -3.15,-11.679279 0,0 9.15,9.309279 19.2,-0.371567 -2.26,-12.824111 4.32,0.964068 4.8,-3.364195 3.85,2.460382 1.76,-5.955128 20.3,9.379577 15.97,3.926568 3.52,2.430254 -0.87,12.663432 13.07,1.024322 5.64,-3.705636 -0.09,7.059789 7.93,-6.125848 1.52,2.430254 4.41,-1.275381 11.02,-8.997966 8.98,0.38161 20.74,-15.635975 z"
     title="East Flanders"
     id="BE-VOV" />
  <path
     d="m 474.19,144.95161 5.58,-1.42602 2.59,6.00534 3.99,-1.42601 2.74,3.06292 4.9,-2.79178 -0.64,-7.16021 7.39,-0.93394 7.84,7.93347 -5.5,2.69136 -0.41,-2.66123 -2.14,1.08457 1.75,7.28073 -8.87,3.52487 -0.64,7.95356 -6.58,5.38271 4.28,7.97364 2.51,-1.45614 2.65,3.83619 4.03,-2.28967 0,0 3.97,-1.51639 0,0 0.6,2.5608 6.11,-0.15063 3.68,3.06292 -1.81,8.21466 -4.32,-0.58246 -3.56,9.41975 -1.19,10.36373 2.98,1.6369 0,0 1.38,0.0603 0,0 -8.29,6.96941 1.3,6.89911 0,0 -1.62,2.09885 0,0 -1.21,4.83038 3.52,1.81767 -3.75,8.15441 0,0 -6.05,0.61258 -4.96,-5.2622 0.49,-4.86051 -5.16,-3.17339 0,0 -7.29,-6.09572 -11.05,8.28496 -3.64,-2.02856 0.02,-5.8547 0,0 -1.48,0 0,0 -12.27,1.75741 -0.04,-3.94665 -4.42,-0.28119 -4.16,-6.65809 -6.11,-2.56081 -6.87,1.41598 -1.85,4.03703 -0.78,-2.09885 -3.64,1.9683 -9.76,-3.02275 -1.01,8.25483 3.5,5.14169 -4.12,4.00691 -5.89,0.46195 -1.67,-7.01962 -4.05,5.20195 -9.53,2.46038 -0.14,3.47466 -6.36,-4.52911 0.18,-4.03703 -23.46,8.2247 0,0 0,3.84623 0,0 -4.18,-0.0904 -3.25,-5.35259 -2.02,1.90806 2.04,3.60521 -4.07,-1.07454 -1.56,6.33674 -8.62,0 -2.9,3.23364 -7.72,-6.02542 -5.51,0.61259 -4.77,-7.29077 -10.68,7.32089 0,0 -2.76,-1.72729 0,0 0,-0.713 0,0 -5.04,6.33673 -1.71,-2.21936 -17.37,3.87635 0,0 -1.3,0 0,0 -8.27,-0.64271 -4.26,-5.84466 1.15,-6.95936 0,0 3.54,0.86364 0,0 1.71,0.0904 0,0 5.64,-0.95402 -3.89,-8.15441 3.35,-5.36263 7.18,3.17339 2.43,-3.8161 3.31,2.53068 9.06,-6.16602 1.3,-13.90868 -5.39,-1.17496 8.36,-11.66924 1.11,-4.0772 -2.72,-3.21356 4.63,-2.87212 -0.95,-7.26064 8.58,4.53916 4.63,-4.41865 0,0 -0.99,-2.28966 0,0 -2.59,-8.84733 3.05,-6.52754 5.23,1.91809 0,0 2.1,-0.0602 0,0 6.73,-5.63377 -2.12,-4.05712 2.82,-1.20509 0.72,-5.76432 0,0 7.96,-1.76746 12.88,5.02119 -0.64,3.25373 7.12,-4.36843 -1.42,5.08144 3.19,1.05445 1.11,4.67974 11.22,-3.12318 5.21,4.36844 2.04,-5.29233 7.76,4.89063 3.93,-3.65542 6.36,4.17763 3.15,-0.65276 1.17,-5.42288 15.29,-4.42869 4.49,3.19348 -1.93,4.89063 7,-8.45567 5.39,0.49207 5.99,-4.42868 5.06,8.60631 15.62,-3.28386 6.32,-4.67974 0,0 0.91,0 0,0 6.05,-2.69136 3.05,3.42445 z m -124.49,40.84233 0,0 -1.25,0.28119 0,0 -2.78,1.97834 0,0 -1.07,0.62263 0,0 -3.35,3.12318 0,0 -3.27,4.85047 0.51,9.46995 -5,0.25106 -0.56,2.7717 0,0 -1.96,2.5608 0,0 0.12,0.37157 0,0 0.49,-0.49208 0,0 6.59,3.33407 4.53,-1.35572 5.43,11.40814 9.88,3.32402 15.21,-7.12004 0,0 2.53,-1.07453 0,0 2.76,-0.25106 -3.7,-4.00691 0,0 -3.09,-0.34144 0,0 -0.76,-2.18924 4.75,-3.05288 -2.94,-9.03813 -7.26,-4.85047 2.86,-3.45458 -1.38,-5.22203 0,0 -1.4,-1.97835 0,0 -1.98,-1.35572 0,0 -2.53,-1.85784 0,0 -4.14,4.62954 -7.24,-1.33564 z"
     title="Flemish Brabant"
     id="BE-VBR" />
  <path
     d="m 160.4,41.254068 3.1,10.634873 -4.9,5.955127 3.32,4.057118 -1.73,1.215128 2.72,7.220466 0,0 3.15,11.679279 -6.02,2.952458 3.42,7.652288 -4.69,3.454576 4.96,1.707204 4.9,8.013815 -7.08,13.51703 -8.34,5.58356 20.25,13.94886 2.1,2.04864 -2.76,2.57085 0,0 -1.17,0 0,0 5.08,10.22313 -4.98,7.7025 3.38,4.70988 -5.85,2.78173 9.06,4.29814 -4.16,0.68288 2.45,3.33407 -5.02,0.0301 1.5,3.7458 -3.45,4.10733 3.21,2.15911 5.26,-3.08301 3.67,3.14327 -5.05,9.23898 11.55,9.99216 -2.43,3.45458 4.28,5.70406 -12.06,11.80984 0,0 -5,4.49898 0,0 0,1.19504 0,0 -5.41,0.80339 -9.03,11.3278 -6.86,-3.6956 -3.64,-10.40389 -8.5,1.07453 -8.25,-4.39856 -8.25,3.13322 0,0 -5.29,-10.43402 -4.78,1.10466 -2.71,-2.30975 -5.52,6.68822 -4.55,-2.4403 -5.08,3.39433 -2.78,-1.3256 0,0 2.04,-2.15911 -4.06,-0.86364 1.2,-6.19615 -2.8,-2.33987 -12.39,5.21199 4.61,6.09572 -7.8,2.80183 0.12,2.34991 -5.16,1.2553 -3.36,-2.68132 -0.06,2.21937 -1.71,-1.68712 -5.2,3.01271 1.85,2.99263 -2.04,1.68712 5.62,6.92923 -1.36,1.7775 0,0 -3.06,-4.77012 -5.64,2.15911 -5.48,-3.35415 -1.79,-7.54183 -10.88,-12.84419 -0.23,-5.43293 -8.77,-1.01428 -1.79,-2.59093 -6.48,2.9625 -3.77,-11.01648 -3.18,-0.46195 2.46,-4.78017 -0.65,-10.19301 -0.44,-4.71991 -3.17,-1.94822 8.09,-8.56615 L 12.33,158.72975 5.84,154.92369 0,128.09047 42.87,103.99881 103.33,61.800763 124.26,52.7325 l -2.74,-6.577754 3.25,-3.625297 -2.32,2.560805 3.04,3.80606 2.76,-1.7775 -3.4,4.308178 1.96,-1.626865 0.31,3.404365 1.34,-3.836187 1.91,1.275381 -1.3,-2.11894 3.26,0.843559 -1.4,-4.74 -1.49,0.964068 2.33,-2.189237 -4.59,-1.124746 4.82,1.195042 0.98,6.045509 z"
     title="West Flanders"
     id="BE-VWV" />
</svg>
