<?xml version="1.0" encoding="UTF-8" standalone="no"?>
<svg
   xmlns:mapsvg="http://mapsvg.com"
   xmlns:dc="http://purl.org/dc/elements/1.1/"
   xmlns:cc="http://creativecommons.org/ns#"
   xmlns:rdf="http://www.w3.org/1999/02/22-rdf-syntax-ns#"
   xmlns:svg="http://www.w3.org/2000/svg"
   xmlns="http://www.w3.org/2000/svg"
   height="612"
   width="510.68799"
   version="1.1"
   id="svg2"
   mapsvg:geoViewBox="-2.678263 49.736003 -1.924469 49.146977">

  <path
     d="m 273.131,0 0.188,0.874 0.753,0 -0.188,0.87 -1.317,0 -0.754,0.873 -1.317,0 -0.377,-1.452 0.942,0 1.317,-0.582 0,-0.583 0.753,0 z m 18.825,2.325 0.942,1.161 0,1.161 -0.565,0.291 0,1.161 -1.882,0 0.188,1.743 -2.635,-0.287 -0.942,0.869 -1.318,0 -0.375,-1.16 -0.754,0 0,0.578 -0.94,0 -0.942,2.325 -0.941,0 -0.565,-1.16 0,-1.744 0.942,-1.165 1.129,0 1.317,-1.452 4.33,-0.87 0.377,-0.874 2.634,-0.577 z m 47.248,0.291 2.635,2.03 -0.188,1.165 0.754,0.578 0.188,1.165 0.563,-0.291 0.565,-2.325 0.752,0 0.942,1.161 0.565,-1.739 1.129,0 0.188,1.16 0.563,0.292 0.188,-1.743 0.565,0 0,-0.583 0.94,0 1.695,1.452 -0.94,0.582 -0.188,0.87 1.317,0 0,-0.579 0.94,0.287 0.188,1.743 0.565,0.291 -0.942,0.874 0.188,0.869 0.565,0 0.377,-0.869 0.752,0.287 -0.188,1.456 -1.129,0.869 -1.129,-0.582 0,0.873 -0.753,0.291 -0.188,0.869 -1.129,-0.291 -1.506,3.485 -3.011,-0.582 -1.318,-1.16 -1.882,0.291 -0.566,1.16 1.695,1.452 0,3.193 -1.695,0.582 -0.375,2.324 -0.754,0 -0.188,-0.582 -2.823,-0.291 0,2.324 -1.694,-0.291 -0.188,1.451 -0.94,0 -0.565,0.869 -0.941,-0.287 0.377,1.451 -0.565,0.578 -1.506,0 -0.376,1.451 -0.941,0.873 -3.388,0.869 -4.707,0.291 -1.128,0.582 -1.318,2.029 -0.753,0 -0.188,-0.578 -1.129,0.578 -0.753,1.742 -0.752,0 -0.188,0.582 -0.565,-0.582 -1.318,0 -0.375,-0.578 -1.506,0.869 -0.753,-0.869 0,1.742 -0.752,0.578 -1.318,-0.578 -0.564,-1.164 -0.942,0 -0.564,-0.869 -0.565,0 -1.317,1.742 -1.129,-0.582 -1.318,0 -1.13,-1.16 -0.375,-1.742 -0.565,-0.291 0.565,-1.742 -1.13,-1.451 0,-1.16 0.942,0.291 0.188,-0.582 -1.13,-1.16 -0.188,-1.451 1.882,0.578 0.188,-1.742 0.565,0.582 0.941,0 0.752,-0.869 0.002,-1.164 -1.319,0 -0.375,0.873 -2.259,0 0.376,-2.615 5.647,0 1.317,-1.16 0.942,0 1.129,-1.451 0,-2.033 -1.506,0 0.377,-2.03 3.577,-0.582 0.752,0.869 1.883,-0.287 0,0.578 2.635,0 1.129,-0.578 0,-1.451 0.377,0 1.506,1.738 0.565,0 0.377,-2.029 -0.377,0 -0.188,-1.165 -0.941,-0.287 0,-0.873 0.375,-1.161 0.942,0 1.881,1.743 0.189,-0.873 -0.566,-0.87 -0.564,0 0,-0.583 2.824,0.873 0,2.612 0.754,1.743 1.317,0.869 0.94,0 0.188,-0.578 1.129,-0.291 2.823,0 0.942,-2.034 0.565,0 0,-0.869 -0.188,-0.582 -1.131,0 0,-0.578 -0.377,0 0,-2.616 1.883,0 0,-2.903 0.942,0 0.188,-1.743 0.94,0 0.942,1.161 0.188,2.325 1.317,0 -0.188,-0.873 -0.753,-0.579 0,-1.16 0.753,-1.456 1.316,-0.288 z m -132.895,11.035 0.941,0.578 -0.941,1.164 -1.13,0 -0.566,0.869 -0.94,0 0,-0.582 -1.317,0.291 0.188,-1.16 0.566,0 0.94,-1.16 2.259,0 z m 140.235,3.194 0.754,1.451 -0.188,1.16 -0.565,0.291 -0.563,-0.582 -0.754,0.582 -0.376,-1.16 0.753,-1.451 0.939,-0.291 z m -49.129,14.801 1.883,1.164 0,1.451 -3.202,0 0,-0.582 -0.563,0 0.377,-2.033 1.505,0 z m 20.142,8.378 1.129,0.04 0,0.873 -0.565,0.578 -0.752,0 -0.942,-1.16 -0.564,0 0,-0.582 1.694,0.251 z"
     class="land"
     title="Alderney"
     id="GG-AL" />
  <path
     d="m 197.837,313.274 0,0.289 1.694,0.291 0.566,0.574 0,1.157 0.752,0.286 0,1.732 0.377,0.289 -0.189,1.443 -0.376,0 -0.377,-0.29 -2.258,0 -0.377,0 -0.189,0.579 1.506,0.289 0,0.864 -2.634,0 0,-0.285 -3.013,-0.289 0,-1.158 1.507,0 0.188,0.29 0.189,-0.575 -0.377,-0.578 -1.695,0.289 0,-0.289 -1.694,-0.29 -0.752,-0.864 0,-1.157 0.94,-0.286 0,-0.289 0.754,0.289 0.375,-1.442 2.072,0 0,-0.289 2.07,0.289 0.376,-0.869 z"
     class="land"
     title="Brecqhou"
     id="GG-BQ" />
  <path
     d="m 74.317,280.392 -0.813,4.331 -3.676,6.234 -5.534,5.46 -4.121,6.554 0,0 -0.868,-1.078 -8.901,0.84 -1.773,-1.978 -3.935,-0.099 -2.128,-1.289 -5.966,-5.935 -0.968,-8.459 0.695,-2.59 0,0 0.189,0.575 0.565,0 1.129,1.443 1.883,0 0,-0.285 1.317,0 0.189,-0.579 1.128,0 0.377,-0.579 1.506,0 0,-0.575 1.694,0 1.129,-0.869 1.129,-3.752 0,-1.734 -0.375,-0.868 -1.319,0.289 0,-0.289 -0.94,0 -0.941,-1.444 -2.071,0 -0.753,-0.579 -0.189,-2.309 2.259,0.289 0.565,0.575 0.941,0 0.377,0.58 0.941,0 0.188,-1.444 0.377,0.289 1.128,-0.289 0.755,2.309 0.564,0.289 0.376,-2.598 0.566,0 0.188,0.579 0.752,0.285 0.189,-1.443 0.753,0 0.187,0.579 0.942,0.289 0,0.29 1.883,0 0,-0.29 0.94,0 0.378,-0.579 1.317,-0.289 0.377,-2.02 0.375,0 0.565,-1.448 0.565,-0.285 0.189,-1.159 -0.377,-0.286 0,-0.869 0.752,0 0.189,-1.154 0.376,0 0,-2.024 -0.376,-0.579 -0.753,0 -0.565,-0.865 -0.753,0 -0.187,0.579 -0.565,0 0,-0.289 -0.941,0 -0.754,-0.87 -0.752,0.29 -0.189,-1.444 0.941,-1.445 0.566,0 0.563,1.445 0.377,0 0.189,0.579 0.565,0 0.563,-1.159 1.883,0.29 0,-1.734 0.754,0 0.187,0.579 0.753,-0.579 0.377,0.869 1.506,0 0.565,1.155 -0.189,1.734 0.753,0 0,0 0.642,4.123 0.42,0.666 0,1.884 1.709,2.076 1.338,-0.024 0.113,4.356 0.425,0.916 1.781,0.06 2.283,3.8 -0.465,1.011 z"
     class="land"
     title="Castel"
     id="GG-CA" />
  <path
     d="m 46.946,317.698 0.271,-1.542 2.825,-0.416 4.619,-2.83 0,0 9.761,-0.785 0,0 0.164,2.164 1.693,0.987 2.177,-0.741 0.887,0.741 -1.048,3.832 -2.097,1.361 2.823,0.372 0.241,0.987 -2.015,0.74 -0.422,2.251 0,0 -0.943,-0.289 -0.752,1.733 -0.377,0 0,0.578 0.565,0.574 -0.188,1.153 -0.188,0.289 -1.317,0 -0.189,-0.289 0,1.158 -0.377,0.574 -0.94,0 -0.377,-0.574 -0.189,0.864 -0.753,0 -0.187,-0.864 -0.377,0.574 -1.13,-0.285 0.376,1.727 0.377,0.29 -0.188,1.442 -0.377,0 -0.375,-0.864 -0.189,0.289 -1.505,-0.289 -0.378,-1.153 -0.753,0 10e-4,-0.289 -2.636,0.289 0,-0.289 -2.258,-0.289 -0.377,-0.864 -2.072,0.864 -0.188,-0.579 -0.94,-0.285 -0.189,-0.578 -1.129,0.863 -0.942,1.442 0,0.579 -0.564,0 0,-0.289 0,0 -0.612,-3.531 -0.725,-0.863 -0.484,-2.842 0.564,-2.101 2.742,-2.472 z"
     class="land"
     title="Forest"
     id="GG-FO" />
  <path
     d="m 155.671,263.317 0.377,0.286 0.189,1.159 0.566,0 0,0.575 -0.566,0.289 0,1.445 0.376,0.289 -0.565,0.869 0.189,1.73 0.752,1.158 1.506,0.865 0.943,3.467 0.94,1.155 0.565,0 0,0.579 -0.377,0.864 -0.565,0 -0.563,1.444 -0.377,0 0.377,2.313 -0.754,-0.29 0,1.154 -0.375,0.58 -0.377,0.289 -1.319,0 -0.188,-0.289 -0.754,0.579 0,0.574 -0.752,0 -0.753,0.869 -0.565,0 -0.564,-0.579 -0.377,-1.443 -0.377,0 0,-1.155 -0.563,-0.289 0.563,-0.579 0,-0.576 -0.375,-0.868 -0.377,0 0,-1.734 0.377,0 0.188,-0.864 0.376,0 0.753,-1.155 -0.376,-0.289 0,-0.869 -0.753,-0.575 -0.565,-2.603 -0.942,-1.733 -1.693,-0.575 0,-1.155 0.375,0 -0.375,-1.158 1.882,-0.865 0,-0.29 2.071,-0.29 0.94,-1.154 1.13,0 0.189,-0.869 z"
     class="land"
     title="Herm"
     id="GG-HM" />
  <path
     d="m 145.507,283.827 0.564,2.019 -0.94,0.29 -0.188,-0.575 -0.188,0.575 -0.564,0 -0.376,-1.154 -0.377,0 0,-0.864 0.188,-0.29 1.881,0 z m 1.695,2.308 0.377,0.579 0.563,0 0.188,1.154 0.752,0.579 -0.187,0.865 -0.566,0.289 -0.565,1.154 -0.752,0.29 0,0.579 -0.565,0 -0.376,0.865 -1.506,-0.29 -0.94,-2.308 0.377,-0.29 -0.188,-1.154 1.317,-1.443 2.071,-0.869 z"
     class="land"
     title="Jethou"
     id="GG-JT" />
  <path
     d="m 81.659,298.471 -1.354,1.721 -0.077,3.148 -5.999,4.096 -0.116,2.077 -3.908,2.489 -5.783,0.123 0,0 -9.761,0.785 0,0 2.487,-5.57 3.025,-4.369 0,0 4.121,-6.554 5.534,-5.46 3.676,-6.234 0.813,-4.331 0,0 1.657,-0.346 0,0 0.677,5.394 3.902,7.222 0.645,4.996 z"
     class="land"
     title="Saint Andrew"
     id="GG-AN" />
  <path
     d="m 66.825,324.819 0.422,-2.251 2.015,-0.74 -0.241,-0.987 -2.823,-0.372 2.097,-1.361 1.048,-3.832 -0.887,-0.741 -2.177,0.741 -1.693,-0.987 -0.164,-2.164 0,0 5.783,-0.123 3.908,-2.489 0.116,-2.077 5.999,-4.096 0.077,-3.148 1.354,-1.721 0,0 1.664,1.483 0.155,2.018 3.87,0 2.438,-0.769 1.47,2.43 0.504,6.292 4.617,3.349 0,0 -0.187,1.154 0.563,0.868 2.071,0.289 -0.376,0.29 0.188,1.728 0.565,0.289 0.189,0.868 0.564,0 -0.189,1.732 0.565,0.864 0.566,0 0.375,2.885 0.942,0.868 0,3.174 -0.566,0.285 -0.375,-1.153 -1.13,-0.289 -0.565,1.731 0,1.443 -0.941,-0.285 -0.377,-0.578 -0.377,0.863 -2.069,0.29 -0.188,0.867 -0.755,0.285 -0.186,0.579 -1.131,0 0,0.289 -1.129,-0.289 0,-1.153 1.129,-0.289 0,-0.864 -0.752,0 0.377,-1.732 -0.189,-1.731 1.318,-1.157 -0.188,-1.154 -0.189,-0.289 -1.506,0.289 0,-0.289 -0.752,0 -0.377,-0.575 -0.753,0 -0.564,-0.578 -0.189,0.289 -0.942,-0.289 -1.694,3.174 -1.317,-0.289 -0.189,0.868 -0.752,0.574 -1.318,0 -1.129,-0.863 -0.565,0 -0.188,0.863 0.565,0.289 0.564,1.153 0,1.158 -0.752,0.574 -0.943,0 -0.187,0.868 -0.753,0.289 -1.129,2.017 -1.883,-0.286 0.189,-1.446 -1.506,-1.152 -0.754,-1.733 0.376,-1.152 -0.376,-1.442 -1.694,0.578 -0.752,-1.157 -0.566,0 -0.188,0.868 -0.941,-0.289 0,-0.29 -0.753,0 0,-0.289 -1.129,0 0,-0.289 -0.754,0 -0.752,0.578 0,-0.578 z"
     class="land"
     title="Saint Martin"
     id="GG-MA" />
  <path
     d="m 97.695,278.626 -1.13,2.599 0,1.733 1.506,1.443 1.13,0 0,0.29 0.564,0 0.377,0.869 0.942,0 0.563,1.443 0,1.444 1.695,2.597 -0.189,0.869 -0.565,0 -0.186,-0.579 -0.755,-0.29 0,1.154 -0.751,0.29 -0.754,-1.733 -0.565,-0.286 -0.753,0.865 -0.753,-0.29 0.188,1.444 1.318,1.158 2.07,0.285 0.566,0.579 0.375,0 0.377,-0.864 0.566,0 0.375,2.308 -0.187,0.289 -1.317,0 -0.378,-0.579 -3.011,0 -0.565,0.579 -0.189,-0.289 -1.317,0 -0.189,0.289 0,0.579 1.129,1.154 0.754,0 1.129,1.443 1.131,0 0,2.597 0.375,1.157 -0.941,0.286 -0.188,-0.575 -1.506,0 -0.188,0.289 -0.189,1.444 0.565,0.864 -0.188,2.596 -0.188,0.868 -0.753,0.29 0.753,2.886 -2.071,0.864 0,0.289 0,0 -4.617,-3.349 -0.504,-6.292 -1.47,-2.43 -2.438,0.769 -3.87,0 -0.155,-2.018 -1.664,-1.483 0,0 -0.461,-0.813 -0.645,-4.996 -3.902,-7.222 -0.677,-5.394 0,0 1.161,-4.601 1.935,-0.94 0,0 4.334,-0.301 0.887,0.618 3.628,-0.249 1.613,1.733 z"
     class="land"
     title="Saint Peter Port"
     id="GG-PP" />
  <path
     d="m 9.035,282.383 0.752,2.308 0.376,4.331 -0.563,1.447 -0.565,0 -0.188,0.575 -0.754,0 -0.752,-2.598 -0.376,-0.29 -0.942,0 -0.376,0.579 -0.753,0 -0.752,-0.869 -0.94,-0.29 -0.188,-1.733 0.752,-0.575 -0.564,-2.022 0.752,-0.29 0.377,0.579 2.069,0.864 0.565,-1.154 0.753,-0.579 1.317,-0.283 z m -7.529,2.597 0.375,1.154 0.565,0 -0.188,1.733 -0.752,0 -0.188,-0.864 -0.943,0 L 0,286.424 0.375,285.27 1.506,284.98 Z m 35.966,44.167 -0.761,-3.508 -2.399,-0.555 -1.599,-1.304 -1.703,-3.439 -1.29,-1.328 -0.838,-1.74 -1.767,0.298 -0.619,0.872 -1.78,-0.1 -0.013,-1.605 -4.128,-2.667 -1.857,2.097 -1.557,3.408 2.37,1.376 2.683,3.289 0,0 -0.377,0.289 -1.129,-0.864 -0.752,0 -1.317,2.018 -0.754,0 -1.129,-0.864 -1.506,1.153 -0.565,0 0,0 -0.891,-2.013 -1.212,-1.348 1.638,-1.997 2.299,-1.174 -0.021,-0.353 -3.388,-3.437 -0.761,0.021 -1.251,-1.051 -0.555,-1.348 0,0 0,-0.289 1.506,-0.29 0.751,1.732 1.506,0 0.377,-1.153 -0.565,0 -0.188,-0.864 1.129,-0.868 0.941,0 0.188,-0.574 0,-0.29 -0.941,0 0,0.29 -0.753,-0.29 0.188,-0.868 0.753,-0.574 -0.188,-1.158 0.188,-0.285 1.694,0.285 0,-0.574 0.752,0 0.377,-0.579 0,-2.307 0.94,-3.176 0,-1.443 -0.94,-2.022 -0.377,-3.465 -2.069,-0.29 -0.188,0.579 -0.565,0 -0.941,-1.444 -1.13,0 -0.189,-0.579 -0.376,0.29 -1.129,-0.29 0.377,-1.443 0.377,0 0.563,-1.154 0.754,0 -0.188,-2.022 0.377,-0.579 0.752,0 0.377,1.158 1.129,0.286 0.753,1.158 0.565,0 0,0 8.455,3.72 0.194,2.732 2.244,4.984 3.561,0.06 1.161,2.613 0.155,5.458 1.548,1.011 2.206,-1.011 1.78,2.435 2.206,0.772 2.129,2.846 1.896,0.119 0.387,1.78 1.896,0 0,0 -0.662,2.524 -2.741,2.473 -0.564,2.101 0.484,2.842 0.726,0.863 0.612,3.531 0,0 -0.565,0 -0.188,-0.575 -1.129,-0.578 0,-0.864 -1.317,0.285 0,0.29 -0.753,0 0,-0.29 -1.318,0.29 -1.129,-1.442 -0.932,0 z"
     class="land"
     title="Saint Pierre du Bois"
     id="GG-SB" />
  <path
     d="m 69.083,252.337 0,-1.734 1.694,0.576 0.565,1.159 0.94,0 0,-0.869 -0.94,-1.155 -0.377,-1.445 0.377,-0.58 1.129,0.29 0.189,-0.579 0.94,0 0.753,0.869 0.752,0 0.376,0.865 0.378,-0.29 0,-1.444 0.752,-0.29 0.377,1.159 0.94,0.29 0,0.865 0.565,0.29 0.188,0.865 0.188,-0.29 1.883,0.29 0.752,-1.445 -0.377,-2.889 0.754,-0.58 0.94,0 0,0.29 2.823,0.58 0.192,0.865 -0.564,1.159 -0.377,0 0,0 -2.632,4.441 -1.186,0.631 0.048,0.706 -1.33,0.631 -1.137,1.853 -2.096,0.266 -0.806,0.924 -2.721,-2.163 -1.108,-0.31 -1.31,-2.167 -1.534,-1.634 z m 28.612,26.289 -8.164,-2.32 -1.613,-1.733 -3.628,0.25 -0.887,-0.619 -4.334,0.302 0,0 1.129,-1.583 -0.129,-5.447 -0.419,-1.04 -1.419,0 -0.774,-0.742 -0.129,-3.265 -0.903,-2.127 2,-1.687 2.645,-1.333 3.837,-0.893 2.247,-3.766 0,0 0,-0.286 0.942,0 0.563,0.865 0.377,0 0.565,1.444 1.317,0.29 0,0 1.773,1.028 0.871,1.04 0.403,2.103 1.322,-1.262 0.967,-0.052 1.096,1.583 1.871,0.794 1.742,-0.024 1.338,1.238 2.886,-0.075 0.983,1.758 3.005,0.536 0,0 0,0.579 0.753,0.869 1.129,0.286 0.754,-0.575 0.752,0.575 -0.189,0.579 0.566,0.29 0.375,1.155 -0.751,0.29 0,1.155 -0.94,0.29 0,0.579 0.188,0.286 1.315,0 0.566,-0.575 -0.377,1.733 -1.503,0.29 -0.188,-0.579 -0.754,0 0,-0.29 -2.069,0 -0.565,0.869 -0.565,0 -0.188,0.575 -2.258,-0.29 -0.188,0.58 -0.754,0 0,0.29 -0.94,-0.58 0,0.869 0.377,0 -0.377,0.575 -0.754,-0.575 -0.186,1.154 -0.566,0 -0.188,0.579 -0.94,0.286 0,-0.865 -0.565,0 -0.377,1.154 -0.752,0 -0.188,1.154 -0.565,0 0,1.733 -0.568,0.578 z"
     class="land"
     title="Saint Sampson"
     id="GG-SM" />
  <path
     d="m 54.661,312.91 -4.619,2.83 -2.825,0.416 -0.271,1.542 0,0 -1.896,0 -0.387,-1.78 -1.896,-0.119 -2.129,-2.846 -2.205,-0.772 -1.781,-2.435 -2.205,1.011 -1.549,-1.011 -0.154,-5.458 -1.161,-2.613 -3.561,-0.06 -2.244,-4.984 -0.194,-2.732 -8.454,-3.719 0,0 3.764,-2.887 -0.189,-0.869 -1.506,-1.154 -0.563,0 0,-1.154 1.317,0 0.188,-0.579 0.564,0 0.189,1.443 0.377,0 0.563,0.865 0,0.869 0.566,0.579 0.942,-1.448 1.129,0 0.188,0.579 1.129,0.29 0.377,1.154 2.446,0.579 0.189,-0.579 0.565,0 0.564,-1.154 0.754,-0.29 0.752,-1.154 -0.94,-1.443 0,-1.734 0.565,-0.868 0.94,0.289 0,0.29 0.565,-0.29 0.189,-0.575 -0.566,-0.579 0.189,-1.154 1.129,0.285 0.753,-1.154 0.753,0 0.188,0.579 0.942,0 -0.565,2.023 0.564,0 0.565,-0.869 0.189,0.579 0.751,0.29 0,0.575 -1.317,0.869 0,0 -0.695,2.59 0.968,8.459 5.966,5.935 2.128,1.289 3.935,0.099 1.773,1.978 8.901,-0.84 0.868,1.078 0,0 -3.025,4.369 z"
     class="land"
     title="Saint Saviour"
     id="GG-SV" />
  <path
     d="m 209.695,295.375 2.071,3.176 0,0.579 0.566,0 0.375,0.579 0,0.864 0.754,0.579 0.376,0 -0.188,-1.732 0.563,-0.29 0.377,0.868 -0.188,2.018 0.377,0.579 1.317,0.29 0,0.289 0.753,-0.289 0.188,0.575 3.011,0.868 0.188,1.154 0.752,0.29 -0.188,0.579 -0.564,0 0.564,3.46 0.942,-0.285 0,0.575 -0.754,0.578 0.188,0.29 2.447,-0.29 1.13,0.864 0.94,0 0.565,2.312 0.563,0.289 0.377,1.442 0.942,0.286 0.187,3.174 -1.317,0.29 -0.188,1.157 0.565,0.574 -0.188,0.868 -1.317,0 -1.506,1.731 0.377,2.018 -0.565,0.579 -0.753,0.289 -0.375,-2.021 -0.376,0 0,-0.864 -0.566,0 0,-0.289 -0.563,0 -0.754,0.864 -0.188,2.311 -0.375,0.574 -2.448,0 -0.376,-1.442 -1.317,0 -0.377,1.157 0.188,0.864 -0.94,0 -0.377,0.578 0,1.153 -0.566,-0.868 -0.187,0.579 -0.754,0.289 -0.188,0.863 -0.375,-0.285 -0.188,0.864 -0.566,0.289 0,0.574 0,0.29 0,1.731 -1.129,0 -0.565,0.867 -0.188,2.596 0.377,0 0,0.863 0.377,0.289 0.376,2.885 -0.188,0.289 -1.13,-0.289 0,-1.153 -1.317,0.289 -2.258,3.174 -0.565,0 -0.754,-0.864 -1.692,-0.578 -0.188,-1.442 -0.566,-0.867 -0.377,0 -0.752,-1.442 -1.694,-0.289 0,-0.285 -1.317,0.574 -0.188,-1.442 0.376,-0.863 0.752,0 0.188,0.574 0.376,0 0,-0.863 0.564,-0.289 1.507,-2.596 2.447,-2.021 1.317,-0.289 0.188,0.578 0.376,0 0,-2.311 0.564,0 0.377,0.579 1.317,0 0.188,-0.579 0.941,0.29 0.188,-0.579 0.377,0 -0.565,-0.574 -0.941,0 0.377,-0.579 -0.188,-0.863 0.377,-0.289 -0.188,-1.153 -0.753,0 0,-0.29 -0.94,0.29 -0.565,-1.157 -0.564,-0.286 -0.188,-0.867 -1.319,0.289 -0.752,-1.442 -0.751,-0.579 0.186,-1.153 1.317,0.29 0.002,-1.158 -0.565,-0.863 -2.072,0.289 -0.375,-0.868 0,-0.574 2.447,-0.579 -0.189,-0.578 0.566,-0.286 0.752,-1.731 0.942,-0.29 0.375,0.864 1.507,0 0.187,-0.574 0.565,0 -0.377,-1.443 -0.563,-0.289 0.188,-1.153 -0.377,-0.868 0.188,-0.29 1.129,0.29 0.752,-2.887 0.565,0 0.377,0.864 0.376,0 -0.188,-0.864 0.564,-0.289 0,-0.575 -0.752,-0.29 -1.13,-2.022 0.376,-2.022 0.565,-0.575 0,-1.443 -0.565,0 -0.375,-0.868 -0.565,-0.29 0,-3.176 0.751,-0.293 z m 17.884,14.149 0.565,1.153 0.375,0 0,0.575 -0.564,0.579 -0.753,0 -0.752,-0.864 0,-0.579 0.375,-0.864 0.754,0 z m -16.753,37.8 0,0.285 0.752,0 -0.188,1.446 -0.564,1.152 -1.13,0.289 0,-2.599 1.13,-0.573 z"
     class="land"
     title="Sark"
     id="GG-SK" />
  <path
     d="m 14.682,325.973 0,0.29 -1.129,0 -0.565,-0.579 -0.377,0.289 -0.752,0 0,-0.289 -0.377,0.289 -2.258,0 -0.565,-1.442 -0.752,0.289 -0.188,0.864 -0.566,0 -0.188,-1.153 -0.941,-1.442 -0.377,0 -0.188,-0.578 -0.754,0 -0.187,-0.575 -1.129,-0.289 -0.188,-1.732 -1.131,-0.289 0.188,-2.596 -0.563,-1.157 0.189,-1.729 -0.377,-0.289 0,-0.868 0.564,0.578 0.565,0 0,-0.868 0.94,-1.153 0.754,0 0,-0.574 0.94,0 0,1.153 0.565,0.574 0.563,0 0.188,-0.574 1.319,-0.868 0.752,0.868 0.565,0 0,0.574 0.564,0.579 0.753,0 0,0 0.555,1.348 1.251,1.051 0.761,-0.021 3.388,3.437 0.021,0.353 -2.299,1.174 -1.638,1.997 1.212,1.348 0.892,2.01 z m 22.79,3.174 -0.766,0.289 -0.377,-0.579 -1.694,0.29 -0.752,-2.021 -0.565,0 0,0.868 -0.752,0.289 -0.188,-0.868 -0.565,0 -1.129,-1.731 -0.377,0 -0.188,0.579 -0.752,0 -0.376,0.863 -0.941,0 0,-0.285 -1.13,0.285 -0.94,-0.863 -0.188,-1.153 -1.882,0 -0.941,-1.157 -0.753,0.289 0,0 -2.683,-3.289 -2.37,-1.376 1.557,-3.408 1.857,-2.097 4.128,2.667 0.013,1.605 1.78,0.1 0.619,-0.872 1.767,-0.298 0.838,1.74 1.29,1.328 1.703,3.439 1.599,1.304 2.399,0.555 0.759,3.507 z"
     class="land"
     title="Torteval"
     id="GG-TV" />
  <path
     d="m 109.177,263.603 -3.005,-0.536 -0.983,-1.758 -2.886,0.075 -1.338,-1.238 -1.742,0.024 -1.871,-0.794 -1.096,-1.583 -0.967,0.052 -1.322,1.262 -0.403,-2.103 -0.871,-1.04 -1.773,-1.028 0,0 0.376,-2.023 -0.565,-0.29 0,-0.865 0.565,-0.29 0.188,-2.024 -1.13,-0.286 -0.188,-1.158 2.07,-0.576 0.188,-3.179 0.377,-0.869 -1.694,-0.576 0,-0.869 -0.565,0.58 -0.564,0 -0.188,-0.58 -1.13,0.29 -0.187,-0.58 -1.13,-0.286 -0.188,-1.449 0.377,-0.865 2.259,-0.29 1.694,-1.445 0.752,0 0.565,0.58 0.752,-0.58 1.131,0.29 0.375,-1.155 0.565,0 1.317,2.021 0.753,0 0.564,-1.445 0.942,0.29 0,-1.155 0.752,-0.29 0.376,0.58 -0.188,1.735 -0.941,1.155 0,1.155 -0.753,0 -0.188,1.445 0.565,0 0.565,0.869 0.752,0 0.188,-0.869 1.317,0.29 0.565,1.735 1.881,0 0.566,-0.58 0.188,-1.155 1.129,0 0.188,-2.89 0.565,0 0.188,-0.58 0.941,-0.29 0,-0.576 -0.565,-0.29 0,-0.869 0.565,-0.866 0.565,0 0.752,0.866 0.942,0.29 0.188,1.159 0.563,0.576 -0.563,1.445 1.318,-0.29 0,0.29 0.94,0.29 0.188,-0.58 0.375,0 0.377,0.869 0.377,0 0.188,-0.58 0.94,0 0.754,-0.575 0.188,-1.445 1.506,0.286 0.188,1.159 0.563,0.286 -0.563,1.445 0.563,0.58 0,1.155 0.565,0.29 -0.565,2.024 0.188,0.29 0.565,-0.29 0.753,1.445 -0.181,1.154 0.375,0 -0.375,2.024 0.375,1.734 -0.752,1.445 -0.188,2.313 1.129,0 0.188,1.155 -0.941,1.444 -1.694,0 -0.377,-0.29 -0.188,-1.155 -1.505,0.29 0.188,0.865 0.753,0 0.375,0.58 -0.188,0.865 -0.752,0 -0.376,0.58 0.565,2.599 -0.376,2.603 -0.377,0 -0.188,-0.58 -2.258,0.29 -0.377,-0.58 -2.072,0 -0.375,-0.579 -0.943,0 z m 12.613,-19.358 0.188,2.89 -0.752,0 -0.566,-1.155 0,-1.735 1.13,0 z m -34.637,8.378 -2.247,3.766 -3.837,0.893 -2.645,1.333 -2,1.687 0.903,2.127 0.129,3.265 0.774,0.742 1.419,0 0.419,1.04 0.129,5.447 -1.129,1.583 0,0 -1.935,0.94 -1.161,4.601 0,0 -1.657,0.345 0,0 0,-1.963 0.464,-1.011 -2.283,-3.8 -1.78,-0.06 -0.425,-0.917 -0.113,-4.356 -1.338,0.024 -1.709,-2.075 0,-1.884 -0.419,-0.667 -0.643,-4.123 0,0 0.566,-0.579 -0.377,0 -0.377,-0.865 0,-2.023 1.317,0.29 0,-0.29 0.943,0 0,-0.29 0.94,-0.286 -0.377,-0.58 -1.129,0 -0.377,-0.579 -0.563,0 -0.377,-1.155 2.824,-0.865 0,0 1.534,1.635 1.31,2.167 1.108,0.31 2.721,2.163 0.806,-0.924 2.096,-0.266 1.137,-1.853 1.33,-0.631 -0.048,-0.706 1.186,-0.631 2.632,-4.441 0,0 -0.189,2.021 2.448,1.441 z m 35.201,-2.889 0.564,0.58 0.188,1.734 -0.377,0.575 -1.318,-0.286 -0.187,0.576 -0.754,0 0.188,-2.6 0.941,-0.29 0,-0.29 0.755,0 z"
     class="land"
     title="Vale"
     id="GG-VA" />
  <path
     d="m 434.093,593.634 0.121,-6.497 -2.842,-5.812 -2.016,0.678 -3.063,-2.984 -0.585,0.126 -1.351,-1.077 -0.785,0.552 -1.633,-1.66 -0.645,0.801 -1.351,-0.186 -0.362,1.416 -4.717,3.813 -2.076,0.489 -0.282,-0.675 -1.289,0 -1.654,-1.935 0.082,-1.171 -1.936,-0.213 -0.02,-1.14 -0.543,-0.229 0,0 0.758,-0.655 1.226,0.198 0.354,-0.691 0.936,0.249 2.58,-2.315 -0.678,-8.61 0.968,-0.882 -0.129,-0.888 1.226,0.048 0.29,0.934 0.612,0 0.387,-1.033 -0.031,-3.097 -2.033,-3.349 2.742,-0.737 0.064,-0.935 3.257,0.493 4.87,-2.218 4.74,1.429 0.226,0.737 0.806,-0.145 1.651,-2.21 0,0 3.025,0.781 1.516,-0.493 0.871,1.133 1.354,-0.147 0.29,-0.887 0.839,-0.099 0.387,1.527 -0.839,2.805 1.097,0.347 0.337,0.816 0,0 -1.876,2.584 -1.129,5.459 -0.376,-0.288 -0.565,1.147 0.752,0.289 -0.564,4.882 2.636,14.644 1.128,1.723 0.566,0 0.377,1.147 -1.131,0.859 -0.375,1.723 -1.131,-0.859 -0.376,1.434 -0.941,-0.575 -0.941,1.723 -1.317,0 z"
     class="land"
     title="Grouville"
     id="JE-GR" />
  <path
     d="m 351.816,573.249 -0.753,1.72 -1.506,0 -0.563,-1.147 0,-0.86 2.822,0.287 z m -2.823,10.911 0,-1.151 -0.754,-0.859 -1.129,0.287 -0.377,-0.863 -0.565,0.288 0.188,-0.859 -1.129,-0.863 1.129,-2.583 0,-1.147 -1.129,-1.151 0.188,-1.436 0.377,-1.436 1.506,-0.288 -1.883,-3.159 0,-1.147 0.565,-1.436 0.94,-0.288 0.564,-1.724 3.563,-1.724 0,0 -0.189,-1.282 -0.774,0.296 -2.128,-0.592 -2.128,-1.534 -7.353,-0.884 -1.045,-0.888 -4.45,-0.236 -0.426,-0.532 0.232,-1.594 -0.658,-0.237 -2.593,1.243 -2.051,-0.77 -1.083,-1.238 -2.709,0.177 -0.696,-0.592 -2.128,-0.059 -0.658,0.592 -1.586,-0.296 -2.438,-1.594 -4.18,2.478 -4.426,1.389 0,0 -0.188,1.846 -1.506,0.576 -0.376,3.159 0.376,0.86 -0.94,-0.288 0.752,1.151 -1.318,0 0.189,3.16 -0.752,1.436 -1.131,0.283 -0.563,-0.571 -0.377,1.436 -1.317,-0.576 -0.565,0.864 -1.694,-0.864 0,1.724 1.319,2.299 -2.825,0 -1.317,2.296 -1.883,0.575 0.377,1.724 1.506,0 0.751,2.011 1.131,1.147 0.565,0 1.506,-2.299 0.94,2.299 0.94,0.859 0.942,0 0.376,1.436 4.518,1.436 0.187,0.575 2.071,-0.859 0.188,-0.576 2.446,-0.287 1.131,-1.724 1.129,-0.571 1.317,0 0.754,2.007 1.129,0 0,-1.436 0.752,-0.287 0.188,-1.147 0.942,-0.86 0.565,0 0.375,1.147 1.129,0 0.188,-2.87 0.566,-0.863 1.317,0.287 0.377,-1.147 -0.753,-2.299 0.565,0 0.188,-0.859 1.694,0 4.329,1.723 0.566,2.583 2.069,-0.287 1.883,4.021 -0.565,0.859 -2.258,0.288 -0.188,1.436 0.563,0.575 -1.317,0 0.188,0.859 0.94,0.288 0.566,1.723 -1.318,1.147 0.377,2.299 2.071,0.571 0.563,-1.147 0.754,0 1.317,0.576 0,-0.863 1.129,-0.86 0.376,-1.435 2.823,0.288 1.13,2.582 1.882,0 -0.188,1.147 -1.129,0 0.188,1.15 1.129,0.284 0.565,1.151 1.694,0 1.506,-1.436 0.752,-2.298 1.317,0.288 0.002,-0.863 -0.565,-0.284 0.565,-2.299 -0.754,-2.298 0.57,-0.286 z"
     class="land"
     title="Saint Brelade"
     id="JE-BR" />
  <path
     d="m 427.299,609.99 0.565,0.863 -0.377,1.147 -0.565,-0.859 -2.258,0 0,-0.862 2.635,-0.289 z m -31.814,-28.129 1.884,2.87 1.505,0.576 3.014,4.305 0.375,1.436 2.26,1.723 0.753,1.723 2.634,1.723 1.131,-0.288 0.188,-0.571 1.506,0 0.375,0.859 0.942,0 1.881,-3.733 3.954,-0.284 3.2,-2.01 0.376,-0.863 3.576,0 3.014,0.863 6.04,3.445 0,0 0.121,-6.497 -2.842,-5.812 -2.016,0.678 -3.063,-2.984 -0.585,0.126 -1.351,-1.076 -0.785,0.552 -1.633,-1.66 -0.646,0.801 -1.351,-0.186 -0.362,1.416 -4.717,3.813 -2.076,0.489 -0.282,-0.675 -1.289,0 -1.653,-1.936 0.081,-1.171 -1.936,-0.213 -0.02,-1.14 -0.544,-0.229 0,0 -4.032,0.568 0.223,1.353 -1.29,0.122 -1.371,1.475 -2.237,-0.091 -0.987,-0.706 -0.021,-0.863 -1.169,-0.182 -2.257,1.565 -0.179,0.69 0,0 0.532,0 1.129,0 z"
     class="land"
     title="Saint Clement"
     id="JE-CL" />
  <path
     d="m 376.286,580.426 0.189,1.436 -0.565,0.863 -1.318,0 0,0.859 -1.694,-0.287 0.376,-1.724 0.752,0 0.753,-2.007 0.941,-0.863 1.131,0 -0.565,1.723 z m 0.566,3.158 0,1.436 -0.754,-0.575 -0.752,0.287 0.375,1.151 -1.881,-0.863 0,-0.575 3.012,-0.861 z m -8.66,-22.111 3.388,1.724 0.752,1.436 1.13,0.288 0.564,0.859 1.13,0 1.695,2.012 2.446,1.147 0.94,3.735 -1.317,1.723 -0.565,2.296 0.188,2.586 1.13,1.724 0,1.147 1.505,-0.863 0.564,0.575 -0.188,0.863 -1.129,0.572 0,0.863 1.317,0 0.188,1.147 -2.258,-0.288 0,0.863 1.129,2.582 2.071,2.583 1.881,0.287 0.188,-0.859 -2.823,-1.435 -1.317,-2.874 3.2,0.863 0.565,1.723 2.07,-0.575 -0.565,1.435 0.565,0.288 0.754,-1.723 0.375,-5.169 0.565,-0.859 3.388,0 0.188,-0.576 1.734,0.288 0,0 -0.816,-4.921 1.2,-0.06 0.387,0.532 0.426,-1.005 1.316,0.059 0.387,-4.133 -0.658,-0.828 0.31,-0.883 0.929,-0.414 0.116,-1.298 -1.393,-1.006 -2.399,1.065 -1.084,-2.304 -0.039,-2.896 1.277,-1.593 1.277,-4.43 0.89,0.059 2.516,-3.72 2.438,-1.239 1.238,-2.836 0,0 -1.083,-0.06 -1.2,-2.951 -2.399,0.059 -1.006,0.588 -2.128,-0.942 -1.083,0.942 -2.631,-0.232 0.077,1.062 -0.929,0.355 0,1.298 -3.638,-2.186 -0.155,-1.121 0.89,-0.71 -1.471,-0.884 -1.703,0.646 -0.658,-4.604 -0.658,-1.949 -0.956,-0.324 0,0 -3.533,-0.623 0.116,0.888 0,0 -1.78,3.248 0.077,5.966 -1.471,-0.296 -0.851,-1.949 -0.697,-0.178 -0.813,4.431 -3.328,-0.71 0.348,4.135 -0.658,-0.178 -0.735,0.71 -0.155,5.137 -1.392,1.894 1.837,0 z"
     class="land"
     title="Saint Helier"
     id="JE-HE" />
  <path
     d="m 381.23,538.999 -3.533,-0.623 0.116,0.888 0,0 0,0 0,0 -0.447,-1.539 1.331,-4.369 -1.089,-5.416 0.484,-3.259 -0.685,-1.417 -2.419,-0.186 -2.983,-1.354 -2.298,0.245 -3.91,-0.861 -2.661,1.046 -0.161,-0.616 -3.467,-1.291 -1.733,0.123 0.25,-0.6 0,0 1.403,-1.678 -0.484,-1.477 -1.21,-0.371 -1.733,-2.215 -1.25,0.245 -3.99,3.632 -0.041,-2.771 1.129,-2.093 0.686,0.186 0.725,-0.616 1.048,-1.785 -0.04,-1.295 0.726,0.249 0.483,-0.738 -0.564,-2.713 -1.774,-1.047 -1.169,0.616 -0.725,-0.738 -2.137,-0.494 -0.645,-1.784 -4.192,-1.107 -0.738,-0.864 0,0 0.377,-1.232 1.129,-0.288 0.565,-1.438 1.129,-0.861 4.33,0 -0.755,-2.875 0.378,-1.727 0.753,0 0.564,1.438 1.883,1.438 0.565,-0.577 0.565,0.288 0.752,-0.86 0,-1.154 0.754,-0.285 0.563,1.439 0.943,0 0,0.86 2.635,0.865 0.565,2.875 1.317,0 0.189,0.574 0.94,0 0.566,0.864 2.446,1.149 2.637,0 2.446,-0.86 2.823,1.148 0.754,-0.86 1.881,-0.577 1.506,1.437 -0.188,2.299 0.565,0.576 2.823,0.578 1.694,-2.303 2.26,2.303 0.906,0 0,0 0.046,1.247 -0.927,0.987 -1.491,0 0.08,0.861 -0.604,0.064 0,2.091 0.524,0.74 -0.242,2.83 -1.048,0.308 0.242,1.11 -0.807,0.982 1.25,0.309 0.323,1.602 0.282,-1.417 1.048,0.739 0.323,2.586 -0.928,0.86 0.484,4.125 -0.605,0.802 0.202,2.83 1.653,3.938 -0.766,1.91 0.564,2.463 -1.693,0.739 -2.338,0.122 z"
     class="land"
     title="Saint John"
     id="JE-JO" />
  <path
     d="m 377.813,539.264 -1.78,3.248 0.077,5.966 -1.47,-0.296 -0.851,-1.95 -0.697,-0.177 -0.813,4.43 -3.328,-0.71 0.348,4.135 -0.657,-0.178 -0.736,0.71 -0.155,5.137 -1.391,1.894 0,0 -2.874,-0.288 -0.377,-0.573 -2.823,0.284 -0.752,-0.572 -0.943,0.572 -1.317,-0.284 -2.619,0.573 0,0 -0.972,-9.271 -1.128,-0.924 -0.323,-1.23 -2.419,-1.354 -0.161,-1.172 1.653,-2.15 0.444,-2.154 -1.25,-6.894 0.483,-1.105 3.306,-0.679 0.524,-0.738 0.081,-0.493 -1.33,-0.06 -0.544,-1.267 0,0 2.532,-1.014 -0.282,-1.725 -1.189,-0.371 -0.182,-0.892 0.988,-2.091 0.585,-3.754 2.554,-2.077 0,0 -0.25,0.6 1.733,-0.123 3.467,1.291 0.161,0.616 2.661,-1.046 3.91,0.861 2.298,-0.245 2.983,1.354 2.419,0.186 0.685,1.417 -0.484,3.259 1.089,5.416 -1.331,4.369 z"
     class="land"
     title="Saint Lawrence"
     id="JE-LA" />
  <path
     d="m 507.487,461.132 1.317,2.877 -3.011,-1.438 0.188,-1.154 1.506,-0.285 z m 1.695,4.892 0.377,2.589 1.129,2.3 -1.883,1.442 -0.187,-6.047 0.564,-0.284 z m -64.001,92.289 0.188,0.864 -1.317,0.859 0.377,1.148 0.564,0 0.941,-1.724 2.07,-0.572 0.564,-4.884 -1.129,-1.148 -1.694,0 -0.753,-0.575 -0.188,-1.725 1.505,-1.724 0,-0.86 -0.753,-0.288 -1.506,0.572 -0.752,-0.572 0.752,-2.873 -1.694,-0.287 -0.752,-2.873 -1.317,-0.864 -0.565,-2.585 1.128,0 0.566,-1.148 0.752,0.284 0.188,-1.437 -0.563,-0.572 1.506,-0.864 0.375,-0.572 2.071,-0.288 -0.188,-0.864 0.941,-0.572 3.201,1.437 0.563,0.86 2.636,0.288 0,-0.576 -2.447,-0.86 -0.565,-0.864 -3.011,-1.437 -0.753,0.288 -1.883,-1.725 -0.377,-3.45 -1.129,-0.86 0,-0.86 1.129,-0.864 -0.188,-0.861 -1.881,-0.576 -2.071,1.438 -0.188,-0.861 -0.941,0 -2.447,-2.013 -1.694,0.576 -0.375,-1.44 -3.577,0 -0.377,-0.995 0,0 -3.998,1.571 -0.813,-0.589 -2.902,0.885 -4.644,-0.943 -1.238,1.891 -1.394,5.969 -2.012,0.292 0.176,3.225 0,0 0.521,0.265 0.039,1.121 3.676,1.771 0.232,3.43 -1.818,3.248 0.541,2.481 3.754,0.884 0.852,1.771 -1.509,1.599 -2.594,0.646 -1.47,1.065 0.193,1.89 8.281,0.411 1.741,-1.357 1.974,-0.296 1.587,1.538 2.244,0.766 0.427,1.909 0,0 3.025,0.781 1.516,-0.493 0.871,1.133 1.354,-0.146 0.29,-0.888 0.839,-0.099 0.387,1.527 -0.839,2.805 1.097,0.347 0.337,0.816 0,0 0.572,-0.859 1.317,0.284 0.377,-0.572 2.069,-0.58 z"
     class="land"
     title="Saint Martin"
     id="JE-MT" />
  <path
     d="m 358.025,519.77 -2.554,2.077 -0.585,3.754 -0.988,2.091 0.182,0.892 1.189,0.371 0.282,1.725 -2.532,1.014 0,0 -1.107,-0.943 -1.79,0.296 -1.967,1.354 -0.016,1.306 -1.532,-0.517 -1.338,1.232 -0.613,-0.249 -0.823,-3.173 -1.289,0.517 -1.613,-0.296 -0.403,-3.028 0.451,-0.098 -0.064,-0.888 -0.581,-0.983 -1.418,-0.395 -0.065,-2.02 -1.984,-2.255 0,0 0.727,-0.652 0,-0.785 -0.936,-0.643 0.677,-2.262 -2.741,-1.086 -1.967,0.149 -2.709,-1.823 -1.87,-0.197 -3.58,-3.005 -1.15,-2.941 0,0 1.768,-1.438 2.071,0.86 -0.377,-0.86 0.752,-0.288 0.189,-0.865 1.13,0 0.941,1.153 1.881,0 0.754,-1.153 0.942,0 0.564,1.153 1.317,0 0.188,-0.865 0.942,0 0.941,-1.438 3.389,0.578 0,-1.438 0.752,-1.153 2.071,-1.643 0,0 0.738,0.864 4.192,1.107 0.645,1.784 2.137,0.494 0.725,0.738 1.169,-0.616 1.774,1.047 0.564,2.713 -0.483,0.738 -0.726,-0.249 0.04,1.295 -1.048,1.785 -0.725,0.616 -0.686,-0.186 -1.129,2.093 0.041,2.771 3.99,-3.632 1.25,-0.245 1.733,2.215 1.21,0.371 0.484,1.477 z"
     class="land"
     title="Saint Mary"
     id="JE-MY" />
  <path
     d="m 336.867,521.554 -3.209,0.896 -0.064,1.034 -1.71,1.97 -1.418,0.052 -0.516,1.429 -0.613,-0.099 0.871,6.548 -0.742,0.541 0,1.132 -1.742,2.561 -2.612,1.721 -0.387,1.527 -4.289,0.493 -3.902,2.905 -1.355,-0.789 -0.096,-1.82 -1.064,-1.673 -8.322,1.298 0,0 -0.941,-6.527 -1.694,-2.873 -0.753,-0.288 -0.376,-2.013 -0.754,-0.86 0.188,-0.865 -1.505,-1.149 -0.941,-2.013 -0.754,0 -0.375,-1.724 -1.319,-1.15 0,-2.586 -0.752,-1.148 -2.26,-1.152 -0.186,-1.15 -1.883,0.288 -0.754,1.438 -1.694,-0.288 0.377,-2.298 -0.754,0 -0.187,-0.865 0.941,-0.861 0,-0.864 -1.506,-2.014 0.188,-0.861 -1.317,-2.586 0.376,-4.316 0.564,-0.862 1.318,-0.288 0,-1.149 2.071,-1.438 0.941,-2.301 4.14,0 1.508,1.152 -0.189,0.573 1.506,0 0.752,0.865 2.071,0.285 0.189,-0.574 0.94,0 0.377,-3.74 1.129,0 0.566,-1.149 1.317,-0.288 0.189,2.876 3.011,1.152 0.753,1.438 3.953,1.438 0.752,0.86 1.131,-0.572 0.94,0.86 0.566,1.727 1.882,0 0.375,1.726 2.261,1.437 0.188,1.148 1.055,0.578 0,0 1.15,2.941 3.58,3.005 1.87,0.197 2.709,1.823 1.967,-0.149 2.741,1.086 -0.677,2.262 0.936,0.643 0,0.785 z"
     class="land"
     title="Saint Ouen"
     id="JE-OU" />
  <path
     d="m 354.655,561.185 -3.607,1.435 0,0 -0.189,-1.282 -0.774,0.296 -2.128,-0.592 -2.129,-1.534 -7.352,-0.884 -1.045,-0.888 -4.451,-0.236 -0.425,-0.532 0.232,-1.594 -0.658,-0.237 -2.593,1.243 -2.051,-0.77 -1.084,-1.238 -2.709,0.177 -0.696,-0.592 -2.128,-0.059 -0.659,0.592 -1.586,-0.296 -2.438,-1.593 -4.18,2.477 -4.425,1.389 0,0 -0.189,-1.314 0.754,-0.288 0,-2.872 -0.754,-2.585 0.377,-1.723 -0.377,0 -0.752,-4.885 -0.942,-0.576 0,-0.944 0,0 8.322,-1.298 1.064,1.673 0.096,1.82 1.355,0.789 3.902,-2.905 4.289,-0.493 0.387,-1.527 2.612,-1.721 1.742,-2.561 0,-1.132 0.742,-0.541 -0.871,-6.548 0.613,0.099 0.516,-1.429 1.418,-0.052 1.71,-1.97 0.064,-1.034 3.209,-0.896 0,0 1.984,2.255 0.065,2.02 1.418,0.395 0.581,0.983 0.064,0.888 -0.451,0.098 0.403,3.028 1.613,0.296 1.289,-0.517 0.823,3.173 0.613,0.249 1.338,-1.232 1.532,0.517 0.016,-1.306 1.967,-1.354 1.79,-0.296 1.107,0.943 0,0 0.544,1.267 1.33,0.06 -0.081,0.493 -0.524,0.738 -3.306,0.679 -0.483,1.105 1.25,6.894 -0.444,2.154 -1.653,2.15 0.161,1.172 2.419,1.354 0.323,1.23 1.128,0.924 z"
     class="land"
     title="Saint Peter"
     id="JE-PE" />
  <path
     d="m 393.645,581.861 -0.816,-4.921 1.199,-0.059 0.387,0.532 0.426,-1.005 1.316,0.059 0.386,-4.133 -0.657,-0.828 0.309,-0.883 0.929,-0.414 0.116,-1.298 -1.393,-1.006 -2.399,1.066 -1.084,-2.304 -0.039,-2.896 1.278,-1.592 1.276,-4.43 0.891,0.059 2.515,-3.72 2.438,-1.239 1.238,-2.836 0,0 0.221,-1.965 -1.453,-1.417 0.404,-2.951 -0.686,-0.371 0.847,-0.553 2.379,0.123 1.008,-1.295 1.612,0.801 0.927,-1.847 2.58,-1.045 0.403,-3.69 0.766,-1.05 -0.766,-0.553 0.201,-0.86 1.573,0 0.322,-1.725 0.998,-0.505 0,0 0.52,0.265 0.039,1.121 3.676,1.772 0.233,3.429 -1.819,3.248 0.541,2.482 3.754,0.884 0.852,1.771 -1.509,1.599 -2.594,0.646 -1.469,1.066 0.193,1.889 8.281,0.411 1.741,-1.357 1.974,-0.296 1.587,1.538 2.244,0.766 0.427,1.909 0,0 -1.651,2.21 -0.806,0.145 -0.226,-0.737 -4.74,-1.429 -4.87,2.218 -3.257,-0.493 -0.064,0.935 -2.742,0.737 2.033,3.349 0.031,3.097 -0.387,1.033 -0.612,0 -0.29,-0.934 -1.226,-0.048 0.129,0.888 -0.968,0.882 0.678,8.61 -2.58,2.315 -0.936,-0.249 -0.354,0.691 -1.226,-0.198 -0.758,0.655 0,0 -4.033,0.568 0.223,1.353 -1.29,0.122 -1.371,1.474 -2.237,-0.091 -0.988,-0.706 -0.02,-0.863 -1.169,-0.182 -2.258,1.566 -0.178,0.69 0,0 z"
     class="land"
     title="Saint Saviour"
     id="JE-SA" />
  <path
     d="m 413.297,531.11 -0.998,0.505 -0.322,1.725 -1.573,0 -0.201,0.86 0.766,0.553 -0.766,1.05 -0.403,3.69 -2.58,1.045 -0.927,1.847 -1.612,-0.801 -1.008,1.295 -2.379,-0.123 -0.847,0.553 0.686,0.371 -0.404,2.951 1.453,1.417 -0.221,1.965 0,0 -1.083,-0.06 -1.2,-2.951 -2.4,0.059 -1.006,0.587 -2.128,-0.942 -1.083,0.942 -2.632,-0.232 0.077,1.062 -0.928,0.355 0,1.298 -3.638,-2.186 -0.155,-1.121 0.89,-0.71 -1.47,-0.884 -1.703,0.647 -0.658,-4.605 -0.657,-1.949 -0.957,-0.324 0,0 1.135,-1.025 2.338,-0.122 1.693,-0.739 -0.564,-2.463 0.766,-1.91 -1.653,-3.938 -0.202,-2.83 0.605,-0.802 -0.484,-4.125 0.928,-0.86 -0.323,-2.586 -1.048,-0.739 -0.282,1.417 -0.323,-1.602 -1.25,-0.309 0.807,-0.982 -0.242,-1.11 1.048,-0.308 0.242,-2.83 -0.524,-0.74 0,-2.091 0.604,-0.064 -0.08,-0.861 1.491,0 0.927,-0.987 -0.046,-1.247 0,0 1.54,-0.29 0.565,-1.436 -0.376,-2.303 0.94,0 0.377,-1.149 7.153,0.865 1.13,0.86 -0.188,1.438 0.565,0.577 0.375,2.586 1.319,0.577 0.941,-0.577 1.506,1.726 -0.377,2.298 0.942,0.865 0,1.149 1.129,0.864 0,1.438 0.753,0.572 -0.565,1.437 0.375,1.153 1.883,-0.864 0.754,1.436 2.635,1.153 1.506,0 0.565,-0.865 1.506,-0.288 0,-1.436 2.069,0.576 0.377,-1.15 2.449,0.285 1.505,-0.861 0.564,-1.436 1.317,0.288 0.189,-1.438 1.506,0.284 -0.189,-1.148 1.32,-0.861 0.375,1.437 1.13,0.572 1.129,2.302 1.695,-0.86 1.505,0.572 0.189,1.149 -0.754,2.168 0,0 -3.998,1.571 -0.813,-0.589 -2.903,0.885 -4.643,-0.944 -1.239,1.891 -1.393,5.969 -2.012,0.292 z"
     class="land"
     title="Trinity"
     id="JE-TR" />
</svg>
