<?xml version="1.0" encoding="UTF-8" standalone="no"?>
<svg
   xmlns:dc="http://purl.org/dc/elements/1.1/"
   xmlns:cc="http://creativecommons.org/ns#"
   xmlns:rdf="http://www.w3.org/1999/02/22-rdf-syntax-ns#"
   xmlns:svg="http://www.w3.org/2000/svg"
   xmlns:mapsvg="http://mapsvg.com"
   xmlns="http://www.w3.org/2000/svg"
   height="792.52264"
   width="600.28125"
   mapsvg:geoViewBox="30.790695 -25.718696 32.136770 -27.317645"
   id="svg2"
   version="1.1">

    <path
       
       d="m 357.968,54.455 4.152,2.9 0.049,-0.058 52.074,35.873 17.608,12.133 0.013,0.01 2.372,1.628 -1.778,1.465 -2.705,6.306 -1.894,2.063 -25.139,-1.378 -2.317,-0.73 -3.624,-1.854 -1.771,-1.509 -2.394,-0.473 -2.54,2.28 0.386,22.823 0.218,12.265 0.097,2.35 1.132,15.701 1.47,9.287 1.341,10.003 1.851,16.769 -1.239,16.718 -15.918,3.956 -3.866,0.504 -1.44,0.182 -7.837,0.328 -2.161,-1.218 -2.431,-0.783 -10.032,-0.15 -2.59,0.553 -12.888,4.894 -0.534,2.088 0.069,0.094 2.615,3.522 0.04,7.21 -16.327,21.941 -1.697,1.042 -8.927,1.808 -1.768,-1.372 -0.338,-2.859 -2.737,0.417 -3.665,1.577 -2.563,1.461 -12.972,8.794 -5.216,6.704 0.085,0.641 -9.129,1.996 -6.684,-3.822 -7.273,-2.669 -3.083,3.067 -0.78,1.442 -0.558,1.237 0.086,1.504 0.03,0.538 -4.901,6.784 -11.674,2.794 -13.668,4.383 -4.849,2.747 -0.744,0.731 -1.542,2.487 -1.277,4.753 -5.632,21.561 -2.722,19.299 0.411,5.573 -3.881,16.204 -8.803,-1.639 -16.394,-6.179 -7.411,-0.904 -6.994,0.079 -1.957,-0.443 -16.487,-5.634 -4.456,1.844 -1.541,0.612 -2.711,0.273 -13.058,-2.882 -11.89,-22.993 -37.016,-20.074 -15.293,-7.594 -2.433,-0.843 -7.567,-4.936 -1.592,-3.519 -0.08,0.086 -0.99,-1.666 7.282,-6.901 0.027,-0.025 0.022,-0.021 1.709,-1.619 1.333,-1.263 2.344,-2.216 15.636,-14.778 3.085,-5.941 5.606,-11.144 0.459,-0.914 1.93,-3.778 1.303,-2.551 0.584,-1.145 0.934,-1.872 1.1,-2.199 1.101,-2.193 0.474,-0.946 0.627,-1.252 1.226,-2.436 1.22,-2.435 0.065,-0.13 1.161,-2.304 1.221,-2.435 1.225,-2.431 2.443,-4.868 0.33,-0.647 0.329,-0.643 0.325,-0.641 0.33,-0.642 0.325,-0.646 0.33,-0.643 0.326,-0.642 0.33,-0.641 0.329,-0.647 0.325,-0.643 6.721,-13.156 3.755,-7.306 4.521,-8.794 4.803,-9.346 0.659,-1.624 0.665,-1.623 0.66,-1.623 0.464,-1.138 0.863,-2.109 0.66,-1.623 0.664,-1.623 0.659,-1.622 0.664,-1.623 0.662,-1.628 1.565,-3.828 0.09,-0.222 0.021,-0.017 0.149,-0.126 0.008,-0.099 0.259,-0.484 0.321,-0.596 0.143,-0.277 0.209,-0.537 0.196,-0.336 0.134,-0.222 0.173,-0.379 0.232,-0.424 0.13,-0.321 0.222,-0.39 0.531,-1.089 0.125,-0.232 0.067,-0.178 0.387,-0.769 0.067,-0.183 0.263,-0.503 0.263,-0.528 0.133,-0.295 0.352,-0.715 0.179,-0.345 0.262,-0.548 0.125,-0.257 0.25,-0.532 0.276,-0.532 0.165,-0.316 0.138,-0.281 0.143,-0.35 0.147,-0.251 0.218,-0.632 0.165,-0.326 0.21,-0.463 0.134,-0.336 0.383,-0.798 0.125,-0.286 0.044,-0.188 0.129,-0.232 0.352,-0.719 0.129,-0.296 0.103,-0.222 0.143,-0.341 0.321,-0.71 0.258,-0.542 0.067,-0.212 0.143,-0.256 0.284,-0.632 0.147,-0.26 0.068,-0.237 0.133,-0.257 0.379,-0.798 0.026,-0.055 0.152,-0.315 0.129,-0.286 0.031,-0.252 0.072,-0.34 0.06,-0.298 0.078,-0.387 0.04,-0.202 0.072,-0.272 0.097,-0.537 0.027,-0.167 0.152,-0.597 0.076,-0.346 0.035,-0.221 0.036,-0.168 0.048,-0.29 0.085,-0.449 0.058,-0.36 0.036,-0.055 0.071,-0.118 0.04,-0.271 0.04,-0.276 0.018,-0.193 0.117,-0.685 0.084,-0.339 0.053,-0.321 0.054,-0.262 0.08,-0.266 0.116,-0.72 0.04,-0.196 0.08,-0.281 0.005,-0.242 0.084,-0.252 0.143,-0.798 0.018,-0.168 0.121,-0.316 0.022,-0.202 0.084,-0.354 0.093,-0.562 0.113,-0.553 0.044,-0.28 0.085,-0.306 0.075,-0.444 0.12,-0.517 0.076,-0.499 0.085,-0.32 0.143,-0.67 0.004,-0.074 0.076,-0.335 0.057,-0.262 0.099,-0.428 0.036,-0.178 0.093,-0.488 0.084,-0.488 0.036,-0.281 0.111,-0.325 0.076,-0.517 0.049,-0.33 0.107,-0.464 0.09,-0.305 0.133,-0.695 0.036,-0.242 0.031,-0.212 0.084,-0.306 0.081,-0.246 0.201,-1.03 0.053,-0.271 0.031,-0.242 0.116,-0.527 0.076,-0.354 0.036,-0.095 0.058,-0.27 0.075,-0.479 0.072,-0.261 0.084,-0.517 0.053,-0.252 0.063,-0.256 0.031,-0.207 0.049,-0.266 0.058,-0.262 0.089,-0.422 0.094,-0.405 0.049,-0.197 0.058,-0.271 0.013,-0.212 0,-0.06 0.108,-0.413 0.275,-1.351 0.027,-0.128 0.014,0 6.751,-6.109 2.468,-2.233 2.63,-2.38 13.876,-12.461 0.108,-0.097 11.52,-10.392 16.408,-14.71 2.283,-2.054 4.995,-4.495 5.066,-7.138 1.46,-2.047 16.811,-23.589 7.835,-2.086 36.889,-9.86 1.078,0.736 4.115,2.808 15.456,10.545 2.433,1.661 9.218,6.292 1.656,1.129 4.875,3.327 6.738,4.598 0.122,0.082 2.826,1.927 6.439,4.395 19.296,13.481 0.087,0.061 3.674,2.567 z"
       
       title="Hhohho"
       id="SZ-HH" />
    <path
       
       d="m 446.545,115.389 33.432,22.935 3.417,-1.657 9.75,-4.73 1.807,-0.878 4.305,-2.087 12.159,-5.898 15.724,-7.627 3.377,-1.59 0.116,0.313 0.17,0.455 0.097,0.255 0.091,0.183 0.218,0.438 0.214,0.432 0.214,0.43 0.217,0.436 0.214,0.432 0.213,0.429 0.216,0.434 0.213,0.429 0.216,0.435 0.216,0.434 0.213,0.429 0.214,0.432 0.214,0.431 0.216,0.434 0.217,0.434 0.211,0.426 0.217,0.436 0.214,0.433 0.027,0.053 0.199,0.372 0.227,0.423 0.228,0.425 0.224,0.418 0.23,0.429 0.228,0.425 0.226,0.423 0.228,0.424 0.227,0.425 0.227,0.424 0.227,0.423 0.228,0.425 0.227,0.423 0.226,0.423 0.231,0.429 0.224,0.421 0.228,0.423 0.227,0.425 0.228,0.423 0.227,0.424 0.229,0.424 0.225,0.425 0.229,0.423 0.228,0.424 0.225,0.425 0.158,0.294 0.131,0.047 0.424,0.148 0.425,0.149 0.429,0.15 0.422,0.148 0.422,0.148 0.425,0.148 0.429,0.15 0.423,0.148 0.426,0.149 0.423,0.147 0.424,0.148 0.428,0.151 0.424,0.148 0.422,0.148 0.429,0.151 0.424,0.147 0.423,0.148 0.427,0.15 0.422,0.149 0.426,0.149 0.427,0.149 0.423,0.149 0.423,0.147 0.428,0.151 0.423,0.147 0.121,0.043 0,-0.349 0,-0.104 0.313,0.08 0.034,0.009 0.438,0.104 0.429,0.104 0.437,0.104 0.437,0.105 0.428,0.102 0.44,0.105 0.438,0.106 0.436,0.105 0.432,0.104 0.438,0.104 0.873,0.21 0.437,0.105 0.432,0.103 0.436,0.105 0.325,0.075 0.111,0.027 0.435,0.104 0.437,0.105 0.434,0.105 0.434,0.104 0.438,0.105 0.436,0.105 0.269,0.065 14.618,3.926 0.431,0.115 0.438,0.118 0.432,0.116 0.28,0.075 0.025,0.178 0.069,0.483 0.067,0.488 0.068,0.489 0.067,0.483 0.068,0.488 0.068,0.489 0.068,0.488 0.067,0.487 0.067,0.486 0.061,0.439 0.007,0.048 0.068,0.488 0.068,0.488 0.27,1.948 0.069,0.489 0.269,1.952 0.069,0.485 0.27,1.953 0.067,0.487 0.271,1.95 0.068,0.488 0.271,1.95 0.067,0.487 0.271,1.95 0.068,0.488 0.204,1.467 0.068,0.488 0.068,0.488 0.202,1.46 0.068,0.489 0.068,0.492 0.068,0.484 0.134,0.973 0.068,0.487 0.069,0.488 0.067,0.489 0.068,0.488 0.067,0.484 0.067,0.488 0.057,0.405 0.009,0.084 4.839,46.116 -0.091,0.43 -0.105,0.486 -0.103,0.482 -0.104,0.479 -0.102,0.479 -0.104,0.483 -0.103,0.481 -0.102,0.475 -0.104,0.481 -0.104,0.479 -0.104,0.485 -0.101,0.48 -0.103,0.476 -0.103,0.486 -0.102,0.474 -0.105,0.491 -0.103,0.478 -0.103,0.481 -0.104,0.482 -0.102,0.476 -0.104,0.482 -0.103,0.48 -0.102,0.479 -0.104,0.485 -0.104,0.479 -0.101,0.476 -0.096,0.44 -0.113,0.525 -0.106,0.48 -0.014,0.062 -0.022,0.079 -0.09,0.332 -0.128,0.474 -0.127,0.474 -0.128,0.47 -0.126,0.472 -0.106,0.404 -0.011,0.068 -0.136,0.478 -0.129,0.474 -0.129,0.474 -0.125,0.469 -0.13,0.476 -0.119,0.473 -0.129,0.475 -0.133,0.474 -0.125,0.474 -0.126,0.469 -0.131,0.474 -0.082,0.304 0.009,0.18 0.016,0.49 0.014,0.493 0.018,0.495 0.023,0.494 0.017,0.494 0.017,0.493 0.014,0.372 -0.021,0.118 -0.086,0.489 -0.087,0.486 -0.087,0.483 -0.086,0.485 -0.087,0.485 -0.087,0.484 -0.085,0.483 -0.087,0.49 -0.085,0.478 -0.086,0.49 -0.085,0.481 -0.087,0.483 -0.087,0.489 -0.087,0.485 -0.086,0.484 -0.085,0.483 -0.086,0.487 -0.085,0.482 -0.087,0.485 -0.087,0.484 -0.085,0.484 -0.087,0.49 -0.087,0.485 -0.086,0.484 -0.085,0.482 -0.087,0.486 -0.057,0.329 -0.035,0.154 -0.105,0.48 -0.106,0.48 -0.105,0.482 -0.105,0.48 -0.106,0.48 -0.105,0.48 -0.106,0.479 -0.103,0.477 -0.106,0.485 -0.105,0.482 -0.104,0.478 -0.105,0.481 -0.106,0.48 -0.105,0.483 -0.104,0.477 -0.105,0.482 -0.106,0.481 -0.103,0.477 -0.106,0.484 -0.105,0.48 -0.106,0.481 -0.103,0.476 -0.106,0.481 -0.105,0.484 -0.104,0.475 -0.105,0.483 -0.106,0.481 -0.105,0.479 -0.105,0.481 -0.106,0.48 -0.104,0.482 -0.106,0.48 -0.105,0.48 -0.105,0.477 -0.104,0.486 -0.105,0.476 -0.105,0.483 -0.105,0.479 -0.104,0.479 -0.106,0.482 -0.105,0.479 -0.105,0.481 -0.104,0.477 -0.106,0.486 -0.103,0.478 -0.106,0.485 -0.105,0.478 -0.106,0.483 -0.104,0.48 -0.105,0.475 -0.105,0.481 -0.106,0.485 -0.104,0.481 -0.104,0.477 -0.106,0.481 -0.104,0.481 -0.105,0.476 -0.106,0.487 -0.106,0.481 -0.103,0.476 -0.106,0.481 -0.105,0.479 -0.106,0.486 -0.105,0.478 -0.106,0.48 -0.105,0.48 -0.106,0.484 -0.105,0.48 -0.106,0.479 -0.066,0.307 0.006,0.178 0.015,0.494 0.015,0.495 0.015,0.494 0.015,0.495 0.016,0.495 0.016,0.494 0.014,0.496 0.016,0.489 0.015,0.494 0.015,0.494 0.016,0.494 0.015,0.495 0.015,0.494 0.007,0.228 0.007,0.218 0.03,0.988 0.016,0.495 0.015,0.494 0.015,0.495 0.031,0.986 0.015,0.493 0.015,0.494 0.016,0.494 0.015,0.496 0.015,0.494 0.031,0.99 0.015,0.493 0.016,0.495 0.015,0.496 0.015,0.494 0.016,0.495 0.014,0.494 0.016,0.489 0.016,0.496 0.014,0.494 0.016,0.494 0.016,0.495 0.014,0.495 0.016,0.494 0.015,0.495 0.015,0.495 0.016,0.494 0.015,0.495 0.015,0.495 0.016,0.495 0.015,0.494 0.015,0.494 0.016,0.496 0.015,0.494 0.005,0.198 0.021,0.293 0.035,0.494 0.034,0.49 1.482,20.974 0.067,0.192 0.161,0.462 0.16,0.46 0.161,0.464 0.16,0.461 0.16,0.461 0.16,0.46 0.162,0.466 0.159,0.46 0.16,0.459 0.16,0.458 0.164,0.472 0.159,0.456 0.162,0.462 0.159,0.458 0.163,0.466 0.16,0.461 0.16,0.46 0.161,0.465 0.16,0.46 0.16,0.461 0.162,0.464 0.159,0.46 0.16,0.46 0.161,0.46 0.105,0.299 0.065,0.157 0.188,0.452 0.186,0.451 0.188,0.452 0.186,0.449 0.188,0.45 0.185,0.447 0.187,0.449 0.346,0.836 0.215,0.517 0.184,0.445 1.121,2.704 1.677,4.043 0.188,0.454 0.558,1.343 0.561,1.351 0.557,1.347 0.56,1.351 0.559,1.348 0.187,0.453 0.559,1.351 0.301,0.727 0.07,0.167 0.187,0.451 0.372,0.896 0.187,0.451 0.187,0.451 0.187,0.451 0.187,0.45 0.187,0.45 0.186,0.45 0.187,0.451 0.03,0.074 0.156,0.372 0.191,0.451 0.185,0.443 0.19,0.453 0.189,0.447 0.189,0.451 0.189,0.45 0.188,0.447 0.189,0.45 0.185,0.442 0.193,0.455 0.188,0.45 0.187,0.445 0.19,0.451 0.19,0.449 0.188,0.448 0.189,0.449 0.187,0.446 0.19,0.452 0.187,0.445 0.19,0.452 0.187,0.446 0.189,0.447 0.192,0.456 0.187,0.445 0.191,0.45 0.186,0.446 0.191,0.452 0.187,0.445 0.191,0.451 0.188,0.448 0.148,0.352 0.041,0.098 0.187,0.445 0.086,0.214 0.096,0.238 0.183,0.456 0.182,0.451 0.182,0.452 0.183,0.455 0.181,0.448 0.182,0.452 0.182,0.452 0.182,0.45 0.183,0.456 0.18,0.447 0.184,0.454 0.183,0.455 0.183,0.453 0.182,0.451 0.181,0.451 0.184,0.451 0.181,0.45 0.184,0.455 0.183,0.45 0.181,0.451 0.186,0.457 0.023,0.059 -0.002,0.427 -0.003,0.494 -0.004,0.496 -0.002,0.494 -0.004,0.496 -0.003,0.496 -0.004,0.496 -0.003,0.495 -0.004,0.495 -0.003,0.496 -0.004,0.494 -10e-4,0.497 -0.004,0.495 -0.002,0.496 -0.003,0.496 -0.002,0.495 -0.003,0.495 -10e-4,0.495 -0.004,0.497 -10e-4,0.496 -0.004,0.494 -10e-4,0.358 -0.002,0.139 -0.004,0.494 -0.003,0.497 -0.018,0.494 -0.004,0.495 -0.005,0.497 -0.003,0.494 -0.02,1.487 -0.03,2.479 -0.019,1.488 -0.025,2.472 -0.023,1.491 -0.027,2.484 0,0.987 -0.018,0.495 -0.012,0.991 -0.012,0.991 -0.007,0.497 -0.008,0.992 -0.005,0.494 -0.014,0.992 -0.017,0.996 0.014,0.49 -0.027,0.991 -0.006,0.497 -0.008,0.992 -0.014,0.991 -0.004,0.496 -0.013,0.991 -0.008,0.497 -0.006,0.494 -0.005,0.498 -0.003,0.49 -0.006,0.501 -0.004,0.495 -0.003,0.495 -0.005,0.497 -0.004,0.494 -0.005,0.498 -0.005,0.494 -0.004,0.496 -0.005,0.497 -0.007,0.496 -0.002,0.088 0.04,0.403 0.054,0.496 0.039,0.411 0,0.079 -0.133,17.795 -0.08,10.411 -0.004,0.491 0,0.08 -0.84,52.374 -0.008,0.498 -0.009,0.495 -0.016,0.993 -0.008,0.497 -0.008,0.496 -0.009,0.497 -0.009,0.497 -0.008,0.495 -0.008,0.497 -0.009,0.495 -0.008,0.5 -0.007,0.495 -0.009,0.497 -0.006,0.497 -0.007,0.493 -0.009,0.5 -0.008,0.496 -0.007,0.492 -0.008,0.496 -0.007,0.497 -0.009,0.503 -0.007,0.492 -0.008,0.495 -0.007,0.497 -0.008,0.496 -0.007,0.498 -0.007,0.084 0.014,0.412 0.013,0.497 0.022,0.497 0.017,0.496 0.019,0.501 0.025,0.492 0.016,0.497 0.017,0.498 0.017,0.496 0.024,0.492 -0.167,4.605 -0.27,0 -0.201,-0.011 -0.143,-0.014 -0.61,0 -0.156,0.01 -0.152,0.015 -0.129,0.01 -0.406,0 -0.157,-0.005 -0.173,-0.005 -0.566,0 -0.143,0.005 -0.355,0 -0.205,-0.005 -0.169,0.005 -0.107,-0.011 -0.121,-0.009 -0.143,-0.015 -0.088,-0.021 -0.139,-0.024 -0.107,-0.035 -0.174,-0.06 -0.102,-0.04 -0.112,-0.049 -0.124,-0.044 -0.108,-0.044 -0.133,-0.066 -0.094,-0.05 -0.115,-0.068 -0.135,-0.091 -0.102,-0.059 -0.08,-0.065 -0.077,-0.074 -0.083,-0.085 -0.058,-0.064 -0.068,-0.096 -0.037,-0.073 -0.012,-0.025 -0.022,-0.09 -0.03,-0.133 -0.037,-0.099 -0.035,-0.115 -0.05,-0.149 -0.035,-0.124 -0.071,-0.149 -0.075,-0.11 -0.076,-0.093 -0.124,-0.155 -0.055,-0.089 -0.089,-0.168 -0.054,-0.09 -0.08,-0.15 -0.052,-0.124 -0.064,-0.129 -0.076,-0.173 -0.061,-0.129 -0.058,-0.116 -0.085,-0.183 -0.08,-0.203 -0.049,-0.075 -0.076,-0.144 -0.067,-0.119 -0.071,-0.11 -0.103,-0.164 -0.048,-0.089 -0.045,-0.109 -0.049,-0.124 -0.055,-0.114 -0.044,-0.061 -0.08,-0.094 -0.088,-0.129 -0.117,-0.199 -0.102,-0.158 -0.121,-0.204 -0.107,-0.17 -0.11,-0.178 -0.091,-0.159 -0.07,-0.135 -0.107,-0.153 -0.112,-0.17 -0.111,-0.142 -0.12,-0.145 -0.112,-0.164 -0.121,-0.144 -0.088,-0.124 -0.085,-0.125 -0.075,-0.124 -0.076,-0.119 -0.111,-0.144 -0.098,-0.149 -0.064,-0.094 -0.088,-0.144 -0.093,-0.144 -0.113,-0.189 -0.098,-0.159 -0.07,-0.105 -0.17,-0.257 -0.071,-0.12 -0.08,-0.138 -0.041,-0.095 -0.049,-0.109 -0.048,-0.135 -0.032,-0.113 -0.027,-0.1 -0.036,-0.109 -0.044,-0.119 -0.039,-0.149 -0.041,-0.13 -0.022,-0.148 -0.041,-0.214 -0.014,-0.185 -0.022,-0.158 0,-0.194 -0.012,-0.084 -0.01,-0.109 -0.008,-0.104 -0.031,-0.243 -0.013,-0.12 -0.019,-0.115 -0.026,-0.238 -0.01,-0.154 -0.017,-0.119 -0.019,-0.129 -0.022,-0.139 -0.031,-0.114 -0.018,-0.13 -0.044,-0.139 -0.026,-0.085 -0.018,-0.129 -0.018,-0.124 -0.023,-0.124 -0.048,-0.159 -0.049,-0.148 -0.036,-0.111 -0.041,-0.128 -0.03,-0.099 -0.058,-0.124 -0.055,-0.129 -0.044,-0.105 -0.052,-0.114 -0.049,-0.099 -0.08,-0.149 -0.055,-0.104 -0.058,-0.089 -0.006,-0.014 -0.057,-0.097 -0.061,-0.093 -0.093,-0.14 -0.058,-0.084 -0.041,-0.06 -0.058,-0.079 -0.063,-0.075 -0.063,-0.069 -0.075,-0.079 -0.071,-0.056 -0.066,-0.073 -0.082,-0.056 -0.096,-0.068 -0.085,-0.075 -0.086,-0.06 -0.12,-0.094 -0.08,-0.07 -0.094,-0.069 -0.093,-0.075 -0.098,-0.088 -0.103,-0.051 -0.085,-0.065 -0.071,-0.059 -0.067,-0.06 -0.088,-0.069 -0.082,-0.044 -0.087,-0.035 -0.073,-0.035 -0.085,-0.01 -0.101,-0.035 -0.115,-0.036 -0.117,-0.029 -0.138,-0.04 -0.089,-0.024 -0.108,-0.035 -0.092,-0.044 -0.13,-0.036 -0.124,-0.024 -0.143,-0.02 -0.148,-0.005 -0.143,0.009 -0.19,0.016 -0.157,0.015 -0.129,0.009 -0.173,0.025 -0.157,0.011 -0.165,0.014 -0.125,0.005 -0.165,0.016 -0.24,0.044 -0.159,0.024 -0.184,0.035 -0.146,0.045 -0.14,0.045 -0.209,0.064 -0.124,0.045 -0.246,0.065 -0.218,0.059 -0.201,0.059 -0.181,0.051 -0.113,0.035 -0.107,0.038 -0.151,0.066 -0.231,0.093 -0.179,0.085 -0.209,0.09 -0.178,0.094 -0.116,0.065 -0.117,0.07 -0.102,0.044 -0.133,0.049 -0.107,0.035 -0.112,0.045 -0.143,0.04 -0.129,0.03 -0.124,0.013 -0.157,0.046 -0.112,0.01 -0.11,0.02 -0.165,0.015 -0.134,0.025 -0.152,0.035 -0.169,0.044 -0.142,0.024 -0.134,0.021 -0.138,0.019 -0.139,0.016 -0.142,0.015 -0.138,0 -0.205,0.024 -0.085,0.016 -0.121,0.029 -0.124,0.035 -0.126,0.029 -0.176,0.05 -0.126,0.029 -0.157,0.031 -0.172,0.02 -0.188,0.039 -0.241,0.045 -0.187,0.06 -0.21,0.045 -0.101,0.013 -0.143,0.006 -0.165,0.021 -0.142,0.009 -0.144,0.035 -0.156,0.024 -0.124,0.03 -0.129,0.031 -0.124,0.024 -0.099,0.024 -0.138,0.046 -0.227,0.069 -0.147,0.05 -0.103,0.044 -0.16,0.065 -0.161,0.069 -0.191,0.084 -0.13,0.065 -0.142,0.08 -0.076,0.04 -0.08,0.03 -0.099,0.039 -0.094,0.034 -0.088,0.031 -0.085,0.025 -0.08,0.02 -0.088,0.03 -0.077,0.029 -0.062,0.029 -0.089,0.036 -0.076,0.024 -0.089,0.03 -0.099,0.016 -0.085,0.014 -0.088,0.015 -0.071,0.015 -0.107,0.034 -0.077,0.035 -0.066,0.045 -0.094,0.074 -0.066,0.085 -0.085,0.089 -0.063,0.079 -0.039,0.075 -0.063,0.095 -0.028,0.025 -0.084,0.08 -0.058,0.048 -0.093,0.07 -0.066,0.059 -0.103,0.08 -0.08,0.06 -0.117,0.074 -0.115,0.094 -0.076,0.075 -0.081,0.084 -0.07,0.105 -0.035,0.07 -0.06,0.113 -0.039,0.1 -0.03,0.104 -0.041,0.095 -0.036,0.095 -0.044,0.084 -0.08,0.094 -0.081,0.104 -0.084,0.085 -0.068,0.074 -0.088,0.09 -0.102,0.089 -0.082,0.064 -0.088,0.065 -0.116,0.051 -0.12,0.053 -0.152,0.055 -0.129,0.045 -0.184,0.055 -0.154,0.029 -0.17,0.03 -0.121,0.015 -0.16,0.014 -0.169,-0.014 -0.089,0.005 -0.094,0 -0.09,0.009 -0.102,0.011 -0.102,0.025 -0.115,0.045 -0.09,0.019 -0.108,0.045 -0.132,0.024 -0.134,0.04 -0.138,0.026 -0.107,0.019 -0.104,-0.005 -0.084,-0.014 -0.097,-0.011 -0.149,-0.019 -0.151,-0.021 -0.083,-0.024 -0.077,-0.01 -0.077,-0.005 -0.132,0 -0.058,0.015 -0.107,0.024 -0.085,0.025 -0.124,0.02 -0.099,0.02 -0.12,0 -0.121,0.005 -0.129,-0.014 -0.133,-0.016 -0.09,-0.019 -0.089,-0.03 -0.071,-0.035 -0.066,-0.02 -0.077,-0.025 -0.062,-0.024 -0.072,-0.011 -0.088,-0.015 -0.102,0 -0.112,-0.009 -0.085,-0.011 -0.062,-0.009 -0.071,-0.02 -0.076,-0.031 -0.116,-0.034 -0.08,-0.039 -0.085,-0.045 -0.076,-0.05 -0.076,-0.045 -0.101,-0.054 -0.165,-0.074 -0.072,-0.041 -0.082,-0.049 -0.083,-0.06 -0.071,-0.059 -0.076,-0.055 -0.08,-0.06 -0.077,-0.054 -0.083,-0.049 -0.085,-0.056 -0.09,-0.055 -0.129,-0.078 -0.094,-0.08 -0.107,-0.07 -0.088,-0.069 -0.091,-0.06 -0.071,-0.049 -0.074,-0.046 -0.067,-0.024 -0.09,-0.04 -0.088,-0.079 -0.104,-0.07 -0.089,-0.064 -0.098,-0.084 -0.072,-0.08 -0.071,-0.06 -0.083,-0.074 -0.076,-0.074 -0.072,-0.07 -0.075,-0.08 -0.057,-0.059 -0.036,-0.046 -0.028,-0.068 -0.021,-0.08 -0.036,-0.08 -0.063,-0.079 -0.066,-0.055 -0.105,-0.059 -0.106,-0.045 -0.103,-0.059 -0.057,-0.07 -0.049,-0.115 -0.044,-0.094 -0.064,-0.103 -0.03,-0.105 -0.05,-0.124 -0.062,-0.135 -0.007,-0.016 -0.051,-0.108 -0.071,-0.134 -0.059,-0.129 -0.052,-0.114 -0.041,-0.079 -0.036,-0.075 -0.075,-0.114 -0.067,-0.114 -0.07,-0.124 -0.068,-0.11 -0.044,-0.054 -0.124,-0.139 -0.058,-0.045 -0.063,-0.064 -0.071,-0.055 -0.085,-0.069 -0.072,-0.066 -0.08,-0.074 -0.093,-0.065 -0.063,-0.03 -0.066,-0.019 -0.08,-0.03 -0.077,-0.025 -0.11,-0.034 -0.094,-0.02 -0.085,-0.011 -0.085,-0.015 -0.102,-0.004 -0.099,-0.015 -0.124,-0.01 -0.081,-0.009 -0.094,-0.016 -0.102,-0.024 -0.093,-0.026 -0.16,-0.045 -0.071,-0.04 -0.108,-0.048 -0.09,-0.031 -0.11,-0.05 -0.112,-0.034 -0.067,-0.02 -0.085,-0.03 -0.066,-0.019 -0.076,-0.016 -0.124,-0.008 -0.126,-0.006 -0.097,-0.015 -0.094,-0.011 -0.089,-0.004 -0.161,0 -0.098,-0.005 -0.108,-0.005 -0.092,-0.005 -0.076,0 -0.107,0.005 -0.098,0.014 -0.093,0.011 -0.094,0.015 -0.124,0.014 -0.113,0.025 -0.071,0.03 -0.057,0.03 -0.064,0.034 -0.06,0.045 -0.069,0.045 -0.094,0.045 -0.096,0.059 -0.082,0.026 -0.074,0.02 -0.072,0.019 -0.094,0.005 -0.101,0.005 -0.108,0.02 -0.076,0.004 -0.124,0.025 -0.148,0.04 -0.147,0.035 -0.17,0.04 -0.177,0.02 -0.125,0.01 -0.086,0.013 -0.075,0 -0.102,0.017 -0.11,0.009 -0.119,-0.004 -0.128,-0.024 -0.094,-0.001 -0.118,-10e-4 -0.082,0 -0.111,0 -0.142,0.021 -0.045,0.014 -0.076,0.03 -0.067,0.03 -0.071,0.015 -0.089,0.01 -0.117,0.009 -0.11,0.021 -0.113,0.03 -0.085,0.04 -0.083,0.033 -0.151,0.061 -0.108,0.074 -0.112,0.059 -0.134,0.085 -0.115,0.069 -0.13,0.091 -0.132,0.093 -0.104,0.07 -0.107,0.074 -0.102,0.07 -0.115,0.06 -0.113,0.064 -0.105,0.045 -0.14,0.05 -0.129,0.054 -0.239,0.089 -0.165,0.055 -0.135,0.039 -0.137,0.04 -0.09,0.031 0.246,0.571 0.355,0.84 0.189,0.439 0.757,1.773 0.5,1.173 -6.088,37.924 -0.272,1.687 -0.228,1.424 -0.058,0.355 -2.223,10.425 0.777,2.675 0.97,3.339 0.262,0.902 -1.278,5.616 -2.104,9.243 -0.137,0.606 -0.173,0.76 -0.897,3.94 -1.971,8.621 -0.583,2.621 1.011,2.497 -0.806,16.122 -0.044,0.551 -0.002,0.023 -0.676,8.789 -0.693,7.089 -0.943,9.627 -2.255,12.643 0.972,2.715 0.098,3.007 0.006,0.196 0.034,1.134 -0.922,6.252 -0.388,2.635 0.319,8.484 -32.113,-0.535 2.847,-8.985 -21.546,-1.137 0.48,-18.053 -19.864,-8.626 -1.422,0.021 -17.684,-15.268 -0.272,-2.009 -4.086,-9.559 -28.35,4.605 -3.66,-2.599 -33.638,-14.19 -6.192,-16.119 -1.244,-1.514 -1.468,-0.291 -1.669,-0.179 -1.701,0.019 -1.538,0.394 -1.999,0.728 -18.568,-4.071 -12.906,-12.063 -0.717,-9.361 -10.351,-9.487 4.286,-4.419 3.274,-3.555 4.992,-8.543 6.389,-14.508 4.761,-16.682 6.005,-15.658 1.522,-6.091 -30.196,5.885 -3.378,-4.129 -0.059,-1.994 -0.018,-1.2 -0.011,-0.769 0.313,-8.678 0.217,-1.319 1.909,-6.441 2.373,-4.651 1.1,-1.051 0.043,-0.042 0.134,-0.179 1.854,-2.47 1.609,-2.776 0.736,-1.425 1.798,-4.41 1.397,-5.515 0.39,-2.147 0.25,-5.02 9.338,-2.342 28.242,-15.628 -3.335,-33.722 -7.357,-18.181 15.345,-4.162 2.313,-1.345 0.133,-2.222 -1.896,-32.929 -0.541,-2.062 -3.756,-11.088 0.831,-2.711 9.739,-11.872 11.038,-12.954 6.776,-4.65 2.214,-2.312 0.973,-1.101 0.765,-0.96 0.907,-1.9 3.095,-6.537 1.572,-3.397 0.025,-3.041 1.883,-25.733 3.735,-10.269 -8.378,-39.966 1.239,-16.718 -1.851,-16.769 -1.341,-10.003 -1.47,-9.287 -1.132,-15.701 -0.097,-2.35 -0.218,-12.265 -0.386,-22.823 2.54,-2.28 2.394,0.473 1.771,1.509 3.624,1.854 2.317,0.73 25.139,1.378 1.894,-2.063 2.705,-6.306 1.778,-1.465 z"
       
       title="Lubombo"
       id="SZ-LU" />
    <path
       d="m 395.33,219.027 8.378,39.966 -3.735,10.269 -1.883,25.733 -0.025,3.041 -1.572,3.397 -3.095,6.537 -0.907,1.9 -0.765,0.96 -0.973,1.101 -2.214,2.312 -6.776,4.65 -11.038,12.954 -9.739,11.872 -0.831,2.711 3.756,11.088 0.541,2.062 1.896,32.929 -0.133,2.222 -2.313,1.345 -15.345,4.162 7.357,18.181 3.335,33.722 -28.242,15.628 -9.338,2.342 -0.25,5.02 -0.39,2.147 -1.397,5.515 -1.798,4.41 -0.736,1.425 -1.609,2.776 -1.854,2.47 -0.134,0.179 -0.043,0.042 -1.1,1.051 -2.373,4.651 -1.909,6.441 -0.217,1.319 -0.313,8.678 0.011,0.769 0.018,1.2 0.059,1.994 -12.946,-7.77 -4.67,-0.8 -21.507,10.851 -3.52,11.479 -14.019,-0.568 -1.979,-0.244 -4.58,-0.529 -1.516,0.652 -6.914,4.07 -3.489,4.346 1.996,9.153 -8.828,10.424 -4.232,1.848 -7.954,-6.088 -4.775,-4.902 -7.786,-7.395 -5.679,-3.666 -3.022,-1.951 -3.132,-0.697 -2.23,0.978 -14.188,8.525 -5.62,3.758 -15.93,13.022 -9.018,3.015 -10.339,6.768 -2.923,4.761 -1.348,5.014 -5.169,1.254 -1.496,-4.983 3.743,-4.794 0.34,-11.734 -9.179,-8.57 -1.537,-2.433 -1.069,-1.822 -0.354,-2.064 1.831,-0.845 1.603,-4.959 0.61,-2.127 -0.709,-12.34 -1.032,-6.248 -3.361,0.655 -42.835,8.354 -2.209,-4.818 1.001,-4.565 -1.585,-0.927 -3.364,0.266 -1.888,1.307 -0.915,2.622 -1.741,1.503 -7.059,0.795 -1.673,-1.009 -2.435,-1.93 -0.028,0.01 -1.418,2.417 -0.491,-0.238 -0.008,-0.045 -0.013,0.072 -0.01,0.057 -0.161,0.189 -0.263,0.293 -0.106,0.249 -0.139,0.193 -0.138,0.207 -0.223,3.547 -0.058,0.264 -0.289,0.799 -0.031,0.144 -0.031,0.118 -0.125,0.259 -0.12,0.238 -0.099,0.164 -0.053,0.105 -0.013,0.119 0.022,0.178 0.018,0.119 0.067,0.115 0.116,0.277 0.093,0.209 0.014,0.021 0.052,0.1 0.05,0.093 0.049,0.179 0,0.113 -0.044,0.095 -0.17,0.18 -0.138,0.213 -0.319,0.291 -0.274,0.091 -0.267,0.144 -0.334,0.129 -0.39,0.171 -10.128,6.956 -16.225,10.671 -0.201,0.129 -0.012,-10e-4 -0.188,0.104 -0.294,0.119 -0.152,0.095 -0.637,0.283 -0.084,0.09 -0.197,0.079 -0.227,0.099 -0.2,0.115 -0.152,0.035 -0.116,0.044 -0.468,0.119 -0.321,0.074 -0.374,0.076 -0.081,0.079 -0.115,0.024 -0.201,0.11 -0.191,0.054 -0.17,0.085 -0.601,0.184 -0.224,0.059 -0.182,0.095 -0.089,-0.188 -0.21,-0.299 -0.151,-0.422 -0.209,-0.328 -0.094,-0.114 0.053,-0.12 -0.129,-0.243 -0.173,-0.318 -0.38,-0.869 -0.115,-0.293 -0.094,-0.169 -0.134,-0.234 -0.32,-0.67 -0.152,-0.337 -0.098,-0.275 -0.187,-0.307 -0.245,-0.488 -0.169,-0.466 -0.116,-0.253 -0.112,-0.224 -0.191,-0.372 -0.228,-0.547 -0.112,-0.277 -0.15,-0.275 -0.13,-0.277 -0.173,-0.359 -0.362,-0.784 -0.075,-0.169 -0.093,-0.233 -0.046,-0.154 -0.026,-0.099 -0.058,-1.168 -0.077,-0.422 -0.057,-0.6 -0.058,-0.627 -0.137,-1.43 -0.054,-0.423 -0.076,-0.412 0,-0.328 L 4.585,539.146 4.492,538.117 4.345,536.782 4.27,535.872 4.238,535.491 4.123,534.73 4.1,534.413 4.064,533.985 4.046,533.499 3.93,532.759 3.922,532.57 3.913,532.356 3.766,530.917 3.69,530.43 l -0.076,-0.784 -0.04,-0.422 -0.071,-0.453 0.018,-0.416 -0.129,-1.192 -0.032,-0.278 -0.044,-0.358 -0.121,-1.251 -0.058,-0.551 -0.075,-0.844 -0.036,-0.214 0,-0.272 -0.063,-0.224 -0.076,-0.839 -0.075,-0.695 -0.022,-0.596 -0.054,-0.442 -0.16,-1.514 -0.04,-0.357 -0.027,-0.194 -0.035,-0.422 -0.05,-0.55 -0.129,-1.227 -0.044,-0.486 -0.059,-0.617 -0.04,-0.273 0,-0.168 -0.035,-0.278 -0.09,-0.844 -0.097,-0.795 -0.027,-0.57 -0.196,-1.588 -0.067,-0.785 0.067,-0.105 -0.147,-1.597 -0.036,-0.691 -0.022,-0.219 -0.054,-0.401 -0.093,-0.889 -0.054,-0.485 -0.057,-0.493 -0.058,-0.823 -0.147,-1.415 -0.002,-0.193 0.002,-0.045 0.008,-0.333 -0.044,-0.312 -0.054,-0.084 -0.067,-1.153 -0.067,-0.396 -0.062,-0.501 -0.062,-0.62 0.018,-0.319 -0.032,-0.257 -0.075,-0.407 -0.054,-0.531 -0.067,-0.76 -0.036,-0.183 -0.048,-0.611 -0.063,-0.764 -0.04,-0.228 -0.031,-0.178 -0.013,-0.334 -0.077,-0.763 -0.012,-0.303 -0.01,-0.199 -0.053,-0.376 -0.058,-0.726 -0.014,-0.48 -0.026,-0.894 0.018,-1.092 0.008,-0.417 0.014,-0.898 0.014,-0.263 0.017,-0.317 -0.031,-0.258 0.004,-1.111 0.01,-0.378 0,-0.445 0.013,-0.889 0,-0.129 0.009,-0.238 0,-0.357 -0.014,-0.998 0.018,-0.208 0.013,-0.293 0,-0.298 -0.022,-0.222 0.005,-0.596 -0.009,-0.317 0.013,-1.126 0.013,-0.448 0.01,-0.332 0.003,-0.445 0.001,-0.051 -0.031,-0.258 0.013,-0.446 -0.009,-0.853 0.013,-0.388 0,-0.878 0.014,-0.292 0.031,-0.233 -0.017,-0.223 -0.014,-0.11 0.018,-1.165 0,-0.208 0.008,-0.244 -0.008,-0.164 0.013,-1.111 0,-0.242 -0.009,-0.219 0.009,-0.208 -0.005,-0.923 0.005,-0.238 0.009,-0.219 0.009,-0.391 -0.018,-0.873 0.027,-0.332 -0.004,-0.248 -0.01,-0.273 0.005,-0.536 0,-0.412 0.005,-1.011 0,-0.873 -0.01,-0.283 0.014,-0.54 0.036,-0.933 0,-0.323 -0.028,-0.263 0,-0.153 0.01,-0.317 0.008,-0.665 -0.018,-0.342 0.01,-0.208 0,-0.298 0.031,-0.783 -0.023,-0.516 -0.03,-0.294 0,-0.203 0.04,-0.416 0.067,-0.07 0.017,-3.788 0.035,-6.59 -0.035,-10.284 0.112,-8.564 0.026,-8.298 0.021,-0.891 0.006,-0.283 0.941,-8.37 0.703,-5.455 0.834,-7.228 1.288,-11.175 1.167,-10.104 0.01,-0.083 0.961,-8.329 11.565,-27.474 2.184,-2.455 0.418,-0.482 1.814,-2.091 4.144,-4.76 0.08,-0.092 3.191,-3.667 4.457,-9.095 4.18,-8.334 5.079,-10.482 1.498,-3.09 0.072,-0.148 1.702,-1.489 0.951,-0.9 0.99,1.666 0.08,-0.086 1.592,3.519 7.567,4.936 2.433,0.843 15.293,7.594 37.016,20.074 11.89,22.993 13.058,2.882 2.711,-0.273 1.541,-0.612 4.456,-1.844 16.487,5.634 1.957,0.443 6.994,-0.079 7.411,0.904 16.394,6.179 8.803,1.639 3.881,-16.204 -0.411,-5.573 2.722,-19.299 5.632,-21.561 1.277,-4.753 1.542,-2.487 0.744,-0.731 4.849,-2.747 13.668,-4.383 11.674,-2.794 4.901,-6.784 -0.03,-0.538 -0.086,-1.504 0.558,-1.237 0.78,-1.442 3.083,-3.067 7.273,2.669 6.684,3.822 9.129,-1.996 -0.085,-0.641 5.216,-6.704 12.972,-8.794 2.563,-1.461 3.665,-1.577 2.737,-0.417 0.338,2.859 1.768,1.372 8.927,-1.808 1.697,-1.042 16.327,-21.941 -0.04,-7.21 -2.615,-3.522 -0.069,-0.094 0.534,-2.088 12.888,-4.894 2.59,-0.553 10.032,0.15 2.431,0.783 2.161,1.218 7.837,-0.328 1.44,-0.182 3.866,-0.504 z"
       
       title="Manzini"
       id="SZ-MA" />
    <path
       d="m 307.634,520.198 3.378,4.129 30.196,-5.885 -1.522,6.091 -6.005,15.658 -4.761,16.682 -6.389,14.508 -4.992,8.543 -3.274,3.555 -4.286,4.419 10.351,9.487 0.717,9.361 12.906,12.063 18.568,4.071 1.999,-0.728 1.538,-0.394 1.701,-0.019 1.669,0.179 1.468,0.291 1.244,1.514 6.192,16.119 33.638,14.19 3.66,2.599 28.35,-4.605 4.086,9.559 0.272,2.009 17.684,15.268 1.422,-0.021 19.864,8.626 -0.48,18.053 21.546,1.137 -2.847,8.985 32.113,0.535 0.461,12.288 0.561,16.316 -0.125,13.772 -0.016,1.838 -0.092,10.684 -0.005,0.634 -0.066,7.421 -0.026,3.386 0.005,1.916 -0.28,4.201 0.32,2.444 0.183,0.294 0.392,0.629 -13.388,-0.045 -6.314,-0.024 -1.395,-0.006 -5.334,-0.02 -4.702,-0.02 -0.026,0 -2.041,-0.01 -2.268,-0.01 -0.891,-0.005 -5.304,-0.02 -21.813,-0.097 -0.514,0 -5.049,-0.024 -4.834,-0.024 -0.74,-0.005 -0.791,-0.003 -6.169,-0.032 -0.647,0 -6.526,-0.035 -6.255,-0.034 -2.932,-0.015 -0.446,0 -3.169,-0.015 -0.052,-0.005 -5.602,-0.03 -2.192,-0.01 -1.047,-0.005 -4.434,-0.025 -1.841,-0.01 -3.833,-0.02 -0.114,-0.005 -0.055,0 -4.043,-0.02 -3.823,-0.025 -6.349,-0.035 -1.81,-0.012 -1.935,-0.012 -2.098,-0.013 -2.951,-0.017 -5.013,-0.031 -1.845,-0.01 -6.238,-0.04 -6.559,-0.042 -0.799,-0.002 -0.155,-10e-4 -3.892,-0.024 -0.837,-0.005 -4.889,-0.029 -0.04,0 -0.687,-0.003 -0.721,-0.004 -1.453,-0.009 -0.722,-0.004 -0.727,-0.004 -0.726,-0.003 -0.726,-0.004 -1.444,-0.009 -0.12,0 -1.605,-0.01 -1.627,-0.01 -1.596,-0.009 -1.333,-0.008 -0.479,-0.002 -1.471,-0.009 -1.63,-0.01 -6.521,-0.038 -0.406,-0.003 -0.329,-0.002 -0.678,-0.004 -0.672,-0.004 -0.678,-0.017 -0.305,0.013 -0.327,0.012 -0.664,-0.018 -0.656,-0.004 -0.677,-0.004 -0.619,-0.004 -1.23,-0.008 -0.673,-0.004 -0.624,-0.004 -0.638,-0.003 -0.676,-0.006 -0.669,-0.005 -0.663,-0.005 -1.333,-0.01 -0.682,-0.013 -0.477,-0.008 -0.015,0 -0.181,-0.024 -0.481,0.011 -0.233,-0.004 -0.405,0.014 -0.414,-0.006 -0.179,-0.01 -0.258,-0.009 -0.236,0.004 -0.615,-0.019 -0.628,-0.016 -0.598,-0.009 -0.218,0 -0.093,-0.051 -0.049,-0.029 -0.032,-0.02 -0.018,-0.02 -2.192,-0.808 -2.009,-0.741 -0.241,-0.088 -2.251,-0.823 -4.503,-1.657 -2.204,-0.812 -2.211,-0.814 -2.205,-0.813 -4.421,-1.626 -0.04,-0.014 -2.5,-0.923 -2.406,-0.883 -4.814,-1.776 -2.402,-0.883 -2.406,-0.888 -0.944,-0.346 -1.462,-0.537 -2.407,-0.887 -0.353,-0.132 -0.903,-0.333 -1.146,-0.423 -2.456,-0.904 -1.549,-0.572 -0.053,-0.019 -1.294,-0.476 -1.35,-0.499 -1.346,-0.498 -3.768,-1.388 -0.416,-0.153 -1.4,-0.518 -1.372,-0.504 -1.377,-0.509 -1.375,-0.505 -1.486,-0.548 -2.429,-0.896 -1.431,-0.529 -2.869,-1.058 -1.43,-0.527 -2.871,-1.058 -1.43,-0.534 -1.435,-0.529 -0.018,-0.004 -0.685,-0.252 -0.065,-0.025 -1.241,-0.457 -1.694,-0.628 -2.117,-0.782 -2.117,-0.778 -2.117,-0.783 -2.112,-0.784 -2.05,-0.712 -2.049,-0.718 -1.913,-0.668 -2.227,-0.763 0.204,-0.14 -3.097,-1.161 -18.043,-6.566 -2.001,-0.729 -5.7,-2.102 -24.243,-8.943 -0.953,-0.353 -0.571,-0.209 -0.757,-0.28 -11.489,-15.224 -4.501,-5.969 -2.696,-3.572 -5.884,-7.803 -4.027,-5.337 -5.017,-6.599 -1.761,-2.35 -1.462,-1.947 -2.923,-3.899 -5.735,-4.595 -4.078,-3.288 -0.21,-0.17 -0.013,-0.013 -7.598,-6.128 -16.488,-15.33 -0.17,-0.315 -6.471,-11.945 -3.092,-6.075 -1.981,-3.878 -0.066,-0.102 0.429,-0.816 0.205,-0.468 0.339,-0.651 0.272,-0.482 0.107,-0.299 0.075,-0.114 0.116,-0.244 0.268,-0.537 0.098,-0.194 0.147,-0.264 0.209,-0.432 0.117,-0.269 0.2,-0.368 0.298,-0.513 0.058,-0.224 0.112,-0.208 0.079,-0.189 0.264,-0.548 0.267,-0.412 0.196,-0.492 0.165,-0.309 0.125,-0.288 0.37,-0.612 0.258,-0.622 0.316,-0.637 0.143,-0.233 0.053,-0.195 0.152,-0.293 0.103,-0.239 0.356,-0.677 0.107,-0.228 0.143,-0.199 0.387,-0.85 0.321,-0.632 0.107,-0.612 0.138,-0.636 0.112,-0.324 0.013,-0.153 0.156,-0.657 0.093,-0.422 0.161,-0.707 0.089,-0.387 0.134,-0.578 0.115,-0.472 0.135,-0.562 0.026,-0.358 0.085,-0.741 0.048,-1.189 0.018,-0.809 -0.057,-0.244 0.045,-0.21 -0.006,-0.427 -0.004,-0.407 0.01,-0.513 -0.018,-0.243 0.018,-0.229 0,-1.109 0.012,-0.462 0.01,-0.228 -0.036,-0.2 0,-0.831 -0.026,-0.596 0.017,-0.512 -0.009,-0.721 -0.018,-0.338 0.014,-0.766 -0.004,-0.284 0,-0.769 0.012,-0.199 0.018,-0.608 0.01,-0.476 -0.045,-0.602 0.005,-0.378 0.008,-1.372 -0.892,-4.127 -0.266,-1.202 -0.295,-1.332 -0.107,-0.11 -0.031,-0.035 -0.04,-0.039 -0.014,-0.015 -0.008,-0.015 -0.014,-0.01 -0.008,-0.01 -0.023,-0.015 -0.138,-0.055 -0.254,-0.07 -0.236,-0.094 -0.071,-0.039 -0.277,-0.08 -0.352,-0.154 -0.173,-0.11 -0.147,-0.139 -0.183,-0.109 -0.103,-0.055 -0.161,-0.144 -0.106,-0.059 -0.161,-0.164 -0.263,-0.374 -0.241,-0.278 -0.093,-0.114 -0.169,-0.124 -0.156,-0.079 -0.268,-0.145 -0.084,-0.045 -0.231,-0.084 -0.076,-0.07 -0.147,-0.049 -0.077,-0.025 -0.137,-0.095 -0.139,-0.129 -0.124,-0.104 -0.107,-0.119 -0.139,-0.095 -0.137,-0.153 -0.107,-0.085 -0.085,-0.081 -0.406,-0.357 -0.205,-0.204 -0.129,-0.129 -0.085,-0.1 -0.054,-0.07 -0.048,-0.129 -0.053,-0.143 -0.01,-0.043 -1.367,-1.026 -4.827,-3.776 -0.521,0.038 -0.138,-0.034 -0.193,-0.045 -0.19,-0.153 -0.116,-0.111 -0.054,-0.129 -0.036,-0.179 0,-0.138 -0.018,-0.095 -0.048,-0.109 -0.04,-0.079 -0.281,-0.284 -0.099,-0.124 -0.155,-0.155 -0.103,-0.094 -0.022,-0.144 0,-0.122 0,-0.29 -0.014,-0.06 -0.026,-0.03 -0.317,-0.149 -0.102,-0.01 -0.109,-0.013 -0.061,-0.002 -0.37,0 -0.338,-0.055 -0.169,-0.08 -0.112,-0.074 -0.098,-0.094 -0.08,-0.12 -0.116,-0.238 -0.107,-0.129 -0.115,-0.099 -0.139,-0.05 -0.209,-0.035 -0.129,-0.06 -0.17,-0.139 -0.094,-0.129 -0.195,-0.303 -0.103,-0.129 -0.103,-0.11 -0.088,-0.119 -0.063,-0.094 -0.032,-0.081 -0.338,-0.307 -0.731,-0.656 -0.009,-0.049 -0.129,-0.13 -0.138,-0.164 -0.147,-0.178 -0.388,-0.368 -0.121,-0.08 -0.111,-0.11 -0.102,-0.114 -0.099,-0.084 -0.093,-0.13 -0.066,-0.034 -0.045,-0.084 -0.138,-0.164 -0.339,-0.423 -0.098,-0.104 -0.032,-0.11 -0.053,-0.079 -0.107,-0.119 -0.156,-0.139 -0.063,-0.065 -0.147,-0.104 -0.235,-0.199 -0.286,-0.214 -0.205,-0.139 -0.128,-0.074 -0.085,-0.11 -0.085,-0.084 -0.161,-0.124 -0.089,-0.11 -0.089,-0.069 -0.137,-0.095 -0.175,-0.129 -0.575,-0.447 -0.276,-0.208 -0.116,-0.12 -0.191,-0.204 -0.129,-0.164 -0.116,-0.179 -0.161,-0.139 -0.258,-0.189 -0.143,-0.06 -0.548,-0.367 -0.214,-0.189 -0.401,-0.333 -0.258,-0.139 -0.259,-0.163 -0.178,-0.121 -0.254,-0.178 -0.521,-0.318 -0.214,-0.139 -0.205,-0.169 -0.139,-0.119 -0.161,-0.095 -0.169,-0.069 -0.169,-0.084 -0.312,-0.195 -0.138,-0.069 -0.084,-0.169 -0.023,-0.198 0,-0.129 0.031,-0.21 0,-0.237 0.018,-0.269 0.013,-0.343 -0.013,-0.273 -0.054,-0.274 -0.044,-0.233 -0.053,-0.145 -0.116,-0.163 -0.17,-0.094 -0.218,-0.095 -0.156,-0.095 -0.08,-0.084 -0.063,-0.095 -0.076,-0.248 -0.101,-0.139 -0.13,-0.084 -0.178,-0.1 -0.237,-0.064 -0.073,-0.005 -0.034,-0.02 -0.031,-0.015 -0.058,-0.01 -0.036,-0.015 -0.04,0 -0.079,-0.019 -0.028,-0.035 -0.03,-0.03 -0.054,-0.025 -0.053,-0.02 -0.014,-0.03 -0.014,-0.01 -0.012,-0.03 -0.014,-0.034 -0.129,-1.313 -1.912,-10.848 -0.026,-0.136 -0.036,-0.188 -1.475,-7.618 -0.558,-2.991 -0.066,-1.2 -0.089,-2.491 -0.205,-5.842 -0.103,-0.477 0.491,0.238 1.418,-2.417 0.028,-0.01 2.435,1.93 1.673,1.009 7.059,-0.795 1.741,-1.503 0.915,-2.622 1.888,-1.307 3.364,-0.266 1.585,0.927 -1.001,4.565 2.209,4.818 42.835,-8.354 3.361,-0.655 1.032,6.248 0.709,12.34 -0.61,2.127 -1.603,4.959 -1.831,0.845 0.354,2.064 1.069,1.822 1.537,2.433 9.179,8.57 -0.34,11.734 -3.743,4.794 1.496,4.983 5.169,-1.254 1.348,-5.014 2.923,-4.761 10.339,-6.768 9.018,-3.015 15.93,-13.022 5.62,-3.758 14.188,-8.525 2.23,-0.978 3.132,0.697 3.022,1.951 5.679,3.666 7.786,7.395 4.775,4.902 7.954,6.088 4.232,-1.848 8.828,-10.424 -1.996,-9.153 3.489,-4.346 6.914,-4.07 1.516,-0.652 4.58,0.529 1.979,0.244 14.019,0.568 3.52,-11.479 21.507,-10.851 4.67,0.8 z"
       
       title="Shiselweni"
       id="SZ-SH" />
</svg>
