<?xml version="1.0" encoding="UTF-8" standalone="no"?>
<svg
   xmlns:mapsvg="http://mapsvg.com"
   xmlns:dc="http://purl.org/dc/elements/1.1/"
   xmlns:cc="http://creativecommons.org/ns#"
   xmlns:rdf="http://www.w3.org/1999/02/22-rdf-syntax-ns#"
   xmlns:svg="http://www.w3.org/2000/svg"
   xmlns="http://www.w3.org/2000/svg"
   xmlns:sodipodi="http://sodipodi.sourceforge.net/DTD/sodipodi-0.dtd"
   xmlns:inkscape="http://www.inkscape.org/namespaces/inkscape"
   version="1.1"
   id="svg2"
   height="2220.1936"
   width="2259.7483"
   mapsvg:geoViewBox="-4.795521 51.086085 9.560043 41.365934"
   inkscape:version="0.91 r13725"
   sodipodi:docname="france-new.svg">
  <sodipodi:namedview
     pagecolor="#ffffff"
     bordercolor="#666666"
     borderopacity="1"
     objecttolerance="10"
     gridtolerance="10"
     guidetolerance="10"
     inkscape:pageopacity="0"
     inkscape:pageshadow="2"
     inkscape:window-width="1173"
     inkscape:window-height="688"
     id="namedview18"
     showgrid="false"
     showguides="true"
     inkscape:guide-bbox="true"
     fit-margin-top="0"
     fit-margin-left="0"
     fit-margin-right="0"
     fit-margin-bottom="0"
     inkscape:zoom="0.10093324"
     inkscape:cx="294.54312"
     inkscape:cy="1637.8679"
     inkscape:window-x="0"
     inkscape:window-y="0"
     inkscape:window-maximized="0"
     inkscape:current-layer="svg2">
    <sodipodi:guide
       position="598.94169,1634.7146"
       orientation="0,1"
       id="guide4146" />
  </sodipodi:namedview>
  <metadata
     id="metadata30">
    <rdf:RDF>
      <cc:Work
         rdf:about="">
        <dc:format>image/svg+xml</dc:format>
        <dc:type
           rdf:resource="http://purl.org/dc/dcmitype/StillImage" />
        <dc:title></dc:title>
      </cc:Work>
    </rdf:RDF>
  </metadata>
  <defs
     id="defs28" />
  <path
     title="Grand Est"
     id="FR-AO"
     d="m 1514.3751,228.3527 -19.2281,17.97795 -3.4886,7.07681 2.0073,17.29476 -14.9025,2.16835 -23.85,12.05213 -21.4649,-7.75257 -12.2509,2.54706 -2.2739,11.02736 5.9921,2.39112 -0.3777,8.7105 -7.4364,21.55719 6.9032,5.58422 -10.1992,14.14622 -9.2585,5.09412 -1.7777,10.9531 -11.6435,-1.14358 -2.7701,3.83916 8.5696,12.35658 -4.4366,6.38619 4.6663,4.94559 -5.9922,4.29219 4.2886,14.86649 -4.8218,1.75253 -0.2223,18.89871 -12.1397,-4.151 -5.6514,-7.10648 -10.7325,6.42326 -0.6814,8.55453 -11.562,-2.76981 -20.9021,10.33679 5.1996,19.01009 -3.8293,5.28724 4.4737,3.802 2.6146,-2.36142 2.5035,7.22533 5.3848,-1.02475 -0.1111,5.36142 -6.8291,3.98771 -13.0434,-1.97525 -3.3775,7.41835 5.881,10.18825 -8.0808,4.06935 -0.2666,5.58426 10.3177,-1.47774 4.2515,6.95801 -13.8063,12.92093 2.0443,4.14361 -4.6219,0.83912 -0.5333,5.93329 -6.6735,0.60886 -6.7476,14.33185 0.3038,9.1264 -13.199,1.25494 6.2958,4.3738 -7.7031,7.60399 11.6065,4.8269 -2.6887,24.48293 13.0805,-2.65847 -2.1999,3.19311 6.1847,3.87632 -9.14,2.81441 1.9332,3.53468 -7.7401,4.60399 2.5405,6.8392 -11.7176,3.2674 4.933,8.90353 -8.5697,2.54709 4.9626,21.32699 2.1998,7.49261 6.0291,-4.18813 5.881,2.32426 13.1619,15.62396 -1.5554,3.91341 6.5624,3.6164 -2.8886,8.55457 3.2664,1.63364 -6.6736,9.69077 8.1105,-1.24755 5.8069,11.78476 8.7549,-3.80203 -1.3258,-4.26242 5.3477,1.98272 -1.3629,7.86396 8.1105,3.46042 4.8959,17.37645 7.8142,6.84667 -5.1625,2.62127 1.9776,4.90104 4.4737,0.99509 2.2739,-5.36146 2.9553,5.13127 -2.9183,11.85905 17.2578,-3.11885 6.3329,4.06935 2.422,-4.82682 7.8883,4.64115 7.0216,-6.84663 1.9702,-1.06188 5.5329,4.25498 -1.1703,-6.08173 4.9626,-1.09904 2.8813,9.84668 7.5845,1.21042 3.4146,-8.55457 37.8117,-1.59655 -2.9182,-9.04464 6.7105,-5.3243 19.1096,1.21778 14.6433,4.2179 2.5405,4.06931 -3.8738,6.15602 9.5993,0.42329 3.1108,4.75254 -5.3107,7.411 4.5478,2.92579 1.4073,-5.01246 5.3033,-0.80199 5.881,12.81698 2.0887,0 6.0662,13.76005 -12.0583,9.57936 6.8217,1.21785 1.5184,17.79228 9.4807,-5.70304 0.1111,4.26238 5.0071,-0.69057 -1.1333,6.31192 10.0511,5.09414 9.5918,-7.90112 -0.7999,6.57189 13.5025,6.99514 -1.2147,10.6115 8.6512,-7.64116 7.6216,4.29211 2.6887,-3.26736 5.9921,-16.31449 18.1319,0.34889 6.592,-8.06449 4.6293,8.25008 14.7914,-2.92578 2.8442,-14.52492 -5.1551,-7.5669 2.3479,-9.77242 7.9623,0.19302 2.9998,-9.2377 10.5769,1.70797 -0.948,-4.411 4.5107,-8.28721 5.3107,1.48517 0.074,-6.04464 7.629,-12.08921 4.2812,2.16089 -5.0811,7.07679 3.4145,0.52724 8.3772,-4.82683 5.8439,-11.06441 15.0136,-3.72774 0.3852,0.26735 1.7406,12.17097 8.7252,6.87633 0,1.21785 29.1236,-6.72782 7.2439,4.44805 6.7476,13.19572 19.6799,-14.18331 6.755,9.88376 29.805,19.24033 4.7404,9.23771 11.6435,2.70306 15.2061,11.25013 1.4814,11.94077 -6.3699,16.23285 12.7027,2.16831 8.9845,15.89128 -1.6665,5.05698 10.925,2.0941 -5.007,11.66599 9.7844,1.06935 1.7406,4.18073 13.4285,-4.64116 9.0956,2.13119 10.888,-9.05207 -5.4588,-2.16096 1.6665,-3.46043 8.9845,3.00008 3.5701,-3.64609 -2.1258,-5.21296 5.1922,-1.70793 -4.9626,-2.70303 13.273,-8.43571 1.2888,-6.69066 -12.5545,-21.71316 5.7254,-8.51744 -2.8812,-10.64119 4.2441,-23.42106 10.3547,-21.82453 -8.303,-14.63634 1.1332,-20.38385 14.11,-23.87411 4.2071,-18.93588 8.1178,-6.00748 -1.9331,-15.92844 5.6513,-22.73783 5.9181,-5.81445 -0.9481,-16.5002 6.1403,-13.57442 19.6428,-19.27745 1.2518,-8.40606 18.5096,-10.79721 9.3622,-24.40868 13.1249,-14.74771 -21.9612,-5.74016 -25.0647,-16.31457 -10.6213,5.85901 -11.3769,-7.75997 -9.2511,5.36142 -0.4518,-3.11885 -15.021,0.72774 -0.874,-4.64115 -16.2654,-5.81438 -5.3847,-17.15373 -9.1771,1.03219 1.3999,-4.56686 -12.5471,2.93318 -0.3852,6.76495 -5.7254,-0.0739 -5.0811,6.87636 -7.5476,-3.609 -13.9914,2.27973 -9.103,-8.5174 -7.5031,10.00261 -2.7331,-18.47553 -14.984,-7.75993 -15.7691,2.43567 3.7479,7.67828 -4.1701,6.65353 -15.2432,-2.65843 -4.2441,-5.55448 1.8961,-7.44817 -4.4366,0.56437 -1.0296,-8.13127 -4.5107,-2.20545 1.4443,-5.09414 -16.1987,-16.20319 5.3107,-4.48518 -9.6289,-8.85904 2.6517,-4.5966 -20.1391,-13.30706 -10.0881,3.9877 -19.791,-13.0769 -17.5986,5.05694 -4.2441,9.57932 -4.2515,-3.26733 -4.9256,4.71541 -9.4436,-0.83912 -2.4295,-10.29962 -15.3617,-1.29215 -4.9626,-10.64859 -10.088,-4.98275 -4.2886,5.89608 -16.3024,-2.74011 -4.8589,10.38131 -8.6437,-5.50993 -13.1989,7.78966 -2.7257,-16.91604 -5.807,-8.01989 -3.5627,-3.84659 -7.5475,-3.49756 -5.3477,4.79709 2.7701,-10.38132 -9.6362,-10.18824 -16.4209,0.60892 -11.3324,-16.92348 -15.5914,-9.08921 -22.6352,1.71537 3.6367,-6.50504 -4.3626,-11.48033 6.4884,-10.45558 -15.5469,-14.48779 8.1104,-16.95318 -3.333,-6.61642 4.8885,-8.9704 3.3034,3.34163 -0.6888,-7.7897 4.5182,-4.18818 -9.5548,-4.29213 -1.7851,-3.5347 z"
     inkscape:connector-curvature="0" />
  <path
     title="Nouvelle-Aquitaine"
     id="FR-AC"
     d="m 757.96193,941.95291 -4.17004,3.46046 -4.58483,17.03488 -7.88826,-3.27483 -6.79203,10.76001 -7.85121,-3.72028 5.76989,-7.68575 -6.52539,-1.13621 -3.22196,3.26744 -9.63628,-2.65847 -20.59091,3.34161 -1.74062,5.66594 -11.60649,3.08169 3.41454,-6.50498 -5.54026,-0.45303 -9.71035,4.48521 2.01466,7.29959 -8.68817,8.21295 -11.22134,-1.44804 -6.94019,4.44809 -11.45093,-4.93817 -10.24361,8.21292 -6.86613,-1.06927 5.12551,2.88866 -2.3183,3.72778 4.77737,0.15624 -1.81465,2.50996 8.1549,3.07429 -3.64416,8.3318 8.76227,10.3368 0.64438,0 6.25876,4.2253 1.0962,0 4.13302,2.6956 -3.1479,2.9257 0.15548,0.9505 -0.38514,8.5545 10.01402,12.6611 -3.68121,3.1931 6.718,5.2501 -3.41454,6.2005 6.74758,3.3417 -2.04427,10.567 3.67378,9.854 -6.85869,2.7327 6.17726,14.978 -5.15513,13.1214 3.29603,1.4406 2.31834,-5.0941 10.4658,6.6164 -17.02824,15.5497 -7.92531,-1.9382 -3.79229,5.3243 -16.61344,-8.057 -0.68144,-0.995 -2.95532,5.6287 -5.7625,-2.1312 -7.0587,3.7649 -4.66629,-2.8144 4.96998,-11.057 -19.48731,4.8267 -3.34048,7.411 -6.44393,0.1559 -2.8072,3.3045 3.63676,9.661 -14.18402,10.9828 -5.87361,10.916 4.88848,4.1807 8.95485,-2.703 -3.71823,4.3738 7.08832,2.4728 -2.23684,4.6411 6.5624,2.6214 7.69569,20.9111 -10.65098,-0.074 5.68843,5.3985 0.82956,6.7278 -3.45159,0.9505 3.98486,8.4803 -6.29576,11.0199 -10.01403,1.2996 7.13276,11.3615 -16.30979,3.8021 0.22943,21.067 2.3109,4.5595 -1.82208,-4.5966 4.28855,-0.9134 28.67178,16.6487 8.41414,13.9977 23.66474,15.3196 10.16216,14.9036 6.25875,21.9359 0.10353,0.01 7.33273,43.9833 11.56204,26.8815 -14.97658,-14.6363 -17.97635,-60.528 -41.30036,-37.1069 2.12576,-4.1882 -3.97746,-0.2597 6.06618,-1.0694 -3.34047,-8.3986 -5.27367,3.8763 -9.82142,18.1338 -16.45792,187.7846 2.39236,3.9505 2.23688,-17.2948 10.27324,-18.2898 21.01314,17.5621 -5.61437,0.082 8.11784,3.8393 2.16282,9.4679 -29.84947,-5.057 -9.93253,25.3593 -6.29577,73.1518 -23.55367,122.8753 -24.19066,46.5376 -10.58431,9.6982 -19.07255,3.2302 0.2666,5.057 7.76975,4.4109 1.2962,7.3739 16.53199,-2.2797 2.50351,11.9036 5.04405,0.4901 2.11833,-8.3244 4.36261,-1.2178 23.05741,7.76 1.02214,14.8219 -5.11811,13.27 -9.2511,8.4803 5.19218,9.0521 13.53964,3.802 1.51839,-14.2205 11.53242,-5.1312 -6.03656,10.7527 7.32533,5.3613 5.30329,-2.5098 10.24361,4.2995 3.37009,5.859 4.39966,-3.4605 26.93116,15.2082 29.80503,-3.156 3.4886,15.3566 8.45858,2.5471 19.90951,22.9681 7.20683,-10.6116 10.00659,6.8467 7.58458,-0.7649 12.82119,-10.8343 -2.23688,-14.5621 7.28092,-3.5718 -1.06658,-15.3194 4.28855,-6.8467 12.70268,-3.1559 -2.04431,-13.4185 7.39201,-3.156 4.51077,-11.0274 7.81416,0.646 -0.83696,-9.9208 3.75524,0.9059 5.04404,-11.213 -4.54778,-6.6907 11.94718,-9.6982 -5.23662,-5.6213 0.45925,-15.817 -10.47324,7.4481 0.22982,-11.2872 7.47346,-1.9456 -7.54756,-16.4631 -4.28851,1.0322 -0.45185,-8.3689 -12.70269,-3.1189 -9.67329,2.9704 -1.36283,-7.1883 -5.0811,-0.5718 -0.34055,-5.3613 6.25136,-2.5471 -1.20731,-11.4061 8.68077,-6.5348 -5.00699,-15.4383 5.19957,-0.3784 -2.39241,-10.4185 3.48864,-2.3168 -8.37712,-6.3937 9.43627,-9.0818 13.16193,2.354 9.3696,-12.2007 6.78463,6.6165 -4.36261,5.4357 12.59157,7.1808 2.69609,-4.4852 -3.22196,-9.7724 11.22134,-8.8145 4.66626,6.3119 5.5329,-9.2451 6.18469,-1.5149 10.96207,6.8392 2.23688,-4.1065 20.1317,-4.2921 2.96272,-5.9704 14.93953,0.1855 5.84399,-5.5099 11.14724,12.2452 12.02124,-8.1758 2.77016,-10.0027 6.51799,-0.7945 -1.39989,-7.114 11.48798,3.7278 5.04405,-2.4728 -1.36288,-8.1313 -5.04404,-1.9827 8.37712,-1.4406 6.94019,-18.327 -12.8138,-7.8342 4.24411,-15.5868 3.79228,-0.6461 3.30343,8.5546 1.66655,-3.609 17.25787,-0.8762 -0.91106,-13.4259 -5.95507,-3.9506 -0.0739,-13.5002 -5.57731,-8.2129 5.31068,1.5594 13.99145,-8.0199 -1.51839,-4.4481 9.29554,-10.0397 -0.94807,-6.8392 11.86572,-3.0446 14.45071,-12.4679 -2.77016,-12.3566 10.65838,-3.3491 -0.64439,-7.2253 12.32494,-7.9085 -4.39963,-7.0694 4.54779,-1.3293 -4.43671,-17.0719 -0.64438,-2.6213 5.95506,-3.4234 0.0379,0 14.18403,-6.0074 1.21475,3.8762 15.85053,0.2674 16.3839,20.3023 8.1178,3.2302 16.6802,-12.2007 6.2587,5.6288 5.9551,-4.8713 11.8731,-0.3784 6.2514,-1.6337 1.3332,0.3417 5.2292,-4.3739 -6.9772,-13.0398 11.7176,-4.9455 1.0221,-12.2378 8.3104,-6.3491 -4.9699,-3.5347 -1.0592,-9.015 26.0868,-25.775 -1.7406,-16.8418 20.7761,9.3862 7.5105,-4.9382 -6.4069,-6.0891 4.7774,-30.3346 -8.8733,-9.3936 3.9033,-10.0769 5.6144,-0.3045 0.3037,-15.3196 -21.3093,-25.968 10.7324,-9.2378 0.6814,-0.1555 5.0071,0.6906 10.0806,-11.2576 1.2147,-9.7352 7.4365,-3.4605 -1.5555,-14.2575 -8.1178,-11.5917 2.4665,-15.7057 -13.1619,-28.3593 -7.9994,-3.6535 -1.5925,2.9703 -5.3107,-11.0273 -3.5997,4.8268 -9.8584,-7.4927 4.9626,-6.6164 -7.318,-2.0866 -1.0962,-8.7477 -13.1989,-1.9753 -17.0283,4.2179 -17.2579,-7.5669 -21.9908,3.9579 -8.8363,-7.0322 -5.5774,1.4406 1.9703,5.6659 -4.8885,8.0199 -6.8291,-6.4233 -8.9845,6.9209 -2.9997,-7.6041 -10.16213,6.5793 -2.99238,-7.7971 -17.40599,18.4012 -9.67329,-12.2378 -6.40692,1.099 -1.51839,5.3615 -13.38409,1.292 -1.48138,-5.547 -4.88848,1.1732 0.11111,-0.074 2.88123,-3.8392 2.42945,-7.2624 -9.63628,-3.4233 -1.02213,-13.3813 -8.11785,-6.6908 -11.48797,0.074 -0.87401,-7.0322 -16.34685,-7.7972 -2.84421,-6.4605 5.5403,-14.8293 -2.27389,-7.5298 -15.36172,-14.2947 -2.95533,-13.9161 -14.45066,-12.3194 -2.00726,-16.23286 -11.6435,-7.7897 -7.85125,0.30452 4.77741,11.28729 -14.56178,-0.37847 -10.57695,6.76487 -11.53238,-4.59656 -6.56244,4.33667 -5.08106,-13.80464 3.34043,-1.86387 -1.48134,-12.20059 -5.45881,1.97521 -3.64416,-6.69065 -10.50285,2.85153 3.41454,-7.52981 -2.88127,-5.47284 -3.11085,3.26736 -4.28855,-1.44805 0.83696,-4.10644 -9.44367,1.37376 -4.13298,-10.38131 -5.61437,-2.54709 z m -240.88431,210.74509 -7.99937,3.1932 4.43667,9.4679 11.3028,-0.038 24.00548,13.4557 9.09557,-4.5224 -18.01336,-10.4926 -9.44371,1.7079 -2.23684,-2.8069 4.17743,-3.765 -13.88038,5.9259 -3.03678,-5.7402 7.35499,-1.0619 -5.7625,-5.3244 z m 16.27274,47.5996 3.25902,21.3716 18.54664,16.5002 5.99211,18.3641 7.01426,-13.6116 -7.85121,-15.6239 -0.2666,-12.4754 -12.21382,-2.3169 -14.48032,-12.2081 z m 207.28704,592.1285 1.47395,0.7277 0.91102,13.567 -2.57754,-0.6089 -3.79229,-3.6461 4.5848,-1.8639 z m -3.11089,13.7304 0.91106,0.6014 3.9034,9.5868 -6.56244,4.7154 -2.95533,-6.6535 3.07384,-7.3442 1.0962,-0.8317 0.53327,-0.074 z"
     inkscape:connector-curvature="0" />
  <path
     title="Auvergne-Rhône-Alpes"
     id="FR-AR"
     d="m 1232.1164,1029.7411 -17.4061,0.453 -11.7175,15.4383 -7.5105,-2.0866 -5.9181,4.1065 -7.1253,-6.5051 -2.2443,6.1189 -12.1694,6.505 0.5703,7.2625 -3.6071,-2.9258 -5.4958,2.8515 4.0589,4.5224 -4.6292,6.9951 5.881,3.2674 1.7035,9.4308 -12.2879,7.8342 -7.8068,-3.0817 -19.8725,3.6535 -5.918,10.5298 -3.9034,0.038 -2.8072,11.5175 1.0963,8.7476 7.3179,2.0866 -4.9626,6.6165 9.8585,7.4926 3.5997,-4.8268 5.3107,11.0273 1.5924,-2.9703 7.9994,3.6535 13.1619,28.3593 -2.4665,15.7057 8.1179,11.5917 1.5554,14.2575 -7.4364,3.4605 -1.2147,9.7352 -10.0807,11.2576 -5.007,-0.6906 -0.6814,0.1563 -10.7325,9.2377 21.3094,25.9681 -0.3038,15.3195 -5.6143,0.3045 -3.9034,10.0769 8.8734,9.3937 -4.7775,30.3345 6.407,6.0892 -7.5105,4.9382 -20.7762,-9.3863 1.7407,16.8418 -26.0869,25.7751 1.0592,9.015 4.97,3.5347 -8.3104,6.349 -1.0222,12.2378 -11.7176,4.9456 6.9773,13.0398 -5.2293,4.3738 -1.3332,-0.3417 -6.2513,1.6337 6.518,12.2824 -1.8591,10.4184 12.6656,18.8171 -6.5921,20.3393 4.5848,0.2302 1.8592,12.6239 5.3107,4.5966 1.9702,-7.1436 12.3249,-4.0323 4.97,-0.4529 4.0589,6.6164 20.702,-2.2501 2.4665,-8.4728 9.5548,-6.8838 -1.6295,-7.3738 7.9623,-8.5546 0.6815,-11.9407 20.8205,-21.2156 5.881,6.505 -0.2298,12.468 13.6507,-4.1065 4.5182,18.8616 5.0811,-0.9505 2.6146,4.3293 -4.0219,2.8144 3.9478,18.0224 7.0883,7.8715 9.0289,-15.78 1.0963,-18.7056 4.1329,-8.3244 4.1701,0.8689 0.7259,-7.1066 0.911,0 3.4886,-8.406 9.5177,9.1263 6.9402,-5.5842 0.9111,-10.6486 6.8957,1.9381 13.4656,-10.7229 6.9402,7.4184 0.2666,9.6536 9.6288,19.7304 17.406,-3.6831 0.8,-11.0275 5.7254,-1.2178 6.8291,5.4728 -1.0666,6.2006 12.1028,-2.094 2.7997,8.2946 7.6291,8.0199 5.2662,-1.6708 -1.1333,5.3985 3.9183,0.7723 6.5476,33.0227 7.8068,5.213 5.6143,21.7428 12.7027,14.718 -4.4737,3.0818 1.2147,15.8913 12.8953,-3.8764 20.0576,15.7353 10.888,-16.1215 10.3547,-1.7821 0.563,12.3195 6.6809,1.5965 2.385,-12.1339 8.1919,-1.1732 22.6797,16.0769 0.1851,-13.0769 21.7315,3.6906 4.7774,18.8543 37.9229,-17.5993 7.6586,6.6165 6.681,-7.0398 2.5035,-1.1732 -2.3183,18.2452 12.2138,4.5669 3.0738,-4.411 7.6957,5.3244 8.9845,-1.6039 4.6663,3.0817 -0.3038,9.8837 8.266,0.7649 3.0738,7.1065 13.6137,-2.9258 9.4808,-12.8912 5.955,5.1758 -1.3258,3.802 7.429,0.9134 0.6445,-3.7649 -6.2144,-1.7525 6.7847,-5.3986 0.038,-15.5497 -6.2143,0 -1.674,-7.4109 -4.5107,-1.2178 3.3405,-6.0075 -12.8212,0.7202 -4.1701,-4.5223 -4.4366,2.8886 -9.9029,-8.1758 -1.7777,-11.0645 9.103,1.2921 3.296,-3.9134 -5.2736,-2.3168 -1.0221,-11.3319 24.5757,6.1189 2.2739,-6.312 5.5774,-0.4901 -10.5473,-9.1634 8.0067,-14.9854 -0.7629,-8.8145 13.5397,2.8145 3.1849,-5.1016 6.3328,1.901 6.4513,-8.1684 -4.9699,-3.5421 4.4367,-11.7477 8.7993,2.8961 10.7694,-3.1189 4.5849,-4.6782 -4.8515,-5.1684 10.7325,-6.8466 6.1032,4.3366 12.2138,-10.7228 17.8578,2.7327 6.9402,-4.864 10.1251,4.2179 0.3852,-18.7799 -5.5773,-3.2302 0.1926,-10.0027 -18.8133,-3.8762 6.4884,-23.2652 7.6216,2.7699 6.1773,-3.3788 4.9699,11.8219 13.5767,4.0694 5.6144,-0.6832 -0.9851,-8.4432 4.7403,-3.646 4.9256,2.1238 5.7255,-5.3615 8.3104,3.3119 21.5019,-11.0645 12.7768,7.2254 6.9402,-2.1312 0.038,-7.0695 8.266,-0.3045 8.8363,-11.2947 10.7695,1.8639 10.2807,-9.8838 -3.9034,-16.0101 12.1324,-17.5621 -11.451,-6.1189 -2.3183,-8.1758 -7.9623,-0.5718 0.8369,-5.0199 -8.5696,-2.3168 -3.6442,-18.6315 3.6071,-11.6734 -13.3174,-2.6584 -17.0209,-16.6562 2.0813,-25.1289 14.5989,-0.8763 13.1248,-7.0694 7.5105,-11.6363 -1.0295,-7.0322 -16.1542,-25.0177 -9.2882,3.6907 3.5997,-17.3023 -15.9617,-2.9628 1.0962,-15.0225 9.5622,-17.4136 -14.7914,-16.9531 7.7698,-16.3517 -21.7242,-6.2749 -25.6794,-0.5272 -41.9818,22.1215 -5.0367,10.9903 4.3182,1.901 2.0147,11.8665 7.6957,-1.0693 -2.2369,7.0322 -26.2794,19.3963 -12.0213,-2.7401 -14.8654,5.3243 5.8365,-12.0521 -4.7403,-3.4233 2.4294,-4.5595 22.7167,-7.8342 -3.533,-7.7601 10.6584,-18.6685 -16.5691,-11.213 -30.7605,34.4484 -22.7092,0.8689 -1.8221,-11.02 -10.5843,-3.3861 -0.5629,-4.6783 -16.3839,17.3393 -10.2807,0.9505 0.2295,-11.6735 -6.0292,0.038 -2.0146,-7.4111 -3.222,8.5175 -6.6735,-13.6115 2.5035,-2.7402 -12.2509,-7.0323 2.4295,-7.5669 -12.362,-2.6585 -4.6293,-10.8788 -6.0291,-3.0743 -0.1851,3.4605 -17.2949,4.5594 -11.4139,-7.0323 -5.2736,3.1932 -1.5184,-4.0323 -25.3683,77.9787 -3.3776,0.9505 -6.1402,-5.0941 2.6146,-8.7848 -8.9104,-5.8144 4.8885,-4.4852 -4.8515,-6.2748 -6.7105,1.1807 -2.9998,8.0941 -7.8512,-6.4605 -10.1251,5.9705 -7.1254,-6.7278 -8.3474,0.3045 -5.1922,25.0102 -15.3173,6.7352 -4.0219,-0.5346 0.7184,-6.5793 -4.4736,2.2426 -2.8443,-3.802 -4.6292,4.6782 -11.8657,-5.6659 -17.8653,6.6907 -2.6146,-7.604 -12.9693,-2.6585 1.3629,-13.9902 7.4734,-10.4185 9.14,-1.3292 -3.1108,-0.3045 -1.3629,-15.8914 3.7108,-14.4507 -7.8068,-7.1065 -12.7471,1.0991 -4.7403,-9.8838 -5.2663,2.8886 -10.014,-4.5594 -0.874,-14.525 -15.4728,-24.0671 -2.1184,-10.9902 -5.7328,-1.5966 1.2887,8.5917 -7.7697,0.3416 2.0813,7.76 -16.3765,8.5917 -5.6884,-14.3318 -6.5254,0.3045 -5.081,6.5718 -12.2509,-7.5669 -10.9177,9.3194 -22.3019,-17.1462 -4.207,-10.0397 z m 305.805,531.4891 0.6444,1.6709 1.6369,0.1854 1.8961,2.2055 11.0362,6.7352 0.1111,1.2921 -7.5105,3.5348 -5.7255,14.9036 -15.3617,-2.5842 -2.4591,-9.9284 5.7255,-10.3739 1.3628,-2.4356 1.2148,-0.6461 2.5775,-0.646 4.8515,-3.9134 z"
     inkscape:connector-curvature="0" />
  <path
     title="Bourgogne-Franche-Comté"
     id="FR-BF"
     d="m 1286.3046,655.09299 -1.7406,6.53479 -4.5552,0.60889 -30.7161,-0.68322 -5.8365,5.62882 -8.8364,-2.47284 -5.044,12.84672 5.044,13.08434 -6.755,10.11399 -10.5398,5.54705 -0.038,4.78966 14.5618,7.03974 -2.1257,4.06188 3.1108,-0.22261 2.1999,10.29967 11.7916,10.22537 -3.9775,2.43563 4.5108,10.99024 -5.2366,6.1189 -0.9481,0.80199 -12.5101,8.74016 -2.1258,9.1264 5.7996,4.10648 -1.1333,14.75515 -27.3459,6.91341 -0.6074,9.4679 4.8219,-0.79448 7.5031,9.00752 4.2885,8.59169 -2.6516,10.79713 6.2883,6.88373 -18.2355,5.21295 0,-0.83912 -1.9702,2.92579 13.0063,23.27258 -9.9399,23.15374 17.9393,17.79227 7.6957,32.54746 -2.0073,13.15112 9.4437,9.35656 0.2666,15.69821 -4.7404,11.10165 3.1109,12.8541 -5.9551,13.0769 4.2071,10.0397 22.3019,17.1462 10.9176,-9.3193 12.2509,7.5668 5.0811,-6.5718 6.5253,-0.3045 5.6885,14.3319 16.3764,-8.5918 -2.0813,-7.7599 7.7698,-0.3417 -1.2888,-8.5917 5.7329,1.5966 2.1183,10.9902 15.4728,24.0671 0.8741,14.525 10.0139,4.5594 5.2663,-2.8886 4.7404,9.8838 12.7471,-1.099 7.8068,7.1065 -3.7109,14.4507 1.3629,15.8913 3.1109,0.3045 -9.1401,1.3292 -7.4734,10.4185 -1.3629,13.9902 12.9694,2.6585 2.6146,7.604 17.8652,-6.7278 11.8657,5.666 4.6293,-4.6783 2.8442,3.802 4.5107,-2.2426 -0.7184,6.6164 4.0218,0.4975 15.3174,-6.7352 5.1995,-24.9731 8.3401,-0.3045 7.1328,6.7278 10.1621,-6.0075 7.8512,6.4605 2.9924,-8.0571 6.7105,-1.1807 4.8145,6.2748 -4.8885,4.4852 8.9104,5.8144 -2.6146,8.7848 6.1032,5.0942 3.4145,-0.9134 25.3684,-78.0158 1.5184,4.0693 5.2736,-3.1931 11.4509,6.9951 17.2949,-4.5222 0.1851,-3.4606 5.9921,3.0744 4.6663,10.8789 12.362,2.6584 -2.4221,7.5669 12.2435,7.0322 -2.4665,2.7402 6.681,13.6115 3.2219,-8.5174 2.0073,7.411 6.0291,-0.038 -0.2666,11.6733 10.2807,-0.9505 16.3838,-17.3393 0.5703,4.6783 10.577,3.3862 1.822,11.0273 22.7167,-0.8762 30.7161,-34.4856 1.2517,-10.6487 13.236,-18.8541 -7.2809,-7.1882 53.8105,-45.4684 -3.3775,-8.5545 5.2366,-17.6438 -5.0811,-9.00756 10.2363,-10.64867 19.6058,-4.29958 15.4358,-13.38135 -2.5776,-7.18817 21.4279,-15.46805 3.1479,-3.65346 -2.7702,-1.63371 17.9393,-16.42592 -1.9331,-10.34418 8.4141,-1.7451 2.1628,-6.95797 7.1328,-2.13123 -1.0666,-6.61644 -5.1181,-2.46537 -21.6131,4.67085 9.6288,-18.62393 9.7104,-4.83425 -2.9627,-9.42338 23.5536,-2.0941 1.6665,-5.05698 -8.9844,-15.89128 -12.7027,-2.16831 6.3699,-16.23285 -1.4814,-11.94078 -15.2062,-11.25016 -11.6435,-2.70303 -4.7403,-9.2377 -29.8051,-19.24036 -6.755,-9.88373 -19.6799,14.18331 -6.7476,-13.19572 -7.2439,-4.44805 -29.1235,6.72782 0,-1.21785 -8.7252,-6.87633 -1.7406,-12.17097 -0.3852,-0.26735 -15.0136,3.72778 -5.844,11.06441 -8.3771,4.82682 -3.4145,-0.52724 5.0811,-7.07678 -4.2812,-2.16093 -7.629,12.08925 -0.074,6.04464 -5.3106,-1.48518 -4.5108,8.28721 0.9481,4.411 -10.577,-1.70793 -2.9997,9.23767 -7.9623,-0.19303 -2.348,9.77239 5.1551,7.56694 -2.8442,14.52491 -14.7914,2.92575 -4.6292,-8.25004 -6.5921,8.06445 -18.1318,-0.34889 -5.9922,16.31449 -2.6886,3.26736 -7.6216,-4.29211 -8.6512,7.64116 1.2147,-10.6115 -13.5026,-6.99514 0.7999,-6.57189 -9.5918,7.90112 -10.051,-5.09414 1.1332,-6.31192 -5.007,0.69057 -0.1111,-4.26241 -9.4807,5.70303 -1.5184,-17.79224 -6.8217,-1.21785 12.0583,-9.57936 -6.0662,-13.76005 -2.0887,0 -5.881,-12.81698 -5.3033,0.80199 -1.4073,5.01242 -4.5478,-2.92579 5.3107,-7.41096 -3.1109,-4.75254 -9.5992,-0.42329 3.8738,-6.15602 -2.5406,-4.06931 -14.6432,-4.2179 -19.1096,-1.21778 -6.7106,5.32426 2.9183,9.04468 -37.8118,1.59655 -3.4145,8.55457 -7.5846,-1.21042 -2.8812,-9.84668 -4.9626,1.09904 1.1703,6.08173 -5.5329,-4.25498 -1.9702,1.06188 -7.0217,6.84663 -7.8882,-4.64115 -2.4221,4.82682 -6.3328,-4.06935 -17.2579,3.11885 2.9183,-11.85905 -2.9553,-5.13127 -2.2739,5.36146 -4.4737,-0.99513 -1.9776,-4.901 5.1625,-2.62127 -7.8141,-6.84667 -4.8959,-17.37645 -8.1105,-3.46042 1.3628,-7.86396 -5.3477,-1.98272 1.3259,4.26242 -8.7549,3.80203 -5.807,-11.78476 -8.1104,1.24755 6.6736,-9.69077 -3.2665,-1.63364 2.8887,-8.55457 -6.5624,-3.6164 1.5554,-3.91341 -13.1619,-15.62392 -5.881,-2.3243 -6.0292,4.18817 -2.1998,-7.49265 -6.0662,-2.31686 z"
     inkscape:connector-curvature="0" />
  <path
     id="FR-BT"
     title="Bretagne"
     d="m 243.57862,892.8305 4.70243,5.66507 9.55657,-0.22792 2.76837,8.09828 12.28701,3.49785 -2.12368,6.46346 -25.71171,-3.80199 -3.90606,-11.48214 2.42707,-8.21242 z m 3.64059,-349.10201 0.79638,8.47853 21.12304,-8.5926 0,11.55817 11.6044,-0.72239 1.21353,5.58899 -6.21935,4.67646 18.08921,5.85514 -2.61667,8.28839 20.17496,17.1852 -0.75845,12.73678 17.02737,9.39103 -4.20944,7.41396 4.43697,-1.86304 6.10559,10.64571 -1.36523,-10.64571 8.68434,2.50936 11.45271,-18.51588 12.74208,-5.43689 -2.35121,-5.36082 8.07757,-1.825 2.73045,5.58896 15.96553,-14.14352 5.49881,4.82857 -8.41888,11.52013 3.6406,2.39525 11.1114,-8.17432 5.15751,13.64928 -2.1616,8.78267 4.43697,-14.4477 2.65461,8.25038 4.51282,-9.96131 4.09567,4.14421 -4.32321,-7.79414 16.45853,-1.29267 1.6686,9.31496 6.2952,4.10617 -2.84421,2.58539 6.6365,6.61553 -1.97199,11.55817 3.22344,-7.29992 4.1336,1.40671 -7.58458,-15.17006 6.18143,3.30775 -2.12368,-5.05664 -8.15342,-1.71093 2.38914,-4.03021 -5.61258,-4.60039 6.56065,-11.63424 23.32257,-6.88168 1.21353,7.83218 -5.15751,9.84728 14.22108,8.09835 32.38613,-7.22389 0,0 13.12132,34.56044 10.58048,6.69157 10.6184,-1.901 15.77592,-17.83152 28.93515,8.47857 0,0 -1.74445,22.2418 5.65051,20.34084 -8.79811,14.82788 3.52683,14.86592 0,0 0.64469,0.60836 0,0 9.13941,46.61282 -21.80565,9.01078 -14.41069,44.17958 -18.35467,-5.28482 -3.90606,-6.80564 -14.259,-1.67289 0.91015,7.56603 -23.47426,9.23893 -5.95389,12.6227 -31.51391,0.22792 -14.94161,8.70667 -2.88214,-5.24682 -17.10322,10.2655 -2.57875,27.29855 -9.32903,2.62335 -0.98599,7.414 -3.37514,-5.32289 -9.44279,4.22024 -8.4568,-5.05663 -2.95799,12.85081 -13.273,1.10257 -3.41306,-4.82853 -5.42297,6.72956 0,0 -5.91597,-0.45625 -0.986,-9.8092 9.55657,-1.44479 -10.80802,-6.04521 -48.16205,8.85871 -15.09331,-15.58831 -8.15341,-0.0379 -4.17152,-6.12129 -2.38914,3.07968 -3.18552,-6.00725 0.75846,5.81711 -16.26892,-0.49421 -0.72053,13.00291 7.58457,10.49357 -8.11549,-1.02654 -4.92998,-13.07899 4.32321,-3.61193 -2.27537,-11.86231 -21.50227,-20.98716 -11.71817,-0.15245 -0.8343,-5.81707 -13.80393,3.49786 -11.6044,-15.89249 -23.89141,-2.88954 -7.66042,-6.7676 -20.02327,3.34578 -7.43289,-10.26545 3.22345,-5.66507 -4.55075,2.01507 -5.61258,-12.28053 -6.75027,4.48643 2.27537,6.7676 -10.50464,2.73746 -10.1254,-6.6916 -6.40897,3.45985 -7.053655,14.14357 -27.72162,0.0379 1.478992,-21.48145 -9.89787,-17.52734 -14.107309,-10.07539 -9.177336,1.25464 -9.973715,-6.7676 -16.4585274,-2.43329 4.7403594,-1.06457 -1.213532,-4.94264 46.910594,-9.99935 17.558291,4.18225 5.953891,-9.5811 -7.622498,-17.48931 -23.284644,-8.28842 -5.536739,1.59685 -9.442796,14.59978 -2.085758,-15.1701 4.550745,-3.45982 -12.324934,-1.25467 -1.061841,-5.96922 9.215259,-0.60828 -0.26546,-11.4821 6.181428,-2.43332 -3.678519,8.97274 3.223444,4.41036 5.650509,-6.46343 -0.492998,7.22389 8.001727,-3.72599 8.418877,5.1707 14.334847,-5.47488 7.319114,4.18225 6.143506,-7.94629 -4.095671,3.42182 -14.107309,-3.72592 5.422971,-3.68796 -4.550744,-2.16722 2.12368,-5.36081 -8.646415,8.55452 -6.86404,0.38022 3.109676,-4.18225 -9.594487,3.72604 9.139412,-13.42121 -3.716441,-2.96557 -28.935153,13.61128 -11.604399,-4.03018 -4.171516,5.66503 L 3.5268272,671.85619 0.75845747,664.29016 5.2712794,659.30944 0,651.9716 5.385048,639.19674 2.8821384,627.75268 l 7.3949606,-9.65717 18.809745,-4.82857 0.720535,-6.57749 6.636502,1.48278 3.375136,-9.27692 6.788195,3.76396 15.396686,-3.84003 -5.574662,-4.10622 14.259,-5.39885 7.887958,3.00365 0.03792,7.37588 15.851761,-4.33432 -4.285285,-1.63485 5.688431,-6.72957 13.614319,-2.01511 6.40896,4.56247 0.94807,-7.07178 7.16743,-5.13275 0.98599,3.76403 4.85413,-3.72603 -0.26546,12.69877 6.33312,2.69947 0.94807,-8.59257 0.30338,5.8931 12.17325,3.23179 -1.40315,-6.91971 3.71644,-5.96917 1.70653,3.26971 -0.45507,-4.41036 22.60203,7.90825 5.65051,-2.31929 -2.3133,8.85875 5.57466,-6.53946 6.48482,3.80199 -0.26547,-12.96488 5.49882,-4.94264 -5.65051,-2.88953 2.76837,-9.08685 -3.1476,-2.62339 5.08167,3.45985 7.92588,-11.40606 2.04784,4.52439 1.70652,-4.10621 3.33722,5.24674 4.89205,-1.2546 -2.00991,5.43685 6.71234,-0.49421 12.28702,-9.12489 8.94979,0.9505 6.18143,-7.98425 z"
     inkscape:connector-curvature="0" />
  <path
     id="FR-CN"
     title="Centre-Val de Loire"
     d="m 991.30391,526.42925 9.74619,11.97642 -2.73046,4.82857 8.26716,7.37592 -2.6546,18.74403 7.1295,3.42178 -7.85,10.4936 5.5367,3.34578 -1.5927,5.665 10.0495,12.12849 7.6984,-0.0758 -0.9481,8.89674 12.287,5.58904 -1.7824,9.58102 4.0578,11.06392 10.7322,6.23536 9.5186,-3.95415 -0.3792,12.09042 7.8121,1.06461 1.6686,9.01082 -4.7783,12.5467 2.3133,5.17071 30.0728,-2.47124 -1.8582,-4.14429 4.6645,1.10261 3.4131,-7.7561 6.7123,2.88949 -0.076,7.90829 8.4189,-3.26975 0,0 0.8343,-1.55889 0,0 3.7543,-3.34579 4.93,5.96918 7.1295,-1.86297 3.0718,13.23107 14.714,7.98428 0.076,13.83931 -5.423,0.57032 -6.2193,9.6191 18.203,-4.03014 23.0191,4.14425 7.6605,-5.17079 -2.8063,-5.05667 4.1715,3.15571 5.6884,-3.61192 3.2235,9.16285 7.357,-6.19732 11.1493,-1.63489 0,0 14.5624,7.03378 -2.1237,4.06814 3.1097,-0.22792 2.1995,10.30353 11.794,10.22742 -3.9819,2.43329 4.5129,10.98784 -5.2334,6.12129 0,0 -0.9481,0.79843 0,0 -12.5145,8.74463 -2.1237,9.12489 5.8022,4.10617 -1.1377,14.75189 -27.3424,6.91963 -0.6067,9.46703 4.8162,-0.79835 7.5087,9.01078 4.2853,8.5926 -2.6546,10.79774 6.2952,6.88164 -18.2409,5.20882 0,0 0,-0.83647 0,0 -1.972,2.92757 13.0075,23.26842 -9.9358,23.1543 17.9375,17.79349 7.6984,32.54533 -2.0099,13.15503 9.4428,9.35299 0.2654,15.70239 -4.7403,11.10185 3.1097,12.8509 -5.9539,13.0789 0,0 -17.4066,0.4563 -11.7182,15.4362 -7.5087,-2.0911 -5.916,4.1062 -7.1295,-6.5015 -2.2375,6.1213 -12.1732,6.5014 0.5688,7.2619 -3.6026,-2.9276 -5.4988,2.8516 4.0577,4.5244 -4.6266,6.9957 5.8781,3.2697 1.7065,9.4291 -12.287,7.8321 -7.8121,-3.0796 -19.8716,3.65 -5.916,10.5316 -3.906,0.038 -2.8063,11.5201 0,0 -13.1972,-1.9771 -17.0274,4.2203 -17.2549,-7.566 -21.9952,3.9541 -8.8361,-7.0338 -5.5746,1.4448 1.972,5.665 -4.8921,8.0223 -6.8261,-6.4254 -8.9877,6.9197 -2.9959,-7.6041 -10.16337,6.5775 -2.99591,-7.7941 -17.4066,18.4017 -9.67033,-12.2425 -6.40896,1.1026 -1.51692,5.3609 -13.38677,1.2926 -1.479,-5.5509 -4.89205,1.1786 0,0 0,0 0,0 2.88214,-3.84 0,0 2.42707,-7.2999 -9.63241,-3.3838 -1.02392,-13.3832 -8.07757,-6.7295 -11.52856,0.1142 -0.8343,-7.0338 -16.34476,-7.8321 -2.84421,-6.4635 5.53674,-14.8279 -2.3133,-7.528 -15.35876,-14.2956 -2.95799,-13.9154 -14.44861,-12.3186 -2.00991,-16.27263 -11.64233,-7.79413 -7.85003,0.34206 4.8162,11.29203 -14.6003,-0.38014 -10.54256,6.76756 -11.52856,-4.60046 -6.56065,4.33432 -5.08167,-13.83938 3.37514,-1.82497 -1.51692,-12.20449 -5.46089,1.97704 -3.6406,-6.69157 -10.50463,2.88953 3.41306,-7.52799 -2.88214,-5.47489 -3.10968,3.26971 -4.28528,-1.44475 0.8343,-4.10625 -9.44279,1.36872 -4.1336,-10.37949 0,0 3.60267,-27.22252 16.53438,-23.23034 -4.62659,-4.10621 10.80802,-23.45852 0.72053,-6.31136 -5.04374,-2.77546 6.25727,-13.38309 0,0 -0.18961,-1.97711 0,0 23.85349,8.13635 3.03383,-1.93903 -6.06766,-9.5811 2.95798,-5.58896 10.39087,5.70303 2.31329,-6.00721 20.78174,-6.31136 3.60267,-4.94264 -3.6406,1.10257 -1.59276,-6.88167 6.44689,-7.94621 11.79402,-3.53589 -1.44107,-3.80203 11.98362,-11.44406 -1.28937,-16.0446 4.58866,-2.62339 3.37514,5.51288 0.64469,-10.26545 5.27128,-1.86293 -4.77828,-10.79778 3.71644,-10.26549 -7.09158,-1.74893 -0.56884,-7.87017 7.77419,-0.57028 0.3413,-5.20879 -5.00582,-1.1026 4.36113,-1.02661 1.55484,-6.95764 10.20125,-1.29271 -18.5822,-13.07896 0,0 5.11958,-4.56242 -6.6365,-11.178 2.84422,-6.65349 -8.00173,-2.50939 2.3133,-5.39889 22.67787,-11.93831 9.74618,-16.04456 -6.29519,-8.59257 4.8162,-11.17799 -23.2088,-21.0252 -0.53092,-13.80135 0,0 7.58458,-4.22025 2.00991,-6.61549 17.70998,-2.35732 0,0 3.26137,0 0,0 8.4568,-7.87014 8.19134,2.81354 0.98599,-10.22754 15.88969,7.49 17.29283,-0.76035 6.2952,-4.75254 -1.63069,-12.73681 15.47253,-8.97278 -1.93406,-12.35656 z"
     inkscape:connector-curvature="0" />
  <path
     id="FR-CE"
     title="Corse"
     d="m 2136.4609,2172.1743 4.5887,-10.1893 10.7322,-1.1027 6.7882,-8.5926 -16.3448,-5.5889 -4.8162,3.0416 -1.0618,-8.7067 -10.6943,4.1443 -0.3792,-3.726 -7.2054,-0.2663 11.301,-7.604 -2.92,-5.4369 9.4049,-1.9771 1.8582,-4.4103 -5.1575,-2.6614 5.9159,-1.1406 -1.5548,-6.8437 3.8681,-2.6614 -8.6464,-8.0223 -4.5887,5.3229 -17.5203,3.0035 2.427,-8.7066 -4.8162,-6.3874 8.7981,-0.7223 1.8583,-9.277 13.728,-7.8702 -7.4708,-13.2691 -6.4089,2.5094 -7.4329,-7.2619 -4.93,1.4068 0.6826,-4.9807 -4.3611,1.2547 5.6505,-4.7906 -5.1196,-0.6843 3.1476,-7.2619 -6.4469,-6.7676 24.3844,-6.2353 -5.4229,-7.6041 -8.7981,-0.6844 1.6686,-9.391 -9.7841,3.3838 -1.2894,-8.7826 10.1254,-2.3954 -0.5309,-6.3493 7.8121,0.2279 -1.0619,-5.7791 4.9679,-5.665 -4.892,-2.0531 2.8063,-7.9082 8.4568,-2.0531 -2.1995,-9.429 3.0717,-3.2317 0.2655,4.9806 4.3611,-2.1671 5.3092,3.802 2.0858,-10.4176 10.2012,-1.2546 10.2771,-8.1744 13.0455,1.1406 7.1295,-4.2963 -0.4172,-7.528 10.5426,-7.528 15.2829,-0.7984 12.0974,12.5466 7.2433,-12.6987 -0.3793,-12.6227 -5.1954,-8.1743 4.8541,-6.9958 -2.8821,-7.3379 6.1814,-5.1708 -3.3372,-15.018 13.0834,-3.7259 6.3711,5.3608 4.6265,38.5525 -7.3949,28.2111 13.6522,27.1464 4.0957,75.0901 -1.479,19.5044 -21.616,31.7468 -3.9819,64.8626 -6.9399,2.8135 1.972,3.2318 -7.3192,-2.4714 -4.6265,6.7676 1.4031,4.4865 4.8162,-6.3114 8.0397,2.2432 -4.0578,7.4139 -10.9597,6.0072 0.7585,13.9154 -8.7223,4.5625 -2.1995,6.1212 8.8739,-3.1176 -0.9481,3.0797 -6.0676,9.9232 -6.4848,0.4943 -3.6027,-5.8932 -10.0116,-0.3802 4.2852,-9.1248 -7.9638,-1.3687 1.479,-7.7182 -6.2952,5.1328 -6.4469,-6.9958 -2.3891,3.3838 -9.9358,-3.1937 -6.9399,-7.3759 -5.2712,1.3688 1.7444,-6.1214 -10.4667,-1.8629 2.6925,-4.0302 -4.6266,-3.84 z"
     inkscape:connector-curvature="0" />
  <path
     id="FR-IF"
     title="Île-de-France"
     d="m 1023.1212,456.51001 5.6884,1.82497 -1.972,7.07178 0,0 1.4411,-0.0379 0,0 2.8442,4.67645 7.6984,-2.35721 12.5524,5.43686 18.696,-3.15568 12.4387,-8.28846 14.1073,11.25403 7.5467,-3.802 2.2754,6.7676 8.2671,-2.0531 4.437,-6.42543 6.902,9.23889 2.7304,-2.81346 10.2392,3.15571 -0.9101,3.11764 4.0577,-1.78696 6.902,5.55096 -2.1237,2.73746 6.5986,1.55882 3.1855,-5.93114 4.892,10.72171 7.7742,-6.88171 15.9276,11.4061 11.6803,-8.63057 6.864,6.34936 18.4305,-5.09471 2.958,4.90464 3.3752,-4.90464 9.0635,1.52082 0.5309,-7.64211 10.7701,2.62343 8.1914,13.45917 -3.6785,9.08685 13.1971,9.54307 2.0858,8.06031 6.3331,-2.35728 3.7923,9.73317 6.0676,-4.86657 2.4271,13.49721 9.86,2.77546 2.427,5.43692 3.7923,-3.49789 0,0 0.3034,9.12485 -13.1972,1.25468 6.2952,4.37236 -7.6983,7.60399 11.6044,4.8286 -2.6925,24.48506 13.0834,-2.66143 -2.1996,3.19371 6.1815,3.87811 -9.1395,2.8135 1.9341,3.53585 -7.7363,4.60046 2.5409,6.84364 -11.7182,3.26975 4.93,8.89674 -8.5706,2.54736 4.9679,21.32938 0,0 -6.0677,-2.31925 -1.7444,6.53949 -4.5508,0.60832 -30.7175,-0.68439 -5.8401,5.62703 -8.836,-2.47135 -5.0438,12.85088 5.0438,13.07896 -6.7503,10.11342 -10.5426,5.55096 -0.038,4.79049 0,0 -11.1493,1.6349 -7.357,6.19732 -3.2235,-9.16285 -5.6884,3.61192 -4.1715,-3.15571 2.8063,5.05667 -7.6605,5.17079 -23.0191,-4.14425 -18.203,4.03014 6.2193,-9.6191 5.423,-0.57032 -0.076,-13.83931 -14.714,-7.98428 -3.0718,-13.23107 -7.1295,1.86296 -4.93,-5.96917 -3.7543,3.34578 0,0 -0.8343,1.5589 0,0 -8.4189,3.26975 0.076,-7.90829 -6.7123,-2.88949 -3.4131,7.7561 -4.6645,-1.10261 1.8582,4.14429 -30.0728,2.47124 -2.3133,-5.17071 4.7783,-12.5467 -1.6686,-9.01082 -7.8121,-1.06461 0.3792,-12.09042 -9.5186,3.95414 -10.7322,-6.23535 -4.0578,-11.06392 1.7824,-9.58103 -12.287,-5.58903 0.9481,-8.89675 -7.6984,0.0758 -10.0495,-12.12849 1.5927,-5.665 -5.5367,-3.34578 7.85,-10.4936 -7.1295,-3.42178 2.6546,-18.74403 -8.26716,-7.37592 2.73046,-4.82857 -9.74619,-11.97642 0,0 -1.36522,-6.42539 4.17152,-2.73746 -7.66042,0.64632 1.28937,-9.16293 -4.77828,-9.46699 6.33312,0.6844 3.33721,-8.3645 1.70653,3.87807 0,0 0.83431,0 0,0 15.16915,-3.87807 z"
     inkscape:connector-curvature="0" />
  <path
     title="Occitanie"
     id="FR-LP"
     d="m 997.10562,1425.1519 -14.18403,6.0074 -5.72548,3.4234 0.64442,2.6213 4.43668,17.0719 -4.54779,1.3293 4.39962,7.0694 -12.32493,7.9085 0.64442,7.2253 -10.65841,3.3491 2.77015,12.3566 -14.48771,12.5051 -11.87312,3.0445 0.94807,6.8392 -9.28815,10.0397 1.5184,4.4482 -13.99889,8.0272 -5.30329,-1.5594 5.56996,8.213 0.0815,13.4927 5.94767,3.9581 0.91102,13.4184 -17.25047,0.8762 -1.67392,3.609 -3.29602,-8.5546 -3.79229,0.6461 -4.2441,15.5868 12.81376,7.8343 -6.94015,18.3269 -8.37713,1.4406 5.04405,1.9827 1.36283,8.1313 -5.04401,2.4728 -11.48797,-3.7277 1.39988,7.1139 -6.52539,0.7945 -2.76275,10.0026 -12.02125,8.1759 -11.15467,-12.2452 -5.83656,5.5174 -14.93953,-0.193 -2.96272,5.9703 -20.13913,4.2921 -2.23685,4.1066 -10.9547,-6.8393 -6.18465,1.5149 -5.53291,9.2452 -4.6663,-6.312 -11.2287,8.8219 3.22936,9.765 -2.69608,4.4926 -12.59157,-7.1882 4.36261,-5.4357 -6.79207,-6.6164 -9.36221,12.2007 -13.16189,-2.3541 -9.44367,9.0893 8.38449,6.3862 -3.4886,2.3169 2.385,10.4183 -5.19217,0.3785 5.007,15.4383 -8.68821,6.5421 1.21474,11.4061 -6.25875,2.5471 0.34055,5.3541 5.08106,0.5717 1.37026,7.1882 9.6659,-2.9629 12.71008,3.1114 0.45181,8.3689 4.28855,-1.0247 7.54013,16.463 -7.46607,1.9382 -0.22943,11.2872 10.4658,-7.448 -0.45181,15.8169 5.22922,5.6214 -11.93979,9.6981 4.54779,6.6908 -5.04405,11.2204 -3.75523,-0.9134 0.83695,9.921 -7.81419,-0.6461 -4.51074,11.0273 -7.3994,3.1561 2.05167,13.4184 -12.70269,3.1559 -4.28854,6.8467 1.05918,15.3195 -7.28088,3.5718 2.23684,14.5621 19.68732,13.3887 4.31816,-2.3614 7.54756,15.4383 6.86609,1.7822 1.85913,5.3986 8.60671,1.5594 28.06441,-11.1387 13.11744,4.5297 5.46624,9.0447 10.35473,-10.8343 9.82142,7.1065 27.53113,-3.1931 12.36195,3.1189 0.37771,-7.5669 -5.65138,-6.0818 3.86635,-4.3739 -3.40714,-1.6336 3.97746,-4.6782 -1.74062,-7.2997 7.76975,-4.7897 34.32316,15.5498 5.38478,-3.5347 3.71819,4.1065 15.01363,-0.3785 14.18403,17.072 9.63627,-4.1065 19.75395,1.8194 12.70269,24.8691 6.33285,-2.4357 0.34055,-7.9828 11.11762,-0.8763 7.65863,6.2377 21.502,2.0941 -1.5554,5.7031 10.5029,0.4901 -0.9111,2.9257 c 0,0 0,0 -7.8066,4.1436 l -1.4814,12.9655 14.8655,1.7154 9.103,8.0941 8.4142,-0.7946 4.6292,15.0522 8.3401,7.2624 10.851,-3 11.0361,-13.0397 7.2439,1.6707 8.7178,-4.7525 27.7236,9.505 7.7328,11.3319 7.5846,1.5594 7.3253,-5.4431 14.9766,3.7649 -3.1479,-9.7724 3.5997,-3.9134 9.2585,-4.1436 7.0513,2.5842 9.6288,-9.9952 12.325,0.5272 4.6292,-5.5099 3.1479,3.5718 11.6065,-1.6337 7.1624,10.1511 13.9174,-1.9753 -6.9328,-10.1139 1.7406,-7.1882 -14.7544,-5.1312 -2.8812,-34.9758 5.007,-45.8916 -2.6517,-10.0026 5.9551,-19.6562 15.4654,-25.0548 25.3017,-20.6066 -1.4073,-4.5595 27.1163,4.4481 1.0222,-3.4976 -0.7555,3.7649 21.6131,-25.0993 12.7027,-3.6833 38.9894,-31.4855 21.2353,-1.5965 5.0441,4.5298 -3.1479,4.901 2.5035,5.057 15.0136,5.5917 1.6739,-8.5546 12.8879,-6.2748 -1.5555,-5.8961 3.1479,4.2253 20.1762,-11.7106 1.6295,-5.0198 -7.1994,-2.51 9.3622,-15.9284 8.6141,-2.1683 13.8359,4.7154 -2.385,-8.7105 8.6068,-25.9682 -4.059,-4.7525 27.1534,-21.0597 -0.038,-5.4802 4.8144,-0.2226 -9.14,-16.7676 -10.3918,-3.4604 0.1555,-23.1908 -2.2368,-5.8962 -5.3848,-0.2673 -3.7182,-12.0893 -22.6797,-16.0844 -8.1919,1.1808 -2.385,12.1263 -6.6735,-1.5965 -0.5704,-12.3195 -10.3547,1.7897 -10.8806,16.1214 -20.065,-15.7427 -12.8953,3.8763 -1.2073,-15.8913 4.4737,-3.0743 -12.7101,-14.718 -5.6069,-21.7429 -7.8142,-5.2129 -6.5625,-33.1118 -4.0589,-0.8019 1.1407,-5.3986 -5.2737,1.6707 -7.6216,-8.0198 -2.7701,-8.2872 -12.0954,2.0495 1.0222,-6.156 -6.8217,-5.4728 -5.7255,1.2103 -0.7629,11.0274 -17.406,3.6535 -9.6288,-19.6933 -0.2666,-9.6981 -6.9402,-7.411 -13.4285,10.7154 -6.8958,-1.9381 -0.911,10.6116 -6.9772,5.5841 -9.4808,-9.1189 -3.4886,8.3987 -0.911,0 -0.7259,7.1139 -4.17,-0.8762 -4.133,8.3243 -1.0962,18.7057 -8.9845,15.6685 -7.0216,-7.7972 -3.9849,-18.0224 4.0219,-2.8144 -2.6146,-4.3293 -5.0811,0.9877 -4.5107,-18.8616 -13.6581,4.1064 0.2294,-12.4679 -5.881,-6.5051 -20.8576,21.2156 -0.6444,11.9036 -7.9623,8.5917 1.5924,7.3739 -9.5547,6.8837 -2.4665,8.4357 -20.7021,2.2501 -4.0218,-6.6164 -5.007,0.4529 -12.325,4.0323 -2.0072,7.1436 -5.2737,-4.5965 -1.8591,-12.624 -4.6218,-0.193 6.592,-20.3765 -12.6656,-18.7799 1.8591,-10.4185 -6.518,-12.2823 -11.8361,0.3784 -5.9921,4.8714 -6.2587,-5.6287 -16.6802,12.208 -8.1178,-3.2377 -16.3839,-20.3394 -15.85062,-0.2674 -1.21475,-3.8762 z m -256.51267,367.2371 0.60737,8.1758 -4.58483,1.8639 3.79228,3.6461 2.6146,0.646 -0.91102,-13.567 z m -3.10345,13.7675 -0.53331,0.074 -1.1036,0.8317 -3.06644,7.3442 2.95533,6.6535 6.56244,-4.7153 -3.9108,-9.5868 -0.90362,-0.6015 z m 328.6772,176.4452 3.7923,8.4803 -8.4215,-2.2426 z"
     inkscape:connector-curvature="0" />
  <path
     title="Hauts-de-France"
     id="FR-NC"
     d="M 1155.4707,9.2796062e-4 1129.6875,10.605017 l -4.3626,-3.155979 -23.3611,8.027325 -1.2887,-2.925779 -2.6146,9.118923 -4.8589,-4.633719 1.748,-4.485204 -8.3475,8.591689 -2.0072,-2.58419 -39.9746,10.336759 4.6293,0.876248 -19.8354,6.460475 -13.1546,14.562055 -12.6286,3.727769 5.1182,16.804664 -3.1109,17.755164 -2.8442,3.913409 -1.4369,-5.962943 -0.6519,3.646087 2.1629,38.89651 9.2584,13.87888 -7.629,-6.20057 -5.08104,34.06972 12.05084,10.41101 -0.3333,-0.25988 -11.22132,-0.57179 -2.57758,21.48293 23.5092,21.13392 -4.5848,3.34905 -11.2287,-3.00003 -3.0294,-7.30702 -7.24388,2.39854 -11.11762,24.17851 -11.67311,10.84171 11.2213,-1.4109 0.57032,7.49266 40.87819,37.37422 3.4886,17.52496 8.1549,12.80957 -5.7625,-0.22276 -9.4807,16.68584 2.6887,3.42331 7.1327,-3.42331 -8.5326,12.31946 3.7552,5.09412 -3.2219,9.92834 -0.6889,0 8.229,10.76004 -4.8885,8.32426 4.3256,3.49766 2.3109,-5.39862 4.8515,1.90096 -2.8813,8.21303 -1.5184,0.98766 -7.6216,14.14622 4.059,0.41583 -2.8813,2.96291 6.2217,6.6164 1.7777,18.02247 4.9699,4.14361 -2.3479,6.88376 -4.8959,-6.34905 -7.6587,1.86383 -0.874,7.94568 5.6885,1.82674 -1.9703,7.06936 1.437,-0.0379 2.8442,4.67821 7.7031,-2.36138 12.5101,5.39858 18.7022,-3.11881 12.436,-8.32441 14.11,11.25751 7.5401,-3.80199 2.2813,6.76495 8.266,-2.05698 4.4367,-6.4233 6.9031,9.20062 2.7258,-2.77732 10.2436,3.15598 -0.9481,3.11889 4.0959,-1.78222 6.8588,5.54709 -2.1184,2.74016 6.5995,1.55942 3.1849,-5.93326 4.8885,10.72296 7.7772,-6.88376 15.8876,11.40606 11.7175,-8.59169 6.8662,6.34905 18.3911,-5.13123 2.9553,4.93816 3.3775,-4.93816 9.066,1.52233 0.5258,-7.64862 10.7695,2.62874 8.192,13.4556 -3.6738,9.0892 13.2359,9.54223 2.0814,8.05702 6.3328,-2.35399 3.7923,9.73522 6.1106,-4.83418 2.422,13.50017 9.8585,2.77724 2.4664,5.43575 3.7923,-3.49763 6.718,-14.29472 6.6735,-0.60893 0.526,-5.93322 4.6292,-0.87625 -2.0517,-4.10647 13.8063,-12.95806 -4.2811,-6.92089 -10.3177,1.47771 0.2666,-5.58419 8.0734,-4.06939 -5.8736,-10.18824 3.3701,-7.4184 13.0508,1.93816 6.8587,-3.9877 0.1183,-5.36142 -5.3847,1.02475 -2.5405,-7.26246 -2.6221,2.39855 -4.4366,-3.802 3.7923,-5.28724 -5.1552,-19.01009 20.8576,-10.33679 11.5694,2.76981 0.6814,-8.55453 10.7325,-6.4233 5.6144,7.06932 12.1694,4.14364 0.2298,-18.89132 4.8144,-1.75245 -4.2885,-14.86657 5.9551,-4.29211 -4.6219,-4.94559 4.4367,-6.3862 -8.5697,-12.35659 2.7627,-3.83914 11.6806,1.13614 1.748,-10.94568 9.2881,-5.09412 10.2066,-14.10908 -6.9032,-5.58423 7.4291,-21.55718 0.3777,-8.7105 -5.9921,-2.43568 2.2813,-10.9828 -14.0359,-5.01987 c -10.5552,3.10349 -10.9445,3.17255 -0.1483,-1.5e-4 l 2.8812,-16.76753 11.0362,-5.16838 -4.7404,-15.63137 -11.3028,-0.14851 4.1701,-7.26246 -0.6815,-12.2452 11.0732,-9.80952 -2.0072,-4.75254 -7.2809,-4.21787 0.7555,7.60405 -4.6663,0.0743 -3.259,-11.21301 -6.4069,-1.82675 -8.1549,-11.85906 -19.3022,7.90852 -8.1549,-6.20058 -16.1542,0.23023 -6.2217,11.36895 -7.8512,-15.89128 0.2666,-21.40867 -8.192,-9.73527 -16.9838,2.16834 2.8813,-8.97041 -6.9402,-2.39854 -4.3256,6.61642 -11.2213,3.80203 -13.3175,-8.21297 -8.2289,-33.1118 3.3775,-10.841706 -10.9177,-5.85156 -6.2958,-16.121477 -31.2493,9.467935 -7.2439,14.866514 -9.4066,-7.641179 -8.229,-0.378736 -11.2287,-21.445809 -13.7989,-0.534652 -5.6144,-9.274869 -1.4813,-17.487834 6.5624,-6.920877 -9.14,-13.804668 L 1158.2035,8.5173428 1155.4704,0 Z M 1017.0523,188.73601 l -0.03,-0.0446 c 27.4907,-9.52738 27.4928,-9.44671 0.03,0.0446 z"
     inkscape:connector-curvature="0" />
  <path
     title="Normandie"
     id="FR-ND"
     d="m 983.07711,252.60547 -11.22869,1.41091 -28.81991,23.37652 -16.87272,8.06445 1.02214,4.78966 -1.59246,-4.33668 -10.28066,4.64115 -9.28815,-2.70301 -29.46429,12.51253 -29.27911,4.4852 -39.32276,26.77014 -20.44282,8.21296 -8.1549,12.7353 -4.96994,-2.27972 4.59219,6.11888 -13.6137,32.92615 7.51051,9.65361 24.76094,7.64112 3.71823,-2.88859 -1.55541,4.29954 -0.0379,-0.11869 -27.45703,0.42325 17.74669,0.75744 -15.20617,6.42337 -20.21319,18.48289 -34.84904,10.64116 -3.26641,-4.90104 -5.65138,2.01245 -18.08746,-9.77246 -56.88431,-3.83912 -33.0714,-11.7105 -17.21342,1.8267 -6.48838,11.10162 -6.14024,-4.5223 -7.39201,6.76494 5.49586,-17.56212 -22.48709,-34.06972 1.82209,-8.39861 4.05152,-0.76486 -0.0739,3.38617 2.77016,-10.11398 4.09597,1.44804 -5.68843,-21.71313 -32.76775,-0.18567 -2.19983,6.99513 -19.07252,2.69558 -1.97024,5.36145 0.7555,-5.62879 -32.50108,-7.71544 -4.31816,-6.65354 -5.54031,2.88865 -7.51051,-5.05699 -2.04427,12.46797 11.33981,3.88371 4.20709,6.76493 1.25176,14.63632 -7.43645,8.93326 6.25875,7.34414 6.02917,31.78252 16.15423,10.64867 12.67307,28.77515 1.93316,-5.96299 7.392,3.11146 -7.35495,0.72774 2.34795,43.22578 3.41454,9.16345 2.80717,-9.12633 8.79932,4.26242 -8.34747,-1.44801 -0.79255,20.42101 3.45159,2.24261 -11.56944,23.1537 6.29577,3.19318 0.68143,17.86649 19.15401,21.89883 9.62885,-4.86395 -3.97747,3.91345 9.14002,6.38617 -11.33981,-2.50253 -10.2066,4.7897 -3.22196,-3.54215 -0.18507,4.18817 -9.3696,-3.4233 13.12488,34.55983 10.57691,6.69066 10.62137,-1.901 15.77652,-17.8294 28.93098,8.48028 10.31771,4.48517 7.62159,-6.65349 7.35499,4.90104 10.01399,-0.64609 4.96998,10.4556 5.49586,-2.39108 2.95529,6.95805 7.28093,-3.31199 -2.65164,-5.59161 6.52538,1.21785 3.97747,-4.02483 1.89614,9.76499 15.77649,-6.87637 6.48837,-8.5174 17.8208,-0.23019 6.86612,6.11889 5.04401,-9.08173 7.85125,3.57173 4.74036,-6.8838 -1.21475,-6.65345 6.59949,0.15624 9.73996,8.48031 -4.43667,4.14353 4.25149,12.73537 15.1321,1.36633 -0.0379,18.17844 7.88826,-5.40598 9.28815,4.67824 2.08871,-7.33667 13.4952,-7.79717 -1.97021,-3.802 24.61282,-5.50996 12.8138,13.30706 1.55544,24.40875 13.73221,5.51736 1.59246,-2.74012 7.24388,14.52492 16.26535,3.72035 2.31833,-7.25503 13.27301,17.86649 9.39926,-1.40345 5.1255,-4.5669 -6.6365,-11.17587 2.84422,-6.65353 -8.00677,-2.4728 2.31834,-5.39858 22.70927,-11.94082 9.71035,-16.07687 -6.29581,-8.55453 4.81442,-11.1833 -23.20553,-21.02254 -0.56293,-13.68588 0.0303,0 7.58457,-4.26238 2.01462,-6.61644 17.70971,-2.31686 3.25898,0 8.45859,-7.87138 8.19194,2.81437 0.94807,-10.22534 15.92465,7.48526 17.29488,-0.75747 6.29581,-4.78966 -1.62951,-12.73526 15.47283,-8.9333 -1.94059,-12.40112 8.38452,-3.98771 -1.39988,-6.4233 4.20705,-2.74015 -7.65864,0.60892 1.28877,-9.1264 -4.77737,-9.4679 6.33282,0.68314 3.33308,-8.39859 1.71096,3.87629 0.82956,-0.0379 15.1691,-3.87629 12.8212,-35.09455 0.874,-7.9456 7.6586,-1.86387 4.8885,6.34912 2.3554,-6.88376 -4.97,-4.1436 -1.785,-18.02254 -6.2143,-6.61641 2.8812,-2.96287 -4.0589,-0.41587 7.6216,-14.14625 1.5184,-0.98759 2.8813,-8.21303 -4.8515,-1.90096 -2.3184,5.39858 -4.3181,-3.49762 4.8885,-8.3243 -8.229,-10.76002 0.6814,0 3.222,-9.92092 -3.7478,-5.10154 8.5326,-12.31203 -7.1328,3.41588 -2.696,-3.41588 9.4807,-16.69328 5.7699,0.23023 -8.1549,-12.81699 -3.4886,-17.52496 -40.88558,-37.37422 -0.56293,-7.49266 z"
     inkscape:connector-curvature="0" />
  <path
     id="FR-PL"
     title="Pays de la Loire"
     d="m 399.63124,975.98087 6.21935,4.37232 -2.23745,7.79417 11.79402,5.96914 1.13768,12.5847 -9.21526,-14.63773 -8.38095,-0.34206 -6.10558,-7.33789 -1.06184,-7.7181 7.85003,-0.68436 z m 186.80808,-346.51669 10.31502,4.48639 7.62249,-6.65353 7.35704,4.9046 10.01164,-0.64635 4.9679,10.4556 5.49881,-2.39532 2.95799,6.95778 7.28119,-3.30778 -2.6546,-5.589 6.52273,1.2166 3.9819,-4.0301 1.89615,9.77121 15.77591,-6.88164 6.48481,-8.51657 17.82376,-0.22791 6.86404,6.12124 5.04374,-9.08681 7.85003,3.57393 4.74036,-6.88168 -1.21353,-6.65357 6.59858,0.1517 9.74618,8.47856 -4.43698,4.14422 4.24736,12.73677 15.13123,1.36871 -0.0379,18.17371 7.88796,-5.39885 9.2911,4.67649 2.08576,-7.33792 13.50054,-7.79414 -1.97199,-3.80203 24.61195,-5.51296 12.81793,13.30709 1.55483,24.40899 13.72808,5.51296 1.59277,-2.73743 7.24326,14.52367 16.26892,3.726 2.31329,-7.26182 13.27301,17.86953 9.40487,-1.40675 0,0 18.58221,13.07899 -10.20125,1.29264 -1.51692,6.95775 -4.39905,1.02649 5.00582,1.10261 -0.34131,5.24678 -7.77419,0.57032 0.56885,7.87021 7.05365,1.74893 -3.71644,10.26546 4.77828,10.79774 -5.27128,1.863 -0.64469,10.26549 -3.37513,-5.51296 -4.55075,2.62343 1.25146,16.08256 -11.98363,11.4441 1.47899,3.80199 -11.79401,3.53589 -6.44689,7.94625 1.59276,6.88167 3.64059,-1.1026 -3.56475,4.9426 -20.81965,6.27339 -2.3133,6.00717 -10.39087,-5.70303 -2.95798,5.58896 6.06766,9.58114 -3.07175,1.97707 -23.81557,-8.13635 0,0 0.18962,1.97703 0,0 -6.25728,13.38317 5.04374,2.73746 -0.72053,6.34935 -10.80802,23.42053 4.62659,4.14417 -16.53437,23.23038 -3.60267,27.22251 0,0 -5.61259,-2.54735 -4.17152,3.45982 -4.58866,17.03313 -7.88796,-3.26975 -6.7882,10.75971 -7.85003,-3.726 5.76428,-7.68006 -6.52274,-1.14061 -3.22344,3.26975 -9.63241,-2.66143 -20.59212,3.34575 -1.74445,5.66507 -11.6044,3.07964 3.41306,-6.5015 -5.53674,-0.45625 -9.70826,4.48635 2.00991,7.29993 -8.68434,8.21239 -11.22517,-1.44475 -6.93988,4.44831 -11.45271,-4.94256 -10.23918,8.21235 -6.86404,-1.06457 5.11959,2.88949 -2.31329,3.72604 4.77828,0.15245 -1.8203,2.50936 8.15342,3.07963 -3.6406,8.3264 8.76019,10.3415 0,0 0.64469,0 0,0 6.25727,4.2203 0,0 1.09976,0 0,0 4.1336,2.6994 -3.1476,2.9276 0,0 0.15169,0.9505 0,0 -0.37923,8.5546 10.01164,12.6607 -3.67852,3.1938 6.71235,5.2467 -3.41306,6.1973 6.75027,3.3458 -2.04783,10.5696 3.67852,9.8473 -6.86404,2.7374 6.18142,14.98 -5.15751,13.117 3.29929,1.4448 2.3133,-5.0947 10.46671,6.6155 -17.02737,15.5503 -7.92588,-1.939 -3.79229,5.3228 -16.61022,-8.0603 0,0 -0.68261,-0.9885 0,0 -2.95798,5.627 -5.76428,-2.1291 -7.05365,3.7639 -4.66452,-2.8135 4.9679,-11.0639 -19.49236,4.8286 -3.33721,7.414 -6.44689,0.1517 0,0 -13.50054,0.3802 -0.64469,10.2654 -17.25491,-14.5998 3.18552,9.7712 -7.54665,-11.6341 -19.5682,-0.038 -7.35704,-14.0295 -21.16096,-3.6879 -25.90132,-17.0711 -6.82612,-26.6142 -14.33485,-20.0747 -30.56583,-28.5532 -1.55484,-15.5123 6.52273,-0.5703 -1.40314,-3.9161 13.57639,-13.80128 0.75845,-9.31499 7.96381,-4.60043 -19.03729,-19.88463 -23.20879,-4.14425 12.74208,-8.25039 -0.79638,-22.16576 -6.33312,-1.36875 -13.80392,8.6686 -11.98363,-10.5316 -8.83603,4.6385 -17.82375,-7.37593 5.68843,-4.25828 0.45507,-6.88164 -8.4568,-8.36446 15.85176,-11.44413 0.0759,-5.66504 0,0 5.42297,-6.7296 3.41306,4.82861 13.273,-1.10257 2.95799,-12.85089 8.4568,5.05671 9.44279,-4.22024 3.37514,5.32281 0.98599,-7.41392 9.32903,-2.62339 2.57876,-27.29855 17.10321,-10.2655 2.88214,5.24678 14.94161,-8.70663 31.51391,-0.22792 5.95389,-12.62267 23.47426,-9.23892 -0.91015,-7.56607 14.259,1.6729 3.90606,6.8056 18.35467,5.28481 14.41069,-44.1795 21.80565,-9.01081 -9.13941,-46.61287 0,0 -0.64469,-0.60832 0,0 -3.52683,-14.86592 8.79811,-14.82795 -5.65051,-20.34077 1.74446,-22.24188 z"
     inkscape:connector-curvature="0" />
  <path
     id="FR-PR"
     title="Provence-Alpes-Côte d'Azur"
     d="m 1540.6167,1563.622 1.5549,1.749 0,0 11.0355,6.7296 0,0 0.1138,1.2926 0,0 -7.5087,3.5359 -5.7264,14.904 -15.3587,-2.5854 -2.465,-9.9233 5.7263,-10.3795 0,0 1.3652,-2.4333 0,0 1.2136,-0.6464 0,0 2.6167,-0.6083 0,0 4.8541,-3.9161 0,0 0.6447,1.6729 0,0 1.6307,0.19 0,0 0.3033,0.4182 z m 55.2157,263.1003 5.3472,-9.0109 -4.6645,-5.4369 4.3611,-2.8895 -10.2013,-14.2956 -12.7041,7.0718 -28.1009,0.8364 -12.5904,-21.7095 -7.85,-1.4828 -4.1336,5.893 1.8961,-5.3227 -3.7922,2.2431 -3.2614,-7.7181 2.6167,9.5811 -7.7742,-4.1442 5.1954,6.0833 -8.7223,3.4218 7.2433,-0.4943 -2.5408,2.5854 6.7503,4.3343 6.0676,-5.2848 -12.6662,11.4441 -40.0466,-7.0337 -3.7923,-4.4104 5.1196,-8.9728 -9.0256,-6.5015 -47.707,-1.7489 0,0 1.6686,-8.5545 12.8938,-6.2734 -1.5549,-5.8931 3.1476,4.2203 20.175,-11.7103 1.6307,-5.0187 -7.2053,-2.5093 9.3669,-15.9305 8.6085,-2.1672 13.8418,4.7146 -2.3891,-8.7068 8.6085,-25.9678 -4.0578,-4.7525 27.1528,-21.0632 -0.038,-5.4749 4.8162,-0.2279 -9.1394,-16.7669 -10.3909,-3.4599 0.1517,-23.1923 -2.2374,-5.8931 -5.3851,-0.2663 -3.7164,-12.0904 0,0 0.1896,-13.0789 21.7298,3.6879 4.7783,18.8581 37.9229,-17.6034 7.6604,6.6155 6.6744,-7.0337 0,0 2.5029,-1.1787 0,0 -2.3133,18.2498 12.2112,4.5624 3.0717,-4.4104 7.6984,5.3229 8.9877,-1.5969 4.6645,3.0796 -0.3034,9.8853 8.2672,0.7604 3.0718,7.1099 13.6143,-2.9277 9.4807,-12.8888 5.9539,5.1707 -1.3273,3.8021 7.4329,0.9125 0.6447,-3.7641 -6.2194,-1.7489 6.7882,-5.3989 0.038,-15.5503 -6.2193,0 -1.6686,-7.4139 -4.5129,-1.2167 3.3373,-6.0071 -12.818,0.7224 -4.1715,-4.5245 -4.437,2.8896 -9.8978,-8.1743 -1.7824,-11.064 9.1015,1.2928 3.2993,-3.9161 -5.2713,-2.3193 -1.0239,-11.33 24.574,6.1212 2.2754,-6.3114 5.5746,-0.4942 -10.5425,-9.1629 8.0017,-14.98 -0.7585,-8.8207 13.5385,2.8136 3.1855,-5.0948 6.3331,1.901 6.4469,-8.1743 -4.9679,-3.5359 4.437,-11.7483 8.7981,2.8896 10.7701,-3.1177 4.5887,-4.6765 -4.8541,-5.1708 10.7321,-6.8436 6.1056,4.3343 12.2112,-10.7217 17.8617,2.7374 6.9398,-4.8666 10.1254,4.2203 0.3793,-18.782 -5.5747,-3.2317 0.1896,-9.9994 -18.8097,-3.878 6.4848,-23.2684 7.6225,2.7755 6.1814,-3.3838 4.9679,11.8243 13.5764,4.0681 5.6126,-0.6843 -0.986,-8.4405 4.7404,-3.6499 4.9299,2.1291 5.7264,-5.3609 8.3051,3.3077 0,0 6.6744,20.1508 11.1493,1.2546 1.0619,24.219 17.71,12.2425 7.357,1.4068 3.9819,-4.0302 13.6522,8.5926 -3.5647,7.604 11.9836,23.4205 -17.9375,1.3307 0.8343,12.7368 -17.6721,19.8846 3.5648,10.6457 11.0735,11.1019 -8.7602,1.825 -0.8343,13.0029 16.8757,18.0977 1.8961,9.7332 28.4042,7.566 14.4487,13.2691 10.0116,-1.1787 2.2754,6.7677 10.5804,0.6843 0.9481,-3.9921 29.5799,-4.2203 2.8821,-5.9692 7.4329,0.4563 -2.7684,9.5431 7.5846,10.3415 -1.4411,9.1248 -6.7123,3.0036 -1.6686,11.9004 -13.4247,7.0717 -1.3653,9.9994 -9.6324,5.0947 5.4609,19.6944 -19.5682,13.8775 -10.5805,1.4067 -0.9101,7.9082 -2.8063,-6.6155 -1.7065,4.6005 -9.7841,-0.8365 -5.2334,8.3645 -8.1913,-0.5323 -5.5368,14.3716 3.6785,7.5661 -3.7922,2.2051 -3.6027,-6.3113 -9.4049,7.7561 -3.5268,-3.4598 -8.381,1.939 -4.0577,6.0833 3.1097,3.688 -10.2771,14.7518 -16.0414,4.3723 -6.9399,-3.0796 -4.5128,16.1966 -22.2987,16.3487 19.3028,1.2166 -5.0438,5.1328 2.5029,9.353 -6.1814,2.8135 0.7964,4.1062 -4.0957,2.0531 -9.3669,-6.7296 -10.2013,8.2504 -17.6341,1.4067 -3.2235,12.5087 -14.1452,-7.49 -13.7281,1.3307 -5.7643,10.6837 0.7964,8.2885 -9.4428,-0.4563 5.3851,-3.3078 -0.7964,-7.528 -16.231,0.2279 -3.1097,-5.9691 -11.6044,0.7984 -0.7584,-4.8286 -6.2952,4.7906 10.4667,7.4139 -8.9119,-2.3572 -5.0058,6.9576 -4.8921,-0.6843 -5.5746,-4.0681 2.3891,-9.9994 -6.5606,-0.19 0.8722,-4.9046 -12.1353,-1.0266 -1.4411,-7.7941 -10.1633,-1.4448 -2.8063,5.741 -10.7701,-11.7482 -5.7643,3.802 -24.9912,-3.878 z"
     inkscape:connector-curvature="0" />
</svg>
