<?xml version="1.0" encoding="UTF-8" standalone="no"?>
<svg
   xmlns:mapsvg="http://mapsvg.com"
   xmlns:dc="http://purl.org/dc/elements/1.1/"
   xmlns:cc="http://creativecommons.org/ns#"
   xmlns:rdf="http://www.w3.org/1999/02/22-rdf-syntax-ns#"
   xmlns:svg="http://www.w3.org/2000/svg"
   xmlns="http://www.w3.org/2000/svg"
   version="1.1"
   id="svg2"
   height="794.3089"
   width="584.95001"
   mapsvg:geoViewBox="5.865010 55.057722 15.043380 47.266348">
  <metadata
     id="metadata24">
    <rdf:RDF>
      <cc:Work
         rdf:about="">
        <dc:format>image/svg+xml</dc:format>
        <dc:type
           rdf:resource="http://purl.org/dc/dcmitype/StillImage" />
        <dc:title></dc:title>
      </cc:Work>
    </rdf:RDF>
  </metadata>
  <defs
     id="defs22" />
  <path
     id="DE-BW"
     title="Baden-Wurttemberg"
     d="m 180.96,752.61787 0.58,2.09609 -1.43,-0.58169 -2.03,0.7221 1.01,-1.05306 -0.63,-1.38403 2.5,0.20059 z m 25.41,-180.02335 5.81,0.34099 2.84,-0.68198 0.71,-1.25365 0,0 0.58,0.0301 0,0 1.59,-2.05598 -0.89,-1.86542 2.14,-2.11615 2.52,1.09318 1.51,-1.32385 1.14,1.36396 1.36,-0.19055 0.87,-1.33388 -1.25,-1.34391 1.36,-1.74507 -0.14,-2.09609 -2.07,-1.90554 -0.31,2.65772 -1.53,-0.0401 -0.9,-1.43417 1.87,-0.99289 -4.96,-0.95277 1.73,-0.54157 -0.48,-2.39697 2.3,-0.0702 1.29,-0.98286 1.28,0.90262 2.12,-1.95568 2.08,1.9958 1.39,-1.73504 1.46,-0.18053 0.65,2.34682 2.11,-0.18052 1.05,2.19638 -0.33,-2.99871 0.69,-0.79231 0.99,0.42123 4.24,-1.28374 -0.25,1.79522 0,0 -0.13,1.58461 0,0 0.2,1.9256 -1.24,0.5516 0.97,0.84245 -1.08,1.89551 1.8,1.69493 0,0 0.53,-0.18053 0,0 0.92,-0.43125 0.11,-2.27662 2.07,-1.07312 1.08,3.88129 0,0 0.59,0 0,0 1.06,-2.17633 2.92,-2.05598 -0.29,0.9628 2.43,1.82531 -0.2,4.97446 1.58,0.93271 1.09,3.15918 -1.91,1.60467 0.38,1.69493 -2.35,2.17632 3.04,0.98286 0.35,-2.1663 2.17,-1.96571 1.06,0.52151 -1.09,1.95569 1.39,-0.0502 0.04,0.87254 0,0 0.26,0 0,0 -0.71,5.9172 0.87,0.87254 5.81,-0.0903 0.71,-1.80525 1.97,-1.33388 -1.36,-1.21353 1.64,-1.67487 1.68,1.17342 -0.4,2.22647 2.4,0.25073 -1.38,1.80524 1.38,2.69785 -1.08,0.10029 -0.68,1.46426 2.52,0.98285 1.79,4.10193 -3.48,1.64478 1.03,2.79813 -1.06,-0.1404 -0.24,0.98285 0.45,1.25365 2.05,0.60175 -0.64,2.19638 1.59,1.98578 -1.45,1.71498 -0.64,-1.2737 -0.91,1.67487 1.5,0.57166 -0.9,0.50146 1.3,3.53026 -0.86,-0.0201 -0.12,1.15335 1.98,0.6519 0.82,1.43417 0.72,-0.44128 1.24,2.69784 1.26,-0.82239 1.85,1.41411 0.47,1.88548 -1.94,1.04303 -0.98,1.73505 1.19,1.1032 1.43,-0.19055 -1.01,1.54449 1.75,1.26367 -0.74,2.19639 2.75,-0.23067 1.78,1.59463 1.7,-0.16046 0.5,2.29667 1.59,0.36105 0,1.2035 0.89,-0.17049 0.68,1.1032 0.48,-0.52151 -0.54,1.6849 0.84,-0.20059 0.79,2.0961 1.35,0.82239 -0.83,0.47137 1.21,1.63475 -2.17,1.09318 1.96,1.63475 -0.01,2.90846 -1.64,1.49434 1.36,1.22356 0.03,1.87545 -1.8,1.2035 0.77,2.20641 -1.3,0.4814 0.98,1.41411 -0.75,0.92268 1.94,1.78519 1.09,-0.68198 -0.57,0.66193 1.75,1.98577 -0.73,0.51149 1.5,1.48431 -1.91,1.63475 -3.44,0.88257 0.99,-1.11324 -0.24,-1.67487 0.99,-0.28081 -1.91,-0.44129 -1.27,3.00875 -1.75,1.26368 -1.64,-3.46006 -1.99,0.37108 -2.24,-1.6849 0.28,1.63475 -1.07,0.5516 -0.1,1.45423 4.3,5.4358 -1.56,0.50146 -0.29,1.34391 1.26,2.41702 -0.75,2.06601 0.59,1.91557 -4.84,1.10321 -0.49,0.4814 0.92,0.0802 -0.03,1.33388 -3.67,1.55452 -0.82,1.69492 -2.44,0.25073 -1.66,-2.13621 -2.75,2.20642 -1.65,-0.43126 -0.59,2.06601 0.88,0.80233 -4.53,4.8842 0.29,1.39405 1.51,0.0502 -0.06,1.53446 4.28,6.27825 -0.06,4.59335 2.82,9.78846 1.77,1.83534 0.54,3.64058 0,0 0,1.46426 0,0 -0.27,0.52151 0,0 0.08,0.63184 0,0 -1.66,6.8098 -1.75,0.73212 0,1.75511 1.47,1.45422 -0.08,2.1663 -0.87,2.45715 0.62,0.47137 -1.8,1.26367 0.31,1.01294 1.42,-0.73212 -0.89,2.04594 0.98,-1.02297 -0.27,0.98286 2.25,3.09901 -1.13,-0.23067 -0.37,1.11323 -1.47,-0.36105 -1.76,1.60467 3.47,2.57749 -0.11,3.87125 1.5,1.6849 -0.57,2.28665 -1.2,1.09318 -1.33,-0.68198 -0.92,3.20933 -0.78,-3.42998 -2.13,0.0802 -0.25,-1.09318 -1.76,0.56163 -2.23,2.73796 -7.15,-2.49726 -1.34,0.95277 0,0 -0.05,0.42123 0,0 -0.96,1.37399 -1.57,0.21061 0.19,1.16338 -2.63,2.13622 -3.03,0.98285 -3.02,-0.93271 -1.23,0.82239 -1.72,2.03592 -0.75,3.14916 0,0 -8.57,-1.57458 -17.77,-8.76548 -6.15,-2.13621 -4.49,-0.5817 -7.9,3.56035 -2.79,-3.15918 0.04,-1.35394 1.42,0.19056 -0.1,-0.92268 -3.39,-0.93272 -0.63,-2.31673 -2.45,1.83534 -0.04,1.09317 2.54,1.23359 -1.1,1.85539 -4.17,-1.79522 0.59,-2.13621 -1.5,-1.13329 0.59,-1.55452 1.21,-0.35102 -1.14,-1.56455 -1.86,0.82239 -0.64,-2.70787 -1.89,-1.45423 -0.63,1.1333 0.5,1.41411 -1.48,1.36396 -0.73,-3.79102 -2.64,-0.0802 -0.59,-0.7923 -0.34,1.35393 0.92,1.16338 -1.54,-0.29084 -2.03,1.32385 -2.31,0.0802 -2.21,2.82822 0.31,1.66484 -3.05,2.26659 0.94,1.41411 -0.97,0.94274 2.51,1.8554 1.43,-0.25073 0.51,1.69493 -0.15,-1.00292 1.31,0.77224 2.08,-0.29084 -0.02,-1.47429 0.9,0.28082 0.25,-0.94274 2.24,0.44128 1.61,-0.9628 1.48,2.35685 -0.79,0.94275 -0.43,-1.374 -0.82,0.87254 0.56,2.79813 -1.86,1.74508 -0.93,-0.5817 0.51,-1.49434 -3.17,-1.53446 -0.75,1.48431 -3.26,1.50438 0.69,1.64478 1.36,-0.43125 -0.13,1.06309 -3.53,1.05306 -2.15,-1.04304 -0.94,1.05307 -3.79,-0.69202 -2.22,-3.44 -2.03,-0.53154 -1.94,0.99289 -1.36,-1.51441 -2.55,2.4772 -3.53,1.19347 -1.27,2.29668 -1.38,-0.64187 -3.07,1.31382 -3.86,-0.68198 -1.04,1.31382 -1.93,-0.60175 -1.32,-3.50017 -4.44,-0.0602 -1.66,2.86834 -6.59,2.36688 -1.63,-0.37108 -2.09,-2.35685 3.29,-0.43125 -0.9,-1.98578 1.31,-1.29376 -1.19,0.85248 -1.68,-0.35102 -1.74,1.6849 -1.89,-1.15335 -1.52,-4.04175 -2.8,-2.80817 -0.69,-3.32968 2.32,-3.44 -1.16,-4.32256 2.07,-5.88712 -0.35,-3.59044 1.6,-1.72501 0.09,-3.17924 2.5,-3.94146 -0.91,-2.78811 -2.45,-3.14915 0.47,-8.24397 5.72,-9.66811 1.7,-7.68233 3.29,-2.43708 -0.78,-6.44875 2.01,-5.68653 0.28,-3.52024 2.4,-2.35685 -0.38,-6.67942 2.49,-5.49597 3.19,-2.03592 4.76,-5.78682 0.5,-3.39989 2.79,-0.3109 0.89,-2.46717 2.35,-0.29085 1.46,-1.30379 3.8,-9.87872 3.08,-5.11487 2.23,-0.86251 0,0 3.3,-2.83825 0,0 0.84,-1.81527 0,0 0.94,-3.88129 2.98,-4.56326 0.58,-6.64933 2.36,-4.90426 -1.26,0.0702 0.34,-1.56455 6.23,-5.88711 -2.43,-2.90846 3.03,-4.08186 0.13,-2.13621 -1.68,1.46426 -0.7,-0.76222 2.08,-1.95569 0.78,-3.29959 -4.12,-1.49434 1.32,-2.01586 -3.05,-8.13365 0.45,-2.96863 0,0 1.61,-0.57166 1.76,0.60175 5.46,6.78974 2.24,-1.66484 0.73,0.32093 0.53,-1.2737 -1.32,-6.76968 6.19,-1.33388 -0.3,1.47429 -0.4,-1.36397 -0.73,0.53155 1.75,1.90554 -1.08,2.12618 1.58,2.64769 -0.2,1.28374 1.97,1.69492 0,0 -0.01,-0.26076 0,0 4.13,0.91266 1.63,-1.25365 -0.34,1.83534 0.93,1.38402 0.94,-0.90262 3.32,-0.18053 0.09,1.77516 -1.49,1.74508 -0.93,0.0702 -0.61,-1.69493 -1.71,1.50438 0.77,3.37982 -2.31,2.29668 0.85,1.33388 1.06,-1.06309 1.16,1.21352 2.8,-2.55743 0.52,-2.21644 0.69,0.6218 2.36,-1.7551 -1.2,-1.41411 0.58,-1.4442 0.87,0.19056 -0.15,-2.07604 2.16,-0.62181 2.54,1.25365 1.36,-1.07312 0,0 0.26,-0.4814 0,0 0.92,-1.64478 2.21,0.40116 0.44,1.60467 1.24,-0.71207 -3.41,-4.72373 0.09,-1.04304 0.61,1.39406 1.08,0.10029 0.07,-1.67487 z" />
  <path
     id="DE-BY"
     title="Bavaria"
     d="m 266.2,479.39357 1.96,-1.04303 -0.11,-0.92268 2.4,-2.78811 2.19,2.10613 0.52,-0.95277 1.56,0.95277 0.25,-0.90263 1.56,-0.2407 0.3,1.38403 1.48,0.94274 0.03,1.9958 1.52,-0.20058 2.95,1.94565 1.79,-0.0301 0.44,2.85831 1.97,2.69785 0.87,-0.12035 -0.68,0.75218 2.01,0.64187 -1.16,1.6849 0.68,1.49434 3.64,-0.78227 1.34,2.81819 0,0 0.47,0 0,0 0.71,-0.18052 -0.02,2.00583 1.3,-0.45132 0.18,0.9628 1.12,-1.55452 0.77,0.1705 1.09,2.60758 2.43,0.42123 -0.49,2.58752 0.77,1.49434 -0.82,2.12618 1.05,-0.0201 -0.59,0.83242 0.79,1.40409 -0.86,0.35102 0.65,1.53446 1.4,0.71207 1.88,-0.69201 2.29,1.79521 0,0 0.33,0 0,0 1.07,0.73213 0.83,-0.67195 0.11,-3.98158 2.41,0.98286 2.03,-1.02297 1.36,1.39405 1.53,-0.66192 -0.07,-3.07895 -2.17,-0.39114 0,0 -0.35,0 0,0 -0.17,-1.22356 -2.06,-0.16047 -1.84,-2.2365 -1.66,-0.52151 0.81,-2.35685 -0.97,-0.15044 0.18,-1.84537 2.45,0.63184 2.01,-2.65773 1.22,0.53155 1.71,-1.30379 1.92,0.45131 0.89,-0.85248 0.96,1.60467 1.08,-0.6519 0,0 0.48,-0.19055 0,0 1.27,-0.35102 3.12,4.45294 0.82,-0.16046 -0.26,-1.59464 2.76,0.53155 0.46,1.60466 2.62,-0.78227 0.23,-1.35394 1.68,-0.13038 0.17,1.7551 1.27,-0.40116 1.27,2.25656 -1.56,3.05889 0.81,1.41411 2.3,0.49143 -0.41,1.08315 0.92,-0.32093 0.31,-1.99581 3.59,2.44712 0.33,-2.02589 0,0 0.26,0 0,0 -0.58,-0.4814 1.13,-1.25365 -0.51,-3.07895 0.95,0.0802 -0.94,-1.53446 1.47,-0.87254 -1.69,-3.9916 0.57,-3.04887 -1.19,-1.85539 -0.03,-2.97866 2.5,-0.63184 0.25,0.95277 0.71,-1.38402 1.29,-0.14041 -0.05,-1.77516 1.63,-0.22064 -0.07,-1.00292 5.42,0.95277 0.63,1.19347 -0.35,0.79231 -0.97,-0.2407 0.02,4.96443 1.93,1.26367 -0.49,1.19347 1.39,-1.21353 1.16,0.18053 -0.24,2.9586 2.65,0.4814 0.09,2.10612 2.42,-1.05306 0.72,-1.46426 1.42,-0.29084 1.98,1.54449 5.31,-1.49435 0.38,0.64187 1.59,-1.30379 1.56,0.32093 -0.7,-0.87253 1.28,0.43125 0.44,-0.92268 2.9,1.69492 0,1.31382 6.28,-3.38985 0,0 1.91,1.55452 -0.26,1.24361 0.96,-0.44128 1.19,1.14332 -0.37,3.77097 1.27,-0.36105 3.12,2.85831 0.07,-0.62181 2.83,-0.16047 0.58,1.54449 0,0 1.56,1.15336 -0.4,0.92268 1.34,2.14624 -2.69,1.32385 -0.4,1.29376 2.26,1.64478 1.48,-0.28082 0.61,2.4772 0.93,-0.27078 0.54,1.42414 0.9,0.0501 -0.51,0.44129 1.7,2.57749 -1.37,2.61761 0.34,3.27953 2.03,1.48432 1.06,-0.30088 1.72,2.08607 -0.89,1.79522 3.6,0.54157 0.67,2.01586 0.64,-0.69201 1.91,2.20641 2.1,0.15044 0.09,1.07312 1.84,0.25073 0.07,1.76513 1.8,-1.04303 1.88,1.38402 0.59,0.91265 -1.81,2.30671 0.45,1.25365 4.43,1.5144 0.19,1.97574 -3.36,4.37271 0.03,1.80525 -1.48,0.2407 -0.65,2.46717 0.5,2.39697 -4.51,2.53738 0.11,1.80525 2.44,3.84116 2.9,1.6147 2.18,0.0702 0.4,6.71954 2.07,-0.15044 1.87,8.02332 2.02,1.11324 0.95,-0.57166 0.49,0.87253 -0.67,4.56327 1.48,2.33679 0.03,1.84537 3.26,0.9628 3.12,2.92851 1.46,4.68362 4.33,0.23067 2.17,1.48431 -0.03,-2.03592 3.96,0.61178 4,3.76094 1.41,0.15043 0.31,3.87126 1.3,0.0802 0.47,1.28373 1.28,0.38111 0.43,1.84536 1.66,0.95277 -0.17,1.54449 3.85,2.89843 0.43,3.46006 3.63,2.26659 3.42,-0.46134 6.64,6.31837 0.63,6.50892 5.86,4.41283 0.82,-0.12035 -0.02,-2.55744 1.53,-0.50146 3.11,0.37108 1.8,3.16922 1.3,-1.12327 -0.41,1.02297 3.1,5.66648 2.84,0.25073 1.39,-0.82239 1.66,4.92431 1.84,0.54158 1.39,3.07895 -0.61,1.66484 2.21,0.89259 -2.89,5.44583 1.11,1.33388 1.62,0.29085 -1.59,0.69201 0.68,7.4316 -1.47,1.7551 0.03,2.06601 -2.02,1.93563 -0.71,-0.9628 -0.78,1.04303 0.17,2.04595 -1.05,1.70496 -4.19,-1.88549 -0.74,-1.35393 -3.04,-1.76513 -2.09,0.6218 -4.13,-2.8583 -0.16,1.38402 -1.93,1.85539 -1.62,-0.77224 -0.75,0.57166 1.19,4.46297 -2,5.2954 0.81,2.51732 -1.8,5.38565 -4.87,4.66356 -5.03,3.17924 -4.67,-0.22064 -10.25,3.57038 -4.04,4.59335 -5.57,0.74216 -1.44,3.29959 -3.07,2.02589 -0.88,2.22648 -1.76,-0.31091 -0.55,1.64478 0.82,3.47009 5.68,5.46589 1.47,5.00455 2.51,0.63184 0.53,1.60466 1.02,-0.36105 4.17,8.91592 -4.82,7.32129 0.95,0.76221 -2.22,3.8512 1.29,1.2035 2.77,0.29084 2.89,-1.49434 4.05,3.46006 -0.23,1.61469 1.38,3.30962 -2.3,3.11907 0.56,1.35394 -1.81,1.06309 0.98,1.3439 -1.67,2.53738 1,1.24362 -0.08,2.84828 -2.78,2.65772 -0.57,-1.43417 -1.29,-0.60175 -0.37,1.02298 -3.76,-2.14624 -1.69,-2.3368 -1.85,-0.80233 -0.37,-1.53446 -3.22,-0.86251 -1.03,-2.42705 1.1,-2.26659 1.7,-0.66193 -4.17,-3.66064 1.51,-2.10612 -1.55,0.88257 -1.74,-1.55452 -3.25,-0.21062 -2,1.18344 -2.81,-0.23067 -1.85,3.79102 -2.47,-0.3109 -2.53,1.04303 -3.8,-4.75382 0.06,-1.85539 -4.61,1.033 -2.01,-1.2035 -5.15,1.6849 -0.89,-1.42414 1.47,-3.6807 -0.79,-0.93271 -2.4,2.91848 -3.26,1.12327 2.35,5.86706 0.18,2.99871 -1.79,0.51149 0.19,-1.25364 -2.49,0.81236 -4.86,-1.27371 -2.62,0.84245 -0.76,-1.44419 -2.08,1.1032 -3.97,-0.0401 -3.68,1.12326 -0.72,1.89551 -3.95,-0.88256 -7.61,0.68198 -1.69,-0.99289 -0.15,1.32385 -1.93,0.1705 -1.02,5.01457 -0.99,0.98286 -4.23,0.93271 -4.68,-0.77224 -3.14,3.86122 1.5,0.43126 0.89,2.18635 -5.37,-0.43125 -2.97,2.08606 -0.09,1.84537 -1.35,0.98286 -2.84,0.19055 1.85,-3.09901 -3.03,-0.54157 -4.97,2.03591 -0.77,1.48432 -8.86,-0.1705 -0.45,-1.56454 0.89,-1.4442 -3.48,-3.84117 0.4,-0.91265 -4.22,-0.14041 0.23,-1.84537 2.85,-1.06309 -1.9,-2.25656 -6.96,2.15627 -1.2,-1.89551 -4.06,-0.97283 -0.28,-1.37399 -5.85,-0.90262 -1.67,3.29959 -3.1,-0.12035 -4.33,-1.93563 1.62,-2.79813 -2.72,0.0802 -0.5,0.68198 1.42,2.1663 -1.36,4.79394 0.77,1.74507 1.62,0.75219 0.44,4.10192 -2.5,2.07604 -0.03,2.77807 -2.52,0.50146 -4.22,6.65936 -6.19,3.25948 -2.05,-0.5817 -1.6,0.66193 0.21,-2.45714 2.24,-1.53447 -0.96,-1.44419 2.4,-5.13493 -0.63,-0.54158 -0.91,0.78228 -1.91,-1.24362 -1.18,2.30671 -2.97,-0.59172 -1.25,1.83533 -1.79,-5.31545 2.2,-1.57458 -0.74,-2.35685 -2.47,-1.18344 -0.73,-2.03592 -2.73,0.43126 -0.87,-1.39406 0.53,-0.49142 -1.93,-1.75511 0.34,-2.32676 -0.48,1.08315 -2.7,0.4814 -2.53,-1.74508 -0.48,1.87546 -3.75,-1.87546 0.76,-2.91848 -1.66,-1.53446 -2.51,1.09318 -1.63,4.73376 -8.67,-1.35394 0,0 0.75,-3.14915 1.72,-2.03592 1.23,-0.82239 3.02,0.94274 3.04,-0.98286 2.63,-2.13621 -0.19,-1.16338 1.57,-0.21061 0.95,-1.374 0,0 0.05,-0.42122 0,0 1.34,-0.9628 7.15,2.49726 2.23,-2.72793 1.76,-0.56163 0.25,1.1032 2.12,-0.0802 0.79,3.41994 0.92,-3.1993 1.34,0.68198 1.19,-1.09317 0.58,-2.28665 -1.51,-1.69493 0.11,-3.86122 -3.47,-2.5775 1.76,-1.60466 1.46,0.36105 0.37,-1.11324 1.14,0.23067 -2.25,-3.10904 0.27,-0.97282 -0.98,1.02297 0.89,-2.04595 -1.42,0.73213 -0.31,-1.01294 1.8,-1.26368 -0.63,-0.47137 0.87,-2.45714 0.08,-2.1663 -1.47,-1.45423 0,-1.7551 1.75,-0.73213 1.66,-6.80979 0,0 -0.08,-0.63184 0,0 0.28,-0.52152 0,0 0,-1.47428 0,0 -0.54,-3.63056 -1.77,-1.83533 -2.81,-9.78846 0.06,-4.59335 -4.28,-6.27825 0.06,-1.53447 -1.52,-0.0501 -0.28,-1.39405 4.53,-4.8842 -0.88,-0.81236 0.59,-2.06601 1.64,0.44128 2.75,-2.21644 1.66,2.13621 2.44,-0.25073 0.83,-1.69493 3.67,-1.55452 0.02,-1.33387 -0.92,-0.0802 0.49,-0.4814 4.84,-1.1032 -0.58,-1.91557 0.74,-2.07604 -1.26,-2.41702 0.29,-1.33388 1.56,-0.50146 -4.3,-5.44583 0.09,-1.45423 1.07,-0.5516 -0.28,-1.63476 2.25,1.6849 1.99,-0.37108 1.64,3.46006 1.75,-1.26367 1.27,-3.01878 1.91,0.45131 -0.98,0.28082 0.23,1.66484 -0.99,1.11324 3.44,-0.88257 1.91,-1.62472 -1.5,-1.49435 0.73,-0.51148 -1.75,-1.97575 0.57,-0.66192 -1.09,0.69201 -1.94,-1.79522 0.75,-0.92268 -0.98,-1.41411 1.3,-0.4814 -0.77,-2.20641 1.8,-1.2035 -0.02,-1.87546 -1.37,-1.22355 1.65,-1.49435 0.01,-2.89842 -1.96,-1.64478 2.18,-1.09318 -1.22,-1.64478 0.84,-0.47137 -1.35,-0.8224 -0.79,-2.09609 -0.84,0.20058 0.54,-1.68489 -0.47,0.52151 -0.69,-1.11323 -0.88,0.17049 0,-1.2035 -1.59,-0.36105 -0.5,-2.29667 -1.7,0.16046 -1.78,-1.59463 -2.75,0.23067 0.74,-2.19639 -1.75,-1.26367 1.02,-1.55452 -1.43,0.20058 -1.19,-1.1032 0.98,-1.73505 1.94,-1.04303 -0.46,-1.87545 -1.86,-1.41411 -1.25,0.82239 -1.24,-2.70787 -0.72,0.44128 -0.82,-1.43417 -1.99,-0.6519 0.12,-1.15335 0.87,0.0201 -1.3,-3.53026 0.9,-0.50146 -1.5,-0.57166 0.91,-1.67487 0.64,1.2737 1.44,-1.71499 -1.59,-1.98577 0.64,-2.19638 -2.04,-0.60175 -0.46,-1.25365 0.25,-0.98285 1.05,0.1404 -1.03,-2.79813 3.48,-1.64478 -1.79,-4.11196 -2.52,-0.98285 0.68,-1.45423 1.09,-0.10029 -1.38,-2.69785 1.38,-1.80524 -2.4,-0.26076 0.4,-2.22647 -1.69,-1.16339 -1.63,1.66484 1.36,1.21353 -1.97,1.34391 -0.71,1.80525 -5.8,0.0802 -0.88,-0.87254 0.71,-5.90717 0,0 -0.26,0 0,0 -0.05,-0.87254 -1.39,0.0502 1.09,-1.95569 -1.05,-0.52151 -2.17,1.96571 -0.35,2.15627 -3.04,-0.98286 2.34,-2.16629 -0.37,-1.69493 1.91,-1.60467 -1.09,-3.15918 -1.58,-0.93271 0.2,-4.97446 -2.43,-1.82531 0.29,-0.9628 -2.92,2.05598 -1.06,2.17632 0,0 -0.58,0 0,0 -1.09,-3.88128 -2.07,1.07312 -0.11,2.27662 -0.91,0.43125 0,0 -0.53,0.18053 0,0 -1.8,-1.69493 1.08,-1.89551 -0.97,-0.83242 1.24,-0.5516 -0.2,-1.9256 0,0 0.14,-1.59464 0,0 0.25,-1.79522 -4.24,1.28374 -0.99,-0.42123 -0.7,0.7923 0.33,2.99872 -1.04,-2.20641 -2.11,0.18052 -0.65,-2.34682 -1.46,0.18053 -1.39,1.73504 -2.08,-1.9958 -2.12,1.95568 -1.28,-0.90262 -1.3,0.99289 -2.3,0.0702 0.49,2.39697 -1.73,0.54157 4.96,0.95277 -1.87,0.99289 0.9,1.43417 1.53,0.0401 0.31,-2.65772 2.06,1.89551 0.14,2.10612 -1.36,1.74507 1.25,1.33388 -0.86,1.34391 -1.37,0.18052 -1.14,-1.36396 -1.51,1.31382 -2.52,-1.09318 -2.15,2.11615 0.9,1.87545 -1.59,2.05598 0,0 -0.58,-0.0301 0,0 -0.71,1.25365 -2.84,0.68198 -5.81,-0.34099 0,0 -1.24,-2.27662 -1.05,-0.18052 -0.01,-1.6849 2.24,-2.14624 -0.77,-5.1249 2.44,-0.74216 -0.37,-1.29376 1.61,-2.65773 -2.58,-1.76513 1.73,-2.3067 -0.44,-1.36397 -2.38,0.46134 -0.82,-2.57749 0.54,-2.87837 -1.34,1.46426 -0.75,-0.74216 0.53,-0.68198 -1.61,0.21061 -0.2,-2.22647 1.1,-0.0602 -1.75,-4.28245 -0.3,-6.67941 0.48,-1.40409 1.51,-0.1404 -0.96,-1.08315 -0.35,-3.56035 -3.33,-0.76222 1.4,-2.08606 -0.05,-2.24653 1.36,-1.94566 6.39,-1.50437 2.23,0.94274 -0.17,2.51732 2.51,-3.49015 -0.33,-1.11324 2.25,-1.1032 2.12,1.05306 3.54,0.52151 1.18,-0.73213 0.8,0.8926 1.84,0.0201 2.04,4.07183 2.02,0.59173 4.99,-1.01295 -0.29,-5.04467 0.82,-0.42122 0,0 0.49,-1.62472 0,0 -0.09,-0.13038 0,0 -1.83,-0.92268 0,0 0.13,-1.62473 0.97,-0.61178 -1.3,-2.7179 0.33,-1.5144 2.66,1.6849 2.18,-0.78228 0.42,1.08315 5.2,-1.17341 0.07,-0.75218 -1.78,-0.95277 1.06,-2.05598 3.02,-0.98286 2.87,-2.87837 0.02,-3.15918 -0.87,-1.43417 1.83,-6.95021 1.22,0.64187 1.35,-0.64187 0.41,1.19347 3.18,1.63476 0.79,-1.32385 0.71,1.02297 1.26,-0.39113 3.65,-2.03592 2.54,-3.781 1.26,-0.49142 z" />
  <path
     id="DE-BE"
     title="Berlin"
     d="m 485.1,258.45127 0.07,0.0401 0,0 0.71,-0.34099 -0.07,1.39406 2.28,1.41411 -1.62,3.89131 0.69,1.62472 2.67,0.4814 2.06,1.77516 0.11,2.30671 3.23,0.76221 -0.5,1.12327 1.82,0.12035 -2.93,6.0877 0.78,0.58169 1.57,-1.33388 3.72,2.51732 -0.35,-1.35394 3.7,2.5775 -1.24,1.14332 0,0 -0.93,-0.22064 0,0 1.13,0.54157 0,0 0.03,0.2407 0,0 -0.31,0.0401 0,0 -0.36,0.64187 0,0 0.44,1.14332 0,0 -0.63,1.04303 0,0 -2.73,1.40408 0.85,1.18344 -1.71,0.90263 -1.59,2.86834 -0.71,-0.74216 0.46,-3.25948 -0.94,-0.59172 -1.43,0.80234 -0.97,-1.91557 -3.48,0.41119 -0.07,-1.11323 -3.57,0.43125 -0.85,-2.50729 -2.96,1.033 -0.02,3.56035 -1.98,-0.19055 -0.15,-1.09318 -1.02,-0.0301 -1.72,-2.29667 -1.47,0.76221 0,0 -0.99,-0.32093 0,0 -0.47,-1.07312 -1.47,1.24362 -1.6,-0.0201 -0.21,-1.62473 -1.29,-0.13037 -3.7,1.57457 -0.57,1.01295 0.81,0.13038 -2.44,0.49143 0,0 -0.34,0.02 0,0 0.63,-0.82239 -2.19,-1.25364 0,0 -0.31,-0.1705 0,0 -0.46,-0.01 0,0 0.4,-1.09317 0,0 1.69,-1.64479 -0.83,-1.18344 0.53,-3.0288 3.13,-3.25948 -1.53,-1.08315 -1.65,0.29085 0.63,-3.46006 1.19,-0.28082 0.5,-2.31673 -1.58,-1.22356 2.24,-1.29376 3.36,1.15335 -0.96,-1.9958 1.22,-2.22647 2.74,0.0602 -0.17,-1.35393 1.38,-0.19056 0.02,-1.98577 1.7,0.36105 -0.02,2.99872 3.2,0.5516 2.21,-2.56746 1.84,1.26367 1.35,-1.50437 1.67,-0.0903 -1.29,-1.22356 0.56,-0.70204 0,0 0.91,-0.53155 0,0 0.38,0.11032 0,0 z" />
  <path
     id="DE-BB"
     title="Brandenburg"
     d="m 344.27,210.46176 8.02,1.19347 0.28,-3.00875 1.52,-0.16047 1.24,0.64187 1.43,-0.56163 0.54,1.43417 2.03,0.66192 1.84,-0.50146 1.54,-1.35393 -0.38,-1.38403 1.06,-1.54449 -1.01,-4.7137 2.29,-0.47137 2.52,-2.77808 2.59,-0.51148 3.87,1.31382 0.19,1.53446 2.86,-1.02298 2.68,0.27079 0.79,-1.22356 -2.17,-1.80525 4.06,0.4814 2.05,-3.00874 3.61,0.69201 1.58,-2.94857 1.32,0.65189 1.81,-0.95277 -0.36,-3.59044 2.73,-1.78519 -0.84,-2.29667 2.17,0.46134 0.15,2.22647 1.88,0.28082 2.53,-1.79522 1.15,2.31673 1.05,-0.37107 0.12,-1.08315 2.71,-0.60175 1.78,3.74087 3.31,-0.45131 5.24,2.97866 0.04,1.70496 2.2,1.033 1.09,2.7179 5.11,-1.54449 5.11,2.15627 3.58,-1.05306 0.94,0.51148 -0.66,1.65482 1.15,0.74215 4.58,0.30088 -1.14,2.51732 1.99,1.32384 4.93,-1.49434 1.96,2.28665 1.63,-1.5144 1.63,-0.16047 -0.55,0.80233 1.23,0.15044 -0.16,-0.83242 1.8,-0.64187 1.01,0.92269 -2.37,1.83533 1.03,-0.38111 1.04,1.74508 1.89,-0.49143 2.16,-3.04887 2.44,-0.52151 0.56,-1.41411 1.23,-0.18053 -0.07,-2.15627 1.6,0.0201 1.3,-1.55452 2.14,0.0702 1.27,2.89842 1.75,0.67196 0.93,-4.2624 3.49,-2.57749 2.45,0.80233 1.42,-0.4814 1.63,3.75091 1.24,-0.6519 0,0 -0.11,-0.18052 0,0 2.19,-3.74088 -0.12,-1.43417 1.13,-0.0401 0.5,1.02297 1.4,-0.36105 1.14,-3.55032 1.25,0.64187 -0.4,-3.55032 0.52,-1.4442 1.18,0.15043 0.91,-1.36396 -0.39,-2.2365 2.29,-1.59464 2.52,0.35102 0.45,-3.36979 5.14,-4.2624 1.63,-0.46134 2.3,1.28374 2.36,-1.25365 0.64,-1.28373 -3.07,-1.84537 1.17,-4.80396 1.9,4.38274 3.47,1.43417 -0.13,3.27953 2.52,2.18636 -0.91,2.41703 1.01,0.99288 5.37,-1.36396 2.89,0.52151 0.36,1.76513 2.22,0.28082 2.26,-3.23942 3.74,2.00583 1.8,-0.16046 0.92,-1.16338 1.08,0.68198 0.31,4.29248 -1.19,3.11906 -6.11,6.54904 -2.05,3.84117 3.91,-0.50146 3.35,1.33388 3.17,-0.5516 0.1,-1.80525 2.46,-1.00292 1.01,-2.67778 1.94,0.13038 4.07,-2.20642 0,0 0.58,5.59627 1.18,0.27079 0.48,1.38402 -2.75,5.6063 -1.75,1.15335 -0.57,4.07184 1.24,2.14624 -1.48,6.6393 -1.24,2.77808 -5.41,5.1249 -7.33,4.52315 1.04,8.10355 -2.41,4.89423 1.22,1.45423 4.86,0.83242 3.85,4.4028 4.64,2.53738 7.18,9.37726 8.47,5.53609 2.61,3.84117 -2.18,4.04175 1.88,4.49306 -3.42,5.10484 -1.96,0.89259 -0.95,4.00164 1.73,6.91009 1.4,2.09609 -0.53,1.90554 1.11,1.71498 6.09,1.82531 1.64,2.08607 -0.48,2.8583 -1.33,1.28374 1.22,2.65772 -1.58,2.86834 0.13,2.82822 4.91,5.26531 -0.87,1.17341 0.17,2.31674 -2.13,3.03883 0.46,1.02298 -1.04,1.72501 0.98,3.48012 -1.64,4.25236 -5.39,4.77388 -1.24,2.91848 1.03,2.30671 2.5,0.9628 1.45,7.18087 4.39,3.87126 1.25,2.88839 0.48,5.42578 -2.21,2.57749 0,0 -2.12,-1.61469 0.43,1.98577 -1.54,2.58752 -4.09,0.30088 -1.21,-2.21645 -1.82,-0.88256 -1.48,0.78227 -0.41,1.38402 -5.33,0.18053 -0.44,1.47428 -3.76,0.11033 -2.94,2.38693 -0.57,1.55452 -0.55,-0.83242 0,0 -0.04,-0.4814 0,0 -3.44,-1.65481 -1.54,0.47137 -2.05,-1.20349 -4.85,-0.40117 -0.52,1.14332 0.7,0.90263 -2.22,0.25073 -0.69,2.35685 -1.29,0.54157 0.87,1.59464 -3.47,0.11032 1.82,3.13912 -1.59,1.00292 0.53,1.70496 -1.87,1.39405 0.71,0.87254 -1.48,0.15043 -0.36,2.20642 -1.78,-0.34099 0.05,-1.73505 -0.8,-0.32093 -3.37,1.70496 -4.55,-0.4814 -0.97,1.54449 -2.31,-0.1003 -0.63,0.80234 -0.43,-0.80234 -1.64,0.87254 -4.73,-1.50437 -0.56,0.73213 -3.96,0.0602 -0.52,-1.5144 -1.21,-0.14041 -1.61,1.59464 -0.4,-1.24362 -0.89,-0.0501 -0.22,-2.02589 -3.63,-1.033 0.66,-0.68198 -1.73,-1.41411 -1.62,1.07312 0.44,-1.22356 -1.79,-1.95568 -1.5,1.7551 0.16,1.11323 -3.49,-1.17341 0.34,1.10321 -2.7,1.50437 -0.04,1.30379 -1.59,-0.18052 0.4,1.58461 -3.34,-1.15336 -1.36,-4.10192 -0.3,1.2737 -0.85,-0.43125 1.77,-2.31674 -1.32,-2.4772 0.15,-1.71499 1.07,-0.0802 0.38,-3.23942 -1.41,-3.39988 -2.65,-1.2035 1.12,-2.5474 -2.49,-2.74799 -2.24,1.17341 -2.16,-3.83114 0,0 6.09,-3.95149 0.8,-0.82239 -0.51,-1.88548 2.1,-0.58169 -2.1,-2.93854 0.75,-0.63184 -1.07,-1.7551 0.96,-3.88128 -2.61,-5.16502 1.94,-0.46134 -0.86,-1.95569 -1.2,-0.22064 -2.46,1.42414 -2.54,-0.32093 -0.84,-0.94274 0.7,0.01 0.4,-2.04595 -4.62,0.0501 0.12,-2.20642 -1.21,-0.21061 0.13,-1.29376 -2.46,-0.42123 -1.94,1.23359 -0.18,-0.70204 -2.17,-0.10029 -0.47,-3.38986 -4.14,0.53155 -1.55,-2.4772 -5.37,-2.61761 -0.97,-0.0702 -0.73,1.89551 -1.92,0.27079 -0.13,1.00292 -4.62,-0.36105 -0.25,-1.75511 -2.89,-1.15335 -0.71,-2.03592 -1.15,-0.11032 -0.71,1.79522 -0.98,0.0802 -2.93,-2.76804 -1.92,-0.47137 -2.92,-4.61342 -2.4,-1.25364 -0.87,-2.90846 -2.76,-3.81107 0.55,-1.60467 1.25,0.0201 0.05,-2.83825 3.19,-1.71499 -2.39,-0.70204 0.78,-0.53154 -1.7,-1.26368 1.98,-6.69947 1.96,-3.1291 -1.58,-2.01586 1.4,-1.28373 -0.76,-0.85248 0.48,-2.15627 -1.7,-0.83242 1.45,-0.94274 -0.5,-0.71207 2.71,-4.9544 -1.42,-1.11324 1.38,-0.89259 -3.8,1.06309 -0.71,-0.94274 0.66,-0.53155 -1.75,-2.21644 -1.55,2.14624 -2.09,0.52151 -1.17,-1.88548 1.46,-1.96571 -1.19,-0.71207 -1.75,0.95277 2.29,-4.66356 -0.65,-5.33551 2.08,0.67195 1.73,-1.09318 0,0 0.12,-1.00291 0,0 0.39,-4.47301 -1.1,-0.84245 0.33,-1.55451 -1.14,-0.79231 0.21,-0.91265 -0.76,0.20058 1.48,-2.74799 -0.83,-1.52443 0.73,-3.06892 1.87,-0.18052 0.51,-1.60467 -1.54,-5.95732 -2.1,-0.68198 -0.41,-1.06309 -4.4,2.67778 -0.12,-4.28245 -0.76,1.83534 -5.69,-1.43417 -2.75,1.53446 -5.71,-2.00583 -1.42,-1.55452 -2.24,-0.0301 -0.77,-1.24361 1.68,-2.06601 -0.27,-1.22356 -3.7,-0.87253 -2.8,-3.01878 -3.03,1.23359 -1.1,-3.25948 -3.23,-0.37108 0.88,-2.82822 -2.52,0.2407 0,0 -3.3,-1.86542 -2.46,0.51149 -3.54,-3.19931 -7.29,2.44712 -4.19,-4.54321 -0.45,-2.44711 z m 139.77,47.86916 0,0 -0.56,0.70204 1.29,1.22356 -1.67,0.0903 -1.35,1.50437 -1.84,-1.26367 -2.21,2.56746 -3.2,-0.54157 0.02,-3.00875 -1.7,-0.36105 -0.02,1.98577 -1.38,0.19056 0.17,1.35393 -2.74,-0.0602 -1.22,2.22647 0.96,1.9958 -3.36,-1.15335 -2.24,1.30379 1.58,1.21353 -0.5,2.31673 -1.2,0.28082 -0.63,3.46006 1.66,-0.29085 1.52,1.08315 -3.13,3.26951 -0.53,3.0288 0.83,1.18344 -1.68,1.64478 0,0 -0.4,1.09318 0,0 0.46,0.01 0,0 0.31,0.1705 0,0 2.19,1.25364 -0.63,0.82239 0,0 0.34,-0.0201 0,0 2.44,-0.49142 -0.81,-0.14041 0.57,-1.01295 3.7,-1.56455 1.29,0.13038 0.21,1.63476 1.59,0.02 1.47,-1.24361 0.47,1.06309 0,0 0.99,0.32093 0,0 1.47,-0.76221 1.72,2.29667 1.01,0.0301 0.15,1.08315 1.98,0.20058 0.02,-3.56035 2.96,-1.033 0.85,2.50729 3.57,-0.43126 0.06,1.10321 3.48,-0.41119 0.98,1.91557 1.43,-0.80234 0.93,0.59172 -0.46,3.25948 0.71,0.74216 1.59,-2.85831 1.7,-0.91266 -0.85,-1.18344 2.73,-1.40408 0,0 0.63,-1.04303 0,0 -0.43,-1.15335 0,0 0.36,-0.64187 0,0 0.31,-0.0401 0,0 -0.03,-0.2407 0,0 -1.13,-0.54157 0,0 0.93,0.22064 0,0 1.24,-1.14332 -3.7,-2.5775 0.35,1.35394 -3.72,-2.50729 -1.57,1.33388 -0.78,-0.57166 2.93,-6.09773 -1.82,-0.12035 0.5,-1.12327 -3.23,-0.76221 -0.11,-2.30671 -2.06,-1.77516 -2.68,-0.4814 -0.69,-1.62472 1.62,-3.89131 -2.28,-1.40408 0.06,-1.39406 -0.71,0.34099 0,0 0.17,-0.58169 0,0 -0.38,-0.10029 0,0 -0.52,0.71207 -0.35,-0.20058 z" />
  <path
     id="DE-HB"
     title="Bremen"
     d="m 167.3,199.35948 0.72,-0.10029 0,0 3.31,2.04595 1.56,-0.88257 1.31,0.53155 -1.23,2.18635 1.98,0.0401 0.81,2.01586 3.45,-0.34099 1.42,-1.06309 0.37,0.88256 1.46,-0.35102 0.92,1.74508 5.53,-0.0401 0.65,0.73213 0,0 0.19,0.93271 0,0 1.21,1.48432 0,0 0.11,0.33096 0,0 3.2,-0.11032 1.97,-2.0961 2.46,2.73796 -2.24,1.09318 0.96,1.7551 1.69,0.26076 -1.74,1.33388 0.17,2.6477 1.02,1.44419 -2.79,2.3368 -0.15,1.09318 -2.59,-0.01 -1.8,-2.77808 -0.06,1.96571 -2.75,0.15044 -2.84,-2.02589 -0.35,-1.48431 -1.05,1.57457 -2.38,-0.10029 -0.82,-1.61469 0.33,-2.26659 -2.84,-1.56455 0.23,-1.30379 -2.5,-3.78099 -0.71,-3.03883 -6.92,-3.24945 0,0 -0.27,-0.34099 0,0 -1.55,-2.53738 0.5,-0.37108 0,0 0.05,0.13038 z m 1.94,-40.54788 4.6,1.36397 1.45,-1.24362 1.91,0.30088 -0.17,-0.86251 1.1,0 -2.71,3.77096 0.69,1.90554 1.07,0.20059 -0.41,2.86834 0.75,1.49434 -1.14,2.03592 -1.64,1.24361 -1.31,-0.93271 -0.78,0.69201 -1.7,-3.65061 0.53,-0.35102 0,0 0.86,0.12035 0.08,-2.43708 0.48,0.47137 -1.19,-1.26368 0.1,-2.65772 -0.68,-0.0903 -0.19,1.38403 -1.7,-4.36269 z" />
  <path
     id="DE-HH"
     title="Hamburg"
     d="m 246.3,164.03679 2.61,-8.05341 0.09,1.58461 1.55,0.50146 0.19,1.96571 2.32,0.81236 3.46,-3.91137 1.02,-3.15918 4.61,0.65189 1.28,-3.74087 4.24,0.34099 0.81,-2.83825 -0.65,-0.68198 0.84,-1.04304 2.58,0.75219 3.03,-2.7179 1.62,0.83242 -0.09,0.75219 -0.65,1.56454 -1.6,0.55161 0.16,1.46425 -1.04,1.35394 2.63,1.53446 0.9,1.67487 -0.5,1.01294 1.93,0.51149 -1.96,2.30671 0.5,2.85831 -3.06,1.35393 0.71,5.44583 1.63,1.12327 1.51,-0.93271 1.9,4.12198 3.29,3.24945 2.15,0.34099 -1.13,1.65481 0,0 -2.85,1.43417 -1.58,2.55743 -4.1,0 -7.81,-7.20093 -0.28,1.76513 -1.76,0.0401 0.66,1.26367 -2.9,1.9958 -2.75,-1.25364 -1.68,1.50437 -0.56,-0.22064 0.9,-2.09609 -1.1,-2.20642 -2.7,1.86543 0.03,0.94274 -3.48,-3.56035 -0.2,-3.11907 -1.35,0.18052 0.16,-0.96279 -1.43,-1.01295 0.97,-1.2035 -0.82,-2.21644 0.58,-1.374 z" />
  <path
     id="DE-HE"
     title="Hesse"
     d="m 228.54,364.69012 2.86,-1.05306 -0.28,2.15626 1.15,0.95277 2.21,-1.37399 1.62,1.60466 3.58,-1.20349 0.74,2.79813 3.32,3.24945 -0.72,0.9628 -3.11,-1.69493 -0.23,1.45423 1.3,1.88548 -1.5,0.3109 -1.12,-1.29376 0.99,2.85831 -2.25,1.6849 3.64,4.74379 -0.99,2.44711 1.07,2.8884 -0.98,1.33388 -3.22,0.40116 -1.21,2.2365 1.13,0.85248 -0.53,0.91266 -2.36,-0.51149 1.91,2.26659 2.74,2.05598 1.76,-0.0802 -0.1,1.42414 2.52,-0.68198 4.08,2.34682 2.18,-1.15335 0.28,-3.07895 -2.13,1.7551 -2.36,-4.52315 2.58,-0.70204 1.82,-1.76513 1.76,0.26076 -0.19,-2.29668 1.46,-0.38111 1.3,0.95277 0.07,1.9256 1.6,1.23359 -0.92,-4.39277 1.77,0.93271 0.24,-0.9628 1.24,-0.28082 1.83,2.51732 -0.16,1.79522 0,0 -0.2,2.13621 1.49,3.54029 -0.58,1.2737 1.9,0.69202 0.21,1.61469 5.3,0.60175 -0.53,2.54741 1.95,1.07312 -0.58,1.67486 2.82,1.1333 1.66,-0.5516 0.61,1.36396 1.09,-0.46134 1.92,1.9958 2.63,0.68198 -2.23,3.51021 0.61,2.59755 -0.81,1.30379 -2.1,-4.08187 -2.95,1.40409 3.51,2.32676 -1.87,3.21936 0.58,1.58461 -0.84,0.95277 4.11,2.46717 0.61,0.93271 -1.39,0.75219 0.72,1.09317 -3.68,1.52444 -1.74,-1.78519 -1.07,0.65189 -4.04,-0.92268 -1.26,3.1993 1.36,1.41411 0.14,1.85539 1.29,0.45132 -2.17,0.73212 -0.31,-0.60175 -0.78,0.90263 -3.94,-0.78228 0.23,1.89552 0.68,-0.93272 1.48,0.1003 -1.03,2.39696 2.57,-1.39405 2.46,2.1663 -0.2,1.10321 0.75,-0.0802 0.08,0.78228 -2.41,1.69492 -0.07,1.75511 1.06,-0.44129 -0.7,1.84537 -1.34,-0.26076 -0.57,1.14332 -1.01,-0.46134 0,0 -0.41,-0.15043 0,0 -1.42,1.08314 -0.58,2.17633 0.62,2.60758 -1.76,-0.0401 -0.26,1.52444 1.07,0.34099 0.1,1.67487 -2.02,3.36979 0.92,1.15336 -2.79,2.39696 -0.17,2.99872 5.32,1.09318 0.5,-1.19347 -1.2,-1.54449 0.3,-1.06309 2.99,-0.91265 3.41,0.53154 1.82,4.87417 -2.12,-0.0903 -0.77,1.28373 1.54,5.50601 -1.44,2.66775 0.2,1.31382 0,0 -1.5,4.95441 -1.26,0.49142 -2.54,3.781 -3.65,2.03592 -1.26,0.39113 -0.71,-1.02297 -0.79,1.32385 -3.18,-1.63476 -0.41,-1.19347 -1.35,0.64187 -1.22,-0.64187 -1.83,6.95021 0.87,1.43417 -0.02,3.15918 -2.87,2.87837 -3.02,0.98286 -1.06,2.05598 1.78,0.95277 -0.07,0.75218 -5.2,1.17341 -0.42,-1.08315 -2.18,0.78228 -2.66,-1.6849 -0.33,1.5144 1.3,2.7179 -0.97,0.61178 -0.13,1.62473 0,0 1.83,0.92268 0,0 0.09,0.13038 0,0 -0.49,1.62472 0,0 -0.82,0.42122 0.29,5.04467 -4.99,1.01295 -2.02,-0.59173 -2.04,-4.07183 -1.84,-0.0201 -0.8,-0.8926 -1.18,0.73213 -3.54,-0.52151 -2.12,-1.05306 -2.25,1.1032 0.33,1.11324 -2.51,3.49015 0.17,-2.51732 -2.23,-0.94274 -6.39,1.50437 -1.36,1.94566 0.05,2.24653 -1.4,2.08606 3.33,0.76222 0.35,3.56035 0.96,1.08315 -1.51,0.1404 -0.48,1.40409 0.3,6.67941 1.75,4.28245 -1.1,0.0602 0.2,2.22647 1.61,-0.21061 -0.53,0.68198 0.75,0.74216 1.34,-1.46426 -0.54,2.87837 0.82,2.57749 2.38,-0.46134 0.44,1.36397 -1.73,2.3067 2.58,1.76513 -1.61,2.65773 0.37,1.29376 -2.44,0.74216 0.77,5.1249 -2.24,2.14624 0.01,1.6849 1.05,0.18052 1.24,2.27662 0,0 -0.18,1.6849 -1.08,-0.0903 -0.61,-1.40408 -0.09,1.04304 3.41,4.72373 -1.24,0.7221 -0.44,-1.60467 -2.21,-0.40116 -0.92,1.65481 0,0 -0.26,0.4814 0,0 -1.36,1.06309 -2.54,-1.25365 -2.16,0.62181 0.15,2.06601 -0.86,-0.18053 -0.58,1.43417 1.19,1.41411 -2.35,1.7551 -0.69,-0.61178 -0.53,2.20642 -2.8,2.55743 -1.16,-1.21352 -1.07,1.07312 -0.85,-1.33388 2.31,-2.29668 -0.77,-3.37982 1.72,-1.50438 0.61,1.70496 0.93,-0.0702 1.49,-1.74507 -0.09,-1.78519 -3.32,0.18053 -0.94,0.90262 -0.93,-1.38402 0.34,-1.83534 -1.62,1.25365 -4.13,-0.91266 0,0 0,0.27079 0,0 -1.97,-1.70496 0.21,-1.28373 -1.58,-2.6477 1.07,-2.11615 -1.74,-1.91557 0.73,-0.53154 0.4,1.37399 0.3,-1.47428 -6.19,1.33387 1.32,6.76969 -0.53,1.28373 -0.73,-0.33097 -2.24,1.66484 -5.46,-6.78973 -1.76,-0.60175 -1.61,0.57166 0,0 -2.45,-4.20222 -1.58,-6.4688 5.02,-2.94857 2.63,-3.96152 -0.48,-0.68198 -3.06,0.0501 -2.79,-5.3656 0.33,-3.25947 -2.54,-2.13621 0.65,-3.97155 -2.1,-5.81691 -4.95,-5.03464 -3.86,-0.78227 -9.16,3.11907 -4.53,2.55743 -5.33,0.60175 -1.16,-0.84245 -0.9,-3.22938 -5.07,-4.43289 1.88,-2.57749 2.23,-0.0301 -0.45,-1.4442 1.33,-2.84828 2.03,1.25364 1.14,-0.70204 1.8,1.86543 -0.56,-3.1291 0.72,-0.99289 -3.07,-2.41702 -0.08,-1.32385 1.72,-1.2035 0.01,-0.95277 2.3,-0.63184 0.26,-0.9628 2.27,-0.83242 0.14,-1.00291 1.54,1.98577 1.31,0.19055 1.28,-2.11615 0,0 -0.26,-0.35102 0,0 -1.7,-1.67487 0.92,-1.3439 2.36,-0.14041 0.43,1.08315 1.68,0.11032 0.81,-3.8512 -1.05,-1.05306 -0.05,-1.6849 -1.9,-0.5516 0.29,-1.55452 -1.07,-2.65773 -0.88,-0.0802 -0.18,-1.04303 -1.75,0.10029 0.4,-1.58461 -2.32,0.0903 -1.4,-1.15335 1.38,-1.18344 0.18,-1.16338 -0.83,-0.36105 2.25,-1.54449 -2.07,-3.41994 1.08,-3.76094 3.08,-3.27953 1.75,1.85539 2.05,0.55161 2.06,-1.74508 1.03,-4.84408 -1.63,-1.05306 0.88,-2.26659 -1.93,-2.74799 0.94,-2.59755 0,0 2.73,-4.89423 -2.39,-4.5432 0.25,-1.03301 0,0 0.4,-0.13038 0,0 8.07,-9.07638 1.57,-0.11032 0.95,2.09609 3.35,0 4.68,-5.72665 1.77,-0.12035 -0.64,-2.24653 0.53,-2.50729 1.26,-0.33096 -0.21,-0.73213 3.98,-4.36268 -1.16,-2.46717 -0.89,0.3109 1.39,-2.31673 -1.56,-1.67487 1.62,-1.73505 1.92,-0.60175 6.3,0.85248 1.75,-1.34391 2.3,-0.20058 -1.23,-1.36396 0,0 -0.24,0 0,0 -0.07,-1.42414 3.96,-4.04175 -0.69,-2.20642 1.27,-1.033 -1.67,-1.01295 -0.87,-3.28956 0.56,-1.14332 -0.92,-1.15336 -1.91,-0.2407 -6.14,2.94858 -2.45,-3.07895 4.01,-5.98741 1.07,-0.78227 1.11,0.44128 0.29,-1.58461 1.44,-0.47137 -0.3,-1.15335 1.11,-0.59172 2.37,0.43125 4.56,-1.87545 2.18,0.21061 1.14,1.1333 2.32,-1.55452 2.99,0.36105 0.58,-3.91137 -1.76,-0.32094 -0.02,-1.8253 -1.79,-3.40992 8.12,-3.71078 1.32,1.57457 2.4,-0.0702 0.92,0.82239 -0.82,3.03883 1.1,2.13621 2.6,-0.58169 1.46,0.7221 1.54,-2.29667 2.08,0.67195 0.52,-3.14916 2.51,-0.89259 1.18,-1.57458 1.61,0.0401 0.51,-3.97155 3.59,-3.96151 -2.21,-2.407 5.42,-1.56455 z" />
  <path
     id="DE-MV"
     title="Mecklenburg-Vorpommern"
     d="m 506.31,98.044946 1.94,4.623444 2.22,2.68781 9.15,5.20513 13.36,13.43907 -2.67,1.6147 1.86,1.36396 -0.09,3.62053 -11.17,-0.75219 -2.97,2.76805 -3.25,0.51149 -1.09,-0.8224 1.27,0.27079 0.68,-1.06309 -1.6,-1.6849 -1.09,3.3698 -2.09,0.32093 -3.35,-1.11323 0.66,-2.31674 3.89,-0.74216 2.55,-3.27953 -0.99,-4.42286 -1.64,-1.6849 0.78,-2.56746 3.52,0.01 -0.37,5.90717 0.54,-2.45714 1.06,-0.50146 2.52,-0.0602 -0.77,1.22355 1.9,0.95277 0.45,-4.58332 -0.47,-2.9586 -1.42,-1.00292 -0.74,1.11324 -0.71,-3.52024 -1.58,-2.27661 -3.86,0.0802 -0.17,2.2365 1.65,1.56455 -0.44,1.31382 -0.68,-0.5516 0.4,-1.48432 -1.43,2.39697 -2.52,1.34391 -0.44,-1.47429 1.69,-2.66776 -1.48,-1.033 -3.65,3.17924 -1.94,-0.0802 -0.21,-1.21353 1.1,-0.88256 1.61,-4.56327 0.2,-2.98869 -1.4,-0.46134 -2.16,-2.70787 -0.48,-2.326767 2.42,-1.604665 1.5,0.732128 z m -43.24,-15.344608 -0.64,0.631837 -0.51,-1.113237 0.8,-0.391137 0.35,0.872537 z m 25.24,-0.922683 -0.18,0.671954 -0.36,-0.702041 1.55,-1.825306 0.25,0.992886 -1.26,0.862507 z m -52.44,-12.305774 1.61,1.444199 -3.42,-0.110321 0.93,-1.524432 0.88,0.190554 z m 15.49,-1.534461 1.03,0.571662 -2.5,0.381108 0.3,-0.982857 1.17,0.03009 z m 6.74,-0.571662 -5.09,1.394053 1.74,-1.253644 2.08,-0.09026 0.99,-1.394053 0.28,1.343907 z m -33.24,-3.720817 -0.93,0.912654 2.98,2.176326 6.68,1.233587 15.83,-0.330962 0.62,1.975743 -3.21,1.43417 -3.3,-0.752187 -1.36,1.373994 -1.06,-0.822391 -3.16,0.05015 -0.99,-1.765131 -2.01,0.05015 -1.56,2.48723 -1.85,-0.812361 0.1,-1.053062 -1.45,2.02589 -2.46,0.381108 1.36,1.333877 -0.42,0.982858 -0.36,-0.822391 -2.07,-0.02006 -1.75,1.022973 -0.34,0.7221 1.01,1.033003 1.2,-1.474286 0.8,0.702041 3.35,-0.12035 3,-1.805248 0.03,-2.055977 2.5,-0.340991 0.45,0.902624 -1.72,0.431253 0.38,1.514403 -1.05,1.594636 0.67,0.08023 0.86,-3.129097 0.9,-0.01003 0.33,2.928514 1.01,0.170495 0.59,-1.363965 1.44,1.263674 1.23,-2.687814 1.61,5.686531 4.42,-2.617609 1,-3.610497 1.72,-1.343906 4.09,-1.404082 1.4,-1.343907 1.3,0.270787 -0.25,4.252362 1.41,1.775161 1.96,-0.09026 0.89,1.484315 -1.09,2.427056 0.78,2.84828 1.72,2.106123 -0.65,2.035919 1.86,1.494344 2.03,-0.992886 0.87,0.83242 -2.23,1.795218 2.73,-1.42414 1.83,2.828222 4.67,0.60175 2.33,5.556152 2.84,0.230671 -1.95,0.461341 -1.47,1.905539 3.78,-1.805248 2,1.043033 -0.91,-1.564549 1.5,0.772245 -0.15,1.514403 -0.4,-0.501458 -1.8,1.42414 0.11,0.782269 1.8,-1.253639 -0.2,1.022969 1.42,1.05306 2.47,5.45586 2.08,0.0802 -1.52,-3.2996 0.89,-0.88256 8.56,-1.80525 4.43,-3.389851 1.06,0.310904 0.34,0.732129 -1.31,0.511487 0.16,0.912643 2.19,1.424148 1.05,-0.4112 0.3,2.15627 3.07,2.35685 -0.86,3.77097 -0.91,0.51148 0.38,1.32385 -2.33,2.01586 0.82,0.0401 0.24,1.39405 2.11,2.10612 2.53,1.2035 1.43,3.75091 1.6,0.10029 2.12,2.93854 -0.76,1.34391 -2.38,1.07312 -1.14,2.36688 -1.43,0.13038 0.04,1.29376 -1.23,0.56163 0.73,1.79522 2.23,0.0903 3,4.21225 1.12,-0.28082 3.35,3.57038 8.5,3.50018 4.03,-0.23067 1.05,0.7221 3.13,-2.79814 2.27,1.38402 -0.06,1.94566 -3.25,3.00875 3.65,0.68198 0.5,1.02297 -0.68,2.17633 0.88,0.58169 0.06,2.8884 2.09,1.83533 -0.61,7.90298 1.22,4.12199 1.74,1.46425 2.46,14.71278 1.25,2.56746 0,0 -4.07,2.20642 -1.94,-0.13038 -1.01,2.67778 -2.46,1.00292 -0.1,1.80525 -3.17,0.5516 -3.35,-1.33388 -3.91,0.50146 2.05,-3.84116 6.11,-6.54904 1.19,-3.11907 -0.31,-4.29248 -1.08,-0.68198 -0.92,1.16338 -1.8,0.16047 -3.74,-2.00583 -2.26,3.23941 -2.22,-0.28081 -0.36,-1.76514 -2.89,-0.52151 -5.37,1.36395 -1.01,-0.99288 0.91,-2.41703 -2.52,-2.18636 0.13,-3.27953 -3.47,-1.43417 -1.9,-4.38274 -1.17,4.80397 3.07,1.84536 -0.64,1.28373 -2.36,1.25365 -2.3,-1.28373 -1.63,0.46134 -5.14,4.26239 -0.45,3.36979 -2.52,-0.35102 -2.29,1.59464 0.39,2.2365 -0.91,1.36397 -1.18,-0.15044 -0.52,1.4442 0.4,3.55032 -1.25,-0.64187 -1.14,3.55032 -1.4,0.36105 -0.5,-1.02297 -1.13,0.0401 0.12,1.43417 -2.19,3.74087 0,0 0.11,0.18053 0,0 -1.24,0.65189 -1.63,-3.7509 -1.42,0.4814 -2.45,-0.80234 -3.49,2.5775 -0.93,4.26239 -1.75,-0.67196 -1.27,-2.89842 -2.14,-0.0702 -1.3,1.55452 -1.6,-0.0201 0.07,2.15627 -1.23,0.18053 -0.56,1.41411 -2.44,0.52152 -2.16,3.04886 -1.89,0.49143 -1.04,-1.74508 -1.03,0.38111 2.37,-1.83533 -1.01,-0.92269 -1.8,0.64188 0.16,0.83242 -1.23,-0.15044 0.55,-0.80234 -1.63,0.16048 -1.63,1.51439 -1.96,-2.28665 -4.93,1.49435 -1.99,-1.32385 1.14,-2.51732 -4.58,-0.30088 -1.15,-0.74215 0.66,-1.65481 -0.94,-0.51149 -3.58,1.05306 -5.11,-2.15627 -5.11,1.54449 -1.09,-2.7179 -2.2,-1.033 -0.04,-1.70496 -5.24,-2.97866 -3.31,0.45131 -1.78,-3.74087 -2.71,0.60175 -0.12,1.08315 -1.05,0.37108 -1.15,-2.31674 -2.53,1.79522 -1.88,-0.28082 -0.15,-2.22647 -2.17,-0.46134 0.84,2.29668 -2.73,1.78519 0.36,3.59043 -1.81,0.95277 -1.32,-0.65189 -1.58,2.94857 -3.61,-0.69201 -2.05,3.00875 -4.06,-0.4814 2.17,1.80524 -0.79,1.22356 -2.68,-0.27079 -2.86,1.02298 -0.19,-1.53446 -3.87,-1.31382 -2.59,0.51148 -2.52,2.77808 -2.29,0.47137 1.01,4.7137 -1.06,1.54449 0.38,1.38403 -1.54,1.35393 -1.84,0.50146 -2.03,-0.66192 -0.54,-1.43417 -1.43,0.56163 -1.24,-0.64187 -1.52,0.16047 -0.28,3.00875 -8.02,-1.19347 0,0 -2.66,-2.30671 -2.65,0.77225 -0.61,-2.22647 1.43,-2.42706 -6.83,-3.56035 -3.93,-6.99032 -1.13,-0.14041 -1.43,-5.63639 -2.38,-0.10029 -2.03,-1.49434 -5.27,4.68361 -4.81,-2.53737 0.2,-1.16338 -1.48,-0.43126 -2.56,-2.91848 -6.65,0.68198 0,0 1.33,-1.93563 1.09,-7.65224 1.31,-0.74216 2.49,0.57166 0.61,-2.407 3.47,-0.51148 1.96,-2.93855 2.41,-0.33096 -0.67,-0.76221 1.23,-2.32677 -0.73,-3.48012 1.04,-0.18052 0.74,1.26367 3.84,-0.7221 1.19,-6.23813 1.46,-2.07604 -0.65,-3.9214 -1.4,-0.56163 0.19,-1.01294 -4.63,-0.29085 -2.45,-1.9958 -0.42,-1.87545 -2.98,-1.51441 0,0 0.27,-1.83533 0,0 0.68,-2.57749 -1.56,-6.34846 1.46,-2.29668 1.87,-0.39113 0.99,-1.91557 1.78,-0.37108 2.29,-2.96863 2.03,1.033 -0.61,0.8926 0.54,0.9628 3.45,-1.03301 -4.59,-1.62472 0.66,-3.65061 0,0 8.62,-5.3656 8.99,-0.97283 1.8,2.92851 3.28,0.47137 -1.08,3.03884 0.94,2.20641 1.98,0.42123 3,-2.99872 2.08,2.70787 2.38,-0.14041 -0.13,1.54449 1.75,0.94274 0.32,1.4442 1.5,0.27079 -0.94,-1.57458 2.28,-1.80525 0.18,-4.26239 -0.73,0.45131 -0.52,-0.74215 -1.17,1.18344 -0.06,-4.30251 -1.1,1.4442 0.27,2.51732 -2.16,-1.28374 -0.73,0.74216 1.49,0.13038 -1.34,0 -0.81,-1.63475 0.67,-2.30671 3.91,-2.25656 2.75,0.0502 -1.45,5.31545 1.43,0.66193 0.63,-1.90554 -0.59,-0.8926 1.24,-2.20641 1.52,-0.70204 -0.92,-1.28374 1.94,0.64187 1.51,-0.8926 0.48,-3.18927 2.57,-1.4442 0.23,-1.5144 -1.35,-1.37399 -4.67,5.95732 -0.27,-2.75802 1.98,-2.36688 3.21,-1.27371 4.53,-4.924308 4.94,-0.23067 5.71,1.032998 10.45,-3.580404 7.25,-0.631837 3.87,-5.867056 9.57,-6.368514 4.6,-8.935978 3.7,-4.402799 2.14,-6.037552 2.01,-0.912654 z m 39.24,-13.218427 0.64,3.199301 -0.66,-2.61761 0.02,2.517318 -0.7,-1.584606 0.41,-1.223558 -2,1.815278 0.34,4.994519 -2.71,4.172129 -0.52,4.553237 -0.27,-2.025889 2.4,-8.935978 0.08,-3.550322 1.52,-1.484315 1.45,0.170496 z m 18.18,-8.946007 -0.23,2.547405 -2.28,0.982858 -1.07,1.935627 0.99,3.831137 1.78,2.276619 2.67,0.882566 10.97,-1.614695 2.81,2.306706 0.02,3.600467 -6.57,5.987406 -0.06,3.189272 2.47,4.773878 3.76,0.381108 3.6,5.034636 2.38,1.464257 -1.63,0.581691 -1.31,2.567464 0.29,4.011662 -0.89,0.752187 -1.64,-1.66484 1.57,0.421225 -0.47,-1.775161 -2.65,0.922683 -0.93,-1.063091 3.44,-2.086064 0.27,-1.103208 -2.07,-0.381107 -3.92,1.484315 4.26,-2.38694 0.52,-1.434169 -2.57,0.411196 -1.84,1.945656 -1.98,-2.527347 -2.01,1.404081 -3.19,-0.190554 -5.2,4.312537 -2.25,4.031721 0.31,-1.454227 -2.42,1.022973 0.34,2.537377 0.46,-1.895511 0.95,1.133295 1.56,-1.203499 0.88,1.153353 0.44,1.704957 -2.08,1.865423 -6.46,-3.189272 1.98,0.571662 0.78,-3.620525 -1.59,1.363965 0.67,0.882566 -3.25,0.461341 -3.12,-2.707872 -1.23,0.912653 -0.39,-2.888397 -3.42,1.604665 0.97,-2.417027 1.88,0.401167 -4.49,-3.500176 0.83,-4.222274 4.37,-0.541575 1.54,0.882566 2.56,-1.805248 -1.52,-0.421225 -0.41,-1.474286 1.48,-0.511487 -1.33,0.230671 -1.35,-2.818193 -3.91,0.792304 1.8,-3.640584 -3.44,1.534461 -0.2,-0.631837 3.07,-4.884199 3.67,0.83242 -0.29,2.196385 -2.3,-0.02006 -0.25,0.972828 1.04,0.942741 0.44,-1.394053 2.94,-0.401166 -1.33,-0.4814 2.5,-1.283732 -2.7,-0.611778 0.18,-2.758018 -2.04,0.842449 -1.84,-0.541574 -1.63,-4.192188 6.37,-0.962799 2.82,1.43417 -0.07,2.206414 1.05,0.83242 0.48,-1.163382 -0.93,-3.08898 3.66,-2.998718 0.92,0.431254 -1.94,3.058892 1.08,0.371079 1.26,-1.594636 2.45,4.422858 -0.1,2.828222 1.9,0.732129 0.55,1.735043 1.39,-1.203498 1.94,0.12035 0.69,-5.185074 -1.42,-3.319651 1.16,0.09026 0.1,-0.812362 -1.39,0.36105 0.06,1.203499 -2.87,-0.04012 -1.31,-1.885481 -2.04,-0.551604 -1.47,-4.493062 -2.65,2.296677 0.34,1.173411 -5.73,2.607581 2.56,-6.348456 0.06,-3.149155 -3.65,2.276618 0.68,3.279534 -4.9,4.001634 0.24,-1.263674 3.36,-2.958601 0.08,-4.473004 1.73,-2.216443 2.78,-1.855394 9.07,-1.043032 z" />
  <path
     id="DE-NI"
     title="Lower Saxony"
     d="m 60.37,159.52367 -3.66,0.35102 -2.38,1.24362 2.63,1.78519 -0.89,1.26367 -0.89,-1.41411 -1.45,1.06309 -3.4,-2.79813 0.29,-1.76513 5.76,-2.03592 3.99,2.3067 z m 6.04,-5.44583 -1.13,0.58169 1.44,0.0903 -1.32,0.65189 0.52,0.93271 -1.64,-0.0501 -0.5,-1.75511 2.63,-0.45131 z m -5.37,0.0903 1.53,0.77225 -1.43,0.39114 -0.23,-2.51732 0.13,1.35393 z m 16.28,-4.10192 1.08,1.00292 -14.74,1.11323 13.66,-2.11615 z m 16.32,-4.17213 0.76,0.94274 -3.08,0.94274 -0.52,-0.57166 0.31,0.6519 -1.64,0.3811 -3.94,-0.21061 -0.85,0.83242 -1.68,-0.93271 -0.92,1.12327 -0.98,-1.11324 3.19,-1.72502 9.35,-0.32093 z m 53.27,-0.63184 1.43,0.7221 -2.09,0.23067 -0.42,1.22356 -2.18,-0.0802 1.22,-1.81528 2.04,-0.28082 z m -49.07,-0.41119 2.050003,0.38111 0.299997,1.53446 -4.99,-0.8926 2.64,-1.02297 z m 11.29,-2.53738 3.08,0.47137 0.26,1.00292 -7.5,0.33096 -0.41,2.00583 -0.23,-0.70204 -0.11,0.83242 -2.31,-0.12035 0.91,-3.27953 6.31,-0.54158 z m 27.64,-0.26076 0.66,1.77517 -1.08,-0.70205 0.42,-1.07312 z m 0.24,-1.08314 -0.59,0.80233 -0.56,-0.45131 0.68,-1.35394 0.47,1.00292 z m -18.65,-1.12327 6,1.10321 -3.83,1.26367 -3.86,-0.54157 -0.82,1.42414 -0.92,-0.28082 0.96,-2.407 2.47,-0.56163 z m 11.02,-1.43417 4.77,2.17633 -6.01,-1.41411 -0.68,1.57457 -1.22,-1.39405 3.14,-0.94274 z m 30.52,-3.57038 -1.97,0.27079 1.5,-1.69493 0.9,0.14041 -0.43,1.28373 z m 20.04,-6.96023 -0.09,1.17341 1.54,0.91265 -0.41,1.06309 1.15,0.99289 -0.52,-1.74507 3.56,3.61049 7.84,1.374 8.04,-1.86543 -1.01,-3.56035 0,0 13.06,-0.56163 6.67,2.83825 3.21,4.37271 3.92,8.02333 5.09,4.78391 2.84,8.27405 7.85,5.58624 3.63,0.89259 0,0 2.83,0.35102 -0.58,1.374 0.82,2.21644 -0.97,1.2035 1.42,1.02297 -0.16,0.95277 1.35,-0.17049 0.2,3.11907 3.48,3.55032 -0.03,-0.94274 2.7,-1.86543 1.1,2.20642 -0.9,2.09609 0.55,0.21061 1.69,-1.49434 2.75,1.25364 2.89,-2.00583 -0.66,-1.26367 1.77,-0.0301 0.27,-1.76513 7.81,7.20093 4.1,0 1.58,-2.55743 2.85,-1.43417 0,0 1.44,0.92268 3,0.10029 7.8,5.35557 5.07,1.49435 0.98,-0.46134 0,0 6.65,-0.68199 2.56,2.91849 1.48,0.43125 -0.2,1.16338 4.81,2.53738 5.27,-4.68362 2.03,1.49435 2.38,0.10029 1.43,5.63639 1.13,0.1404 3.93,6.99033 6.83,3.56035 -1.43,2.42705 0.61,2.22647 2.65,-0.77224 2.66,2.30671 0,0 0.36,2.48723 4.19,4.5432 7.29,-2.44711 3.54,3.1993 2.46,-0.51149 3.3,1.86543 0,0 -2.49,2.52734 -0.21,1.374 -2.98,-0.70204 -1.06,4.76385 0.62,2.13621 -2.91,0.70204 -3.31,3.10904 -5.83,2.80816 -1.15,0.36105 -0.25,-1.54449 -3.3,1.00291 -1.15,-1.85539 -4.14,-0.76222 -3.65,0.7221 0.03,-1.55452 -5.99,0.14041 -0.87,0.40117 -0.27,2.44711 -3.01,3.33971 -2.73,-0.3109 -1,1.05306 -0.85,-1.07312 -6.44,1.4442 -0.7,6.20805 2.34,3.80105 0.34,3.56035 1.93,-0.26076 0.83,2.32676 0,0 0,0.25073 0,0 4.96,8.65516 3.61,-1.46425 -0.3,2.08606 -2.03,1.5144 -0.13,2.29668 4.52,7.57201 0,0 -0.61,-0.0702 0,0 -1.44,-0.52152 -1.98,0.77225 -0.71,3.45003 5.19,6.31837 -0.03,1.20349 0.71,-0.18052 0,0 0.57,0.50146 0,0 2.53,1.13329 -0.41,1.98577 -2.06,1.21353 -3.37,0.28082 3.35,3.94146 0,0 0.01,0.28081 0,0 -1.55,1.32385 1.03,1.82531 1.55,0.41119 0.4,2.63767 0,0 0.57,0 0,0 1.13,1.31382 -0.64,0.93271 -2.94,0.85248 -1.01,1.374 0.37,2.13621 2.6,0.51148 -0.96,4.02169 0,0 -0.55,0 0,0 -3.71,2.97866 -2.21,0.2407 -0.24,0.88257 2.05,0.90262 -0.38,3.01878 -5.25,-0.32093 -3.44,1.36396 -8.22,-0.33096 -3.29,0.90262 0.47,1.57458 -2.01,1.78519 -1.58,0.20058 -0.34,-0.83242 -2.05,1.07312 1.46,3.09901 1.34,-0.28081 0.98,2.00583 1.89,0.0301 -2.42,1.99581 0.08,1.78519 2.2,1.2737 0.06,1.84536 -1.06,2.02589 -3.53,2.31674 -0.22,0.9628 0.83,0.36105 -0.82,2.55743 1.04,4.37271 2.38,1.17341 0.31,2.30671 2.31,2.57749 0.04,4.31254 1.96,2.7179 0,0 -1.61,0.42123 0.43,0.94274 -2.79,0.88256 0.63,1.34391 -0.91,-0.0501 0.29,2.32677 1.7,0.88256 -0.57,1.76514 -3.23,-2.15627 -2.87,2.39697 -2.66,0.22064 -1.54,-1.94566 -3.95,-1.96571 0,0 -0.38,0 0,0 -3.63,0.4814 0.65,1.91556 0,0 0,0.60175 0,0 -2.4,4.52315 -2.24,0.45131 -0.55,2.0961 -3.37,1.08315 -0.78,1.29376 -1.07,-0.0201 -0.92,-1.56455 -1.5,1.66484 0.51,0.67195 -0.83,1.77517 -2.04,0.22064 0.79,1.24361 -2.34,0.0903 0,0 -0.41,0 0,0 -1.95,-0.43125 -0.75,1.70496 -1.4,-1.95569 -0.52,1.69493 -1.82,0.0401 -0.59,1.59463 -4.63,3.01878 0,0 0.16,-1.79522 -1.83,-2.51732 -1.24,0.28082 -0.24,0.9628 -1.77,-0.93272 0.92,4.39277 -1.61,-1.23358 -0.06,-1.9256 -1.3,-0.9628 -1.47,0.39114 0.19,2.28665 -1.76,-0.25073 -1.82,1.76513 -2.58,0.69201 2.35,4.53318 2.14,-1.7551 -0.29,3.06892 -2.18,1.15335 -4.07,-2.34682 -2.52,0.68198 0.1,-1.41411 -1.76,0.0702 -2.74,-2.05597 -1.91,-2.26659 2.36,0.51149 0.53,-0.91266 -1.13,-0.86251 1.21,-2.2365 3.23,-0.40116 0.98,-1.33388 -1.06,-2.89843 0.98,-2.44711 -3.63,-4.74379 2.24,-1.6849 -0.98,-2.85831 1.12,1.29376 1.5,-0.3109 -1.29,-1.88548 0.23,-1.45423 3.1,1.69493 0.72,-0.9628 -3.31,-3.23942 -0.74,-2.80816 -3.58,1.21352 -1.63,-1.61469 -2.21,1.37399 -1.15,-0.95277 0.27,-2.14623 -2.86,1.05306 0,0 -4.86,-0.35102 1.69,-5.27534 -0.92,-1.85539 0.47,-1.34391 -1.23,-1.11324 4.54,-5.25527 -1.2,-2.12619 0.91,-1.63475 -0.52,-1.09318 1.71,-2.02589 -3.49,0.57167 -2.78,-0.9628 -2.36,1.12326 1.22,-2.79813 -0.19,-2.74799 -4.3,-2.48723 0.19,-1.22356 -0.84,-0.34099 1.36,-1.24361 -0.66,-1.42414 -3.64,-0.0903 -0.57,1.36397 -1.42,-0.49143 -0.69,-1.59464 1.29,-1.61469 -0.95,-0.74216 0.98,-0.95277 -1.31,-2.33679 -0.13,-2.41703 1.33,-1.18344 -2.51,-2.90845 -1.33,0.29084 1.61,-2.57749 -0.33,-1.05306 -1.53,-1.00292 -2.59,0.47137 -1.35,-0.56163 0.09,-0.86251 -3.7,1.39406 0.66,-3.76094 -2.31,-2.45714 1.28,0.53154 0.5,-0.59172 0.55,1.30379 1.38,-0.10029 -0.5,-4.21224 1.09,0.37108 1.52,-1.14333 -2.55,-1.9256 -4.06,-1.39405 0.4,-1.11324 -0.87,-0.58169 1.29,-0.63183 0.78,-4.20222 1.3,-0.4814 0.56,-1.50437 2.01,0.60175 2.52,-3.35977 -0.18,-1.69493 1.75,-1.70495 0.06,-1.86543 -0.88,0.01 0.01,-1.41411 -1.01,-0.86251 2.7,-3.44 -2.38,-2.18635 -3,-0.29085 -2.5,4.50309 -2.24,0.7221 0.53,1.88548 -2.82,1.6849 -0.35,1.50437 -2.79,-0.39113 -0.41,1.16338 -2,0.52152 -4.17,-0.97283 -2.68,1.07312 -1.44,-1.14333 -1.19,0.40117 -0.17,-2.50729 0.83,-1.05306 -0.84,-1.39405 -0.15,-6.3986 -0.83,-1.64479 -1.12,0.28082 -1.27,-1.47429 -6.02,3.41995 -3.47,-1.36397 -2.77,2.06601 -0.22,3.22939 -2.43,1.76513 -1.12,-0.62181 -2.29,0.65189 -3.84,-1.50437 0.06,2.52735 1.13,0.91265 -0.34,2.30671 4.97,1.98577 3.16,2.33679 1.68,4.87417 -0.69,2.90846 0.57,4.2323 -1.64,3.32968 1.66,2.15627 3.08,0.98286 -3.02,3.06892 -3.81,1.91557 -0.22,2.67778 -2.18,0.0502 -2.03,-1.47429 -1.89,0.59172 -1.68,-0.74215 0.1,-0.97283 -4.04,2.90845 -1.93,3.55032 -2.63,-0.25072 -3.52,1.84536 -4.05,-1.19347 -3.27,3.46006 -3.93,-1.58461 -2.17,-3.41994 5.57,-3.33971 2.27,0.0802 -0.54,-3.76093 0.22,-0.85248 1.49,-0.30087 -1.25,-1.38403 -4.46,-0.01 -1.74,-1.33388 -0.48,-1.62473 1.63,-2.27661 -0.08,-3.84117 2.01,-0.38111 -1.61,-1.96571 0.02,-1.64478 3.82,-0.74216 -2.76,-2.68782 -0.75,-3.10903 -2.98,-1.71499 -2.88,1.18344 -2.4,-0.25073 -6,-2.93854 -1.57,-5.41575 -5.14,-2.29667 -2.74,4.473 2.44,1.08315 -2,4.15207 0.71,0.60175 -3.85,0.78227 -5.54,3.71079 -0.62,1.9256 -2.63,0.4814 -1.5,2.22647 -2.96,0.82239 -1.19,1.63476 -9,-0.25073 -2.1,0.54157 -1.38,1.88548 -2.4,0.15044 0,0 -2.29,-3.31965 -0.1,-1.70496 2.97,-6.48886 0.04,-2.22647 -0.96,-2.72793 -1.46,-0.1705 -1.61,-2.92851 -1.26,-4.00164 -3.12,3.39989 -5.64,-1.48432 0.01,-0.98286 -6.13,-0.3811 -3.81,-2.53738 0.45,-3.6105 -1.59,-3.31965 2.22,0.45132 0.68,-1.50438 2.64,-0.0301 -3.02,-2.67778 0.43,-2.81819 -0.89,-1.2035 2.53,-2.25656 7.76,-0.57166 4.01,1.68489 2.44,-0.94274 4.25,1.45423 0.89,-1.05306 1.07,-17.57108 1.33,-3.02881 -0.32,-1.19347 6.09,-9.79848 2.19,-6.8098 -1.02,-11.38309 -1.15,-0.85248 -0.25,-1.77516 1.52,-3.81108 1.52,-0.47137 -1.19,-1.10321 0.6,-1.05306 -0.54,-4.69364 1.22,-1.97575 1.08,-6.18798 4.02,-0.19056 -18.76,-2.27662 -1.12,-2.99871 0.85,-1.42414 0.95,-10.70111 1.48,-2.3368 -0.96,-3.05889 1.4,2.58752 2.13,0.01 0.68,1.09318 0.8,-1.06309 -3.36,-0.0602 -1.14,-2.83825 1.65,1.98578 0.61,-1.53447 1.78,2.24654 -0.26,-1.34391 1.45,-0.11032 1.32,-1.79522 -1.7,-0.6519 -1.75,-3.32968 3.75,-3.76093 0.43,-1.59463 -0.09,0.74215 5.79,-5.16501 7.43,-1.81528 0.99,0.66192 6.65,-0.2407 2.81,1.31382 11.37,-3.48011 0.02,-1.74508 0.02,2.11616 6.55,-1.16339 1.8,-2.5474 -1.58,2.92851 6.5,-1.23358 7.31,1.11323 -0.38,2.74799 1.47,4.35265 1.83,-0.58169 1.61,1.59464 0.74,-0.99289 0.47,0.59172 -1.15,0.50146 1.01,1.60467 0.87,-0.38111 -0.78,0.53154 0.48,1.69493 2.96,6.05761 -0.74,1.34391 0.85,-0.50146 -1.12,2.31673 -3.81,1.4442 -2.17,-0.49143 0.18,3.10904 2.25,3.31965 2.31,-0.87253 1.08,0.52151 3.14,4.72374 2.8,0.69201 1.4,-0.83242 2.93,-5.52607 -0.19,-6.82985 -5.28,0.11032 0.96,-6.59919 2.45,-3.16921 1.61,-0.70204 1.97,0.58169 2.92,4.06181 5.15,2.3067 2.51,0.25073 0.96,-0.88256 -0.03,1.05306 2.07,1.16338 0.36,1.55452 0,0 -0.53,0.35102 1.7,3.65061 0.78,-0.69201 1.31,0.93271 1.64,-1.24361 1.14,-2.03592 -0.75,-1.49435 0.41,-2.86833 -1.07,-0.20059 -0.69,-1.90554 2.71,-3.77096 -1.1,0 0.17,0.86251 -1.91,-0.30088 -1.45,1.24362 -4.6,-1.36397 0,0 -2.4,-5.33551 -0.08,-4.22227 4,-10.05925 0.19,-2.96863 4.08,-7.1207 4.89,-1.23358 z m -4.47,77.84631 0.71,3.03883 2.5,3.78099 -0.23,1.30379 2.84,1.56455 -0.33,2.26659 0.82,1.61469 2.38,0.10029 1.05,-1.57457 0.35,1.48431 2.84,2.02589 2.75,-0.15044 0.06,-1.96571 1.8,2.77808 2.59,0.01 0.15,-1.09318 2.79,-2.3368 -1.02,-1.44419 -0.17,-2.6477 1.74,-1.33388 -1.69,-0.26076 -0.96,-1.7551 2.24,-1.09318 -2.46,-2.73796 -1.97,2.0961 -3.2,0.11032 0,0 -0.11,-0.33096 0,0 -1.21,-1.48432 0,0 -0.19,-0.93271 0,0 -0.65,-0.73213 -5.53,0.0401 -0.92,-1.74508 -1.46,0.35102 -0.37,-0.88256 -1.42,1.06309 -3.45,0.34099 -0.81,-2.01586 -1.98,-0.0401 1.23,-2.18635 -1.31,-0.53155 -1.56,0.88257 -3.31,-2.04595 0,0 -0.78,-0.0301 0,0 -0.5,0.37108 1.55,2.53738 0,0 0.27,0.34099 6.93,3.24945 z m -7.38,-81.68748 0.9,1.26367 -1.92,0.35102 0.28,-1.72501 0.74,0.11032 z m -3.2,-3.6105 0.73,0.30088 -2.33,1.86542 -0.77,-0.37108 1.25,-2.03592 1.12,0.2407 z" />
  <path
     id="DE-NW"
     title="North Rhine-Westphalia"
     d="m 76.35,303.1111 2.4,-0.15044 1.38,-1.88548 2.1,-0.54157 9,0.25073 1.19,-1.63476 2.96,-0.82239 1.51,-2.2365 2.62,-0.47137 0.63,-1.93563 5.54,-3.70076 3.85,-0.7923 -0.72,-0.60175 2,-4.15207 -2.44,-1.08315 2.74,-4.473 5.13,2.29668 1.57,5.41574 6,2.93854 2.4,0.25073 2.88,-1.18344 2.98,1.71499 0.75,3.10903 2.76,2.68782 -3.82,0.74216 -0.02,1.65481 1.61,1.96571 -2.01,0.38111 0.08,3.8512 -1.64,2.27661 0.49,1.62473 1.74,1.32385 4.46,0.01 1.25,1.38403 -1.49,0.30087 -0.22,0.85248 0.54,3.76093 -2.27,-0.0802 -5.57,3.33971 2.17,3.42997 3.93,1.58461 3.27,-3.46006 4.06,1.18344 3.52,-1.84536 2.63,0.25072 1.93,-3.55032 4.04,-2.90845 -0.11,0.98285 1.68,0.73213 1.89,-0.59172 2.04,1.47429 2.18,-0.0502 0.21,-2.67778 3.81,-1.91557 3.01,-3.06892 -3.08,-0.97283 -1.66,-2.15627 1.64,-3.32968 -0.57,-4.2323 0.7,-2.90846 -1.68,-4.87417 -3.16,-2.33679 -4.97,-1.98577 0.34,-2.31674 -1.13,-0.90262 -0.06,-2.53738 3.84,1.50437 2.3,-0.64186 1.12,0.61178 2.43,-1.76513 0.21,-3.22939 2.77,-2.05598 3.48,1.35394 6.02,-3.40992 1.27,1.47429 1.13,-0.28082 0.83,1.64478 0.15,6.39861 0.85,1.39405 -0.83,1.05306 0.16,2.50729 1.19,-0.40117 1.44,1.14333 2.68,-1.07312 4.17,0.97283 2,-0.53155 0.4,-1.15335 2.79,0.3811 0.35,-1.50437 2.82,-1.6849 -0.53,-1.87545 2.24,-0.7221 2.5,-4.50309 3,0.29085 2.38,2.18635 -2.7,3.45003 1.02,0.85248 -0.01,1.41411 0.88,-0.01 -0.06,1.8554 -1.75,1.70495 0.19,1.69493 -2.52,3.35977 -2.02,-0.60175 -0.56,1.50437 -1.3,0.4814 -0.78,4.20222 -1.29,0.63183 0.87,0.58169 -0.4,1.11324 4.06,1.40408 2.55,1.9256 -1.53,1.14332 -1.09,-0.3811 0.5,4.22227 -1.38,0.10029 -0.54,-1.30379 -0.5,0.60175 -1.28,-0.53154 2.31,2.44711 -0.66,3.76093 3.71,-1.38402 -0.09,0.86251 1.35,0.56163 2.59,-0.47137 1.53,1.00292 0.33,1.05306 -1.6,2.57749 1.32,-0.29085 2.51,2.89843 -1.33,1.18344 0.13,2.41703 1.31,2.33679 -0.97,0.95277 0.95,0.74216 -1.3,1.61469 0.69,1.59464 1.42,0.49143 0.58,-1.374 3.64,0.10029 0.65,1.42414 -1.36,1.24362 0.84,0.34099 -0.19,1.22356 4.3,2.48723 0.19,2.74799 -1.23,2.79813 2.37,-1.12326 2.78,0.9628 3.49,-0.57167 -1.71,2.02589 0.52,1.09318 -0.91,1.62472 1.21,2.12619 -4.55,5.25527 1.23,1.11324 -0.46,1.35394 0.92,1.84536 -1.69,5.27534 4.86,0.35102 0,0 -1.84,1.73504 -5.42,1.56455 2.21,2.407 -3.59,3.96151 -0.51,3.97155 -1.61,-0.0401 -1.18,1.57458 -2.51,0.89259 -0.52,3.14916 -2.08,-0.67195 -1.54,2.29667 -1.46,-0.7221 -2.6,0.58169 -1.1,-2.13621 0.82,-3.03883 -0.92,-0.82239 -2.4,0.0702 -1.32,-1.57457 -8.12,3.71078 1.79,3.40992 0.02,1.8253 1.76,0.32094 -0.58,3.91137 -2.99,-0.36105 -2.32,1.55452 -1.14,-1.1333 -2.18,-0.21061 -4.56,1.87545 -2.37,-0.43125 -1.11,0.59172 0.3,1.15335 -1.44,0.47137 -0.29,1.58461 -1.11,-0.44128 -1.07,0.78227 -4.01,5.98741 2.45,3.07895 6.14,-2.94858 1.91,0.2407 0.92,1.15336 -0.56,1.14332 0.87,3.28956 1.67,1.01295 -1.27,1.033 0.69,2.20642 -3.96,4.04175 0.07,1.42414 0,0 0.24,0 0,0 1.23,1.36396 -2.3,0.20058 -1.75,1.34391 -6.3,-0.85248 -1.92,0.60175 -1.62,1.73505 1.56,1.67487 -1.39,2.31673 0.89,-0.3109 1.16,2.46717 -3.98,4.36268 0.21,0.73213 -1.26,0.33096 -0.53,2.50729 0.64,2.24653 -1.77,0.12035 -4.68,5.72665 -3.35,0 -0.95,-2.09609 -1.57,0.11032 -8.07,9.07638 0,0 -0.4,0.13038 0,0 -0.25,1.03301 2.39,4.5432 -2.73,4.89423 0,0 -2.97,-2.12618 -1.17,1.10321 -1.22,-0.18053 -0.14,-3.07895 -4.48,-4.78391 0.59,-4.97446 -0.57,-2.12618 -0.73,-0.75218 -2.63,0.82239 -2.11,-3.01878 -3.48,-0.76222 1.41,-4.60338 -3.66,-1.46426 -1.71,1.86543 -1.92,0.59172 1.56,1.73504 -0.65,3.46006 0.81,2.20642 -2.14,-0.61178 -1.68,2.40699 -2.68,0.63184 1.23,1.21353 -0.54,2.75802 -1.04,1.31382 -3.51,0.28081 -0.5,2.62764 -2.68,-0.68198 -1.87,0.93271 -0.01,0.82239 -5.509997,1.90554 -3.790003,-0.85248 -1.1,2.10613 0.94,1.64478 -1.14,1.93562 0.34,1.16339 -1.54,1.12326 -7.81,1.60467 -0.74,-2.52735 -0.79,2.51732 -1.08,1.1032 -1.17,-0.17049 -0.43,1.39405 -2.01,-1.19347 -1.65,2.63767 -2.16,-2.02589 -3.7,4.1621 -1.56,0.82239 -2.75,-0.40117 0.04,2.65773 -3.1,0.63184 0.9,0.99288 -0.53,1.06309 1.04,0.40117 -0.26,3.41994 -2.71,1.59464 -2.86,-1.93563 -0.78,-1.97574 -3.55,1.88548 1.34,1.43417 -1.44,1.81528 1.78,0.56163 0.76,1.40408 -0.83,2.82822 2.06,2.41703 -0.21,0.83242 -1.3,-0.34099 -4.91,2.77807 -2.06,-3.42997 -1.96,2.62764 -1.1,-1.02297 0.31,-1.9256 -1.39,-0.11032 -0.12,-1.2737 -6.07,2.77807 -1.48,2.14624 -1.99,0.19056 0.45,-2.44712 -0.93,-1.033 -0.93,0.88256 -1.12,-2.64769 -1.67,0.49143 0.55,2.25656 0.73,-0.14041 0.09,2.39697 1.06,0.61177 0.04,0.98286 -1.32,0.0502 0,0 -0.34,-2.20642 -3.67,-3.55032 2.24,-5.63638 -0.28,-1.83534 -2,-0.7923 0.65,-2.65773 -5.12,-1.65481 -2.81,0.99289 -1.15,-2.56747 -1.24,-0.57166 0.48,-1.033 -1.13,-0.52152 -0.14,-1.53446 3.13,-3.2695 1.16,0.11032 1.62,-3.76094 -4.52,-0.65189 -1.32,0.66192 0.44,-0.59172 -0.95,-1.07312 0.9,-0.83242 -3.97,-6.90006 -4.8,-0.8625 -0.44,0.92268 0.18,-2.54741 -1.65,-1.71498 0.63,-1.22356 -3.35,-2.29668 0.69,-1.33387 1.29,0.75218 1.29,-1.30379 -0.3800003,-3.10904 2.3500003,-1.01294 1.16,0.94274 0.96,-2.68781 -0.89,-1.98578 1.26,-2.88839 -2.58,-0.0602 L 9.8399997,437.29122 8.92,434.97448 10.19,432.28667 6.5,432.76807 5.64,431.86544 2.07,433.19932 2.52,430.4413 0.89000004,428.78649 0,425.7978 l 3.07,-1.86542 1.48,3.16921 1.42,-0.0702 1.31,-3.71079 1.98,-1.94565 2.11,-0.8926 3.04,-3.47009 5.3,-2.3067 -2.21,-1.59464 2.7,-1.33388 -1.06,-0.83242 -4.18,2.46718 -1.13,-0.21062 -0.93,-4.7839 1.15,-0.42123 -0.9,-1.93563 3.27,-3.1993 2.91,-5.90717 1.54,-0.33096 2.11,-2.78811 -0.76,-2.51731 0.75,-1.40409 -1.26,0.0602 1.12,-7.37143 -0.64,-4.14204 -3.38,-5.18508 -4.43,-4.42285 1.61,-5.17505 -5.36,-1.84536 -0.38,-3.46006 1.12,-0.95277 -3.22,-2.18636 -2.43,-0.0602 0.03,-1.26368 2.16,-1.5144 0.08,-1.77516 -1.05,-0.33096 0.19,-1.23359 -1.97,-1.5144 0.79,-0.49143 -0.85,-0.65189 1.03,-1.28374 3.29,0.11033 3.26,-3.01878 2.25,1.60466 4.24,0.85248 -0.12,-2.04595 -1.63,-2.5474 -2.11,-0.71207 0.86,-0.98286 3.2,0.0702 2.74,3.3397 4.34,-0.53154 1.22,0.59172 0.42,1.88548 3.08,0.14041 0.61,1.29376 2.46,0.93271 0.53,-2.63767 -1.47,-1.07312 0.29,-1.17341 2.55,1.6147 1.13,-0.67196 1.26,1.22356 4.74,-3.16921 8.94,-3.42997 3.04,1.90554 3.57,-3.1291 0.69,-3.04886 1.83,-0.57167 0.16,-2.32676 -4.91,-4.29248 -4.22,-1.18344 0.43,-3.21936 2.73,-0.49143 1.54,-4.50309 6.01,-0.21061 3.29,-5.77679 2.77,-0.53155 2.17,-4.61341 3.37,-0.13038 z" />
  <path
     id="DE-RP"
     title="Rhineland-Palatinate"
     d="m 34.37,498.83008 1.32,-0.0502 -0.04,-0.98286 -1.06,-0.61177 -0.09,-2.39697 -0.73,0.14041 -0.55,-2.25656 1.67,-0.49143 1.12,2.64769 0.93,-0.88256 0.93,1.033 -0.45,2.44712 1.99,-0.19056 1.48,-2.14624 6.07,-2.77807 0.12,1.2737 1.39,0.11032 -0.31,1.9256 1.1,1.02297 1.96,-2.62764 2.06,3.42997 4.91,-2.77807 1.3,0.34099 0.21,-0.83242 -2.06,-2.41703 0.83,-2.82822 -0.76,-1.40408 -1.78,-0.56163 1.44,-1.81528 -1.34,-1.43417 3.55,-1.88548 0.78,1.97574 2.86,1.93563 2.71,-1.59464 0.26,-3.41994 -1.04,-0.40117 0.53,-1.06309 -0.9,-0.99288 3.1,-0.63184 -0.04,-2.65773 2.75,0.40117 1.56,-0.82239 3.7,-4.1621 2.16,2.02589 1.65,-2.63767 2.01,1.19347 0.43,-1.39405 1.17,0.17049 1.08,-1.1032 0.79,-2.51732 0.74,2.52735 7.81,-1.60467 1.54,-1.12326 -0.34,-1.16339 1.14,-1.93562 -0.94,-1.64478 1.1,-2.10613 3.790003,0.85248 5.509997,-1.90554 0.01,-0.82239 1.87,-0.93271 2.68,0.68198 0.5,-2.62764 3.51,-0.28081 1.04,-1.31382 0.54,-2.75802 -1.23,-1.21353 2.68,-0.63184 1.68,-2.40699 2.14,0.61178 -0.81,-2.20642 0.65,-3.46006 -1.56,-1.73504 1.92,-0.59172 1.71,-1.86543 3.66,1.46426 -1.41,4.60338 3.48,0.76222 2.11,3.01878 2.63,-0.82239 0.73,0.75218 0.57,2.12618 -0.59,4.97446 4.48,4.78391 0.14,3.07895 1.22,0.18053 1.17,-1.10321 2.97,2.12618 0,0 -0.94,2.59755 1.93,2.74799 -0.88,2.26659 1.63,1.05306 -1.03,4.84408 -2.06,1.74508 -2.05,-0.55161 -1.75,-1.85539 -3.08,3.27953 -1.08,3.76094 2.07,3.41994 -2.25,1.54449 0.83,0.36105 -0.18,1.16338 -1.38,1.18344 1.4,1.15335 2.32,-0.0903 -0.4,1.58461 1.75,-0.10029 0.18,1.04303 0.88,0.0802 1.07,2.65773 -0.29,1.55452 1.9,0.5516 0.05,1.6849 1.05,1.05306 -0.81,3.8512 -1.68,-0.11032 -0.43,-1.08315 -2.36,0.14041 -0.92,1.3439 1.7,1.67487 0,0 0.26,0.35102 0,0 -1.28,2.11615 -1.31,-0.19055 -1.54,-1.98577 -0.14,1.00291 -2.27,0.83242 -0.26,0.9628 -2.3,0.63184 -0.01,0.95277 -1.72,1.2035 0.08,1.32385 3.07,2.41702 -0.72,0.99289 0.56,3.1291 -1.8,-1.86543 -1.14,0.70204 -2.03,-1.25364 -1.33,2.84828 0.45,1.4442 -2.23,0.0301 -1.88,2.57749 5.07,4.43289 0.9,3.22938 1.16,0.84245 5.33,-0.60175 4.53,-2.55743 9.16,-3.11907 3.86,0.78227 4.95,5.03464 2.1,5.81691 -0.65,3.97155 2.54,2.13621 -0.33,3.25947 2.79,5.3656 3.06,-0.0501 0.48,0.68198 -2.63,3.96152 -5.02,2.94857 1.58,6.4688 2.45,4.20222 0,0 -0.45,2.96863 3.05,8.13364 -1.32,2.01586 4.13,1.49435 -0.78,3.29959 -2.08,1.95569 0.7,0.76221 1.67,-1.45423 -0.12,2.13622 -3.03,4.07183 2.43,2.90846 -6.24,5.88711 -0.34,1.56455 1.26,-0.0702 -2.36,4.90425 -0.58,6.64933 -2.97,4.56327 -0.94,3.88128 0,0 -0.84,1.81528 0,0 -3.3,2.83825 0,0 -0.44,-1.01294 -1.64,0.85248 -0.32,-0.99289 -2.28,0.25073 -4.22,-1.42414 -2.64,-2.35685 -4.78,-1.30379 -2.73,-2.94858 -0.89,1.57458 -2,-0.67195 -1.41,1.47428 -4.6,-3.12909 -1.76,1.87545 -1.99,0.28082 -0.19,-1.25365 -0.75,0.53155 -1.63,-0.69202 0.11,0.86251 -1.48,0.46134 -2.57,-0.97282 -0.11,-1.77517 -2,-0.99288 -2.31,0.3109 -2.28,-1.67487 -1.79,-3.25947 -0.39,-3.69073 -3.72,0.42122 0.46,-1.87545 -4.97,1.21353 -0.12,1.2737 0,0 -4.21,-4.62344 0.46,-1.73504 -0.89,-1.45423 1.21,-1.91557 1.02,0.9628 0.04,-1.23359 1.2,-0.87253 -0.49,-0.91266 1.71,0.0602 1.43,-1.54449 0.98,-7.41155 -2.18,0.54158 -0.77,-1.50438 -4.09,-0.94274 -0.09,-2.68781 -2.42,-1.65481 -0.27,-1.22356 2.51,-1.14332 1.19,-1.70496 -1.65,-0.98286 0.53,-3.22939 1.35,-0.56163 -0.35,-1.04303 -1.79,-0.30088 -0.47,-4.62344 -3.4,1.83534 -0.09,-1.01295 -1.71,-0.02 -0.76,-0.90263 -0.15,-1.28373 -3.16,0.30088 -1.37,-1.05307 -0.76,0.61178 -1.81,-2.92851 -2.06,-1.02298 -2.73,1.84537 0.37,-1.37399 -2.47,0.90262 -0.74,-0.87254 -0.71,2.12618 -2.18,-0.33096 -1.1,1.45423 -0.9,-0.62181 -1.8,2.42706 -1.57,-0.77225 -4.04,3.31965 -2.39,0.37108 -1.28,1.76513 -0.36,-1.18344 -1.44,0.45131 -0.72,-0.71207 -0.24,1.17342 -1,-0.26076 -1.59,1.28373 0.08,0.93271 -1.69,-0.25073 -1.15,-1.9256 -2.86,1.33388 -2.9,-1.65481 -1.29,0.56163 -1.45,-1.01294 -0.83,0.53154 -2.37,-0.7923 0,0 -1.42,-2.03592 1.53,-0.53154 -0.29,-1.58461 2.82,-2.5474 1.28,-3.5403 -0.69,-1.32385 4.87,-4.473 -0.64,-1.24361 1.28,0.36105 -1.03,-2.5775 1.12,-1.33388 -0.76,-2.76804 1.41,-1.87545 -1.02,0.80233 -2.61,-2.07604 -2.61,1.17341 -2.09,-1.06309 -2.28,-2.88839 -2.51,1.23358 -0.67,-2.99872 -0.95,0.2407 -4.03,-3.28956 -0.16,-1.89551 -0.84,-0.47137 0.31,-2.60758 -1.09,-0.50146 -0.44,0.69201 -0.51,-2.00583 -0.88,1.45423 -0.52,-3.18927 -1.93,-1.2035 0.88,-0.98286 -0.89,-0.56163 0.59,-0.9628 -0.98,-0.69201 -0.4,-2.94857 -0.96,0.01 1.29,-1.30379 -1.02,-0.0702 0.42,-1.77516 0.83,-0.13038 -0.49,-2.61761 1.75,-2.31673 -1.33,-1.16338 0.52,-1.46426 0.48,-0.93271 0.66,0.58169 2.02,-1.06309 -1.53,-3.80105 0.61,-1.43417 1.31,-0.23067 1.16,-1.94566 4.12,-0.98286 0.77,-1.04303 -0.42,-1.63475 1.6,-2.59755 1.5,-0.20058 1.73,1.81527 0.08,-1.033 z" />
  <path
     id="DE-SL"
     title="Saarland"
     d="m 32.75,575.18204 2.37,0.7923 0.83,-0.53154 1.45,1.01294 1.29,-0.56163 2.9,1.65481 2.86,-1.33388 1.15,1.9256 1.69,0.25073 -0.08,-0.93271 1.59,-1.28373 1,0.26076 0.24,-1.17342 0.72,0.71207 1.44,-0.45131 0.36,1.18344 1.28,-1.76513 2.39,-0.37108 4.04,-3.31965 1.57,0.77225 1.8,-2.42706 0.9,0.62181 1.1,-1.45423 2.18,0.33096 0.71,-2.12618 0.74,0.87254 2.47,-0.90262 -0.37,1.37399 2.73,-1.84537 2.06,1.02298 1.81,2.92851 0.76,-0.61178 1.37,1.05307 3.16,-0.30088 0.15,1.28373 0.76,0.90263 1.71,0.02 0.09,1.01295 3.4,-1.83534 0.47,4.62344 1.79,0.30088 0.35,1.04303 -1.35,0.56163 -0.53,3.22939 1.65,0.98286 -1.19,1.70496 -2.51,1.14332 0.27,1.22356 2.42,1.65481 0.09,2.68781 4.09,0.94274 0.77,1.50438 2.18,-0.54158 -0.98,7.41155 -1.43,1.54449 -1.71,-0.0602 0.49,0.91266 -1.2,0.87253 -0.04,1.23359 -1.02,-0.9628 -1.21,1.91557 0.89,1.45423 -0.46,1.73504 4.21,4.62344 0,0 -0.03,1.46426 -2.32,-0.0301 -2.06,2.78811 -3.06,-1.46426 -3.08,1.43417 -0.87,-1.47429 -1.71,0.9628 -2.01,-2.10612 -1.37,0.27079 0.56,-1.27371 -0.95,-0.32093 -1.09,0.70204 0.54,1.66484 -2.15,1.76513 -1.8,-5.51603 0.44,-2.06601 -1.39,0.3109 -2.47,-2.17632 -0.84,0.68198 -2.18,-2.00583 -2.08,1.37399 -2.08,-1.33387 -1.42,0.98285 1.53,3.11907 -1.69,2.69784 -3.55,-1.5144 -2.62,0.43125 -1.72,-2.24653 1.25,-1.8253 -0.48,-1.2035 -1.81,0.23067 -0.4,-3.28956 -1.83,-0.8926 0.59,-2.06601 -3.57,-2.10612 -1.66,-1.91557 0.21,-1.38402 -1.55,-1.14332 -0.19,-0.88257 1.54,0.63184 0.8,-1.58461 -1.13,-0.29085 0.17,-1.64478 -2.93,-1.64478 0.79,-2.22647 -7.87,-5.02461 -2.26,1.18344 -1.66,-0.63183 -0.69,-5.86706 z" />
  <path
     id="DE-SN"
     title="Saxony"
     d="m 409.03,421.58552 -0.5,-1.00292 -2.83,-0.44128 -0.84,-1.83534 1.25,-0.12035 0.15,-0.90262 -2.78,-1.02297 1.07,-4.1621 -2.44,0.13038 -0.02,-0.83242 0.86,0.0201 1.06,-2.55743 -0.27,-2.33679 -0.64,-2.06601 -1.56,-0.82239 0.42,-1.9958 -1.58,-3.63056 3.14,-0.8625 -0.1,-4.30251 -1.41,-1.28373 0.86,-0.42123 -0.72,-2.2365 1,-1.18344 -0.55,-1.18344 -1.57,0.0201 -0.56,-3.00875 1.61,-0.52152 0.23,-1.43417 1.85,-0.98285 -0.99,-3.3698 2.88,-2.92851 -0.23,-1.11324 3.72,0.23067 3.28,-1.93563 -0.35,-0.60174 5.59,0.40116 1.11,-2.7881 1.11,0.7923 1.35,-0.45131 0.31,1.13329 1.31,-1.40408 2.06,0.75219 2.61,-2.45715 0.92,0.7221 2.01,-0.83242 -1.06,1.60467 3.46,-1.94566 1.79,-3.61049 5.1,1.77516 4.67,-3.8512 1.19,1.04303 0.19,1.84537 1.63,-0.99289 0.45,1.96572 1.93,-0.25073 0.87,1.17341 0.4,-1.16338 1.35,-0.11033 -0.35,-1.41411 0.62,0.13038 0,0 0.38,0.11032 0,0 -0.02,-0.73212 2.08,0.49142 0.74,2.73796 1.87,-0.89259 0,0 2.16,3.83114 2.24,-1.17342 2.49,2.75802 -1.11,2.53738 2.65,1.2035 1.41,3.39988 -0.39,3.23942 -1.07,0.0802 -0.14,1.72502 1.32,2.4772 -1.78,2.3067 0.85,0.43126 0.3,-1.2737 1.36,4.09189 3.34,1.16338 -0.39,-1.5846 1.59,0.18052 0.04,-1.30379 2.7,-1.50437 -0.34,-1.10321 3.49,1.17341 -0.16,-1.11323 1.5,-1.76514 1.79,1.95569 -0.44,1.22356 1.62,-1.07312 1.72,1.41411 -0.65,0.68198 3.62,1.033 0.22,2.02589 0.89,0.0501 0.4,1.24361 1.61,-1.5846 1.21,0.14041 0.52,1.5144 3.97,-0.0702 0.56,-0.73212 4.73,1.50437 1.64,-0.87254 0.43,0.81236 0.63,-0.81236 2.32,0.10029 0.97,-1.53446 4.55,0.4814 3.37,-1.71498 0.8,0.32093 -0.06,1.73504 1.78,0.341 0.37,-2.20642 1.48,-0.16047 -0.71,-0.8625 1.87,-1.39406 -0.53,-1.70495 1.59,-1.00292 -1.82,-3.13912 3.48,-0.12035 -0.87,-1.59464 1.29,-0.54157 0.69,-2.35686 2.22,-0.2407 -0.69,-0.90262 0.52,-1.15335 4.85,0.40116 2.05,1.2035 1.54,-0.47137 3.45,1.64478 0,0 0.04,0.4814 0,0 0.54,0.83242 0.57,-1.55452 2.94,-2.39696 3.76,-0.11032 0.44,-1.47429 5.33,-0.18053 0.41,-1.38402 1.48,-0.78227 1.83,0.88256 1.21,2.21645 4.08,-0.30088 1.54,-2.58752 -0.42,-1.98577 2.12,1.60466 0,0 -1.2,2.03592 1.58,3.67067 3.72,0.81236 3.66,2.87837 4.26,0.69201 2.07,1.41411 1.38,2.8182 -0.91,3.25947 0.59,3.09901 0.91,0.57166 -0.27,3.25948 4.11,7.06052 -3.17,11.40315 0.22,4.0217 -0.99,0.50145 -0.18,4.08187 -3.07,7.86286 -0.88,0.4814 0.14,2.07603 -0.89,0.33097 -0.62,3.23941 -4.94,5.67651 0.47,1.39405 -1.79,4.86414 -1.89,0.15044 -1.46,-0.98286 -1.4,0.69201 -0.92,-1.93563 -1.16,0.30088 -4.43,-1.9958 1.1,-3.98158 1,-0.80233 -0.16,-2.63767 -4.26,1.82531 -1.12,-0.51149 2.1,-6.84991 -2.19,-2.38694 -1.89,0.63183 -0.22,-1.33387 -2.09,-0.55161 0.19,-2.46717 -0.58,2.34682 -2.41,-1.29376 -2.85,1.7551 -1.58,-0.83242 -0.21,-1.18344 -1.24,-0.65189 -1.5,0.65189 -2.29,-1.66484 -0.94,1.6147 -0.9,0 0.79,1.2035 -0.32,1.30379 -1.3,0.61178 -0.05,2.13621 1.54,1.06309 2.63,-0.80234 0.21,1.15336 -1.61,0.77224 0.88,0.59172 -0.4,0.53155 5.5,1.87545 -0.65,3.85119 -2.36,-0.37107 -0.05,0.92268 -2.9,0.88256 -2.36,-1.12326 -2.12,0.77224 -0.6,2.74799 -8.63,3.44 -0.74,1.41411 -3.01,0.80234 -2.56,-1.58461 -2.25,1.21353 -1.09,1.74507 -2.36,-0.29084 -0.85,2.45714 0.72,2.44711 -2.31,0.19056 -0.35,1.52443 -5.03,-0.82239 -2.34,0.87253 -0.88,-0.67195 -1.25,1.65481 -2.72,-1.4442 -3.95,2.1663 -2.82,-0.46134 -2.04,0.92268 1.05,2.84828 -1.88,2.37691 0.72,1.43417 -1.82,0.8926 -1.88,2.7179 -3.28,-1.31382 -1.58,-3.01878 -1.18,-0.35102 0.3,2.26659 -3.28,2.02589 -0.16,2.75802 -2.04,0.49143 -0.79,-1.75511 -1.99,0.0201 -3.31,8.88583 -3.64,-0.33096 -0.41,-1.18344 -2.94,1.88548 -3.42,-1.01294 -0.71,6.14787 -2.58,2.94857 -2.46,0.68199 0.34,0.92268 -8.16,-5.66647 -0.58,2.84828 -0.96,-1.79522 -3.81,1.68489 -1.84,3.52024 -2.14,-1.95569 -10.22,1.99581 -1.62,2.60758 0.17,2.13621 -1.33,-0.54158 -1.72,1.33388 -0.66,1.88548 -2.05,0.0802 -0.01,2.89843 -1.8,0.80233 -1.16,2.24653 0.46,2.03592 -1.86,0.0301 0.27,2.27662 -0.75,1.17341 0.98,1.47428 -0.98,1.08315 0.86,0.86251 -2.99,-0.40117 -0.96,-1.97574 1.2,-2.41703 -3.45,-2.49726 0.37,-1.26367 1.32,0.80233 -0.71,-2.02589 -3.45,-0.18052 -0.07,-3.34974 -0.97,-1.61469 -5.32,0.41119 0,0 -0.58,-1.54449 -2.83,0.16047 -0.07,0.62181 -3.12,-2.85831 -1.27,0.36105 0.37,-3.77097 -1.19,-1.14332 -0.96,0.44128 0.26,-1.24361 -1.91,-1.55452 0,0 0.29,-0.8926 -1.82,-0.35102 -0.27,-1.26367 2.34,-1.35394 1.11,0.83242 -0.67,-1.72501 1.71,-1.59464 -2.13,-2.20641 -0.03,-1.45423 -2.77,0.60175 -1.15,-2.04595 0.94,-1.46425 2.8,-0.42123 -0.2,-2.83825 3.89,-2.45714 -0.29,-1.19347 1.22,-1.29376 1.17,0.95277 -1.08,0.99288 2.18,2.13621 -1.17,2.59755 0.64,1.72502 1.76,-0.0602 1.28,-0.49142 0.23,-2.05598 1.41,-0.23067 1.42,1.12326 2.46,-0.94274 -0.14,-0.74215 -1.59,0.0702 0.87,-4.62344 2.6,1.63475 0.6,-2.53738 4.06,0.85248 0.1,-1.4442 3.3,-1.91556 0.2,-2.0961 -3.72,-1.02297 -0.51,-2.22647 1.23,-1.15336 -0.47,-0.95277 -2.54,-0.0903 0.81,-2.81819 1.8,0.49143 1.42,-2.17633 -0.13,-0.7923 -2.12,0.16046 -0.21,-3.16921 1.81,1.05306 0.69,-1.47429 0.68,0.86251 -0.21,-1.38402 0.58,1.07312 2.6,-0.39114 0.07,-1.4442 1.65,-1.64478 1.84,0.52152 0.83,-0.95277 0.24,1.88548 1.34,-0.36105 0.22,-2.17633 2.49,-3.0288 1.72,0.19055 -0.22,-0.95277 0.87,-0.51149 1.09,0.7221 5.32,-0.95277 1.14,0.68199 0.97,-1.6849 -1.93,-2.02589 -1.03,-5.74671 -2.05,1.05306 -3.1,-1.33387 0.91,-0.69202 -0.13,-1.83533 -1.55,-0.25073 -0.49,0.97283 -0.25,-4.6435 -1.09,-0.32093 0,0 -1.07,0.0301 0,0 -0.81,-1.77516 -2.98,0.88257 -1.04,-0.98286 -2.03,0.44128 -0.31,-1.55452 -1.27,-0.78227 z" />
  <path
     id="DE-ST"
     title="Saxony-Anhalt"
     d="m 365.42,219.58829 2.52,-0.2407 -0.88,2.82822 3.23,0.37108 1.1,3.2695 3.03,-1.23358 2.8,3.01877 3.7,0.87254 0.27,1.22356 -1.67,2.066 0.77,1.24362 2.24,0.0301 1.42,1.55452 5.7,2.01586 2.76,-1.53446 5.68,1.43416 0.76,-1.83533 0.12,4.27242 4.4,-2.66776 0.41,1.06309 2.1,0.69202 1.54,5.94729 -0.51,1.60466 -1.87,0.18053 -0.73,3.06892 0.84,1.52443 -1.48,2.75802 0.77,-0.20059 -0.21,0.91266 1.14,0.7923 -0.33,1.55452 1.1,0.84245 -0.39,4.46297 0,0 -0.12,1.00292 0,0 -1.72,1.09318 -2.08,-0.67196 0.65,5.33551 -2.3,4.66356 1.75,-0.95277 1.19,0.71207 -1.46,1.96572 1.18,1.88548 2.09,-0.52152 1.55,-2.14624 1.75,2.22648 -0.65,0.53154 0.71,0.94274 3.8,-1.07312 -1.38,0.8926 1.41,1.11323 -2.71,4.94438 0.5,0.71207 -1.45,0.94274 1.7,0.83242 -0.48,2.15627 0.76,0.85247 -1.4,1.29376 1.58,2.00584 -1.96,3.13912 -1.98,6.69948 1.7,1.26367 -0.79,0.52152 2.39,0.70204 -3.19,1.71498 -0.05,2.84828 -1.25,-0.0301 -0.55,1.60466 2.76,3.81108 0.87,2.90846 2.41,1.26367 2.92,4.61341 1.91,0.46134 2.94,2.76805 0.97,-0.0802 0.71,-1.79522 1.15,0.12035 0.72,2.02589 2.89,1.15335 0.25,1.74507 4.62,0.36105 0.13,-1.00291 1.92,-0.27079 0.73,-1.89551 0.97,0.0802 5.37,2.61761 1.55,2.4772 4.15,-0.53154 0.47,3.38985 2.16,0.11032 0.19,0.70205 1.94,-1.23359 2.46,0.42122 -0.13,1.29376 1.21,0.21062 -0.11,2.19638 4.62,-0.0501 -0.4,2.04594 -0.7,-0.01 0.84,0.94274 2.55,0.32093 2.46,-1.42414 1.2,0.21061 0.86,1.95569 -1.95,0.46134 2.61,5.17504 -0.95,3.88129 1.07,1.7551 -0.75,0.63183 2.09,2.92852 -2.09,0.59172 0.51,1.87545 -0.81,0.82239 -6.09,3.95149 0,0 -1.87,0.89259 -0.74,-2.73796 -2.08,-0.49142 0.02,0.73212 0,0 -0.38,-0.11032 0,0 -0.62,-0.13038 0.35,1.41411 -1.35,0.11033 -0.4,1.16338 -0.87,-1.17341 -1.93,0.25073 -0.45,-1.96572 -1.63,0.99289 -0.19,-1.84537 -1.19,-1.04303 -4.67,3.8512 -5.1,-1.77516 -1.79,3.61049 -3.46,1.94566 1.06,-1.60467 -2.01,0.83242 -0.92,-0.7221 -2.61,2.45715 -2.06,-0.75219 -1.31,1.40408 -0.31,-1.13329 -1.35,0.45131 -1.11,-0.7923 -1.11,2.7881 -5.59,-0.40116 0.35,0.60174 -3.28,1.93563 -3.72,-0.23067 0.23,1.11324 -2.88,2.92851 0.99,3.3698 -1.85,0.98285 -0.23,1.43417 -1.61,0.52152 0.56,3.00875 1.57,-0.0201 0.55,1.18344 -1,1.18344 0.72,2.2365 -0.86,0.42123 1.41,1.28373 0.1,4.30251 -3.14,0.8625 1.58,3.63056 -0.42,1.9958 1.56,0.82239 0.64,2.06601 0.27,2.33679 -1.06,2.55743 -0.86,-0.0201 0.02,0.83242 2.44,-0.13038 -1.07,4.1621 2.78,1.02297 -0.15,0.90262 -1.25,0.12035 0.84,1.83534 2.83,0.44128 0.5,1.00292 0,0 -2.12,5.27533 2.35,-0.16046 0.27,1.95568 -2.89,3.67067 -0.95,2.15627 0.63,0.76222 -1.59,1.63475 -0.05,-2.2365 -1.45,0.12035 -0.48,-1.59464 -1.16,1.59464 -4.75,-1.77516 -4.71,1.04303 -0.66,-2.407 -2.35,-0.2407 0.02,-2.89842 -1.68,-1.07312 -1.89,0.49143 -1.5,-2.75802 -5.89,0.74216 -1.48,-0.58169 -1.03,1.14332 -1.68,-2.58752 -2.02,-0.33097 -0.15,-2.2365 -1.89,-1.85539 -2,-0.0903 -1.27,1.44419 -0.67,-1.42414 -2.22,-0.69201 -1.83,1.59464 -3.71,0.0401 -1.53,-1.2035 0.34,-1.47429 -0.97,-1.84536 1.2,-0.27079 0.98,-1.65481 -0.92,-0.44128 -0.05,-2.27662 -1.13,0.0301 -0.55,-1.76513 -3.32,0.55161 -0.04,-1.34391 -1.56,-0.33096 0.89,-2.49726 1.08,0.86251 1.24,-0.70205 2.69,-4.84408 1.08,-0.51149 -3.85,-3.71078 0.78,-0.9628 -1.79,-0.30088 -0.2,-3.73084 -3.33,-0.45131 -1.6,-2.54741 -4.58,1.40408 -0.06,-0.95277 -1.69,-0.77224 -1.94,1.033 -3.08,0.01 -5.13,-2.72793 -0.76,0.95277 -3.67,0.28081 1.19,-0.76221 -2.84,-0.73213 -0.22,-3.10904 0,0 -0.05,-0.32093 0,0 0.68,-1.6849 -3.02,-3.89131 1.31,-1.7551 -2.22,-1.99581 -0.95,0.29085 0,0 0.03,-0.61178 0,0 -0.34,-1.85539 0,0 -0.34,0 0,0 0.52,-2.41703 2.25,1.08315 0.43,-1.16338 -1.43,-0.80233 0.47,-0.77225 -2.28,0.62181 -1.85,-2.1663 -2.41,1.02297 -0.47,-1.66484 -2.96,-1.01294 -0.68,0.78227 -3.4,-0.0301 0,0 -1.95,-2.70788 -0.04,-4.31253 -2.31,-2.5775 -0.31,-2.3067 -2.38,-1.17341 -1.04,-4.37272 0.82,-2.55743 -0.83,-0.36105 0.22,-0.95277 3.53,-2.31673 1.06,-2.02589 -0.06,-1.84537 -2.2,-1.2737 -0.08,-1.79522 2.42,-1.9958 -1.89,-0.0301 -0.97,-2.00583 -1.34,0.28082 -1.46,-3.09901 2.05,-1.07312 0.34,0.82239 1.58,-0.19056 2.01,-1.78519 -0.47,-1.57457 3.29,-0.90263 8.22,0.33096 3.45,-1.36396 5.25,0.32093 0.38,-3.01877 -2.05,-0.90263 0.24,-0.88256 2.21,-0.2407 3.71,-2.97866 0,0 0.55,0 0,0 0.96,-4.02169 -2.6,-0.51149 -0.37,-2.13621 1.02,-1.374 2.93,-0.85247 0.64,-0.93272 -1.13,-1.31381 0,0 -0.58,0 0,0 -0.39,-2.63767 -1.56,-0.40117 -1.02,-1.82531 1.55,-1.32384 0,0 -0.02,-0.28082 0,0 -3.34,-3.95149 3.37,-0.28081 2.06,-1.2035 0.4,-1.98578 -2.53,-1.13329 0,0 -0.57,-0.50146 0,0 -0.71,0.18053 0.03,-1.2035 -5.19,-6.31837 0.71,-3.45003 1.98,-0.77224 1.44,0.52151 0,0 0.61,0.0702 0,0 -4.52,-7.57202 0.13,-2.29667 2.03,-1.51441 0.3,-2.08606 -3.61,1.46426 -4.96,-8.65517 0,0 0,-0.25072 0,0 -0.83,-2.32677 -1.93,0.26076 -0.34,-3.56035 -2.34,-3.80105 0.7,-6.20805 6.44,-1.4442 0.84,1.07312 1,-1.05306 2.74,0.3109 3.01,-3.3397 0.28,-2.44712 0.87,-0.40116 5.99,-0.13038 -0.03,1.55452 3.65,-0.7221 4.14,0.76221 1.15,1.8554 3.3,-1.00292 0.26,1.54449 1.15,-0.36105 5.83,-2.80816 3.31,-3.10904 2.91,-0.70204 -0.62,-2.13621 1.06,-4.76385 2.99,0.69201 0.21,-1.37399 z" />
  <path
     id="DE-SH"
     title="Schleswig-Holstein"
     d="m 180.8,108.69591 -1.36,0.98286 1.24,0.16047 -0.62,1.59463 -1.15,-1.66484 0.89,-1.35393 1,0.28081 z m -14.01,-41.911843 1.3,0.210613 -0.29,0.852478 1.34,1.394052 -1.94,1.67487 -1.64,-1.504374 -1.03,-2.798134 1.26,-1.534461 1,1.704956 z m 165.67,-8.534811 5.62,1.053061 3.79,1.885481 5.37,11.17248 -4.22,-1.083149 -3.22,0.541575 -0.12,-0.772245 2.21,0 -2.47,-0.872537 -1.5,0.962799 1.27,0.541574 -0.59,0.71207 -3.67,-0.0702 -1.63,-0.792303 0.45,-2.49726 -0.95,-1.674869 -1.44,-0.481399 -2.67,0.982857 1.58,1.604665 -2.51,-1.504373 0.1,-4.503091 1.22,-2.818193 2,-2.627639 1.38,0.2407 z m -165.12,-0.290846 -0.91,4.292479 -1.17,-5.265307 2.08,0.972828 z m 20.71,-2.086064 1.26,0.651895 -0.91,0.451312 -2.08,-0.962799 1.73,-0.140408 z m -7.09,-0.581691 -0.39,3.490146 -1.18,0.581691 0.98,0.280816 -0.42,0.902624 0.84,1.012945 -0.91,-0.842449 -1.15,1.614694 -3.33,0.36105 -1.78,-2.276619 -0.06,-2.246531 7.4,-2.878367 z m -9.55,-2.296677 1.27,2.236502 -1.65,0.130379 -2.54,-2.176327 2.92,-0.190554 z m 11.57,-6.739593 -0.55,1.30379 -1.12,-0.330962 0.33,-0.94274 1.34,-0.03009 z m -4.67,-2.01586 -1.02,2.035918 -4,0.60175 -2.32,1.825306 -1.16,-0.892595 0.75,-1.153353 6.08,-1.454227 1.7,-1.614694 -0.03,0.651895 z m 3.65,-2.97866 -0.78,1.504374 -1.72,-0.200583 1.84,-2.236502 0.66,0.932711 z m -21.53,5.054695 -0.11,0.902624 1.33,0.381108 -1.24,0.531545 0.96,0.902624 -2.42,0.451312 -4.45,-6.218076 4.47,-5.165016 -1.37,2.73796 1.47,4.332595 1.36,1.143324 z m 9.08,-12.887465 3.91,1.163382 -0.24,1.825306 1.03,1.173411 -2.04,4.322567 -5.29,-0.05015 -5.42,-2.37691 -0.24,-1.965715 2.05,-3.078951 6.24,-1.012944 z m -5.57,-32.6950486 1.77,0.6017493 -4.43,0.1404082 0.29,1.0029156 1.71,0.2206414 0.81,2.0660062 -3.7,1.9255979 -1.86,3.2995924 1.11,7.6020996 3.58,2.326765 11.07,-1.053062 2.19,-1.263673 0,-1.394053 2.84,-0.08023 3,1.945656 3.07,0.170496 2.32,-1.484315 3.05,1.022973 2.47,-0.852478 3.12,0.250729 6.46,3.369796 6.15,-0.11032 5.77,2.49726 0.89,4.473003 1.49,-0.210612 1.36,1.18344 0.73,-0.671953 2.42,0.822391 2.48,-4.142042 1.71,-0.481399 1.75,3.490146 -0.02,2.417027 1.96,-3.801051 2.03,0.02006 1.09,-1.66484 3.54,-2.076035 1.1,-2.156269 1.54,-0.06018 -1.44,3.078951 0.98,2.005831 12.03,3.780992 3.84,4.824024 1.46,0.06018 1.17,-2.096094 0.71,0.902624 -0.01,-3.730846 3.27,1.965715 2.01,6.739593 3.12,3.570379 -0.2,1.54449 -0.43,-2.116152 -1.85,0.4814 0.71,2.768047 1.63,-0.882566 -1.28,1.002916 1.25,0.361049 -0.46,11.693996 -4,5.255278 -6.03,3.199301 -2.31,-0.01003 2.07,2.878368 3.05,-0.481399 1.19,-1.002916 -0.57,-0.100291 12.9,-2.447115 4.75,3.21936 -1.91,2.24653 1.3,4.99452 -1.87,0.551604 -0.41,1.805248 -0.77,-0.110321 0.92,3.460059 -1.54,2.84828 2.07,-2.196385 1.2,0.431254 -0.99,-0.571662 0.55,-3.109039 1.11,-0.59172 -0.15,-1.353936 2.17,-3.831137 3.4,-0.451312 1.04,-1.454228 1.77,-0.47137 4.68,1.283732 5.28,3.740875 7.59,2.84828 6.6,6.458776 5.49,-0.852478 8.99,-7.6021 5.59,0.220641 -2.5,0.461342 2.93,0.83242 3.45,-1.033003 0.55,-1.504374 1.56,-0.742157 -0.22,1.043032 0.59,-0.59172 0.85,0.702041 -0.38,1.674869 -3.15,2.978659 0.16,-0.912653 -1.38,0.04012 0.29,0.942741 0.66,-0.250729 1.34,16.287349 -8.99,6.2582 -5.2,6.01749 -3.19,-0.47137 -0.7,-1.85539 -1.17,3.46006 -2.52,2.83825 2.12,5.42577 5.44,0.71207 0.92,1.38402 -0.16,2.1663 1.36,0.26076 0,0 -0.66,3.65061 4.59,1.62473 -3.45,1.033 -0.54,-0.9628 0.61,-0.8926 -2.03,-1.033 -2.29,2.96863 -1.78,0.37108 -0.99,1.91557 -1.87,0.39114 -1.46,2.29667 1.56,6.34846 -0.68,2.57749 0,0 -0.27,1.83534 0,0 2.98,1.5144 0.42,1.87545 2.45,1.9958 4.63,0.29085 -0.19,1.01294 1.4,0.56164 0.65,3.9214 -1.46,2.07603 -1.19,6.23814 -3.84,0.7221 -0.74,-1.26368 -1.04,0.18053 0.73,3.48011 -1.23,2.32677 0.67,0.76222 -2.41,0.33096 -1.96,2.93854 -3.47,0.51149 -0.61,2.40699 -2.49,-0.57166 -1.31,0.74216 -1.09,7.65225 -1.33,1.93562 0,0 -0.98,0.46134 -5.07,-1.49434 -7.8,-5.35557 -3,-0.10029 -1.44,-0.92268 0,0 1.13,-1.65481 -2.15,-0.341 -3.28,-3.24944 -1.9,-4.13201 -1.52,0.93271 -1.63,-1.11324 -0.71,-5.45586 3.07,-1.35394 -0.5,-2.85831 1.96,-2.29667 -1.94,-0.51149 0.5,-1.01294 -0.9,-1.66484 -2.63,-1.54449 1.04,-1.35394 -0.16,-1.46426 1.6,-0.5516 0.64,-1.56455 0.09,-0.75218 -1.62,-0.83242 -3.03,2.7179 -2.58,-0.75219 -0.84,1.04303 0.66,0.68198 -0.82,2.83826 -4.24,-0.341 -1.27,3.74088 -4.62,-0.6519 -1.02,3.15919 -3.46,3.91137 -2.31,-0.81236 -0.2,-1.96572 -1.54,-0.49143 -0.09,-1.59463 -2.61,8.06344 0,0 -3.63,-0.89259 -7.85,-5.58624 -2.84,-8.27406 -5.09,-4.78391 -3.92,-8.02332 -3.21,-4.37271 -6.67,-2.83825 -13.06,0.56163 0,0 -0.99,-1.86542 -2.09,-0.74216 -3.19,-3.91137 -1.47,-4.8842 -1.33,-1.45423 1.3,-1.06309 -1.36,0.81236 -1.74,-3.01877 -1.8,-0.1003 4.75,-2.33679 2.64,0.53155 -0.5,1.1032 0.84,-0.01 0.03,-0.82239 0.4,0.78228 1.59,-0.40117 1.7,-2.38694 -0.06,-0.66192 -1.61,-0.11032 1.26,-0.59172 -1.92,-2.3368 0.77,-0.25072 -0.87,-0.01 -1.2,-4.06181 -2.03,-0.28082 -2.28,1.55452 0.24,-1.13329 -0.39,1.15335 -3.12,-5.686536 2.05,-6.579126 -0.11,-5.58624 -0.82,-0.942741 -2.72,1.123265 -2.47,-1.193469 -2.24,0.330962 -2.03,2.447114 -2.1,-0.982857 -2.72,-4.011663 0.55,2.116152 -1.32,-1.193469 1.16,1.975744 -1.83,-2.487231 1.71,-5.074753 0.91,-0.270787 -0.43,1.163382 1.68,0.732128 0.85,-1.524431 2.24,-0.451312 -0.94,0.371078 0.99,-1.985773 -1.01,0.571662 -1.33,-0.581691 -0.31,0.742158 -2.74,-0.501458 0.8,-2.116152 12.95,-2.798134 3.2,0.772245 3.16,-2.166298 2.5,-3.309622 2.63,-0.581691 0.37,-1.494344 1.89,0.802333 0.85,-0.71207 -1.33,0.411195 -1.7,-0.802332 0.21,-2.005832 -1.4,-2.406997 -1.57,0.95277 -1.83,4.593353 -0.89,-0.280816 0.53,0.361049 -1.78,1.022974 -3.35,-0.0702 -2.45,-1.103207 0.75,-1.725015 -0.78,-1.373994 4.37,-3.791021 -0.26,-3.409913 0.78,-3.119068 0.67,-0.06017 -1.44,-0.521516 0.61,-1.333877 -0.93,1.283732 -3.29,0.05015 -0.29,-0.752186 2.96,-1.54449 -0.96,0.240699 -1.48,-4.101924 -4.42,-2.97866 -0.48,-3.339709 -3.07,-1.564548 -0.25,-0.732128 1.16,-0.782274 -0.81,-3.389855 -5.64,-7.832771 -0.43,-4.763849 -5.55,0.150437 -6.2,3.881284 -2.35,-1.31382 -0.83,-1.865423 -1.53,-0.411195 -0.35,1.704956 -2.19,1.504374 -0.11,12.155337 -1.13,-1.113237 1.04,-17.761635 L 161.2,0.64186598 162.33,0 l 1.61,0.7321284 z" />
  <path
     id="DE-TH"
     title="Thuringia"
     d="m 308.18,365.17152 3.4,0.0301 0.68,-0.78227 2.96,1.01294 0.47,1.66484 2.41,-1.02297 1.85,2.1663 2.28,-0.62181 -0.47,0.77225 1.43,0.80233 -0.43,1.16338 -2.25,-1.08315 -0.52,2.41703 0,0 0.34,0 0,0 0.34,1.85539 0,0 -0.03,0.61178 0,0 0.95,-0.29085 2.22,1.99581 -1.31,1.7551 3.02,3.89131 -0.68,1.6849 0,0 0.05,0.32093 0,0 0.22,3.10904 2.84,0.73213 -1.19,0.76221 3.67,-0.28081 0.76,-0.95277 5.13,2.72793 3.08,-0.01 1.94,-1.033 1.69,0.77224 0.06,0.95277 4.58,-1.40408 1.6,2.54741 3.33,0.45131 0.2,3.73084 1.79,0.30088 -0.78,0.9628 3.85,3.71078 -1.08,0.51149 -2.69,4.84408 -1.24,0.70205 -1.08,-0.86251 -0.89,2.49726 1.56,0.33096 0.04,1.34391 3.32,-0.55161 0.55,1.76513 1.13,-0.0301 0.05,2.27662 0.92,0.44128 -0.98,1.65481 -1.2,0.27079 0.97,1.84536 -0.34,1.47429 1.53,1.2035 3.71,-0.0401 1.83,-1.59464 2.22,0.69201 0.67,1.42414 1.27,-1.44419 2,0.0903 1.89,1.85539 0.15,2.2365 2.02,0.33097 1.68,2.58752 1.03,-1.14332 1.48,0.58169 5.89,-0.74216 1.5,2.75802 1.89,-0.49143 1.68,1.07312 -0.02,2.89842 2.35,0.2407 0.66,2.407 4.71,-1.04303 4.75,1.77516 1.16,-1.59464 0.48,1.59464 1.45,-0.12035 0.05,2.2365 1.59,-1.63475 -0.63,-0.76222 0.95,-2.15627 2.89,-3.67067 -0.27,-1.95568 -2.35,0.16046 2.12,-5.27533 0,0 3.44,-1.33388 1.27,0.78227 0.31,1.55452 2.03,-0.44128 1.04,0.98286 2.98,-0.88257 0.81,1.77516 0,0 1.07,-0.0301 0,0 1.09,0.32093 0.25,4.6435 0.49,-0.97283 1.55,0.25073 0.13,1.83533 -0.91,0.69202 3.1,1.33387 2.05,-1.05306 1.03,5.74671 1.93,2.02589 -0.97,1.6849 -1.14,-0.68199 -5.32,0.95277 -1.09,-0.7221 -0.87,0.51149 0.22,0.95277 -1.72,-0.19055 -2.49,3.0288 -0.22,2.17633 -1.34,0.36105 -0.24,-1.88548 -0.83,0.95277 -1.84,-0.52152 -1.65,1.64478 -0.07,1.4442 -2.6,0.39114 -0.58,-1.07312 0.21,1.38402 -0.68,-0.86251 -0.69,1.47429 -1.81,-1.05306 0.21,3.16921 2.12,-0.16046 0.13,0.7923 -1.42,2.17633 -1.8,-0.49143 -0.81,2.81819 2.54,0.0903 0.47,0.95277 -1.23,1.15336 0.51,2.22647 3.72,1.02297 -0.2,2.0961 -3.3,1.91556 -0.1,1.4442 -4.06,-0.85248 -0.6,2.53738 -2.6,-1.63475 -0.87,4.62344 1.59,-0.0702 0.14,0.74215 -2.46,0.94274 -1.42,-1.12326 -1.41,0.23067 -0.23,2.05598 -1.28,0.49142 -1.76,0.0602 -0.64,-1.72502 1.17,-2.59755 -2.18,-2.13621 1.08,-0.99288 -1.17,-0.95277 -1.22,1.29376 0.29,1.19347 -3.89,2.45714 0.2,2.83825 -2.8,0.42123 -0.94,1.46425 1.15,2.04595 2.77,-0.60175 0.03,1.45423 2.13,2.20641 -1.71,1.59464 0.67,1.72501 -1.11,-0.83242 -2.34,1.35394 0.27,1.26367 1.82,0.35102 -0.29,0.8926 0,0 -6.28,3.38985 0,-1.31382 -2.9,-1.69492 -0.44,0.92268 -1.28,-0.43125 0.7,0.87253 -1.56,-0.32093 -1.59,1.30379 -0.38,-0.64187 -5.31,1.49435 -1.98,-1.54449 -1.42,0.29084 -0.72,1.46426 -2.42,1.05306 -0.09,-2.10612 -2.65,-0.4814 0.24,-2.9586 -1.16,-0.18053 -1.39,1.21353 0.49,-1.19347 -1.93,-1.26367 -0.02,-4.96443 0.97,0.2407 0.35,-0.79231 -0.63,-1.19347 -5.42,-0.95277 0.07,1.00292 -1.63,0.22064 0.05,1.77516 -1.29,0.14041 -0.71,1.38402 -0.25,-0.95277 -2.5,0.63184 0.03,2.97866 1.19,1.85539 -0.57,3.04887 1.69,3.9916 -1.47,0.87254 0.94,1.53446 -0.95,-0.0802 0.51,3.07895 -1.13,1.25365 0.58,0.4814 0,0 -0.26,0 0,0 -0.33,2.02589 -3.59,-2.44712 -0.31,1.99581 -0.92,0.32093 0.41,-1.08315 -2.3,-0.49143 -0.81,-1.41411 1.56,-3.05889 -1.27,-2.25656 -1.27,0.40116 -0.17,-1.7551 -1.68,0.13038 -0.23,1.35394 -2.62,0.78227 -0.46,-1.60466 -2.76,-0.53155 0.26,1.59464 -0.82,0.16046 -3.12,-4.45294 -1.27,0.35102 0,0 -0.48,0.19055 0,0 -1.08,0.6519 -0.96,-1.60467 -0.89,0.85248 -1.92,-0.45131 -1.71,1.30379 -1.22,-0.53155 -2.01,2.65773 -2.45,-0.63184 -0.18,1.84537 0.97,0.15044 -0.81,2.35685 1.66,0.52151 1.84,2.2365 2.06,0.16047 0.17,1.22356 0,0 0.35,0 0,0 2.17,0.39114 0.07,3.07895 -1.53,0.66192 -1.36,-1.39405 -2.03,1.02297 -2.41,-0.98286 -0.11,3.98158 -0.83,0.67195 -1.07,-0.73213 0,0 -0.33,0 0,0 -2.29,-1.79521 -1.88,0.69201 -1.4,-0.71207 -0.65,-1.53446 0.86,-0.35102 -0.79,-1.40409 0.59,-0.83242 -1.05,0.0201 0.82,-2.12618 -0.77,-1.49434 0.49,-2.58752 -2.43,-0.42123 -1.09,-2.60758 -0.77,-0.1705 -1.12,1.55452 -0.18,-0.9628 -1.3,0.45132 0.02,-2.00583 -0.71,0.18052 0,0 -0.47,0 0,0 -1.34,-2.81819 -3.64,0.78227 -0.68,-1.49434 1.16,-1.6849 -2.01,-0.64187 0.68,-0.75218 -0.87,0.12035 -1.97,-2.69785 -0.44,-2.85831 -1.79,0.0301 -2.95,-1.94565 -1.52,0.20058 -0.03,-1.9958 -1.48,-0.94274 -0.3,-1.38403 -1.56,0.2407 -0.25,0.90263 -1.56,-0.95277 -0.52,0.95277 -2.19,-2.10613 -2.4,2.78811 0.11,0.92268 -1.96,1.04303 0,0 -0.2,-1.31382 1.44,-2.66775 -1.54,-5.50601 0.77,-1.28373 2.12,0.0903 -1.82,-4.87417 -3.41,-0.53154 -2.99,0.91265 -0.3,1.06309 1.2,1.54449 -0.5,1.19347 -5.32,-1.09318 0.17,-2.99872 2.79,-2.39696 -0.92,-1.15336 2.02,-3.36979 -0.1,-1.67487 -1.07,-0.34099 0.26,-1.52444 1.76,0.0401 -0.62,-2.60758 0.58,-2.17633 1.42,-1.08314 0,0 0.41,0.15043 0,0 1.01,0.46134 0.57,-1.14332 1.34,0.26076 0.7,-1.84537 -1.06,0.44129 0.07,-1.75511 2.41,-1.69492 -0.08,-0.78228 -0.75,0.0802 0.2,-1.10321 -2.46,-2.1663 -2.57,1.39405 1.03,-2.39696 -1.48,-0.1003 -0.68,0.93272 -0.23,-1.89552 3.94,0.78228 0.78,-0.90263 0.31,0.60175 2.17,-0.73212 -1.29,-0.45132 -0.14,-1.85539 -1.36,-1.41411 1.26,-3.1993 4.04,0.92268 1.07,-0.65189 1.74,1.78519 3.68,-1.52444 -0.72,-1.09317 1.39,-0.75219 -0.61,-0.93271 -4.11,-2.46717 0.84,-0.95277 -0.58,-1.58461 1.87,-3.21936 -3.51,-2.32676 2.95,-1.40409 2.1,4.08187 0.81,-1.30379 -0.61,-2.59755 2.23,-3.51021 -2.63,-0.68198 -1.92,-1.9958 -1.09,0.46134 -0.61,-1.36396 -1.66,0.5516 -2.82,-1.1333 0.58,-1.67486 -1.95,-1.07312 0.53,-2.54741 -5.3,-0.60175 -0.21,-1.61469 -1.9,-0.69202 0.58,-1.2737 -1.49,-3.54029 0.2,-2.13621 0,0 4.63,-3.00875 0.58,-1.59463 1.82,-0.0401 0.52,-1.69493 1.4,1.94566 0.76,-1.70496 1.95,0.43126 0,0 0.4,0 0,0 2.34,-0.0903 -0.79,-1.25364 2.04,-0.22064 0.83,-1.77516 -0.51,-0.67196 1.51,-1.66484 0.92,1.56455 1.07,0.0201 0.79,-1.29376 3.37,-1.08315 0.55,-2.09609 2.24,-0.45131 2.4,-4.52315 0,0 0,-0.61178 0,0 -0.65,-1.91557 3.63,-0.4814 0,0 0.38,0 0,0 3.94,1.96571 1.54,1.95569 2.67,-0.23067 2.87,-2.39697 3.23,2.15627 0.57,-1.76513 -1.71,-0.88257 -0.28,-2.32676 0.91,0.0501 -0.63,-1.35393 2.78,-0.88257 -0.43,-0.94274 z" />
</svg>
