<?xml version="1.0" encoding="UTF-8" standalone="no"?>
<!-- Created for MapSVG plugin: http://mapsvg.com -->

<svg
   xmlns:mapsvg="http://mapsvg.com"
   xmlns:dc="http://purl.org/dc/elements/1.1/"
   xmlns:cc="http://creativecommons.org/ns#"
   xmlns:rdf="http://www.w3.org/1999/02/22-rdf-syntax-ns#"
   xmlns:svg="http://www.w3.org/2000/svg"
   xmlns="http://www.w3.org/2000/svg"
   xmlns:sodipodi="http://sodipodi.sourceforge.net/DTD/sodipodi-0.dtd"
   xmlns:inkscape="http://www.inkscape.org/namespaces/inkscape"
   mapsvg:geoViewBox="6.624486 47.093216 18.521301 35.490303"
   width="1254.3138"
   height="1635.2745"
   id="svg2"
   version="1.1"
   inkscape:version="0.91 r13725"
   sodipodi:docname="italy.svg">
  <metadata
     id="metadata32">
    <rdf:RDF>
      <cc:Work
         rdf:about="">
        <dc:format>image/svg+xml</dc:format>
        <dc:type
           rdf:resource="http://purl.org/dc/dcmitype/StillImage" />
        <dc:title></dc:title>
      </cc:Work>
    </rdf:RDF>
  </metadata>
  <defs
     id="defs30" />
  <sodipodi:namedview
     pagecolor="#ffffff"
     bordercolor="#666666"
     borderopacity="1"
     objecttolerance="10"
     gridtolerance="10"
     guidetolerance="10"
     inkscape:pageopacity="0"
     inkscape:pageshadow="2"
     inkscape:window-width="1083"
     inkscape:window-height="638"
     id="namedview28"
     showgrid="false"
     inkscape:zoom="13.47506"
     inkscape:cx="635.2844"
     inkscape:cy="2.5465977"
     inkscape:window-x="0"
     inkscape:window-y="0"
     inkscape:window-maximized="0"
     inkscape:current-layer="svg2"
     fit-margin-top="0"
     fit-margin-left="0"
     fit-margin-right="0"
     fit-margin-bottom="0" />
  <path
     d="m 615.1316,767.84415 -0.22631,-0.22713 -0.20574,0.0618 -0.34975,0.0824 -0.32918,0.53685 -0.0617,0.12381 0.12344,0.16517 0.12345,-0.0413 0.53491,0.12382 0.41147,-0.16517 0.0412,-0.12382 -0.0823,-0.16516 z"
     title="Vatican City"
     id="VA"
     inkscape:connector-curvature="0" />
  <path
     d="m 610.11163,480.1942 0,0 7.87971,0.88788 0.80237,-2.76687 0,0 2.3454,-3.2211 -0.65836,-7.74303 -7.61225,5.12073 -3.41523,0.0618 0.57606,7.45401 z"
     title="San Marino"
     id="SM"
     inkscape:connector-curvature="0" />
  <path
     d="m 295.06731,609.90617 4.27932,3.61337 -1.27557,3.42766 1.89278,3.77859 2.50998,18.8518 -2.88031,6.91716 -2.01622,12.34762 7.77684,13.46261 1.52245,5.69892 0.94639,15.83714 -1.21384,8.03212 2.92145,12.57478 -0.55548,22.60978 -0.55549,2.84944 -14.48385,21.28829 0.18516,5.38917 -1.74876,5.30656 0.96696,8.13544 -1.27557,2.99396 1.48131,4.56322 -0.18517,7.49531 -0.57606,2.78752 -2.98318,2.0855 1.72819,3.09717 -1.93392,2.84948 -1.6459,2.82875 -4.9171,-1.65183 0,1.67249 -2.83916,1.56929 0.6995,4.3361 3.23006,-4.25355 5.24629,1.89968 -2.57171,4.56323 -7.34479,4.02642 1.15212,1.85836 -1.66647,2.49838 2.0368,0.74336 -0.37033,2.29195 -1.91335,1.05306 1.25499,0.86719 -5.84291,3.05596 0.43204,3.55148 -1.13155,1.13562 0.63779,0.74334 4.54677,-3.40694 -0.61721,2.04419 -4.07358,6.64868 -4.34104,0.3304 -2.40712,-3.94383 -6.70701,-0.24774 2.67458,-6.81393 -5.16399,-0.22712 -3.20949,-1.73445 -1.52245,-0.64005 -4.40276,-1.77576 -2.38654,-2.62233 -4.27932,0.47492 -3.10663,-3.81995 -1.54302,-1.13564 -3.51809,0.90851 1.15212,-4.10899 -3.37408,0.413 -3.64153,-1.6725 -0.51435,-1.4867 -0.84352,-3.61345 1.6459,-0.66073 0.0823,-4.52195 1.50188,-1.817 1.54302,1.71374 3.39465,-2.64295 2.20138,0.20648 0.98754,-3.40695 3.51809,-1.40405 -0.22631,-1.44541 -7.4888,-0.8259 -3.18892,-2.41585 -3.20949,2.04421 -0.72008,-5.84342 -7.15963,2.76683 -0.24688,-2.47781 -4.83481,-0.16516 0.18516,-1.36283 2.53056,0.47493 4.85538,-4.19157 0.55549,-2.89078 1.39901,-2.10612 2.38654,0.0206 1.255,-2.95265 0.49376,-2.53972 -1.04925,-4.58394 2.59228,-1.7757 -2.18081,-3.88185 -1.93392,0.35103 -2.13966,0.28901 -2.61286,1.44538 -8.14716,-0.30969 -3.60039,2.33324 1.62532,-5.84341 -3.20949,-4.27421 5.88406,-0.49553 2.18081,-2.02357 -1.52245,-2.33323 0.59664,-1.85834 9.19642,-5.28596 -1.00811,-2.2506 -1.9545,0.28903 -2.01622,-6.95844 -4.29989,1.67252 -1.35786,-2.97336 -3.62096,-1.89962 -3.31236,0.94988 1.35786,-2.18877 -0.90524,-1.15631 -2.90089,0.8466 0.32918,-3.67537 2.53056,-1.07371 -0.41147,-3.7993 -1.5636,0.10325 -1.54302,-3.1385 -1.19327,-1.48668 16.33547,-4.17092 -3.64153,-5.07948 -2.13966,0.45428 -1.52245,-1.87897 -2.24253,0.97042 -0.6995,-1.92024 3.18891,-1.85838 -1.23442,-2.41582 -2.59228,-0.55749 -3.49752,2.99397 -0.0823,-4.00572 -1.54303,-1.11501 0.45262,-1.63123 2.30425,1.46601 0.7818,-2.00286 3.4358,-0.47491 -0.34975,-4.27417 5.24628,0.1446 1.37844,-4.21225 1.23441,-3.44818 -3.29178,-1.3835 1.89278,-5.30656 4.62907,-2.89072 1.29614,-2.97336 -0.4732,-1.94095 -1.25499,0.10325 2.05737,-2.16807 0.18516,3.34504 2.92146,-1.44537 0.45262,1.77574 3.10662,0.7846 2.30425,-5.14137 -0.90524,-1.83768 6.85102,-0.84659 1.255,-2.97332 3.41522,0.0412 1.21385,-1.54862 9.75191,-0.20649 4.77309,-2.8701 1.04925,-4.39807 1.64589,-3.28299 4.09416,-2.41585 4.48506,-0.72272 3.25063,1.71383 2.50999,-1.52798 1.0904,2.14741 2.69515,0.37166 1.19327,2.35389 1.64589,3.7167 1.46073,-0.18573 4.85539,-8.50705 -0.24689,-8.46575 -3.49752,-5.49243 3.25064,-4.70781 -1.93393,-4.91425 4.15588,-3.44819 -1.29614,-0.78469 1.04926,-2.23 -1.9545,-7.06166 1.81048,-1.89965 6.72759,-0.68136 z"
     title="Corsica, France"
     id="FR-H"
     inkscape:connector-curvature="0" />
  <path
     d="m 816.83568,1569.7992 0.61721,1.115 -2.7363,2.1475 4.89653,0.4541 -1.27557,2.9115 4.73194,-1.9823 -0.43204,1.6107 1.31671,-0.9087 6.1721,3.5515 -0.59664,0.9912 2.61285,1.5692 -1.66646,-0.041 -0.18516,1.879 2.44826,-1.2802 -2.09851,3.0767 2.81859,-2.3539 4.5262,3.1796 -0.88467,6.8966 -1.4813,-2.5604 -2.07794,1.8997 2.28368,0.8466 -2.03679,1.5279 -11.45953,-2.4777 -9.09355,-6.8965 -0.86409,-3.2831 1.33728,-0.1445 -0.82294,-1.9204 1.23442,-1.5897 -1.70762,-1.1771 1.37844,-1.5691 -0.53492,-1.9824 -1.85163,-0.2685 1.13155,-1.9821 4.2999,-1.2389 z m -3.31236,-3.2831 1.35786,1.466 -2.79802,0.6607 -0.16458,-1.8583 1.60474,-0.2684 z m -10.98633,-7.9702 8.02372,2.9113 2.7363,3.4897 -7.87971,2.7049 -7.67397,-2.9527 -0.37033,-5.2447 5.16399,-0.9085 z"
     title="Malta"
     id="MT"
     inkscape:connector-curvature="0" />
  <path
     d="m 769.37226,627.20933 2.79802,13.09098 4.6085,11.37714 12.89968,23.08465 14.42213,15.9198 16.95269,12.69863 1.7899,4.81102 7.55053,7.28879 0.67893,2.78748 11.43895,7.6399 10.61601,3.77859 0.43205,10.01436 7.05676,5.01751 0,0 -2.40712,3.81992 1.8722,1.73445 -5.84291,4.047 -4.73194,5.86415 -1.68704,6.40092 -4.85539,3.42759 -3.53866,7.7018 -9.79306,10.59251 -4.19703,-0.76398 1.62532,-1.32152 -2.20138,-8.85806 -2.2631,-2.20932 -5.01997,-3.34506 -2.16023,2.72559 -1.1727,-0.45426 -2.01622,-4.52193 -2.55113,0.26837 -1.93393,-2.60163 -5.98693,4.91426 -2.94203,4.58392 -4.56735,0.30974 -0.86409,1.85828 2.5717,7.3301 3.1272,1.8377 -0.8641,2.1268 -1.74876,-0.26844 -0.51434,-2.08543 -1.37843,2.56033 -4.09416,0.10326 -1.29614,5.45111 -1.62532,-4.27419 -2.38654,0.18573 -1.78991,4.95556 -2.73629,0.10324 -0.57607,3.0146 -3.84727,-2.02349 -4.32047,1.07373 0,0 -5.12284,-6.75194 -4.03243,0.39229 -4.93768,-2.91138 -2.11908,1.34213 -2.7363,-0.82596 -3.60039,-6.83455 -2.71572,1.50735 -2.20138,-2.43652 -3.66211,-1.01173 -2.18081,4.31548 -8.33233,2.78746 -3.0449,-1.92026 -1.50187,-3.73731 -3.78556,-0.88787 -3.0449,-2.95269 -3.55924,-1.44536 -2.88031,2.8081 -2.05736,-7.49527 2.63342,-4.72844 -2.05736,-2.91136 -2.07794,0.37161 -4.07358,-4.70774 -1.85163,0.76399 -15.73885,-9.27109 -4.17645,-1.48662 -0.0411,2.56036 -4.89653,-1.3215 -2.90089,-4.64585 0.30861,-10.15886 1.60474,0.74326 4.27932,-3.67536 0.10287,-4.9349 3.55924,-0.2684 13.49632,7.28878 2.55113,-1.58986 3.47695,1.28012 2.20138,-4.60455 3.08604,-0.59876 -1.0904,-1.466 3.76498,-0.68139 -3.97072,-2.51911 -0.6172,-3.36563 -4.9994,-1.73449 -5.308,-5.2446 -1.33729,-6.77264 -7.69455,-5.12073 4.27932,-4.81104 -8.20888,-7.72243 6.54242,-4.99684 -0.20574,-4.91427 -2.05737,-3.84055 2.11909,-1.19764 1.5636,-5.69885 5.65775,2.14736 1.255,-1.5073 2.77744,0 1.19327,2.02355 3.08605,-1.58997 4.64964,0.64011 2.77745,-2.41583 1.56359,-7.08231 -4.09415,-1.30085 -2.36597,-2.82877 1.11097,-3.46893 0,0 0,0 0,0 0,0 0,0 3.41523,0.9911 3.86785,-2.74618 1.17269,0.94982 1.23442,-4.89364 4.87596,-0.80526 0.61721,-5.14144 2.75687,-3.07657 0.49377,-2.97335 4.27932,2.33329 4.87595,-2.29195 1.37844,1.9409 2.77744,-0.35103 4.1353,-1.94089 0.94639,-4.56327 1.39901,-0.78463 5.71947,-0.37165 4.34104,-2.91143 10.26626,-2.20934 0,0 z"
     title="Abruzzo"
     id="IT_65"
     inkscape:connector-curvature="0" />
  <path
     d="m 940.46275,887.60364 -0.67893,-2.53972 2.75687,-2.53973 4.01186,-0.78459 9.56675,1.61052 5.16398,-1.85834 2.98318,2.16804 3.47695,-1.87898 -0.32918,-1.96158 3.4358,-0.88789 -0.37032,-1.56924 1.68704,0.59884 2.92145,-1.75512 4.73194,3.40696 3.57982,0.61939 0.49377,2.12683 2.59228,0.61943 1.25499,4.85233 1.27557,-0.86727 3.78555,3.09725 -1.31672,2.14745 0.61721,3.20044 -3.68268,4.23284 -3.10662,-0.55745 1.25499,2.33326 11.50067,4.91425 3.27123,3.11784 4.4027,-4.047 4.1148,1.34211 6.0486,13.33873 13.4963,12.49214 1.6048,3.59283 3.1478,0.86721 7.1596,-8.34187 4.197,5.10005 -0.1234,-3.90246 1.9956,-0.53686 1.7488,2.74622 0.2263,-3.59283 3.4769,1.50736 2.078,-1.32148 0.3497,2.04417 2.4071,1.44542 1.111,-1.52802 6.0075,4.58394 -2.1191,1.053 2.51,2.91138 -1.8516,7.47465 1.8928,4.23291 -1.2962,0.9498 -0.8846,5.96737 1.975,2.0854 -0.9052,1.67255 2.3865,1.81703 -1.975,4.29483 1.7693,1.94093 3.4975,-0.88787 3.6416,2.20937 0.7612,3.34496 3.5798,3.03534 1.6047,3.84049 0,0 -8.106,11.64558 -9.8959,21.39152 -4.7114,3.4483 0,0 -5.596,-1.9616 -6.419,2.0028 -6.3367,-2.106 -3.9295,0.764 -1.3579,-2.292 -1.2961,3.0352 0.4526,5.8642 -2.1191,4.5839 0.5349,4.1296 -6.2749,11.2327 2.2836,2.3537 -0.9052,2.7256 -4.4028,-4.9349 -4.1147,-0.3716 -6.0281,1.3627 -0.041,3.6135 -5.7195,-2.6224 -2.1397,2.23 -9.87532,0.5369 -3.18892,-3.5926 0.76123,-1.2803 -1.74876,-3.3038 2.55113,-4.6045 -2.38654,-0.6607 -3.06548,1.7551 -1.41958,-1.9823 -3.80612,-0.6195 -2.94204,2.5399 -1.27556,-1.7966 -1.91335,1.0119 -1.85163,-1.941 -3.45637,0.3717 -4.83481,5.224 -1.9545,5.3686 0,0 -3.68268,-7.3302 -4.32047,-3.9643 -0.28803,-3.056 -3.45637,-2.0236 0,0 3.47694,-2.0854 -2.61285,-2.8494 2.48941,-0.702 3.20949,-4.3776 -0.65836,-6.0085 3.33294,-3.407 -0.28804,-2.0648 7.13906,-3.056 -1.06983,-2.5397 1.91335,-1.7138 -0.0823,-2.93203 -1.255,-2.37453 -6.02808,-1.7551 -0.28803,-2.72555 -3.37408,-3.11791 -0.10286,-5.28594 -4.32047,-1.56924 -3.29179,-4.41872 -4.23817,-2.12671 -0.98753,-3.57221 -4.46448,-3.53083 1.4813,-2.22997 -2.77744,-6.62808 1.44015,-1.69317 -8.94954,-5.43047 1.50188,-4.17095 3.39465,-2.08547 0.12344,-1.67249 -12.20017,-7.94953 0.34975,-10.01439 -1.68704,-0.1446 0.45262,-2.43648 -4.23817,-2.62232 4.32047,-0.30976 0.24688,-4.4187 -2.09851,-1.07371 0.88466,-1.36277 9.85478,2.23 1.31672,-0.72269 -0.4732,-2.39518 6.0898,-2.66358 4.64965,-12.12051 z"
     title="Basilicata"
     id="IT-77"
     inkscape:connector-curvature="0" />
  <path
     d="m 962.84688,1044.3028 1.9545,-5.3686 4.83481,-5.2035 3.45637,-0.3715 1.85163,1.9203 1.91335,-1.0119 1.27556,1.7966 2.94204,-2.5399 3.8267,0.6195 1.41958,1.9823 3.06547,-1.7551 2.38654,0.6401 -2.55113,4.6046 1.74876,3.3037 -0.76122,1.28 3.18891,3.5929 9.87535,-0.5369 2.1397,-2.2299 5.7194,2.6017 0.041,-3.6135 6.0281,-1.3421 4.1147,0.3715 4.4028,4.9143 0.9052,-2.7256 -2.2631,-2.3538 6.275,-11.2326 -0.5555,-4.1502 2.1191,-4.5633 -0.4321,-5.8641 1.2962,-3.0146 1.3578,2.2713 3.9296,-0.7639 6.3572,2.106 6.419,-2.0029 5.5961,1.9616 0,0 -3.9296,5.0381 -0.6995,5.4306 2.798,11.9552 -9.4639,12.0379 -5.1434,9.5601 0.082,6.0293 4.1353,4.7904 -1.1315,7.1442 10.4514,6.2151 16.5412,0.248 9.7107,11.0052 9.6491,5.9262 7.139,1.8377 1.6048,4.2534 4.4028,4.2536 8.0648,2.7875 -4.8554,12.1411 -0.5143,7.6193 4.4645,6.5661 -4.0325,13.5245 2.9627,3.8818 -0.6378,1.9616 1.4813,2.3539 6.2955,2.9941 -4.4439,4.047 0.5143,5.7816 -7.8591,8.2592 -0.5555,-2.2715 -2.9009,-1.0528 -4.341,1.5691 -4.4028,-4.4806 -9.649,1.5279 -11.7681,4.3981 -18.002,11.1914 -7.5094,13.5246 2.366,4.2123 2.6952,28.2053 -0.9464,5.8227 -11.6241,12.1412 -14.8954,6.3183 -16.4589,20.896 -2.0779,13.9994 -5.22574,9.9732 -3.47695,4.336 -6.8716,1.115 -8.29118,-1.9408 -16.84982,1.59 -8.72323,-4.9765 -4.46448,-8.4037 2.20138,-3.1383 -2.61285,-6.9999 2.59228,-5.988 -2.30425,-6.9378 0.10287,-5.6163 8.43519,-3.4689 3.88842,-0.1238 5.30801,-3.0147 2.5717,-4.4807 0.94639,-6.566 2.36597,-2.1475 1.64589,-5.6575 3.02433,-2.7669 1.50188,-4.0058 1.54302,-10.0557 -10.94518,-9.8284 0.98753,-3.758 3.72383,-3.5516 8.68208,-2.8907 3.57982,-3.7785 5.06112,-0.6195 7.03619,2.1061 3.55928,-1.0324 4.9788,-3.9232 4.0736,-13.38 -0.5967,-10.572 -6.3572,-3.0971 -6.21327,-11.5217 -3.33293,-15.0112 -1.60475,-21.5981 -5.65775,-18.7279 -7.50938,-11.7695 -5.43145,-3.9024 -4.36161,-15.1765 -1.87221,-1.5485 -2.88031,-18.1498 -1.97507,-3.4896 2.36597,-4.0058 -4.01186,-8.4656 z"
     title="Calabria"
     id="IT-78"
     inkscape:connector-curvature="0" />
  <path
     d="m 801.61118,956.63058 4.1353,0.49552 -1.41958,1.89963 -6.02808,0.84656 0.26746,-3.3656 3.0449,0.12382 z m -37.67036,-27.81317 9.07298,2.47782 1.0904,1.58988 -1.41958,4.27421 -5.80177,0.0618 -0.63778,1.23897 -4.07358,-2.1475 -0.0823,-3.86119 1.85163,-3.63408 z m 11.52124,-98.42988 3.1272,1.58991 -0.57606,3.13854 4.23817,5.05881 4.42333,-0.99114 2.67458,1.77575 -0.55549,-4.99691 -2.81859,-3.44824 4.5262,-8.32117 4.71137,3.94375 0.80237,-2.84941 7.09791,0.12383 0.43205,1.75509 3.64154,0.0206 0.55548,2.1061 4.17646,2.25062 16.47949,4.83168 0.7818,3.28307 2.44826,1.879 6.8716,-1.07371 2.50999,3.63407 4.50563,-4.02638 2.16023,-0.12381 -0.0823,-1.94094 4.05301,-0.49561 1.93392,1.528 3.86785,-1.19763 3.53866,-5.96729 8.25004,3.51018 3.23006,-3.28307 5.45202,-0.45426 6.13095,-4.33609 0,0 3.72383,5.86408 5.88406,1.65185 0.3909,1.65184 -1.68704,1.61059 1.11098,2.47774 -2.18081,0.3717 -1.72818,2.41586 1.27556,5.40981 6.11038,2.18873 0.43204,4.48062 7.03619,-0.28904 2.13966,3.05589 3.33293,-0.66073 2.59228,2.95271 -3.31236,2.10607 1.74877,4.91432 -4.15588,2.47777 -1.66647,4.109 3.23007,1.58989 1.50187,3.90248 4.13531,2.97334 2.2631,-1.85829 5.82234,2.45713 3.49752,-2.66362 4.32047,3.71663 3.23006,-0.28903 7.40652,3.71668 0,0 2.81859,8.19732 -4.64965,12.12049 -6.0898,2.66362 0.47319,2.39517 -1.31671,0.72267 -9.85478,-2.25064 -0.90524,1.38347 2.09851,1.05303 -0.24688,4.43934 -4.32047,0.30973 4.23817,2.62233 -0.45262,2.41583 1.70762,0.14457 -0.34975,10.0144 12.20017,7.94953 -0.12344,1.67251 -3.41523,2.06482 -1.50187,4.17095 8.94953,5.43047 -1.41958,1.69317 2.77745,6.62808 -1.48131,2.22997 4.44391,3.53083 1.00811,3.57221 4.23817,2.1267 3.29179,4.41872 4.32046,1.56925 0.10287,5.28594 3.39465,3.11791 0.28803,2.72554 6.02808,1.75511 1.255,2.37453 0.0823,2.95271 -1.91335,1.71373 1.06983,2.5396 -7.13905,3.0355 0.28803,2.0647 -3.31236,3.407 0.65836,6.0086 -3.20949,4.3775 -2.46884,0.702 2.61285,2.8287 -3.49752,2.0856 0,0 -1.76933,-4.0471 -5.71948,-0.7846 -7.36537,1.9409 -8.72322,10.0557 -6.97447,-1.1769 -4.17645,-4.0885 -4.54678,1.1356 -0.3909,-1.3008 1.76934,-1.3419 -1.41959,-4.6048 -6.80988,-6.566 -3.0449,-0.4542 -5.16398,-6.2564 -9.62847,0.1237 -5.45202,-6.8139 -7.5711,-2.3538 -1.27557,-2.18873 4.07358,-3.09719 0.20574,-8.27992 5.36972,-3.09724 0.0206,-6.07061 -12.44706,-25.93411 -10.96576,-11.56297 -5.6166,0.8672 -2.79802,4.39807 -6.8716,-2.00286 -5.57546,4.95558 -4.83481,0.84655 -4.9994,-2.74622 -16.58236,7.99087 1.60475,-8.4658 6.50127,-1.30082 0.88467,-3.03524 7.36536,-5.07946 -2.22195,-6.5455 -6.37783,-2.02349 -7.28307,-8.03215 -5.67833,-3.79924 -5.45202,2.29189 -3.78555,4.91429 -3.02433,-0.45425 1.60475,-0.78465 -1.46073,-2.1061 -6.89218,-1.9822 -2.2631,1.6105 1.74876,5.5544 -4.62907,-1.56928 -0.0206,-9.33296 -2.30425,-8.11473 -5.45202,-8.73419 -0.12344,-0.30972 -4.95825,-5.36858 -2.88031,-9.97303 -7.32422,-12.01726 -6.563,-6.62809 0,0 1.13155,-2.72554 6.1721,-1.19759 1.02868,-1.58993 -1.33729,-0.49555 0.20574,-2.12676 6.39841,-2.29193 -2.11909,-9.22975 1.68704,-3.09723 -2.71572,-4.5839 4.42333,-0.76403 6.27497,-5.71956 1.399,0.0414 z"
     title="Campania"
     id="IT-72"
     inkscape:connector-curvature="0" />
  <path
     d="m 646.01265,470.59279 -2.40712,6.3803 0.4732,8.52775 -5.18456,2.04414 -1.11098,4.33609 -6.00751,-0.7433 0.3909,-2.14742 -1.64589,-0.6401 -1.41958,-5.18271 -5.59603,2.3333 0,-4.41876 -4.67022,-2.72552 0,0 2.32482,-3.22117 -0.65836,-7.74306 -7.61225,5.12077 -3.41522,0.0827 0.57606,7.43341 0,0 0,0 0,0 2.48941,4.58389 -3.33293,-0.0206 -0.69951,-1.69314 -4.09415,1.6312 -2.07794,7.16493 -5.34915,4.31547 -0.41147,4.48068 0,0 -0.0823,-0.0618 0,0 -3.37408,1.83771 -4.17645,-0.76396 -1.70761,4.06769 -3.18892,-4.76976 -2.9626,1.65185 -2.90089,-0.33039 0,0 -3.53867,1.85836 -2.28367,-2.62235 0,0 -1.89278,0.51623 -3.00375,-1.85835 -2.18081,0.86726 0,0 -3.3535,-2.16809 -0.43205,-2.00287 0,0 -2.77744,-0.37165 -1.06983,-2.6636 -9.58732,-0.4336 -4.11473,-4.97624 -7.36537,-4.12966 0.55549,-6.31831 -3.74441,-2.51909 0.67893,-3.36569 -4.46448,-4.29482 0.51434,-2.3745 1.37844,0.18573 -0.41148,-2.25069 3.45638,-1.32147 0.88467,-4.10897 4.17645,-4.52195 0.6995,-5.55441 -11.25379,2.27131 -5.45201,-0.74332 2.98318,-4.3361 -0.3909,-2.14745 -5.34915,-1.09436 -2.11909,2.06481 -2.46884,-0.53682 -3.55924,-4.0677 -2.85974,-0.78465 -0.6995,-4.41868 -2.7363,-2.47778 -5.06112,4.93492 -5.12283,0.53683 -0.41148,2.20936 -4.69079,4.27417 -8.20889,0.28913 -0.22631,1.94088 6.02808,3.51018 0.51434,2.23005 -5.2257,0.33038 -6.35726,-1.83771 -6.8716,2.99398 -5.67833,-0.66075 -3.18891,-2.3745 1.27556,-2.14744 -0.82294,-1.87899 -9.9988,11.27389 -1.35786,-0.61942 0.65836,-1.96158 -1.39901,-1.87896 -4.69079,-1.03246 -10.22511,-8.32119 -11.45952,-0.26844 -2.05737,2.53976 0.14402,2.78749 -3.4358,0.86724 -7.03619,-6.29768 -0.49377,-3.2005 -3.57981,-3.30372 0.10287,-2.84941 -2.50999,-1.38347 -3.4358,0.59882 -6.06923,-6.27704 -3.29178,-0.0618 -4.50563,-2.53969 -4.89653,2.45709 -11.58297,-12.28566 -5.01997,1.05306 -8.80552,-6.07057 -2.32482,-2.60164 1.11098,-5.40987 -2.16024,-0.43356 -1.02868,-2.5604 -4.9994,-1.79641 -11.0069,1.21824 -7.01562,11.08809 -7.40651,4.31547 0,0 -2.92146,-6.85518 -5.55489,-4.10902 -2.16023,1.34216 -2.90088,-1.79644 -0.72008,1.98225 -5.71948,0.55749 -1.93392,2.33326 -0.53491,-2.41581 -3.39466,0.80527 3.16835,-9.31238 2.71572,-0.43359 0.98753,-7.06168 -1.76933,-4.31545 -6.64529,-2.29197 -1.62532,-3.57212 -5.01997,3.69601 -6.4807,-5.26526 -0.90524,2.16801 -4.32047,-0.72263 0.69951,-1.73447 -1.21385,-1.30086 -4.64964,0.90851 0,0 -0.0617,-10.48923 1.00811,0.39231 0,0 3.60039,-0.22712 -0.65835,-4.17095 2.69514,5.18269 6.64529,-1.75508 -1.46073,-2.87011 1.83106,-2.14742 -0.30861,-2.51904 -3.57981,-1.92036 -0.61721,-2.27125 7.92086,-8.01151 -2.20139,-6.71065 -1.99564,-1.69315 -1.50188,0.82592 -3.60039,-3.32439 2.57171,-3.38628 -1.23442,-2.10611 3.41523,-0.86725 2.81859,-8.36248 3.37408,-3.61347 -0.24689,-4.50126 4.2176,-3.79929 -0.22631,-1.38341 2.53056,0.37167 0.65836,-1.67251 5.84291,-1.48669 3.23007,3.84055 2.32482,-2.12672 -1.29614,-5.63696 1.50188,-0.24781 3.29178,4.41877 2.63343,-1.11507 1.33729,-3.94376 1.89277,2.58097 -0.3086,5.1621 8.59978,3.69598 3.33293,-2.93202 1.02869,-2.08544 -1.54303,-2.25069 1.78991,-0.55752 1.70761,3.17984 3.80613,1.96159 0.76122,3.8406 1.91335,-6.62808 2.05737,0.0618 2.07794,3.05594 1.81048,-0.80522 0.41147,-2.39523 -2.32482,-3.28311 3.70326,-3.01461 1.50187,1.25956 -0.78179,4.52192 5.92521,-4.56322 1.83105,0.18572 3.86785,5.05879 -0.90524,3.07654 3.12719,2.53977 0.14402,2.51904 3.06547,-0.72264 1.64589,3.59275 6.85103,-3.22113 1.0904,1.92034 4.56735,-0.12382 6.1721,4.89367 3.29178,0.0827 5.82235,4.6871 5.04054,-2.76687 3.02433,6.0293 9.40216,4.60456 8.10602,-0.35107 2.98318,-1.7344 5.88406,-8.50709 0.92581,3.34505 3.70326,-4.27421 1.99565,6.44226 9.07298,1.48666 1.54302,1.63122 1.81048,-0.33037 0.16459,1.54859 2.75687,-0.35098 -0.41147,1.19759 3.00375,-1.85836 2.77744,0.45427 0.4732,-2.37459 4.77308,-2.45708 6.41898,0.53686 1.91335,-1.63124 5.45202,1.3215 2.50998,3.20044 1.13156,-1.34212 8.00315,-0.64012 0.74065,-1.36274 3.0449,2.16801 3.4358,-3.283 12.81738,1.89963 0,0 0.32918,3.07656 11.72698,-0.76397 4.32047,2.91133 0.88467,3.34508 1.46073,0.51618 2.55113,-0.24777 4.15588,-3.92319 6.56299,-1.83766 1.52245,-4.58389 6.00751,-2.80816 12.89968,0.16516 4.54677,-1.61054 13.78435,2.20936 4.71137,6.35963 3.0449,-2.0029 1.66646,2.1681 4.42334,0.35099 3.00375,-2.6636 2.22195,-0.0206 1.70762,2.22996 -1.29614,2.56036 0.67893,5.96733 1.31671,1.96156 4.09416,1.05309 1.23442,4.50126 0,0 -1.33729,0.35108 -2.44826,-3.7993 -2.44827,-0.74334 -3.55924,4.70779 2.59228,-1.03236 -3.41523,9.02323 -1.21384,10.2828 0.98753,6.83455 4.03244,7.90827 -0.22631,18.25298 3.64153,9.82854 0.43205,6.9997 4.2176,14.76345 3.62096,7.28882 13.80492,16.14694 5.18456,3.48954 12.28247,13.27677 5.74005,2.10609 z m -60.52768,23.35312 -0.55549,2.33323 2.81859,3.28308 4.48506,-2.31261 -0.61721,-2.27126 0,0 -0.43205,-0.97045 -5.6989,-0.0618 z"
     title="Emilia-Romagna"
     id="IT-45"
     inkscape:connector-curvature="0" />
  <path
     d="m 650.80631,70.224412 3.97072,1.321482 0,2.95269 1.44015,0.763984 8.45577,-0.619445 12.6528,2.457133 3.99129,-1.115 8.57921,2.106113 7.52996,5.698898 3.49752,-1.466018 5.24628,1.466018 2.42769,-2.642968 2.73629,0.309726 0.22631,-1.878986 3.78556,1.073706 -0.20574,1.651856 1.97507,0.640091 8.02372,-1.445372 1.58418,2.97334 4.54677,-0.681393 1.23442,2.106115 4.93768,-0.598793 10.24568,3.241764 -3.08605,12.595407 -3.909,-1.342147 -6.0075,1.527967 -2.81859,5.88473 -10.03994,5.69892 -3.23007,0.14452 0.0412,5.51307 -6.91275,4.29481 5.0817,9.43622 -1.19328,3.53086 3.76498,-0.37167 -0.14401,-1.89964 3.72383,0.1239 2.03679,1.46601 2.94203,-0.49556 3.27121,2.16807 1.31671,3.05592 6.58357,-1.03241 2.92146,1.67251 -2.11908,6.64872 -7.3448,7.12361 -7.75626,4.93493 0.6172,4.68714 -3.23006,3.32436 6.27497,5.88472 3.37407,-0.47489 2.7363,-3.07659 5.308,0.70204 -0.57606,7.18557 -6.46013,12.5128 2.13966,6.73132 2.7363,1.83769 4.89653,-0.78464 8.18831,6.95844 5.18456,1.38352 7.40652,12.98765 5.74004,4.19158 -8.47634,7.59851 -4.44391,0.28911 -5.08169,-2.68424 -3.08605,0.764 -0.18516,-1.92032 1.60474,-0.86724 5.57546,1.7551 2.48941,-1.98221 -2.94203,0.10324 -0.94639,-3.2211 -2.07793,0.45424 -1.21385,-1.36276 2.53056,-1.94095 -1.4813,-4.25355 -12.6528,-13.60718 -5.14341,-1.50731 -2.32482,0.76396 -1.15213,-1.65185 -2.81859,3.05594 -0.3909,3.42764 3.62096,2.93207 -6.91274,3.34496 -1.64589,-0.55747 -4.36162,4.25354 -4.97882,0.47492 -10.55429,-5.69892 -3.78555,-0.61943 -0.63778,0 -0.18516,-0.14458 -8.70266,2.31257 -5.92521,9.12653 0,0 -2.20138,-1.23889 0.24688,-1.25957 -2.01621,0.24782 0.34975,-2.72555 -2.07794,-1.65188 0.76122,-1.65184 -1.62531,-0.41298 -1.1727,-5.51308 -1.99565,1.46602 0.72008,-2.41579 -1.33729,-2.68435 1.00811,-0.53684 -4.17645,-3.98511 2.24253,-1.32148 -1.68704,-0.70203 0.37033,-1.69316 -0.80238,-0.76398 0.0823,-0.6401 -1.19327,-3.26242 -1.21385,0.49556 0.92582,2.93203 -3.18892,1.03242 -1.00811,-2.25064 -3.12719,1.94091 -2.57171,-2.35389 0.82294,-2.2713 -1.31671,-0.14453 -4.46448,2.25066 -1.13155,2.14741 -1.29614,-1.50732 0.88467,-2.06482 -2.32483,-1.73445 -4.07358,4.33612 -1.37844,-1.38342 -7.98257,7.41268 -0.10287,-3.34499 -2.30425,-1.07372 -0.24688,-1.83767 -2.55114,-1.36278 -1.399,3.32436 -4.11473,-2.16806 0.45262,-2.47779 -2.85974,-2.60167 -2.59228,-9.35362 -3.0449,-0.0207 -2.13966,-3.11787 -2.94203,-0.0825 -0.0412,-7.16492 -1.46073,-5.36853 -1.89278,-1.65185 3.64154,-5.80214 5.96636,-4.04705 0.92581,-7.39204 -4.97882,-4.02641 -0.61721,-4.39806 -3.76498,0.20648 -0.53491,-3.26241 -4.27932,0.0413 -4.36162,-5.88475 3.70326,-3.88186 -0.0823,-4.10899 2.13966,-1.73444 3.92956,0.5575 0.67893,-4.17093 3.76498,-1.92029 -0.37032,-1.2389 1.23442,0.55751 -0.65836,-2.84945 4.11473,-3.63408 0.57606,-3.61343 3.0449,-4.212235 0.84352,0.887879 3.23006,-2.581026 3.80613,1.631207 2.13966,-1.631207 3.7444,1.610558 -0.80237,-3.592785 -2.53056,-1.651854 0.24689,-1.940928 7.11848,-4.50131 5.24628,-0.123881 -1.81048,-2.395195 1.44016,-4.687135 -1.99565,-3.4276 0.3909,-3.716678 0,0 3.39465,-1.87898 3.60039,1.342134 z"
     title="Friuli-Venezia Giulia"
     id="IT-36"
     inkscape:connector-curvature="0" />
  <path
     d="m 668.76711,907.1988 -0.51434,2.72555 1.1727,0.39231 -2.05737,2.37456 -0.37032,-5.8228 4.60849,-2.08549 -2.83916,2.41587 z m 106.18061,-81.22998 2.07794,1.7551 -1.5636,2.68425 -1.54302,-0.0618 -6.25439,5.71957 -4.42333,0.76402 2.71572,4.5839 -1.66647,3.09723 2.11909,9.22976 -6.39841,2.31261 -0.20573,2.12671 1.33728,0.4956 -1.02868,1.58988 -6.17209,1.19761 -1.13156,2.7256 -5.78119,-4.17095 -2.50999,1.23887 -5.78119,-2.37458 -6.06923,3.42766 0.22631,3.01461 1.85163,1.23888 -4.19703,0.1446 -18.39284,-10.75768 -8.92896,-2.14741 -3.37408,2.06482 -4.77309,-0.24778 -6.00751,1.92028 -6.80988,6.50414 -4.95825,-0.39226 -6.02808,-13.89624 -7.52995,-8.03214 -7.40652,-4.10903 -6.93332,-0.70204 -1.66646,1.30087 -9.9165,-6.66939 -3.49752,0.5782 -0.28803,1.46597 -1.78991,-0.76395 -6.83045,-12.09986 -14.56615,-17.44769 -7.5711,-6.44225 -12.77624,-5.84347 -1.91335,-12.18237 -6.43955,-11.87273 -9.93708,-5.84345 -2.67457,-4.00569 -5.26686,-2.02361 -1.17269,-2.49844 -4.81424,-3.05585 -8.78495,1.30084 -3.4358,-8.03217 -6.25439,-8.27995 -0.37032,-3.88187 -4.36162,-8.81679 -4.62907,-6.52481 -11.19206,-9.14714 -10.55429,-5.0588 3.8267,-8.56904 13.99008,-0.16516 -0.18516,-7.08232 -5.74005,-3.94381 2.81859,-4.00578 -0.92581,-3.63409 1.27556,-0.68138 2.3454,2.16806 1.37844,-1.8377 1.66646,0.47494 3.57982,-1.81704 0.43204,-2.23001 3.08605,-2.29194 2.654,0.51621 1.8722,-4.41869 2.81859,0.39225 2.88032,-1.8996 -0.16459,-2.22999 -2.16024,-0.99111 -0.84352,-5.40983 2.53056,0.0206 2.13966,-4.87294 -7.77684,-6.1119 2.38655,-5.03816 2.48941,0.97047 1.44015,2.72559 1.04926,-4.15033 3.3535,-2.20936 5.10227,0.28915 3.33293,8.03212 5.71948,3.71663 -2.07794,4.08838 -3.80613,2.14739 2.654,4.35683 8.5175,5.2859 7.5711,-2.70494 2.07794,2.20934 0.24688,-1.54859 1.37844,0.45427 2.83916,-2.45712 3.35351,1.40407 3.43579,4.25349 1.13156,9.22975 3.4358,1.6106 -0.43205,4.04701 2.13966,1.75508 -1.54303,1.38346 3.1272,1.65184 -1.41958,0.94982 3.84727,-0.43363 2.53056,2.60167 4.11473,-3.34496 3.02433,0.33036 -0.51434,3.84059 1.52245,1.40403 -1.39901,0.47495 -0.0206,4.25348 4.71137,1.65185 -1.99564,2.93208 7.4888,-1.07374 -0.10286,3.46895 1.7899,2.06477 8.9084,-6.93781 0.45262,-8.01145 2.44826,-0.16515 1.83105,3.84057 2.48942,-0.10326 6.15152,-4.0677 -2.81859,-4.2122 6.29554,-1.81708 0.34975,-2.74622 4.2176,0.20652 3.80612,-3.36563 4.29989,-1.38346 -1.27556,-5.26531 1.19327,-2.41578 4.15588,2.04413 1.64589,-2.00285 6.68644,0.0824 1.46073,-3.15918 4.23817,2.22995 5.76062,-3.55144 0.10287,-1.6106 3.33293,1.3215 2.7363,-2.64296 1.54302,-9.18844 6.74816,1.63124 1.11097,-2.41585 2.24253,-0.20646 7.57111,6.52477 -1.11098,3.48957 2.36597,2.80813 4.09416,1.30084 -1.5636,7.10301 -2.77745,2.41582 -4.64964,-0.66073 -3.08605,1.5899 -1.19327,-2.00287 -2.77744,-0.0206 -1.255,1.50726 -5.65775,-2.12673 -1.5636,5.69889 -2.11908,1.17691 2.05736,3.84056 0.20574,4.91432 -6.54242,4.99683 8.20888,7.72244 -4.29989,4.83166 7.69455,5.10011 1.33728,6.79325 5.30801,5.24466 4.97882,1.71379 0.61721,3.36569 3.99129,2.51907 -3.76498,0.68138 1.06983,1.44535 -3.06547,0.59878 -2.20139,4.60452 -3.47694,-1.28013 -2.55114,1.58989 -13.49631,-7.28877 -3.55924,0.26841 -0.10287,4.95554 -4.27932,3.67544 -1.58417,-0.74339 -0.30861,10.15893 2.88032,4.6458 4.9171,1.3215 0.0412,-2.56036 4.17645,1.48664 15.73884,9.27109 1.83105,-0.76399 4.07359,4.70777 2.09851,-0.3923 2.05737,2.91138 -2.63343,4.72841 2.05736,7.4953 2.88031,-2.80811 3.55925,1.44534 3.0449,2.95274 3.78555,0.88783 1.52245,3.73734 3.0449,1.92026 8.33233,-2.80812 2.20138,-4.31552 3.64153,1.01184 2.20139,2.43642 2.73629,-1.50731 3.60039,6.83454 2.7363,0.82596 2.09851,-1.36282 4.93767,2.93209 4.03244,-0.39234 5.14341,6.75199 4.09416,3.55147 2.88031,7.41267 0.20574,2.82883 -1.39901,1.32148 2.81859,3.11786 -0.45262,1.9616 -1.74876,0.37165 2.50998,2.18871 -6.02808,4.1503 z m -159.7544,-57.58783 -0.0823,-0.16516 0.0206,-0.3717 -0.22631,-0.22713 -0.18516,0.0618 -0.34975,0.0824 -0.32918,0.53685 -0.0617,0.12381 0.14401,0.16517 0.12344,-0.0413 0.53492,0.12382 0.41147,-0.16517 0,-0.12382 z"
     title="Lazio"
     id="IT-62"
     inkscape:connector-curvature="0" />
  <path
     d="m 340.49393,459.07118 -0.82295,2.04411 -1.27556,-2.04411 2.09851,0 z m -225.96041,-2.41587 1.62532,0.55749 3.18891,-3.44822 -2.69515,0.0413 -1.8722,-2.97334 0.96696,-3.17981 3.99129,-2.20934 18.51629,5.94666 3.37408,-1.79638 4.03243,1.42475 0.90524,-1.50735 -1.15212,-1.79638 -2.69515,-1.25958 3.78555,-3.1385 3.14777,2.10613 2.92146,-1.01177 2.42769,-3.17982 -0.10287,-4.00577 -3.00375,-2.64299 1.50187,-3.51015 -1.76933,-2.2713 2.57171,-2.53973 -2.61286,-2.70494 0,-2.06479 0.88467,-1.11505 3.00375,1.34218 0.61721,-4.48068 2.654,0.33038 2.01622,-3.32435 -0.49377,-4.10897 6.563,-3.63408 1.54302,-3.98514 -2.81859,-6.77259 2.83917,-0.9292 -0.0823,-3.9231 3.18892,-2.56036 2.01622,3.15912 3.80612,0.39235 6.33669,5.38919 2.69514,-1.46606 1.15213,-4.54263 1.66646,-0.7846 3.02433,2.16809 2.3454,-3.53086 0.72007,1.77576 6.58357,-0.24779 2.05737,1.54859 5.63718,-6.25639 -1.62532,-1.87899 2.53056,-3.98509 7.32422,0.41293 3.33293,0.49558 3.68268,6.07058 -0.61721,1.85833 1.76934,-0.0824 0.7818,4.54255 2.61285,-0.94978 -0.74065,-3.05593 3.57981,-3.01462 -0.0411,-3.03531 4.69079,-0.59877 1.81048,2.43646 2.96261,-1.58991 -0.61721,-7.68111 -2.96261,-3.22116 3.20949,-2.60162 1.31672,-3.4276 3.31235,-0.49561 1.48131,2.10614 4.69079,-0.51619 3.29178,7.08233 2.96261,-0.59883 3.00375,1.7551 -0.10287,3.05593 3.35351,2.49847 7.24192,-3.01469 -0.12344,-3.0146 0,0 4.64965,-0.90851 1.23442,1.30084 -0.69951,1.73442 4.32047,0.72272 0.90524,-2.16808 6.4807,5.26528 5.01997,-3.69603 1.62532,3.57217 6.64529,2.29193 1.76933,4.31548 -0.98753,7.06169 -2.71572,0.43359 -3.16835,9.31231 3.39466,-0.80524 0.53491,2.41582 1.93392,-2.33321 5.71948,-0.55752 0.72008,-1.98223 2.92145,1.79637 2.16024,-1.3421 5.55488,4.10893 2.92146,6.8552 0,0 2.71572,-0.39226 2.07794,5.3272 8.29118,6.46294 5.32858,2.18866 0.18516,5.30658 1.66647,1.44537 -0.88467,5.63695 4.27932,-3.61343 3.02433,2.10616 -1.54303,0.12383 -2.55113,4.08828 8.08545,-0.26842 0.41147,4.87302 1.93392,2.87007 -1.00811,2.53976 3.66211,-3.09722 4.87596,3.03522 -0.55549,2.84949 -4.56735,5.26526 0,0 -3.25064,-0.55745 -2.44826,1.79634 -6.06923,-4.54259 0.10287,-1.89967 -2.77744,-0.0206 -4.09416,-4.12963 -2.654,1.63124 2.67457,3.34497 -0.49376,1.21823 1.54302,-0.26838 -2.16023,2.89072 -9.79306,-6.42156 -3.909,-5.0795 -5.01997,-2.64295 -2.30424,1.69316 -2.77745,-5.28596 -4.19702,-1.85834 -1.87221,-3.48953 -4.36161,-1.65186 -1.91335,-2.93203 -4.85538,-0.16515 -2.88031,-2.99398 -1.35786,0.9705 -3.33293,-5.76085 -14.46328,-8.17674 -2.24253,2.14747 0.24688,4.97621 -7.4888,-3.48958 1.06983,-3.67536 -1.41959,-1.98223 -21.95208,-5.57503 -1.33729,-2.18865 -1.21384,0.9085 0.84351,1.3834 -9.34043,-2.53971 2.40711,-0.43363 -1.89277,-0.764 -4.89653,-0.22713 0.55549,1.07376 -4.23817,-0.99112 -4.25875,1.65187 -3.14777,3.03528 -3.76498,0.72264 -3.02432,3.17985 -12.22075,6.23577 -1.58417,2.08549 1.44015,-0.2891 -6.17209,5.67821 1.56359,2.08548 -3.95014,5.26529 0.7818,4.21222 -16.45892,8.25927 -4.09416,7.14429 -0.55548,6.89653 -6.46013,7.28879 -0.45262,2.91139 1.52245,2.80816 -8.8261,5.96731 -1.8722,3.44823 -4.75251,1.03246 -8.64094,5.67822 -9.1347,1.85833 -2.9626,2.49845 -3.16835,-0.94984 -6.85102,4.04711 -3.72383,-0.61949 -3.14777,3.28304 -9.64904,-2.20934 -2.551137,2.08548 -2.098512,-0.45427 -4.423335,-10.67512 0.185163,-3.1798 1.543023,-1.94094 5.040545,-1.54863 0.781799,-6.54546 8.990684,-4.72845 1.62532,-3.61344 -0.51434,-4.37734 4.46448,-1.92035 0.59664,-3.5721 z"
     title="Liguria"
     id="IT-42"
     inkscape:connector-curvature="0" />
  <path
     d="m 382.23787,73.053214 1.06983,1.197589 -1.8722,2.973343 0.53491,2.312597 4.25875,0.784632 0.98753,3.200468 4.6085,1.218241 1.35786,-2.085465 4.58792,1.817041 2.26311,-0.991114 3.92956,3.055929 0,0 2.36597,5.575016 7.75627,0.619447 5.43144,3.654723 2.11909,2.808158 -0.47319,4.521961 1.72818,2.87009 -3.06547,3.22112 -4.05301,0.22712 -5.308,5.2653 5.43144,2.62232 1.23442,4.17092 -1.83105,2.62234 1.66646,0.97047 1.06983,4.41869 -4.69079,8.58966 2.20138,3.28305 -1.93392,9.14715 -6.85103,8.40382 0.74065,3.92315 -2.44826,1.94093 -1.1727,3.77862 0.10287,2.06482 3.57981,0.66074 -0.32918,4.19158 2.67458,4.10899 -1.8722,4.33612 1.06983,8.89937 4.62907,1.96159 -1.46073,2.8288 0.86409,1.79639 2.71572,0.26842 4.40277,-2.7462 4.07358,-0.14454 0.96696,-4.43936 8.25003,-1.67251 2.61286,2.02352 0.80237,-1.77573 8.16774,1.58991 0,0 -22.81618,34.06949 2.32482,24.26163 -0.82294,4.08831 1.72818,0.37173 1.44016,-1.67248 5.06112,2.33321 -1.97507,5.30656 1.97507,1.54864 -2.67458,2.02348 2.05737,3.0766 -1.39901,3.94378 3.06547,0.80527 1.04926,2.04422 4.95825,-4.12967 4.03244,3.98514 2.30424,4.85231 5.43145,1.21826 0.22631,1.404 3.76498,0.99114 -0.20574,2.68431 5.90464,2.68425 1.64589,2.5191 -0.7818,3.5308 3.31236,-0.66074 1.78991,1.13565 -1.97507,3.88189 4.77308,4.02637 2.46884,0.45428 0.49377,-2.62237 2.79802,1.50735 1.91335,-3.46886 6.17209,2.31261 -2.61285,2.10609 0.84352,2.08546 -1.21385,3.34498 6.43955,2.39523 2.94204,-1.7551 0.0206,5.07945 16.41777,8.8374 0.4732,2.12682 0,0 -12.81739,-1.89965 -3.4358,3.28304 -3.0449,-2.16807 -0.74065,1.36283 -8.00315,0.6401 -1.13155,1.34212 -2.50999,-3.17984 -5.45201,-1.32147 -1.91335,1.6312 -6.41898,-0.53687 -4.77309,2.45714 -0.47319,2.39521 -2.77745,-0.45428 -3.00375,1.85833 0.41147,-1.1976 -2.75686,0.35103 -0.16459,-1.54861 -1.81049,0.33036 -1.54302,-1.63122 -9.07298,-1.46599 -1.99564,-6.44227 -3.70326,4.27417 -0.92582,-3.345 -5.86349,8.50706 -2.98318,1.73448 -8.10601,0.351 -9.40216,-4.60458 -3.02433,-6.02927 -5.04054,2.76686 -5.82235,-4.68712 -3.29178,-0.0824 -6.1721,-4.89359 -4.56735,0.14459 -1.0904,-1.89961 -6.85103,3.22109 -1.62532,-3.57209 -3.06547,0.72263 -0.14401,-2.51909 -3.1272,-2.53969 0.90524,-3.0766 -3.86785,-5.05881 -1.83105,-0.18574 -5.92521,4.58387 0.7818,-4.52194 -1.50188,-1.25952 -3.70326,3.01459 2.32483,3.2831 -0.3909,2.3952 -1.81049,0.80526 -2.07793,-3.05594 -2.05737,-0.0618 -1.91335,6.62804 -0.76122,-3.84058 -3.80613,-1.96159 -1.68704,-3.1798 -1.78991,0.55747 1.54303,2.2507 -1.02869,2.08548 -3.33293,2.932 -8.59978,-3.69599 0.3086,-5.16209 -1.89277,-2.58095 -1.33729,3.94376 -2.63343,1.11503 -3.29178,-4.41877 -1.50188,0.24783 1.29614,5.63696 -2.32482,2.1267 -3.23007,-3.84053 -5.82234,1.48667 -0.65836,1.67251 -2.53055,-0.37167 0.22631,1.38343 -4.19703,3.79929 0.24688,4.50124 -3.3535,3.61346 -2.81859,8.36251 -3.41523,0.86725 1.23442,2.10611 -2.5717,3.3863 3.60038,3.32437 1.50188,-0.8259 1.99565,1.69311 2.20138,6.71069 -7.92086,8.01151 0.61721,2.27125 3.57982,1.9203 0.3086,2.51903 -1.83106,2.14747 1.46073,2.89071 -6.64529,1.77573 -2.69514,-5.18267 0.65835,4.17094 -3.60039,0.22711 0,0 -0.76122,-5.88467 1.29614,-4.12969 -4.67022,-3.46885 -0.96696,-6.04994 -5.59603,1.54862 -0.92582,-1.61058 -3.00375,-0.24778 0.24688,-1.94095 -2.38654,-2.41578 1.93392,-2.08548 -1.50187,-4.08835 -2.09852,0.24779 -3.45637,-3.07657 -3.18892,-5.26533 0.49377,-3.57209 -1.50188,-2.6637 -0.96696,-0.90848 -2.71572,1.28023 -2.654,-3.61348 -0.59664,-6.60742 -5.98693,0.47491 -3.33293,3.32441 -3.37408,0.37163 -0.51434,2.12674 -2.63343,-0.351 -0.34975,-2.06482 -2.30425,0.33036 -0.80237,-2.39514 -0.94639,3.63407 -6.83045,-3.96445 -0.59664,-7.26817 -2.92146,-2.68431 0.72008,-2.68423 -2.30425,-0.6401 -1.21384,-3.07658 -2.94203,-0.88789 -1.13155,-2.0235 3.68268,-5.30656 -4.46448,1.98221 -1.02869,-0.80533 2.44827,-0.88784 -2.57171,-2.41586 1.93393,-1.7551 -1.1727,-0.84653 2.59228,-0.33038 -3.31236,-1.09435 -0.0411,-1.01176 1.99565,0.26843 -0.63779,-3.65473 -4.1353,-2.14744 1.50188,-3.0766 2.77744,-0.9498 -1.23442,-3.69603 3.08605,-2.84947 2.42769,2.06484 5.71947,-0.22713 0,1.87899 2.32483,1.52801 1.0081,5.26526 3.02433,-0.22712 2.2631,-1.21823 1.15213,-4.33614 3.86784,-2.47775 -4.46448,-4.79043 3.10662,0.57818 2.40712,-1.65186 3.23006,0.90852 4.38219,-2.23 -1.91335,-5.76089 -1.83105,0.12381 -2.36597,-8.05277 -7.22136,-3.73731 -2.654,-10.15894 0.90524,-3.53082 -3.97071,-3.38631 -0.65836,-2.60162 3.1272,0.64011 -1.66647,-3.79931 0.76123,-2.06485 -4.17645,-0.8259 1.13155,-5.49244 -6.27497,-1.87895 -4.15587,-7.8876 0.12344,-3.07659 4.27932,-4.85232 -2.63343,-10.22086 16.56179,-18.08781 -2.07794,-9.39493 1.29614,-3.32436 0,0 2.48941,-2.7462 1.74876,2.89074 2.59228,1.34213 2.50999,-1.07369 4.85538,3.98509 0.0617,2.29194 -2.16023,1.30084 -5.10227,9.16781 4.83481,0.0618 3.99129,4.21222 2.92146,0.68138 0.0823,3.46891 5.08169,10.07632 -3.60039,5.43047 4.77309,-1.79639 4.32047,1.61057 -0.69951,2.06481 4.79366,0.16515 1.52245,-7.55722 4.19703,-4.48066 -1.52245,-0.20649 -1.68704,-3.30371 -4.23817,-1.11499 -0.53492,-4.6665 -2.50998,-1.44537 3.88842,-3.57214 -2.32483,-6.75196 1.11098,-2.14741 6.23382,-2.25066 1.23442,-3.36565 -1.62532,-4.99685 4.97882,-2.45714 4.40276,-5.03815 2.18081,-0.14451 4.17645,-9.68401 3.00376,-0.30974 0.34975,-4.9349 4.81423,-9.02326 -0.22631,-4.23288 -2.22195,-2.49843 0.55549,-6.66937 -3.41523,-4.29481 2.75687,-2.353901 0.37032,-5.967331 9.05241,-2.044166 1.27557,3.696023 3.86784,2.704916 2.59228,-4.955568 2.98318,-1.466019 -0.49376,3.014633 -1.41959,0.536852 2.01622,1.218247 -0.24688,15.795864 3.88842,1.30084 2.05736,6.2151 3.1272,3.75797 0.94639,-0.78464 7.962,3.22114 4.40276,-2.49844 3.70326,1.56926 2.90088,-8.83743 4.34104,2.27129 13.61976,-6.97907 1.97507,2.27129 2.85974,-2.0648 4.64964,4.23286 -1.58417,4.43937 2.13966,1.38342 -0.24688,4.52196 6.0075,3.07657 -1.0904,5.28595 2.50999,1.75509 2.2631,-1.58991 3.3535,0.59879 5.67833,-4.87297 -2.24253,-5.40981 -5.26685,-6.17383 0.26746,-3.09721 2.22195,-1.42473 1.06983,-3.65473 2.44826,-0.49556 0.43205,-3.13852 -1.85163,-0.41297 -0.74065,-2.56036 -6.41898,1.13563 -4.32046,-3.572132 1.44015,-3.117872 -1.1727,-2.168061 1.255,-6.215102 -1.04926,-3.076585 5.92521,-6.421581 0.20574,-4.48066 2.90088,0.784628 6.23382,-3.200462 2.69515,1.321483 2.53056,-2.560379 0.96696,2.395193 z"
     title="Lombardia"
     id="IT-25"
     inkscape:connector-curvature="0" />
  <path
     d="m 738.40892,531.95923 -5.6989,-3.32438 -2.42769,-4.79033 -4.27932,-3.57216 -1.72819,3.13856 -4.23817,-0.51622 -15.55368,-8.6929 -42.15541,-37.10483 -11.29494,-5.98792 -4.9994,-0.49561 0,0 -2.40711,6.38027 0.47319,8.52775 -5.18456,2.04415 -1.11098,4.33615 -6.0075,-0.74333 0.3909,-2.14744 -1.64589,-0.64005 -1.41959,-5.18271 -5.59603,2.33323 0,-4.41869 -4.67022,-2.72558 0,0 -0.82294,2.78749 -7.85914,-0.88787 0,0 -0.0823,-0.2065 0,0 2.48941,4.58392 -3.33293,-0.0206 -0.69951,-1.69315 -4.09415,1.63118 -2.07794,7.16493 -5.34915,4.31548 -0.41148,4.48064 0,0 0.26746,0.20651 0,0 4.42334,1.77574 4.71136,6.35965 -4.32046,0.0414 0.61721,4.50132 -1.89278,-0.12383 -1.25499,-7.68118 -0.90524,6.44228 -2.53056,1.36277 -3.00376,-0.57816 0.41148,1.6725 -1.93393,2.16807 -4.75251,1.71378 2.98318,4.60456 0,0 1.46073,2.41585 6.35726,-0.0826 0.72008,1.15634 4.27931,-3.46895 3.86785,-0.24775 -1.04926,1.61052 0.98754,2.97332 -6.00751,5.57505 2.79802,2.93205 2.94203,-1.50733 2.61286,3.5721 2.92145,-4.31545 2.0368,0.26848 1.70761,2.932 1.89278,0.10324 0.59663,-1.77572 1.8722,0.86725 13.08485,15.05253 4.38218,-2.66366 4.58793,1.69321 2.71572,-5.55439 4.27932,1.15632 -0.76123,4.15029 1.85163,1.73441 -3.70325,3.48956 0.10286,1.73447 4.67022,6.11182 0.7818,6.00866 -1.27557,1.44535 3.86785,2.76689 1.37844,7.06167 2.85973,1.42472 -0.28803,5.98796 -3.33293,3.20044 1.37844,3.17983 4.25874,0.86721 1.1727,3.53087 -0.49377,5.71954 1.54303,4.35678 -1.78991,1.36277 1.93392,4.0264 -1.15212,3.07658 5.53431,3.32439 0.41147,1.79637 2.28368,0.2684 0.24688,8.34189 2.48941,-2.80814 0.0412,-3.53082 2.67457,1.58989 2.88032,-2.8701 6.19267,4.74906 5.14341,8.13541 5.49316,-1.25957 2.57171,-3.75796 2.90088,7.47465 -0.51434,3.75793 -1.89277,3.92321 -0.7818,-1.58996 -3.95014,1.61061 -0.51434,4.12966 0,0 6.74815,1.63117 1.11098,-2.41585 2.24253,-0.20643 7.5711,6.52478 0,0 3.4358,1.01178 3.86785,-2.74621 1.15212,0.94983 1.23442,-4.9143 4.87596,-0.80523 0.61721,-5.14145 2.73629,-3.05593 0.51434,-2.99397 4.27932,2.35387 4.85538,-2.29192 1.37844,1.96153 2.77744,-0.35101 4.13531,-1.9409 0.94638,-4.56327 1.39901,-0.78462 5.71948,-0.3923 4.36161,-2.91143 10.26625,-2.20933 0,0 -4.5262,-13.83426 -3.16834,-16.78701 -23.16593,-57.62909 0.34975,-6.71067 z m -125.8696,-6.69002 -1.52245,-0.53683 0,0 -0.3909,-0.12382 0,0 0.65836,-1.44544 1.1727,0.68144 0,0 0.20573,1.09429 0,0 -0.12344,0.3304 z"
     title="Marche"
     id="IT-57"
     inkscape:connector-curvature="0" />
  <path
     d="m 861.54222,745.52349 11.19207,5.96732 10.26625,1.92024 8.16774,8.96136 6.50127,2.53972 0,0 0.43205,6.75194 -4.38219,6.33895 1.68704,6.04994 -1.97507,3.28306 2.05737,2.51909 -1.54303,1.07373 2.05737,3.07659 3.8267,1.75509 -4.2176,2.10611 -1.39901,3.09721 -1.58417,-1.5899 -0.0617,1.69314 -4.29989,1.879 -2.71573,4.99685 -6.66586,-3.09723 -2.57171,3.13856 1.87221,1.65181 -1.46073,11.52169 3.20949,1.38348 4.09415,4.74905 0,0 -6.13095,4.33609 -5.45201,0.43363 -3.25064,3.3037 -8.25003,-3.53081 -3.53867,5.98794 -3.86785,1.19761 -1.93392,-1.52795 -4.05301,0.47493 0.0823,1.94087 -2.16023,0.1446 -4.50563,4.02637 -2.50998,-3.63409 -6.8716,1.07374 -2.44827,-1.87898 -0.7818,-3.28307 -16.47949,-4.83171 -4.17645,-2.25062 -0.53492,-2.08545 -3.66211,-0.0206 -0.41147,-1.73446 -7.09791,-0.1446 -0.80237,2.84941 -4.71137,-3.94375 -4.5262,8.32117 2.83916,3.44825 0.55549,4.9969 -2.67458,-1.77575 -4.42333,0.99114 -4.23817,-5.0588 0.57606,-3.13855 -3.1272,-1.58991 0,0 1.5636,-2.66361 -2.07794,-1.7551 5.88407,-4.25357 -2.50999,-2.18868 1.74876,-0.37168 0.43205,-1.96156 -2.81859,-3.11785 1.39901,-1.30085 -0.20574,-2.82882 -2.88031,-7.41271 -4.09416,-3.55147 0,0 4.32047,-1.07372 3.84727,2.02348 0.57607,-3.0146 2.73629,-0.10323 1.78991,-4.95558 2.38654,-0.18572 1.62532,4.27419 1.29614,-5.4511 4.09416,-0.10326 1.37843,-2.56034 0.51434,2.08543 1.74876,0.26844 0.8641,-2.1268 -3.1272,-1.83769 -2.5717,-7.3301 0.86409,-1.85829 4.56735,-0.30974 2.94203,-4.58392 5.98693,-4.91426 1.93393,2.60163 2.55113,-0.26837 2.01622,4.52194 1.1727,0.45426 2.16023,-2.7256 5.01997,3.34506 2.2631,2.20932 2.20138,8.85807 -1.62532,1.32152 4.19703,0.76397 9.79306,-10.59251 3.53866,-7.70179 4.85539,-3.4276 1.68704,-6.40091 4.73194,-5.86416 5.84291,-4.047 -1.8722,-1.73444 2.40712,-3.81992 0,0 z"
     title="Molise"
     id="IT-67"
     inkscape:connector-curvature="0" />
  <path
     d="m 191.21152,96.777982 3.18891,3.241768 -1.27557,3.13853 1.52245,4.06768 -0.74065,9.78723 -4.01186,5.2653 3.08605,5.1414 -1.35786,2.43649 2.92146,2.62231 6.27496,2.06483 4.5262,8.23863 3.0449,1.30082 -0.63778,2.18872 1.5636,2.84946 3.72383,-0.12389 4.15588,3.20047 3.37408,-0.26842 0,0 -1.29614,3.32436 2.07793,9.39492 -16.56178,18.08781 2.63342,10.2415 -4.27932,4.85233 -0.12344,3.09723 4.15588,7.88761 6.27496,1.87896 -1.13155,5.4718 4.17645,0.8259 -0.76122,2.06484 1.66646,3.81994 -3.14777,-0.66073 0.65836,2.62232 3.97072,3.3656 -0.90524,3.53086 2.654,10.15891 7.22135,3.73731 2.36597,8.05282 1.83105,-0.12381 1.91335,5.76088 -4.38219,2.22998 -3.25063,-0.88785 -2.40712,1.65184 -3.10662,-0.59883 4.46448,4.79045 -3.86784,2.47773 -1.15213,4.33615 -2.2631,1.21826 -3.02433,0.22711 -1.00811,-5.26529 -2.32482,-1.528 0.0206,-1.87897 -5.71947,0.22711 -2.44826,-2.06482 -3.06548,2.84946 1.23442,3.69605 -2.79802,0.94978 -1.4813,3.07658 4.1353,2.14747 0.63779,3.65471 -2.01622,-0.26842 0.0412,0.99113 3.33293,1.09434 -2.59228,0.33037 1.1727,0.86719 -1.9545,1.75511 2.57171,2.41583 -2.44827,0.88787 1.02868,0.80533 4.46449,-1.98223 -3.68269,5.30656 1.13155,2.0235 2.94204,0.90852 1.21384,3.07656 2.30425,0.64012 -0.74065,2.68429 2.94203,2.6636 0.59664,7.28881 6.80988,3.94385 0.94638,-3.61349 0.82295,2.37451 2.30425,-0.33032 0.37032,2.08545 2.63343,0.33037 0.51434,-2.10615 3.37408,-0.37161 3.33293,-3.32438 5.98694,-0.49556 0.59663,6.62806 2.654,3.61345 2.71572,-1.28013 0.94639,0.90849 1.50188,2.66359 -0.49377,3.57213 3.18892,5.26529 3.45637,3.0766 2.09851,-0.24778 1.48131,4.10896 -1.93393,2.08546 2.38655,2.41585 -0.24689,1.94095 2.98318,0.26843 0.92582,1.61056 5.59603,-1.54861 0.96696,6.04995 4.67022,3.46887 -1.27557,4.12961 0.76123,5.88474 0,0 -1.02868,-0.39231 0.0617,10.48929 0,0 0.12344,2.99398 -7.24193,3.03527 -3.33293,-2.49841 0.10287,-3.05594 -3.00375,-1.7551 -2.96261,0.59876 -3.29178,-7.08228 -4.69079,0.51623 -1.48131,-2.10614 -3.31236,0.49553 -1.29614,3.42759 -3.23006,2.60171 2.96261,3.22108 0.61721,7.68116 -2.96261,1.61054 -1.78991,-2.45712 -4.69079,0.61946 0.0617,3.03524 -3.57981,3.01469 0.74065,3.05588 -2.61286,0.97046 -0.80237,-4.54258 -1.76933,0.0618 0.61721,-1.85832 -3.68269,-6.07058 -3.33293,-0.47493 -7.30364,-0.43364 -2.53056,3.9851 1.62531,1.87903 -5.63718,6.27704 -2.05736,-1.54864 -6.60414,0.24779 -0.69951,-1.77574 -2.34539,3.53086 -3.02433,-2.14743 -1.64589,0.78464 -1.15213,4.54261 -2.69514,1.46604 -6.33669,-5.38921 -3.80612,-0.39235 -2.01622,-3.13848 -3.18892,2.56035 0.0823,3.90253 -2.83917,0.9498 2.81859,6.75193 -1.54302,3.98516 -6.54242,3.63407 0.47319,4.12961 -2.01622,3.32436 -2.654,-0.33039 -0.61721,4.50132 -3.00375,-1.34211 -0.86409,1.115 0,2.06486 2.61285,2.70486 -2.57171,2.53971 1.76934,2.27133 -1.52245,3.53086 3.00375,2.62233 0.10287,4.0057 -2.42769,3.20044 -2.92146,1.01179 -3.14777,-2.10609 -3.78555,3.11792 2.69515,1.28015 1.15212,1.79637 -0.88467,1.50731 -4.053,-1.42473 -3.35351,1.81711 -18.51629,-5.94671 -3.99128,2.23001 -0.96697,3.17979 1.87221,2.97334 2.69514,-0.0413 -3.18891,3.44828 -1.64589,-0.55751 0,0 0.12344,-3.07657 -5.01997,-6.79329 1.85163,-6.42157 -5.10227,-0.20648 -1.81048,3.94382 -5.966359,-0.99113 -10.657152,4.52197 -3.188916,-0.72274 -0.658356,2.68433 -3.374079,-1.9203 -3.764978,1.42471 -1.481303,-4.50131 -6.707011,0.78462 -3.744404,-4.5632 -2.736296,0.45421 -3.188916,-4.79035 -2.715722,-0.90857 -1.954497,1.07373 -6.25439,-4.25347 -5.513738,0.80522 -2.59228,-1.77571 -1.275567,-6.54552 -4.011862,-2.33325 0.370326,-2.10608 -3.456373,-3.20048 -0.473194,-2.76684 -3.744405,-1.71381 0.576062,-8.73417 5.884065,-1.15628 -7.427088,-7.49529 -2.304249,-7.49536 2.324822,-3.51015 3.291784,-0.35107 2.427691,-2.39514 1.810482,-6.56613 1.913349,-0.16517 -2.016218,-4.95558 1.46073,-3.57216 2.654001,-2.02348 9.422732,0.59878 -0.987535,-3.88187 -3.806126,-2.25062 -1.131551,-6.64876 -2.180807,-2.39518 2.386544,-5.10013 -1.769334,-2.35384 -7.365367,-3.40696 -2.674575,2.68424 -4.937676,-0.94979 -6.336685,-4.31548 -0.329178,-1.83773 -5.205134,-2.04419 0.411473,-4.29484 -1.193272,-0.72263 2.221954,-3.17984 -2.880311,-4.50133 1.419582,-1.13564 -0.699504,-2.39528 -7.4682754,-0.8466 L 3.7032572,307.61653 1.8104814,307.07966 0,302.55772 l 4.896529,-3.05594 0.8229461,-2.23003 6.5218479,0.37169 2.695148,-3.2211 8.39405,3.53081 0.185162,1.32148 4.649646,-1.42471 0.02057,-4.74906 5.534312,-0.20651 0.864094,-3.11787 4.95825,-4.37741 2.654001,0.43362 2.530559,-1.52801 1.995644,2.3333 4.402761,-5.40981 1.501877,0.20643 1.090404,-5.43046 -2.612854,-6.77259 2.016218,-0.37166 0.843519,-3.17985 2.715722,-1.42474 0.02057,-3.03526 2.551133,-3.71671 -7.694546,-4.15022 -1.275566,-5.05879 0,0 3.641536,-7.35078 0.740652,5.88468 1.851628,-1.40401 6.316111,2.20934 4.917103,-6.21513 5.760622,-0.14459 3.867847,-1.8377 1.97507,1.38349 7.283073,-5.86409 1.913349,-3.24179 2.530559,-0.80526 3.806126,0.97046 4.279319,-2.33328 4.135298,2.58109 0.26746,1.79632 2.90089,-1.36277 4.053,2.68429 4.77309,-0.78465 1.39901,1.25953 10.06052,-7.16492 5.43144,-0.41295 2.07794,1.34218 1.50187,-6.27709 2.46884,-0.49557 -3.7444,-7.7018 3.41522,-5.84343 -0.74065,-2.47777 -3.33293,-1.23892 -3.51809,-6.40092 1.44015,-10.42734 -1.44015,-8.38317 0,0 1.4813,-1.40408 0.20574,-7.49528 3.02432,-3.26242 8.53807,0.2478 2.28367,-2.41586 0.24689,-3.13853 2.38654,-1.71379 -1.37843,-4.35678 1.11097,-4.10897 7.6534,-1.79641 1.15213,-2.95268 3.92956,-2.06482 -0.24688,-3.07658 1.62532,-2.35389 -2.81859,-6.77261 -3.02433,-3.73732 -3.51809,-1.65186 6.56299,-6.54547 2.98318,0.90853 4.50563,-1.79641 1.52245,-3.9851 3.95014,-1.7551 0.0617,-2.7875 4.89653,-2.04417 0.96696,-3.09723 -2.98318,-1.44536 1.60475,-2.56039 2.05736,-0.16516 4.09416,-3.964445 z"
     title="Piemonte"
     id="IT-21"
     inkscape:connector-curvature="0" />
  <path
     d="m 990.47729,761.73228 7.92086,1.54866 10.10165,7.72239 -1.3784,3.17982 2.5923,4.93496 -0.1646,3.30363 -0.8024,4.06769 -2.798,2.8082 -9.73136,6.52481 -0.59663,2.22997 -17.2613,10.84036 0.30861,11.74881 5.14341,9.76659 7.11849,5.18269 19.27748,8.96128 6.131,4.83171 16.6646,6.29767 17.3436,10.50996 20.4297,6.5248 3.4152,2.95273 3.7032,0.10326 0.9259,1.54861 1.9339,-0.84664 0.5143,1.50738 8.6204,3.75798 14.0929,4.62514 19.833,13.029 7.4683,9.14717 4.1147,1.87898 9.3816,8.8581 24.2975,9.78719 12.7556,8.87876 11.5418,1.38345 2.3043,3.81987 -1.0081,1.7551 7.3859,0.24775 -0.6789,2.25069 3.2095,3.98508 -1.111,4.21225 4.6291,5.74017 4.8965,4.48067 12.0973,6.77266 19.2981,20.77204 4.1147,9.20913 -0.4732,3.6341 3.189,7.4744 2.9214,1.7966 -1.0492,0.9911 1.2138,3.407 -3.5387,3.2623 -1.0081,4.9144 -4.0941,2.8494 -2.9626,6.5455 -1.8105,9.4155 0.062,12.389 -2.2837,3.221 -2.4894,0.6609 -7.8797,-6.1119 -10.4926,-2.2094 -13.2288,-10.799 -5.596,-9.7873 2.4894,-1.0322 -0.3704,-4.0266 -4.2793,-2.3126 3.1066,-2.2919 0.8436,-5.1622 -9.4845,-11.8312 0.6789,-3.9438 -2.0985,-4.52206 -5.1845,-4.31546 -18.6603,-2.74621 -18.0637,1.40411 -6.4807,-4.70781 -5.5549,-0.59879 -17.8579,-10.36538 -2.3043,0.0618 0.6172,-1.87899 3.9502,-1.73449 0.4526,-3.05586 -2.7774,-3.38632 -4.7114,0.22712 -1.1933,-3.345 -5.8635,-2.20933 -7.8591,1.1769 -7.2008,3.92316 -7.3448,6.52484 -4.3822,7.24755 0,0 -1.6047,-3.84059 -3.6004,-3.03534 -0.7406,-3.34498 -3.6416,-2.20932 -3.4975,0.90846 -1.7693,-1.96154 1.975,-4.29485 -2.3865,-1.817 0.9052,-1.67249 -1.975,-2.08548 0.8846,-5.96733 1.2962,-0.94985 -1.8928,-4.25354 1.8516,-7.45396 -2.51,-2.91143 2.0985,-1.053 -6.0075,-4.58395 -1.0904,1.54862 -2.4071,-1.44535 -0.3497,-2.04415 -2.0574,1.32148 -3.4769,-1.50734 -0.2264,3.59283 -1.7487,-2.74622 -1.9957,0.53677 0.1441,3.90259 -4.1971,-5.10011 -7.1802,8.34183 -3.1477,-0.86725 -1.5842,-3.59271 -13.5169,-12.4715 -6.0487,-13.33875 -4.1147,-1.34217 -4.3822,4.04706 -3.27119,-3.11785 -11.50067,-4.91431 -1.23442,-2.33322 3.10663,0.55748 3.70325,-4.23285 -0.63778,-3.20045 1.31671,-2.14745 -3.78555,-3.09723 -1.25499,0.86724 -1.25499,-4.85232 -2.59228,-0.61949 -0.49377,-2.10609 -3.57982,-0.61946 -4.73194,-3.4069 -2.92146,1.75509 -1.66646,-0.59885 0.37032,1.56928 -3.4358,0.88786 0.30861,1.96156 -3.45637,1.89966 -3.00376,-2.18868 -5.16398,1.85829 -9.56675,-1.6105 -3.99129,0.78462 -2.77744,2.53971 0.67893,2.53972 0,0 -7.40652,-3.71665 -3.23006,0.28907 -4.32047,-3.71669 -3.49752,2.66359 -5.82234,-2.45711 -2.2631,1.85836 -4.13531,-2.97332 -1.50187,-3.90253 -3.23007,-1.58991 1.68704,-4.109 4.15588,-2.4778 -1.74876,-4.91427 3.31236,-2.10607 -2.59228,-2.95271 -3.33293,0.66075 -2.13966,-3.05596 -7.03619,0.2891 -0.43205,-4.48069 -6.11037,-2.1887 -1.27557,-5.40981 1.72819,-2.41582 2.1808,-0.3717 -1.11097,-2.47779 1.68704,-1.61053 -0.37033,-1.65184 -5.86349,-1.65186 -3.72383,-5.86413 0,0 -4.09416,-4.74908 -3.20949,-1.38338 1.48131,-11.52175 -1.89278,-1.67246 2.57171,-3.13851 6.66586,3.09722 2.71572,-4.97627 4.29989,-1.87897 0.0617,-1.71377 1.58417,1.58989 1.39901,-3.09727 4.23817,-2.10607 -3.8267,-1.73446 -2.05737,-3.09724 1.52245,-1.07368 -2.03679,-2.51904 1.97507,-3.28311 -1.68704,-6.04989 4.38219,-6.31832 -0.43205,-6.75199 0,0 21.45832,1.32146 2.57171,2.10612 6.56299,0.2478 20.42964,-3.81993 6.93332,1.96158 8.49692,-0.43358 26.12853,-4.74912 z"
     title="Puglia"
     id="IT-75"
     inkscape:connector-curvature="0" />
  <path
     d="m 184.05188,1155.2042 1.13156,1.9823 4.64964,-1.3423 4.36161,7.3716 -2.34539,11.6042 -3.20949,1.8376 -5.76062,-11.0467 -1.15213,-5.8848 2.32482,-4.5219 z m -6.56299,-9.3537 -0.26746,11.2738 -3.33293,0.7849 -2.77744,-1.9617 0.10287,-3.4896 -3.16835,-1.8788 5.01997,-4.6253 4.42334,-0.1032 z m 150.18765,-239.16796 1.13156,1.05307 -5.12284,3.28311 -1.09041,-0.84662 5.67833,-4.68715 -0.59664,1.19759 z m -158.66399,-8.03213 -1.15213,1.17695 -0.12344,-2.06485 1.27557,0.8879 z m 9.89592,-19.92546 0.55549,2.33323 2.55113,1.71377 -1.50187,1.52799 -0.34976,4.04703 -5.6166,-2.62232 -4.48506,6.2564 1.35786,-0.39231 1.68704,3.34504 -0.96696,2.82873 -4.73194,-0.59875 2.03679,-5.1001 -1.29614,-0.18572 0.32918,-2.31262 3.0449,-1.2802 1.78991,-3.30372 1.97507,-0.22708 -1.11098,-4.02642 4.73194,-2.00285 z m 121.46684,-17.20001 1.76933,3.15921 -2.55113,4.29482 1.76933,0.47489 -4.73194,0.72272 2.24253,-8.92001 1.50188,0.26837 z m -13.84607,-1.3421 1.99565,1.25955 -2.18081,1.94089 0.18516,-3.20044 z m -11.66526,-0.94978 5.18456,4.27413 -1.54302,3.8819 2.1808,2.29191 5.04055,-0.35101 0.55549,-2.64296 2.5717,-0.28908 1.11098,3.75798 1.1727,0.30975 4.07358,0.0414 -2.01622,2.62236 2.59228,0.45422 1.85163,2.84947 -0.34975,6.02923 3.06548,-4.66648 -0.57607,-2.37452 5.12284,0.28904 0.63779,-2.37448 1.89277,2.56033 -1.15212,0.68135 2.01621,0.12383 -0.55548,2.53973 2.73629,-0.12382 0.53492,2.31259 -2.05737,3.13853 -1.13155,-1.38343 -0.80237,0.76397 0.59663,2.97335 -1.70761,1.07371 -1.58417,6.15318 1.58417,-0.0824 0.34975,-2.78751 3.62097,-1.09438 -1.09041,4.64586 2.71572,0.12383 -0.0823,-1.69315 0.94639,0.61944 1.00811,-1.63124 7.30364,3.77868 -1.44015,1.52789 -4.46449,-2.29192 -2.83916,2.45715 1.19327,2.1474 -2.654,3.57217 0.67893,1.92025 -5.59603,-0.82592 -1.8722,0.84659 1.85163,0.97042 4.36161,0.10326 1.76933,0.72274 -0.7818,0.84657 1.99565,2.35387 3.0449,-4.23289 2.59228,0.49559 -3.0449,3.88183 4.6085,2.29195 -1.09041,2.80814 3.4358,-0.76391 4.32047,2.99396 -1.50188,1.15626 -2.05736,-0.74334 -0.84352,2.00293 1.1727,1.58985 -1.81048,0.94985 -0.28804,2.60167 4.85539,4.83167 -0.32918,5.61632 4.11473,5.18266 -1.25499,5.28593 1.31671,5.26533 3.78555,3.55147 0.57606,3.73733 3.41523,2.14742 -6.46013,18.93436 -8.10602,6.93779 -6.66586,11.43909 0,7.0823 2.81859,8.3625 4.15588,5.5957 4.23817,2.4779 -0.0411,3.4275 -4.87595,12.0173 0.32918,4.3774 2.53056,0.64 0.43204,1.5487 -3.76498,3.8198 1.52245,6.5456 -2.81859,9.6426 0.92582,9.6221 -3.37408,8.3212 1.0904,11.3772 -2.5717,9.1677 1.4813,5.5338 -5.08169,15.4861 0.63778,4.3568 3.0449,2.4984 -3.20949,1.0738 -2.20138,3.3862 -2.05736,9.5601 1.74876,2.643 -2.22196,6.1531 -2.09851,0 -1.89278,2.3334 0.26746,2.6842 -2.05736,-1.7345 0,-2.9939 -1.9545,-0.7434 -4.97882,1.6932 -14.89533,-12.3269 -9.1347,-1.9205 -4.38219,2.6637 -0.98753,3.5309 -5.26686,-4.2536 -4.38218,1.9411 -5.22571,6.5247 -0.10287,8.569 3.02433,4.2329 -2.57171,9.7666 -1.13155,-1.1357 -1.50188,0.764 -14.58672,14.7427 -2.59228,-0.1031 -2.05736,-2.705 -1.33729,1.7553 -2.63343,-4.2123 -5.71947,-3.2831 -0.34975,2.1474 -5.67833,1.404 0.59663,2.1475 -2.24252,1.1356 1.02868,2.7463 -1.76933,0.5987 0.59663,-4.1503 -4.2176,0.2271 1.50188,-6.8138 -5.22571,-4.7697 -0.88467,-8.7963 -3.41522,-1.9821 -6.00751,-0.1239 0.94639,-3.8197 -1.46073,-3.2006 -1.31671,-1.239 -2.2631,1.2183 -0.0823,-6.0086 -7.15963,-7.7018 -0.20574,-2.0235 6.15153,-5.7814 1.0904,-2.8497 -1.58417,-5.5955 -2.83917,-1.0119 -0.41147,-3.5308 -1.68704,-1.4042 4.07358,-6.4627 -0.10286,-2.4365 -3.06548,-2.0235 0.43205,-2.0647 7.01561,-10.4068 1.87221,-7.5985 -2.2631,-4.4393 0.90524,-4.1709 -1.27557,-2.3334 1.04926,-3.3037 -1.02869,-6.8758 1.39901,-1.7344 3.66211,6.3389 1.60475,-0.1238 0.6995,-4.2742 3.33293,-5.6989 0.82295,-8.8374 -3.1272,-5.7197 -4.95825,-0.3096 -3.92956,4.047 -4.50563,-4.274 -0.51435,-9.2712 2.11909,-6.0911 -3.7444,-2.1888 2.67457,-2.2299 1.02868,1.4452 4.40276,-1.3627 3.78556,-4.0471 0.16459,-3.1178 -3.64154,-10.1589 2.7363,-15.15581 -2.4277,-4.66646 -4.07358,-2.37456 -4.01186,-0.22713 -0.37033,-2.97332 2.3454,-6.9378 -2.94203,-11.10875 -3.72383,-1.32147 -3.99129,-12.47152 -5.57546,1.115 -0.28803,1.89961 -4.19703,0.10325 -0.0411,-3.63409 1.54302,-1.07365 -2.24253,-2.35394 -3.72383,5.8848 -1.15212,-0.37172 -0.59664,-6.17381 4.2176,-1.94089 2.22195,-6.56614 -3.20949,-1.38347 -4.44391,-5.07945 3.60039,-4.85233 -0.57606,-4.00571 2.79802,-2.43648 3.78555,-10.44802 -4.93768,-6.89649 2.88031,-4.95559 3.53867,2.56042 -0.51434,5.9054 8.49692,9.14711 6.27496,1.25961 4.6908,-0.78467 3.99128,2.93203 11.19207,-1.65186 14.0518,-11.39775 10.3074,-1.528 8.5175,-9.7253 -0.22632,-2.70492 6.33669,-3.81992 8.45577,-11.52168 3.39465,-1.83771 1.33729,1.50735 5.32858,-1.03237 1.25499,-2.87018 3.45637,-0.14461 1.68704,-1.89962 -1.5636,-3.94379 1.37844,-4.50134 -2.654,-0.45424 0.3086,-1.9409 2.16024,1.46602 2.9626,-1.58995 0.12344,1.89964 3.76498,-3.63405 z m 19.9153,-1.36283 3.00375,4.87301 -0.88467,2.37452 -6.0898,0.94985 -0.92581,-2.60171 3.0449,-2.31257 -0.26746,-2.27134 1.41958,1.52797 0.69951,-2.53973 z"
     title="Sardegna"
     id="IT-88"
     inkscape:connector-curvature="0" />
  <path
     d="m 622.72328,1630.7732 10.10166,1.0532 0.65836,3.4481 -12.30305,-3.3243 1.54303,-1.177 z m -60.52768,-171.3386 4.81423,2.4778 1.23442,-0.764 4.1353,3.5102 0.24689,4.873 -2.90089,3.4275 -3.86784,-0.2683 -6.83046,-8.4039 0.18517,-3.2211 2.98318,-1.6312 z m 51.8456,-133.1395 -1.93393,-6.7727 2.71573,-1.4658 -0.7818,8.2385 z m -14.6073,-14.7841 1.62532,3.0765 2.32483,-0.8465 2.24252,1.6106 -0.0206,2.3745 -1.50188,0.3716 -1.93392,-2.1061 -5.06112,0.5782 -1.70761,-2.8908 4.03243,-2.168 z m -25.73763,-5.0381 2.73629,5.9053 -5.12284,-1.5487 -1.44015,-4.46 3.8267,0.1034 z m 368.47409,-41.2964 4.97883,3.3449 5.63718,1.3629 -5.67833,1.5692 -3.10662,2.581 -1.58417,5.9675 1.72818,-0.3512 -8.47634,15.672 -20.07989,26.2851 -0.0617,3.4069 -3.41522,2.3332 0.41147,1.8998 -6.7893,8.7961 -0.7818,2.3125 1.50187,3.5517 -2.09851,7.392 -2.50999,3.221 0.14402,7.2682 -6.41898,6.0912 -3.16834,5.926 1.21384,21.8872 6.8716,4.2741 3.10663,0.7847 1.399,-1.3835 5.43145,6.6693 -1.13155,1.5694 -1.9545,-1.3629 -0.3909,3.4484 -0.94639,-3.8613 -2.36597,0.8258 -0.67893,6.6281 2.05737,4.8318 2.81859,-0.9291 1.1727,1.7137 -1.62532,-0.6814 -0.7818,1.1564 1.37843,3.3656 2.94204,1.6725 3.57981,-0.1653 0.20574,6.3184 -2.22196,-0.8465 -0.18516,3.283 1.44016,0.9086 1.99564,-1.177 2.96261,5.1413 -3.68269,-1.6518 -2.654,1.0737 -1.50188,4.4601 -5.51373,1.3215 -5.94579,6.5869 -6.0898,15.073 4.75251,15.0525 -0.94638,2.3747 -1.66647,-1.0326 -3.66211,3.4896 -6.58357,-6.9998 -6.35726,1.1563 -4.62907,-3.9643 -3.8267,-0.9913 -10.18396,3.5309 -3.97071,-2.1887 -5.61661,-0.021 -5.53431,-5.2652 -5.18456,-2.065 -10.01937,-1.3008 -3.64153,-3.9436 -1.68704,-7.1856 -6.60415,-11.8935 -12.38533,-12.5954 -10.26626,-4.8523 -10.10166,-2.2505 -10.82174,0.2476 -6.58357,1.7552 -3.10662,-0.8878 -5.55488,-5.6785 -7.59168,-0.6813 -9.50503,-5.9053 -1.9545,-4.3775 -9.19642,-7.5778 -3.12719,0.8052 -1.5636,-1.7343 -6.37783,-0.1857 -4.95825,-5.2035 -8.39405,-4.1708 -2.71572,-3.2418 -2.63343,-0.1858 -2.18081,-4.935 -9.11413,-8.8787 -9.38158,-1.59 -5.98693,1.4249 -6.0898,-9.1885 -4.73194,-1.6313 -14.525,-0.5162 -11.04805,2.7463 -7.03619,-10.7371 -4.46448,-2.8493 -4.77309,0.3095 -4.56735,-5.3065 -0.3909,-5.9673 -5.01997,-7.5779 4.01186,-2.3125 2.3454,-7.4541 -2.92146,-4.4394 4.25874,-5.988 -0.41147,-4.1501 2.55113,-1.1358 -3.0449,-3.3037 3.10663,-0.7846 5.47259,-6.2358 3.47694,0.6402 3.68269,-1.466 2.48941,-2.4985 -0.24689,-2.3126 5.30801,0.2064 2.77744,-4.0262 -2.28368,-4.522 1.66647,-2.1887 0.6995,1.7551 3.25064,-0.3717 0.10287,3.7372 2.22195,2.1888 -0.0823,3.3037 2.32482,4.1504 9.38159,7.2887 9.25814,-2.5604 9.42273,-5.8848 -2.63342,-6.8138 2.01621,-0.4749 1.35786,-2.5809 -0.82294,-1.4042 3.33293,-2.8289 8.76437,3.1178 4.34105,-1.7757 0.90524,-2.8081 3.60038,0.5369 4.48506,-3.3037 1.35786,3.4688 3.84727,2.3127 1.04926,4.4394 -1.52245,2.3538 2.16023,3.0352 6.76874,1.8998 4.62907,-1.1357 1.83105,-2.3126 3.06548,0.8672 0.0617,6.1944 3.18891,3.6754 15.3068,8.3006 5.71947,0.8879 10.14281,-2.7669 8.88782,-5.2652 7.94143,-1.5694 4.6085,3.0561 4.46448,0.4748 3.88842,-1.9822 14.8336,2.9734 9.01126,-1.1771 5.67833,-3.2003 5.59603,0.8465 16.91155,-5.4305 11.52124,-12.3475 4.44391,1.8789 10.53371,-2.8082 2.53056,-2.6015 5.96636,5.2651 7.77684,0.021 1.72818,3.2625 4.03244,0.8261 8.00315,-4.4187 4.62907,-5.2655 2.3454,-6.5661 -1.78991,-3.7786 1.72819,-0.1238 1.44015,3.1591 -1.11098,4.3569 4.62908,1.3008 11.80927,-3.2419 12.9614,-8.7754 3.60039,-0.289 z m -63.11996,-16.0024 3.88842,2.9939 0.61721,3.5308 -2.13966,0.3717 -3.49752,-2.2506 -1.1727,-3.7786 2.16023,-2.7875 1.04926,1.0324 -0.90524,0.8879 z m 0.22631,-13.8756 0.0412,4.0058 1.8722,1.342 -2.63343,0.8673 -0.20573,4.8317 -5.94579,-6.2771 1.70761,-4.5013 5.16399,-0.2684 z m -63.3257,-4.4187 -0.12344,2.9321 -1.78991,0.1033 -0.24688,-2.3746 2.16023,-0.6608 z m 48.45095,-3.8612 5.28743,0.2477 -0.0617,5.9262 -1.62532,0.3715 -6.31611,-3.6341 1.13155,-2.9319 1.58417,0.02 z m -28.78254,-0.2892 2.92146,0.5783 1.81048,3.4275 -4.17645,-0.4129 -1.50188,-2.4364 0.94639,-1.1565 z m 55.6723,-8.032 -0.18516,2.1267 -1.91335,0.6401 0.28803,-2.4777 1.81048,-0.2891 z m -198.49459,-9.2299 0.88467,0.599 -1.52245,1.7756 -3.51809,0.3097 0.72007,-2.519 2.11909,-1.115 1.31671,0.9497 z m 214.27458,-13.1114 1.83106,1.3627 -3.14777,3.9438 -2.69515,-2.6844 4.01186,-2.6221 z"
     title="Sicilia"
     id="IT-82"
     inkscape:connector-curvature="0" />
  <path
     d="m 389.10947,704.5781 1.76933,3.71668 -1.5636,1.50728 -2.07794,-0.35102 -0.32917,-4.43933 2.20138,-0.43361 z m 60.34252,-5.67828 4.05301,4.19159 -0.45262,6.23574 -4.05301,-5.03813 -1.68704,-0.26842 2.13966,-5.12078 z m -84.98976,-32.7893 2.22196,4.35677 -1.33729,3.05594 -4.56735,-2.02354 2.94203,-1.38342 0.74065,-4.00575 z m 35.65414,-35.65941 2.7363,2.8907 -1.58417,4.3981 0.65835,5.51305 -5.18456,2.80818 5.04055,3.51019 -1.13155,3.88187 -5.0817,-1.65185 -1.89277,-5.63696 -1.58417,-0.76398 -2.50999,0.4955 0.14402,3.44831 -1.85163,-3.30372 -1.70762,3.4276 -4.58792,-2.04421 -0.45262,3.40696 -5.59603,-1.52796 -3.39466,0.53685 0.3909,1.09435 -3.72383,-2.29193 -2.11908,-3.61346 0.20573,-3.26238 3.78556,-2.91143 5.86349,-0.14459 5.2257,3.20046 0.34976,-1.63122 2.20138,-0.57813 -0.74066,-1.17696 1.33729,-0.97043 -1.25499,-1.73444 7.46823,1.79637 -1.56359,2.00284 3.90899,0.7021 5.49317,-10.34475 1.15212,0.47491 z m -61.88554,-28.39131 1.41958,4.08843 -3.76498,4.99685 -1.89277,-2.74625 1.04925,-4.74906 2.53056,-2.68426 0.65836,1.09429 z m 253.24107,-107.43252 0.16459,0.33038 0,0 0.61721,2.27133 -4.48506,2.33323 -2.81859,-3.28308 0.55549,-2.31257 5.6989,0.0414 0,0 0.26746,0.61938 z m -269.00049,-81.87007 7.40652,-4.31546 7.01561,-11.06739 11.0069,-1.21823 5.01997,1.7964 1.02869,2.56032 2.16023,0.45426 -1.11098,5.43051 2.32483,2.60165 8.80552,6.07057 5.01997,-1.05306 11.58297,12.3063 4.89652,-2.45714 4.50563,2.53974 3.29179,0.0618 6.06923,6.27706 3.43579,-0.59882 2.50999,1.38347 -0.10287,2.84944 3.57982,3.3037 0.49377,3.2005 7.03618,6.29767 3.4358,-0.86723 -0.14401,-2.76684 2.05736,-2.53971 11.45953,0.2684 10.2251,8.32127 4.69079,1.05298 1.39901,1.87897 -0.65835,1.96158 1.35786,0.61949 9.99879,-11.27389 0.82295,1.87898 -1.255,2.14739 3.18892,2.37457 5.67833,0.66075 6.8716,-2.99405 6.35726,1.83772 5.2257,-0.33039 -0.51434,-2.22999 -6.02808,-3.51018 0.22631,-1.94097 8.20889,-0.28904 4.69079,-4.27416 0.41147,-2.20938 5.12284,-0.53686 5.06112,-4.93492 2.7363,2.49844 0.6995,4.43933 2.88031,0.78465 3.55924,4.06771 2.48942,0.53683 2.11908,-2.06482 5.34915,1.09436 0.41148,2.14743 -2.98318,4.33609 5.47259,0.74336 11.25378,-2.27132 -0.6995,5.55442 -4.17645,4.52196 -0.88467,4.10896 -3.45637,1.32145 0.41147,2.2507 -1.37843,-0.18572 -0.51434,2.37449 4.46448,4.29484 -0.67893,3.36569 3.7444,2.51909 -0.55549,6.31831 7.36537,4.12969 4.11473,4.97623 9.6079,0.43355 1.06983,2.68427 2.77744,0.37164 0,0 0.43205,2.00291 3.37407,2.16805 0,0 2.18081,-0.86726 3.00375,1.85835 1.89278,-0.51617 0,0 2.28368,2.62229 3.53866,-1.85829 0,0 2.92146,0.33037 2.96261,-1.65184 3.18891,4.76969 1.70762,-4.06769 4.19702,0.78462 3.37408,-1.8377 0,0 0.34975,0.26846 0,0 4.42334,1.77572 4.71136,6.35968 -4.32046,0.0414 0.61721,4.50132 -1.89278,-0.12383 -1.25499,-7.68115 -0.90524,6.44221 -2.53056,1.36281 -3.00375,-0.57815 0.41147,1.67252 -1.93393,2.16802 -4.75251,1.71385 2.98318,4.60453 0,0 -5.10226,6.46285 -1.58418,5.34788 -4.50563,-0.37161 -1.13155,1.15625 -0.34975,3.6341 5.36972,3.05596 -0.20573,1.15623 -4.38219,1.85834 -2.07794,3.51023 -2.24253,-0.70204 -3.51809,3.59277 0.67893,2.06484 4.40276,-0.45427 0.22631,5.49243 2.94203,-1.115 1.33729,1.23887 2.07794,4.72848 -1.21385,3.53083 0.82295,1.85832 4.58792,1.73441 1.85163,-4.60448 3.16835,2.60161 -13.72263,8.63098 -4.5262,-2.5397 -1.68704,0.76395 1.02868,2.74618 -2.03679,5.63702 -10.65715,6.29765 -1.00811,2.72561 1.81048,5.03807 -0.67893,2.51911 1.62532,3.24181 1.72818,-2.16807 2.61286,2.80813 -4.97883,20.3385 2.24253,1.54858 0.30861,3.73731 -2.63343,0.16516 -4.01186,4.8317 0,0 -5.10227,-0.28903 -3.33293,2.20932 -1.04926,4.15028 -1.44015,-2.7255 -2.46884,-0.9705 -2.38654,5.03816 7.77684,6.11186 -2.13966,4.87293 -2.53056,-0.0206 0.84352,5.40981 2.16023,0.99111 0.16459,2.23 -2.88031,1.8997 -2.81859,-0.39234 -1.8722,4.4187 -2.654,-0.51623 -3.08605,2.29198 -0.41147,2.23002 -3.57982,1.81701 -1.66647,-0.47489 -1.37843,1.83767 -2.3454,-2.16803 -1.27556,0.68138 0.92581,3.63407 -2.81859,4.00575 5.74005,3.94379 0.18516,7.08231 -13.99008,0.16517 -3.80613,8.56901 0,0 -17.22014,-4.02643 -2.40712,-1.96156 -5.61661,1.48669 0.26746,3.05589 -2.03679,0.99109 -0.47319,2.51909 -3.74441,0.30973 -2.79802,-3.51019 -3.33293,-1.05304 -0.90524,-5.32724 2.01622,-2.53972 1.74876,1.79641 4.6085,-0.39234 2.07794,-4.25353 0.63778,-6.44222 -3.55924,-7.37141 -3.62096,0.74334 -2.01622,-5.94667 -2.2631,-2.20937 0.43204,-2.02355 -8.51749,-3.65471 -1.91335,-7.68109 -4.54677,-4.72844 -9.11413,-3.67542 -6.97447,-0.8259 -6.33668,-4.17093 3.78555,-2.33323 0.28803,-7.53662 1.83105,-2.66363 -1.35786,-3.03524 -3.68268,-2.76686 -6.58357,-3.07656 -5.88406,-0.6401 -7.67398,1.19759 -0.80237,3.6547 -4.75251,-1.61057 -1.21385,-8.1354 3.47695,-1.65184 2.30425,-12.82252 -1.35786,-22.96076 -2.40712,-5.98802 -4.44391,-4.66647 -3.76498,-11.25326 -2.22195,-0.20647 -2.36597,-6.52485 -5.3903,-4.08831 -3.33293,-8.94074 0.65836,-4.87297 -3.8267,-15.94037 1.23442,-1.81703 -0.51434,-8.27989 -3.78555,-18.02592 -10.36913,-15.87846 -8.47634,-7.53655 -4.44391,-2.14743 0,0 4.58793,-5.24462 0.55548,-2.84942 -4.87595,-3.03533 -3.66211,3.0972 1.00811,-2.53971 -1.93392,-2.87012 -0.3909,-4.87296 -8.08545,0.2891 2.55113,-4.08831 1.54303,-0.12381 -3.02433,-2.10608 -4.27932,3.6134 0.88467,-5.63696 -1.66647,-1.44533 -0.18516,-5.30659 -5.32858,-2.18867 -8.29118,-6.46292 -2.07794,-5.32724 -3.00375,0.0618 z"
     title="Toscana"
     id="IT-52"
     inkscape:connector-curvature="0" />
  <path
     d="m 588.24184,0.90843884 3.55924,2.80815356 -2.38654,1.6931516 -1.11098,4.4806573 -6.11038,0.6400937 -2.71572,2.62232 1.74876,7.846312 3.29179,3.138524 -2.67458,3.964456 4.67022,0.887867 2.96261,4.790382 2.81859,-2.209358 3.62096,0.846575 3.25064,6.648722 -2.32483,3.819908 -0.12344,4.790383 7.44766,1.342133 2.81859,8.796127 10.36912,6.008627 0,0 -5.06111,1.899631 -3.4358,3.861212 -1.81048,-0.412966 0.78179,2.74621 -1.04925,0.94982 -2.59228,0.123881 -1.52245,-1.837689 -6.15152,1.940927 -2.48942,-1.569258 -6.8716,5.471766 -0.22631,-4.666487 -3.18891,-2.023524 -1.70761,0.598801 -8.08545,-6.338999 0.61721,4.81103 -3.10662,5.533711 0.34975,3.07658 -5.06112,8.094091 -1.19327,-1.589904 -2.38654,0.12388 -2.42769,2.436484 -3.23007,-0.660742 -10.01937,5.079455 -0.24688,3.386306 6.31611,0.867222 1.23442,2.8701 -4.73194,5.616309 -0.55549,7.55723 -1.66646,-1.52796 -4.85538,2.95269 5.98693,5.03816 1.19327,2.89074 -1.37844,3.92316 1.62532,1.44537 4.44391,-1.03241 0.90524,4.00575 1.31672,-0.84657 2.48941,1.21824 -1.62532,4.06769 4.9994,4.58391 -1.255,3.30371 -2.2631,-0.90854 -3.51809,8.15604 -8.62036,3.01463 -4.58793,-0.49555 -1.54302,1.61056 -1.35786,-1.58989 -5.63718,1.79637 -0.0206,4.17094 1.91334,3.15917 -4.23817,1.25954 1.52245,1.40408 -1.50187,1.6725 2.34539,4.17094 -1.8722,3.86122 -8.66151,-0.61947 -1.11097,-5.80213 -3.88842,-1.23889 -4.42334,0.59881 -5.63718,4.68713 -7.44766,-0.47491 0.7818,5.88472 -2.654,0.33037 -1.39901,3.17984 0.72008,2.04417 -5.10227,-2.76687 -0.14402,-1.61055 0.0412,2.80815 -4.97882,-0.37167 -1.76934,10.13826 -4.8348,5.84345 1.23442,4.87297 -3.18892,-0.30973 0.26746,7.43339 -5.14342,6.95843 -3.29178,-0.43362 -3.97071,-3.79923 -3.37408,1.81698 -0.90524,-2.41581 -3.78556,5.47178 -1.00811,-2.14738 -3.08604,3.48951 -3.06548,-1.92025 1.33729,-2.35389 -4.2176,-2.08547 -4.50563,-0.0206 4.50563,-8.32121 -1.60474,-3.11789 2.63342,-2.27129 -5.51373,-3.4276 0,0 -8.14717,-1.58992 -0.80237,1.79639 -2.61286,-2.04417 -8.25003,1.6725 -0.98754,4.43937 -4.053,0.12389 -4.42334,2.76684 -2.71572,-0.26843 -0.84352,-1.79639 1.41958,-2.8701 -4.62907,-1.98222 -1.06983,-8.89936 1.8722,-4.33613 -2.67457,-4.10899 0.32918,-4.19158 -3.57982,-0.66075 -0.10287,-2.06482 1.1727,-3.7786 2.46884,-1.96158 -0.74065,-3.92317 6.85102,-8.40381 1.91335,-9.12651 -2.18081,-3.28304 4.67022,-8.58965 -1.04925,-4.39807 -1.66647,-0.97047 1.81048,-2.62231 -1.23442,-4.17094 -5.43144,-2.62232 5.32858,-5.24465 4.053,-0.24776 3.06548,-3.22113 -1.72819,-2.84945 0.4732,-4.542599 -2.11909,-2.808152 -5.43144,-3.654728 -7.75627,-0.619444 -2.3454,-5.554371 0,0 2.05737,-1.837682 1.83105,-10.468635 -4.69079,-4.294822 -4.71137,0.640096 -1.72818,-7.536593 3.16834,-3.943801 -1.54302,-3.613434 4.50563,-3.592785 -2.50999,-5.306586 2.96261,-1.651855 3.00375,-8.548352 2.30425,1.85834 5.76062,-0.412968 -0.76122,1.817041 12.52935,-5.864084 2.79802,1.589909 -0.0206,2.085472 6.52185,2.663611 0.92581,1.672506 -3.60038,5.45112 2.75686,0.474909 3.35351,-1.693153 2.88031,3.138524 2.42769,-1.011756 5.10227,2.993982 3.41522,-1.796392 10.80117,1.1563 1.93392,-5.905383 4.71137,-2.477781 -1.27557,-5.038155 2.94204,-5.409827 -0.28804,-3.716674 1.85163,-2.684266 2.69515,0.371668 2.42769,-1.81704 0.28803,-4.026397 2.57171,-0.763983 1.89278,1.259539 11.87099,-4.604545 1.74876,1.197595 2.20138,-0.970466 4.91711,4.026398 3.84727,-1.631208 4.11473,-5.616308 6.02808,4.377417 8.64093,-4.625195 4.69079,3.138525 4.93768,0.123889 1.78991,2.932042 2.11908,0.598798 3.66211,-3.406952 5.74005,-0.268427 8.27061,-6.4009381 3.31236,-0.1651859 2.94203,-2.3745419 4.58793,0.3923156 2.05736,-2.2713003 3.76498,0.3923154 2.3454,-2.9733394 2.20138,0.8052794 L 585.99931,0 Z"
     title="Trentino-Alto Adige"
     id="IT-32"
     inkscape:connector-curvature="0" />
  <path
     d="m 612.0867,525.92994 -1.06983,-1.19756 0,0 -0.3909,-0.12382 0,0 0.49377,-1.40408 1.35786,0.64008 0,0 0.20574,1.09429 0,0 -0.59664,0.99113 z m -22.69274,-3.05589 1.46073,2.41582 6.35726,-0.0824 0.72008,1.15625 4.27932,-3.46886 3.86784,-0.24778 -1.04925,1.61054 0.98753,2.97333 -6.0075,5.57504 2.79801,2.93208 2.94204,-1.50736 2.61285,3.57214 2.92146,-4.31549 2.03679,0.26847 1.70761,2.93199 1.89278,0.10325 0.59663,-1.77574 1.87221,0.86726 13.08484,15.05248 4.38219,-2.66358 4.58792,1.69316 2.71572,-5.55442 4.27932,1.15634 -0.76122,4.15027 1.85163,1.73447 -3.70326,3.48958 0.10287,1.73443 4.67022,6.11184 0.78179,6.00864 -1.27556,1.44537 3.86784,2.76686 1.37844,7.06168 2.85974,1.42471 -0.28803,5.98795 -3.33294,3.20051 1.37844,3.1798 4.25874,0.86725 1.1727,3.53082 -0.49377,5.71957 1.54303,4.35673 -1.78991,1.36282 1.93392,4.02635 -1.15212,3.0766 5.53431,3.32435 0.41147,1.79646 2.28368,0.26836 0.24688,8.34191 2.48942,-2.80822 0.0411,-3.53081 2.67458,1.58993 2.88031,-2.87008 6.19267,4.74908 5.14341,8.13537 5.49317,-1.25955 2.5717,-3.75799 2.90089,7.47469 -0.51434,3.75795 -1.89278,3.92316 -0.7818,-1.58992 -3.95014,1.61055 -0.51434,4.12964 0,0 -1.54303,9.20911 -2.73629,2.64298 -3.33293,-1.3215 -0.10287,1.61059 -5.76062,3.55148 -4.23818,-2.22999 -1.46072,3.15914 -6.68644,-0.0827 -1.62532,2.00288 -4.1353,-2.04419 -1.19328,2.41583 1.27557,5.26531 -4.29989,1.38338 -3.80613,3.36568 -4.2176,-0.2065 -0.34975,2.74626 -6.29554,1.81696 2.81859,4.21229 -6.15152,4.06773 -2.46884,0.10325 -1.83105,-3.81996 -2.44826,0.16516 -0.45262,8.01151 -8.9084,6.93778 -1.7899,-2.06483 0.10286,-3.46886 -7.4888,1.09437 1.99564,-2.93209 -4.71137,-1.63122 0.0411,-4.25347 1.39901,-0.47496 -1.52245,-1.40403 0.51434,-3.84055 -3.02433,-0.33039 -4.11473,3.34495 -2.53056,-2.60161 -3.84727,0.45424 1.41958,-0.94984 -3.12719,-1.65182 1.54302,-1.38339 -2.13966,-1.75511 0.43205,-4.02644 -3.4358,-1.61056 -1.13155,-9.2297 -3.4358,-4.25357 -3.33293,-1.4041 -2.83917,2.45719 -1.37843,-0.43361 -0.24689,1.54863 -2.07793,-2.2094 -7.57111,2.7049 -8.51749,-5.28592 -2.654,-4.35676 3.80613,-2.14744 2.07793,-4.08832 -5.71947,-3.696 -3.33293,-8.01154 0,0 4.01186,-4.83166 2.63343,-0.16516 -0.30861,-3.73736 -2.24253,-1.54861 4.97883,-20.33849 -2.61286,-2.80817 -1.72818,2.16807 -1.60475,-3.24172 0.67893,-2.51908 -1.81048,-5.01756 1.00811,-2.7255 10.65715,-6.29776 2.05737,-5.63696 -1.02869,-2.72552 1.70762,-0.7433 4.5262,2.5397 13.72263,-8.63099 -3.16835,-2.60164 -1.85162,4.60457 -4.58793,-1.73447 -0.80237,-1.85836 1.21384,-3.53081 -2.07793,-4.72845 -1.33729,-1.23889 -2.92146,1.11501 -0.22631,-5.49243 -4.40276,0.45423 -0.67893,-2.06478 3.51809,-3.59278 2.24253,0.70204 2.07794,-3.51024 4.38219,-1.85828 0.20573,-1.15634 -5.36972,-3.05592 0.34975,-3.63408 1.13155,-1.15627 4.50563,0.37162 1.58417,-5.34784 4.89653,-6.71066 z"
     title="Umbria"
     id="IT-55"
     inkscape:connector-curvature="0" />
  <path
     d="m 100.31712,169.68674 1.19328,2.41583 7.85913,-1.11499 1.8722,3.05593 2.71572,1.115 1.31672,3.9851 3.29178,-2.37454 5.08169,3.32435 2.40712,-1.36278 4.25875,1.50732 0,0 1.44015,8.38317 -1.44015,10.42733 3.51809,6.40093 3.33293,1.23893 0.74065,2.47774 -3.41522,5.84346 3.7444,7.70177 -2.46884,0.49558 -1.50187,6.27706 -2.07794,-1.34215 -5.43144,0.41295 -10.06052,7.16491 -1.39901,-1.25951 -4.77309,0.7846 -4.053,-2.68424 -2.90089,1.36274 -0.26746,-1.79634 -4.135301,-2.58106 -4.279319,2.33329 -3.806126,-0.97047 -2.530559,0.80525 -1.913349,3.24181 -7.283073,5.86409 -1.97507,-1.38348 -3.867847,1.83769 -5.760622,0.14459 -4.917103,6.21514 -6.316111,-2.20934 -1.851628,1.40405 -0.740652,-5.88472 -3.641536,7.35077 0,0 -5.596033,-0.80533 0.555488,-3.36562 -5.740048,-1.56931 -0.473194,-10.44792 -1.954497,-2.06484 2.407117,-7.82564 -3.579815,-2.1681 -5.34915,0.37171 -1.06983,-2.99403 -5.040544,-1.89965 -5.18456,-6.00854 0.761225,-2.47784 -1.563598,-6.09117 2.077939,-8.54834 2.448265,-0.70205 2.036791,1.32148 1.501877,-2.45713 3.682683,1.28018 3.065474,-0.97047 1.090404,-2.12675 4.752513,-1.6725 0.658357,-4.25353 4.238172,-3.59279 6.501274,9.91114 5.287428,-3.20048 3.826699,3.09722 2.551133,-4.35676 4.382188,-0.12388 3.764978,-4.99687 9.710764,3.79927 9.155274,-5.7815 -0.08229,-2.04416 2.777443,-2.16805 4.56735,0.86722 0.61721,-4.39807 z"
     title="Valle d'Aosta"
     id="IT-23"
     inkscape:connector-curvature="0" />
  <path
     d="m 624.59548,324.5482 -2.77744,1.58988 1.93392,-2.16807 -1.85163,-0.76391 3.29179,-0.37173 -0.59664,1.71383 z m -3.37408,-4.33617 2.44827,1.85834 -4.87596,1.09437 1.27557,-3.61343 1.15212,0.66072 z m -0.76122,-256.202723 5.84291,4.026393 11.39781,-1.156299 4.25874,1.52797 1.83106,2.250651 0,0 -0.3909,3.716671 1.99564,3.427604 -1.44015,4.687138 1.81048,2.395187 -5.24628,0.123881 -7.11849,4.501301 -0.24688,1.940927 2.53056,1.651858 0.82294,3.592783 -3.7444,-1.610557 -2.13966,1.631204 -3.80613,-1.631204 -3.23006,2.581024 -0.84352,-0.887869 -3.0449,4.21223 -0.57606,3.61342 -4.11473,3.6341 0.65836,2.87009 -1.23442,-0.5575 0.37032,1.23889 -3.76498,1.92028 -0.67893,4.17094 -3.92956,-0.5575 -2.13966,1.73444 0.0823,4.10899 -3.70326,3.90252 4.36162,5.88472 4.27932,-0.0207 0.53491,3.26241 3.78555,-0.20646 0.61721,4.39805 4.97883,4.02639 -0.92582,7.39206 -5.96636,4.04704 -3.64153,5.80214 1.89277,1.65186 1.46073,5.36854 0.0411,7.16491 2.94203,0.0825 2.16024,3.11788 3.0449,0.0207 2.59228,9.35363 2.85973,2.60166 -0.43204,2.4778 4.11473,2.16805 1.39901,-3.30371 2.55113,1.3628 0.24688,1.85832 2.30425,1.07371 0.10287,3.34499 7.98258,-7.41268 1.37843,1.40406 4.07358,-4.3361 2.32483,1.73444 -0.88467,2.06483 1.29614,1.5073 1.13155,-2.14741 4.46448,-2.22999 1.31672,0.14451 -0.82295,2.27129 2.57171,2.35389 3.12719,-1.94092 1.00811,2.25065 3.18892,-1.03241 -0.92582,-2.91139 1.21385,-0.49556 1.19327,3.26241 -0.0823,0.6401 0.82295,0.76399 -0.34975,1.69315 1.68704,0.72268 -2.24253,1.32148 4.17645,3.9851 -1.00811,0.53686 1.33729,2.68428 -0.72008,2.41585 1.99565,-1.46601 1.17269,5.51307 1.62532,0.41297 -0.76122,1.65185 2.07794,1.6725 -0.34976,2.72557 2.01622,-0.24782 -0.24688,1.25959 2.20138,1.23887 0,0 -1.15213,1.58989 -10.12223,0.70207 0.18516,-1.5486 -1.8722,-0.72274 -0.98754,2.80822 -6.17209,0.80522 -1.9545,2.66362 -12.8791,8.07344 -32.75326,15.30033 -3.14777,4.06765 -3.4358,-1.73438 -3.95014,5.32722 -2.9626,5.80216 -0.20574,2.22998 1.70761,0.80526 -2.22195,0.826 -3.20949,13.40062 2.79802,0.86718 -2.22196,2.20939 1.1727,5.20333 2.63343,2.99404 -0.59664,10.94353 2.96261,2.51908 3.25063,6.40093 -1.04925,-0.70207 -1.64589,1.96156 1.8722,1.15634 1.76933,-1.30085 -0.49377,2.29194 1.04926,0.28906 1.13155,-0.64002 -0.90524,-3.63409 1.00811,0.0618 8.84667,11.08812 -1.35786,9.22973 -2.20138,2.02351 0.0823,5.88471 -3.29178,-1.13561 0.6995,-5.90543 -2.09851,-0.9085 -1.89278,0.78462 -1.54302,3.55153 1.78991,2.25063 -0.7818,4.27417 1.60474,1.36277 1.33729,-0.92912 0.12344,1.48663 -2.71572,-0.26842 -0.22631,2.97336 -4.95825,-3.96447 0,0 -1.23442,-4.50131 -4.09415,-1.05309 -1.31672,-1.96153 -0.67893,-5.96734 1.29614,-2.56041 -1.70761,-2.22996 -2.22196,0.0206 -3.00375,2.6636 -4.42333,-0.35101 -1.66647,-2.16809 -3.0449,2.00293 -4.71137,-6.35965 -13.78434,-2.20936 -4.52621,1.61053 -12.89968,-0.16516 -6.0075,2.80812 -1.52245,4.58394 -6.563,1.85832 -4.1353,3.92313 -2.55113,0.24781 -1.46073,-0.49556 -0.88467,-3.34499 -4.32047,-2.91141 -11.72698,0.78468 -0.32918,-3.0766 0,0 -0.47319,-2.12678 -16.41777,-8.83743 0,-5.07945 -2.92146,1.7551 -6.43955,-2.39522 1.21384,-3.34497 -0.84352,-2.08549 2.61285,-2.10612 -6.17209,-2.31257 -1.91335,3.46885 -2.79802,-1.50728 -0.49376,2.6223 -2.46884,-0.45425 -4.77309,-4.02638 1.97507,-3.88187 -1.78991,-1.13568 -3.31235,0.66075 0.78179,-3.53084 -1.62531,-2.51908 -5.90464,-2.68423 0.20573,-2.68425 -3.7444,-0.99113 -0.22631,-1.40409 -5.43144,-1.21824 -2.30425,-4.85233 -4.03244,-3.96445 -4.95825,4.15024 -1.04926,-2.04412 -3.06547,-0.78464 1.39901,-3.94377 -2.03679,-3.07661 2.67457,-2.00288 -1.97507,-1.54861 1.97507,-5.30658 -5.06112,-2.33328 -1.44015,1.67255 -1.70761,-0.37174 0.84351,-4.08828 -2.32482,-24.26163 22.81618,-34.06956 0,0 5.51374,3.42761 -2.63343,2.2713 1.58417,3.13853 -4.48505,8.32123 4.48505,0.0206 4.2176,2.10608 -1.33728,2.33325 3.06547,1.92025 3.06547,-3.48953 1.00811,2.16803 3.80613,-5.49235 0.90524,2.41578 3.37408,-1.81701 3.97071,3.79924 3.29179,0.43361 5.14341,-6.95842 -0.26746,-7.4334 3.18892,0.30974 -1.23442,-4.89362 4.83481,-5.84344 1.7899,-10.1176 4.97883,0.37165 -0.0412,-2.80815 0.14402,1.61057 5.10226,2.76684 -0.72008,-2.02352 1.39901,-3.17982 2.654,-0.33037 -0.76122,-5.86408 7.44766,0.47489 5.63718,-4.66648 4.42333,-0.59879 3.88843,1.23888 1.11097,5.80216 8.66151,0.61944 1.8722,-3.86122 -2.34539,-4.17093 1.50187,-1.65185 -1.50187,-1.40408 4.23817,-1.2389 -1.91335,-3.17983 0.0206,-4.17092 5.63718,-1.7964 1.37844,1.58992 1.52245,-1.58992 4.60849,0.49556 8.59979,-3.01464 3.5181,-8.15604 2.2631,0.90854 1.23442,-3.30371 -4.97883,-4.58391 1.62532,-4.06769 -2.48941,-1.1976 -1.31671,0.84657 -0.90525,-4.00574 -4.4439,1.03241 -1.62532,-1.44537 1.39901,-3.90252 -1.19328,-2.91137 -6.0075,-5.01754 4.85538,-2.97331 1.66647,1.52795 0.55548,-7.55724 4.73194,-5.595654 -1.21384,-2.870097 -6.33669,-0.867226 0.24689,-3.406953 10.01937,-5.07945 3.23006,0.68139 2.40712,-2.436486 2.38654,-0.14451 1.19327,1.589908 5.08169,-8.094091 -0.34975,-3.05593 3.1272,-5.554362 -0.63779,-4.811032 8.10602,6.359643 1.70761,-0.598795 3.18892,2.023524 0.22631,4.666487 6.8716,-5.471764 2.48941,1.56926 6.13095,-1.94093 1.54302,1.837687 2.59228,-0.123881 1.04926,-0.949815 -0.7818,-2.72556 1.78991,0.412962 3.4358,-3.88186 5.08169,-1.899629 0,0 2.90089,-0.185832 z"
     title="Veneto"
     id="IT-34"
     inkscape:connector-curvature="0" />
</svg>
