<?xml version="1.0" encoding="UTF-8" standalone="no"?>
<svg
   xmlns:mapsvg="http://mapsvg.com"
   xmlns:dc="http://purl.org/dc/elements/1.1/"
   xmlns:cc="http://creativecommons.org/ns#"
   xmlns:rdf="http://www.w3.org/1999/02/22-rdf-syntax-ns#"
   xmlns:svg="http://www.w3.org/2000/svg"
   xmlns="http://www.w3.org/2000/svg"
   height="788.57001"
   width="798.97998"
   id="svg2"
   mapsvg:geoViewBox="27.011231 -28.5708011 29.4557087 -30.6755788"
   version="1.1">
  <path
     d="m 357.06,425.27 -8.02,2.48 -2.67,3.7 6.42,3.69 4.8,8.61 1.61,7.39 1.61,6.78 0,3.7 9.08,0.6 6.95,-1.83 3.73,1.23 -3.2,7.39 1.61,6.16 2.66,6.77 0,2.48 -6.94,0 -5.88,3.07 1.07,5.56 0,8.63 13.36,0.61 7.49,0.62 9.09,1.23 8.55,4.94 4.82,6.16 4.8,4.33 4.82,3.7 3.2,-4.33 3.21,-3.7 -2.68,-7.4 -6.41,-9.86 -3.21,-6.16 -2.66,-4.93 -4.82,-1.86 -4.28,-2.47 -0.59,-2.74 -4.89,-23.13 -4.93,-8.99 8.28,-10.1 -8.03,-8.62 -6.99,-0.95 -13.32,-2.13 -7.48,0 -10.16,-0.63 z M 98.68,356.7 l -0.8,-0.19 -1.52,1.62 -10.69,6.31 -6.99,2.97 -9.23,1.91 -5.87,3.24 -3.32,1.24 -9.64,1.02 -9.26,3.74 -1.77,1.21 -10.62,11.28 -1.49,1.05 -2.68,-1.17 -0.85,-2.34 -1.02,-1.95 -3.22,0.08 -1.76,1.6 -2.52,6.09 -2.23,2.85 -3.09,-4.49 -3.46,0 -2.48,3.55 -0.14,6.09 -4.03,9.37 2.64,1.29 4.7,3.83 4.31,2.42 4.38,3.9 9.57,14.5 2.8,5.62 0,0.04 0.03,0 27.11,64.86 5.38,-2.08 22.63,-10.92 9.31,-7.22 2.34,-0.82 1.58,0.35 1.94,1.19 2.61,0.87 6.67,-0.51 2.9,-1.02 2.24,-1.82 1.78,-1.96 3.12,-2.42 4.94,-0.94 2.95,0.82 1.53,2.07 -0.11,2.43 -5.65,15.67 -0.91,3.39 -0.92,6.97 0,6.52 0.71,5.34 0.92,4.23 1.17,3.72 2.55,5.84 0.45,0.88 1.12,1.2 8.4,6.11 7.04,6.74 2.39,0.59 1.84,-0.22 3,-1.66 2.24,-0.83 1.53,-1.21 0.96,-1.29 1.34,-3.04 0.72,-1.24 0.81,-1.07 13.69,-13.77 0.92,-1.41 0.88,-1.98 0.51,-2 0.56,-1.19 1.32,-1.12 1.68,-1.15 1.78,-1.53 1.38,-1.53 0.91,-1.64 0.66,-1.75 1.58,-6.06 0.66,-0.18 1.02,0.88 1.48,2.06 3.1,1.72 4.24,0.39 7.03,-0.76 4.12,0.52 2.9,1.71 4.7,7.46 1.98,2.62 2.19,2.29 3.31,2.14 3.11,0 3.66,-1.53 3.22,-2.35 5.53,-0.24 4.8,-1.23 2.69,-6.17 6.41,-3.7 5.34,4.94 7.48,4.3 6.96,-1.84 5.34,-6.16 1.07,-4.96 -1.61,-8 5.89,0.61 5.88,7.39 3.74,5.56 2.13,-5.56 1.07,-9.23 3.75,-4.94 5.87,3.7 5.35,6.17 8.56,0 8.01,0 8.55,5.54 8.57,2.48 4.8,1.24 0.54,-8.66 6.86,-4.05 -3.26,-2.78 -1.07,-2.52 -2.49,-3.03 -4.08,-2.16 -14.82,-2.05 -5.19,-1.55 -7.2,-5.49 -7.33,-3.5 -42.32,-8.22 -7.04,-2.4 -12.9,-0.1 -27.45,3.99 -3.71,-1.9 -0.51,-2.64 2.54,-3.15 3.21,-3.2 1.68,-4.42 -0.26,-5.38 -15.94,-26.25 -3.41,-2.64 -3.41,-0.74 -10.4,0.35 -7.74,-1.99 -3.71,-3.4 -1.38,-3.98 0.21,-8.61 -0.87,-3.09 -1.59,-0.45 -1.94,1.27 -5.65,7.19 -1.42,1.23 -1.89,1.07 -8.66,2.54 -3.16,0.02 -2.54,-0.37 -4.94,-1.45 -2.34,-1.64 -1.48,-2.38 -0.1,-2.69 -0.66,-3.4 -1.63,-4.28 -8.36,-9.52 -2.35,-3.98 -1.27,-3.67 -4.07,-7.23 -1.02,-3.16 -1.02,-6.56 -1.42,-3.14 -1.7,-1.57 -1.98,-0.98 -2.24,-0.43 -1.68,0.08 -3.61,0.76 -6.98,-1.64 z"
     class="land"
     title="Mafeteng"
     id="LS-E" />
  <path
     d="m 516.14,290.9 -3.61,-0.29 -4.73,-1.75 -16.26,-9.03 -10.75,-4.05 -9.22,-2.08 -3.25,-0.23 -3.68,-1.44 -3.21,-3.04 -8.14,-16.61 -8.93,-25.59 -3.87,-7.68 -1.11,-3.75 -0.16,-3.71 0.21,-3.36 -0.26,-2.62 -1.32,-2.04 -2.14,-1.28 -2.39,-0.76 -5.21,-0.93 -3.21,-0.13 -3.3,0.52 -3.72,1.07 -3.46,3.44 -5.21,12.79 1.07,5.58 2.61,3.73 1.17,2.1 1.02,2.33 1.73,5.64 4.53,11.1 0.05,5.89 -1.52,3.83 -2.6,3.11 -14.32,10.83 -1.58,1.72 -2.74,4.39 -1.02,1.93 -3.26,5.16 -17.78,16.62 -3.22,1.77 -4.18,1.67 -2.54,0.35 -1.83,1.97 -1.53,3.18 -1.22,3.6 -0.77,3.21 -0.35,3.55 0.35,3.7 -0.86,5.57 0.61,3.23 1.07,2.4 1.88,2.18 0.97,1.6 0.86,0.97 2.09,0.9 0.66,1.56 0.56,1.95 0.77,1.44 2.64,1.17 1.17,1.64 0.87,2.86 8.46,48.87 -0.4,3.92 0.46,3.3 4.93,19.16 6.99,0.95 8.03,8.62 -8.28,10.1 4.93,8.99 4.89,23.13 0.59,2.74 4.28,2.47 4.82,1.86 2.66,4.93 3.21,6.16 6.41,-3.7 6.41,-0.62 4.82,-1.24 0,-5.53 1.61,-6.19 8.01,-3.07 6.41,3.07 5.89,-1.83 8.02,-4.93 8.55,-5.56 7.49,-2.46 8.55,-1.23 3.2,-4.3 9.33,-7.14 5.55,-2.09 3.21,-0.19 4.32,0.17 6.69,1.55 9.16,3.61 6.31,3.64 6.07,4.57 2.34,2.31 1.73,2.46 0.97,2.84 0.26,3.32 -0.61,7.22 0.15,3.09 0.76,2.39 1.53,2.01 1.83,1.47 1.43,0.67 4.15,-1.9 2.43,-2.53 2.09,-2.7 2.34,-2.34 3.13,-1.47 3.13,0.18 3.08,0.99 3.14,0.36 3.31,-1.75 2.56,-4.71 -0.88,-4.77 -2.09,-4.65 0.51,-0.12 3.06,-0.71 6.77,-0.05 4.8,0.95 4.42,1.92 17.68,14.53 4.84,2.13 5.29,0.61 6.74,-0.9 5.24,-1.66 4.88,-2.57 5.11,-5.71 2.34,-4.2 1.32,-4.21 2.6,-23.2 1.83,-2.95 3.16,-1.76 6.78,1.65 11.05,4.25 6.73,0.71 4.92,-1.25 0.17,-0.05 0.05,-1.03 6.13,-11.29 4.15,-10.7 5.33,-9.45 9.54,-7.58 25.27,-7.85 3.7,-4.72 -0.07,-6.24 0.51,-5.89 5.36,-3.71 -4.68,-5.85 -2.25,-9.01 0.01,-1.49 -0.15,-0.03 -5.43,-0.96 -1.42,0.28 -1.43,0.7 -7.79,5.96 -2.03,1.23 -9.18,2.79 -3.21,1.6 -6.1,5.83 -1.63,0.61 -3.07,-0.7 -2.45,-1.66 -4.48,-4.49 -2.59,-3.96 -3.67,-7.8 -3.57,-3.25 -5.25,-3.1 -9.77,-4.02 -10.35,-3.04 -3,-0.04 -2.6,0.63 -4.9,2.55 -2.95,0.78 -3.26,0.15 -3.76,-0.29 -16.16,0.84 -4.42,-0.31 -14.93,-4.76 -5.24,-0.72 -14.63,1.05 -2.29,-0.58 -1.27,-2.5 -0.2,-1.28 0.15,-1.37 -0.73,-1.15 4.29,-4.15 2.7,-4.3 1.73,-5.61 0.61,-7.72 -0.76,-15.61 0.5,-7.75 0.02,-0.04 -1.8,-0.52 -1.37,-1.37 -2.44,-1.22 -5.35,-1.17 -3.93,-0.45 -3.41,0.06 -1.99,0.76 -1.12,1.32 -1.07,1.72 -1.73,0.99 -2.19,-1.01 -4.83,-6.6 -2.66,-2.02 -4.69,-1.7 -2.9,-1.75 -1.17,-2.78 0.77,-2.39 3.3,-6.02 9.44,-21.77 1.17,-5.1 -0.11,-3.87 -1.47,-3.73 -1.63,-2.56 -1.8,-1.5 -2.34,0.76 -3.56,2.45 -18.9,16.31 -8.55,4.82 -13.1,3.01 0.26,4.05 0.56,1.38 1.42,2.51 9.28,12.35 2.24,2.08 3.72,2.82 1.32,1.83 0.35,1.34 -1.01,1.37 -1.89,1.38 -2.44,0.87 -9.79,0.84 z"
     class="land"
     title="Thaba-Tseka"
     id="LS-K" />
  <path
     d="m 688.08,445.71 -6.73,-0.71 -11.05,-4.25 -6.78,-1.65 -3.16,1.76 -1.83,2.95 -2.6,23.2 -1.32,4.21 -2.34,4.2 -5.11,5.71 -4.88,2.57 -5.24,1.66 -6.74,0.9 -5.29,-0.61 -4.84,-2.13 -17.68,-14.53 -4.42,-1.92 -4.8,-0.95 -6.77,0.05 -3.06,0.71 -0.51,0.12 2.09,4.65 0.88,4.77 -2.56,4.71 -3.31,1.75 -3.14,-0.36 -3.08,-0.99 -3.13,-0.18 -3.13,1.47 -2.34,2.34 -2.09,2.7 -2.43,2.53 -4.15,1.9 -1.43,-0.67 -1.83,-1.47 -1.53,-2.01 -0.76,-2.39 -0.15,-3.09 0.61,-7.22 -0.26,-3.32 -0.97,-2.84 -1.73,-2.46 -2.34,-2.31 -6.07,-4.57 -6.31,-3.64 -9.16,-3.61 -6.69,-1.55 -4.32,-0.17 -3.21,0.19 -5.55,2.09 4.84,8.96 -0.1,8.07 -1.99,9.33 -0.66,7.08 1.93,11.49 0.05,4.69 -1.42,4.39 -2.39,2.4 -3.84,2 -11.24,4.56 -3.47,2.45 -3.27,3.05 -4.12,6.11 -2.65,2.57 -2.03,1.64 -1.84,0.71 -1.52,0.82 -1.73,1.14 -7.25,6.03 -11.45,7.7 -1.44,0.39 -0.87,0.57 -1.22,-1.45 -5.36,-9.56 -3.65,-3.62 -11.87,-2.55 -10.13,5.05 -1.66,1.2 2.53,8.62 2.18,6.49 -0.96,2.94 -1.53,1.43 -6.28,0.45 -10.02,5.27 -2.6,2.71 -1.53,2.88 -1.52,6.47 -0.41,3.12 0,2.84 0.46,2.49 1.22,2.47 2.44,2.45 3.62,1.61 28.46,3.51 2.46,-0.11 1.99,-0.38 1.98,0.97 1.58,0.98 5.67,7.9 0.09,0.14 2.79,-5.3 6.5,-5.73 7.9,-1.25 15.85,2.31 8.11,-2.9 14.25,-8.59 5.33,-1.3 5.49,0.63 15.95,6.2 11.1,0.08 29.48,-11.26 21.72,-4.71 21.13,-8.74 38.18,-25.2 12.96,-8.09 25.72,-16.04 4,-1.8 8.69,-2.58 3.76,-1.88 2.11,-3.25 -0.78,-3.72 -3.6,-7.28 -0.71,-5.32 0.2,-3.36 -0.92,-2.7 -4.14,-3.25 -4.78,-6.77 0.17,-9.07 1.97,-10.01 0.42,-8.43 -0.17,0.05 -4.92,1.25 z"
     class="land"
     title="Qacha's Nek"
     id="LS-H" />
  <path
     d="m 609.59,75.67 -0.07,-0.07 -4.96,-3.02 -5.17,-1.95 0,0 -0.31,0.87 -2.95,22.11 0.31,8.09 0.66,2.09 0.76,1.24 0.77,1.01 0.81,0.82 0.71,0.98 0.21,1.3 -0.31,1.72 -2.09,2.79 -1.62,1.54 -8.98,4.04 -1.58,7.52 -2.74,5.6 -1.12,5.14 -2.55,36.73 -2.31,7.79 -2.44,5.53 -4.89,5.57 -27.19,25.11 -3.48,2.58 -3.15,1.32 -6.37,1.52 -3.66,2.16 -3.72,3.36 -5,5.87 -2.54,4.8 -1.23,4.68 -0.25,6.96 -1.02,6.61 13.1,-3.01 8.55,-4.82 18.9,-16.31 3.56,-2.45 2.34,-0.76 1.8,1.5 1.63,2.56 1.47,3.73 0.11,3.87 -1.17,5.1 -9.44,21.77 -3.3,6.02 -0.77,2.39 1.17,2.78 2.9,1.75 4.69,1.7 2.66,2.02 4.83,6.6 2.19,1.01 1.73,-0.99 1.07,-1.72 1.12,-1.32 1.99,-0.76 3.41,-0.06 3.93,0.45 5.35,1.17 2.44,1.22 1.37,1.37 1.8,0.52 -0.02,0.04 -0.5,7.75 0.76,15.61 -0.61,7.72 -1.73,5.61 -2.7,4.3 -4.29,4.15 0.73,1.15 -0.15,1.37 0.2,1.28 1.27,2.5 2.29,0.58 14.63,-1.05 5.24,0.72 14.93,4.76 4.42,0.31 16.16,-0.84 3.76,0.29 3.26,-0.15 2.95,-0.78 4.9,-2.55 2.6,-0.63 3,0.04 10.35,3.04 9.77,4.02 5.25,3.1 3.57,3.25 3.67,7.8 2.59,3.96 4.48,4.49 2.45,1.66 3.07,0.7 1.63,-0.61 6.1,-5.83 3.21,-1.6 9.18,-2.79 2.03,-1.23 7.79,-5.96 1.43,-0.7 1.42,-0.28 5.43,0.96 0.15,0.03 0.1,-8.18 2.38,-7.91 6.92,-7.1 9.26,-4.09 9.78,-3.04 8.65,-3.82 3.73,-2.8 2.75,-3.35 1.53,-4.21 -0.23,-5.45 0.62,-5.92 6.07,-8.72 1.2,-5.49 -1.01,-2.18 -4.38,-4.36 -1.46,-2.3 -0.34,-2.72 0.31,-5.76 -0.31,-2.29 -3.32,-8.13 -9.17,-12.49 -3.59,-13.25 -2.48,-6.38 -4.51,-5.09 -5.14,-3.92 -3.68,-4.51 -1.67,-21.63 -9.97,-4.2 -13.13,-0.35 -10.83,-3.3 -27.07,-28.71 -11.3,-5.2 -7.4,-1.98 -4.34,-2.98 -1.9,-4.77 -0.1,-7.37 -3.01,-3.76 -7.07,-3.37 -7.74,-2.14 -4.78,0.28 -18.05,-18.57 -13.2,-23.35 -4.21,-5.11 -4.54,-3.96 z"
     class="land"
     title="Mokhotlong"
     id="LS-J" />
  <path
     d="m 423.33,88.07 -8.35,-1.74 -1.99,-1.69 -1.49,-3.29 -1.42,-8.22 -0.11,-13.08 -1.52,-5.23 -6.77,-4.33 -2.49,-1.9 -17.75,1.78 -2.99,-1.16 -3.25,4.65 -4.38,5.45 -9.06,13.39 -1.05,2.17 -14.56,15.6 -12.42,16.62 -1.39,2.98 0.1,2.91 -0.4,2.2 -2.92,0.86 -8.92,0 -3.7,-1.9 -3.06,-3.95 -3.9,-3.61 -6.17,-0.77 -4.79,2.75 -2.64,4.96 -2.07,5.93 -3.06,5.66 -8.75,3.95 -37.39,-2.56 2.41,6.32 -3.52,2.91 -5.17,1.78 -2.68,2.99 -0.03,5.19 -0.34,3.03 -0.77,2.01 -0.73,1.21 -0.35,1.16 -0.02,2.75 -0.54,1.56 -1.33,-0.12 -1.56,-0.51 -1.25,0.47 -6.35,9.19 -4.02,4.35 -4.09,1.82 -5.21,1.44 1.51,3.45 4.11,4.23 2.85,3.73 -2.09,0.39 -3.03,1.55 -1.63,0.62 -2.26,-2.56 -2.22,2.56 1.22,6.95 2.82,0 8.7,-3.98 5.45,-0.05 4.09,0.75 4.12,1.77 3.76,-1.01 12.39,-8.41 3.82,-0.95 2.85,-1.16 2.39,-1.26 12.18,-8.09 2.7,-0.12 2.8,1.47 5.08,3.79 2.87,1.49 3.41,0.8 5.55,0.35 3.92,-2.64 3.05,-2.74 9.33,-14.41 3.06,-3.24 4.22,-2.76 2.65,-4.46 2.1,-6.43 3.67,-4.83 3.1,-1.57 3.31,0.41 3.76,1.57 4.08,2.73 4.14,3.55 4.12,4.69 7.43,6.28 2.76,3.22 2.29,3.98 2.04,4.48 2.65,4.04 3,2.17 3.41,1.09 7.04,1.24 3.21,0.97 3.25,1.65 3.77,2.87 3.36,3.26 5.67,7.03 1.83,2.99 1.52,3.01 3.16,4.02 10.96,3.03 3.46,-3.44 3.72,-1.07 3.3,-0.52 3.21,0.13 5.21,0.93 2.39,0.76 2.14,1.28 1.32,2.04 0.26,2.62 -0.21,3.36 0.16,3.71 1.11,3.75 3.87,7.68 8.93,25.59 8.14,16.61 3.21,3.04 3.68,1.44 3.25,0.23 9.22,2.08 10.75,4.05 16.26,9.03 4.73,1.75 3.61,0.29 9.79,-0.84 2.44,-0.87 1.89,-1.38 1.01,-1.37 -0.35,-1.34 -1.32,-1.83 -3.72,-2.82 -2.24,-2.08 -9.28,-12.35 -1.42,-2.51 -0.56,-1.38 -0.26,-4.05 1.02,-6.61 0.25,-6.96 1.23,-4.68 2.54,-4.8 5,-5.87 3.72,-3.36 3.66,-2.16 6.37,-1.52 3.15,-1.32 3.48,-2.58 27.19,-25.11 4.89,-5.57 2.44,-5.53 2.31,-7.79 2.55,-36.73 1.12,-5.14 2.74,-5.6 1.58,-7.52 -8.75,2.31 -2.16,1.12 -1.68,1.52 -3.86,4.9 -8.86,13.78 -1.78,3.82 -1.22,4.02 -1.85,12.02 -0.92,3.03 -1.68,2.96 -2.08,2.58 -2.8,2.47 -2.96,1.96 -3.66,1.75 -3.94,1.33 -4.07,0.88 -3.56,0.39 -3.72,-0.22 -3.41,-0.58 -14.62,-5.65 -2.7,-0.29 -2.36,0.35 -1.62,1.17 -1.33,2.05 -4.12,8.43 -1.02,1.63 -1.52,1.1 -2.6,-0.42 -2.6,-2.28 -2.95,-6.25 -0.93,-4.71 0.07,-4.33 6.97,-24.44 0.3,-3.58 -0.55,-4.07 -1.58,-5.18 -0.77,-4.19 -0.25,-4.38 -0.61,-3.95 -1.53,-4.07 -4.39,-2.32 -2.65,-0.58 -5.39,-0.12 -3.46,-0.52 -2.85,-1.15 -2.62,-2.05 -3.1,-3.95 -3,-2.93 -4.74,-2.4 -3.51,-1.14 -3.77,-1.99 -11.57,-8.22 -4.37,-1.52 -3.89,-0.22 -2.8,0.76 -2.64,0.21 z"
     class="land"
     title="Leribe"
     id="LS-C" />
  <path
     d="m 535.82,0 -4.88,0.62 -18.7,12.75 -6.51,1.58 -45.71,3.06 -6.72,2.82 -6.38,6.42 -8.89,15.35 -6.31,5.76 -6.61,2.56 -7.6,1 -7.57,-0.81 -6.62,-2.94 -4.13,0.42 2.49,1.9 6.77,4.33 1.52,5.23 0.11,13.08 1.42,8.22 1.49,3.29 1.99,1.69 8.35,1.74 2.64,-0.21 2.8,-0.76 3.89,0.22 4.37,1.52 11.57,8.22 3.77,1.99 3.51,1.14 4.74,2.4 3,2.93 3.1,3.95 2.62,2.05 2.85,1.15 3.46,0.52 5.39,0.12 2.65,0.58 4.39,2.32 1.53,4.07 0.61,3.95 0.25,4.38 0.77,4.19 1.58,5.18 0.55,4.07 -0.3,3.58 -6.97,24.44 -0.07,4.33 0.93,4.71 2.95,6.25 2.6,2.28 2.6,0.42 1.52,-1.1 1.02,-1.63 4.12,-8.43 1.33,-2.05 1.62,-1.17 2.36,-0.35 2.7,0.29 14.62,5.65 3.41,0.58 3.72,0.22 3.56,-0.39 4.07,-0.88 3.94,-1.33 3.66,-1.75 2.96,-1.96 2.8,-2.47 2.08,-2.58 1.68,-2.96 0.92,-3.03 1.85,-12.02 1.22,-4.02 1.78,-3.82 8.86,-13.78 3.86,-4.9 1.68,-1.52 2.16,-1.12 8.75,-2.31 8.98,-4.04 1.62,-1.54 2.09,-2.79 0.31,-1.72 -0.21,-1.3 -0.71,-0.98 -0.81,-0.82 -0.77,-1.01 -0.76,-1.24 -0.66,-2.09 -0.31,-8.09 2.95,-22.11 0.31,-0.87 0,0 -0.26,-0.1 -10.24,-1.85 -2.72,-2.09 -9.53,-18.07 -4.85,-4.1 -14.56,-0.39 -3.46,-5.26 L 551.4,23.42 549.39,16.08 546.41,9.89 542.03,4.6 535.82,0 Z"
     class="land"
     title="Butha-Buthe"
     id="LS-B" />
  <path
     d="m 353.45,788.57 0.06,-7.46 -0.81,-6.11 -0.22,-6.19 1.88,-7.69 2.12,-3.54 2.73,-1.97 2.8,-1.54 2.62,-2.25 2.63,-3.47 1.12,-2.32 5.56,-17.72 0.41,-3.12 -1.05,-3.78 -3.84,-6.69 -0.71,-2.99 2.58,-4.53 27.89,-22.07 4.34,-5.15 2.31,-8.22 -0.88,-8.69 -3.84,-3.38 -4.82,-2.24 -3.59,-5.15 0.71,-7.07 5.06,-5.74 6.88,-4.2 6.01,-2.44 9.65,-1.41 3.18,-1.41 2.27,-2.28 4.07,-5.97 3.05,-2.32 5.14,-5.18 5.56,-10.56 -0.09,-0.14 -5.67,-7.9 -1.58,-0.98 -1.98,-0.97 -1.99,0.38 -2.46,0.11 -28.46,-3.51 -3.62,-1.61 -2.44,-2.45 -1.22,-2.47 -0.46,-2.49 0,-2.84 0.41,-3.12 1.52,-6.47 1.53,-2.88 2.6,-2.71 10.02,-5.27 6.28,-0.45 1.53,-1.43 0.96,-2.94 -2.18,-6.49 -2.53,-8.62 -8.18,5.9 -10.99,3.64 -14.22,-1.27 -7.5,1.21 -3.26,4.92 -2,5.23 -4.85,3.12 -11.25,3.47 -5.87,0.8 -17.03,-4.35 -2.85,0.2 -8.33,1.86 -8.89,-0.04 -3.44,1.39 -2.75,2.26 -2.33,3.04 -6.94,13.04 -1.25,4.88 -0.05,5.57 2.65,9.42 0.45,4.55 -1.85,4.61 -1.61,1.54 -3.9,2.69 -1.7,1.86 -1.12,2.08 -1.76,4.69 -1.15,2.18 -8.96,4.95 -5.24,6.38 -1.48,1.42 -5.63,2.12 -5.84,0.3 -11.13,-2.42 -1.27,-1.12 -2.24,-3.85 -1.61,-1.06 -3.11,0.35 -1.22,2.26 0.05,3.26 0.62,3.52 4.86,14.89 0.38,7.18 -3.82,7.37 -11.11,5.11 -22.33,-9.02 -11.69,3.18 -2.2,3.42 -2.19,8.3 -2.29,2.85 -2.72,0.35 -3.49,-0.88 -4.47,1.61 1.06,3.72 8.58,8.5 7.91,11.21 1.09,3.39 0.16,3.42 0.55,3.43 2.07,3.23 20,15.32 17.73,20.29 9.87,6.31 11.44,3.58 13.77,1.86 3.29,-0.55 6.28,-3.12 2.85,-0.47 3.8,1.3 2.78,2.21 2.58,2.6 3.12,2.48 6.55,3.31 6.89,2.25 38.78,3.39 7.91,3.48 z"
     class="land"
     title="Quthing"
     id="LS-G" />
  <path
     d="m 448.38,549.4 0.87,-0.57 1.44,-0.39 11.45,-7.7 7.25,-6.03 1.73,-1.14 1.52,-0.82 1.84,-0.71 2.03,-1.64 2.65,-2.57 4.12,-6.11 3.27,-3.05 3.47,-2.45 11.24,-4.56 3.84,-2 2.39,-2.4 1.42,-4.39 -0.05,-4.69 -1.93,-11.49 0.66,-7.08 1.99,-9.33 0.1,-8.07 -4.84,-8.96 -9.33,7.14 -3.2,4.3 -8.55,1.23 -7.49,2.46 -8.55,5.56 -8.02,4.93 -5.89,1.83 -6.41,-3.07 -8.01,3.07 -1.61,6.19 0,5.53 -4.82,1.24 -6.41,0.62 -6.41,3.7 6.41,9.86 2.68,7.4 -3.21,3.7 -3.2,4.33 -4.82,-3.7 -4.8,-4.33 -4.82,-6.16 -8.55,-4.94 -9.09,-1.23 -7.49,-0.62 -13.36,-0.61 -5.35,6.16 -8.55,2.47 -2.76,-8.38 -6.86,4.05 -0.54,8.66 -4.8,-1.24 -8.57,-2.48 -8.55,-5.54 -8.01,0 -8.56,0 -5.35,-6.17 -5.87,-3.7 -3.75,4.94 -1.07,9.23 -2.13,5.56 -3.74,-5.56 -5.88,-7.39 -5.89,-0.61 1.61,8 -1.07,4.96 -5.34,6.16 -6.96,1.84 -7.48,-4.3 -5.34,-4.94 -6.41,3.7 -2.69,6.17 -4.8,1.23 -5.53,0.24 -3.22,2.35 -3.66,1.53 -3.11,0 -3.31,-2.14 -2.19,-2.29 -1.98,-2.62 -4.7,-7.46 -2.9,-1.71 -4.12,-0.52 -7.03,0.76 -4.24,-0.39 -3.1,-1.72 -1.48,-2.06 -1.02,-0.88 -0.66,0.18 -1.58,6.06 -0.66,1.75 -0.91,1.64 -1.38,1.53 -1.78,1.53 -1.68,1.15 -1.32,1.12 -0.56,1.19 -0.51,2 -0.88,1.98 -0.92,1.41 -13.69,13.77 -0.81,1.07 -0.72,1.24 -1.34,3.04 -0.96,1.29 -1.53,1.21 -2.24,0.83 -3,1.66 -1.84,0.22 -2.39,-0.59 -7.04,-6.74 -8.4,-6.11 -1.12,-1.2 -0.45,-0.88 -2.55,-5.84 -1.17,-3.72 -0.92,-4.23 -0.71,-5.34 0,-6.52 0.92,-6.97 0.91,-3.39 5.65,-15.67 0.11,-2.43 -1.53,-2.07 -2.95,-0.82 -4.94,0.94 -3.12,2.42 -1.78,1.96 -2.24,1.82 -2.9,1.02 -6.67,0.51 -2.61,-0.87 -1.94,-1.19 -1.58,-0.35 -2.34,0.82 -9.31,7.22 -22.63,10.92 -5.38,2.08 9.03,21.61 6.27,7.4 15.75,13.37 4.68,7.64 4.44,18 2.21,5.33 4.05,6.32 3.04,1.21 4.07,-0.98 7.3,0 5.02,1.42 3.09,2.55 -0.28,3.76 -4.92,5.03 -7.17,17.9 0.61,10.87 7.31,20.47 -0.54,5.93 3.56,0.44 0.23,0.06 6.54,1.86 3.34,0.51 2.31,-0.39 6.96,-2.91 5.27,0.08 2.39,2.48 2.41,9.31 3.53,5.78 5.16,4.33 11.98,5.54 1.21,4.27 4.47,-1.61 3.49,0.88 2.72,-0.35 2.29,-2.85 2.19,-8.3 2.2,-3.42 11.69,-3.18 22.33,9.02 11.11,-5.11 3.82,-7.37 -0.38,-7.18 -4.86,-14.89 -0.62,-3.52 -0.05,-3.26 1.22,-2.26 3.11,-0.35 1.61,1.06 2.24,3.85 1.27,1.12 11.13,2.42 5.84,-0.3 5.63,-2.12 1.48,-1.42 5.24,-6.38 8.96,-4.95 1.15,-2.18 1.76,-4.69 1.12,-2.08 1.7,-1.86 3.9,-2.69 1.61,-1.54 1.85,-4.61 -0.45,-4.55 -2.65,-9.42 0.05,-5.57 1.25,-4.88 6.94,-13.04 2.33,-3.04 2.75,-2.26 3.44,-1.39 8.89,0.04 8.33,-1.86 2.85,-0.2 17.03,4.35 5.87,-0.8 11.25,-3.47 4.85,-3.12 2,-5.23 3.26,-4.92 7.5,-1.21 14.22,1.27 10.99,-3.64 8.18,-5.9 1.66,-1.2 10.13,-5.05 11.87,2.55 3.65,3.62 5.36,9.56 1.22,1.45 z"
     class="land"
     title="Mohale's Hoek"
     id="LS-F" />
  <path
     d="m 341.32,301.2 -2.51,-0.62 -2.04,-2.22 -1.02,-2.81 -0.25,-3.44 0.71,-8.31 0,-3.85 -0.3,-3.53 -2.4,-10.71 -1.07,-3.12 -1.47,-2.27 -1.73,-0.08 -2.04,2.04 -6.11,9.2 -2.86,3.33 -6.82,5.43 -6.21,3.42 -3.58,1.34 -9.72,1.97 -3.92,-0.56 -3,-1.11 -19.87,-11.87 -5.31,-1.83 -3.66,-0.45 -3.36,0.1 -6.03,1.42 -2.44,1.17 -1.78,1.47 -1.12,2.11 -0.56,2.29 -0.81,2.49 -1.68,1.75 -4.89,0.92 -5.34,-2.01 -9.74,-1.98 -5.04,-2.41 -8.21,-5.98 -2.6,-0.64 -2.29,1.11 -3.81,5.29 -3.26,2.86 -3.99,1.75 -7.38,1.17 -3.71,-0.35 -3.06,-1.48 -1.47,-2.22 -0.89,-2.21 -0.03,-1.74 0.2,-1.18 1.58,-4.18 -0.1,-1.04 -0.56,-0.83 -1.29,-0.74 -1.63,-0.49 -1.27,-0.74 -0.92,-0.81 -1.47,-2.86 -0.25,-0.61 -13.39,4.4 -5.45,3.46 -0.98,3.04 -0.65,8.75 -0.81,3.39 -3.19,4.36 -3.05,1.67 -3.02,1.01 -2.96,2.42 -0.78,2.61 1.33,2.18 1.93,2.33 0.95,2.96 -0.47,4.79 -1.29,2.26 -2.18,1.64 -13.64,14.99 -3.63,5.89 -1.39,6.78 -1.76,1.6 -7.7,-0.35 -1.77,1.36 -0.64,4.33 -1.63,3.97 -2.17,3.36 -0.72,0.76 0.8,0.19 6.98,1.64 3.61,-0.76 1.68,-0.08 2.24,0.43 1.98,0.98 1.7,1.57 1.42,3.14 1.02,6.56 1.02,3.16 4.07,7.23 1.27,3.67 2.35,3.98 8.36,9.52 1.63,4.28 0.66,3.4 0.1,2.69 1.48,2.38 2.34,1.64 4.94,1.45 2.54,0.37 3.16,-0.02 8.66,-2.54 1.89,-1.07 1.42,-1.23 5.65,-7.19 1.94,-1.27 1.59,0.45 0.87,3.09 -0.21,8.61 1.38,3.98 3.71,3.4 7.74,1.99 10.4,-0.35 3.41,0.74 3.41,2.64 15.94,26.25 0.26,5.38 -1.68,4.42 -3.21,3.2 -2.54,3.15 0.51,2.64 3.71,1.9 27.45,-3.99 12.9,0.1 7.04,2.4 42.32,8.22 7.33,3.5 7.2,5.49 5.19,1.55 14.82,2.05 4.08,2.16 2.49,3.03 1.07,2.52 3.26,2.78 2.76,8.38 8.55,-2.47 5.35,-6.16 0,-8.63 -1.07,-5.56 5.88,-3.07 6.94,0 0,-2.48 -2.66,-6.77 -1.61,-6.16 3.2,-7.39 -3.73,-1.23 -6.95,1.83 -9.08,-0.6 0,-3.7 -1.61,-6.78 -1.61,-7.39 -4.8,-8.61 -6.42,-3.69 2.67,-3.7 8.02,-2.48 10.16,0.63 7.48,0 13.32,2.13 -4.93,-19.16 -0.46,-3.3 0.4,-3.92 -8.46,-48.87 -0.87,-2.86 -1.17,-1.64 -2.64,-1.17 -0.77,-1.44 -0.56,-1.95 -0.66,-1.56 -2.09,-0.9 -0.86,-0.97 -0.97,-1.6 -1.88,-2.18 -1.07,-2.4 -0.61,-3.23 0.86,-5.57 -0.35,-3.7 0.35,-3.55 0.77,-3.21 1.22,-3.6 1.53,-3.18 1.83,-1.97 2.54,-0.35 4.18,-1.67 3.22,-1.77 17.78,-16.62 -9.59,-15.26 -1.42,-0.52 -1.78,-0.45 -0.77,1.32 -1.11,1.17 -1.28,0.87 -7.09,2.49 -2.54,1.29 -2.19,1.77 -3.77,4.73 -10.6,8.37 -7.58,7.68 -3.31,2.05 z"
     class="land"
     title="Maseru"
     id="LS-A" />
  <path
     d="m 414.42,205.56 -10.96,-3.03 -3.16,-4.02 -1.52,-3.01 -1.83,-2.99 -5.67,-7.03 -3.36,-3.26 -3.77,-2.87 -3.25,-1.65 -3.21,-0.97 -7.04,-1.24 -3.41,-1.09 -3,-2.17 -2.65,-4.04 -2.04,-4.48 -2.29,-3.98 -2.76,-3.22 -7.43,-6.28 -4.12,-4.69 -4.14,-3.55 -4.08,-2.73 -3.76,-1.57 -3.31,-0.41 -3.1,1.57 -3.67,4.83 -2.1,6.43 -2.65,4.46 -4.22,2.76 -3.06,3.24 -9.33,14.41 -3.05,2.74 -3.92,2.64 -5.55,-0.35 -3.41,-0.8 -2.87,-1.49 -5.08,-3.79 -2.8,-1.47 -2.7,0.12 -12.18,8.09 -2.39,1.26 -2.85,1.16 -3.82,0.95 -12.39,8.41 -3.76,1.01 -4.12,-1.77 -4.09,-0.75 -5.45,0.05 -8.7,3.98 -2.82,0 0.37,2.1 -7.43,13.98 -18.79,23.16 -2.38,1.32 -3.36,1.28 -3.31,1.99 -2.18,3.34 -0.17,3.61 2.05,8.75 0.54,4.36 -3.27,2.8 -2.71,0.89 0.25,0.61 1.47,2.86 0.92,0.81 1.27,0.74 1.63,0.49 1.29,0.74 0.56,0.83 0.1,1.04 -1.58,4.18 -0.2,1.18 0.03,1.74 0.89,2.21 1.47,2.22 3.06,1.48 3.71,0.35 7.38,-1.17 3.99,-1.75 3.26,-2.86 3.81,-5.29 2.29,-1.11 2.6,0.64 8.21,5.98 5.04,2.41 9.74,1.98 5.34,2.01 4.89,-0.92 1.68,-1.75 0.81,-2.49 0.56,-2.29 1.12,-2.11 1.78,-1.47 2.44,-1.17 6.03,-1.42 3.36,-0.1 3.66,0.45 5.31,1.83 19.87,11.87 3,1.11 3.92,0.56 9.72,-1.97 3.58,-1.34 6.21,-3.42 6.82,-5.43 2.86,-3.33 6.11,-9.2 2.04,-2.04 1.73,0.08 1.47,2.27 1.07,3.12 2.4,10.71 0.3,3.53 0,3.85 -0.71,8.31 0.25,3.44 1.02,2.81 2.04,2.22 2.51,0.62 3.31,-2.05 7.58,-7.68 10.6,-8.37 3.77,-4.73 2.19,-1.77 2.54,-1.29 7.09,-2.49 1.28,-0.87 1.11,-1.17 0.77,-1.32 1.78,0.45 1.42,0.52 9.59,15.26 3.26,-5.16 1.02,-1.93 2.74,-4.39 1.58,-1.72 14.32,-10.83 2.6,-3.11 1.52,-3.83 -0.05,-5.89 -4.53,-11.1 -1.73,-5.64 -1.02,-2.33 -1.17,-2.1 -2.61,-3.73 -1.07,-5.58 5.21,-12.79 z"
     class="land"
     title="Berea"
     id="LS-D" />
</svg>
