<?xml version="1.0" encoding="UTF-8" standalone="no"?>
<!-- Created for MapSVG plugin: http://mapsvg.com -->

<svg
        xmlns:mapsvg="http://mapsvg.com"
        xmlns:dc="http://purl.org/dc/elements/1.1/"
        xmlns:cc="http://creativecommons.org/ns#"
        xmlns:rdf="http://www.w3.org/1999/02/22-rdf-syntax-ns#"
        xmlns:svg="http://www.w3.org/2000/svg"
        xmlns="http://www.w3.org/2000/svg"
        xmlns:sodipodi="http://sodipodi.sourceforge.net/DTD/sodipodi-0.dtd"
        xmlns:inkscape="http://www.inkscape.org/namespaces/inkscape"
        mapsvg:geoViewBox="165.866591 -34.392118 183.847367 -52.610589"
        width="2149.6216"
        height="3038.8359"
        id="svg2"
        version="1.1"
        inkscape:version="0.91 r13725"
        sodipodi:docname="new-zealand.svg">
  <metadata
          id="metadata25">
    <rdf:RDF>
      <cc:Work
              rdf:about="">
        <dc:format>image/svg+xml</dc:format>
        <dc:type
                rdf:resource="http://purl.org/dc/dcmitype/StillImage" />
        <dc:title></dc:title>
      </cc:Work>
    </rdf:RDF>
  </metadata>
  <defs
          id="defs23" />
  <sodipodi:namedview
          pagecolor="#ffffff"
          bordercolor="#666666"
          borderopacity="1"
          objecttolerance="10"
          gridtolerance="10"
          guidetolerance="10"
          inkscape:pageopacity="0"
          inkscape:pageshadow="2"
          inkscape:window-width="1265"
          inkscape:window-height="735"
          id="namedview21"
          showgrid="false"
          showguides="true"
          inkscape:guide-bbox="true"
          inkscape:zoom="0.95505512"
          inkscape:cx="752.95639"
          inkscape:cy="174.04313"
          inkscape:window-x="0"
          inkscape:window-y="0"
          inkscape:window-maximized="0"
          inkscape:current-layer="svg2"
          fit-margin-top="0"
          fit-margin-left="0"
          fit-margin-right="0"
          fit-margin-bottom="0">
    <sodipodi:guide
            position="178.53314,2047.2909"
            orientation="0,1"
            id="guide4153" />
  </sodipodi:namedview>
  <path
          d="m 1114.4053,359.14661 3.1896,-0.24609 -2.1162,2.52357 1.2575,4.18541 -1.5642,3.29294 -5.0911,-5.97038 2.8216,-0.24619 -0.3374,-3.69291 1.8402,0.15411 z m -2.1469,-13.04872 2.7296,0.24609 1.2881,2.03125 -1.2574,2.18494 -1.5335,-0.86164 -3.0669,2.06191 1.4108,4.49322 -2.6683,4.61624 -2.0855,0 -1.6868,-0.0926 -1.8095,-0.95405 -3.0976,-0.64631 -1.4722,-1.10785 1.0735,-1.56957 -4.2938,-0.12294 1.1348,-1.81573 -3.251,-2.36965 -3.2509,3.20064 -0.1534,-6.09347 3.4657,-0.61553 0.276,2.58509 5.1525,-2.80056 0.8894,3.01596 3.7723,0.0926 0.7054,-3.3237 5.0298,0.18446 2.6989,-2.3389 z m -30.4241,-3.01593 2.3309,1.78491 -0.7667,6.46286 -1.9629,2.00034 -1.2881,-1.84651 -1.4721,2.55437 -6.0419,0.4309 -1.5028,-2.52359 1.3494,-2.89293 6.1953,-0.21542 3.0669,-3.20058 0.092,-2.55438 z m -9.0475,-50.22517 4.5391,3.57 -0.552,5.90879 -1.2575,-2.06192 -3.6496,1.38484 0.6747,-1.23101 -2.8216,-1.72338 3.0669,-5.84732 z m 30.3015,-32.89861 2.6989,1.96956 -1.9935,7.3553 -5.9499,-1.75417 0.1533,-5.17024 5.0912,-2.40045 z m -54.8064,-3.57 9.9983,14.77216 12.2678,4.49316 -0.092,2.21584 -3.0977,1.96956 0.6134,2.61596 -1.9321,-0.12316 -0.5828,0.0924 1.1961,4.46237 1.9322,-0.52315 4.0791,3.32372 3.4963,-0.61551 -2.5763,2.24652 -2.9749,-0.6155 -3.803,2.00045 -5.6432,1.07709 -1.5948,-1.47721 0.276,5.35485 2.1162,2.09281 3.6804,-0.15391 -0.3681,1.13866 -3.803,4.43169 -2.3002,2.83124 0.6134,-6.09339 -2.1469,-1.16954 -1.4721,3.1391 -1.6255,2.36963 3.803,2.03126 0.4601,7.38596 -2.6989,-0.80009 1.2574,3.32371 -1.8402,0.0926 -0.3987,1.93875 4.8151,6.986 3.8951,0.5539 0.9814,-2.9544 7.8207,-2.06188 -0.5827,4.03154 -7.2687,0.70777 -1.6561,2.61596 -3.803,0.6155 4.2937,7.44754 -1.6562,2.86216 3.0976,10.80207 4.4778,6.27816 -3.9871,-0.40009 1.5949,-1.29257 -3.4043,-2.92362 -2.9136,2.76978 -5.0912,1.04632 -4.2324,-7.72451 1.6255,-3.2315 -3.7723,3.63148 0.031,1.84655 0.3374,2.92368 1.3495,1.38482 -0.2761,5.60117 4.2324,4.30844 1.4108,-4.67778 2.7296,0.27706 1.9935,-2.76977 5.0911,0.8617 0.7054,3.16987 1.9016,0.3693 1.3494,-2.7083 6.778,0.0926 1.6254,3.72383 -3.4963,5.66261 5.5512,-4.98552 1.1348,-0.2461 5.7351,5.75496 3.5577,-0.58485 -0.9201,-4.06222 6.4406,-1.07721 3.8337,4.5855 1.2574,1.2618 2.883,4.83171 4.5084,-2.73899 2.1162,3.44686 3.7416,-3.07755 6.9007,4.09317 4.171,6.83202 0,0 -1.3801,3.26217 -7.9434,2.27742 -4.079,-3.35453 -2.3309,0.86171 -0.2147,5.78573 -8.3728,-0.95405 -1.6868,-2.64662 -5.3058,6.83204 -2.4842,8.24776 -3.9564,-0.15412 -2.4535,-2.36966 -1.5028,2.18497 0.8894,2.95449 1.1654,-1.23101 2.8829,3.01596 2.975,6.24732 -2.2389,4.09313 -7.1766,-0.61546 1.6561,2.64662 -1.9322,1.53876 -0.276,4.1854 -8.0047,-1.96956 -0.2761,4.18541 -4.9377,2.9544 0,0 -5.7966,3.07752 -0.736,-1.32336 -1.5642,1.56954 0.4601,3.63146 -1.9935,1.75425 -4.8458,-4.524 -17.6963,-40.931 -0.061,-3.87766 3.0056,-1.32335 5.1524,0.95404 2.4536,-1.96956 3.803,1.23101 0.7054,3.72373 -1.8708,2.49281 2.3615,3.13908 -0.8281,4.98555 3.343,1.16953 2.2696,12.80238 3.3123,0.61551 -3.9257,-11.9407 2.7602,1.07711 2.5456,0.70783 5.2751,-0.83089 -10.3969,-1.78508 -1.8709,-2.18492 6.0419,-1.78508 4.2631,-5.50864 2.1775,0.39999 -0.4294,2.83137 7.33,-8.09388 3.067,1.84653 2.2389,-1.13874 0.644,2.33898 3.343,-2.739 -2.8829,-2.12347 -2.1162,2.21575 -1.7789,-0.52318 -1.7481,-0.61552 -5.0298,-6.12426 -6.0419,1.32338 0.9814,-1.50801 -3.803,-2.46199 3.9564,-3.56992 -2.2082,-4.18551 3.987,-0.83089 3.4043,2.06191 1.3495,-2.24653 -4.6311,-0.80021 -2.1775,-0.58471 -5.0605,2.18503 -2.7909,-1.87728 -3.0363,1.13873 -5.7659,6.73972 -1.6561,-1.01555 -1.9015,4.30857 0.9814,2.89283 -4.5697,-1.44641 -0.7668,-1.75417 -1.1654,3.38517 -5.4592,4.00079 -3.0669,0.18456 -2.2696,-15.07991 -4.5697,-10.4327 -1.4415,-10.40204 -15.3347,-26.71289 -15.08938,-21.72735 0.82808,-5.32404 3.86435,-2.03124 4.10975,-0.98473 7.974,14.77204 8.9862,5.5088 -1.4722,5.47796 1.3188,0.7079 3.1896,2.9544 3.9257,-2.27745 0.5214,-2.00034 -3.7723,-1.90807 1.3494,-3.04677 2.8523,-1.32329 -4.5391,-11.63306 2.6682,-8.58627 -4.2937,-4.00079 -1.0121,2.0927 -3.1896,0.86179 -3.803,-4.06236 -1.3188,1.50798 -4.1404,-0.33854 -3.4656,-2.27732 1.9628,-9.6327 1.8402,-1.13866 7.054,3.26214 6.1339,-2.49281 0.7667,-3.16979 0,0 6.5939,-5.41641 1.6562,1.16943 1.1961,-4.33932 6.1952,-2.30811 0.3681,-4.12393 6.1338,-2.33888 0.3067,-4.12384 4.0484,-3.1391 0,0 1.5641,3.23136 z m 91.2723,-13.60261 1.9629,1.35415 -1.0734,4.55473 1.9628,-1.13876 0.3987,3.04675 2.4536,0.24628 -2.5149,1.4772 0.46,3.38528 1.0428,0.21541 8.158,4.55472 -2.6069,2.89282 0.4294,4.80102 -2.0855,1.01551 2.4535,4.89327 2.2696,-0.0308 4.079,4.24697 0.8894,3.32372 -3.3123,5.13945 -6.0418,-2.67742 0.6747,-1.93878 1.7788,0.46159 -0.7361,-2.9544 -3.3429,1.69259 -3.251,-0.6155 0.7361,-7.10902 -4.4471,1.16945 -0.8281,-2.40045 -1.6868,0.21539 -5.7658,-4.77013 -1.5335,2.09271 -1.2268,-3.44686 -0.092,-3.93922 2.1775,0.40011 1.2881,2.64664 2.5456,0.0308 -1.3801,-3.07753 0.552,-2.49281 -1.5028,-1.60024 1.9015,-1.20034 -5.4591,-1.72337 0.5827,-2.06191 1.5948,1.4464 5.6432,-2.12348 -4.2017,-3.5699 0.2147,-3.84686 6.8392,-2.58517 z"
          title="Auckland"
          id="NZ-AUK"
          inkscape:connector-curvature="0" />
  <path
          d="m 1210.094,454.64207 2.7602,1.50801 8.8022,13.07944 9.1088,9.78653 -1.1041,1.35403 -8.0047,-7.38595 -1.0428,3.69292 -5.1218,-2.83121 -0.276,-4.67788 4.9378,1.47721 -10.489,-12.12544 0.4294,-3.87766 z m 29.6267,247.06333 3.0363,-2.86212 2.8215,-0.27706 0.1227,-4.21619 -2.2388,-3.29289 2.5762,-3.53914 -2.6989,-3.93922 -0.5521,-8.1247 -3.2509,-0.36935 -1.0121,2.89294 -4.5084,-0.73866 0,0 -6.1646,-7.5707 0,0 -2.3309,-4.92396 2.0242,0.031 -3.0363,-2.98519 0,0 -1.4414,-3.60065 0,0 1.5641,-0.61553 0.7974,-6.15507 12.3291,3.47764 4.9378,-4.43166 -10.0596,-11.84846 3.9564,-7.35521 0.1227,-4.18547 1.5641,-0.61553 -9.9369,-4.4316 -2.3615,0.92328 -1.4415,-3.6007 -6.3792,0.83092 -0.9815,-2.92361 1.9322,-1.56954 -0.6441,-3.87766 3.251,0.40002 7.0847,-8.55544 1.9935,5.84722 2.4535,0.70784 0.2147,3.23139 6.0419,0.12325 5.8272,-3.10834 -0.092,-1.60032 3.5883,-0.55393 2.2389,3.26224 -2.8216,6.0627 7.0233,3.04677 3.8337,-8.95563 10.7036,4.09317 -0.9814,-2.92375 4.0484,-17.32642 -4.7845,-5.57036 -6.9006,-1.44641 -4.3244,-4.92403 -3.5577,0.55403 -4.5697,-2.33901 -0.2147,-3.23135 -1.3188,-1.96966 -1.5641,0.61551 -3.4043,-9.4172 1.5641,-0.61553 -3.4963,-11.01743 1.4721,-2.21585 -1.7481,-2.61584 -1.5642,0.61549 0.2454,-2.55437 -5.8579,-4.30857 -8.0047,-0.18446 -5.8579,-4.33935 -0.644,-3.87763 -4.2017,-3.32374 -5.2445,-0.46168 -0.184,-3.20057 -2.4536,-0.70788 -1.5028,-5.17021 4.2631,-2.43124 -2.0856,-1.66179 0.7054,-1.90813 -2.8829,-1.35414 0.7054,-1.90797 -2.1775,-3.26227 1.5641,-0.58471 -4.079,-1.72339 2.3309,-8.24776 -2.883,-8.70935 -7.79,-11.78685 0.5214,-5.10881 -3.9564,-7.5399 3.0669,-2.76977 -3.0976,-6.24729 3.0056,-4.37016 3.0056,4.6471 4.7845,-0.12325 -1.8095,-4.24701 -1.5642,0.58474 -1.2881,-2.00034 2.6376,-3.38527 1.6561,1.04637 2.2389,-2.43126 -1.4721,-3.56995 1.9322,0.12325 1.0121,-2.83133 -1.6562,-1.04633 3.0056,-1.07718 0,0 -0.031,3.72382 6.1953,9.94037 -1.6562,0.3693 -1.0427,-2.7082 -3.0057,1.66194 -1.6254,5.20092 2.3308,0.12325 0.031,-1.84651 3.3737,4.46235 -6.9313,2.98528 3.987,3.04674 -2.8216,0.86167 -0.7361,2.80059 2.3002,-1.44652 1.3188,3.41608 2.1776,-2.61584 0.8587,2.739 -2.3615,1.16941 3.8336,1.69261 -1.2881,1.90806 1.0735,2.36972 3.0669,-2.30812 2.4536,2.15425 2.1161,-1.78492 -2.0548,4.80091 6.6246,0.76932 0.3987,3.50844 4.9684,-3.93924 2.1162,1.41565 -0.3067,3.93922 1.9322,-4.06235 0.8588,2.98524 -2.7296,4.12385 0.8894,1.8465 3.0363,-3.07752 5.4591,0.76937 0.6441,-2.27735 -2.6069,-1.4156 -4.1711,-3.16993 0.1227,-4.37009 -1.7481,-1.16946 1.0121,-1.01551 9.8449,8.92475 20.9472,11.9408 2.6682,-0.73864 1.7482,-2.98519 1.7175,3.23147 21.5299,14.58745 10.3356,4.24697 22.1127,5.10865 9.9369,3.04677 2.0242,3.87763 12.8812,3.50836 -8.8635,-0.89249 0.1227,2.58515 4.6924,0.76934 1.2881,2.36981 2.2389,0.43077 2.7296,-1.84653 -0.4294,-3.01596 28.0012,-0.4308 11.3477,-5.35494 -0.1227,-2.2773 7.2994,-4.18551 0.8894,-3.60067 3.5883,-3.01599 0.4601,-4.00079 2.9135,-3.93923 4.1404,-3.56989 4.4164,-4.46237 -1.8708,-3.01596 4.6311,-2.52359 2.4229,-6.67822 6.7166,-0.49236 3.8337,-2.73902 4.1403,0.46158 4.0177,-3.32371 2.3002,-5.13943 1.3495,2.30807 4.4471,-0.4 4.6924,-6.03194 -0.9814,-6.00121 2.9442,2.43125 3.4964,-1.72337 5.1218,0.33849 0,0 3.1282,8.12467 -7.9127,-0.12316 -7.3913,2.27735 -0.6441,1.90807 3.2203,10.09426 -1.9015,1.60026 1.0121,2.86215 -2.2389,2.58505 2.7296,3.81617 4.9378,-4.52393 4.4164,4.73934 -12.3905,12.61789 -12.9118,40.00772 -1.5641,0.64627 -14.9974,-13.5719 -2.8216,0.33855 -1.3801,-1.87731 -2.3616,0.98483 3.8337,6.64744 -3.0056,2.89289 1.7175,0.95405 0.276,3.1698 -3.9257,1.60036 0,0 -1.2881,3.81603 0,0 1.3801,1.90814 -6.7166,1.93888 -0.184,2.55424 -5.5512,3.50845 -7.698,1.87732 0.9201,1.29245 -1.8708,1.60035 2.2695,3.20068 -4.3857,10.83282 -27.2652,14.15658 2.1469,13.2026 -2.0242,0 -1.7788,3.20055 -2.9136,-1.32326 -1.9935,5.78573 -2.3616,0.95405 0.8894,1.29251 -5.1524,1.26179 0,0 -2.4536,5.17024 -2.7909,0.30775 -0.1227,-1.63103 -4.6618,1.87721 -2.8829,4.49322 0.8894,1.3233 -4.7537,6.0627 -7.2074,-0.46159 -4.3244,-4.92403 -3.4349,2.18504 -1.6869,-1.01559 -3.0056,2.86212 -3.3429,-2.00044 -2.3309,0.92324 -1.3495,3.84698 -1.9935,-0.031 0.5521,2.27735 -4.0177,-0.0926 -1.3188,9.66339 1.2268,0.33856 -2.2389,2.52346 0.9201,7.1399 -12.7278,13.29485 2.2695,9.10949 -19.7511,0.27707 -3.803,9.01712 3.5269,9.47874 -3.711,-1.04627 -5.5205,2.18507 3.159,4.61618 -6.7473,1.84654 -13.1265,-12.03308 z"
          title="Bay of Plenty"
          id="NZ-BOP"
          inkscape:connector-curvature="0" />
  <path
          d="m 820.53058,1174.5659 1.22678,4.8631 -1.01209,3.0467 1.9015,2.8313 3.40431,0.4925 2.79092,-1.9394 1.74816,1.1082 0.27603,3.447 3.25096,-1.2315 0.95075,1.4162 -2.30021,2.6465 0.3987,5.2008 1.44147,2.1241 3.37364,0.4917 0.12268,1.7239 -2.48423,5.4162 3.18962,3.2315 4.87645,-1.8769 1.9015,2.8312 -1.01209,3.0776 3.52699,2.2155 -1.01209,3.0775 4.0177,2.9237 4.20171,0.1845 -1.62548,0.6157 -3.15895,7.4778 0,0 3.37364,0.4926 0,0 2.42288,-0.9543 2.72958,2.5244 -1.01209,3.0774 2.23887,1.8154 2.42289,-0.9544 0.52138,-3.7846 9.87556,-2.0318 0.85875,-4.8005 4.04837,-1.5393 2.94426,-4.7081 -0.27602,-3.447 2.88293,-0.2155 -8.00473,-1.3854 0.67473,-2.0308 2.88293,-0.2155 0.18401,-2.7389 10.97967,-7.7549 -0.61339,-2.432 5.27515,-1.1381 0.67472,-2.0308 0.15335,1.7229 2.08552,0.093 0.18402,-2.739 6.40992,-2.4618 1.74816,1.1073 0.64405,-2.0308 3.18963,-1.2315 -0.61339,-2.4309 2.88293,-0.2156 -2.76025,-8.7401 2.72958,-1.9692 -0.27603,-3.447 3.06695,-2.9852 4.14037,0.1543 2.79092,-6.463 3.98703,-1.5701 0.18402,-2.7697 4.60042,0.862 2.11619,-4.431 6.68594,-3.6009 -0.61339,-2.4311 2.42289,-5.4787 3.3123,0.431 3.37364,6.6783 3.37364,-4.0933 16.1628,-3.2315 2.33088,3.5085 9.96757,-0.6465 -1.25744,5.8174 0,0 -13.43322,19.511 -1.71749,6.1242 1.38012,7.0478 -5.55117,3.2931 -9.90623,12.2486 -5.02979,2.7696 -1.93218,2.585 0.12268,3.5085 -6.77795,6.4322 -1.04276,7.4162 4.56975,3.2314 -3.92569,1.9386 -2.23887,-3.7846 -6.31791,1.2611 -10.70364,9.2942 -3.40431,10.6488 2.51489,1.3843 -5.18313,6.5552 -13.12653,33.4219 -6.50192,8.463 0.61338,5.4788 -9.20083,11.325 -12.29845,5.8164 -6.96197,10.1254 -4.63109,-0.6465 -5.85786,4.154 -12.7585,4.2782 -5.12179,5.5085 -2.97494,0.1233 -4.93778,7.2326 -6.04189,14.1254 -1.93217,21.3273 1.01209,12.6179 3.95636,14.2486 -0.73607,0.862 -2.2082,-5.8472 -2.94427,4.5851 4.0177,0.2462 0.95076,1.7239 3.80301,0.5542 0.21469,2.3078 3.68033,0.7388 -10.18226,3.7538 -5.36715,-0.4001 -3.25097,2.432 1.04277,5.4163 1.31878,1.2304 1.47214,-4.4619 0.76673,3.1699 1.93218,-0.5542 1.47213,-4.5541 2.94427,-0.3695 1.22678,2.5234 2.72958,-3.6624 0.67473,1.139 5.36715,-3.1083 -1.77883,8.9863 1.22678,0.8312 4.66176,-10.0946 2.69891,2.7389 1.13477,-0.7696 2.33088,1.57 -3.09762,8.032 0.79741,2.585 4.66176,-10.7709 1.9015,2.7082 1.71749,-0.8313 1.90151,-0.1846 1.96284,1.2931 -0.3987,3.2006 0.27603,2.585 3.3123,-3.6317 3.15895,-0.2772 -1.47213,1.5393 3.55765,2.7697 -0.88941,2.431 2.33088,1.1083 1.25745,-2.5552 2.72958,2.8005 -1.38013,3.2622 2.54557,1.2007 1.22677,3.3237 -0.15334,4.9545 -1.90151,3.724 -1.99351,1.0775 0.76673,4.4926 -2.45355,0.4619 -0.49072,2.8004 -2.54556,-2.5541 -2.23887,5.9088 -8.34209,2.431 -0.0613,-2.2155 -3.52699,-3.447 0.73607,-5.6625 2.9136,-2.9853 -2.42289,-0.1845 -0.82807,-2.0616 2.85225,-0.7696 -0.36803,-2.9544 -2.42289,-0.2772 -1.04276,-2.154 -2.69891,2.0617 1.07343,7.4481 -1.96284,2.4925 0.76673,5.6318 3.92569,4.2771 0.092,2.8938 -4.29372,-1.6008 -2.85226,1.3854 -3.22029,-1.7856 -3.86436,0.3079 -1.59481,-1.6615 -1.19611,-2.8004 -2.45355,1.0149 -2.79092,-2.8621 -2.11619,-3.3237 -4.20172,-0.8302 -47.20029,6.8621 -37.20205,16.8961 -42.90656,24.9897 -24.13687,17.2953 -12.88117,12.0331 -10.09025,13.9408 2.08553,2.1241 -0.76674,9.2019 -7.05397,12.8017 -4.07904,12.6796 1.25745,38.7764 -3.12829,18.065 0,0 -3.64966,-1.4151 -4.60042,0.8928 -6.99264,-2.9236 -2.45355,1.0149 -2.76025,-2.7081 -5.06046,0.1845 -4.87645,-2.7695 -3.77234,0.5849 -0.15335,-1.8472 -8.18874,-1.4767 -23.33946,-10.6487 -5.48983,6.0011 -1.56414,7.2941 -1.31879,-0.431 -1.84016,3.6009 -6.59394,2.6158 -2.33088,2.8312 -1.77882,-1.1996 -4.47774,2.7081 -2.76026,-2.7081 0.0613,-4.8015 -3.43498,-0.5541 -2.33087,2.8312 -4.63109,0.862 -0.98142,-1.5075 -3.98703,3.4768 -14.87469,1.0467 -0.61339,-2.6158 -2.63757,-0.8619 1.99351,-1.723 -1.59481,-4.1243 -4.90711,-2.8312 -4.0177,-7.9396 0.55205,-4.0011 -6.59393,-24.9281 -6.10322,-1.4151 -6.50193,4.4002 -8.86347,-4.154 -3.58833,-13.7262 -2.02418,1.7239 -0.0613,4.739 -9.07816,-1.2315 2.30021,-9.3547 -2.9136,-4.5552 2.23887,-4.6158 -0.61339,-2.586 -6.10322,-1.4459 -2.48422,0.9543 -4.07904,-3.1391 2.02418,-1.6932 -1.44146,-2.277 2.72958,-3.8473 -1.93217,-3.0159 2.02418,-1.6922 -0.61339,-2.585 2.02418,-1.6932 -0.95075,-1.5075 0,0 -1.1041,-3.3237 0,0 1.65615,-0.6157 0.15335,-9.4174 -4.81511,-7.5096 2.48423,-0.9226 0.92008,-5.0169 4.50841,-2.6158 -0.95075,-1.5075 2.85226,-2.001 -0.61339,-2.5542 2.97494,-0.1846 -0.27603,-3.5998 2.48423,-0.9236 -0.61339,-2.5542 2.48423,-0.9235 0.92008,-4.9853 3.80301,-0.4925 -1.77883,-12.2794 0,0 2.48423,-0.9236 2.2082,-4.5234 2.14686,0.1229 1.25745,-6.0011 8.1274,-4.9246 2.54557,-5.5702 4.26305,0.2155 -0.27602,-3.57 4.93778,-1.877 0.67473,-2.0934 3.43498,0.5234 -0.27603,-3.5701 1.99352,-1.6922 -1.44147,-2.2156 3.77235,-0.5233 3.12828,-3.0467 -0.12268,-6.4321 6.86996,-3.601 1.34946,-4.2155 -1.4108,-6.8324 6.19523,-1.4777 1.34946,-4.1848 0,0 3.74167,-0.5233 0,0 5.27515,-7.5404 5.06046,-0.1233 6.74728,-5.3239 2.91359,4.3705 5.76586,-2.2165 3.00561,-4.8004 3.77234,-0.5542 1.34946,-4.1848 5.76585,-2.2166 1.50281,-2.4002 1.47213,2.1847 3.80301,-0.5531 0.64406,2.4927 3.80301,-0.5542 0.18402,-2.8313 5.15247,-4.7399 -1.93218,-2.8929 3.15896,-3.0467 5.45916,-1.1996 -1.59481,-3.9395 6.44058,0.2771 4.84578,-3.6932 0.98142,1.4468 2.48423,-0.9542 0.21468,-2.8312 5.45917,-1.2007 0.0613,-4.5851 2.48423,-0.9543 4.23238,-6.1858 2.63758,0.8312 -0.21469,2.8312 4.63109,-0.862 3.86435,-5.1391 0.21469,-2.8004 4.14037,-1.601 -1.93217,-2.8928 3.64966,-2.3079 -0.61339,-2.4925 2.48423,-0.9544 -0.95075,-1.4459 3.09761,1.5383 1.99352,-1.6922 -0.61339,-2.4927 2.48422,-0.9543 0.95076,1.4459 4.84577,-3.6922 1.77883,1.138 3.3123,-1.2611 -0.27603,-3.5394 2.82159,-2 0,0 -1.22678,-4.9862 0,0 9.32352,-6.309 -1.31879,-0.4002 0.7054,-2.0925 4.26305,0.1847 2.82159,-2.0002 3.92569,1.1997 -0.67472,2.0934 1.65615,-0.6465 3.98703,-3.3546 -0.95076,-1.4469 1.53348,-2.4002 2.6069,0.8003 3.15895,-3.0467 2.76025,2.585 8.71013,-2.4926 3.09761,1.5382 6.10322,-3.2929 3.2203,3.2929 2.48422,-0.9532 4.3244,-4.4014 -2.26954,-1.8461 0.70539,-2.0934 3.28164,-1.292 -0.18402,-8.0945 6.71661,-0.7995 3.64966,-2.3079 1.04277,-3.1391 3.77234,-0.5541 -0.3987,-5.2941 3.98702,-3.3536 0.88942,-4.8938 6.56326,-2.5542 -0.61339,-2.4926 0,0 5.39783,-1.2007 0,0 1.77883,1.1082 8.18874,-3.1698 -0.95075,-1.4469 1.62548,-0.6455 -0.95076,-1.4469 2.5149,-5.5085 6.90063,-3.5701 0.0613,-4.5543 5.94987,-5.017 0.55205,-3.8164 6.19523,-1.5075 7.29933,-9.1094 6.53259,-2.5234 1.77883,1.1072 3.619,-2.2771 0.27602,-7.2931 2.1162,0.093 -0.27603,-3.4777 2.66824,-3.6933 -0.95075,-1.4161 0,0 5.36715,-1.1688 4.47774,-7.0787 5.70452,-2.1847 1.50281,-2.3387 -0.88942,-5.9088 3.92569,-3.2623 -1.22678,-4.863 5.70452,-2.154 0.61339,2.431 2.94427,-1.1082 z"
          title="Canterbury"
          id="NZ-CAN"
          inkscape:connector-curvature="0" />
  <path
          d="m 2141.372,1522.7879 3.1589,1.292 3.895,5.448 1.1348,-0.4925 0.061,1.9692 -3.8336,2.5849 -1.9015,6.4322 -2.9136,1.2006 -2.1162,3.4778 -1.5948,-1.7548 1.0121,-2.7389 -2.1469,-0.5541 1.7481,-2.4619 -1.4107,-1.7845 0.9814,-1.6009 -1.6562,-0.5849 3.6497,-3.4151 -4.5391,-3.9703 4.8151,-0.2156 1.6562,-2.8313 z m -48.1817,-88.2942 10.5809,4.9237 5.3058,-0.4617 0.7054,2.9852 6.0726,1.7548 8.2194,-0.5235 2.4229,-1.8461 5.7045,2.1847 6.2259,-3.3545 2.7602,1.2006 2.3923,-1.2314 1.5641,1.9076 -4.2017,0.6158 -1.5948,5.4469 -2.2389,-2.0923 -2.9443,0.1542 -6.4712,4.6475 -7.514,12.8326 -2.0855,9.3865 -1.3495,-1.4459 1.4415,-4.7092 -1.5335,-8.3091 0.9201,1.6307 2.3308,-4.5235 4.6618,-3.1083 -3.527,-5.3546 -5.0298,-2.9236 -4.9378,-0.6465 -2.8215,2.6773 -2.2696,-3.6009 -4.079,-0.062 -0.9508,5.2941 2.4843,3.3229 11.685,2.4319 -4.1097,3.1699 -1.9322,-0.6772 -3.711,5.1699 1.3802,5.4778 4.6617,4.8015 -1.1654,5.9088 5.6738,2.6157 1.1961,-5.724 -1.3801,-1.9395 1.8402,0.2156 3.803,15.2645 7.79,2.9236 0.061,2.8312 -18.187,4.1551 -1.5642,2.7696 -3.9257,1.1083 -6.4405,5.7857 -6.962,-1.3239 -1.6255,-7.9395 -1.8402,-0.8928 0.8588,-4.739 -3.4657,-5.4161 12.6665,-7.8791 0.8588,-3.6009 2.3922,1.8779 2.1775,-2.3695 -1.1961,-8.7102 -6.0112,-10.3091 -2.0549,-2.1847 -5.3671,-0.2155 -0.7667,-1.9088 -0.8588,1.8164 -1.9628,-1.5701 -0.3067,3.1084 -2.1162,-1.5383 0.7974,2.3695 -1.6868,1.2919 -4.8765,0.5234 -4.6004,-2.0616 1.2268,2.3694 -4.0484,1.7548 -2.9136,-1.5392 -0.7361,1.3545 -3.987,-0.5541 1.0428,-1.7856 -2.6376,-1.2304 2.4229,-0.9851 0.9201,-4.7082 6.6246,-0.8928 -1.5642,-4.3397 1.0735,-1.8769 8.0354,3.3546 10.6729,-2.8928 3.067,-3.3547 -0.8281,-4.1549 1.6562,-1.9078 z"
          title="Chatham Islands Territory"
          id="NZ-CIT"
          inkscape:connector-curvature="0" />
  <path
          d="m 1471.2137,463.53613 17.6043,3.56989 -2.9749,3.35452 0.7974,2.55428 2.0855,0.89248 2.8522,2.8929 3.6804,1.81573 12.8505,1.04642 6.9006,5.10868 1.4108,2.8928 -12.3905,19.41914 0.9201,2.09272 -5.4898,4.73941 -2.3616,8.12466 0.4294,6.37044 -6.6859,7.53989 -0.061,3.87777 4.4164,2.00035 -1.1961,2.76977 1.3188,3.75464 -1.7481,2.58502 -4.4164,1.56958 -0.6441,3.29294 4.6311,5.41643 -2.1469,2.27741 -0.1533,4.18541 -3.159,2.30806 2.9443,3.78542 0.092,3.29296 -0.7667,3.1083 0.092,7.75526 1.2574,3.93926 0.8281,5.72413 -4.1711,2.616 -3.4963,5.93958 1.2881,8.70941 -10.4276,8.43238 -0.7667,3.1698 -4.8151,3.90854 -1.4108,3.32371 -2.4536,-0.2462 -5.5511,4.2163 -1.4415,4.64699 -6.6859,-5.78573 -4.9378,1.75423 -3.8337,4.43162 -0.7054,5.81651 4.6311,1.07711 -5.3365,5.07796 -1.8402,5.90877 0.9815,5.47801 -2.1469,3.75461 1.0428,2.80055 -1.4415,10.12495 0,0 -6.5633,-2.09266 -1.3801,-1.93878 1.8095,-3.20067 -1.4108,-1.93892 -1.9322,1.60036 -2.2082,-1.60036 0.2147,-2.55424 -3.0669,2.89281 -3.1283,-2.92362 -2.5762,3.53913 -1.0735,-2.89283 -1.1347,1.29259 -6.6553,-0.67706 0.9507,-8.70948 -2.2388,2.58519 -3.0977,-2.89293 -2.3922,0.95405 -0.9201,-7.07824 -3.3123,-0.33851 -2.7295,1.93875 -3.2817,-6.09351 -2.3615,0.95406 -3.159,-4.49316 1.4722,-2.24662 -1.1348,-4.49316 -4.5084,-0.64627 -0.1227,-1.60026 -2.3615,0.95395 4.631,-9.32487 -6.6552,-2.2773 -4.8458,0.30774 -5.5205,-3.57002 0.2147,9.01723 -21.7447,-11.07911 0,0 5.1525,-1.26179 -0.8894,-1.29251 2.3615,-0.95405 2.0242,-5.78573 2.9136,1.32326 1.7789,-3.20055 2.0241,0.031 -2.1468,-13.20264 27.2958,-14.15651 4.3857,-10.83285 -2.2695,-3.20068 1.9015,-1.60035 -0.9201,-1.2618 7.698,-1.87718 5.5512,-3.50843 0.184,-2.5543 6.7166,-1.93889 -1.3801,-1.90807 0,0 1.2881,-3.81606 0,0 3.9257,-1.60036 -0.276,-3.16977 -1.7175,-0.95404 3.0056,-2.89293 -3.8337,-6.64744 2.3616,-0.95406 1.3801,1.90814 2.8216,-0.33857 14.9974,13.57182 1.5641,-0.64628 12.9118,-40.00772 12.3905,-12.61779 -4.4164,-4.73944 -4.9378,4.52394 -2.7296,-3.81611 2.2389,-2.58512 -1.0121,-2.86208 1.9015,-1.60032 -3.2203,-10.09427 0.6441,-1.908 7.3913,-2.27741 7.9127,0.12325 -3.1282,-8.12473 0,0 10.0902,1.35413 0.8894,-3.23133 z"
          title="Gisborne District"
          id="NZ-GIS"
          inkscape:connector-curvature="0" />
  <path
          d="m 1286.0316,908.60706 -4.0791,-0.24609 -3.1589,-2.98518 -1.4415,2.30812 -6.4713,-3.38529 -0.644,2.00044 -5.8579,-1.07717 -1.1041,-3.01596 -5.0911,-1.38486 0.6441,-2.00045 -3.0057,-1.38485 4.6618,-3.60066 -2.6989,-2.36978 1.6255,-4.98549 -2.6683,-2.36972 0.9814,-2.98528 -3.2202,-9.04787 2.4535,-5.2933 -3.9257,-2.70818 -1.5334,-3.69304 -2.5149,-0.70787 1.6561,-4.95484 -3.0056,-1.35404 -0.1227,-1.66189 -4.1097,-0.031 0,0 0.6747,-1.96956 0,0 -3.5883,-3.69302 -3.3123,-0.36934 -0.1227,-1.66182 -6.6246,-0.73865 -2.2695,2.61594 -4.9685,-5.69349 3.5884,-6.58584 -2.1776,-1.66188 1.4722,-2.30813 -0.9201,-1.32339 2.6069,-3.60066 -1.7175,-1.01552 6.87,-22.31203 -0.7054,-3.93924 1.5948,-0.64629 0.092,-4.27776 2.7296,-1.93888 -4.7845,-4.00069 1.9935,-5.87811 -4.7844,-4.00079 5.2138,-1.23102 2.7909,-6.18574 3.619,-0.61553 1.4722,-2.27741 6.3179,-2.52356 2.4842,0.67706 -2.4536,-10.80204 1.4722,-2.27744 -1.2575,-0.33853 3.0363,-2.89283 -1.3801,-1.96966 2.0242,0.031 -0.1227,-1.63104 -3.8644,-2.64675 -4.079,-0.0616 -0.5827,-2.2774 1.5948,-0.61553 0.092,-4.24697 3.4963,-2.21584 -1.2574,-6.21651 -5.5512,-3.66229 -4.8458,0.24608 -3.3736,-7.87841 0,-5.84734 0,0 0.2147,-2.58508 6.6552,-3.47761 -0.8894,-1.32336 0,0 12.9732,11.60225 6.7473,-1.84654 -3.159,-4.5855 5.5205,-2.18493 3.711,1.04629 -3.5269,-9.47877 3.803,-9.0171 19.7511,-0.27705 -2.2695,-9.10947 12.7278,-13.29487 -0.9201,-7.13991 2.2389,-2.52349 -1.2268,-0.33853 1.3188,-9.6635 4.0177,0.0923 -0.5521,-2.27731 1.9935,0.031 1.3495,-3.84699 2.3309,-0.92323 3.3429,2.00044 3.0056,-2.83133 1.6869,1.01558 3.4349,-2.18504 4.3244,4.95474 7.2074,0.46165 4.7537,-6.06269 -0.8894,-1.32336 2.8829,-4.49315 4.6618,-1.87733 0.1227,1.63114 2.7909,-0.30774 2.4536,-5.13946 0,0 21.7446,11.10981 -0.2147,-9.01712 5.5205,3.56992 4.8458,-0.30776 6.6553,2.27742 -4.6311,9.32483 2.3615,-0.95402 0.1227,1.60032 4.5391,0.64631 1.1347,4.49312 -1.4721,2.24664 3.159,4.49318 2.3922,-0.95405 3.2816,6.09348 2.7296,-1.90807 3.3123,0.33853 0.9507,7.07834 2.3923,-0.95405 3.0976,2.92358 2.2695,-2.58506 -0.9201,8.70935 6.6553,0.67706 1.1348,-1.29256 1.0734,2.89291 2.6069,-3.5392 3.1283,2.92368 3.0669,-2.86213 -0.184,2.55441 2.2082,1.631 1.9322,-1.60022 1.4108,1.93879 -1.8095,3.20067 1.3801,1.93875 6.5633,2.12347 0,0 -1.6562,6.95522 1.8402,8.37088 1.7482,2.06194 3.8336,1.4156 1.5642,-1.01551 5.1218,3.26218 -9.3235,9.17103 -2.2082,9.47874 -5.2138,5.97036 -2.5763,-12.7717 -2.5762,-3.93924 1.9628,-1.01561 4.2631,-10.64823 -3.6803,-3.7545 -2.2082,2.83127 -9.1395,-3.32373 -9.5076,-0.86168 -30.5161,2.00044 -25.701,9.41722 -13.2185,6.86284 -5.5819,4.80087 -2.6682,9.72499 -9.1088,11.20219 -3.4043,1.72345 -3.619,7.69373 -1.2575,8.37088 1.8402,4.37007 4.3244,-1.07711 -0.1227,12.18699 5.3978,11.35599 7.422,3.87774 5.6739,-2.462 2.2695,1.53876 -9.5382,13.69497 -2.6989,10.55584 1.4415,6.5551 -8.7715,14.58746 -5.3058,14.09508 -1.0121,4.61628 1.7788,3.38527 -2.7295,3.66226 0.1226,4.70856 -3.1589,1.9081 -6.962,12.74091 -0.9507,-1.16942 -4.8765,1.75417 -7.2686,5.90888 -0.6134,9.0171 -6.3179,16.06462 z"
          title="Hawke's Bay"
          id="NZ-HKB"
          inkscape:connector-curvature="0" />
  <path
          d="m 1017.9192,1012.843 1.4108,0.8918 -0.184,3.9395 -3.0056,13.5107 -2.791,-1.8163 -2.2082,3.1699 -1.8095,-1.6922 -3.2203,1.1996 -3.4656,4.4322 -2.5762,0 -0.42941,-2.3387 -2.2082,2.3078 -5.70452,1.0159 3.83368,-5.3556 4.41641,1.0159 2.76024,-2.0308 1.2575,-1.0467 -1.7789,-0.5541 0.9814,-1.7846 3.6497,0.062 0.2454,-2.431 3.5883,-1.0467 -1.0428,2.6465 3.4657,-0.1229 -0.9508,-1.3228 3.711,-1.9703 1.1348,-4.7388 -3.527,3.2314 -1.8708,0.1542 -5.0298,-0.8005 2.0855,-2.4002 3.4657,0.4617 2.9442,-1.9702 2.8523,-4.6158 z m -35.85261,-23.35869 0.73607,4.64706 -3.28163,4.09307 -1.28812,-2.61587 3.03628,-3.44686 -2.9136,-0.92324 3.711,-1.75416 z m -10.45828,-4.8009 3.52699,0.12285 -1.07343,4.09316 -2.11619,1.72338 -1.28812,-5.53958 -1.8095,0.15391 -1.47213,1.50798 1.84016,0.18446 -0.92008,2.00042 -1.90151,1.20026 0.76674,3.47754 -1.16544,1.01558 -2.57623,-1.69256 -3.06695,2.43121 0.46004,1.72339 3.18963,-0.86168 -1.28812,2.06193 -3.46565,1.93904 -1.53347,-0.9543 -1.74816,3.0159 -5.39782,-0.2156 1.22677,-4.83149 -2.85226,3.93969 -2.17753,-1.1391 -1.5028,2.1232 4.50841,1.9395 -4.99912,3.2623 2.17753,0.5531 -0.92008,4.7092 -0.82808,1.1996 0.0613,1.7856 1.62548,0.8918 -0.76674,-2.0002 1.68682,-0.8004 1.71749,-0.1538 2.57624,-6.2157 3.25096,1.6614 1.22678,-1.6008 1.9015,1.3853 3.52699,-1.1082 4.63109,1.1698 -5.24448,1.1082 -0.61339,2.3695 -4.01769,-0.8004 -1.19611,2.9237 3.49631,0.4925 -0.55205,3.3238 -4.53908,-1.1698 0.98143,2.862 -2.57624,0.5849 0.58272,1.447 -7.0233,1.4151 0.92008,3.2929 7.45268,-3.5392 -2.30021,3.3238 3.43498,-0.708 0.88941,3.57 -2.6069,4.3089 0.67473,3.7549 -3.28163,1.3843 -3.37364,-2.3387 1.28811,2.8929 -5.33648,1.5075 1.44146,3.2621 0.88942,-3.4151 3.28163,3.8154 4.17104,0.7389 0.85875,-1.6307 -2.66824,0.7994 -2.02419,-3.2622 6.99264,-1.4152 7.08464,-5.0775 -5.39782,0.8918 -2.63758,-0.4311 0.24536,-1.2919 10.02891,-2.9544 0.12268,1.723 2.69891,0.9543 5.27515,-3.0468 2.23887,0.4619 -1.53348,-2.3695 6.37925,1.3227 5.79653,-3.57 -8.28075,1.139 -1.44147,-0.6773 0.58272,-2.5541 -6.90063,3.6316 -1.93217,1.7845 -0.3067,-3.2315 -4.75376,4.0012 -3.64967,-0.1846 -3.0056,2 0.95075,-4.9852 1.90151,-1.5392 -2.26954,-0.1836 -1.16544,-4.1858 6.34857,-2.5541 -2.42288,-0.5542 0.82807,-1.8461 2.63758,0.7378 0.42937,-4.8004 1.19611,0.9235 3.83368,-1.9087 -2.94427,5.8472 1.87084,5.724 0.88941,-3.569 2.36155,1.2303 0.092,-5.3237 1.99351,-1.2007 3.18963,2.9236 0.98142,-1.0457 -3.18963,-6.2166 0.7054,-1.8164 2.60691,-0.3078 0.24535,-5.1699 -1.71749,0.9543 -3.03627,-1.5393 -2.17754,3.2315 -3.25096,1.0775 -3.55765,-0.8312 2.33087,-1.4152 -2.08552,-1.9394 6.2259,-0.4926 -2.79092,-3.72331 0.82808,-1.32338 2.94426,1.6311 -0.18401,-3.90852 2.42288,-0.61539 0.95076,1.75417 -1.19611,1.66178 1.16544,4.61595 1.59481,-1.015 1.28812,1.3228 2.42288,-3.38495 -0.15334,2.83085 2.08552,0.6157 2.88293,5.447 -1.25745,-9.10896 5.39782,3.93906 0.12268,-3.56975 2.33088,-2.18506 2.2082,4.33961 6.01126,-4.06262 -1.6562,3.75482 -2.57623,0.4926 0.42937,4.4619 -1.19611,0.4001 -0.58272,-2.0617 -1.99351,2.2157 6.13389,4.4013 2.69901,-4.9247 2.2388,0.4618 1.2268,-2.2771 3.3736,0.9226 -3.0362,1.5084 -0.1534,3.8779 -4.4778,3.7539 1.7789,2.0318 -0.3374,2.8004 -2.66825,-1.724 -1.8095,1.0776 -0.12268,2.3079 -2.63757,0.9851 1.19611,-2.3695 -1.68682,-0.1539 -0.21469,-5.5086 -1.96284,4.4003 -2.05486,-1.1688 0.21469,2.8621 2.2082,1.4458 -0.64406,2.1848 4.69243,0.6157 -1.84017,3.2006 1.84017,-0.2461 0.33736,1.8779 -4.0177,2.862 0.24536,-2.6773 -2.23887,-1.8472 0.46004,6.4014 -3.55766,-1.4767 -0.15334,-1.8471 -1.44147,1.9693 0.79741,2.3704 -1.71749,0.3079 -1.31879,-3.1391 -2.11619,4.4002 -1.53347,-1.138 0.7974,-2.6782 -1.80949,1.6315 -0.95076,-0.9543 -1.99351,0.1846 -1.71749,2.5542 -1.93218,-1.4767 -0.15334,4.154 -3.2203,-2.8005 0.18402,4.2782 -7.08464,1.7845 -0.95076,2.1858 12.48247,-3.1391 -0.0307,4.4004 3.15895,-5.0777 3.52699,-0.4002 2.05486,-0.8312 7.54468,-2.3387 -1.38012,4.0626 1.9015,-1.4469 1.04276,2.2156 2.05486,-1.9693 2.94426,4.1551 1.04277,-1.57 -3.00561,-2.2772 1.44146,-1.2622 1.68682,1.7548 4.32435,-1.6932 3.3123,-0.1539 -0.1227,-1.7846 4.3551,-2.862 -2.6376,3.2623 0.9201,2.4003 -2.4535,1.3237 1.0121,1.8153 -3.1897,-0.1233 -3.83363,3.6626 2.42283,2.6157 -0.9507,1.8461 -2.82158,0.862 -1.38013,-2.2771 -1.16544,4.2166 -4.50841,0.3068 0.49071,1.9703 -3.22029,0.1845 -0.76673,-1.5393 2.54556,-1.5074 -0.82808,-1.4469 2.33088,0.4001 3.619,-5.3853 -3.43498,-0.862 0.33736,1.8162 -2.91359,2.4004 1.25744,-4.7707 -3.86435,2.2473 -0.98142,5.5085 -4.84577,8.7709 -1.90151,0.3078 -2.48423,7.7549 0.39871,6.2782 6.68594,7.9099 -3.55766,1.3226 -0.15335,2.4927 3.64967,1.1391 4.23238,-1.8462 2.9136,1.6615 2.2082,7.4788 -1.01209,10.2168 2.57623,6.586 3.83369,2.9544 1.22677,-0.9544 4.35507,2.0011 2.2082,-1.1391 -0.3374,3.016 -6.86992,7.448 -0.33737,3.1391 -6.19523,9.7242 -13.37188,15.0182 0,0 1.25745,-5.8164 -9.96757,0.6465 -2.33088,-3.5085 -16.16281,3.2315 -3.37364,4.0934 -3.37364,-6.6784 -3.3123,-0.431 -2.42288,5.4777 0.61339,2.4321 -6.68595,3.5999 -2.11619,4.4321 -4.56975,-0.862 -0.18401,2.7697 -3.98703,1.57 -2.76025,6.4629 -4.14038,-0.1539 -3.06695,2.9852 0.27603,3.4777 -2.72958,1.9693 2.76025,8.74 -2.85226,0.2155 0.61339,2.4311 -3.18962,1.2314 -0.64406,2.0308 -1.74816,-1.1072 -6.40992,2.4617 -0.18401,2.739 -2.08553,-0.092 -0.15334,-1.724 -0.64406,2.0318 -5.27515,1.138 0.61339,2.4322 -10.97966,7.7548 -0.18402,2.739 -2.88293,0.2155 -0.67473,2.0308 8.0354,1.3853 -2.88293,0.2155 0.27603,3.447 -2.94427,4.7082 -4.04837,1.57 -0.85874,4.8005 -9.8449,2.0309 -0.52138,3.7855 -2.42289,0.9544 -2.23887,-1.8163 1.01209,-3.0775 -2.69891,-2.5235 -2.42288,0.9544 0,0 -3.37364,-0.4926 0,0 3.15895,-7.4778 1.62548,-0.6157 -4.20171,-0.154 -3.98703,-2.9236 1.01209,-3.0775 -3.52699,-2.2155 1.01209,-3.0775 -1.9015,-2.8313 -4.87645,1.8769 -3.18962,-3.2314 2.5149,-5.4163 -0.12268,-1.724 -3.37364,-0.4925 -1.4108,-2.1232 -0.3987,-5.2007 2.30021,-2.6466 -0.95075,-1.4161 -3.25097,1.2314 -0.27602,-3.4469 -1.74816,-1.1083 -2.79092,1.9395 -3.37364,-0.4926 -1.90151,-2.8313 1.0121,-3.0467 -1.22678,-4.863 0,0 0,0 0,0 1.62548,-0.6148 -1.07343,-3.139 1.56414,-6.8016 2.9136,-0.2155 3.12828,-2.9544 -1.07343,-3.1391 3.58833,-2.2463 0.88941,-4.7708 4.04837,-1.5383 0.21469,-2.7388 1.62548,-0.6157 0.67472,-2.0319 -3.15895,-3.2304 1.01209,-3.016 2.42289,-0.9235 -0.27603,-3.4163 8.83281,-9.5096 -2.48423,-5.2315 1.13477,-1.3237 2.2082,1.8162 6.31791,-4.1549 6.71661,-9.6021 -0.0613,-6.1243 8.06607,-3.1083 0.21468,-2.7081 2.08553,0.093 2.14686,-4.3387 0,0 -0.12268,-1.7241 0,0 0.88942,-4.7388 1.74815,1.0764 4.81511,-1.8769 3.0056,1.4767 6.07256,-1.5074 -1.53348,-3.8164 -4.87644,-4.2465 2.94427,-4.6783 2.39222,-0.9543 -1.19611,-4.8006 6.40991,-2.5542 2.45356,-5.3854 7.0233,-4.6167 -0.42937,-5.1393 6.40992,-7.0786 1.31878,-4.0924 3.64967,-0.6157 0.98142,-3.0775 6.04188,-1.6009 1.50281,-6.8015 -1.07343,-3.1074 2.85226,-10.8641 0,0 3.83368,3.2621 -2.57624,3.6317 3.77235,-2.2155 0.64406,3.2612 1.53347,0.3079 1.16544,-1.5075 -1.38013,-3.7855 7.05398,-1.5383 0.15334,-1.4777 4.63109,-1.9693 -2.69891,0.1846 0.61339,-2.2166 -6.65527,3.6933 -2.17753,-3.2623 3.43497,-3.447 2.23887,-1.6613 0.85875,1.4767 1.1041,-2.677 1.53347,1.4157 2.05486,-5.01647 1.65615,2.58515 2.14686,-0.86167 -1.34946,-2.89293 2.76025,0.36934 -0.42937,-2.49281 2.97494,-1.20023 0.67473,-3.41608 2.39221,0.98483 -2.69891,8.30933 3.28163,0.83092 2.69891,-4.95484 1.74816,0.554 2.42289,-2.80053 -1.34946,-2.40049 3.06695,-0.36931 5.55117,-5.78574 1.13477,3.13912 z m -4.4164,-34.40671 1.34946,2.46203 -0.95076,8.86328 -2.08552,1.63104 0.3987,3.29289 -4.78443,10.21745 -3.92569,1.8773 -4.56975,7.5707 -7.05398,3.3237 2.63758,-7.97079 -3.3123,1.35416 1.34945,-10.21745 1.38013,3.72383 4.72309,1.72338 1.44147,-0.92324 -4.04837,-2.1235 -0.98142,-5.97036 3.86435,-6.4936 -1.1041,-2.43124 3.92569,-1.72338 1.53347,-2.70821 1.53347,1.60032 -2.66824,4.95474 1.56414,1.13877 -0.92008,4.83171 3.18962,-4.55472 3.86435,0.95392 0.64406,-2.52349 -5.70452,0.0926 6.1339,-4.70856 0.18401,-1.81575 1.56414,0.18446 0.82808,-5.63182 z"
          title="Marlborough District"
          id="NZ-MBH"
          inkscape:connector-curvature="0" />
  <path
          d="m 1281.9525,908.3301 0,0 0,0 4.0791,0.27705 0,0 1.2881,3.97 -1.2575,5.87812 -6.9926,0.8617 -9.8142,6.95515 -1.2575,5.13949 -6.5939,5.04705 -4.7538,9.97128 -7.8514,7.78608 -5.2751,10.12508 0,0 -0.7667,-2.52362 1.4414,-2.30807 -3.0363,-1.41576 -1.7481,-5.41642 -7.1767,-1.47717 -2.4229,-3.3853 -2.3922,0.95405 -5.1218,-1.41563 -0.3067,5.35486 -1.2881,-0.33853 0.9508,1.32336 -4.9685,0.27706 -3.527,-2.03126 -1.7788,3.32374 -3.3736,-0.36925 0.644,2.33891 -3.6803,0.64627 -1.2881,4.00083 -2.7296,-2.36966 -4.6618,3.63145 -2.6989,-2.36975 -1.1347,1.32335 -1.7789,-1.04642 -2.2388,2.67756 -5.1218,-1.41576 3.0669,-7.3245 -1.7788,-1.0463 1.1347,-1.32335 -2.2388,-1.6926 -1.1348,1.32325 -2.2389,-1.69259 -5.7658,0.58474 0,0 -0.9508,3.01593 0,0 0.1534,1.66194 -2.5763,-0.70786 -0.9814,3.01592 -3.987,1.63117 -17.911,-9.29419 -3.8643,7.63224 -5.4285,-0.43077 -2.6989,-2.40056 -2.3923,0.98483 -0.4907,3.66225 -4.6311,-0.73854 -5.1218,2.8928 -3.4963,-2.06188 -1.9015,1.63111 -3.803,-1.10796 -0.644,-2.3389 2.8829,-0.27706 -0.1534,-1.66191 -4.2937,-1.78495 -0.184,-1.66182 -3.987,-0.43087 0,0 3.2509,-6.83215 6.686,-29.05175 0.9507,-27.42076 -3.619,-21.17329 -5.7658,-12.37161 -14.1386,-18.4036 -15.5801,-13.38721 -11.8078,-4.06228 -2.3922,0.55393 0,0 -2.0242,-1.35415 5.1525,-7.50911 4.6004,-0.73865 1.1041,-2.89283 4.4164,-2.49281 -0.1227,-1.66179 5.2752,-1.20026 -0.8894,-1.35414 1.9321,-1.60036 -1.8401,-2.70821 1.5028,-2.27728 -0.9201,-1.35417 7.9127,-3.13898 -3.0363,-3.04677 1.5949,-0.64628 -1.6562,-6.98599 3.527,-8.21698 -3.4657,-3.69305 -1.1961,-6.30887 -2.8216,0.24608 -5.7351,-7.07831 0.7054,-1.93888 -3.1283,-4.70855 2.0242,0.0616 -0.092,-1.66192 0,0 1.0428,-2.95439 0,0 -4.7231,-4.06232 -3.2816,-0.40005 -0.9814,-3.01596 5.6125,-8.09392 0.1533,-4.27776 2.9136,1.38492 1.5028,-2.24662 2.4842,0.70786 -0.8894,-1.32339 4.9071,-6.12426 -1.6868,-1.04629 2.3616,-0.92327 -1.6562,-1.01564 5.1832,-1.20021 -1.7789,-2.67743 2.8216,-0.24609 -0.8894,-1.35413 2.0242,0.0616 -0.8894,-1.32335 2.2695,-2.58509 6.5326,0.83092 -3.895,-4.37012 0.7054,-1.93878 -10.1516,-0.27707 0.2453,-2.61598 0,0 1.5949,-0.6155 0,0 -2.8523,-7.29371 -2.8216,0.27706 -0.7054,1.93885 -1.4108,-3.63145 -3.5883,0.55396 -0.8894,-1.35408 1.4721,-2.24665 -1.6561,-1.01562 1.4721,-2.27728 -1.7788,-2.64665 1.4108,-3.90854 0,0 -2.5456,-2.36965 0,0 -3.8644,3.16987 -3.0976,-4.67785 -1.0427,-4.61631 1.1347,-1.2617 -2.2082,-3.35452 2.8216,-0.24619 0.9508,-4.55472 5.5205,-2.1235 0,0 4.6311,-3.44676 4.8457,-0.18456 -0.9814,-2.98518 2.5149,-5.13946 1.2575,0.33856 -1.5335,-5.26262 6.0725,0.18457 4.7231,-1.81573 3.4043,-3.8162 2.9136,1.38492 2.2696,-2.52356 2.9136,1.38482 4.3857,-0.86167 3.343,2.06191 3.9257,-1.53866 0.7054,-1.9081 2.7909,-0.27706 2.1775,-4.15473 2.9136,1.38493 -0.6134,-3.90842 2.6069,-3.50839 1.5028,5.23177 4.7538,-1.81572 0.6747,-1.93889 4.3858,-0.86167 3.3429,2.06191 6.41,-0.83092 4.7537,5.66271 8.3421,-2.40055 3.0363,-2.83126 -1.1961,7.10899 -6.1032,5.69349 0.9814,2.95439 -1.3801,3.84688 -6.2566,9.9405 2.7602,5.60101 1.5948,-0.61552 3.0977,4.61631 -4.4471,6.73978 4.9071,7.29374 -3.6497,6.43204 1.1041,4.5854 8.0048,-1.44641 6.5019,0.8002 -4.5084,5.10868 -0.1534,4.24698 -3.9563,1.56954 1.6868,1.01551 -1.3801,3.87776 4.263,3.35449 -2.3002,8.46319 -8.9861,17.84957 13.1878,3.20058 4.4164,-0.92328 4.9685,1.41574 0.7054,-1.96966 6.6553,2.43128 3.7416,-4.86253 3.619,-0.58468 -1.8095,-2.64668 4.6311,-3.50839 0.6747,-1.93882 -1.6868,-1.01558 9.4769,-3.7545 0.9201,-4.55475 13.4332,0.55393 7.422,-3.78539 4.171,1.6927 0,0 0,5.878 3.4043,7.87843 4.8458,-0.2461 5.5512,3.66227 1.2574,6.18585 -3.4963,2.24653 -0.092,4.247 -1.5948,0.6155 0.5827,2.30818 4.0791,0.031 3.8336,2.67743 0.1227,1.63101 -2.0242,-0.0307 1.3802,1.96956 -3.067,2.92361 1.2575,0.33853 -1.4722,2.24663 2.4536,10.83285 -2.4842,-0.70777 -6.3486,2.5543 -1.4415,2.27738 -3.6496,0.61553 -2.791,6.18574 -5.2138,1.23102 4.7845,4.00079 -1.9936,5.87811 4.8151,4.00076 -2.7295,1.93881 -0.061,4.24694 -1.5948,0.6463 0.7054,3.93924 -6.8699,22.31206 1.7174,1.01551 -2.6069,3.6008 0.9508,1.32326 -1.4721,2.30819 2.1775,1.66181 -3.5883,6.58589 4.9684,5.6627 2.2696,-2.61599 6.6246,0.73864 0.1226,1.66195 3.343,0.36921 3.5883,3.69304 0,0 -0.6747,1.96967 0,0 4.1097,0.0616 0.1534,1.66192 2.9749,1.35414 -1.6255,4.95476 2.5149,0.70785 1.5335,3.66226 3.9563,2.73899 -1.9321,1.631 -0.5214,3.66227 3.2509,9.048 -1.012,2.98514 2.6989,2.36969 -1.6562,4.98562 2.6989,2.36968 -4.6311,3.63145 3.0057,1.35407 -0.6441,2.00046 5.0911,1.38482 1.1041,3.01598 5.8579,1.07718 0.644,-1.96966 6.4713,3.38529 1.4415,-2.27734 z"
          title="Manawatu-Wanganui"
          id="NZ-MWT"
          inkscape:connector-curvature="0" />
  <path
          d="m 890.24225,1038.3242 -3.89502,2.7081 -0.3987,-1.6305 -8.49544,6.8322 1.71749,0.9842 -2.02419,3.8471 0,0 3.28163,3.016 9.26218,-5.3546 -1.74816,-6.2782 1.28812,-2.0617 2.05485,1.4151 2.48423,-3.4161 -2.36155,-4.0309 z"
          title="Nelson City"
          id="NZ-NSN"
          inkscape:connector-curvature="0" />
  <path
          d="m 854.11363,5e-7 4.96845,3.3237217 -5.24447,1.7234115 0.0307,11.7869033 -4.96846,1.938835 0.58272,-4.031548 -5.73518,-0.430855 -1.99352,1.477206 1.93218,2.061947 -5.67385,-0.09236 2.42289,2.031161 -2.60691,2.000386 4.99912,0.123102 3.58833,-2.30814 -1.4108,3.908447 3.34297,0.369304 1.19611,2.462017 0.092,1.169462 -1.53347,2.308137 1.93217,0.646275 1.28812,-4.277751 -3.80301,-5.60109 3.86435,-0.707823 5.9192,20.927133 4.84578,6.493567 4.69243,2.67744 6.96196,9.571089 -0.7974,3.354502 -1.59482,-0.276975 -2.76025,-2.369689 -1.01209,-4.154652 -2.42289,-1.354112 2.17754,6.893654 3.03627,0.646269 5.73519,6.92442 10.21293,3.200624 -1.38013,4.4624 -3.55765,2.061941 0.42937,8.617059 2.54556,-3.015968 0.42937,3.477602 4.66176,0.892474 -0.3987,-1.784959 -2.48423,0.215432 0.79741,-3.631479 2.88293,-2.277365 0.76673,2.862098 1.87084,-2.58512 -5.88853,-13.417983 7.23799,-1.015586 4.93778,-2.800545 1.19611,-8.001545 1.96284,2.308137 -0.18401,5.201015 4.44707,-1.354116 -0.92009,1.723407 3.46565,2.031172 -6.83929,4.677833 -4.14037,-0.67706 -1.13477,2.862095 1.74816,6.893644 3.61899,4.585505 2.26954,1.538757 9.8449,0.615507 2.76025,-3.077522 -1.62548,-2.800546 3.74167,-3.077513 0.21469,-2.338915 3.12828,3.877668 4.29372,-0.215431 2.94427,4.246976 5.55117,-2.738985 1.84017,0.984799 0.85874,6.00117 1.84017,1.292557 2.48423,1.477215 -1.25745,3.539141 -3.89502,1.877286 1.8095,3.323729 3.09761,-0.0924 0.092,-5.293331 2.14686,1.908058 1.34946,-1.908058 -0.61339,-2.708219 -1.99352,-0.553948 0.79741,-1.261786 4.56975,-0.707834 2.05485,-2.30814 1.25745,2.277365 3.06695,0.0616 0.82807,2.49279 2.79092,0.430854 1.56414,-1.908061 2.85226,2.677445 -0.85874,1.507981 3.25096,2.30814 -1.62548,1.046361 1.53347,5.324103 3.28163,3.29294 12.7585,-1.231 2.88292,5.72424 3.34298,0.80011 -0.39871,2.3389 -4.20171,0 -2.45356,3.26216 -3.37364,-3.81611 -3.64966,-4.09312 -3.03628,2.36975 2.51489,0.21539 1.77883,3.50837 -0.3987,1.07715 -4.87644,2.70821 11.53171,0.58472 -1.53347,2.55438 2.85226,2.06192 -0.18402,4.64709 2.72958,1.41562 -0.0613,2.739 3.64967,1.78494 1.1041,0.73866 4.35506,-1.41572 4.53908,2.30819 -3.43498,-3.60069 -7.54468,0.58473 -1.77883,-3.1699 4.17104,0.12316 -3.83368,-3.81617 0.42937,-2.64665 6.1339,5.29331 2.26954,-0.67701 2.48422,1.66183 0.49071,-4.49318 3.95628,-2.46202 0.8894,-2.64664 3.6497,1.32329 1.2576,-5.90881 3.711,-0.49236 1.1346,-1.75424 0.6134,3.20065 -2.3309,0.36932 -1.4721,1.93879 1.6868,0.52317 -0.7054,1.23101 -2.9749,1.81574 3.895,3.01603 -3.2816,0.36925 -0.031,2.18504 5.1525,7.90922 4.6924,-1.07709 -0.5827,2.21578 -2.7603,0.15388 3.159,1.60032 0.6747,2.24655 -1.3188,2.95441 -1.7481,-1.13868 -0.2761,-3.60069 -1.9015,0.30775 -0.828,-1.96956 -1.2268,3.29293 2.3922,0.7078 1.9015,7.3245 1.9629,-0.21543 -1.2268,3.38528 3.6803,-0.92325 1.6562,1.96958 1.7481,-1.13867 -0.644,-1.60032 1.8708,0.52323 -0.552,3.93922 3.0669,1.78494 0.2147,3.29293 1.7175,-0.64628 1.4108,3.78539 -0.4294,1.23101 -1.5028,-1.63112 -0.9814,1.53877 2.1162,5.38564 4.4164,0.0308 3.0976,3.47764 -0.061,9.04789 -2.7294,-1.53877 -1.1961,5.90882 2.3922,6.30895 5.3365,0.43084 -1.9936,1.69265 1.3802,2.24657 -0.3067,2.8621 -1.5028,3.50836 5.2138,9.84808 -4.3858,1.0464 -3.7724,-1.47727 1.4415,-0.98476 -1.3188,-2.80057 -3.435,0.36933 0.8587,-2.33896 -1.7481,-3.6007 -1.3495,-2.24653 -5.5205,1.13864 -5.4591,-2.76977 -3.0056,2.18506 -1.1348,-4.0008 -2.7909,2.40046 1.6868,6.0935 -1.5028,1.20022 1.8708,1.16945 2.6989,-5.10867 1.1041,4.12386 6.594,1.72346 2.6989,-1.38493 2.3002,2.67744 3.527,0.15388 -3.527,4.58552 -1.1041,11.91001 4.7844,11.32523 3.987,3.23144 5.6432,-0.83091 2.2696,5.81646 -0.1533,1.93884 2.0242,4.00079 0,0 -4.0484,3.13911 -0.3067,4.12383 -6.1338,2.33891 -0.3681,4.12391 -6.1645,2.30811 -0.4294,1.72341 0,0 0,0 0,0 -0.7669,2.61591 -1.656,-1.13865 -6.594,5.41642 0,0 -2.1162,-0.67708 -0.7974,-1.10787 -3.9564,6.03192 -3.1896,-0.4001 -1.5948,-3.26215 -3.5884,-0.89247 -0.061,-3.63147 4.4164,-2.739 1.9629,3.38529 4.1403,1.16944 -4.447,-5.53956 6.5939,-4.70863 1.3801,-10.15579 -2.9442,9.81733 -6.1646,3.41598 0.2147,-3.20058 -2.3002,1.10787 -3.7417,-4.12384 3.343,-0.89248 -3.7417,-0.76941 -0.9201,1.66189 -2.2695,-1.75416 -0.1227,-3.75462 2.0855,-3.66225 -2.45349,1.75418 -1.22678,-0.95403 -2.94427,0.27696 -0.092,5.6011 1.8095,-1.26179 3.06694,3.44685 -3.28163,-0.8309 -0.58272,1.60026 3.03628,2.58515 3.95637,-1.6619 3.803,6.58595 -2.2388,-0.5848 -3.067,2.09278 0.1227,1.66181 -2.76029,0.73864 -3.49631,-4.64709 -1.71749,0.58473 -3.619,-3.32371 -3.89502,-6.46281 -7.23799,0.4001 -8.89414,-7.66304 6.01121,9.41721 4.23238,2.58515 3.09762,6.46275 7.08464,4.5855 2.88293,8.70943 0.15335,4.18541 -4.53908,3.87765 -11.7464,0.83094 -4.0177,-7.5707 -1.47213,-10.52511 -11.22502,-19.81924 -64.83523,-87.21693 0.36803,-2.15425 2.42289,0.0616 0.46004,-4.18539 2.42289,-2.86212 -1.1041,-1.8773 1.8095,-0.43082 0.73606,-7.29373 5.45917,-2.36966 3.25096,2.27732 1.1041,-4.06235 1.71749,2.30818 4.4164,-5.10867 0.12268,-2.33896 3.18962,0.36932 0.67473,-1.90809 -5.30582,-1.56948 -2.11619,7.50913 -3.09761,-1.69266 -2.45356,3.81615 -7.60602,-0.43087 -2.1162,2.06198 1.01209,2.80051 -2.39221,0.27695 -1.56414,12.21777 -2.1162,1.07717 -17.29757,-21.20416 -6.99263,-11.50992 1.07343,-1.01554 -12.78917,-14.34125 1.13477,-4.37011 8.15808,1.84652 4.10971,-5.8473 0.76673,-10.832853 -3.49632,-11.140631 -9.69154,-16.557058 -25.57833,-35.730007 -14.10795,-14.248916 -3.25096,-0.646282 -1.87084,-5.077909 -4.0177,-2.031162 2.88293,-8.1246546 L 830.4066,9.01714 835.16037,6.2473708 835.8351,3.262168 849.20698,4.924033 854.11409,0 Z"
          title="Northland"
          id="NZ-NTL"
          inkscape:connector-curvature="0" />
  <path
          d="m 1546.1699,2476.1726 1.8095,2.1848 -3.343,5.2325 0.46,2.2155 -3.895,0.7389 -3.527,-5.7549 8.4955,-4.6168 z m -1249.59628,-907.4988 2.5149,-0.9544 3.12828,1.6625 10.21293,-1.9087 4.4164,-4.4926 6.71661,-2.4937 2.63758,0.8928 8.86347,-8.9555 3.37364,-1.2305 1.44146,2.2771 5.30582,1.8154 -0.61339,-2.585 4.90711,-3.6932 0,0 2.88293,-2 0,0 3.92569,-5.2315 -0.98142,-1.5085 3.18962,-9.6329 -0.73607,-4.4311 2.5149,-0.9234 0.21469,-2.8929 11.37836,-3.2314 -1.1041,-3.3547 3.71101,-2.3079 -1.59482,-4.0935 5.0298,-1.846 -0.61339,-2.5851 7.66736,-0.9235 -0.12268,-1.8153 7.88205,-3.8164 2.08552,4.8313 11.62373,0.4002 2.51489,-0.9236 0.58272,-3.9385 1.68682,-0.6157 -0.98142,-1.5085 3.34297,-1.2304 2.69891,7.3855 4.93778,2.8322 8.55678,-5.9713 1.4108,-4.2156 5.1218,-0.031 3.52698,-4.0934 5.94988,-0.3694 1.74816,-5.2623 -1.93218,-2.9852 1.38013,-4.2165 4.75376,0.985 6.28724,-1.4151 2.26954,1.9078 0,0 1.77883,12.2792 -3.80301,0.4927 -0.88942,4.9851 -2.48422,0.9236 0.61338,2.5542 -2.48422,0.9235 0.27602,3.6307 -2.97493,0.1846 0.61339,2.5551 -2.82159,2.0001 0.95075,1.5075 -4.50841,2.6167 -0.92008,5.016 -2.48423,0.9544 4.84577,7.5087 -0.15334,9.4172 -1.65615,0.6157 0,0 1.1041,3.3239 0,0 0.98142,1.5075 -2.02419,1.6932 0.61339,2.5849 -2.02418,1.6922 1.93218,3.016 -2.02419,1.6932 0.76674,4.431 -2.02419,1.6933 4.07904,3.139 2.48423,-0.9544 6.10322,1.447 0.61339,2.5849 -2.23887,4.6158 2.9136,4.5553 -2.30021,9.3557 9.07816,1.2304 0.0613,-4.739 2.02419,-1.7239 3.58832,13.7263 8.86348,4.154 6.50192,-4.4003 6.10322,1.4151 6.59393,24.9281 -0.55205,4.0011 4.0177,7.9396 4.90712,2.8313 1.59481,4.1242 -1.99352,1.723 2.63758,0.862 0.64405,2.6157 14.87469,-1.0457 3.98703,-3.4777 0.98142,1.5382 4.63109,-0.8609 2.33088,-2.8323 3.46565,0.5541 -0.0613,4.8016 2.76025,2.7388 4.47774,-2.708 1.8095,1.1995 2.33087,-2.8312 6.59394,-2.6157 1.84016,-3.6009 1.31879,0.431 1.56414,-7.2931 5.48984,-6.0012 23.33945,10.6477 8.18874,1.4777 0.15335,1.8462 3.77234,-0.5849 4.87645,2.7696 5.06046,-0.1845 2.76025,2.7081 2.45356,-0.9841 6.99263,2.9236 4.60042,-0.8928 3.64966,1.4161 0,0 -7.23799,13.3558 -12.78916,12.8027 -0.98142,2.6466 1.19611,2.6465 -7.17666,5.3546 -7.11531,14.773 -0.12268,4.8005 -4.4164,9.3558 0.7054,5.0468 3.92569,0.3386 0.88941,2.7389 -0.24535,4.2474 -1.47214,-1.1698 -2.30021,2.0318 -3.09761,6.4311 -0.30669,2.7398 2.82159,3.0777 -9.17017,10.1551 -3.28163,5.7856 -0.36804,4.8015 -3.74167,4.2773 -0.88941,-1.7538 -1.99352,1.0466 -1.16544,3.8154 -0.55205,1.5701 -0.27602,4.1848 -9.93691,8.9863 -0.0613,3.5393 3.43498,-2.154 3.43498,1.4459 1.44147,-0.4607 2.94426,3.9384 3.37364,-1.0764 1.96285,4.154 -9.5382,3.016 -0.0307,4.0626 -2.69891,0.154 -4.50841,7.017 -7.29933,4.1848 9.20083,-2 2.30021,-5.0468 5.64318,-0.9852 2.45356,-1.0466 -0.27603,-3.1392 6.31791,-3.0159 0.82808,-4.3387 2.82159,5.2007 -2.36155,3.2007 -0.15335,3.8163 -4.29372,-0.9851 -1.62548,1.4469 1.5028,1.4767 6.53259,-1.6614 -0.27602,5.0468 -7.36067,1.0467 0.30669,-2.9544 -3.09761,-2.0626 -0.36803,2.4617 3.46564,4.5245 -2.85226,2.0925 -6.71661,-1.2921 -1.77882,1.1073 0.0307,3.0776 -1.13477,0.062 0.092,-3.1391 -10.82631,1.3854 -18.24833,5.3239 -5.18314,3.3854 -11.56238,16.1265 -0.21469,8.5245 -3.28163,8.6169 -20.1805,15.1106 -3.40431,5.2007 -4.84577,2.2473 -4.84578,5.1699 -11.4397,5.3547 -1.90151,8.9247 2.23887,2.4311 0.21469,5.878 -2.60691,1.4776 -0.3987,2.6466 -2.72958,2.4311 -11.77707,-2.8004 -4.75377,2.1549 1.71749,1.8153 4.17105,-3.2931 2.48422,2.2772 2.17754,-1.1073 2.36154,2.2771 -3.46564,3.2931 0.49071,1.8153 -5.91921,3.3854 -4.4164,0.3386 0.0307,2.8929 -2.76025,1.2622 -0.58272,2.3079 -3.83368,-3.5086 -1.19611,1.1391 -2.48423,-1.724 -5.18313,0.8312 -1.19611,4.0935 -2.63758,-0.7081 -1.13477,3.3546 1.1041,0.5849 -4.90711,1.8461 -3.34297,-0.9236 -2.51489,2.0012 1.28811,2.1539 -1.47213,1.2304 -8.67946,-2.9852 -3.28163,1.9702 -1.74816,0.6466 -2.33088,3.723 -2.3002,0.7081 -1.13477,-1.3228 0,0 0.92008,-6.5245 2.05485,0.093 0.49071,-4.1859 -3.61899,-2.6157 0.67473,-2.308 3.92569,-0.6157 3.40431,-6.4321 -8.3421,-4.6168 -2.54556,-3.9693 -0.15335,-1.9394 3.40431,-1.3536 -0.30669,-3.8472 1.71749,-0.6773 0.18401,-3.0468 -2.02418,-3.1698 -5.91921,-2.585 1.04277,-3.3854 5.82719,-4.2771 -1.84016,-1.2314 2.42288,-2.9236 -1.99351,-3.1391 2.48422,-7.8781 -1.5028,-2.3694 2.26954,-4.8323 -3.68033,-2.4619 -1.77883,-6.1859 -3.55766,-0.5541 0.21469,-3.0159 4.60041,-2.8006 -0.27602,-3.8162 -3.18962,-1.6923 2.42288,-2.8929 -0.64406,-2.6772 -5.85786,-2.585 -3.95636,-6.2782 -0.27603,-3.8164 2.42289,-2.8928 0,0 1.07343,-3.3546 0,0 -2.82159,-2.8005 2.97494,-7.017 -2.82159,-2.8005 1.19611,-1.4459 -3.15896,-1.6932 -0.70539,2.2155 0,0 -5.21381,0.093 0,0 0.95075,-5.2314 2.05486,-1.7538 -2.94427,-4.6784 0.18402,-9.7867 -1.34946,-0.4608 1.28812,-6.3398 2.05485,-1.7547 0.42937,-5.9704 3.37364,-1.2919 1.90151,-3.6317 0,0 0.58272,-4.0935 0,0 3.25096,-3.2007 3.55766,-11.0171 1.38012,-11.1402 1.56414,-2.5245 5.55118,-1.1688 1.56414,-2.5234 -2.08553,-4.9555 -1.68682,0.6465 -1.96284,-3.1082 -1.71749,-6.0629 -6.28724,-3.3545 -0.27602,-3.7548 -2.9136,-4.6466 -6.96197,5.5394 -12.5438,24.9897 -2.88293,2.0616 -2.66825,-0.8928 0.21469,-2.9852 -1.8095,-1.2304 -2.54556,0.9543 0.12268,1.8769 -3.64967,-2.4618 -2.54556,0.9534 -0.42938,-12.341 -3.03627,0.1847 -3.28163,-3.5692 -3.98703,-1.3545 1.56414,-2.5235 -0.3987,-5.6008 -2.57624,-5.755 1.19611,-1.4161 -1.8095,-1.2314 -3.37364,1.293 -3.95636,5.3547 -5.55117,1.1391 -2.76025,3.9394 -9.81422,2.739 -16.4695,0.4309 -2.54557,-5.7558 0.95076,-5.17 -2.42289,-3.8779 1.56414,-2.4926 -5.45916,-3.6933 -0.98142,-1.5382 1.19611,-1.4161 -3.28163,-3.5691 1.22677,-1.4162 -3.15895,-1.6921 2.79092,-3.9088 0,0 0.73607,-2.1847 0,0 1.68682,-0.6466 -0.98143,-1.5392 1.68682,-0.6148 -0.12267,-1.8778 3.03627,-0.1846 1.31879,-6.2166 -1.31879,-0.4619 2.42289,-2.8004 -1.44147,-2.3079 -6.77794,2.5234 -3.77235,-4.3079 0,0 -3.28163,-3.5394 0,0 -2.05485,-4.9544 -4.47774,-2.1549 1.44146,-4.3388 -3.49632,-7.2633 1.68682,-0.6157 0,-6.6477 5.18314,-0.031 -0.61339,-2.6158 2.42289,-2.8004 0,0 0.73607,-2.154 0,0 0.12267,-4.7698 1.68682,-0.6156 -0.95075,-1.5393 -1.68682,0.6157 -2.05485,-4.9236 1.19611,-1.3853 -0.95076,-1.5384 3.25097,-3.1082 -1.8095,-1.2315 0,0 1.56414,-2.4619 0,0 -0.12268,-1.847 1.68682,-7.2315 2.5149,-0.9544 -0.61339,-2.6158 1.68682,-0.6157 -0.85875,-6.2782 6.83929,-7.2623 5.55117,-0.4002 z"
          title="Otago"
          id="NZ-OTA"
          inkscape:connector-curvature="0" />
  <path
          d="m 398.54956,3011.1996 3.25096,0.6464 -1.41079,4.9545 2.63757,1.8163 0.27602,0.8302 -0.92008,6.6168 4.35506,1.4777 -0.85874,2.4619 -2.97494,0.062 -3.40431,-3.6317 -6.13389,-0.1232 -2.69891,3.57 4.66176,-2.1231 8.18874,4.6466 -4.23238,5.1699 -3.89503,-2.2156 1.25745,2.5849 -3.46565,0.585 -1.04276,-2.2463 -1.71749,2.5541 -0.52138,-3.5085 -2.85226,-0.2462 -1.31878,-3.1391 -1.44147,0.092 0.36804,-1.6921 -3.25097,-0.7081 -2.2082,1.3545 -2.79092,-4.8015 3.18963,-2.4925 1.47213,1.9076 3.25096,-0.9226 -0.3987,1.6307 2.66824,0.9235 6.83929,-12.5256 -2.57623,-1.9077 6.3179,0.062 0.33737,-2.0318 1.04276,0.3695 z M 6.6552716,2697.477 l 6.7779494,4.4628 7.698033,-1.2007 1.410795,1.1699 2.330878,-3.2007 8.955481,2.4927 6.839288,3.9395 -4.723096,0.1539 1.410795,3.447 -5.121799,2.8312 -7.912719,2.585 -5.336485,-4.1858 -0.153347,1.57 -8.280753,-2.2165 -0.5520499,-4.3079 -1.349456,1.8768 -3.036276,-0.8004 -0.3066945,-4.739 -1.9015062,-1.3843 2.6375731,-0.5849 -0.3680335,-2.8004 0.9814226,0.8918 z m 30.4854374,-62.3194 2.606904,2.7697 2.177531,-2.4926 2.208201,1.138 -2.974937,3.4471 0.613389,2.0318 -5.581841,2.3079 6.256569,-0.7389 5.643179,-5.0161 0.337364,1.6307 2.116193,0.092 -3.649665,2.4617 2.606903,1.9395 0.521381,3.9078 -8.98615,-0.2155 1.68682,1.0774 -1.656151,2.9853 3.92569,0.6771 -1.196108,2.4003 -2.26954,1.9385 -4.968452,-4.6158 -0.674728,1.6307 4.385732,4.0319 -0.184016,1.2621 -1.870837,1.1073 2.852259,1.7855 -5.704518,-0.8928 3.312301,4.6169 -4.784435,0.9533 1.410795,0.9544 -2.514895,1.8769 7.29933,-0.6147 0.398703,2.9543 -2.330879,1.6923 -5.857866,-1.9386 3.649665,3.2007 -3.526987,0.7379 0.613389,0.9851 3.005607,-0.6772 2.913598,1.8778 -0.521381,1.6922 3.864351,4.5861 -3.526987,3.3228 4.201715,0.093 -1.65615,1.7855 2.26954,1.0457 -3.618996,1.7239 4.815104,1.3229 -1.380125,3.7548 1.472134,1.2005 -2.26954,2.308 -6.256569,-0.154 -7.360669,-5.2315 -3.803012,-4.9554 -0.460042,3.4162 -3.526987,0.8004 -0.920084,-1.0467 3.92569,-3.0467 -0.981422,-8.4014 -3.588326,-0.5233 -1.472134,-2.8929 -1.472134,4.7399 3.066946,2.6774 0.736066,3.4777 -1.257447,0.8302 -1.993515,-1.6306 -2.23887,-5.016 -1.257447,2.5541 3.833681,4.1849 -0.06134,2.5244 -2.422887,-0.6157 3.95636,4.862 -1.196109,1.6317 -4.569748,0.6762 -4.907113,-2.8004 -2.0548534,-5.3854 -0.4600418,3.5085 -3.9563596,1.9384 L 0,2689.4759 l 2.5455647,-3.6624 -1.4107949,-2.0309 6.6552716,-2.1232 3.4656486,-5.1093 1.441464,-1.1688 6.379247,-1.7548 6.593932,-8.0935 -1.717489,-5.2931 3.711004,-12.3717 -0.337364,-2.155 -4.017699,0.6465 -0.276025,-1.723 3.95636,-0.4002 -0.245356,-1.5085 -2.82159,-3.0159 -3.987029,1.1698 3.680335,-3.2315 5.980543,-0.2461 1.656151,-2.7698 1.073431,0.7389 -1.472134,4.0924 2.729581,-4.3387 1.778829,2.0616 1.778828,-2.0308 z m 15.028033,-5.1699 2.2082,1.7845 -0.276025,2.4003 -4.447071,-1.1996 -2.852259,1.1996 1.13477,-2.8313 4.232385,-1.3535 z m 187.114338,-687.7953 12.91184,6.4937 3.49632,12.4641 3.18962,1.2611 0.82808,3.2931 6.07255,2.431 -0.95075,3.9703 7.33,1.0159 0.0307,1.6922 0.73606,1.6008 1.62548,2.8313 -2.85225,2.9236 -9.04749,-2.8004 -0.64406,2.277 0.33736,1.6306 -1.99351,0.2463 -4.0177,-3.0468 2.36155,-0.9226 -4.17105,-5.1401 0.95075,4.6168 -3.0056,-0.6157 -1.59481,2.9544 1.44146,3.9088 -3.34297,1.5074 -4.84577,6.3398 6.3179,-3.6625 2.85226,-4.3387 3.18963,-0.862 1.71749,2.585 -0.64406,2.0924 4.72309,-0.7686 4.29373,2.4001 3.83368,-0.4001 -6.86996,4.7707 6.16456,1.3228 1.59481,-0.6465 0.7054,-3.5393 3.64966,0.4618 -0.85874,-5.6625 3.3123,-3.2931 0.82808,1.5085 -2.17753,1.8461 -0.64406,6.0935 4.63108,3.4162 -1.65615,2.0924 0.79741,1.7548 2.45356,0 -3.34297,2.1539 1.16543,2.739 -1.56414,1.6931 -2.97493,-1.1698 -0.95076,2.5233 2.17753,3.755 2.88293,-0.585 1.59481,3.3546 -2.6069,0.3078 -0.58272,-2.3694 -2.9136,-1.293 -3.25096,2.2463 1.22678,4.4322 -2.11619,0 -1.44147,1.5073 -5.88853,-3.5075 -1.65615,0.5224 -0.0307,2.8313 -1.99352,0.9235 -3.711,-1.9077 -6.01121,3.724 -1.50281,-2.001 -6.13389,7.3865 -3.64966,-0.1846 -0.58272,2.3695 -1.93218,-0.5234 -3.12828,2.2463 -3.68034,-2 -2.72958,0.6465 -0.98142,-2.3079 -4.3244,1.9077 -2.94426,-5.4778 -1.28812,3.4777 -2.2082,-0.6464 0.79741,4.7389 -2.60691,1.7547 -1.28812,-1.2929 -1.25744,2.8312 -3.15896,-0.2461 0.52138,2.3704 -3.74167,2.1232 -2.66824,-1.2314 1.07343,2.0625 8.86347,-1.3236 -0.0307,-2.1849 1.96285,0.1847 0.98142,1.2919 -2.30021,6.1243 -3.92569,1.2314 0.73607,-4.2781 -4.44707,1.6316 1.31878,0.7081 -2.11619,3.1689 -4.07904,2.0934 -5.70452,-0.862 -0.15334,-2.5851 -2.36155,2.0925 -2.14686,-0.7696 1.68682,-11.0171 3.83368,-3.4162 2.39222,1.0159 0.95075,-2.8621 4.87644,-1.6315 0.92009,-1.8462 -0.3067,-3.0775 -1.38012,2.2771 -0.76674,-1.1997 4.07904,-7.0786 -2.48423,-0.2155 -1.04276,-3.9395 2.5149,-1.1688 4.84577,-7.5097 3.711,-0.8927 4.81511,2.4935 2.23887,-1.0159 -0.61339,-2.0616 -1.65615,0.093 -0.76674,-3.3546 1.90151,-1.9087 -2.5149,-1.0149 0.67473,-3.2315 -1.96284,-0.1845 -0.21469,-5.8164 1.96284,-1.1084 -1.31878,1.9077 1.07343,2.6168 5.58184,-0.7696 4.75376,-7.9406 -0.12267,-4.9237 -2.42289,-2.0308 1.5028,-1.1699 -0.85874,-3.4777 -6.04188,-9.2018 2.11619,-1.4459 -1.8095,-5.5394 2.66824,-4.7399 -0.85874,-2.4003 8.21941,-4.8621 5.45917,2.9544 4.1097,-3.8163 z m -148.102792,-101.9281 3.189623,1.3239 -0.214686,1.8152 -5.612511,4.6784 -0.797405,-4.8938 3.434979,-2.9237 z m -13.310544,-10.7093 3.526988,2.0617 -1.748159,1.0158 -0.09201,2.6774 -3.312301,-1.9692 1.625481,-3.7857 z m 30.393426,-49.887 0.73607,0.862 -8.8328,4.1243 -11.010336,1.7538 -0.184017,-1.723 3.066945,-0.062 1.502803,-2.0626 14.721335,-2.8928 z m -27.847861,-0.093 3.097615,2.0318 -5.551171,2.154 -0.06134,1.5393 -4.47774,-1.2006 0.644058,-3.0776 4.753765,0.3386 -0.368033,-1.6315 1.962845,-0.154 z m 35.545901,-3.8461 4.35506,0.6454 1.44146,2.0934 -7.51401,2.6466 -3.95636,-0.9852 -0.27603,-2.1847 2.17753,-2.0001 3.77235,-0.2155 z m -18.800379,-21.0194 4.263059,4.8004 0.92008,12.4642 -0.76674,4.6772 -3.711001,3.7548 -2.82159,0.8314 -2.177531,-1.8472 -6.716611,2.2781 0.398703,-1.57 -1.993515,-0.9534 1.625481,-3.1083 -5.551171,-2.0626 2.23887,-0.7697 2.576235,-1.4151 -0.889415,-1.0775 -2.453556,-1.2612 0.153347,-2.7696 -13.157196,13.2634 0.429373,-4.8004 5.673849,-5.8165 1.748159,-4.2166 0.920083,0.6157 -0.03067,-3.4777 2.760251,-3.3239 1.472134,1.6625 6.593932,-4.9862 2.729582,1.5392 3.34297,-2.3387 1.073431,1.8769 1.349456,-1.9692 z m 33.889749,-76.1072 0.7974,2.7082 -2.45355,6.3089 6.40991,15.9408 -3.25096,0.9544 -13.06519,-10.463 4.41641,-8.7103 5.24447,-6.4927 1.90151,-0.2462 z m 135.43631,-147.0442 6.80862,2 10.36627,-4.9237 5.61251,0.6465 3.2203,3.4162 4.29372,0.2155 1.19611,5.1699 -1.19611,1.3845 4.07904,3.139 -0.7054,2.1549 5.27514,1.7538 -0.70539,2.154 -3.00561,0.1845 0.12268,1.8472 -4.53908,2.6466 2.76025,2.7388 -1.19611,1.3844 0,0 -0.7054,2.1549 0,0 -2.51489,7.5394 0.95075,1.5394 0,0 -6.01121,0.3694 -6.83929,7.2623 0.85875,6.2782 -1.68682,0.6465 0.61338,2.6158 -2.51489,0.9543 -1.68682,7.2316 0.12268,1.8471 0,0 -1.56414,2.4618 0,0 1.80949,1.2314 -3.25096,3.1084 0.98142,1.5381 -1.19611,1.3854 2.05486,4.9237 1.68682,-0.6157 0.98142,1.5392 -1.68682,0.6157 -0.12268,4.7698 0,0 -0.70539,2.154 0,0 -2.42289,2.8004 0.61339,2.6158 -5.18314,0.031 0,6.6477 -1.68682,0.6157 3.49632,7.2633 -1.44147,4.3388 4.47774,2.1549 2.05486,4.9544 0,0 3.28163,3.5393 0,0 3.77234,4.308 6.77795,-2.5234 1.47213,2.3079 -2.42288,2.8005 1.31878,0.4618 -1.31878,6.2166 -3.03628,0.1846 0.12268,1.8778 -1.68682,0.6455 0.98142,1.5393 -1.68682,0.6465 0,0 -0.73606,2.1848 0,0 -2.79093,3.9086 3.15896,1.6923 -1.19611,1.4161 3.28163,3.5691 -1.19611,1.4162 0.98143,1.569 5.45916,3.6932 -1.56414,2.4927 2.42288,3.8779 -0.95075,5.17 2.54556,5.7558 16.50017,-0.4311 9.81423,-2.7388 2.76025,-3.9395 5.55117,-1.1391 3.95636,-5.3238 3.37364,-1.2622 1.8095,1.2314 -1.19611,1.4161 2.57623,5.7549 0.3987,5.6317 -1.56414,2.5234 3.98703,1.3545 3.28163,3.5691 3.03628,-0.1845 0.42937,12.3409 2.54557,-0.9534 3.64966,2.4619 -0.12268,-1.878 2.54557,-0.9533 1.8095,1.2304 -0.21469,2.9852 2.66824,0.9236 2.88293,-2.0617 12.54381,-24.9896 6.96196,-5.5394 2.94427,4.6466 0.27603,3.7548 6.28723,3.3546 1.71749,6.0627 1.96285,3.1083 1.68682,-0.6465 2.08552,4.9863 -1.53347,2.5233 -5.55117,1.1688 -1.56414,2.5235 -1.34946,11.1412 -3.55766,11.0172 -3.25096,3.2007 0,0 -0.58272,4.0934 0,0 -1.90151,3.6625 -3.37364,1.3228 -0.42937,6.0011 -2.05485,1.7548 -1.28812,6.3397 1.34946,0.4609 -0.18402,9.7866 2.94427,4.6784 -2.05485,1.7538 -0.92009,5.2315 0,0 5.21381,-0.093 0,0 0.7054,-2.2155 3.15895,1.6922 -1.19611,1.4469 2.82159,2.8004 -2.97494,7.0171 2.82159,2.8005 0,0 -1.07343,3.3546 0,0 -2.42288,2.8928 0.27602,3.8164 3.95636,6.2772 5.88854,2.5859 0.64405,2.6774 -2.42288,2.9236 3.18962,1.6921 0.27603,3.8164 -4.60042,2.8005 -0.21469,3.016 3.55766,0.5541 1.77883,6.1859 3.68033,2.4618 -2.26954,4.8313 1.50281,2.3705 -2.48423,7.878 1.99351,3.1392 -2.42288,2.9235 1.84016,1.2314 -5.82719,4.3079 -1.04276,3.3855 5.9192,2.5849 2.02419,3.1699 -0.18402,3.0468 -1.71749,0.6772 0.30669,3.8472 -3.40431,1.3536 0.15335,1.9395 2.54557,3.9693 8.34209,4.6168 -3.40431,6.4321 -3.92569,0.6157 -0.67473,2.3079 3.64967,2.6158 -0.49072,4.1857 -2.05485,-0.062 -0.88941,6.5235 0,0 -6.47126,-1.292 3.89502,-4.0011 -4.8151,-3.3853 -1.84017,6.9555 -0.79741,3.3237 -4.47774,1.4767 -4.75376,-0.6146 -3.3123,1.2303 -1.53347,-1.7537 -2.5149,1.2612 -3.06695,-2.8312 -11.50104,0.708 -2.88293,-6.1858 1.16544,-2.7697 -3.46565,-2.862 -1.31879,-2.0925 -9.29284,-2.1549 -14.44531,3.0467 0.76673,-3.0775 2.69892,1.293 2.02418,-1.2622 -5.21381,-2.7389 -5.39782,1.0159 4.14037,4.5543 -7.79004,3.8163 -10.42761,0.1542 -5.76586,-2.2155 -1.93217,1.4151 -0.95076,-0.6763 1.99352,-2.8004 7.42201,0.7686 1.1961,-0.861 7.48335,2.7697 1.84017,-1.1698 -1.31879,-2.8006 -7.88205,-2.5234 -4.53908,-0.092 -4.07903,2.4311 -1.77883,-3.2931 1.1041,-1.2621 -2.54557,-2.1848 -1.99351,2.7697 -0.98142,-1.2612 -2.9136,1.1072 1.9015,6.1243 1.8095,0.4926 3.40431,4.0626 -3.68033,2.308 -2.36155,-5.5087 -4.26306,-1.6315 -0.82807,-4.8929 -4.50841,-0.6157 0.85874,-2.0309 -1.62548,-4.0934 8.40343,-1.5075 3.37364,0 6.34858,-3.8779 0.0613,-1.8154 -3.46565,-0.5233 0.36803,-6.9555 -1.65615,-2.3079 -1.28811,0.7388 0.58272,4.8929 -5.70452,1.6307 1.68682,1.6624 1.19611,4.155 -3.77235,0.9533 -8.4341,-17.6032 -9.04749,-9.1095 -9.07815,-0.7696 -3.68034,3.5086 2.02419,3.8779 -14.9667,-4.7707 -4.07904,2.155 0.61339,4.0001 -6.86995,-4.1849 -5.21381,3.877 -3.37364,-4.0309 -2.45356,-0.3694 -0.49071,-5.4162 -4.8151,-0.862 0.092,-3.2315 4.75377,-2.4002 -1.71749,-6.1551 -11.89975,-11.6021 -13.5559,-6.8631 -11.83841,-0.4617 -1.28811,4.5244 -4.78444,2.8312 1.31879,6.0012 -2.48423,4.0001 -8.1274,-1.1381 -7.05398,3.0159 -10.3356,-2.1549 -2.79092,1.2621 -10.45829,-5.2007 -7.51401,0.4311 -9.96758,-3.447 -7.48334,0.6157 -3.64967,3.3536 -1.74816,-3.1997 -4.29372,-0.062 -1.28812,-1.5392 -5.857863,0.8312 -5.213807,-8.5246 -2.26954,-0.7081 9.507531,-7.4172 3.189619,-0.123 -0.61338,-3.723 1.99351,-3.3854 1.47213,-1.3545 3.68034,-0.7697 1.59481,-2.1847 -0.92008,-7.755 9.75288,-3.5392 7.51402,-8.9248 -5.76586,3.293 -2.26954,3.5075 -9.10883,1.6624 1.4108,1.4459 -3.74167,1.5085 -2.05486,3.6318 3.3123,5.9395 -4.32439,0.8928 -1.90151,3.6614 -1.993511,-3.8461 2.698911,-4.0935 -0.27602,-1.7239 -3.803016,5.2017 -4.784435,5.4469 -0.122678,-2.0924 -3.588326,-1.9702 -3.250962,3.3853 0.368033,1.6009 -2.637573,0.5531 -0.398703,-3.5075 2.085523,-1.4469 1.226778,-5.7548 3.465649,-7.5404 8.372761,-3.016 9.538199,-0.1532 -2.05485,-2.4937 1.96284,-0.6147 -0.73606,-0.8004 -6.99264,2.1232 -7.053975,-1.569 4.907113,-12.2179 2.146862,-1.5391 -2.514895,0.3078 -10.611631,17.3261 -4.815105,0.7081 -6.900627,4.7707 -3.158954,1.7538 -2.82159,-2.4311 0.368034,-9.8483 -3.066946,-6.3398 1.594812,-7.2931 -1.1041,-3.8164 2.361548,-1.57 -0.06134,-2.5233 2.882929,0.062 1.380125,-2.2463 4.600418,-1.6008 8.679456,0.1232 3.189623,-0.6147 19.475103,-5.1093 6.31791,0.3694 5.15247,-4.1243 8.25008,-0.9841 3.619,-2.8005 -3.83369,0.6148 1.90151,-4.0001 -1.13477,-0.2772 -2.69891,5.293 -13.24921,-3.7856 -11.07167,3.9396 2.79092,-10.2485 22.23536,-6.2772 3.74167,-4.4321 -4.87644,3.724 -8.77147,0.5849 -14.41464,6.0011 -0.55205,-11.8791 4.56975,-0.3079 2.26954,-2.8312 10.09025,-4.3397 4.93778,2.1232 5.27515,-2.0924 3.09761,2.0616 1.68682,-1.1996 -4.17105,-1.8472 -5.67384,1.8164 -3.71101,-1.0159 0.15335,-2.154 7.26866,-2.2473 4.26305,-3.1381 -1.65615,-1.5701 -11.59305,4.9544 -0.30669,2.2781 -11.53172,2.8005 -4.26305,3.4777 -5.520507,0.8303 -2.637573,-1.5383 2.392218,-12.9566 3.128282,0.862 0.85875,-1.1699 -1.96285,-2.1232 0.27603,-2.4002 4.84577,-11.8792 6.13389,-1.0466 10.55029,7.0785 -2.26953,-3.1391 -0.85875,-5.9395 -1.28812,5.3238 -5.98054,-5.4162 -3.86435,-0.5849 -0.58272,-3.1698 3.12828,-6.032 4.47774,-4.2474 1.68682,-4.2771 12.69716,7.2623 -6.34858,4.2473 8.55678,-3.6932 7.14598,5.3239 -1.22678,2.4013 2.17753,-2.0011 3.86436,1.3854 4.56974,8.6169 1.0121,5.8472 -5.1218,5.016 -1.65615,4.9553 3.58832,-5.9395 5.45917,-4.7707 3.46564,3.7856 -9.5382,-18.0034 -4.84577,-2.1848 -4.32439,-5.1094 3.25096,-4 10.48895,-1.8471 2.66824,1.0159 -0.21468,-2.0617 0.3987,-1.6624 -2.48422,-0.7081 -1.74816,2.5235 -9.87557,1.6008 -1.93217,-1.0467 -0.7054,-5.5085 -3.64967,-5.0468 0.88942,-8.5245 1.28812,-0.4619 -2.39222,-4.4936 3.34297,-2.4003 1.41079,-3.4777 3.74168,2.1539 7.05397,11.5416 5.33649,-1.2315 -1.56415,-1.2314 -3.46564,1.1083 -4.10971,-8.9248 -2.48423,-2.9544 -2.82159,-0.5541 6.16456,-8.8939 6.34858,8.463 0.0613,4.9861 3.98703,3.5701 0.15335,-1.4469 -2.88293,-1.4469 -0.33737,-5.2315 9.29285,0.9544 -2.30021,-2.1233 -7.33,-0.2155 -3.58833,-4.1858 -1.96284,-5.4162 0.0307,-2.154 5.24447,-3.8471 0.73607,2.5234 19.56711,5.6317 -0.33736,-1.4152 -7.51402,-2.4319 -7.36067,-3.6 -3.40431,0.5223 -1.62548,-4.2463 4.78444,-4.8015 1.47213,-1.2612 2.82159,-3.7856 1.31879,-2.4003 2.63757,-1.3237 2.94427,-6.0627 3.64966,-0.8918 3.09762,-3.2314 1.77883,0.1845 0.67473,4.9544 3.61899,5.9705 -1.07343,5.6624 3.06695,1.0774 1.1041,1.7231 -2.5149,6.2782 3.619,-4.0935 3.55765,1.7856 -6.96196,-8.1552 0.85874,-1.6623 1.62548,0.5541 -5.67385,-13.7571 -0.15334,-4.0308 2.94426,-2.6158 2.1162,-1.3545 5.9192,-4.4927 5.02979,0.5531 5.85787,4.0627 -5.91921,7.8165 0.52138,2.862 4.44707,2.9554 -3.64966,-4.7399 5.76586,-8.6477 -6.44059,-8.2783 4.32439,-3.878 7.33,1.723 -3.80301,-3.7846 0.61339,-5.4788 5.85787,-4.431 5.85786,4.4002 -3.61899,-7.2623 3.46564,-0.9235 5.55118,-5.2931 3.58832,-0.1539 1.50281,-4.0011 3.89502,-1.4459 2.72958,5.2623 2.39221,0.3694 0.42938,-15.6955 -1.65615,-2.6466 3.28163,-1.7239 3.52699,-8.4938 6.90062,-7.5086 3.18963,-1.6624 2.05485,0.9851 3.15895,-3.6008 2.02419,1.2929 4.23238,14.8335 0.42937,8.4322 2.42289,1.139 -2.36155,-17.5733 -7.63669,-14.2179 11.7464,0.4618 3.00561,-6.5552 -2.33088,-2.6466 z"
          title="Southland"
          id="NZ-STL"
          inkscape:connector-curvature="0" />
  <path
          d="m 869.84706,1043.4644 6.37925,0.7994 -9.78356,-5.447 -1.19611,1.9703 4.60042,2.6773 z m 53.94757,-36.3147 -5.61251,6.8621 -3.92569,1.4777 -0.88941,4.7698 -2.72958,3.2929 -6.16456,3.0777 -3.49632,-2.9853 -9.47686,7.3865 -0.0613,3.3854 0,0 2.36155,4.0001 -2.45356,3.4469 -2.08552,-1.4151 -1.25745,2.0616 1.71749,6.2782 -9.26218,5.3547 -3.28163,-2.9852 0,0 -4.53908,-2.0924 -1.22678,-4.2474 -8.1274,-0.5541 -1.16544,-1.4767 -0.7054,-2.154 3.28163,-0.1539 0.98143,-1.6316 -2.82159,-3.6009 0.092,-2.8928 -9.6302,-10.1552 2.33087,-1.3853 1.25745,-6.1859 -3.98703,-5.6009 2.63758,-2.7081 0.0613,-1.5085 -0.27602,-3.0468 -2.94427,-0.3078 1.28812,-3.75411 3.34297,-0.33852 0.82808,-2.55438 3.18962,-1.90803 -0.27603,-2.33894 -1.01209,1.53876 -1.87084,-1.41564 2.33088,-1.56954 0.18402,-5.01633 -2.02418,-2.6775 2.23887,-1.60026 -0.88942,-3.47761 -1.71749,-0.76935 -4.56975,3.23138 -0.3987,-1.63116 2.57623,-1.04629 -2.97493,-11.50991 -5.45916,1.10789 -0.64406,5.38561 -3.18963,-3.84688 -0.85874,3.01599 -6.80862,3.93922 -14.69067,-11.14059 -5.33648,-8.92487 -0.3067,-5.90877 -4.0177,-3.29302 2.85226,-1.32329 1.65615,-8.4017 -1.47213,-1.47716 9.1395,-11.14059 16.10146,0.8001 15.27339,4.98562 -2.36155,-2.09272 -8.09674,-3.01593 -15.67209,-2.49281 -3.92569,1.07708 -9.35418,-2.09269 -6.28724,2.15426 -10.21293,9.38643 -0.33736,2.06194 2.94427,-0.15412 0.3987,-2.46202 4.53908,0.21542 1.25745,-2.30805 0.7974,4.80086 -5.79652,0.61553 -1.68682,1.23102 1.41079,2.4928 -2.66824,-1.04639 -5.55117,3.84695 -0.33737,-1.53873 4.3244,-4.0316 -1.65616,-1.6926 -10.51962,7.38599 -8.80213,10.679 -13.09586,10.30971 -5.02979,1.78493 0,0 3.37364,5.53956 -1.47213,10.12508 3.55765,-2.21585 0.55205,2.40043 2.94427,1.50798 -1.5028,2.33901 3.15895,4.92396 1.62548,-0.61553 1.34946,2.12351 5.73519,-0.43081 1.34945,2.12351 -4.17104,5.97035 -2.88293,0.21543 -2.2082,4.33898 0,0 3.06694,3.2315 0,0 -1.87083,3.3545 0.92008,1.4162 2.88293,-0.2155 3.74167,-6.6785 3.43498,2.2157 3.58833,-2.2464 6.19523,0.2771 -0.95076,4.7697 3.89503,2.9237 0.67472,4.155 3.34297,0.4926 1.04277,3.139 7.05397,6.1551 2.11619,6.2474 5.33649,-1.1083 2.2082,1.8154 -4.14038,5.9405 -6.96196,1.723 0,0 -4.04837,1.5075 0,0 3.74167,5.6327 -1.71749,5.0161 0.95075,1.4151 -1.96284,1.6008 1.19611,4.8006 -9.1395,6.0319 -5.94987,-1.2921 -0.12268,-1.6932 -5.21381,2.8313 1.87084,2.8015 -1.59481,6.7082 -3.25097,1.2006 0.12268,1.6923 -2.9136,0.2155 -3.49631,3.9087 0.85874,5.7856 -2.45356,0.8928 1.53348,3.8164 -1.16544,1.292 0,0 -0.21469,2.708 0,0 -4.07904,1.5085 -0.21468,2.7082 -3.03628,-1.5085 -3.61899,2.2166 2.36154,3.5074 -0.76673,6.4322 -3.98703,-2.9236 -0.67473,2.001 -6.31791,-0.3078 -5.1218,4.5235 1.4108,2.1242 -3.83368,4.9544 1.07343,3.1391 1.62548,-0.6157 -0.24536,13.3876 0,0 -2.45355,0.9226 0,0 -0.21469,2.7388 -2.9136,0.2155 1.56415,3.8472 -3.83369,4.9862 2.72959,2.5542 1.34945,6.6158 5.18314,1.6317 -2.54557,5.4162 4.41641,8.1551 7.97405,-0.3376 2.5149,5.2931 2.94427,-0.2155 0.27602,3.4777 10.09025,-0.2463 2.08553,10.8325 -2.30021,2.6773 3.34297,4.9863 -0.21469,2.7696 1.62548,-0.6157 7.08465,4.4629 1.62548,-0.6157 -0.95076,-1.4162 1.50281,-2.3694 3.28163,-1.2623 0,0 5.36715,-1.1688 4.47774,-7.0786 5.70452,-2.1848 1.50281,-2.3387 -0.88942,-5.9087 3.92569,-3.2622 -1.22678,-4.8631 5.70452,-2.154 0.61339,2.431 3.74167,-0.5233 0,0 1.62548,-0.6147 -1.07343,-3.1391 1.56415,-6.8016 2.91359,-0.2155 3.12829,-2.9544 -1.07343,-3.1391 3.58832,-2.2463 0.88942,-4.7707 4.04837,-1.5383 0.21468,-2.7389 1.62548,-0.6157 0.67473,-2.0318 -3.15895,-3.2305 1.01209,-3.016 2.42289,-0.9235 -0.27603,-3.4162 8.8328,-9.5097 -2.48422,-5.2315 1.13477,-1.3237 2.2082,1.8163 6.31791,-4.155 6.71661,-9.602 -0.0613,-6.1243 8.06606,-3.1083 0.21469,-2.7081 2.08552,0.093 2.14687,-4.3387 0,0 -0.12268,-1.7241 0,0 0.88941,-4.7389 1.74816,1.0764 4.8151,-1.8768 3.00561,1.4766 6.07255,-1.5074 -1.53347,-3.8164 -4.87644,-4.2464 2.94427,-4.6783 2.39221,-0.9544 -1.19611,-4.8006 6.40992,-2.5541 2.45356,-5.3854 7.0233,-4.6168 -0.42937,-5.1392 6.40991,-7.0786 1.31879,-4.0924 3.64967,-0.6157 0.98142,-3.0776 6.04188,-1.6009 1.5028,-6.8015 -1.07343,-3.1073 2.85226,-10.8642 -1.62548,-1.4767 z"
          title="Tasman District"
          id="NZ-TAS"
          inkscape:connector-curvature="0" />
  <path
          d="m 1045.6444,641.72448 0.4293,0.15422 0,0 1.1041,2.61582 2.791,-0.24608 1.3188,2.03115 8.8328,-0.031 3.3429,2.06201 5.5205,-2.12351 3.067,4.67778 4.1404,1.75416 0,0 -5.5206,2.1235 -0.9507,4.55472 -2.7909,0.24619 2.2082,3.35451 -1.1348,1.29249 1.0734,4.61631 3.0977,4.67787 3.8643,-3.16989 0,0 2.5456,2.36965 0,0 -1.3802,3.87776 1.7789,2.6774 -1.4722,2.24653 1.6869,1.01561 -1.4722,2.24666 0.8894,1.32326 3.619,-0.55393 1.4108,3.63145 0.7054,-1.93875 2.8216,-0.24619 2.8523,7.29371 0,0 -1.5948,0.6155 0,0 -0.2454,2.61599 10.1516,0.24609 -0.7054,1.93885 3.895,4.37004 -6.5326,-0.83093 -2.2695,2.58508 0.8894,1.32333 -2.0242,-0.0616 0.8894,1.32336 -2.8216,0.24609 1.7789,2.67742 -5.1832,1.20024 1.6869,1.01561 -2.3616,0.92327 1.6868,1.01561 -4.9071,6.12416 0.8894,1.35414 -2.4842,-0.70783 -1.4721,2.2774 -2.9136,-1.38491 -0.1534,4.27772 -5.6125,8.09399 0.9814,2.98514 3.2817,0.40012 4.7231,4.06225 0,0 -1.0428,2.95439 0,0 0.092,1.66192 -2.0242,-0.0616 3.1283,4.70866 -0.7054,1.96956 5.7352,7.07831 2.8216,-0.27705 1.1961,6.3089 3.4656,3.72383 -3.5269,8.18617 1.6561,6.98596 -1.5948,0.64628 3.0363,3.04677 -7.9127,3.13898 0.92,1.35417 -1.4721,2.27734 1.8095,2.70832 -1.9322,1.60021 0.9201,1.35418 -5.2751,1.2002 0.1226,1.66182 -4.4164,2.49281 -1.0734,2.92368 -4.6004,0.73855 -5.1525,7.50914 2.0242,1.35415 0,0 -7.146,0.98483 -12.8198,-6.49361 -6.5326,-1.41563 -5.4285,-5.87807 -5.7659,-2.33888 -5.7351,-5.01643 -9.5382,-12.9871 -14.47602,-8.46317 -16.74553,-2.52362 -4.32439,-2.80055 -6.40992,-0.8309 -9.13949,-5.41642 -5.36716,-8.30936 -8.95548,-8.40156 -4.8151,-20.28084 4.78443,-13.6027 14.47598,-11.20219 4.20172,-0.55393 6.65527,-4.61631 3.00561,-4.70855 7.23799,-0.76943 13.31054,-9.66337 13.34125,-0.76932 6.2872,1.56951 8.9248,-4.33932 7.1153,-10.49442 7.3607,-6.30885 6.3486,-22.83522 z"
          title="Taranaki"
          id="NZ-TKI"
          inkscape:connector-curvature="0" />
  <path
          d="m 1135.9659,304.08974 2.5456,1.35416 2.8522,-1.07719 1.1041,6.37048 2.3923,-1.4772 1.6868,3.60067 2.0242,-3.1698 1.9015,0.55396 5.3671,4.83169 -1.7175,2.24662 0.9201,4.33925 -1.6868,1.23101 2.8216,1.72348 2.3002,-1.10799 2.8216,3.3545 -0.8588,4.21628 1.3495,2.43125 -3.619,-0.12294 0.4907,3.56992 3.159,-1.4772 2.6069,0.83086 0.184,3.72383 2.3922,1.44641 -2.1775,5.5088 6.4712,-1.78497 -2.3309,-2.46204 7.4221,0.15391 9.1088,-5.32414 1.9015,3.97001 2.8523,-0.0926 0.4907,3.3853 -4.1711,0.21553 -4.2017,2.55428 -0.7974,4.77012 -5.7352,2.49281 0.7974,4.30853 -3.5576,0.83093 -0.3374,4.03157 2.1775,2.03116 3.6804,-7.57071 1.8708,0.67705 3.3123,-2.52356 6.9006,4.77019 -0.9814,3.97001 5.2445,7.93991 -2.2389,4.73947 3.619,5.57033 -1.8708,-0.73864 -3.067,6.3089 0.5827,1.93886 3.343,-6.09349 2.6069,3.10831 0.7668,5.07786 -0.2761,7.38609 -1.3494,4.92399 1.6868,7.44763 -1.2575,1.16944 -2.4842,-5.4472 -0.368,3.75461 3.0669,3.81609 1.9015,9.04787 5.3058,10.12509 -0.5827,4.43156 0,0 -3.0056,1.07721 1.6562,1.04629 -1.0121,2.83134 -1.9322,-0.12285 1.4721,3.56989 -2.2388,2.43125 -1.6562,-1.04639 -2.6376,3.41608 1.2882,2.00034 1.5641,-0.55393 1.8095,4.24698 -4.7844,0.12325 -3.0056,-4.6471 -2.975,4.40091 3.0976,6.24732 -3.0362,2.7698 3.987,7.57067 -0.5214,5.10865 7.7901,11.78693 2.8829,8.70942 -2.3309,8.24779 4.1097,1.72335 -1.5641,0.58474 2.1775,3.26214 -0.6747,1.9081 2.8829,1.35415 -0.6747,1.90796 2.0855,1.66195 -4.2631,2.43122 1.5028,5.17024 2.4536,0.70776 0.184,3.23146 5.2445,0.46159 4.2017,3.32374 0.6441,3.87772 5.8578,4.33922 8.0048,0.21553 5.8578,4.30847 -0.2453,2.55438 1.5641,-0.61553 1.7482,2.61584 -1.4722,2.21584 3.4964,11.01757 -1.5642,0.6155 3.4043,9.41721 1.5642,-0.6155 1.3188,1.96956 0.2146,3.23147 4.5698,2.36968 3.5576,-0.55396 4.3244,4.92406 6.9007,1.44641 4.7844,5.57037 -4.0484,17.32644 1.0121,2.92358 -10.7036,-4.09316 -3.8337,8.95563 -7.0233,-3.04674 2.8216,-6.06269 -2.2082,-3.26218 -3.5883,0.58474 0.092,1.63101 -5.8272,3.10834 -6.0419,-0.12316 -0.2147,-3.23146 -2.4536,-0.70783 -1.9935,-5.84723 -7.0846,8.55554 -3.251,-0.40012 0.6441,3.87766 -1.9015,1.56954 0.9814,2.92362 6.3792,-0.83093 1.4415,3.6007 2.3616,-0.92327 9.9369,4.43169 -1.5642,0.61553 -0.1227,4.18538 -3.9563,7.3553 10.0596,11.84846 -4.9378,4.43156 -12.3291,-3.47754 -0.7974,6.15497 -1.5642,0.61553 0,0 1.4415,3.60066 0,0 3.0363,2.98528 -2.0242,-0.031 2.3308,4.92397 0,0 6.1646,7.5708 0,0 4.5084,0.73855 1.0121,-2.89283 3.251,0.40002 0.552,8.1247 2.6989,3.93922 -2.5762,3.53911 2.2389,3.29293 -0.1227,4.21622 -2.8216,0.27705 -3.0363,2.89291 0,0 0.8894,1.32339 -6.6552,3.47754 -0.2147,2.61583 0,0 -4.1711,-1.6926 -7.4526,3.78542 -13.4333,-0.55402 -0.92,4.55468 -9.4769,3.75464 1.6868,1.01562 -0.6747,1.93878 -4.6311,3.50842 1.8095,2.64662 -3.619,0.58474 -3.7417,4.83168 -6.6552,-2.40043 -0.6748,1.96966 -4.9684,-1.41573 -4.4164,0.89245 -13.1879,-3.20058 9.0168,-17.84957 2.3002,-8.46315 -4.263,-3.35452 1.3801,-3.87777 -1.6868,-1.01551 3.9563,-1.53876 0.1227,-4.24697 4.5391,-5.10878 -6.5326,-0.80008 -8.0047,1.44638 -1.1041,-4.58553 3.6496,-6.43193 -4.9071,-7.29371 4.4471,-6.73979 -3.0976,-4.61628 -1.5641,0.61549 -2.7603,-5.60114 6.2566,-9.90957 1.3801,-3.84686 -0.9814,-2.95449 6.1032,-5.69339 1.1961,-7.10899 -3.0669,2.83124 -8.3115,2.36968 -4.7537,-5.63183 -6.4099,0.80011 -3.343,-2.03109 -4.3857,0.86165 -0.7054,1.93888 -4.7231,1.81575 -1.5028,-5.2318 -2.6069,3.50832 0.644,3.90852 -2.9136,-1.38492 -2.1775,4.15463 -2.8216,0.24618 -0.7054,1.93875 -3.9564,1.50801 -3.3429,-2.06194 -4.3858,0.86171 -2.9136,-1.38486 -2.2695,2.55428 -2.9136,-1.38482 -3.4043,3.81607 -4.7231,1.81575 -6.0419,-0.18447 1.5028,5.26262 -1.2268,-0.3693 -2.5455,5.13943 0.9814,2.98517 -4.8151,0.18457 -4.6311,3.44676 0,0 -4.1097,-1.75417 -3.067,-4.67787 -5.5205,2.12347 -3.3429,-2.06191 -8.8328,0.0616 -1.3188,-2.03116 -2.7909,0.24609 -1.1041,-2.61586 0,0 1.6561,-30.8368 1.7788,-7.41687 -1.3187,-10.70966 2.4842,-0.24619 0.552,-3.16979 6.5633,-8.70935 -0.184,-15.88006 -4.2937,-13.44876 0.8894,-1.01564 0.8587,1.6927 5.0605,0.89245 4.8764,-5.60111 -1.6255,3.6007 0.4294,1.10796 1.5948,-1.2618 0,3.47765 2.1469,0.30777 1.0734,-2.40056 1.3495,4.24693 3.6496,-1.81569 0.7974,-0.8617 -4.171,-0.12315 1.1348,-3.07755 10.4582,-4.98562 -3.0056,-1.63101 -0.3373,-2.52362 -3.711,0.52315 -1.1348,1.56957 -0.8894,-3.04677 -3.3737,5.66261 -3.5269,0.46168 1.8708,-9.47878 3.3123,-2.03113 -0.276,1.81576 3.0669,0.80008 -0.2453,-2.09269 5.0911,-7.5707 -2.4229,-1.78491 -5.1218,1.01551 -0.9814,4.15469 1.7481,1.50798 -4.5084,2.21585 -4.5697,-21.72733 2.3922,-5.07789 5.7659,-1.23102 2.3002,-2.80055 4.079,-1.38486 4.3244,2.27731 1.5641,-0.30775 -0.92,-1.66178 1.8708,-0.031 1.5335,1.78496 2.4535,-2.98517 -2.0855,-1.26182 -4.6004,1.01554 1.7481,-2.36969 4.6005,0.30775 -1.9015,-3.56988 -5.1525,1.47719 -0.6441,4.86246 -4.3244,-2.49281 0.6748,2.18507 -3.8031,1.60036 -5.3058,-24.74333 -2.9442,-5.10864 -0.092,-5.81654 -8.0354,-18.98827 0.1226,-9.57112 1.3802,2.40043 3.1896,-0.64627 5.1525,-7.93991 2.8215,-1.53879 0,0 4.9378,-2.95447 0.2761,-4.18541 8.0047,1.96966 0.276,-4.18551 1.9322,-1.53876 -1.6562,-2.64665 7.1767,0.61553 2.2695,-4.09307 -2.9749,-6.24741 -2.8829,-3.01597 -1.1348,1.23102 -0.8894,-2.92361 1.5028,-2.18503 2.4535,2.36965 3.9564,0.18447 2.5149,-8.24764 5.3058,-6.83215 1.6868,2.64664 8.3728,0.95406 0.2147,-5.75498 2.3308,-0.86168 4.0791,3.35449 7.9434,-2.27742 1.3801,-3.26216 0,0 2.3309,7.66305 -0.3987,12.43319 4.2324,9.35563 8.0967,2.03125 14.1693,-7.07831 1.9322,0.7693 -2.7603,-8.92471 0.9814,-7.41687 -2.9749,-13.01791 -8.4648,-10.98675 -2.6989,-7.13981 3.435,-1.29258 -0.7974,-2.36965 -0.5521,-1.44652 2.1162,-1.908 6.594,-0.24609 1.0427,-2.52359 -2.9749,-5.23181 -0.8894,-2.27733 -5.0605,-3.13909 2.0549,-7.94002 -1.1961,-5.38564 -0.1534,-2.30819 -3.619,-4.49319 -7.238,-3.97 -2.1775,-4.73931 0.061,-6.27823 1.7482,0.49247 0.3374,-1.84652 2.5455,-1.0464 z"
          title="Waikato"
          id="NZ-WKO"
          inkscape:connector-curvature="0" />
  <path
          d="m 1085.4227,970.77294 1.0427,1.07718 -2.3615,3.97 -5.6432,5.57034 -2.1469,-0.40009 5.9499,-10.21743 3.159,0 z m 22.4807,-18.40352 4.0177,0.43087 0.1533,1.66182 4.2937,1.75416 0.1534,1.66188 -2.8523,0.27706 0.6441,2.3389 3.803,1.07715 1.9015,-1.63111 3.4963,2.06194 5.1218,-2.89286 4.6311,0.73856 0.4907,-3.66224 2.3922,-0.95395 2.6989,2.40044 5.4285,0.43083 3.8644,-7.63227 17.911,9.29416 4.0176,-1.63114 0.9815,-2.98514 2.5762,0.70786 -0.1533,-1.6927 0,0 0.9814,-3.01595 0,0 5.7658,-0.58474 2.2389,1.6927 1.1348,-1.32337 2.2388,1.6926 -1.1347,1.32333 1.7481,1.01564 -3.0669,7.32443 5.1218,1.4157 2.2389,-2.64662 1.7481,1.01548 1.1348,-1.32325 2.7296,2.36968 4.6617,-3.63148 2.7296,2.36966 1.2881,-4.00076 3.6804,-0.61552 -0.6441,-2.33888 3.3736,0.36931 1.7789,-3.3237 3.527,2.0619 4.9684,-0.27705 -0.9507,-1.35415 1.2881,0.33851 0.3373,-5.35484 5.1218,1.41564 2.3923,-0.95405 2.3922,3.3853 7.1766,1.4772 1.7482,5.41642 3.0363,1.4157 -1.4108,2.30809 0.7667,2.5236 0,0 -1.0428,6.73981 -4.4164,8.7709 0.7054,3.78529 -10.0595,8.92485 -2.1162,7.17058 -2.2696,1.7229 -0.7054,6.5246 -3.5576,5.8472 -0.1534,4.5552 -8.6794,8.8324 -3.9871,10.5862 -9.9675,4.9862 -2.1469,6.4629 -6.1646,7.0776 -16.1628,8.4332 -10.7956,11.7252 -9.3235,3.6624 -1.1655,2.8929 -7.882,7.0776 -7.7287,-0.062 -5.3672,5.9088 -3.803,0.7696 -4.2017,-1.8153 -2.4842,0.7687 -2.0242,-10.7709 -2.8216,-2.2463 3.2816,-11.5713 -0.5827,-3.3547 -8.6181,-5.4171 0.031,-4.8006 -4.4778,2.3079 -7.8207,-1.4767 -6.3486,3.2007 -8.4647,7.3547 -1.9935,-3.3546 -4.0791,-1.3228 1.0121,-3.6316 -3.343,-4.5553 7.6981,-16.0331 -2.975,-4.2782 -3.8336,-0.9235 -8.1888,6.6476 -0.8281,3.1699 2.9443,-0.154 -0.368,4.6476 2.8522,-4.8631 1.3802,1.6316 -1.0428,3.1699 1.3494,2.8313 -2.2388,2.154 -2.3616,-2.8929 -3.9563,3.5702 -2.7603,-0.585 -3.435,2.7082 -2.5762,-2.739 -4.3551,-0.6157 -5.4591,-9.0171 3.7417,-7.724 8.2807,-2.8621 3.159,-7.5404 2.5455,-0.8918 5.2445,-8.7718 3.5883,-0.6147 1.7789,-2.9544 1.7481,1.8153 -2.7909,2.8313 0.276,2.0924 2.0855,-2.4003 0.8895,-4.7389 -3.4044,-3.5085 0.9508,-2.3387 11.133,-7.7865 3.527,-7.01678 1.7788,-11.54068 9.1089,-8.98631 8.5261,-19.14217 z"
          title="Wellington"
          id="NZ-WGN"
          inkscape:connector-curvature="0" />
  <path
          d="m 759.161,963.29458 3.37364,5.53958 -1.47213,10.12508 3.55765,-2.21585 0.55205,2.40044 2.94427,1.50798 -1.5028,2.3389 3.15895,4.92407 1.62548,-0.61553 1.34946,2.12347 5.73519,-0.43088 1.34945,2.12361 -4.17104,5.97033 -2.88293,0.21542 -2.2082,4.3389 0,0 3.06694,3.2315 0,0 -1.87083,3.3546 0.92008,1.4161 2.88293,-0.2155 3.74167,-6.6784 3.43498,2.2155 3.58833,-2.2463 6.19523,0.2772 -0.95076,4.7698 3.89503,2.9236 0.67472,4.1549 3.34297,0.4927 1.04277,3.139 7.05397,6.1551 2.11619,6.2474 5.33649,-1.1083 2.2082,1.8164 -4.14038,5.9395 -6.96196,1.723 0,0 -4.04837,1.5085 0,0 3.74167,5.6318 -1.71749,5.0159 0.95075,1.4161 -1.96284,1.5999 1.19611,4.8005 -9.1395,6.032 -5.94987,-1.2921 -0.12268,-1.6932 -5.21381,2.8323 1.87084,2.8004 -1.59481,6.7082 -3.25097,1.2006 0.12268,1.6923 -2.9136,0.2156 -3.49631,3.9086 0.85874,5.7856 -2.45356,0.8928 1.53348,3.8164 -1.16544,1.2921 0,0 -0.21469,2.708 0,0 -4.07904,1.5085 -0.21468,2.7082 -3.03628,-1.5086 -3.61899,2.2166 2.36154,3.5085 -0.76673,6.4312 -3.98703,-2.9237 -0.67473,2.0011 -6.31791,-0.3079 -5.1218,4.5235 1.4108,2.1241 -3.83368,4.9545 1.07343,3.1391 1.62548,-0.6156 -0.24536,13.3875 0,0 -2.45355,0.9226 0,0 -0.21469,2.7399 -2.9136,0.2145 1.56415,3.8472 -3.83369,4.9863 2.72959,2.5541 1.34945,6.6169 5.18314,1.6305 -2.54557,5.4163 4.41641,8.1561 7.97405,-0.3386 2.5149,5.2931 2.94427,-0.2156 0.27602,3.4777 10.09025,-0.2461 2.08553,10.8324 -2.30021,2.6774 3.34297,4.9861 -0.21469,2.7698 1.62548,-0.6158 7.08465,4.4629 1.62548,-0.6157 -0.95076,-1.4161 1.50281,-2.3695 3.28163,-1.2612 0,0 0.95075,1.4151 -2.63757,3.6933 0.27602,3.4777 -2.11619,-0.093 -0.27602,7.2931 -3.619,2.2781 -1.77883,-1.1083 -6.53259,2.5234 -7.29933,9.1095 -6.19523,1.5084 -0.55205,3.8154 -5.91921,5.0171 -0.0613,4.5541 -6.90062,3.5702 -2.5149,5.5086 0.95076,1.4468 -1.62549,0.6466 0.95076,1.4459 -8.18875,3.1699 -1.77883,-1.1083 0,0 -5.39782,1.2007 0,0 0.61339,2.4925 -6.56326,2.5542 -0.88942,4.8938 -3.95636,3.3547 0.39871,5.2931 -3.77235,0.5541 -1.04276,3.1391 -3.61899,2.3079 -6.71661,0.8004 0.18401,8.0935 -3.28163,1.2931 -0.67473,2.0924 2.26954,1.8461 -4.32439,4.4321 -2.48423,0.9533 -3.22029,-3.2921 -6.10322,3.2921 -3.09762,-1.5383 -8.71012,2.4926 -2.72958,-2.5542 -3.15896,3.0468 -2.6069,-0.8005 -1.5028,2.4003 0.95075,1.4469 -3.98703,3.3547 -1.65615,0.6464 0.7054,-2.0933 -3.92569,-1.1997 -2.82159,2.0001 -4.26306,-0.1845 -0.70539,2.0923 1.31878,0.4002 -9.29284,6.309 0,0 1.22678,4.9862 0,0 -2.82159,2 0.27602,3.5394 -3.74167,1.0457 -1.77883,-1.1381 -4.8151,3.6933 -0.95076,-1.447 -2.48422,0.9544 0.61339,2.4926 -1.99352,1.6922 -3.09761,-1.5383 0.95075,1.446 -2.48423,0.9543 0.61339,2.4926 -3.64966,2.3089 1.93217,2.8928 -4.14037,1.5999 -0.21469,2.8312 -3.86435,5.1391 -4.63109,0.862 0.21469,-2.8004 -2.60691,-0.8004 -4.23238,6.1858 -2.48423,0.9544 -0.0613,4.585 -5.45917,1.2006 -0.21468,2.8312 -2.48423,0.9544 -0.95075,-1.4469 -4.84578,3.6932 -6.44058,-0.2772 1.59481,3.9704 -5.45916,1.1997 -3.15896,3.0467 1.93218,2.9246 -5.15247,4.7389 -0.18402,2.8313 -3.80301,0.5541 -0.61339,-2.4926 -3.80301,0.5531 -1.44146,-2.1848 -1.50281,2.4003 -5.76585,2.2165 -1.34946,4.1849 -3.77234,0.5541 -3.00561,4.8015 -5.73519,2.2156 -2.9136,-4.3706 -6.74728,5.3557 -5.06046,0.1223 -5.27514,7.5404 0,0 -3.74168,0.5233 0,0 -1.34945,4.1848 -6.19523,1.4778 1.41079,6.8322 -1.34945,4.2157 -6.86996,3.6008 0.12268,6.4322 -3.12829,3.0775 -3.77234,0.5234 1.44146,2.2155 -1.99351,1.6932 0.27603,3.5999 -3.43498,-0.5224 -0.67473,2.1232 -4.93778,1.8769 0.27602,3.6008 -4.26305,-0.2155 -2.54557,5.5702 -8.1274,4.9247 -1.25745,6.001 -2.14686,-0.1228 -2.2082,4.5234 -2.48423,0.9235 0,0 -2.26954,-1.9076 -6.28724,1.4151 -4.75376,-0.9851 -1.38013,4.2166 1.93218,2.9851 -1.74816,5.2623 -5.94987,0.3694 -3.52699,4.0935 -5.1218,0.062 -1.4108,4.2156 -8.55677,5.9703 -4.90712,-2.8313 -2.66824,-7.3854 -3.34297,1.2304 0.98142,1.5085 -1.68682,0.6157 -0.58272,3.9385 -2.51489,0.9236 -11.62372,-0.4002 -2.08553,-4.8313 -7.88205,3.8163 0.12268,1.8154 -7.66736,0.9236 0.61339,2.585 -5.02979,1.846 1.59481,4.1243 -3.71101,2.3078 1.1041,3.3547 -11.37836,3.2315 -0.21469,2.8928 -2.5149,0.9234 0.73607,4.4312 -3.18962,9.6636 0.98142,1.5393 -3.92569,5.2315 0,0 -2.88293,2.0001 0,0 -4.90711,3.6932 0.61339,2.6157 -5.30582,-1.8153 -1.44146,-2.2781 -3.34297,1.2314 -8.83281,8.9555 -2.63757,-0.8928 -6.71661,2.4936 -4.4164,4.4927 -10.21293,1.9384 -3.12828,-1.6613 -2.5149,0.9544 0,0 -0.95075,-1.5086 2.51489,-7.5394 0,0 0.7054,-2.155 0,0 1.19611,-1.3843 -2.76025,-2.7081 4.56975,-2.6465 -0.12268,-1.8471 3.00561,-0.1846 0.70539,-2.154 -5.27514,-1.7538 0.7054,-2.155 -4.07904,-3.139 1.19611,-1.3844 -1.19611,-5.1709 -4.29373,-0.2155 -3.22029,-3.4152 -5.58184,-0.6465 -10.36627,4.9237 -6.80862,-2.0001 0,0 -5.4285,-3.0468 6.34858,-2.5849 5.88854,-6.8939 8.49543,-7.1402 3.37364,-0.9533 2.26954,-6.5245 6.44059,-5.0786 0.24536,-5.7241 4.56974,-4.0617 -0.21468,-2.8312 17.6656,-0.8928 2.14687,-1.9384 2.05485,0.4607 3.61899,-4.3695 5.61251,-1.724 -0.95075,3.4162 3.34297,2.9236 7.11532,0.062 9.9369,-3.4161 6.04188,-3.3537 9.32351,-10.3408 8.67946,-3.9703 12.35979,-10.5862 7.33,-8.9247 13.73992,-9.4174 9.29284,-3.7548 3.46565,-5.0467 6.34858,-2.739 4.60041,-0.2155 4.44707,0.7686 6.04189,-6.7082 1.31878,2.5543 2.79092,-0.093 7.20733,-7.8175 4.72309,-0.8302 12.63582,-21.0194 5.85786,-4.2473 9.26218,-0.9544 7.23799,-5.0775 8.21941,-12.2178 3.83368,-1.4469 11.13302,-10.5862 10.24359,-16.8346 15.21205,0.1845 -0.21468,-3.3545 -2.97494,0.062 5.61251,-7.6009 10.12092,-4.4629 3.619,0.4926 5.70451,-2.0924 18.46302,-12.5565 17.23623,-16.9874 9.2315,-16.1574 13.31055,-13.3569 9.66088,-15.1413 8.40343,-20.9578 0.98142,-6.3089 3.15895,-1.6307 7.36067,-16.5883 3.40431,-25.3273 4.47774,-12.5256 2.72958,-2.4003 2.82159,-16.2804 4.53908,-4.5861 1.13477,-4.6466 0.92009,-6.4937 -1.56415,-2.2155 -0.18401,-8.6784 1.41079,-1.2007 9.35419,0.8928 4.90711,-3.6932 10.42761,1.9076 5.09113,-2.8312 18.89239,-18.2805 12.97317,-25.9122 9.56887,-9.5097 5.02979,-34.8688 -0.92008,-9.5394 1.56414,-11.7879 -1.62548,-21.01892 3.64967,-3.84685 0.27602,-3.90844 10.18226,-12.27936 z"
          title="West Coast"
          id="NZ-WTC"
          inkscape:connector-curvature="0" />
</svg>