<?xml version="1.0" encoding="UTF-8" standalone="no"?>
<svg
   version="1.1"
   mapsvg:geoViewBox="140.84697804854386 -1.3152227524869304 155.96707742353817 -11.654761266934385"
   id="svg262"
   sodipodi:docname="papua.svg"
   width="798.53998"
   height="547.77002"
   inkscape:version="1.2 (dc2aeda, 2022-05-15)"
   xmlns:inkscape="http://www.inkscape.org/namespaces/inkscape"
   xmlns:sodipodi="http://sodipodi.sourceforge.net/DTD/sodipodi-0.dtd"
   xmlns="http://www.w3.org/2000/svg"
   xmlns:svg="http://www.w3.org/2000/svg"
   xmlns:mapsvg="http://mapsvg.com">
  <defs
     id="defs266" />
  <sodipodi:namedview
     id="namedview264"
     pagecolor="#ffffff"
     bordercolor="#000000"
     borderopacity="0.25"
     inkscape:showpageshadow="2"
     inkscape:pageopacity="0.0"
     inkscape:pagecheckerboard="0"
     inkscape:deskcolor="#d1d1d1"
     showgrid="false"
     inkscape:zoom="0.52983821"
     inkscape:cx="686.05849"
     inkscape:cy="302.92266"
     inkscape:window-width="1534"
     inkscape:window-height="1027"
     inkscape:window-x="0"
     inkscape:window-y="25"
     inkscape:window-maximized="0"
     inkscape:current-layer="svg262" />
  <path
     id="PG-WBK"
     title="West New Britain"
     class="land"
     d="m 561.16,190.14 -1.16,-0.46 -3.35,-0.9 -0.65,-0.58 h -0.36 l -0.3,1.59 -0.28,0.69 -0.65,0.28 -0.7,0.13 -0.74,0.31 -0.65,0.41 -0.44,0.4 -0.49,0.31 -1.39,0.41 -0.49,0.2 -0.03,0.14 0.06,0.45 -0.03,0.14 -0.15,0.04 -0.42,-0.07 -0.15,0.03 -0.72,0.72 -1.47,2.2 -0.8,0.53 -0.98,1.29 -0.34,0.2 -0.78,0.29 -0.35,0.2 -1.43,1.26 -1.39,1.65 -1.23,1.93 -1.38,3.11 -0.6,2.39 -0.1,1.11 0.2,2.36 -0.09,1.11 -0.51,1.08 -0.67,0.76 -0.96,0.84 -1.09,0.69 -1.08,0.28 -0.86,1.13 -0.39,0.32 -0.58,0.19 -1.61,0.17 -0.83,-1 -1.19,-1.14 -1.46,-0.51 -1.57,0.84 -0.43,-0.33 -0.41,0.19 -0.16,0.52 0.31,0.68 -0.43,0.97 -0.65,0.79 -1.44,1.16 -0.83,0.31 -1.81,0.15 -0.83,0.45 -1.03,0.29 -0.87,-0.7 -0.6,-1.14 -0.23,-1 -0.48,-0.86 -1.11,-0.68 -3.15,-1.23 -0.98,-0.19 -1.02,0.03 -2.68,0.46 -0.35,0.13 -0.26,0.22 -0.65,0.84 -0.55,0.28 -1.61,1.27 -0.75,0.29 -0.63,0.35 -0.53,0.79 -0.43,0.86 -0.39,0.53 -0.9,0.28 -0.98,-0.16 -1.07,-0.31 -3.64,-0.28 -1.1,-0.31 -1,-0.67 -0.69,-0.92 -0.43,-1.13 -0.22,-1.14 -0.07,-0.99 -0.17,-0.7 -1.52,-3.11 -1.35,-2.15 -0.18,-1.19 -0.24,-0.49 -0.96,-0.85 0.13,-0.25 0.65,-0.54 0.44,-0.21 1.02,-0.2 0.38,-0.31 0.13,-0.84 -0.05,-1.36 -0.23,-1.27 -0.89,-1.08 0.71,-1.16 1.18,-1.22 0.95,-0.68 2.39,-0.57 1.11,-0.53 0.47,-0.93 0.16,-0.43 0.29,-0.34 0.16,-0.44 -0.25,-0.78 -0.41,-0.47 -0.58,-0.39 -1.18,-0.59 -2.33,-0.66 -2.3,0.24 -1.8,1.17 -0.88,2.44 -0.14,0.11 -0.12,0.17 -0.06,0.37 0.12,0.29 0.51,0.46 0.12,0.3 -0.12,0.59 -0.51,0.96 -0.19,0.93 -0.27,0.58 0.01,0.39 0.62,0.35 0.1,0.04 0.32,1.01 0.09,0.54 -0.05,0.59 -0.63,1.19 -0.98,0.76 -1.03,0.55 -0.78,0.61 -0.36,0.37 -0.65,0.57 -0.3,0.32 -0.28,0.56 -0.43,1.13 -0.36,0.52 0.52,0.64 0.83,1.38 0.45,0.52 0.59,0.28 0.6,0.11 0.47,0.23 0.18,0.64 -0.28,0.92 -1.37,2.26 -0.56,0.66 -1.7,1.16 -2.04,0.67 -2.08,-0.06 -1.77,-1.04 h -0.37 v 0.77 l -0.32,0.71 -0.47,0.49 -0.45,0.2 -0.91,0.14 -0.57,0.34 -0.5,0.37 -0.71,0.27 -0.48,-0.08 -0.81,-0.29 -0.58,-0.52 0.52,-1.59 -0.07,-1.02 -0.31,-0.78 -0.47,-0.1 -0.04,-0.18 v -0.15 l -0.06,-0.08 -0.26,0.02 0.28,0.57 0.06,0.59 -0.2,0.56 -0.5,0.48 -0.55,-0.3 h -0.51 l -0.44,0.23 -0.3,0.43 -0.23,-0.18 -0.19,-0.1 -0.18,-0.15 -0.15,-0.29 -3.54,1.59 -0.97,0.22 -0.62,0.3 -0.48,1.43 -0.52,0.45 -0.35,-0.12 -1.46,-0.94 -0.3,0.72 -0.58,-0.07 -0.58,-0.5 -0.35,-0.55 -0.78,0.52 -0.66,0.63 -0.67,0.23 -0.8,-0.65 -1.32,0.54 -6.65,0.74 -0.25,-0.26 -0.47,-0.62 0.07,0.03 -0.64,-0.96 -0.34,-0.31 -0.3,-0.18 -0.34,-0.06 -0.44,-0.01 -0.71,-0.46 -3.95,-1.81 -0.92,-0.08 -0.64,-0.62 -4.08,-1.77 -2.75,1.61 -0.72,0.2 -0.81,0.01 -0.34,0.08 -0.82,0.67 -1.03,0.45 -0.33,0.32 -0.09,0.68 -0.78,-0.38 -2.14,-0.35 -0.9,-0.37 -0.64,-0.52 -0.51,-0.54 -0.5,-0.38 -0.68,-0.15 -1.85,0.15 -1.63,-0.59 -0.71,-0.06 -0.69,0.47 -1.28,1.33 -1.51,1.03 -1.56,0.3 -1.42,-0.85 -0.22,-0.42 -0.27,-0.97 -0.26,-0.42 -0.47,-0.32 -0.92,-0.19 -0.42,-0.23 -1.24,-1.01 -0.62,-0.32 -0.84,-0.32 -0.09,0.2 0.01,0.08 -0.05,0.03 -0.26,0.05 -1.89,0.9 -1.43,1.56 -0.93,1.88 -0.92,6 0.22,1.99 0.94,2.24 1.85,1.99 0.24,0.61 0.58,0.21 0.67,0.05 0.5,0.21 0.94,0.52 2.48,0.18 1.11,0.21 0.85,0.56 1.6,1.35 0.99,0.27 0.69,-0.22 0.75,-0.51 1.25,-1.09 0.77,0.49 1.24,1.25 0.87,0.44 1.47,-0.16 0.77,0.09 0.32,0.63 0.4,0.2 0.86,-0.07 0.87,0.05 0.4,0.56 0.12,0.62 0.2,0.63 0.05,0.68 -0.37,0.79 0.38,0.36 0.71,-0.67 0.62,-0.19 1.73,0.14 0.53,0.11 0.13,0.28 0.01,0.36 0.21,0.33 0.46,0.2 0.35,-0.03 0.32,0.07 0.35,0.49 -0.49,0.25 -0.4,0.33 -0.32,0.42 -0.27,0.48 0.35,0.37 0.41,0.33 1.36,-0.39 2.22,0.59 4.02,1.64 0.74,-0.17 0.55,0.19 0.46,-0.1 0.41,-1.04 0.39,0.95 -0.31,0.74 -0.61,0.73 -0.52,0.88 1.23,0.31 0.89,0.88 0.36,1.01 -0.34,0.73 0.37,0.83 -0.37,0.1 -0.63,-0.09 -0.46,0.25 -0.01,0.93 0.66,0.01 0.81,-0.37 0.38,-0.24 2.12,-0.07 0.73,-0.26 0.52,-0.59 0.47,-0.94 0.25,-1 -0.12,-0.77 h 0.33 l 0.42,0.47 0.63,0.2 1.67,0.06 0.82,-0.12 1.27,-0.49 0.45,-0.12 0.54,-0.23 1.33,-1.02 0.86,-0.2 0.9,0.16 0.62,0.3 1.01,0.66 5.05,1.42 1.27,0.92 3.04,4.04 0.77,1.6 0.77,1.19 0.31,0.6 0.55,0.59 2.02,1.5 0.32,0.48 0.82,-0.31 0.82,0.05 1.28,0.26 0.62,-0.2 0.98,-0.73 0.36,-0.16 5.03,0.12 1.37,0.24 0.33,-0.09 1.43,0.09 0.51,-0.04 0.49,-0.09 0.54,0.15 0.63,0.71 0.84,-0.74 0.97,-0.58 0.92,-0.37 0.73,-0.13 0.68,0.27 0.49,0.65 0.23,0.81 -0.17,0.78 0.79,-0.29 0.53,-0.43 0.06,-0.51 -0.63,-0.55 0.61,-0.29 0.11,-0.07 0.39,-0.96 0.35,-0.27 0.78,0.48 0.3,0.11 0.26,0.15 0.12,0.31 -0.02,0.57 0.05,0.27 0.13,0.25 0.99,0.25 1.15,-0.7 1.13,-0.98 0.89,-0.61 0.77,-0.09 0.4,0.16 0.32,0.24 1.14,0.24 0.33,0.29 0.49,0.83 0.95,0.31 1.39,-0.1 2.12,-0.46 0.43,-0.24 0.14,-0.05 0.31,0.11 0.14,0.25 0.11,0.24 0.16,0.12 0.5,-0.2 0.51,-0.39 0.55,-0.23 0.61,0.28 0.88,0.24 1.38,-0.15 2.31,-0.64 0.58,-0.46 1.3,-1.39 0.45,-0.29 1.13,-0.31 1.14,-0.76 1.89,-1.87 0.08,0.26 0.05,0.03 h 0.08 l 0.15,0.11 0.57,-0.7 1.02,-0.8 1.1,-0.56 0.77,0.02 0.36,0.46 0.21,0.35 0.28,0.03 0.57,-0.48 0.46,-0.22 1.91,-0.31 1.83,-0.72 0.24,-0.05 -0.07,-1.58 -0.2,-0.37 -0.46,-0.67 -4.61,-4.58 -2.69,-3.25 -0.69,-1.24 -0.4,-0.99 -0.11,-2.56 0.1,-1.43 0.13,-0.45 0.15,-0.2 2.76,-1.41 1.67,-0.66 0.89,-0.22 5.7,-0.28 0.98,-0.26 0.86,-0.48 1.11,-0.95 0.42,-0.16 0.53,-0.03 0.67,0.05 3.92,-0.93 0.46,-0.36 0.14,-0.38 -0.06,-0.57 -0.19,-0.56 -0.13,-0.71 -0.06,-0.85 0.19,-1.05 0.22,-0.48 0.35,-0.35 0.35,-0.07 0.24,-0.01 0.35,0.1 1.78,0.89 0.72,0.27 0.68,0.01 0.62,-0.22 0.64,-0.49 2.77,-2.8 0.8,-0.62 2.7,-1.63 1.06,-1.09 0.54,-0.86 0.28,-0.82 -0.04,-0.56 -0.21,-0.43 -0.29,-0.22 -0.39,-0.12 -0.56,-0.02 -1.22,0.12 -0.64,-0.01 -0.5,-0.11 -0.34,-0.3 -0.05,-0.58 4.33,-9.87 5.17,-8.33 0.55,-0.61 4.96,-2.52 0.44,-0.16 11.36,-0.44 0.59,-0.57 0.24,-0.32 -2.16,-2.32 -0.06,0.01 -0.83,0.64 -1.03,0.24 -2.01,-1.48 -2.13,-1.12 -1.19,1.01 -1.01,0.37 z m -14.65,0.61 0.57,-0.22 0.87,-0.76 v -0.78 l -0.92,-0.9 -0.92,-0.53 -0.68,-0.23 -0.81,0.05 -0.87,0.42 -0.39,0.28 -0.78,0.68 -0.11,0.61 0.64,0.66 0.71,0.46 0.43,0.35 0.94,0.15 z m -106.61,-3.05 0.15,-0.79 -0.59,-0.89 -2.09,0.79 -0.41,0.3 -0.07,0.75 0.47,0.62 0.72,0.47 0.68,0.33 z m 19.62,-12.42 -0.83,-0.55 -0.74,-0.32 -1.37,0.46 -1.46,0.98 -0.59,1.16 1.25,1.02 1.06,-0.4 0.42,-0.25 0.33,-0.44 -0.8,-0.22 -0.26,-0.56 0.27,-0.54 0.79,-0.15 0.65,0.29 0.33,0.53 0.24,0.62 0.4,0.56 0.14,0.33 0.11,0.4 0.19,0.26 0.46,-0.1 0.19,-0.27 0.11,-0.45 0.06,-0.89 -0.28,-0.78 z" />
  <path
     id="PG-NPP"
     title="Northern"
     class="land"
     d="m 376.5,353.03 -52.05,-0.21 16.31,15.3 4.95,2.84 3.8,1.74 2.35,1.66 2.43,2.47 2.01,2.96 1.27,3 -0.93,2.98 -4.81,7.27 -0.29,1.6 -0.07,0.98 0.13,2.51 0.31,0.92 0.46,0.68 1.6,1.8 0.91,1.44 0.84,0.93 0.75,0.65 0.93,0.64 0.83,0.83 1.97,2.48 0.61,0.59 0.47,0.38 0.31,0.48 1.83,4.19 0.49,0.68 0.53,0.37 0.58,0.04 0.53,-0.12 0.4,-0.2 0.57,-0.48 0.32,-0.05 0.33,0.14 0.65,0.56 2.8,4.93 0.61,0.82 0.49,0.46 0.39,0.27 0.45,0.17 1.01,0.16 0.56,0.2 0.8,0.67 4.3,6.1 0.43,0.94 0.18,0.96 -0.14,0.8 -0.52,1.55 -0.13,0.96 0.12,1.05 0.72,1.59 0.76,0.76 0.77,0.46 2.33,0.54 0.71,0.32 1.65,1.3 1.22,1.19 3.19,2.35 2.9,2.6 0.85,0.56 0.69,0.23 0.61,-0.02 0.58,-0.18 0.69,-0.3 0.71,-0.08 0.76,0.2 3.52,2.71 2.28,1.2 2.24,1.64 0.83,0.43 1.44,0.52 0.76,0.36 1.63,1.18 0.28,0.14 0.25,0.1 0.28,0.04 0.26,-0.06 0.37,-0.18 0.49,-0.39 0.35,-0.22 0.33,-0.09 0.37,0.09 0.19,0.21 0.05,0.27 -0.05,0.41 0.01,0.44 0.2,0.56 0.45,0.25 0.65,0.05 1.61,-0.02 0.78,0.13 0.69,0.29 1.25,0.76 0.63,0.2 0.59,-0.03 1.3,-0.58 1.74,-0.56 0.7,-0.14 2.96,0.05 0.66,-0.06 0.52,-0.19 0.31,-0.22 0.25,-0.48 0.12,-0.54 v -1.04 l -0.11,-0.59 -0.23,-0.66 -1.29,-2.3 -0.21,-0.49 -0.11,-0.43 0.04,-0.44 0.06,-0.34 0.46,-0.34 -0.04,-1.86 0.06,-0.41 0.26,-0.89 0.22,-0.44 0.24,-0.35 0.33,-0.36 0.88,-0.67 0.55,-0.21 0.72,-0.13 1.25,0.02 0.87,0.19 1.88,0.69 0.48,0.07 15.77,-4.46 2.55,-1.05 0.65,-0.4 h -0.21 l -0.84,-0.19 0.51,-0.71 -1.83,-0.73 -0.06,-0.09 -0.67,-0.64 -0.23,-0.05 -0.6,0.09 -0.25,-0.04 -0.26,-0.21 -0.55,-0.63 -0.3,-0.26 -1.42,-0.73 -3.75,-0.66 -1.93,-0.9 -0.84,-1.93 -0.23,-1.14 -1.01,-2.07 -0.23,-1.21 0.4,-1.3 1.75,-1.49 0.4,-0.89 0.12,-1.09 0.49,-1.78 0.11,-1.15 0.16,-0.65 0.89,-1.6 0.4,-0.52 0.88,0.29 0.96,-0.29 0.87,-0.64 0.56,-0.82 0.16,-1.09 -0.66,-0.25 -0.95,-0.15 -0.74,-0.73 0.52,0.02 0.44,-0.06 0.84,-0.29 -0.35,-0.03 -0.24,-0.09 -0.2,-0.13 -0.29,-0.15 0.66,-1 0.3,-0.61 0.12,-0.74 -0.13,-0.65 -0.33,-0.61 -0.46,-0.3 -0.52,0.32 h -0.36 l -0.12,-0.57 -0.32,-0.21 -0.46,0.09 -0.54,0.29 -1.15,-0.98 -4.76,0.34 -0.62,-1.55 -0.74,0.37 -0.55,0.49 -0.84,0.97 -0.32,0.15 -0.36,0.07 -0.28,0.19 -0.12,0.51 -0.09,0.19 -0.24,0.18 -0.3,0.12 -3.38,0.78 -1.43,0.09 -1.08,-0.82 -0.82,0.35 -1.09,0.09 -0.97,-0.09 -0.41,-0.17 -0.2,0.62 -0.48,0.57 -0.59,0.46 -1.1,0.64 -0.59,0.23 -0.68,0.14 -0.88,0.05 -2.24,0.53 -0.48,0.2 -0.8,-0.29 -1.86,0.06 -4.58,-0.84 -1.88,-1.05 -1.39,-1.69 -0.92,-2.04 -0.5,-2.15 -0.15,-0.37 -0.47,-0.63 -0.1,-0.31 0.07,-0.26 0.29,-0.51 0.06,-0.34 -0.11,-0.33 -0.29,-0.29 -0.43,-0.2 -0.48,-0.08 -0.29,-0.49 -0.63,-3.56 0.12,-3.69 -0.3,-0.89 -0.75,-0.83 -0.55,-0.79 -0.59,-1.37 -0.45,-0.45 -1.9,-0.59 -0.29,-0.36 -0.14,-0.47 -0.32,-0.41 -0.41,-0.29 -0.4,-0.1 -0.69,-0.29 -0.87,-0.54 -1.04,-0.3 -1.22,0.4 -0.51,-0.7 -1.89,-0.91 -0.84,-0.62 -0.43,-0.78 -0.26,-1.06 -0.09,-1.13 0.06,-1.01 0.54,-1.9 0.1,-0.94 -0.28,-1.2 -1.48,-3.28 0.46,-1.23 -0.04,-1.52 -0.32,-1.52 -0.43,-1.23 -0.97,-1.94 -0.28,-1.55 -0.77,-1.22 -1.1,-4.85 0.04,-0.87 0.43,-0.72 -0.6,0.02 -0.83,0.32 -0.28,0.18 -1.34,0.02 -0.6,0.07 -0.58,0.3 -0.52,-0.63 -0.93,0.1 -1.1,0.26 -1.03,-0.12 -0.49,-0.75 -0.62,-1.99 z" />
  <path
     id="PG-NIK"
     title="New Ireland"
     class="land"
     d="m 677.22,145.11 -0.69,-2.29 0.38,-0.34 -0.22,-0.98 -0.89,0.02 -0.96,0.55 -0.46,0.58 -0.14,0.25 -0.69,0.85 -0.36,0.79 -0.13,0.21 -0.11,0.24 -0.01,0.36 0.13,0.28 0.2,0.01 0.21,-0.05 0.16,0.09 1.41,1.53 1.44,-0.41 z m 4.04,-3.99 -0.48,-0.69 -0.99,-0.14 -0.57,0.38 -1.16,0.53 -0.4,0.53 0.93,-0.17 0.63,0.37 0.58,0.45 0.71,0.1 0.67,-0.53 z m -25.78,-28.19 -0.41,-0.8 -0.94,-1.22 -0.61,0.21 -1.6,1.21 0.67,0.37 1.57,0.55 0.69,0.56 0.14,-0.09 0.03,-0.12 0.1,-0.01 0.42,0.22 z m 4.69,-4.59 -0.27,-0.9 -0.78,-0.53 h -1.39 l -1.1,0.73 -0.44,0.5 -0.26,0.6 1.14,-0.07 1.18,-0.25 1.03,0.09 0.65,0.92 z m -36.68,-9.55 -0.14,-1.05 0.72,-1.73 0.28,-0.82 0.11,-0.46 -0.03,-0.53 -0.21,-0.3 -0.63,-0.11 -0.25,-0.31 -0.09,-0.69 0.09,-2.92 -2.02,-0.56 -1.99,0.22 -1.19,0.9 -1.09,0.96 -0.23,1.19 0.45,1.07 0.45,0.68 2.74,2.97 0.35,0.41 1.64,1.33 0.53,0.25 z m -88.22,-13.88 -0.97,-0.85 -1.18,-0.71 -3.18,-1.07 -2.23,1.86 -1.25,0.81 -0.82,-0.17 -1.2,0.96 -0.44,0.59 0.36,0.25 0.66,-0.17 0.42,-0.32 0.48,-0.17 0.81,0.31 0.71,-0.93 1.16,-0.03 2.62,0.59 h 2.32 l 1.34,-0.25 0.54,0.17 0.33,0.8 0.89,-0.48 0.9,-0.24 -0.31,-0.56 -0.39,-0.08 -0.5,0.06 -0.59,-0.11 z m 56.42,2.25 0.6,-1.19 0.85,-0.85 -0.05,-1.46 -0.33,-0.66 -1.41,-0.36 -1.12,-0.69 -0.96,-1.05 -0.68,-1.18 -0.51,-0.62 -0.58,0.26 -0.4,0.73 0.05,0.72 h -0.36 l 0.47,0.66 0.58,0.29 0.6,0.18 0.2,0.69 -0.06,1.86 0.67,1.19 1.07,1.52 z m -3.01,-10.19 -0.09,-0.14 0.88,-0.39 0.11,-1.02 -0.15,-1.03 0.06,-0.48 -0.25,-0.14 -1.01,-0.91 -0.4,-0.21 -2.24,-0.79 -1.21,-0.03 -0.23,2.54 0.22,1.87 0.17,1.3 -0.01,1.63 0.62,0.4 2,-0.71 1.14,-0.38 1,-0.57 0.38,-0.72 -0.22,0.08 -0.5,0.31 z m 1.18,-7.39 0.52,-0.17 0.26,-0.37 0.14,-0.37 0.17,-0.17 -0.03,-0.38 -0.43,-0.85 -0.7,-0.87 -0.84,-0.43 -1.26,0.45 -0.81,1.25 v 1.31 l 1.17,0.6 z m -51.4,2.53 -0.3,-0.12 -0.35,-0.25 -0.47,-0.24 -2.24,-0.35 -0.4,-0.13 -0.56,-0.49 -1.32,-1.67 -1.24,-0.59 -0.61,-0.42 -0.28,-0.64 -0.3,-0.07 -1.69,-1 -0.49,-0.54 -0.37,-0.58 -0.45,-0.52 -1.13,-0.58 -0.12,0.33 0.09,0.47 0.1,0.16 -1.08,2.17 1.72,0.79 0.7,0.19 1.03,0.07 0.59,0.12 0.59,0.34 0.13,0.56 -0.82,0.79 1.33,0.32 -0.04,1.18 -0.86,0.8 -1.12,-0.83 -2.06,1.27 -1.11,0.43 -0.97,-0.42 -0.88,-0.53 -0.67,0.36 -0.39,0.77 -0.05,0.65 1.1,1.27 1.88,0.55 2.2,0.01 4.13,-0.76 1.09,0.08 1.48,0.73 1.3,0.17 0.56,0.15 0.45,0.24 0.33,0.24 0.65,0.6 0.59,0.7 0.42,0.27 1.82,0.23 0.57,0.17 0.43,0.26 0.22,0.18 0.71,0.39 0.1,0.15 0.13,0.42 0.09,0.16 0.71,0.59 0.77,0.49 0.13,0.21 -0.06,0.24 0.04,0.19 0.42,0.08 h 1.07 l 1.29,1.25 0.3,0.82 0.72,0.35 0.95,0.17 0.95,0.27 0.55,0.43 1.17,1.15 2.41,0.93 0.37,0.21 1,0.8 3.48,1.93 0.79,0.72 0.23,0.41 0.21,1.05 0.24,0.36 0.25,0.27 0.11,0.25 0.47,0.34 3.18,1.29 3.3,0.75 0.84,0.53 10.38,10.31 7.21,4.4 2.04,0.78 7.81,1.51 1.08,-0.01 0.98,0.15 1.4,1.06 0.99,0.48 0.49,0.34 0.18,0.31 0.39,0.9 0.18,0.26 0.83,0.3 0.96,0.21 0.79,0.35 0.58,1.44 0.58,0.74 1.31,1.3 0.79,0.52 0.49,0.41 0.05,0.43 -0.21,1.22 0.18,0.53 4.46,5.55 0.93,0.67 0.56,1.14 0.32,0.41 0.47,0.17 0.96,0.05 0.41,0.17 0.29,0.33 0.22,0.49 0.15,0.57 0.06,0.61 0.18,0.29 0.79,0.55 0.18,0.23 0.19,0.94 0.46,0.66 1.11,1.11 0.88,1.51 0.37,0.9 0.34,1.51 2.62,5.21 1.37,1.79 0.36,0.93 -0.03,0.95 -0.49,1.01 0.43,0.55 0.24,0.65 0.03,0.69 -0.31,0.64 0.62,1.27 -0.66,5.67 -0.09,0.39 -0.98,2.51 0.05,0.71 0.53,1.71 0.4,2.66 0.13,0.37 0.44,0.34 1.13,0.56 0.23,0.35 0.08,2.92 0.25,0.86 1.21,1.16 1.88,1.3 1.43,1.34 -0.16,1.3 1.82,0.95 1.28,1.33 0.82,1.55 0.44,1.6 0.61,-0.96 0.3,-1.18 0.49,-0.74 1.16,0.34 0.35,-0.82 0.47,-0.49 0.51,-0.37 0.47,-0.49 0.45,-0.84 0.61,-1.72 0.39,-0.7 0.38,-0.38 0.75,-0.59 0.31,-0.51 0.07,-0.47 -0.07,-1.33 0.45,-0.55 1.29,-0.82 0.39,-0.44 0.21,-0.84 0.07,-0.85 -0.07,-0.82 -0.21,-0.75 -0.5,-0.69 -0.62,-0.54 -0.52,-0.64 -0.17,-1.02 0.69,-1.77 3.07,-2.57 1.32,-1.48 -0.55,-1.37 0.06,-1.34 0.49,-2.93 -0.46,-1.13 -1.09,-1.25 -1.27,-1.01 -0.98,-0.4 0.08,-0.43 -0.49,-0.9 -0.87,-1.21 -1.4,-2.92 -0.68,-0.72 -1.69,-1.37 -0.56,-0.78 -0.13,-0.79 0.07,-0.74 -0.08,-0.69 -0.54,-0.7 -0.72,0.63 -0.03,0.1 -0.98,0.03 -1.21,-0.09 -1.02,-0.38 -0.44,-0.83 -0.13,-0.52 -0.68,-0.95 -0.26,-0.52 -0.13,-0.52 -0.09,-1.08 -0.12,-0.53 -0.67,-1.38 -0.59,0.15 -0.75,0.77 -1.08,0.46 -1.18,-0.07 -1.02,-0.21 -0.97,-0.35 -1.01,-0.52 -1.07,-0.81 -0.84,-0.82 -0.94,-0.65 -1.32,-0.25 -1.24,-0.05 -0.57,-0.11 -0.54,-0.2 0.01,-0.16 -0.45,-0.52 -0.49,-0.46 -0.26,-0.63 0.14,-0.54 0.22,-0.52 0.1,-0.64 -0.22,-0.6 -0.99,-1.05 -0.23,-0.52 -0.22,-0.96 -0.54,-1.07 -0.71,-1 -0.7,-0.77 -0.58,0.81 -0.9,0.54 -1.06,0.04 -1.06,-0.66 -0.39,-0.62 -0.47,-1.24 -0.6,-0.76 -0.3,-0.58 -0.21,-0.29 -0.28,-0.19 -0.45,-0.11 -0.22,-0.22 -0.32,-1.99 -0.24,-0.29 -1.01,-0.55 -0.82,-0.87 -3.74,-1.72 -1.9,-1.14 -1.62,-1.34 -1.4,-1.56 -2.6,-3.8 -1.95,-1.92 -0.34,-0.42 -0.12,-0.08 -0.43,-0.17 -0.13,-0.07 -0.04,-0.25 0.1,-0.63 -0.06,-0.21 -0.12,-0.3 0.05,-0.23 -0.05,-0.14 -0.44,-0.05 -0.59,0.01 -0.28,-0.06 -0.71,-0.52 -0.51,-0.15 h -1.65 l -0.19,-0.02 -0.99,-0.7 -0.85,-0.81 -0.56,-0.31 -0.79,0.36 -0.65,-0.13 -1.07,-0.6 -0.62,-0.1 -1.95,0.1 -0.76,-0.16 -0.8,-0.5 -0.65,-0.9 -0.31,-1.32 -1.4,0.27 -1.15,-0.74 -0.87,-1.15 -0.55,-0.94 -0.98,-1.09 -4.1,-2.56 -0.6,0.06 -3.03,-2.22 -0.49,-0.08 -1.18,-0.02 -0.32,-0.08 -1.62,-1.99 -0.91,-0.82 -0.92,-0.65 -1.01,-0.44 -1.17,-0.23 -0.4,0.1 -0.5,0.21 -0.54,0.11 -0.51,-0.24 -0.3,-0.43 -0.23,-0.42 -0.33,-0.32 -0.59,-0.12 -3.96,0.12 -2.14,-0.44 -0.92,-1.3 -0.41,-1.98 -1.09,-1.17 -3.25,-1.37 -0.64,-0.28 -0.63,-0.17 -0.63,-0.06 -0.59,-0.25 -0.3,-0.41 -0.46,-1.16 z m -42.96,-17.3 -1.18,-0.46 -0.77,0.12 -1.07,0.49 -0.69,0.11 -0.05,0.16 -2.12,0.75 -0.56,0.36 -0.61,0.07 h -0.71 l -0.84,0.14 -3.84,2.65 -0.49,0.2 -0.39,-0.1 -0.34,-0.3 -0.32,-0.19 -0.36,0.2 -0.05,0.78 1.16,1.12 1.59,0.74 1.19,-0.41 0.78,0.59 2.23,2.66 0.86,2.61 0.48,0.37 1.13,0.63 1.72,1.85 0.45,0.35 0.5,0.16 0.39,-0.02 0.43,-0.09 3.96,-0.19 0.85,-0.25 0.26,0.24 0.53,0.3 0.29,0.21 0.53,-0.5 0.85,-0.51 0.79,-0.14 0.35,0.6 0.16,0.47 0.38,0.02 0.54,-0.18 0.56,-0.12 1.97,-0.72 1.14,-0.24 0.36,-0.25 0.37,-0.59 -0.36,-0.54 -0.23,-0.59 -0.12,-0.71 -0.04,-0.88 0.26,-0.84 0.49,-0.76 0.29,-0.73 -0.29,-0.76 -0.21,0.12 -0.54,0.24 0.41,-1.63 -0.61,-1.27 -1.25,-0.91 -1.47,-0.56 -1.42,-0.33 -0.24,-0.17 -0.49,-0.51 -0.18,-0.1 -0.52,-0.12 -1.38,-0.63 -0.46,-0.27 -1.17,0.01 z m -13.15,-38.4 -0.31,-0.75 -0.6,-0.66 -0.41,0.17 -0.21,0.89 -0.47,0.43 -1.21,-0.38 -0.44,0.13 v 0.55 l 0.27,0.68 0.53,0.42 0.45,-0.1 0.09,-0.23 0.13,-0.17 0.44,-0.13 0.41,0.12 0.19,0.18 0.79,0.29 1.37,0.09 0.9,-0.25 0.31,-0.34 -0.25,-0.15 -0.77,0.04 -0.79,-0.23 z M 461.19,0 l -0.44,0.64 -1.72,3.54 0.07,2.06 0.31,0.94 0.7,0.82 0.28,0.09 0.68,-0.05 0.3,0.14 0.19,0.24 0.23,0.48 1.1,1.11 0.5,0.39 0.52,0.16 1.84,1.57 0.86,0.28 0.06,-1.52 0.5,0.18 0.43,0.26 0.87,0.67 0.33,0.39 0.1,0.28 0.15,0.23 0.5,0.18 0.76,-0.02 1.23,-0.64 0.86,-0.06 -0.46,-1.06 -1.14,-1.57 -0.56,-1.01 -0.68,-1.63 -0.22,-0.37 -0.44,-0.57 -0.04,-0.57 0.07,-0.59 -0.13,-0.63 -0.73,-0.73 -3.24,-1.79 -1.16,-1.27 -0.47,-0.18 -1.22,0.03 -0.46,-0.11 z" />
  <path
     id="PG-NCD"
     title="National Capital District"
     class="land"
     d="m 336.84,428.08 -0.46,-0.07 -0.41,-0.26 -0.83,-0.75 -0.51,-0.29 -0.62,-0.1 -0.63,0.2 -1.91,1.08 -2.22,0.67 -0.47,0.19 -0.31,0.2 -0.21,0.25 -0.12,0.26 0.01,0.36 0.17,0.44 0.41,0.54 1.43,1.2 0.22,-0.05 0.19,-0.33 0.07,-0.52 -0.13,-0.6 -0.33,-0.37 -0.84,-0.28 -0.27,-0.44 0.88,-0.21 0.73,-0.07 0.66,0.17 0.62,0.47 0.32,0.71 0.27,1.8 0.31,0.62 1.14,0.79 1.61,0.8 1.65,0.51 1.23,-0.08 -0.6,-1.06 0.18,-0.45 0.65,0.04 0.84,0.38 0.47,0.29 v -0.1 l -0.04,-1.98 -0.41,-1.85 -0.5,-1.32 -0.57,-0.74 -0.54,-0.15 z" />
  <path
     id="PG-MPL"
     title="Morobe"
     class="land"
     d="m 314.21,237.54 -0.24,-0.92 -0.23,0.13 -16.31,9.56 -32.35,-0.13 0.72,0.65 0.6,1.9 0.71,0.78 0.83,0.73 0.69,0.9 0.33,-0.2 0.85,-0.35 0.33,-0.18 0.2,0.84 0.04,0.79 0.78,0.48 6.89,4.43 0.51,0.62 0.3,0.84 v 1.2 l -4.73,22.64 -0.38,0.9 -0.54,0.77 -1.21,1.16 -0.36,0.52 -0.05,0.63 0.2,0.65 0.35,0.74 0.19,0.85 0.11,1.07 0.64,1.86 0.03,1 -0.24,0.95 -0.44,0.78 -0.46,0.52 -2.17,1.93 -0.62,0.74 -0.44,0.74 -0.26,0.67 -1.4,4.79 -0.28,0.6 -0.33,0.48 -0.25,0.48 -2.28,7.06 9.87,10.89 1.09,2.16 1.44,2.14 0.77,0.77 1.35,0.58 15.31,4.23 11.33,7.7 4.36,2.97 0.42,0.64 0.46,1.06 -0.15,1.72 0.01,0.94 0.13,0.97 0.5,1.29 0.43,0.41 0.49,0.06 0.56,-0.07 0.55,0.15 1.06,0.81 0.59,0.32 0.74,0.16 1.49,-0.23 0.87,-0.02 0.85,0.12 1.89,0.9 0.55,0.2 0.6,0.16 1.11,0.13 0.44,-0.01 0.48,-0.07 0.35,-0.11 0.57,-0.29 52.05,0.21 -0.12,-0.39 -0.41,-0.51 -1.15,-0.24 -1.16,-0.6 -2.48,-1.83 -0.62,-0.23 -0.61,-0.05 -0.5,0.21 -0.61,0.41 -0.39,-0.11 -0.31,-0.3 -0.32,-0.17 -1.15,0.06 -1.6,0.37 -0.86,-0.08 -0.94,-0.38 -0.68,-0.61 -0.43,-0.89 -0.42,-3.43 -0.76,-1.54 -1.14,-1.17 -1.43,-1.11 0.01,0.71 0.21,0.53 0.37,0.36 0.49,0.23 v 0.39 l -2.55,0.37 0.42,-1.06 -0.43,-0.84 -0.7,-0.86 -0.37,-1.1 -0.03,-1.37 -0.25,-0.78 -0.74,-0.41 -2.87,-0.45 -0.51,-0.5 0.04,-2 -0.27,-0.63 -0.61,-0.67 -1.29,-1.04 -0.54,-0.14 -0.64,-0.01 -0.3,-0.13 0.43,-0.49 -0.63,-0.49 -0.42,-0.46 -0.49,-0.34 -0.79,-0.13 -0.42,-0.01 -0.57,-0.1 -0.47,-0.27 -0.2,-0.55 -0.69,-1.22 -1.57,-0.74 -3.19,-0.78 0.24,-0.28 -0.04,-0.28 -0.24,-0.27 -0.31,-0.26 h -0.34 l -0.88,0.95 -0.23,0.14 -0.75,-0.12 -0.13,-0.24 0.04,-0.34 -0.25,-0.39 -0.56,-0.25 -0.32,0.08 -0.23,-0.03 -0.33,-0.56 0.08,-0.16 0.3,-0.1 0.28,-0.17 0.07,-0.3 -0.16,-0.25 -0.25,-0.22 -0.32,-0.22 -0.22,-0.49 -0.86,-1.37 -0.14,-0.52 -0.25,-1.62 -0.4,-0.94 -0.29,-0.52 0.13,-0.44 0.29,-0.21 0.17,-0.26 -0.26,-0.58 -0.36,-0.72 0.21,-2.52 -0.18,-1.12 -0.48,-0.78 -0.61,-0.66 -2.73,-2.12 -0.21,-0.08 -0.07,-0.64 0.38,-1.26 0.08,-0.67 -0.17,-0.68 -0.47,-0.87 -0.11,-0.66 0.12,-0.42 0.28,-0.47 0.27,-0.55 0.08,-0.71 -0.68,0.33 -0.71,0.67 -0.41,0.09 -0.59,-0.14 -0.34,-0.26 -0.55,-0.69 -1.13,-1.03 -1.73,-2.15 -0.35,-1.25 -0.34,-2.52 -0.06,-2.56 0.21,-1.22 0.8,-2.22 0.08,-1.28 0.77,-0.35 0.9,-0.09 1.77,0.08 0.88,-0.23 1.31,-1 0.71,-0.23 2.61,-0.09 0.82,0.09 0.63,0.21 0.51,0.3 0.4,0.41 0.29,0.54 0.66,-0.09 8.23,0.45 1.13,-0.15 2.18,-0.57 1.21,-0.01 3.53,1.15 0.96,-0.24 0.59,-0.25 0.57,0.16 0.58,0.25 0.59,0.02 0.41,-0.24 0.92,-0.86 0.51,-0.32 9.27,-0.49 4.14,-1.43 0.35,-4.32 -0.38,0.33 -0.35,-0.04 -0.25,-0.36 -0.09,-0.66 0.16,-0.15 0.75,-0.49 0.16,-0.25 -0.18,-1.1 -0.31,-0.9 -0.08,-0.79 0.57,-0.7 -0.29,-0.69 0.17,-0.44 0.31,-0.39 0.17,-0.46 -0.1,-0.7 -0.5,-1.25 -0.3,-1.48 -0.42,-0.6 -0.49,-0.53 -0.35,-0.69 -0.03,-0.59 0.15,-0.44 0.08,-0.48 -0.2,-0.74 -1.36,-1.36 -3.94,-1.99 -1.22,-1.75 -0.58,-0.82 -0.41,-1.44 -0.51,-1.2 -0.86,-0.5 -0.53,-0.57 -1.41,-2.52 -3.7,-3.51 -1.44,-0.69 -0.36,-0.36 -0.12,-0.26 -0.09,-0.55 -0.12,-0.28 -0.21,-0.14 -0.63,-0.14 -0.21,-0.11 -0.6,-0.67 -0.72,-0.58 -0.92,-0.41 -2.43,-0.31 -2.61,-0.94 -0.27,-0.31 -0.26,-0.08 -0.37,0.21 -0.19,0.26 -0.06,0.17 -0.12,0.09 -0.35,0.03 -1.33,-0.61 -0.46,-0.12 -0.75,0.23 -0.53,0.53 -0.49,0.61 -0.62,0.48 -0.5,0.14 h -0.49 l -4.87,-0.59 -0.64,0.25 -0.23,0.35 -0.52,-0.52 -0.69,-1.12 -0.59,-0.64 -0.33,-0.11 -0.58,0.03 -0.74,0.54 -0.47,0.21 -0.4,-0.39 -0.46,-0.19 -0.54,-0.12 -0.42,-0.05 -2.74,-1.81 -0.46,-0.82 -0.33,-0.96 -0.43,-0.79 -0.77,-0.34 -0.84,-0.13 -0.81,-0.27 -0.92,-0.16 -1.22,0.17 -0.83,0.31 -0.95,0.23 z m 54.44,-18.34 -0.19,-0.1 -0.15,-0.11 -0.13,-0.27 -0.67,0.63 -1.33,0.23 -0.56,0.62 -0.21,0.76 0.21,2.53 -0.32,1.38 v 0.43 l 0.2,0.46 0.84,0.99 1.07,1.76 0.63,0.74 1.99,1.71 0.31,0.47 0.22,1.11 0.14,0.37 0.72,0.92 0.77,0.37 1.76,0.16 1.48,0.36 0.63,0.31 0.45,0.42 0.3,0.83 0.16,1.78 0.26,0.68 0.39,-0.46 0.41,-0.29 0.44,-0.11 0.53,0.11 -0.02,-0.36 0.05,-0.73 -0.03,-0.37 0.21,0.15 0.55,0.25 0.35,-1.39 1.16,-2.61 0.52,-4.72 -0.31,-1.39 -1.18,-1.35 -2.56,-1.8 -1.35,-0.75 -1.35,-0.55 -2.12,-0.35 -0.77,-0.38 -0.73,-0.61 -1.17,-1.37 -0.62,-0.55 -0.21,0.06 -0.18,0.03 -0.17,0.07 -0.16,0.2 z m 16.87,-2.13 -0.08,-1.5 -1.03,-1.48 -1.41,-0.81 -1.16,1.07 -0.11,1.7 0.79,1.48 1.56,0.46 z m -26.42,-6.72 -0.49,-0.55 -0.28,-0.63 -0.44,-0.51 -0.95,-0.12 -0.8,0.1 -0.92,0.43 -0.65,0.57 v 0.54 l 0.14,0.23 v 0.21 l -0.02,0.22 0.05,0.23 0.13,0.04 0.48,-0.06 0.14,0.02 1.09,1.49 1.51,-0.83 0.53,-0.47 z" />
  <path
     id="PG-MBA"
     title="Milne Bay"
     class="land"
     d="m 671.61,547.77 0.56,-0.32 0.59,-0.23 0.17,-0.1 0.42,-0.47 0.29,-0.16 h 0.28 l 0.18,0.32 0.28,0.05 h 2.34 l 0.41,0.14 0.36,0.2 0.29,-0.05 0.22,-0.66 0.64,0.29 0.67,0.01 0.65,-0.25 0.56,-0.45 0.42,0.29 0.33,0.09 0.31,-0.09 0.44,-0.29 0.28,0.27 0.32,0.1 0.28,-0.16 0.15,-0.55 -0.12,-0.29 -0.31,-0.14 -0.34,-0.11 -0.26,-0.16 -0.4,-0.93 -0.33,-0.43 -1.15,-0.34 -0.52,-0.39 -0.4,-0.53 -0.14,-0.58 -0.54,-0.28 -6.09,-1.68 -1.12,-0.06 -0.6,-0.24 -2.47,-1.6 -3.26,-1.28 -1.49,-1.23 -0.54,-0.21 -1.24,-0.25 -0.55,-0.26 -1.25,-0.85 -0.58,-0.18 -0.59,-0.13 -0.47,-0.19 -0.39,-0.89 -0.46,-0.01 -0.98,0.3 -1.04,-0.28 -2.76,-1.96 -0.51,1.15 -0.16,0.6 -0.07,0.65 0.16,0.33 0.34,0.44 0.42,0.38 0.37,0.16 0.7,0.15 0.11,0.38 -0.28,1.14 0.13,0.51 0.33,-0.03 0.43,-0.19 0.4,0.08 0.5,0.58 0.62,1.01 0.5,0.42 0.52,0.12 h 1.17 l 0.48,0.28 0.01,0.85 -2.07,0.98 0.25,1.11 1.33,-1.08 0.79,-0.49 0.8,-0.27 0.26,0.39 0.27,0.26 0.36,0.11 0.28,-0.16 0.14,-0.32 0.25,-0.18 0.57,0.23 0.37,0.53 -0.26,0.48 -0.49,0.45 -0.34,0.42 -0.06,0.77 0.21,0.79 0.5,0.39 0.83,-0.48 1.98,1.14 0.56,-0.16 0.45,-0.41 0.43,-0.5 0.54,-0.44 -0.06,0.55 0.08,0.34 0.25,0.17 0.49,0.05 -0.25,0.58 -0.15,0.22 0.55,0.27 0.43,-0.03 0.45,-0.15 0.55,-0.09 0.18,0.16 0.19,0.36 0.28,0.36 0.47,0.16 0.52,-0.1 0.45,-0.18 0.38,-0.03 0.31,0.31 0.07,0.48 -0.27,0.26 -0.45,0.08 -0.46,-0.05 0.34,0.88 z m 34.91,-17.3 -0.48,-0.24 -0.5,0.1 -0.42,0.16 -0.46,0.04 -0.6,-0.3 -2.2,0.34 -1.46,-0.01 -1.03,-0.33 0.06,0.52 0.22,0.42 0.33,0.31 0.47,0.22 -0.16,0.35 0.17,0.29 0.36,0.25 0.39,0.22 h 0.33 v -0.4 h 0.39 l 0.27,0.52 -0.01,0.4 -0.33,0.13 -0.65,-0.32 -0.39,0.4 -1.12,-0.48 -2.33,-0.15 -0.88,-0.5 -0.24,-0.3 -0.18,-0.08 -0.34,0.04 0.49,0.86 0.27,0.21 -0.48,0.18 -0.4,0.24 -0.34,0.32 -0.26,0.4 0.52,0.08 0.61,0.2 0.5,0.29 0.21,0.35 0.2,0.76 0.46,0.25 0.78,-0.06 1.41,0.45 1.12,0.02 0.78,-0.6 0.33,-1.41 h 0.33 l 0.22,1.3 0.77,0.08 1.86,-0.97 1.1,-0.19 1.17,0.09 0.97,0.42 0.43,0.81 0.6,-0.32 0.47,-0.4 0.37,-0.51 0.36,-0.64 -0.42,-0.29 -0.35,-0.57 -0.23,-0.66 -0.08,-0.51 -0.22,-0.48 -0.53,-0.34 -1.08,-0.47 -0.65,0.26 -0.27,-0.29 z m -51.31,-3.91 -0.97,-0.22 -2.32,-1.66 -2.6,-0.55 -0.67,-0.55 -0.67,-0.35 -0.66,0.25 -0.18,0.67 0.8,0.93 1.83,1.11 0.27,0.3 0.2,0.3 0.22,0.1 0.39,-0.33 1.47,1.1 v 0.37 l -0.23,0.08 -0.52,0.32 0.67,0.1 0.7,-0.17 0.51,-0.28 0.12,-0.24 0.58,0.24 0.5,-0.4 0.37,-0.64 z M 618.26,493 l -0.11,0.14 -0.08,0.16 -0.16,0.11 -0.37,-0.04 v 0.36 l 2.19,1.5 3.25,0.74 3.15,1.34 1.47,0.42 1.19,0.07 0.53,-0.16 1.03,-0.45 0.6,-0.12 2.35,-0.21 0.57,-0.16 0.7,-0.33 0.42,-0.38 0.04,-0.49 -0.48,-0.64 -0.64,-0.4 -1.82,-0.7 -0.42,-0.03 -1.34,-0.55 -1.74,0.62 -1.83,0.96 -1.61,0.47 -0.61,-0.27 -1.59,-1.01 -0.51,-0.02 -0.74,0.09 z m -80.08,-0.85 -0.5,-0.47 -0.46,-0.15 h -2.92 l -0.89,0.14 -0.73,0.31 -0.55,0.45 -0.36,0.57 -0.24,1.02 0.12,0.77 0.52,1.51 0.49,-0.44 0.02,-0.61 -0.07,-0.73 0.21,-0.79 0.95,0.17 2.3,-0.01 0.46,0.41 0.43,1.05 0.89,0.46 0.76,-0.08 0.02,-0.5 0.29,-0.26 0.53,-0.58 0.29,-0.26 -1.21,-0.16 0.11,-0.51 1.46,-1.17 -0.24,0.03 -0.07,-0.08 0.01,-0.16 -0.06,-0.18 -0.37,-0.24 -0.16,0.18 -0.18,0.33 -0.4,0.12 z m -11.7,-3.25 -0.42,-0.34 -0.49,-0.09 -0.48,0.29 -0.12,0.51 0.28,0.48 3.55,3.16 0.27,0.34 -0.3,0.13 -0.99,-0.01 -1.02,-0.16 -0.96,-0.32 -0.86,-0.46 -0.74,-0.53 -0.36,0.39 0.46,0.29 0.39,0.47 0.56,1.08 1.03,-0.35 1.32,0.15 1.32,0.44 1.02,0.49 0.51,-0.34 0.24,-0.44 -0.04,-0.52 -0.35,-0.56 0.18,-0.53 0.02,-0.77 0.19,-0.54 -0.39,-0.37 0.67,-0.81 -0.14,-0.63 -0.59,-0.47 -0.66,-0.32 -0.68,0.5 -0.71,0.15 -0.73,0.01 -0.73,0.11 z m 68.19,-7.63 0.12,-0.49 -0.58,-0.03 -0.24,0.6 z m -12.17,-3.56 -0.47,0.19 0.06,0.38 z m -0.67,-4.27 -0.12,-0.24 -0.51,0.5 0.2,0.29 z m -43.13,-17.14 -1.24,-0.67 -1.31,-0.5 -0.93,-0.56 -3.45,-3.88 -1.2,-0.64 -1.44,-0.56 -1.21,-0.73 -0.5,-1.2 -0.33,-1.15 -0.82,-0.98 -1.05,-0.8 -1.53,-0.79 -0.34,0.69 -0.18,1.06 -0.05,0.89 0.1,0.97 0.29,0.71 0.45,0.56 0.57,0.51 0.32,0.13 0.82,0.11 0.3,0.08 0.14,0.26 0.07,0.39 0.19,0.34 1.08,0.27 0.52,0.34 0.38,0.52 0.15,0.68 0.17,0.37 1.09,1.48 0.18,0.37 -0.06,2.67 0.06,0.44 0.16,0.19 0.26,0.11 0.23,0.19 0.1,0.42 0.57,1.04 1.15,-0.03 0.92,-0.85 -0.11,-1.4 h 0.32 l 0.8,1.02 0.52,0.56 0.36,0.25 0.54,0.27 -0.36,0.63 -0.69,0.73 -0.41,0.53 -0.66,0.27 -0.1,1.39 0.18,1.58 0.22,0.82 0.64,0.28 0.82,0.09 h 1.13 l 2.49,0.37 5.41,1.49 1.01,0.54 1.91,1.62 1.08,0.74 -0.29,-0.99 0.52,-1.74 -0.23,-0.57 0.36,-0.32 1.59,-3.13 0.44,-2.29 0.99,-2.32 0.23,-1.13 -0.88,-2.13 -1.99,-0.3 -2.19,0.73 -1.47,1.01 -1.3,1.27 -0.72,0.88 0.04,0.41 0.4,0.19 0.16,0.5 -0.08,0.6 -0.3,0.54 -0.42,0.28 -0.39,0.02 -0.99,-0.3 -1.01,-0.47 -1.87,-1.45 -0.57,-0.31 -0.43,-0.56 -0.21,-1.12 0.36,-0.82 1.24,0.34 z m -78.59,-18.12 -1.01,-0.21 -4.21,0.05 h -0.01 l -0.65,0.4 -2.55,1.05 -15.77,4.46 -0.48,-0.07 -1.88,-0.69 -0.87,-0.19 -1.25,-0.02 -0.72,0.13 -0.55,0.21 -0.88,0.67 -0.33,0.36 -0.24,0.35 -0.22,0.44 -0.26,0.89 -0.06,0.41 0.04,1.86 0.92,-0.35 1,-0.27 0.93,-0.12 1.43,-0.03 1.66,0.13 3.48,0.6 4.04,1.37 2.96,1.49 0.82,0.71 0.86,0.92 1.05,2.37 0.23,0.43 0.31,0.14 2.86,0.43 0.93,0.38 0.84,0.62 2.4,2.25 0.33,0.22 2.7,1.17 1.44,0.93 1.45,1.17 3,1.39 1.19,0.4 0.81,1.43 0.35,1.05 0.15,10.72 v 0 l 1.94,-0.08 1.76,0.18 1.11,0.53 1.12,0.8 2.91,0.91 1.39,0.86 0.52,0.56 0.29,0.51 0.46,1.32 0.17,0.2 0.24,0.12 0.21,0.18 0.1,0.42 0.01,0.51 0.09,0.42 0.22,0.37 0.4,0.35 0.44,-0.52 0.23,-0.87 0.13,-0.81 0.09,-0.37 0.21,-0.11 0.34,-0.53 0.22,-0.12 0.39,0.06 0.62,0.28 1.13,0.21 1.09,0.71 0.55,0.24 0.78,0.06 0.74,-0.04 0.71,0.05 0.69,0.3 -1.18,0.23 -0.3,0.13 -0.12,0.29 -0.12,0.91 -0.12,0.3 -0.46,0.21 -2.44,0.76 -2.36,-0.63 -1.41,0.31 -0.57,-0.05 -0.36,-0.6 -0.48,0.14 -0.4,0.22 -0.32,0.31 -0.21,0.4 0.75,-0.22 0.3,-0.14 -0.11,0.97 -0.65,0.36 -0.83,0.27 -0.61,0.63 0.61,0.07 0.55,0.15 0.53,0.22 0.51,0.29 -0.02,-0.27 0.07,-0.07 h 0.14 l 0.17,-0.05 -0.36,-0.71 1.53,0.55 0.67,0.42 0.31,0.5 h 0.37 l 0.17,-0.27 0.56,-0.49 -0.18,0.89 -0.12,0.23 0.85,0.58 0.47,0.17 0.45,-0.01 0.51,-1 0.36,-0.49 0.18,0.2 0.33,0.57 0.53,0.58 0.12,0.6 -0.98,0.64 0.53,0.36 0.51,0.04 0.43,-0.06 0.36,0.03 0.39,0.27 0.7,0.86 0.5,0.08 0.21,-0.17 0.21,-0.14 0.51,0.23 0.26,0.28 0.86,1.16 0.8,-0.54 1.34,-0.51 1.27,-0.21 0.56,0.36 -0.16,0.43 -0.31,0.36 -0.21,0.32 0.14,0.35 1.25,0.86 0.37,0.44 1.03,-0.91 0.54,-0.34 0.56,-0.21 -0.03,0.15 0.32,0.25 0.46,0.22 0.36,0.11 0.02,-0.11 2.45,-1.27 1.09,-0.23 0.87,0.39 0.65,1.22 0.65,-0.22 0.9,-0.14 0.93,0.05 0.74,0.31 -0.01,-0.72 0.28,-0.46 0.33,-0.28 0.16,-0.19 0.26,0.07 0.57,-0.52 0.51,-0.64 0.1,-0.23 0.82,-0.58 0.42,-0.12 0.76,-0.03 1.41,-0.33 0.2,0.15 0.57,0.29 6.41,-2.37 0.81,-0.5 0.3,-0.58 -0.2,-0.56 -0.62,-0.87 -0.36,-1.84 -1.23,-1.01 -6.41,-1.96 -0.85,-0.65 -0.53,-0.31 -1.76,-0.27 -0.57,-0.17 -0.43,-0.26 -0.98,-0.39 -2.41,-0.12 -0.77,-0.42 -0.04,0.36 -0.09,0.06 -0.26,-0.02 -0.77,-1.85 1.04,-2.06 1.76,-1.43 1.42,-0.01 0.74,0.47 1.04,0.27 2.21,0.14 1.1,0.27 2.39,0.96 1.04,-0.09 0.26,0.24 0.29,0.11 0.89,0.01 1.99,-0.32 1.89,-0.7 6.52,-3.53 2.14,-0.53 0.98,-0.7 0.14,-0.65 -1.36,-0.2 -1.03,0.34 -1.59,1.25 -0.8,0.27 -3.43,0.17 -3.42,0.85 -1.4,0.18 -0.63,-0.29 -0.26,-0.69 -1.2,-0.8 -0.34,-0.55 0.11,-0.33 0.69,-0.76 0.28,-0.4 -2.24,-0.27 -0.46,0.1 -0.82,0.61 -0.57,0.08 -1.32,-0.52 -2.19,-0.52 -0.26,0.24 -0.59,0.08 -0.62,-0.03 -0.34,-0.11 -1.02,0.31 -1.17,-0.25 -2.17,-0.79 -2.11,-0.41 -0.7,-0.39 -0.98,-0.83 -0.82,-1.12 -0.39,-0.23 -1.67,-0.52 -0.57,-0.93 -0.38,-0.49 -0.49,-0.21 -0.54,0.11 -0.97,0.48 -0.48,0.14 -0.73,0.06 -0.38,-0.07 -1.85,-1.13 -1.03,-0.32 -1.12,-0.16 -3.05,0.16 -0.95,-0.12 -1.04,-0.29 -0.96,-0.41 -0.67,-0.47 -1.64,-1.63 -0.84,-0.34 -1.34,-0.1 0.12,-2.13 -1.66,-2.02 -3.87,-3.14 -1.41,-1.67 -0.23,-0.92 0.53,-1.15 0.82,-0.45 2.49,-0.73 0.69,-0.64 1.04,0.42 1.24,-0.11 2.04,-0.64 3.71,-0.73 1.04,-0.39 2.85,-1.48 0.81,-0.19 0.37,0.04 0.06,-0.15 -0.12,-0.8 -0.25,-0.84 -0.36,-0.22 -0.41,-0.07 -0.42,-0.33 -0.75,-1.64 -0.59,-0.44 -1.38,-0.15 -3.36,0.47 -1.2,-0.07 -2.56,-0.99 -2.49,-0.31 -2.07,-0.73 -1.2,-0.16 -0.5,0.1 -1.27,0.49 -0.54,0.1 -0.75,-0.3 -0.54,-0.08 -0.52,0.22 -0.92,0.62 -0.83,0.08 z m 77.7,3.41 0.15,-0.57 -0.21,-0.37 -0.29,-0.23 -0.26,-0.03 -0.1,-0.19 -0.06,-0.42 0.14,-0.04 0.26,-0.12 0.2,-0.88 -0.01,-0.29 -0.16,-0.07 -0.14,-0.51 -0.55,-0.34 -0.81,-0.25 -0.98,0.12 -0.95,0.53 -0.24,0.8 0.72,0.69 1.47,0.79 0.34,0.4 0.15,0.22 0.25,0.32 0.08,0.63 0.29,0.25 z m -19.82,-12.3 -1.42,-0.98 -0.98,-1.27 -0.7,-0.64 -1.77,-0.5 -3.08,-1.61 -1.35,0.08 -1.42,0.5 -1.11,0.9 -0.45,1.26 0.18,1.6 1.63,3.7 2.53,1.49 0.38,0.54 0.04,1.13 -0.08,0.75 -0.52,0.6 -1.27,0.65 -1.78,1.32 -0.78,0.83 0.2,0.37 1.74,-0.01 2.06,-0.32 2.31,-0.1 2.03,0.61 1.84,0.82 1.82,0.5 1.19,0.01 3.32,-0.38 2.25,0.82 1.04,0.1 -0.2,-0.92 1.66,-0.06 0.84,0.15 0.36,0.45 -0.14,0.6 -0.56,1.28 -0.02,0.88 1.78,-1.79 0.91,-0.62 0.55,0.58 0.63,-0.33 0.53,-0.5 0.33,-0.64 -0.01,-0.73 -0.34,-0.46 -0.5,-0.24 -0.44,-0.32 -0.37,-1.37 -0.44,-0.12 -0.6,-0.02 -0.62,-0.39 -0.24,-0.53 0.31,-0.21 0.44,-0.15 0.24,-0.39 0.32,-2.08 -0.14,-0.3 -0.65,-0.15 -0.79,-0.37 -0.74,-0.48 -0.52,-0.5 -0.07,-0.3 0.11,-0.81 -0.04,-0.32 -0.27,-0.35 -1.64,-1.55 -2.06,-1.42 -0.77,1.03 -0.97,0.31 -1.05,0.15 -1.02,0.52 -0.71,0.1 z m -15.34,-3.59 -0.45,-0.74 -0.23,-1.28 -0.98,-2.35 -0.99,-1.23 -1.25,-0.94 -2.81,-1.51 -1.27,-0.42 -1.3,0.32 -1.29,0.82 -1.22,1.1 -1.03,1.34 -0.53,1.43 -0.21,1.55 -0.03,1.75 0.31,0.44 2.06,1.78 0.34,0.54 0.3,0.66 0.33,0.57 0.48,0.24 2.04,0.62 0.84,0.11 0.59,0.27 0.27,0.65 0.06,0.84 -0.05,0.81 0.22,-0.11 0.06,-0.05 0.03,-0.04 0.11,-0.14 1.31,0.72 1.47,0.57 1.34,0.01 0.93,-0.96 0.29,-0.61 0.07,-0.36 -0.03,-0.5 -0.92,-0.02 -0.47,-0.14 0.13,-0.37 0.52,-0.68 0.87,-1.96 0.26,-0.85 0.18,-0.26 0.27,-0.19 0.17,-0.21 -0.1,-0.27 -0.45,-0.55 -0.07,0.02 z m 111.24,-22.18 -1.02,-0.24 -2.52,1.39 -0.85,1.08 1.23,2.27 0.51,2.68 0.3,-0.75 0.04,-0.64 -0.04,-2.1 -0.13,-0.98 0.07,-0.95 1.35,-0.92 1.13,0.58 1.15,1.29 0.27,0.82 v 0.4 l -1.87,0.74 0.38,0.44 1.83,-0.33 1.56,0.64 0.85,0.54 0.64,0.61 0.48,0.31 1.32,-0.51 0.81,0.85 1.19,0.85 1.52,1.25 1.08,0.54 0.61,0.3 0.41,0.27 0.52,0.53 -0.29,0.13 -0.34,0.05 -0.38,0.25 -0.28,0.49 0.3,0.79 -1.22,-0.07 -1.16,-0.91 -0.34,0.78 0.61,1.15 0.89,0.5 1.49,0.55 1.05,0.44 0.81,1.52 0.84,-0.98 0.07,-0.98 -1.25,-0.25 -0.14,-0.8 0.61,-0.55 0.31,-0.67 0.37,0.47 0.41,0.71 0.78,0.68 0.74,0.34 0.81,0.95 0.44,0.78 0.85,-0.07 0.37,0.34 1.05,-0.31 2.1,-0.2 1.46,-1.15 1.08,-0.04 0.71,0.75 0.28,0.81 0.34,-0.03 0.44,-0.58 -0.31,-0.88 -1.02,-0.85 -0.98,-0.74 -0.14,-0.41 0.51,-0.64 0.34,-0.28 0.64,0.38 0.41,0.44 0.54,0.3 0.54,-0.17 0.24,-0.44 0.2,-0.3 -0.27,-0.34 0.37,-0.61 0.84,-0.63 -0.87,-0.42 -1.19,-0.71 -1.29,-0.44 0.14,-1.35 -0.51,-0.58 -1.25,-0.74 -1.02,0.51 -1.72,-0.51 -0.95,-0.58 -0.95,-1.65 -0.64,-0.24 -0.48,-0.71 -0.77,-0.37 -1.02,-0.14 h -1.12 l -0.94,-0.03 -1.66,0.3 -1.93,-0.3 -1.32,-0.38 -2.3,-0.23 -4.31,0.4 z m -70.87,-28.09 -0.04,-0.25 -2.46,0.18 -1.14,0.38 -0.92,0.73 -0.85,0.99 -0.28,0.53 -0.11,0.66 -0.17,0.52 -0.94,1.3 0.36,1.03 0.91,0.42 3.05,0.26 0.46,0.19 0.66,0.47 0.92,0.88 0.15,0.21 -0.17,1 -1.18,2.77 -2.57,3.49 -0.24,0.44 0.1,0.31 2.99,1.91 1.56,2.67 0.6,0.65 0.08,-0.78 -0.32,-1.11 -0.61,-1 -0.76,-0.43 -0.48,-0.61 0.12,-1.42 1.73,-7.48 0.03,-2.3 -1.59,-1.75 0.43,-1.07 0.21,-1.09 0.07,-2.58 0.17,-0.06 h 0.14 z" />
  <path
     id="PG-MRL"
     title="Manus"
     class="land"
     d="m 371.42,49.66 -0.92,-0.41 -0.81,-0.72 -1.15,-1.43 h -0.72 l 0.04,0.37 -0.24,0.42 -0.4,0.4 -0.48,0.29 0.39,1.35 -0.67,1.08 -1.27,0.5 -1.37,-0.4 -0.14,0.18 -0.1,0.14 -0.12,0.36 1.07,0.79 0.5,0.24 0.79,0.08 H 368 l 1.25,-0.34 0.96,-0.87 z M 319.19,32.01 318,31.74 l -1.27,0.08 -1.39,0.45 -2.05,1.24 -0.68,0.17 -0.77,-0.1 -1.29,-0.48 -0.65,-0.14 -0.56,0.04 -0.86,0.28 -0.58,0.08 -0.29,-0.13 -0.49,-0.51 -0.31,-0.12 -0.31,0.06 -0.15,0.12 -0.09,0.12 -0.15,0.06 -0.35,0.32 -0.4,1.48 -0.19,0.4 -0.6,0.11 -0.37,-0.27 -0.25,-0.36 -0.19,-0.2 -0.81,-0.3 -0.22,0.15 -0.08,0.69 0.05,0.63 0.17,0.56 0.28,0.51 1.24,1.58 0.34,0.68 0.11,0.55 -0.18,0.7 -0.26,0.22 -0.4,0.04 -1.69,0.44 -0.54,0.03 -0.91,-0.35 -0.47,0.3 -0.82,1 -0.03,0.58 0.62,2.12 0.32,0.73 0.82,0.88 0.95,0.42 0.79,-0.2 0.61,-1.85 0.69,-0.4 0.95,-0.23 1,-0.43 0.52,0.89 0.93,0.17 1.98,-0.34 0.78,-0.33 0.08,-0.75 -0.44,-0.74 -0.79,-0.34 -0.48,-0.15 -0.28,-0.36 -0.02,-0.46 0.28,-0.47 0.31,-0.03 1.29,0.38 h 0.99 l 0.24,0.09 0.37,0.24 0.2,0.25 0.46,0.72 0.26,0.15 0.51,0.16 0.37,0.38 0.29,0.37 0.31,0.17 0.26,-0.06 0.49,-0.24 0.32,-0.06 0.27,0.11 0.41,0.48 0.25,0.13 6.05,0.98 1.8,-0.07 1.64,-0.35 1.69,-0.56 -0.29,0.33 -0.07,0.15 v 0.25 l 1.31,-0.13 2.04,-1.06 1.16,-0.26 0.47,0.15 1.93,0.93 0.63,0.15 0.48,0.05 0.46,-0.03 0.56,-0.17 0.81,-0.64 1.67,-2.14 0.61,-0.47 -0.02,-0.73 0.4,-1.4 0.51,-0.9 0.39,0.84 h 0.36 l 0.27,-0.93 0.3,-0.61 0.55,-0.29 1.07,0.02 -0.49,0.84 -0.26,0.28 1.76,-0.1 1.89,0.09 1.52,-0.32 0.63,-1.33 0.08,-1.63 -0.13,-0.77 -0.49,-0.34 -0.57,-0.19 -0.85,-0.92 -0.53,-0.3 -0.79,0.24 0.32,0.39 0.72,0.48 0.41,0.5 0.1,0.36 0.49,0.82 0.16,0.46 v 1.44 h -0.36 l -0.74,-0.6 -1.36,-0.29 -1.41,-0.02 -0.85,0.2 -2.16,-0.7 -0.33,-0.21 -0.4,0.01 -2.16,-0.91 -1.48,0.13 -0.76,-0.1 -0.32,-0.59 -0.3,-0.42 -0.65,0.04 -0.64,0.46 -0.24,0.84 h -0.36 l -0.32,-0.58 -0.56,-0.73 -0.61,-0.62 -0.5,-0.27 -8.97,-0.45 -1.34,0.45 z" />
  <path
     id="PG-EBR"
     title="East New Britain"
     class="land"
     d="m 601.31,150.41 -0.79,-0.87 -0.95,-0.75 -0.82,-0.91 -1.21,0.31 -0.42,1.02 -0.25,1.16 -0.67,0.8 -0.55,-0.02 -1.35,-0.31 -0.27,0.15 -0.19,0.19 -0.48,0.16 -0.54,0.11 -0.45,0.05 -0.97,-0.35 -1.06,-0.55 -0.91,-0.12 -0.48,1.02 0.41,0.73 0.88,0.8 0.65,0.91 -0.31,1.04 -1.68,2.23 -0.67,0.5 -1.12,0.16 -2.19,-0.68 -1.18,-0.2 -0.99,-0.5 -0.46,-1.17 -0.24,-1.33 -0.31,-1.02 -0.53,-0.43 -1.89,-0.88 -0.67,-0.16 -2.21,-0.25 -1.05,0.08 -0.9,0.56 0.01,-0.9 -0.46,-0.13 -0.68,0.21 -0.67,0.1 -0.54,-0.17 -0.94,-0.42 -0.71,-0.14 -2.09,0.09 -2.91,-0.54 -0.8,-0.3 -1.05,1.11 -0.58,0.81 -0.11,0.86 0.32,1.22 0.62,1.48 0.07,0.53 -0.1,0.25 -0.18,0.37 -0.14,0.46 0.06,0.53 0.36,0.53 0.93,0.85 0.18,0.63 0.04,1.06 0.1,0.46 0.19,0.48 0.61,0.8 1.62,1.28 0.69,0.86 0.53,1.19 0.2,1.04 -0.01,2.3 0.22,1.27 0.52,0.97 1.1,1.51 0.5,2.02 -0.27,4.28 0.1,2.08 0.23,0.6 0.7,1.18 0.15,0.59 0.11,0.15 0.25,0.1 0.24,0.17 0.12,0.31 -0.05,0.31 -0.12,0.16 -0.11,0.11 -0.05,0.16 -0.08,1.24 -0.23,1.07 -0.36,0.95 -0.98,1.75 -0.67,0.84 0.06,-0.01 2.16,2.32 -0.24,0.32 -0.59,0.57 -11.36,0.44 -0.44,0.16 -4.96,2.52 -0.55,0.61 -5.17,8.33 -4.33,9.87 0.05,0.58 0.34,0.3 0.5,0.11 0.64,0.01 1.22,-0.12 0.56,0.02 0.39,0.12 0.29,0.22 0.21,0.43 0.04,0.56 -0.28,0.82 -0.54,0.86 -1.06,1.09 -2.7,1.63 -0.8,0.62 -2.77,2.8 -0.64,0.49 -0.62,0.22 -0.68,-0.01 -0.72,-0.27 -1.78,-0.89 -0.35,-0.1 -0.24,0.01 -0.35,0.07 -0.35,0.35 -0.22,0.48 -0.19,1.05 0.06,0.85 0.13,0.71 0.19,0.56 0.06,0.57 -0.14,0.38 -0.46,0.36 -3.92,0.93 -0.67,-0.05 -0.53,0.03 -0.42,0.16 -1.11,0.95 -0.86,0.48 -0.98,0.26 -5.7,0.28 -0.89,0.22 -1.67,0.66 -2.76,1.41 -0.15,0.2 -0.13,0.45 -0.1,1.43 0.11,2.56 0.4,0.99 0.69,1.24 2.69,3.25 4.61,4.58 0.46,0.67 0.2,0.37 0.07,1.58 0.71,-0.14 0.6,-0.36 0.47,-1.31 0.38,-0.63 0.22,-0.67 -0.5,-1.22 0.2,-0.61 0.34,-0.63 0.23,-0.58 h 0.32 l 1.75,1.57 1.04,0.55 0.46,-0.51 0.61,-0.39 3.79,-0.86 3.04,0.61 1.64,-0.15 0.72,-1.39 0.65,-0.93 1.5,-0.73 2.97,-1.07 0.22,0.63 0.37,0.03 1.36,-1.14 0.17,-0.38 0.09,-0.4 0.28,-0.55 0.89,-0.91 1.99,-1.43 0.72,-0.93 0.49,0.1 0.77,-0.18 1.66,-0.67 0.7,-0.42 1.64,-1.58 0.5,-0.67 0.39,-0.88 0.26,-1.02 0.09,-1.06 0.34,-0.71 0.79,-0.81 0.97,-0.72 0.81,-0.47 1.27,0.3 1.39,-0.48 0.91,-0.89 -0.12,-0.94 -1.46,-1.43 -0.46,-0.15 -1.26,-0.05 -0.27,-0.18 -0.25,-0.67 -0.49,-0.74 -0.3,-0.9 0.32,-1.15 0.67,-0.72 0.79,-0.23 1.82,0.22 3.56,0.07 0.95,0.48 0.24,0.52 0.02,0.53 0.15,0.41 0.67,0.17 0.57,-0.25 1.25,-1.75 0.92,-0.42 1.29,-0.13 1.31,0.1 1,0.27 0.94,0.78 1.52,1.92 1.16,0.57 1.39,-0.14 1.06,-0.78 0.87,-0.86 0.85,-0.4 0.67,-0.08 1.67,-0.64 1.71,-0.24 0.43,-0.13 2.19,-2.35 0.4,-0.32 2.48,-1.31 0.57,-0.08 0.6,0.01 0.48,-0.11 0.19,-0.4 0.11,-0.36 0.23,-0.42 0.3,-0.34 0.28,-0.15 1.61,-2.89 -0.15,-1.27 -1.04,-1.99 -0.25,-0.93 -2.19,-2.72 -1,-0.31 -0.56,-0.25 -0.26,-0.37 -0.13,-0.54 -0.34,-0.36 -2.66,-2.17 -0.55,-0.82 -0.31,-1.34 -0.14,-6.27 0.28,-1.11 0.97,-0.65 1.14,0.6 0.71,0.24 0.59,-0.48 0.62,0.08 1.11,0.31 0.77,0.08 2.67,0.62 h 1.11 l 1.64,-0.55 2.3,-0.3 0.74,-0.42 1.09,-1.24 0.93,-0.57 0.38,-0.3 0.85,-1.77 0.21,-0.26 0.55,-0.32 3.39,-5.3 0.38,-2.27 0.95,-3.42 -0.09,-2.25 -0.58,-2.06 -1.56,-3.29 -0.45,-1.79 0.23,-1.83 2.6,-5.91 0.19,-0.8 -0.3,-0.85 -0.75,-0.01 -2.2,0.68 h -0.95 l -3.26,-0.37 -0.72,-0.2 -0.46,-0.43 -0.37,-0.5 -0.41,-0.35 -0.69,-0.14 -0.48,0.17 -0.35,0.25 -0.28,0.12 -1.05,-0.32 -0.42,-0.62 -0.01,-1.99 -0.26,-1.3 -0.03,-0.76 0.29,-0.5 0.57,-0.04 0.27,0.48 0.12,0.62 0.16,0.41 0.36,0.17 0.92,0.2 0.33,0.03 0.75,-0.17 0.12,-0.42 z m 13.69,1.09 0.45,-1.05 0.26,-1.01 -0.16,-0.98 -0.87,-0.91 -0.17,-0.24 -0.55,-0.51 -0.42,0.75 -0.42,0.5 -1.36,0.91 0.62,0.32 0.33,0.44 0.13,0.56 0.03,0.71 0.27,0.09 1.2,0.29 0.34,0.13 z m -21.49,-4.64 0.15,-0.2 0.04,-0.46 -0.08,-0.36 -0.19,-0.1 -0.2,-0.15 -0.18,-0.19 v -0.24 l -0.46,-0.02 -0.69,0.49 -0.1,0.2 0.07,0.14 v 0.76 l 0.35,0.43 0.83,0.16 0.27,0.03 z" />
  <path
     id="PG-CPM"
     title="Central"
     class="land"
     d="m 311.75,350.67 -0.49,-0.06 -0.43,-0.41 -0.5,-1.29 -0.13,-0.97 -0.01,-0.94 0.15,-1.72 -0.46,-1.06 -0.42,-0.64 -4.36,-2.97 -4.7,3.12 -2.37,2.57 -0.92,0.77 -2.23,1.31 -1.27,1.1 -0.76,2.85 -0.2,31.67 v 0.01 l 2.4,1.4 0.35,0.56 0.27,0.72 0.66,0.94 2.52,2.84 0.28,0.51 0.24,0.65 0.04,0.51 -0.06,0.56 v 0.54 l 0.22,0.43 0.4,-0.01 0.68,-0.09 0.63,0.13 0.28,0.68 0.07,0.4 0.16,0.36 0.23,0.29 0.26,0.21 -0.33,0.86 0.53,0.2 0.87,-0.32 0.74,-0.74 0.15,0.96 -0.25,0.75 -0.55,0.65 -0.79,0.63 -0.91,-0.37 -0.29,0.7 -0.1,0.98 -0.33,0.51 0.31,0.3 0.31,0.72 0.15,0.86 -0.23,0.71 0.79,1.06 0.66,1.25 0.84,1.19 1.32,0.91 0.99,0.34 3.67,0.82 0.75,0.47 0.39,0.17 0.61,0.04 0.96,-0.16 0.63,0.12 1.79,0.89 1.58,1.07 1.62,0.71 1.89,-0.15 0.62,-0.46 1.65,-1.69 0.06,-0.37 -0.17,-0.26 0.05,-0.54 0.33,-0.52 0.68,-0.15 0.31,0.23 0.24,0.49 0.17,0.58 0.03,0.53 -0.36,0.68 -1.5,1.14 -0.34,0.54 -0.22,0.06 -1.22,0.83 -1,0.23 -0.41,0.17 0.23,0.45 0.27,0.41 0.29,0.35 0.29,0.25 -0.72,1.2 0.07,1.58 0.49,1.3 0.49,0.34 0.23,0.57 -0.17,0.44 -0.47,0.29 -0.64,0.13 0.56,0.74 2.16,-0.48 1.04,0.32 0.88,1.18 0.47,1.18 0.66,2.61 0.51,0.99 1.37,2.07 0.69,1.67 0.91,0.7 0.97,0.43 0.6,0.02 h 0.01 l -1.43,-1.2 -0.41,-0.54 -0.17,-0.44 -0.01,-0.36 0.12,-0.26 0.21,-0.25 0.31,-0.2 0.47,-0.19 2.22,-0.67 1.91,-1.08 0.63,-0.2 0.62,0.1 0.51,0.29 0.83,0.75 0.41,0.26 0.46,0.07 1.13,-0.1 0.54,0.15 0.57,0.74 0.5,1.32 0.41,1.85 0.04,1.98 v 0.1 l 0.48,0.3 0.75,0.64 0.46,0.86 0.04,1.2 0.36,-0.37 0.98,0.53 0.59,0.81 0.44,0.88 0.52,0.71 1.42,1.44 4.74,6.2 0.49,0.97 0.2,1.1 0.07,2.29 0.22,0.85 0.43,0.76 0.68,0.62 0.84,0.6 0.71,0.68 0.29,0.84 0.39,0.81 1.89,1.86 0.68,0.48 0.52,0.06 0.71,-0.01 0.63,0.1 0.26,0.38 0.26,0.26 0.57,0.29 0.68,0.23 0.49,0.09 0.92,4.46 h 0.36 l 2.01,-2.06 1.26,-0.28 2.17,0.47 0.66,0.7 0.3,0.12 0.19,-1.11 0.22,-0.42 0.35,-0.28 0.44,-0.08 0.64,0.47 0.1,0.91 -0.45,0.86 -1,0.33 v 0.37 l 1.3,-0.08 0.99,-0.31 0.84,-0.11 0.83,0.5 0.54,0.91 0.45,1.12 0.59,1.02 0.98,0.61 0.79,-0.4 0.58,-0.56 0.79,-1.27 1.99,0.57 2.52,-0.39 2.07,-1.19 0.64,-1.89 0.44,0.38 0.35,0.79 0.32,0.3 0.35,0.06 0.98,-0.08 0.47,0.02 1.12,0.4 0.76,0.64 0.64,0.66 0.76,0.49 0.42,-0.8 0.99,0.17 1.01,0.81 0.47,1.1 0.53,0.68 3.43,1.34 1.04,-0.36 4.15,-0.05 0.77,-0.14 0.65,-0.28 0.28,-0.45 0.29,-0.23 0.67,0.09 1.23,0.35 h 2.5 l 0.58,0.31 0.34,0.09 0.16,-0.22 0.54,-0.61 0.91,-0.43 0.4,-1.03 0.34,-2.17 h 0.33 l 0.51,1.75 0.24,0.48 0.35,0.25 0.62,0.26 0.58,0.05 0.26,-0.38 0.37,-0.74 0.71,0.4 0.48,0.8 -0.3,0.43 -0.71,0.02 -0.56,0.13 -0.43,0.33 -0.28,0.62 0.18,0.02 0.54,-0.02 -0.11,0.19 -0.13,0.37 -0.12,0.17 0.48,0.42 -0.12,1.17 0.53,0.24 0.71,0.08 0.97,0.3 0.67,0.03 2.73,-0.41 0.8,0.05 0.64,0.16 3.59,1.77 1,0.36 1.05,-0.11 0.45,-0.31 0.55,-0.51 0.63,-0.47 0.71,-0.21 0.52,-0.05 0.63,-0.18 1.23,-0.5 0.31,0.18 0.47,-0.02 1.02,-0.16 0.46,0.07 0.96,0.27 1.41,0.18 0.77,0.3 3.81,1.97 0.68,0.18 0.97,0.08 1.16,0.23 1.05,0.35 0.63,0.44 0.54,-0.47 0.98,-1.06 0.68,-0.31 2.35,0.92 0.28,0.56 0.03,0.53 0.16,0.4 1.34,0.27 0.41,0.26 -0.01,0.36 -0.59,0.37 0.9,0.42 0.57,-0.24 0.47,-0.43 0.58,-0.11 0.34,0.31 0.16,0.95 0.42,0.2 h 1.64 v -0.37 l -0.72,-0.33 0.36,-0.4 0.88,0.33 0.66,-0.33 0.55,-0.37 1.33,0.47 0.97,-0.08 1.77,-0.38 1.52,-0.07 v 0 l -0.15,-10.72 -0.35,-1.05 -0.81,-1.43 -1.19,-0.4 -3,-1.39 -1.45,-1.17 -1.44,-0.93 -2.7,-1.17 -0.33,-0.22 -2.4,-2.25 -0.84,-0.62 -0.93,-0.38 -2.86,-0.43 -0.31,-0.14 -0.23,-0.43 -1.05,-2.37 -0.86,-0.92 -0.82,-0.71 -2.96,-1.49 -4.04,-1.37 -3.48,-0.6 -1.66,-0.13 -1.43,0.03 -0.93,0.12 -1,0.27 -0.92,0.35 -0.46,0.34 -0.06,0.34 -0.04,0.44 0.11,0.43 0.21,0.49 1.29,2.3 0.23,0.66 0.11,0.59 v 1.04 l -0.12,0.54 -0.25,0.48 -0.31,0.22 -0.52,0.19 -0.66,0.06 -2.96,-0.05 -0.7,0.14 -1.74,0.56 -1.3,0.58 -0.59,0.03 -0.63,-0.2 -1.25,-0.76 -0.69,-0.29 -0.78,-0.13 -1.61,0.02 -0.65,-0.05 -0.45,-0.25 -0.2,-0.56 -0.01,-0.44 0.05,-0.41 -0.05,-0.27 -0.19,-0.21 -0.37,-0.09 -0.33,0.09 -0.35,0.22 -0.49,0.39 -0.37,0.18 -0.26,0.06 -0.28,-0.04 -0.25,-0.1 -0.28,-0.14 -1.63,-1.18 -0.76,-0.36 -1.44,-0.52 -0.83,-0.43 -2.24,-1.64 -2.28,-1.2 -3.52,-2.71 -0.76,-0.2 -0.71,0.08 -0.69,0.3 -0.58,0.18 -0.61,0.02 -0.69,-0.23 -0.85,-0.56 -2.9,-2.6 -3.19,-2.35 -1.22,-1.19 -1.65,-1.3 -0.71,-0.32 -2.33,-0.54 -0.77,-0.46 -0.76,-0.76 -0.72,-1.59 -0.12,-1.05 0.13,-0.96 0.52,-1.55 0.14,-0.8 -0.18,-0.96 -0.43,-0.94 -4.3,-6.1 -0.8,-0.67 -0.56,-0.2 -1.01,-0.16 -0.45,-0.17 -0.39,-0.27 -0.49,-0.46 -0.61,-0.82 -2.8,-4.93 -0.65,-0.56 -0.33,-0.14 -0.32,0.05 -0.57,0.48 -0.4,0.2 -0.53,0.12 -0.58,-0.04 -0.53,-0.37 -0.49,-0.68 -1.83,-4.19 -0.31,-0.48 -0.47,-0.38 -0.61,-0.59 -1.97,-2.48 -0.83,-0.83 -0.93,-0.64 -0.75,-0.65 -0.84,-0.93 -0.91,-1.44 -1.6,-1.8 -0.46,-0.68 -0.31,-0.92 -0.13,-2.51 0.07,-0.98 0.29,-1.6 4.81,-7.27 0.93,-2.98 -1.27,-3 -2.01,-2.96 -2.43,-2.47 -2.35,-1.66 -3.8,-1.74 -4.95,-2.84 -16.31,-15.3 -0.57,0.29 -0.35,0.11 -0.48,0.07 -0.44,0.01 -1.11,-0.13 -0.6,-0.16 -0.55,-0.2 -1.89,-0.9 -0.85,-0.12 -0.87,0.02 -1.49,0.23 -0.74,-0.16 -0.59,-0.32 -1.06,-0.81 -0.55,-0.15 z" />
  <path
     id="PG-WPD"
     title="Western"
     class="land"
     d="m 156.57,381.15 0.5,-1.14 -0.04,-0.53 -0.33,-0.23 -0.32,0.06 -0.35,0.23 -0.58,0.18 -0.63,0.49 0.12,0.76 0.71,0.57 z m -9.04,10.43 0.54,-1.05 0.01,-1.23 -0.44,-1.18 -0.81,-0.89 -1.09,-0.35 -1.08,-0.36 -5.07,-4.22 -0.54,-0.96 -0.37,-0.49 -0.51,-0.2 -1.15,-0.16 -4.43,-1.6 -4.67,-1.05 -0.79,-0.64 -1.96,-2.23 -0.61,-0.05 -0.71,0.17 -0.8,0.09 0.51,0.58 1.11,0.73 0.62,0.51 1.23,1.72 0.56,0.5 1.41,0.62 2.97,0.82 3.31,2.76 0.32,0.71 0.29,0.48 0.67,0.21 0.78,0.14 0.6,0.28 1.2,0.92 6.17,2.92 0.8,0.53 0.33,0.76 0.26,0.98 0.63,0.46 z m -14.63,-19.15 -0.31,-0.31 -0.43,-0.24 -0.71,0.02 -1.12,0.78 0.72,1.17 1.47,1.1 1.12,0.6 2.34,0.37 1.14,0.33 0.88,1.02 2.53,1.22 1.07,0.24 2.73,0.06 1.02,-0.17 0.5,-0.45 0.05,-0.69 -0.36,-0.81 -0.85,-1.4 -0.16,-0.77 -0.04,-1.34 -0.58,-0.4 -4.72,-0.55 -3.57,0.06 -1.67,0.36 h -0.63 z m 16.57,2.88 0.14,-0.47 -0.29,-0.7 -0.1,-0.48 -0.3,-0.96 -0.62,-0.96 -1,-0.75 -2.03,-0.43 -2.58,0.19 -0.52,0.74 2.59,1.16 1.89,2.17 1.19,0.72 1.03,0.12 z m 0.49,-14.3 0.09,-0.91 -0.54,-0.83 -0.89,-0.62 -0.47,-0.27 -0.71,-0.29 -1.44,-0.21 -0.74,0.84 0.76,1.5 1.06,1.38 1.74,0.15 z m 0.49,-3.35 -0.59,-1.31 -0.57,-0.67 -1.04,-0.75 -2.29,-1.04 -1.84,-0.1 -0.72,0.62 0.52,1.13 0.41,0.93 1.34,0.7 2.18,0.16 1.46,0.46 0.76,0.37 z m -55.36,-111.71 -0.58,-2.79 -1.21,-1.33 -4.12,-3.04 -17.8,-17.31 -1.19,-2.05 0.02,-1.14 1.61,-3.4 L 8.29,193.16 6.74,192.7 v 0.59 0.14 10.35 6.66 2.17 13.65 9.84 10.39 12.07 5.62 l -0.21,0.08 -0.48,0.61 -0.27,1.06 -0.25,0.11 -0.06,0.19 0.12,0.32 0.51,0.44 0.12,0.32 -0.2,0.55 -0.4,0.37 -0.29,0.41 0.14,0.68 -0.59,-0.05 -0.56,0.03 -0.51,0.13 -0.47,0.25 0.56,0.06 0.37,0.28 0.16,0.47 -0.01,0.64 0.83,-0.02 0.24,0.8 -0.16,0.97 -0.35,0.46 -0.81,0.12 -0.38,0.36 -0.12,0.61 -0.05,1.34 -0.14,0.28 -0.28,0.16 -0.43,0.03 -0.46,0.18 0.19,0.41 0.36,0.48 0.08,0.39 -0.76,0.55 -0.88,0.19 -0.77,0.27 -0.47,0.8 0.77,0.38 0.05,0.99 -0.46,1.75 -0.29,0.63 -0.13,0.47 0.06,0.54 0.39,0.56 1.11,0.99 0.3,0.63 -0.09,0.35 -0.5,0.7 -0.13,0.25 0.18,0.59 0.43,0.46 1.02,0.75 0.27,0.85 0.08,1.12 0.41,0.71 1.25,-0.34 0.19,1.69 1,0.53 0.79,-0.07 -0.01,5.75 v 8.11 l -0.01,6.69 v 2.18 14.06 9.87 10.09 2.13 l 0.01,8.97 0.02,14.14 0.01,9.41 v 9.99 l -0.02,10.31 -0.01,6.16 1.63,0.96 5.66,5.05 1.98,0.73 2.52,-0.23 1.67,-0.81 4.13,-3.24 1.89,-0.57 2.04,0.01 1.97,0.46 1.67,0.83 2.19,1.54 0.8,1.09 1.06,0.17 1.11,0.02 0.64,0.1 0.85,-0.4 0.71,0.32 0.69,0.53 0.82,0.28 0.72,-0.11 0.83,-0.28 0.75,-0.35 0.44,-0.35 1.32,0.08 4.48,-0.82 1.19,0.19 2.21,0.74 1.11,0.17 1.3,-0.08 1.08,-0.23 3.2,-1.17 1.06,-0.22 7.47,-0.55 1.78,0.06 0.62,-0.17 1,-0.75 0.57,-0.18 0.67,0.13 2.77,0.97 2.29,1.3 0.8,0.2 1.24,0.1 0.81,0.28 1.38,0.71 1.57,-0.15 1.91,0.83 1.8,1.22 2.53,2.18 1.6,1.06 1.85,0.58 2.12,-0.24 2.92,-1.65 0.35,-0.62 0.87,-0.54 5.66,-2.21 1.87,-1.45 2.47,-1.02 1.08,-0.58 0.44,-0.55 0.46,-0.73 0.49,-0.63 0.6,-0.28 0.51,-0.14 1.23,-0.76 1.3,-1.07 0.89,-0.45 4.69,-1.45 0.78,-0.15 0.35,-0.17 0.25,-0.36 0.16,-0.37 0.14,-0.19 0.26,-0.03 0.56,0.06 0.82,-0.15 1.1,-0.08 0.53,-0.17 -0.36,-0.37 1.56,-0.29 3,-0.01 1.58,-0.43 0.88,-0.43 0.59,-0.41 1.27,-1.18 0.47,-0.83 0.03,-0.95 -0.32,-1.74 v -6.93 l -0.25,-0.72 -0.49,-0.84 -2.01,-2.43 -1.59,-2.61 -2.97,-3.55 -6.87,-5.68 -1.56,-1 -2.03,-0.75 -6.62,-1.35 -2.04,-0.8 -3.4,-2.27 -1.12,-0.31 -0.55,-0.26 -1.81,-1.6 -2.17,-0.7 -0.88,0.32 -4.2,-0.71 -1.89,0.61 -3.51,2.38 -1.88,0.65 -2.22,-0.22 -1.72,-0.96 -1.18,-1.46 -1.6,-5.11 -0.13,-1.18 -0.56,-1.15 -1.29,-0.26 -1.44,0.22 -2.24,0.61 -0.66,0.04 -0.85,-0.33 -0.33,0.22 -0.35,0.31 -0.41,0.16 -0.79,0.21 -0.73,0.49 -1.17,1.12 -0.81,-0.35 -0.21,-0.42 0.3,-0.49 0.72,-0.56 0.57,-0.22 0.6,-0.09 0.58,-0.17 0.58,-0.45 0.39,-0.47 0.31,-0.27 0.41,-0.12 1.86,-0.14 2.99,-0.63 2.29,0.44 1.13,1.41 1.23,5.29 0.48,0.95 0.79,0.73 1.15,0.3 2.32,0.19 1.03,-0.07 1.16,-0.45 2.99,-1.96 1.19,-0.26 0.99,-0.09 2.63,-0.59 0.89,-0.42 0.52,0.29 0.22,0.06 6.71,1.09 5.18,2.4 0.97,0.21 1.19,-0.09 12.39,-3.23 4.5,-0.33 1.46,-0.9 0.53,-0.23 13.42,-0.31 1.08,-0.14 0.88,-0.47 0.31,-1.02 -0.39,-1.34 -3.05,-5.42 -0.53,-2.12 -0.62,-0.71 -4.3,-1.91 -0.96,-0.76 -0.4,-0.98 -0.2,-1.32 -0.57,-0.46 -2.15,-0.22 -0.54,-0.17 -0.45,-0.26 -0.3,-0.36 -0.12,-0.47 0.27,-0.3 0.59,0.11 0.56,0.25 0.19,0.14 1.38,0.01 0.98,0.16 0.76,0.53 0.68,1.08 0.87,1.98 0.59,0.68 0.92,0.26 3,0.22 3.4,-0.85 1.23,-0.04 1.02,0.49 0.51,0.33 1.84,0.58 0.47,0.34 0.9,0.82 0.43,0.3 0.98,0.28 4.93,0.06 1.09,-0.19 0.9,-0.53 0.82,-1.08 -1.99,-2.02 -0.93,-0.53 -0.45,-0.12 -0.9,-0.09 -0.45,-0.16 -0.36,-0.27 -0.4,-0.59 -0.32,-0.22 3.08,0.14 0.88,0.21 0.81,0.73 0.72,1.03 0.78,0.87 0.97,0.29 0.09,-0.13 -49.68,-50.79 -0.18,-10.7 h -9.77 l -4.02,-0.41 -3.04,-1.07 -0.98,-2.42 -0.35,-2.77 z" />
  <path
     id="PG-WHM"
     title="Western Highlands"
     class="land"
     d="m 221.25,235.1 -1.03,-1.17 -2.91,-4.38 -1,-1.02 -1.67,-1.08 -1.09,-0.96 -0.77,-0.96 -1.01,-2.25 -0.19,-0.28 -0.36,-0.44 -0.58,-0.48 -0.72,-0.45 -2.93,-0.97 -1.07,-0.62 -1.23,-1.06 -0.93,-1.11 -0.76,-1.15 -0.72,-0.89 -0.91,-0.58 -3.06,-0.99 -1.45,-0.88 -0.9,-0.86 -1.28,-1.89 -0.66,-0.77 -0.95,-0.65 -7.7,-2.81 -0.94,-0.21 -0.73,0.07 -0.8,0.54 -0.62,0.57 -0.68,0.39 -0.31,0.09 -1.81,-0.61 -1.1,2.28 -0.58,1.54 -0.78,0.77 -0.99,0.39 -1.11,0.27 -5.5,2.95 -0.47,0.66 v 0.77 l 3.28,6.54 0.36,1.16 0.05,0.93 -0.11,1.21 -0.52,2.33 -0.52,1.21 -0.67,0.99 -1.68,1.35 -3.9,2.29 -7.44,2.65 -2.83,1.39 -0.59,0.43 -0.11,0.39 0.17,0.4 1.15,1.63 0.32,0.62 0.2,0.61 4.47,1.83 0.5,0.92 0.87,0.94 0.7,0.52 1.59,-0.22 1.52,-0.04 1.36,0.37 27.82,18.6 2.7,1.78 0.31,-0.06 0.43,-0.31 0.7,-2.56 0.39,-0.74 0.49,-0.73 0.64,-0.72 2.11,-1.97 0.52,-0.83 2.09,-5.54 0.22,-0.82 0.02,-0.54 -0.24,-0.52 -1.33,-1.43 -0.28,-0.75 -0.05,-0.95 0.36,-1.57 0.46,-1.2 0.11,-0.13 0.62,-0.5 0.63,-0.31 1.75,-0.65 0.86,-0.55 0.41,-0.55 0.16,-0.47 -0.56,-7.48 0.15,-0.87 0.45,-0.17 0.68,0.12 2.88,0.98 4.96,0.25 1.32,-0.19 0.9,-0.25 z" />
  <path
     id="PG-SHM"
     title="Southern Highlands"
     class="land"
     d="m 94.33,192.7 -5.61,-0.21 -3.15,-0.61 -7.7,-0.27 0.12,5.17 0.38,2.22 0.76,1.52 0.52,1.43 -0.3,1.73 -0.36,1.09 -1.29,2.47 -0.09,0.34 -0.1,0.67 -0.77,2.16 -0.05,0.3 -0.44,1.27 -0.93,0.7 -2.11,1.03 -1.39,1.18 -1.61,3.4 -0.02,1.14 1.19,2.05 17.8,17.31 4.12,3.04 1.21,1.33 0.58,2.79 0.29,38.25 0.35,2.77 0.98,2.42 3.04,1.07 4.02,0.41 h 9.77 l 36.22,-0.07 54.41,-5.17 -0.7,-1.32 -1.08,-0.99 -0.7,-0.51 -2.43,-0.32 -1.34,-0.34 -0.6,-0.63 -0.07,-1.16 -0.31,-0.95 -0.66,-0.86 -1.12,-0.86 -0.98,-0.45 -1.03,-0.21 -1.78,-0.07 -0.8,-0.2 -0.18,-0.49 0.09,-0.59 -0.01,-0.53 -0.31,-0.58 -0.2,-0.44 -0.01,-0.21 0.32,-1.84 0.24,-0.54 0.43,-0.49 0.9,-0.45 1.6,-0.33 0.73,-0.24 0.57,-0.36 0.33,-0.67 0.12,-0.55 -0.25,-2.53 -27.82,-18.6 -1.36,-0.37 -1.52,0.04 -1.59,0.22 -0.7,-0.52 -0.87,-0.94 -0.5,-0.92 -4.47,-1.83 -3.26,-0.61 -2.29,-0.15 -2.72,0.48 -4.39,1.24 -2.32,0.43 -1.51,-0.28 -2.68,-1.22 -4.8,-3.42 -5.43,-4.91 -3.53,-1.78 -15.17,-5.48 -5.57,-7.18 -1.35,-25.76 -2.87,-1.81 -0.74,-0.11 -0.91,-0.03 z" />
  <path
     id="PG-NSB"
     title="North Solomons"
     class="land"
     d="m 737.44,218.96 -1.92,-1.81 -2.18,-1.21 -1.74,0.24 -0.09,1.1 2.3,2.25 0.6,1.21 0.21,0.67 0.4,0.74 0.29,0.8 -0.14,0.87 -0.38,0.35 -0.44,-0.18 -0.95,-0.9 -0.11,0.14 -0.05,0.07 -0.04,0.07 -0.16,0.12 v 0.33 l 0.74,0.92 -0.08,0.98 -0.41,1.09 -0.63,4.51 -0.93,2.2 -0.13,0.48 0.08,0.37 0.19,0.42 0.44,0.66 1.28,1.26 0.58,0.89 0.24,1.14 -0.09,0.62 -0.23,0.5 -0.33,0.51 0.05,0.54 0.23,1.05 0.05,0.59 0.45,1.06 1.98,1.46 0.46,0.75 0.23,0.67 0.59,0.7 0.73,0.6 1.34,0.88 1.49,1.74 2.5,1.13 0.39,0.49 0.14,0.27 0.91,1.02 0.78,2.17 0.23,1.14 0.16,0.34 0.49,0.5 0.54,0.33 1.18,0.44 1.18,1.01 1.91,1.05 5.26,1.57 1.75,1.35 1.05,2.46 0.18,2.23 -0.17,2.61 -0.53,2.46 -0.93,1.81 -0.43,-0.25 -0.41,-0.11 h -0.96 l 0.75,1.41 6.39,7.02 0.66,1.16 0.49,0.6 1.63,1.4 0.94,0.58 0.86,0.24 0.5,0.29 2.24,1.85 4.05,2 2.35,0.8 2.25,0.47 h 2.38 l 0.63,0.11 0.96,0.51 0.59,0.1 1.1,-0.2 0.66,-0.55 1.32,-1.75 1.28,-1.17 1.95,-1.35 1.96,-0.46 1.3,1.49 1.55,-3.43 0.44,-0.53 0.46,0.59 -0.09,1.34 -0.55,2.43 0.94,-0.82 0.91,-1.09 0.71,-1.22 0.35,-1.23 -0.19,-1.34 -1.3,-2.07 -0.31,-1.18 -0.11,-0.54 -0.51,-1.2 -0.13,-0.64 0.05,-0.56 0.26,-1.02 0.05,-0.6 -0.49,-1.99 -1.07,-1.57 -1.28,-1.41 -1.16,-1.58 -1.13,-2.44 -0.82,-1.12 -1.09,-0.48 -1.01,-0.16 -0.8,-0.48 -0.66,-0.69 -0.59,-0.84 -0.65,-1.26 -0.46,-0.64 -0.53,-0.28 -0.52,-0.06 -0.54,-0.18 -0.41,-0.29 -0.54,-1.21 -1.27,-1.29 0.19,-0.59 -0.44,-0.39 -0.12,-0.25 0.07,-0.19 0.13,-0.23 v -0.4 l -0.81,0.66 -0.12,0.79 -0.28,0.6 -1.31,0.16 -1.16,-0.47 -0.55,-0.88 -0.39,-0.84 -0.62,-0.38 -0.46,0.57 -0.49,0.37 -0.69,0.15 -0.29,-0.15 -2.67,-2.77 -1.79,-3.62 -0.21,-0.59 -0.55,-2.75 -0.43,-0.72 -0.76,-0.88 -0.58,-0.99 -0.32,-0.29 -0.26,-0.05 -0.61,0.1 -0.24,-0.05 -0.42,-0.3 -0.21,-0.22 -0.16,-0.25 -2.61,-2.86 -0.92,-0.23 -0.89,-0.46 -0.84,-0.28 -0.81,0.25 -0.5,-0.87 -0.49,-1.91 -0.42,-0.88 0.29,-1.86 -0.09,-0.51 -0.19,-0.22 -0.4,-0.67 -0.21,-0.2 -0.41,-0.15 -0.26,-0.21 -0.84,-1.17 -1.12,-2.46 -1.35,-1.57 -0.25,-1.21 -0.29,-0.67 -0.18,-0.02 -1.06,-0.34 -0.23,-0.17 0.08,-0.35 0.32,-0.54 -0.04,-0.49 0.03,-0.4 -0.23,-0.23 h -0.82 l -0.41,0.29 -0.23,0.48 -0.26,0.28 -0.57,-0.33 v -0.36 l 0.37,-0.5 -0.55,-0.21 -3.54,-0.01 -0.76,-0.09 -0.6,-0.28 -0.55,0.44 -0.5,-0.06 -0.42,0.21 -0.3,0.5 -0.53,-0.96 -0.86,-0.87 -0.99,-0.51 -0.9,0.17 z m -6.2,-19.87 -0.14,-1.5 -0.62,-1.81 -1.16,-1.42 -1.72,-0.34 -1.52,1.09 -1.63,1.72 -1.23,1.96 -0.31,1.81 1.46,-1.18 0.76,0.23 0.26,1.1 0.03,2.88 -0.16,0.89 -0.36,0.4 -0.59,0.34 v 0.76 l 0.41,1.25 0.21,1.46 2.12,5.25 0.94,3.68 0.66,-0.54 0.31,-0.75 0.36,-0.65 0.8,-0.27 -0.32,1.12 1.2,-0.59 0.47,-1.45 0.13,-3.46 1.37,-4.92 0.07,-1.63 -0.3,-0.91 -0.47,-0.45 -0.53,-0.31 -0.5,-0.5 -0.34,-0.82 0.01,-0.81 z m 40.92,-17.27 0.16,-0.25 -0.29,0.05 -0.2,0.2 0.16,0.18 z m -67.39,-16.88 -0.51,0.21 -0.16,0.17 -0.06,0.38 0.15,-0.11 0.08,-0.1 0.06,-0.09 0.07,-0.07 0.95,0.61 1.22,1.06 0.83,1.29 -0.27,1.24 -0.69,0.84 -0.36,0.04 -0.59,-0.37 -0.34,-0.45 -0.44,-1.2 -0.31,-0.52 v 1.38 l 1.06,1.37 1.43,0.47 1.13,-1.38 0.02,-1.49 -0.64,-1.47 -1.14,-1.18 z m -1.8,-1.41 -0.14,-2.15 -0.23,-0.99 -0.34,-0.51 -0.54,0.43 0.2,0.95 0.45,1.17 0.24,1.1 z m 30.62,-52.74 -1.12,-2.57 -2.69,-4.43 -1.25,-2.5 -0.76,-1.88 -1.69,-0.81 -2.24,-0.28 3.18,1.84 1.72,2.94 1.96,2.81 1.1,2.82 1.47,3.06 z" />
  <path
     id="PG-GPK"
     title="Gulf"
     class="land"
     d="m 210.08,286.5 -0.68,-0.02 -0.65,-0.33 -0.89,-0.64 -0.68,-0.27 -0.61,-0.09 -0.74,0.11 -1.52,0.36 -0.14,0.01 -54.41,5.17 -36.22,0.07 0.18,10.7 49.68,50.79 v 0 l 0.74,-1.02 -0.85,-2.24 -2.53,-3.89 -1.35,-1.65 -0.58,-0.97 -0.24,-1.24 -0.05,-1.26 -0.18,-1.13 -0.35,-1.07 -4.29,-7.3 -0.9,-2.19 0.08,-0.33 0.18,-0.36 -0.09,-0.29 -1.23,-0.23 -1.16,-0.49 -0.52,-0.12 -0.5,-0.34 -1.69,-1.8 -0.54,-0.83 0.39,-0.73 0.21,0.55 0.12,0.18 0.49,0.5 1.81,1.41 0.8,0.31 h 0.6 l 1.25,0.16 0.52,0.19 0.51,0.3 0.19,0.23 0.38,0.93 1.91,3.54 0.26,1.06 0.54,0.96 1.24,1.05 3.85,2.26 9.92,3.42 0.9,0.71 0.53,0.27 0.62,-0.13 0.63,-0.25 0.58,-0.09 0.67,0.2 0.52,0.32 0.98,0.98 0.72,-0.37 2,-0.72 0.52,-0.41 -0.07,-0.65 -0.5,-0.74 -0.68,-0.59 -0.55,-0.24 0.66,-1.07 0.33,-1.2 -0.34,-0.88 -1.37,-0.08 v -0.4 l 0.68,-0.15 0.64,-0.26 0.51,-0.43 0.34,-0.62 0.82,0.85 1.18,2.45 0.87,0.41 0.52,-0.63 -0.35,-1.25 -0.6,-1.52 -0.25,-1.4 1.76,2.62 0.58,1.45 0.22,1.6 0.41,1.43 0.91,0.44 0.97,-0.45 0.56,-1.24 0.57,0.38 0.74,0.7 0.62,0.74 0.27,0.57 0.25,0.23 1.05,1.43 0.14,0.33 1.34,-0.23 -0.41,-1.27 -1.06,-1.39 -0.59,-0.58 -0.2,-0.84 -0.43,-0.73 -0.5,-0.61 -0.31,-0.54 -0.3,-1.4 -0.1,-1.73 -0.14,-0.81 -0.69,-1.46 -0.25,-0.82 -0.1,-2.02 -0.23,-0.93 h 0.33 l 0.43,0.67 0.6,1.71 0.45,0.93 0.24,0.2 0.36,0.2 0.33,0.21 0.15,0.28 0.03,0.34 0.19,0.93 0.14,0.39 0.51,0.58 1.37,1.11 0.28,0.69 0.23,0.17 0.49,-0.15 0.51,-0.39 0.25,-0.52 -1.19,-1.03 -0.29,-0.46 -0.03,-0.67 0.42,-1.71 -0.02,-3.78 0.3,-0.65 0.81,0.95 0.08,0.56 -0.13,1.31 0.21,0.5 0.31,0.37 0.17,0.39 0.07,0.48 0.01,0.59 0.21,0.75 0.49,0.98 0.58,0.9 0.49,0.52 1.02,0.26 1.34,-0.03 1.17,-0.38 0.5,-0.8 -0.19,-0.95 -0.34,-0.96 -0.18,-0.98 0.31,-0.99 1.34,1.12 0.58,0.64 0.51,1.19 1.91,1.44 1.14,1.36 0.73,0.63 0.85,0.27 0.93,-0.03 1.07,-0.16 0.64,-0.44 -0.31,-0.86 0.48,-1.14 0.22,-2.57 0.41,-1.02 0.63,0.89 0.17,1.19 -0.06,5.18 -0.42,0.99 -0.86,1.06 0.05,0.32 0.42,0.42 0.55,0.38 0.44,0.15 0.14,0.11 0.28,0.49 0.1,0.13 h 0.31 l 0.63,-0.26 0.34,-0.07 0.84,0.3 0.64,0.5 0.57,0.1 0.67,-0.9 1.59,1.82 0.57,0.37 h 3.28 l 0.49,-0.26 0.19,-0.28 0.02,-1.14 0.17,-0.47 0.38,0.14 0.38,0.49 0.18,0.59 0.5,0.98 1.18,0.71 1.34,0.36 0.98,-0.07 -0.05,-0.29 0.4,-0.79 0.49,-0.55 0.41,0.68 0.75,0.52 0.37,0.62 1.12,1.02 0.48,0.28 0.59,0.07 0.56,-0.13 0.51,-0.19 0.47,-0.11 2,0.24 1.5,0.79 3.06,2.93 0.81,0.43 0.98,0.23 1.25,0.08 3.58,-0.68 0.98,0.34 v -0.35 l 0.85,0.34 0.81,-0.09 0.79,-0.21 0.8,-0.04 0.7,0.3 0.99,0.95 0.67,0.2 3.22,0.03 0.95,-0.41 -0.77,-1.07 0.98,-0.45 0.89,0.15 0.77,0.02 0.64,-0.83 h 0.36 l -0.63,1.27 -0.09,0.37 0.13,0.21 0.28,0.19 0.24,0.2 0.07,0.32 -0.22,0.28 -0.71,0.1 -0.15,0.16 0.12,0.42 0.24,0.29 0.25,0.21 0.11,0.18 0.72,0.88 3.34,1.11 1.02,0.74 1.38,-0.44 1.72,0.09 3.03,0.74 2.79,1.46 1.57,0.59 1.09,-0.22 0.25,0.5 -0.1,0.4 -0.36,0.32 -0.55,0.24 0.68,0.59 0.6,0.87 0.16,0.87 -0.68,0.58 0.88,1.86 0.57,0.54 1.25,0.18 0.46,0.34 1.54,1.51 1.74,0.65 0.7,0.74 0.52,0.96 0.3,0.91 v 1.65 l 0.1,0.22 0.45,0.63 0.15,0.45 0.06,2.14 0.64,1.63 4.54,6.72 1.27,1.17 0.14,0.08 V 384 l 0.2,-31.67 0.76,-2.85 1.27,-1.1 2.23,-1.31 0.92,-0.77 2.37,-2.57 4.7,-3.12 -11.33,-7.7 -15.31,-4.23 -1.35,-0.58 -0.77,-0.77 -1.44,-2.14 -1.09,-2.16 -9.87,-10.89 -28.72,-19.24 -2.43,-1.48 -3.9,-0.28 -2.35,-0.84 -1.63,-0.83 -2.35,-0.73 -1.3,-0.14 -1.08,-0.39 -1.38,-0.16 -0.81,-0.17 -0.68,-0.53 -0.79,-0.83 -1.11,-0.95 -0.77,-0.14 -0.72,0.3 -0.65,0.44 -0.98,0.31 -0.91,-0.16 z" />
  <path
     id="PG-EHG"
     title="Eastern Highlands"
     class="land"
     d="m 245.25,244.48 -1.8,-0.33 -1.12,-0.41 -0.89,-0.86 -2.21,-3.48 -0.72,-0.48 -0.8,-0.07 -4.41,0.74 -1.35,-0.09 -3.92,0.21 -0.68,2.89 -0.18,7.17 0.24,1.06 0.37,0.74 1.87,1.51 0.52,0.3 1.09,0.39 0.46,0.24 0.48,0.59 0.29,0.95 0.7,4.48 -0.06,1.48 -0.16,0.84 -0.3,0.8 -0.45,0.68 -0.48,0.43 -1.14,0.73 -0.67,0.59 -1.5,2.01 -0.54,0.56 -0.62,0.29 -0.76,0.09 -2.51,-0.11 -0.82,-0.15 -0.75,-0.02 -0.62,0.17 -2.23,1.17 -0.49,0.44 -0.57,0.85 -0.01,0.85 0.38,2.03 0.38,0.44 0.43,0.26 0.69,0.13 0.78,0.25 0.79,0.34 1.2,0.71 6.72,6.3 0.34,0.2 5.1,0.37 0.33,0.15 0.33,0.33 1.05,1.38 0.29,0.57 -0.05,0.57 -2.05,7.14 28.72,19.24 2.28,-7.06 0.25,-0.48 0.33,-0.48 0.28,-0.6 1.4,-4.79 0.26,-0.67 0.44,-0.74 0.62,-0.74 2.17,-1.93 0.46,-0.52 0.44,-0.78 0.24,-0.95 -0.03,-1 -0.64,-1.86 -0.11,-1.07 -0.19,-0.85 -0.35,-0.74 -0.2,-0.65 0.05,-0.63 0.36,-0.52 1.21,-1.16 0.54,-0.77 0.38,-0.9 4.73,-22.64 v -1.2 l -0.3,-0.84 -0.51,-0.62 -6.89,-4.43 -0.78,-0.48 -0.04,-0.79 -0.2,-0.84 -0.33,0.18 -0.85,0.35 -0.33,0.2 -0.69,-0.9 -0.83,-0.73 -0.71,-0.78 -0.6,-1.9 -0.72,-0.65 -1.5,-0.88 -1.1,-0.98 h -0.77 l -0.18,-0.03 -6.89,-0.29 -0.48,-0.12 -0.44,-0.37 -0.76,-0.98 -0.55,-0.31 -1.08,-0.24 -1.03,-0.05 -1.27,0.19 -0.68,0.38 -0.48,0.5 -0.35,0.6 -0.47,0.61 -0.71,0.24 z" />
  <path
     id="PG-CPK"
     title="Chimbu"
     class="land"
     d="m 217.58,236.13 -4.96,-0.25 -2.88,-0.98 -0.68,-0.12 -0.45,0.17 -0.15,0.87 0.56,7.48 -0.16,0.47 -0.41,0.55 -0.86,0.55 -1.75,0.65 -0.63,0.31 -0.62,0.5 -0.11,0.13 -0.46,1.2 -0.36,1.57 0.05,0.95 0.28,0.75 1.33,1.43 0.24,0.52 -0.02,0.54 -0.22,0.82 -2.09,5.54 -0.52,0.83 -2.11,1.97 -0.64,0.72 -0.49,0.73 -0.39,0.74 -0.7,2.56 -0.43,0.31 -0.31,0.06 -2.7,-1.78 0.25,2.53 -0.12,0.55 -0.33,0.67 -0.57,0.36 -0.73,0.24 -1.6,0.33 -0.9,0.45 -0.43,0.49 -0.24,0.54 -0.32,1.84 0.01,0.21 0.2,0.44 0.31,0.58 0.01,0.53 -0.09,0.59 0.18,0.49 0.8,0.2 1.78,0.07 1.03,0.21 0.98,0.45 1.12,0.86 0.66,0.86 0.31,0.95 0.07,1.16 0.6,0.63 1.34,0.34 2.43,0.32 0.7,0.51 1.08,0.99 0.7,1.32 0.14,-0.01 1.52,-0.36 0.74,-0.11 0.61,0.09 0.68,0.27 0.89,0.64 0.65,0.33 0.68,0.02 1.3,-0.18 0.91,0.16 0.98,-0.31 0.65,-0.44 0.72,-0.3 0.77,0.14 1.11,0.95 0.79,0.83 0.68,0.53 0.81,0.17 1.38,0.16 1.08,0.39 1.3,0.14 2.35,0.73 1.63,0.83 2.35,0.84 3.9,0.28 2.43,1.48 2.05,-7.14 0.05,-0.57 -0.29,-0.57 -1.05,-1.38 -0.33,-0.33 -0.33,-0.15 -5.1,-0.37 -0.34,-0.2 -6.72,-6.3 -1.2,-0.71 -0.79,-0.34 -0.78,-0.25 -0.69,-0.13 -0.43,-0.26 -0.38,-0.44 -0.38,-2.03 0.01,-0.85 0.57,-0.85 0.49,-0.44 2.23,-1.17 0.62,-0.17 0.75,0.02 0.82,0.15 2.51,0.11 0.76,-0.09 0.62,-0.29 0.54,-0.56 1.5,-2.01 0.67,-0.59 1.14,-0.73 0.48,-0.43 0.45,-0.68 0.3,-0.8 0.16,-0.84 0.06,-1.48 -0.7,-4.48 -0.29,-0.95 -0.48,-0.59 -0.46,-0.24 -1.09,-0.39 -0.52,-0.3 -1.87,-1.51 -0.37,-0.74 -0.24,-1.06 0.18,-7.17 0.68,-2.89 -2.35,-2.47 -1.44,-1.27 -2.99,-0.87 -1.45,0.59 -0.9,0.25 z" />
  <path
     id="PG-SAN"
     title="Sandaun"
     class="land"
     d="m 14.38,66.65 -2.12,-0.69 -2.03,-0.24 -1.85,0.97 -1.09,-0.44 -0.68,0.03 0.01,1.63 -0.03,9.31 -0.04,10.32 -0.05,13.13 0.05,17.52 0.02,11.55 0.03,10.71 0.03,9.07 0.05,22.38 0.03,9.42 0.03,11.38 1.55,0.46 63.53,21.73 1.39,-1.18 2.11,-1.03 0.93,-0.7 0.44,-1.27 0.05,-0.3 0.77,-2.16 0.1,-0.67 0.09,-0.34 1.29,-2.47 0.36,-1.09 0.3,-1.73 -0.52,-1.43 -0.76,-1.52 -0.38,-2.22 -0.12,-5.17 -1.31,-15.38 -5.41,-3.15 -37.05,-0.27 -3.79,-0.41 -2.92,-0.93 -1.16,-2.21 -0.4,-2.5 -0.14,-8.84 0.36,-2.35 1.16,-1.53 18.55,-12.57 0.46,-0.13 0.8,-0.17 0.22,0.08 0.98,-0.24 0.09,1.1 0.74,0.4 0.96,0.29 0.74,0.74 -0.77,0.86 -0.25,0.55 0.3,0.4 1.44,-0.73 0.43,0.19 0.87,0.03 32.18,-0.52 2.91,-0.7 1.06,-1.96 0.32,-0.84 0.02,-0.82 0.98,-2.59 1.72,-1.03 1.56,-1.18 0.76,-2.01 0.24,-2.04 -0.1,-1.25 -0.14,-0.53 -0.43,-0.61 -0.21,-0.43 -0.41,-1.49 -0.39,-0.92 -0.12,-0.64 -0.09,-2.41 0.19,-2.15 -0.21,-3.92 0.09,-0.82 0.18,-0.51 0.89,-1.61 0.79,-1.79 0.59,-0.87 0.69,-0.53 1.44,-0.35 0.73,-0.29 1.38,-0.74 0.68,-0.19 h 0.65 l 0.69,0.2 0.78,0.39 1.58,1 9.68,3.91 1.47,0.35 0.82,0.1 0.78,-0.05 0.65,-0.55 0.57,-1.18 0.36,-6.98 v -0.2 0 l -1.75,0.16 -1.2,-0.03 -4.24,-1.09 -1.54,-0.9 -0.71,-0.1 -0.75,-0.02 -0.69,-0.1 -1.75,-0.93 -0.61,-0.15 -1.17,-0.13 -10.39,-3.17 -6,-1.85 -5.67,-2.73 -6.61,-1.94 -1.48,-0.71 -0.79,-0.26 -1.2,-0.1 -1.16,-0.39 -1.19,-0.75 -1.16,-0.55 -1.74,0.6 -0.49,-0.15 -1.35,-0.11 -0.36,-0.1 -0.13,-0.54 0.17,-0.62 0.24,-0.59 0.12,-0.45 -0.29,-0.51 -2.88,-2.57 -0.55,-0.23 -3.01,0.22 -1.98,0.38 -1.06,-0.18 -2.36,-1.62 -0.23,-0.53 -0.01,-0.52 -0.18,-0.4 -1.66,-0.3 -11.89,-5.61 -10.24,-4.26 -1.14,-0.15 -1.19,-0.47 -1.52,-1.61 -0.7,0.27 -0.28,-0.36 -0.55,-1.11 -0.24,-0.33 -0.6,-0.2 -1.35,-0.06 -0.61,-0.14 -0.36,-0.22 -0.34,-0.3 -0.45,-0.29 -0.65,-0.24 h -1.64 z m 90.2,-46.75 0.83,-0.55 0.75,-0.38 0.34,-0.11 -0.69,-0.56 -1,0.23 -0.79,0.79 -0.02,1.13 z" />
  <path
     id="PG-MPM"
     title="Madang"
     class="land"
     d="m 336.68,215.81 0.21,-0.77 -0.06,-1.03 0.15,-1.03 0.78,-0.82 v -0.33 l -0.78,-0.64 -0.57,-1.05 -0.34,-1.24 -0.12,-1.27 -0.03,-0.75 -0.17,-0.3 -1.24,-0.57 -0.73,-0.57 -1.82,-2.01 -1.13,0.05 -0.92,0.54 -0.8,0.69 -0.79,0.54 -1.99,0.55 -0.49,0.45 -0.41,1.21 -0.32,1.87 0.04,0.92 0.28,0.82 0.57,0.77 1.96,1.44 2.16,2.51 1.48,1.03 1.83,0.08 1.24,-0.85 0.57,-0.24 0.41,0.05 0.3,0.2 0.3,0.08 z m -50.7,-31.99 -0.28,-0.62 -0.79,-1.16 h -0.95 l -0.67,0.44 -0.38,0.72 -0.13,0.82 0.51,0.94 1.04,0.57 0.79,-0.05 -0.21,-0.9 0.27,-0.02 0.06,-0.05 -0.01,-0.12 0.07,-0.21 0.34,0.24 0.36,0.16 z m -15.78,-3.51 1.42,-0.55 1.95,-1.21 0.59,-0.49 0.26,-0.59 0.12,-1.18 0.18,-0.59 0.26,-0.41 0.02,-1.85 -0.12,-1.32 -0.28,-0.8 -1.96,-2.07 -0.75,-0.62 -1.13,-0.28 -1.03,0.53 -2.61,2.73 -0.56,0.93 -0.8,2.2 -0.23,1.05 -0.03,0.92 0.18,0.84 0.41,0.81 0.28,0.38 1.72,1.57 0.76,0.33 z m -45.86,-37.08 -0.93,-0.41 -0.51,-0.2 -0.39,0.17 -0.91,0.75 -0.12,-0.13 -0.39,-0.13 -0.42,0.13 -0.18,0.65 0.05,0.97 0.23,1.02 0.5,0.78 0.86,0.32 1.12,-0.03 0.77,-0.19 0.51,-0.44 0.32,-0.81 0.14,-1 -0.14,-0.83 z m -0.99,15.99 -1.42,-0.78 -1.94,-2.82 -0.77,-0.44 -0.18,-0.29 v -1.92 l -0.26,-0.34 -1.18,-0.74 -1.57,-1.54 -0.91,-0.48 -2.35,-0.43 -0.66,-0.56 -0.3,-0.7 0.02,-0.63 0.24,-0.29 0.67,-0.29 0.14,-0.35 -0.05,-0.32 -0.13,-0.17 -0.12,-0.09 -0.06,-0.17 -0.26,-0.29 -1.27,-0.79 -1.59,-0.44 -0.93,-0.65 -1.39,-1.22 -2.08,-0.77 -6.58,-1.03 -0.78,-0.31 -0.49,-0.26 v 0 l -0.05,0.11 -0.91,25.54 -6.23,10 -21.06,15.77 -1.89,0.54 -2.25,0.22 0.13,1.02 0.13,0.44 0.1,0.24 0.35,0.51 0.66,0.65 3.22,2.62 1.7,1.06 0.81,0.26 0.29,0.06 0.92,0.02 0.24,0.04 0.19,0.11 1.11,0.89 0.17,0.18 0.13,0.28 0.07,0.5 -0.01,0.34 0.05,0.35 0.16,0.35 0.43,0.48 0.29,0.94 0.13,0.99 0.09,0.27 0.19,0.24 0.27,0.2 0.52,0.16 0.87,0.43 1.51,1.32 1.81,0.61 0.31,-0.09 0.68,-0.39 0.62,-0.57 0.8,-0.54 0.73,-0.07 0.94,0.21 7.7,2.81 0.95,0.65 0.66,0.77 1.28,1.89 0.9,0.86 1.45,0.88 3.06,0.99 0.91,0.58 0.72,0.89 0.76,1.15 0.93,1.11 1.23,1.06 1.07,0.62 2.93,0.97 0.72,0.45 0.58,0.48 0.36,0.44 0.19,0.28 1.01,2.25 0.77,0.96 1.09,0.96 1.67,1.08 1,1.02 2.91,4.38 1.03,1.17 2.99,0.87 1.44,1.27 2.35,2.47 3.92,-0.21 1.35,0.09 4.41,-0.74 0.8,0.07 0.72,0.48 2.21,3.48 0.89,0.86 1.12,0.41 1.8,0.33 1.09,-0.03 0.71,-0.24 0.47,-0.61 0.35,-0.6 0.48,-0.5 0.68,-0.38 1.27,-0.19 1.03,0.05 1.08,0.24 0.55,0.31 0.76,0.98 0.44,0.37 0.48,0.12 6.89,0.29 0.18,0.03 h 0.77 l 1.1,0.98 1.5,0.88 32.35,0.13 16.31,-9.56 0.23,-0.13 v 0 l -0.27,-0.98 -0.44,-0.29 -1.21,-0.26 -1.8,-1.09 -3.51,-0.94 -6.64,-5.23 -0.63,-0.28 -1.27,-0.27 -0.33,-0.42 -0.21,-0.53 -0.26,-0.5 -0.99,-0.73 -0.98,-0.02 -1.03,0.21 -1.16,0.01 h 0.32 l -0.7,0.06 -0.57,-0.18 -0.46,-0.39 -0.36,-0.24 -0.98,-0.62 -0.4,-0.1 -0.63,-0.01 -0.7,0.09 -1.1,0.32 -0.55,-0.01 -0.46,-0.3 -0.51,-0.48 -0.5,-0.32 -0.95,0.27 -0.57,-0.18 -1.01,-0.48 -1.33,-0.08 -0.59,-0.19 -0.24,-0.64 -0.27,-0.44 -0.61,-0.13 -1.29,0.03 -0.92,-0.29 -1.79,-0.81 -0.57,0.02 -0.22,-0.24 -0.2,-0.15 -0.26,0.05 -0.4,0.34 -1.17,-0.67 -0.97,-0.26 -0.9,-0.33 -0.93,-0.95 -0.7,0.5 -0.8,0.07 -0.77,0.16 -0.64,0.75 -0.21,-0.16 -0.16,-0.08 -0.36,-0.12 -0.05,0.41 -0.23,0.66 -0.08,0.38 h -0.36 l -0.77,-1.68 -1.26,-0.33 -3.2,0.56 -1.5,-0.5 -1.11,-1.23 -0.59,-1.66 0.14,-1.71 0.94,-1.7 0.13,-0.66 -0.05,-0.59 -0.24,-0.81 -0.06,-0.43 0.27,-1.14 1.89,-2.67 0.34,-0.98 0.09,-0.98 -0.07,-2.25 0.05,-0.55 0.23,-1.17 0.12,-1.9 -0.04,-0.15 0.28,-0.59 0.39,-0.6 0.05,-0.45 -0.11,-0.45 -0.49,-0.73 -0.12,-0.3 -0.13,-1.08 -0.54,-2.18 -0.05,-1.25 0.3,-2.4 0.38,-1.13 0.6,-0.49 0.16,-0.44 -0.55,-0.98 -0.78,-1 -0.47,-0.5 -1.8,-0.52 -0.18,-0.23 -0.83,-0.56 -0.99,-0.4 -0.82,-0.72 -5.77,-6.47 -1.12,-2.49 -0.82,-0.92 -0.3,-0.01 -0.37,0.13 -0.44,0.01 -0.51,-0.32 -1.11,-1.5 -0.45,-0.83 -1.9,-2.21 -3.24,-2.71 -2.17,-2.71 -2.05,-0.83 -2.26,0.26 -2.26,0.54 -2.11,0.03 z" />
  <path
     id="PG-ESW"
     title="East Sepik"
     class="land"
     d="m 199.16,114.72 -0.06,-0.4 -0.45,-0.32 -0.52,-0.15 -0.38,0.32 -0.04,0.4 0.19,0.21 0.21,0.04 0.41,-0.01 0.31,0.09 z m -78.04,-8.53 -0.89,-0.37 -0.36,0.4 -0.86,-0.21 -0.91,0.08 v 0.2 l -0.36,6.98 -0.57,1.18 -0.65,0.55 -0.78,0.05 -0.82,-0.1 -1.47,-0.35 -9.68,-3.91 -1.58,-1 -0.78,-0.39 -0.69,-0.2 h -0.65 l -0.68,0.19 -1.38,0.74 -0.73,0.29 -1.44,0.35 -0.69,0.53 -0.59,0.87 -0.79,1.79 -0.89,1.61 -0.18,0.51 -0.09,0.82 0.21,3.92 -0.19,2.15 0.09,2.41 0.12,0.64 0.39,0.92 0.41,1.49 0.21,0.43 0.43,0.61 0.14,0.53 0.1,1.25 -0.24,2.04 -0.76,2.01 -1.56,1.18 -1.72,1.03 -0.98,2.59 -0.02,0.82 -0.32,0.84 -1.06,1.96 -2.91,0.7 -32.18,0.52 -0.87,-0.03 -0.43,-0.19 -1.44,0.73 -0.3,-0.4 0.25,-0.55 0.77,-0.86 -0.74,-0.74 -0.96,-0.29 -0.74,-0.4 -0.09,-1.1 -0.98,0.24 -0.22,-0.08 -0.8,0.17 -0.46,0.13 -18.55,12.57 -1.16,1.53 -0.36,2.35 0.14,8.84 0.4,2.5 1.16,2.21 2.92,0.93 3.79,0.41 37.05,0.27 5.41,3.15 1.31,15.38 7.7,0.27 3.15,0.61 5.61,0.21 2.24,-0.29 0.91,0.03 0.74,0.11 2.87,1.81 7.27,2.17 5.32,0.71 3.3,-0.11 6.24,-1.49 41.54,-3.35 2.25,-0.22 1.89,-0.54 21.06,-15.77 6.23,-10 0.91,-25.54 0.05,-0.11 -0.47,-0.26 -0.8,-0.61 -0.34,-0.58 v -4.52 l -0.23,-1.05 -0.45,-0.9 -0.6,-0.8 -0.72,-0.72 -0.78,-0.19 -2.73,-0.12 -0.69,0.13 -1.79,-0.54 -2.38,-0.31 -2.38,0.02 -1.78,0.47 0.14,0.54 -0.25,0.72 -0.46,0.72 -0.5,0.55 -0.2,0.31 v 0.22 l -0.13,0.14 -0.58,0.05 -0.42,-0.15 -0.26,-0.36 -0.4,-0.77 -0.77,-0.36 -1.31,0.71 -0.82,-0.35 -0.57,-0.42 -0.51,-0.25 -0.48,-0.32 -0.4,-0.62 0.62,0.06 0.59,-0.09 0.5,-0.26 0.44,-0.43 -1.33,-0.02 -0.6,0.1 -0.56,-0.08 -3.44,0.23 -1.75,-0.1 -1.36,-0.52 -2.57,-3.75 -1.24,-0.59 -0.78,-0.19 -2.18,-0.98 -0.66,-0.48 -1.96,-3.09 -0.82,-0.39 -1.01,-0.22 -1.88,-0.16 -0.72,-0.26 -0.54,-0.46 -0.49,-0.67 0.41,-0.65 -0.12,-0.33 -0.35,-0.12 -0.3,-0.02 -0.77,0.55 -0.47,0.22 -0.21,-0.21 -1.56,-0.5 -0.44,-0.22 -0.43,-0.28 -0.83,-0.34 -0.35,-0.27 -0.22,-0.36 -0.53,-1.48 -3.04,-3.04 -0.92,-0.62 -2.38,-0.81 -11.27,-1.99 -0.65,-0.04 -0.67,-0.17 -0.99,-0.75 -0.5,-0.16 z m 23.39,1.25 0.8,-0.58 -0.34,-1 -1.32,-0.98 -1.38,-0.71 -1.05,-0.14 -0.37,0.33 -0.06,0.59 -0.33,0.37 -0.07,0.48 0.84,0.71 0.58,0.26 0.33,0.09 1.49,0.59 z m 29.02,-7.86 -0.71,-0.78 -1.34,-1.42 -1.18,0.48 -0.63,0.94 1.03,1.26 1.8,0.47 z" />
  <path
     id="PG-EPW"
     title="Enga"
     class="land"
     d="m 179.48,207.24 -1.51,-1.32 -0.87,-0.43 -0.52,-0.16 -0.27,-0.2 -0.19,-0.24 -0.09,-0.27 -0.13,-0.99 -0.29,-0.94 -0.43,-0.48 -0.16,-0.35 -0.05,-0.35 0.01,-0.34 -0.07,-0.5 -0.13,-0.28 -0.17,-0.18 -1.11,-0.89 -0.19,-0.11 -0.24,-0.04 -0.92,-0.02 -0.29,-0.06 -0.81,-0.26 -1.7,-1.06 -3.22,-2.62 -0.66,-0.65 -0.35,-0.51 -0.1,-0.24 -0.13,-0.44 -0.13,-1.02 -41.54,3.35 -6.24,1.49 -3.3,0.11 -5.32,-0.71 -7.27,-2.17 1.35,25.76 5.57,7.18 15.17,5.48 3.53,1.78 5.43,4.91 4.8,3.42 2.68,1.22 1.51,0.28 2.32,-0.43 4.39,-1.24 2.72,-0.48 2.29,0.15 3.26,0.61 -0.2,-0.61 -0.32,-0.62 -1.15,-1.63 -0.17,-0.4 0.11,-0.39 0.59,-0.43 2.83,-1.39 7.44,-2.65 3.9,-2.29 1.68,-1.35 0.67,-0.99 0.52,-1.21 0.52,-2.33 0.11,-1.21 -0.05,-0.93 -0.36,-1.16 -3.28,-6.54 v -0.77 l 0.47,-0.66 5.5,-2.95 1.11,-0.27 0.99,-0.39 0.78,-0.77 0.58,-1.54 z" />
</svg>
