<?xml version="1.0" encoding="UTF-8" standalone="no"?>
<svg
   xmlns:mapsvg="http://mapsvg.com"
   xmlns:dc="http://purl.org/dc/elements/1.1/"
   xmlns:cc="http://creativecommons.org/ns#"
   xmlns:rdf="http://www.w3.org/1999/02/22-rdf-syntax-ns#"
   xmlns:svg="http://www.w3.org/2000/svg"
   xmlns="http://www.w3.org/2000/svg"
   version="1.1"
   id="svg2"
   height="1728.9454"
   width="1941.8741"
   mapsvg:geoViewBox="-18.161674 43.794381 4.332045 27.636889">
  <metadata
     id="metadata25">
    <rdf:RDF>
      <cc:Work
         rdf:about="">
        <dc:format>image/svg+xml</dc:format>
        <dc:type
           rdf:resource="http://purl.org/dc/dcmitype/StillImage" />
        <dc:title></dc:title>
      </cc:Work>
    </rdf:RDF>
  </metadata>
  <defs
     id="defs23" />
  <path
     id="ES-AN"
     title="Andalusia"
     d="m 1390.2765,792.73853 -0.032,2.03765 -3.9031,1.62374 -1.3962,3.21565 -5.4579,1.46455 -6.9493,-8.5963 -4.6964,-3.72506 -4.2203,-0.76411 -5.1723,3.31117 -4.2839,-2.86544 1.1107,1.14617 -1.3963,-1.01882 -7.1397,2.06948 -5.331,10.28373 -2.1577,2.32418 -4.5694,1.81478 -6.0609,0.19102 -3.7126,-2.57887 -3.0146,1.11433 -6.3781,-6.1766 -4.6012,1.52822 -23.7673,-1.75111 -7.2983,1.68743 -2.2847,2.57889 -4.7599,2.19683 -5.204,-0.3502 -3.9982,-3.02464 0.349,0.73229 -2.8559,0.38204 -3.9982,-3.15196 -4.7598,-0.28655 -1.7453,1.84661 -3.2684,-0.35022 -1.2058,1.46456 -1.7453,-1.97397 -1.5231,0.85963 -5.807,-2.6744 -10.535,3.02462 -9.6783,-2.38787 -3.1415,2.61074 -6.6954,0.98697 -12.5659,0.35023 -5.7753,-1.20984 -1.8404,1.68742 0.1268,-1.24169 -8.5042,12.7671 -1.9039,1.94214 -6.0925,2.19683 -2.8559,5.79453 -9.0119,2.45154 -9.4244,-2.32417 -5.1089,0.0636 -8.1234,5.03044 -6.4733,0.9233 -6.4099,3.78875 -1.9357,-0.0955 -3.6492,4.23448 -2.4433,7.13174 -5.8705,8.40529 -1.9673,7.99137 0.1243,3.6801 -0.1944,1.34268 -0.5897,-0.10258 -0.5483,-1.95293 -1.0132,-3.09456 -1.8404,-2.32419 -3.4271,0.35022 -1.4458,3.69322 0.7729,1.89868 0.2286,5.6788 -2.9193,2.19685 -1.8722,-0.4139 -10.4716,5.06226 -3.1415,-4.48918 -3.6809,-1.97396 -3.1414,0.66861 -4.8233,-2.96096 -1.6501,1.05065 -5.4579,-7.16359 -4.8867,-4.13895 -10.2812,0.25471 -5.9022,-11.01602 -3.3001,-1.2417 -3.2049,-7.5138 -3.1733,-2.89725 -6.2512,-13.84961 -2.4751,-0.50941 3.3002,-1.62374 -1.0155,1.05065 1.1107,0.31838 0.1904,-1.01883 -0.3808,1.33722 1.65,3.1838 0.4126,-1.24168 0.2538,0.79596 2.3482,-4.13896 0.7298,-2.92912 -0.7933,-1.46456 -3.1732,0.1592 -2.9193,-4.04346 -1.9357,0.57309 0.8885,-0.57309 -1.5866,-0.73227 0.2856,1.52822 -1.5866,-1.68742 -1.1741,1.14618 -3.1415,-2.03765 -4.2203,-11.20703 7.3618,-5.89006 -3.5223,-2.06947 -4.0934,-9.93352 -7.108,-8.50079 -20.21328,-13.46755 -8.82152,-4.07528 -5.99735,-4.74388 1.90392,3.05647 7.01278,5.76269 -9.58308,-8.30975 -2.06259,-0.25471 1.23755,1.33721 -1.07888,-0.0636 -8.53593,-3.91609 -23.38652,1.81479 -3.14148,2.51521 -3.07801,-1.20986 -0.95195,-5.28512 -1.58661,-2.13315 1.01543,-2.54706 -1.777,-3.97978 0.0952,-8.62813 -1.96739,-2.10134 1.5866,-1.01881 -2.09433,-5.50801 0.53946,-1.87845 -1.80873,-1.20985 -0.66638,-2.67441 -1.71352,-0.19101 -1.04717,-3.34302 1.33276,-0.63676 0.31731,-4.93493 4.31556,-4.74388 2.91936,-11.90746 2.3799,-0.73229 8.05994,-8.21424 1.68179,-6.11294 2.25298,-3.21564 -0.28559,-6.04926 4.91848,-2.22868 6.2512,-0.0319 0.34906,-2.83358 2.12604,-1.52824 3.49054,2.6744 4.6646,-0.41389 1.80874,-8.88284 2.9828,-5.47618 -1.20582,-0.66859 0.0952,-1.62376 2.91935,-3.66138 0,0 7.36183,3.31117 4.37903,-0.12728 -1.39621,7.25909 3.33187,-0.0636 0.0952,1.36903 1.99913,0.85964 2.28471,-0.98697 6.15601,1.11433 1.77701,-0.85963 2.1895,2.3242 0,0 1.36448,1.65557 0,0 0.38079,4.23449 2.09433,-0.63678 0,0 1.0154,0 0,0 6.156,2.38787 0.9837,-0.66861 -0.5077,-1.94212 2.3164,-1.84662 -0.7933,-1.01882 3.2685,-0.31838 3.9347,1.01883 0.8885,3.66137 2.3482,2.00581 0,0 0.4125,0.1592 0,0 1.9674,2.00581 4.4425,0.79595 1.1741,1.30535 3.2684,-0.31838 1.777,2.35603 5.6165,-4.80756 5.6484,-1.46456 8.4724,0.28654 1.5549,-5.66719 2.253,-2.29233 -1.8088,-2.3242 0.2539,-1.84662 3.9348,-2.96094 0.2538,-2.51522 2.253,-1.78294 4.4742,-0.31839 1.5549,-1.20983 2.1895,0.54124 2.4751,-1.78294 3.5857,1.68742 0.1269,2.32419 -0.825,-1.14617 -0.9837,0.54124 0.825,1.71926 -3.9348,2.51523 0.6029,4.4255 2.4434,0.73229 6.1243,-6.14479 4.5059,0.70045 0.603,-2.03765 3.2684,-1.40088 -0.476,-2.45153 1.1106,-2.10133 0,0 0.3173,-0.1592 0,0 0.1269,-6.36763 -4.1252,-7.2591 1.3962,-4.07529 -2.3481,-2.26052 0.095,-1.75109 3.2049,-5.28514 2.2847,-1.46456 3.0463,0 0.4125,-2.29233 5.8705,-3.97977 0,0 -0.3491,-0.8278 0,0 1.2376,-2.13316 1.4914,0.82779 -0.6981,-1.59191 1.9673,-3.27932 5.3945,0.54125 -0.2856,-1.62375 1.6501,-2.03765 3.078,-1.59189 2.7924,-3.50222 0.7933,0.82779 0.476,-2.0058 0.6981,1.20986 0.3173,-1.11434 1.0472,0.85963 -0.032,-1.68742 1.4914,-0.19103 0,0 0.1269,-0.25472 0,0 -1.4597,-4.2663 7.457,1.14618 4.4425,-2.45155 0,0 3.1415,1.36904 0.6663,2.48339 4.982,1.36904 5.9656,-0.2547 1.6183,7.80034 13.0102,4.48919 0.3808,2.13315 3.2366,0.54124 3.7444,2.8336 2.4751,4.04345 0.6981,-0.89147 1.6501,0.57309 0.6346,1.5919 1.5232,-0.57309 7.5839,8.94653 14.2477,6.36765 1.5549,-0.41391 -0.7933,-3.59772 1.1741,-2.19682 11.5504,2.29235 18.6268,1.20984 5.1088,-0.63676 2.1261,-2.0058 0.6029,-2.51521 2.126,-0.63677 0,0 1.5866,-0.5094 0,0 3.6175,1.24167 0.8567,-1.11434 9.9005,3.37485 2.3164,-1.20983 0.5077,-4.77573 1.2058,-0.22288 2.6972,0.98699 0.6664,3.56587 5.2041,1.20985 3.8078,-0.95515 4.1569,-3.75689 -0.1269,-2.16501 0,0 0.3491,-0.98698 0,0 4.1569,-1.33719 0,0 0.476,0.22286 0,0 3.8395,2.35601 12.0582,2.03765 6.1243,-4.23448 5.5214,7.60933 0.7298,-4.71205 2.3799,-2.00581 5.2676,0.0319 1.9991,1.81477 1.7135,-2.54704 1.9991,-1.08252 0.6664,0.82781 0,-1.08251 3.3636,-1.62374 0.3491,-1.36905 0.6346,0.54125 0.9202,-2.45153 8.1869,4.04343 5.68,-1.97397 0,0 0.7933,0 0,0 2.729,2.4834 -0.3491,8.40528 7.7427,1.97396 -0.1904,10.44291 3.7761,1.7511 0.5077,2.29235 -1.5866,5.34881 0.6346,3.43853 -9.234,11.23887 2.3799,1.40088 0,0 1.1106,0 0,0 7.9013,4.20264 7.0445,0.63675 0,0 3.5223,2.4834 3.9665,7.09989 6.9493,5.4125 4.1569,-1.30536 3.3953,2.99278 1.904,-1.11434 3.5222,1.62375 1.3962,-1.24168 1.5549,0.66859 0,0 0.5395,-0.0319 0,0 0.6346,0.82779 -1.8087,2.51522 -1.1741,7.29094 1.1741,5.25331 -1.4914,2.9291 0.9519,5.22147 0,0 0.5712,0.60491 0,0 12.9467,21.0132 3.1097,2.29234 -0.1269,-1.97397 6.5051,1.17802 9.3927,7.38646 0,0 -4.2521,2.22867 -2.7924,5.22145 -7.9013,8.59632 -4.2521,16.96973 -4.4425,8.62815 0.4125,4.36183 -0.9202,1.3372 -2.8876,0 -2.2847,4.01161 -1.9991,0.41389 -1.1107,1.4964 0.3491,4.4255 -3.3953,1.62376 -1.9674,2.99278 z" />
  <path
     id="ES-AR"
     title="Aragon"
     d="m 1408.7128,210.2911 0.8885,1.75109 5.9339,-0.0955 4.5377,4.4255 5.3944,-0.98699 8.3138,5.82639 0,0 2.0943,0.41389 0,0 1.6501,-0.50941 0,0 1.0154,-0.95515 0,0 7.9648,0.47759 2.4116,-2.86544 -0.2856,-1.56008 3.7761,-7.0044 2.9511,-2.96095 -0.5077,-3.5022 0,0 -0.8885,0.0955 0,0 -2.6655,-0.0636 -1.2375,-3.88426 -2.7925,-2.32418 0.603,-6.33579 -2.1578,-4.5847 2.2212,-6.27212 -0.6346,-2.10132 5.9973,-7.29094 -0.4442,-1.91029 -2.0943,-0.85963 1.5548,-5.34881 5.5849,-5.95373 -1.0472,-5.6672 2.0309,-3.94794 3.0463,1.68743 1.8087,-0.79596 0,0 0.4442,0 0,0 0.1269,-3.40668 3.7444,-2.51521 -1.777,-1.46456 1.9039,0.0637 0.3808,-4.32999 9.71,0.12736 0.032,-5.15778 1.2058,-1.11433 4.8868,-0.35023 3.9982,-4.71205 1.9357,0.0318 0.032,-2.03764 3.078,-0.2547 1.4596,-2.8336 -1.0471,-1.43272 0.349,-5.60352 3.1732,-2.51521 0.2539,-4.01161 2.9828,-2.26051 4.982,0.22287 0,0 -0.7299,2.70624 3.0463,2.06948 1.5866,-0.70044 1.777,2.8336 4.7281,3.43852 0.1268,2.96096 2.8559,-0.0318 0.095,2.89728 1.3328,0.5094 0.7298,-1.78293 1.3645,-0.0637 0.1904,-2.06949 1.9356,-1.94212 5.331,3.85242 2.729,-1.46456 2.2212,0.73228 3.1732,-4.23448 1.8722,0.35022 1.0789,-1.78293 4.7281,3.37484 1.301,-0.2547 0.4125,1.68741 4.3791,2.54706 2.3481,-1.30537 4.6964,9.10572 3.2049,0.35022 0.6029,2.64257 3.9983,1.17801 2.0626,-0.50941 0.5394,-1.40088 3.078,0.60493 2.3482,-2.165 3.1097,0.47758 4.1886,-1.46457 1.2376,-1.65557 7.2032,2.48337 0.349,2.64257 2.6338,2.32419 2.2847,-1.14618 0.3808,-2.51522 3.0145,-2.29235 5.3945,3.91611 4.8867,-1.0825 3.3001,0.98698 0.9203,-1.33721 5.1088,0.92331 0.8885,-1.24169 5.5214,1.68742 0,0 0.3491,0.8278 0,0 0.6981,0.44573 0,0 1.9356,2.61073 0.8568,4.26632 5.331,1.3372 -2.1895,7.80035 0.7933,1.20986 -1.3645,-0.60493 -1.1424,1.43271 -0.1268,1.65559 1.6818,0.89146 -2.1578,2.10133 -1.0789,-0.8278 -0.952,1.01882 4.6964,11.78013 -1.9674,2.19683 4.0617,1.65559 -2.5703,1.75109 2.0626,1.75111 -5.331,15.53701 -0.3808,1.91031 1.4597,1.01881 -1.8088,1.52823 0.7616,3.91611 -2.7607,8.24607 -1.2375,0.76411 0,4.80756 -1.0472,1.97397 -0.3808,-1.24168 -1.7135,0.57309 -1.1106,3.15197 -1.5549,-0.66859 -2.126,3.343 3.8395,2.10132 -0.9836,0.22288 -0.2856,3.62955 1.2692,1.62374 -2.2847,0.98698 -0.063,1.33721 -2.0943,-0.0955 -1.0472,3.6614 -2.5703,-0.0636 -2.6337,2.41969 -1.3328,4.10714 -5.9339,0.79595 -0.2856,2.96094 -0.9837,-0.9233 -5.0136,7.03624 -0.1269,2.16499 2.7607,3.34301 -0.6664,3.69323 4.506,0.76411 2.253,-1.05065 1.6818,6.81336 -4.3156,6.01741 -4.7915,0.66861 1.0788,3.85242 -2.9828,6.39946 4.5695,4.80757 -2.2213,2.83359 1.8087,1.36905 -0.349,1.65557 1.8722,2.99281 -0.6664,4.80754 -1.2376,-0.1592 -0.1586,1.4964 -3.6175,0.19103 -2.2847,7.54565 -3.554,0.85962 -0.5394,2.22868 -2.8559,-0.8278 -1.0789,1.27353 0.032,4.55287 1.6183,0.28654 0.952,3.08829 -1.0789,1.46456 1.1741,-0.57309 -0.032,1.43272 1.1741,-0.66861 2.8241,2.29235 -1.5548,0.60493 1.9039,3.85241 0,0 -0.1587,0.89148 0,0 1.0789,0.70045 -3.4588,5.79454 0,0 0.095,0.63676 0,0 -1.2376,3.40668 3.3002,7.09991 -3.7762,3.85243 -0.4442,2.22867 -4.5377,1.40087 -0.1587,1.52823 -1.2375,-0.98697 0.7933,1.81477 0,0 -1.9674,1.65558 -3.3636,-0.9233 -5.8387,4.04343 0,0 -1.0154,-0.35021 0,0 -1.0154,-3.21565 0,0 -0.032,-0.35023 0,0 -1.7136,-0.54124 0,0 -1.7135,0.0955 0,0 -3.4588,0.28653 -3.9031,-1.84661 -3.078,-2.73809 -0.063,-1.97397 -4.4742,0.1592 -2.9828,4.90307 -0.5078,5.63537 -6.1242,3.50218 -1.9357,-2.19682 -4.2204,1.59191 0.8251,5.95373 3.9348,1.17801 2.6654,-0.79595 -0.6029,10.85681 2.0626,1.78295 0.3808,2.54705 -5.331,2.16499 -1.1106,1.71926 5.1723,6.20844 0.476,2.51522 -5.0454,2.89728 -2.3482,3.91609 -1.9991,-0.0955 -0.9519,1.30536 1.4914,3.43853 -3.7444,2.29235 -5.7118,1.7511 -4.4107,-2.67442 -3.0146,12.89446 -2.6338,1.24169 -1.5866,2.61075 1.1424,3.69321 -1.3962,-0.41389 -4.3473,3.37484 -6.2512,-0.19102 -2.3165,5.85822 -4.6646,1.87844 -0.1586,6.01743 3.554,4.77573 -6.4417,3.82057 -3.6491,-2.76992 0.9519,-2.00581 -1.0789,-3.12014 0.7616,-2.41969 -1.3962,-2.83361 -1.0154,0.89147 -4.7916,-2.70624 -7.2031,0.25469 -1.7453,1.20987 -2.0626,-0.44574 -0.6981,1.17801 -1.4914,-1.05066 0,0 -1.9991,-4.61653 0,0 7.0445,-2.89728 1.0471,-1.49639 -0.5394,-2.19684 -6.0608,-4.90307 -8.409,-0.4139 0,-3.24748 -2.5703,-1.59193 -1.3962,-3.343 0,0 -0.5395,-1.36904 0,0 -0.095,-1.01882 -1.7135,1.46454 0.032,5.6672 -1.428,0.63677 0,0 -1.5549,1.36905 0,0 -1.9673,-0.95515 -1.5549,0.63676 0,0 -0.952,-0.57309 0,0 -4.0617,-0.57308 0,0 0.9202,-6.04926 -3.0462,1.30537 -3.0146,-2.03764 -2.7607,1.43271 -12.788,-13.59489 -2.5703,3.69323 -0.7615,-2.76991 0.7933,-1.81479 1.9356,-0.1592 -2.0943,-2.41971 0,0 -0.5077,-0.28654 0,0 -4.2204,-5.34882 -2.3164,-0.9233 0.095,-1.20985 0.6981,-1.01882 0.7616,0.70044 3.4588,-6.11292 4.4742,-2.51522 -0.7933,-5.34881 0.7616,-4.5847 1.6818,-1.78294 6.4733,3.34301 4.506,-3.88427 -1.5232,-2.00579 2.3799,-8.21425 -2.0943,-5.85822 1.7136,-2.38788 0.2221,-4.01159 -1.5232,-3.94794 -1.4279,-0.28654 -4.1252,-5.41249 1.0789,-5.47617 0,0 -0.7933,-1.84661 0,0 -2.7289,-2.41969 0,0 -0.9837,-1.56008 0,0 -12.2486,-12.73527 -4.4425,-1.49639 -4.0617,-3.88426 0,0 -1.0789,0.31839 0,0 -4.2203,-4.42552 -8.06,2.70625 0,0 -2.3482,-2.86543 -5.6165,-1.40088 -2.5069,-12.03483 1.7453,-4.99859 -0.5394,-2.35603 3.3318,-1.94212 2.0309,-8.56447 5.5848,2.06948 -0.6981,3.62955 1.2693,1.36904 7.7743,-2.64256 0.095,-1.56008 -1.4597,-0.41389 0.1587,-4.29815 -2.3799,-2.83361 1.2375,-6.84519 -2.4116,-3.97977 0.1587,-2.29235 5.9021,0.0955 2.3482,-4.04345 0,0 0.7616,-0.44573 0,0 1.1741,-0.0636 1.3645,-2.67441 4.379,-0.2547 -0.2856,-2.70624 3.1732,-4.36184 -2.8876,-1.40088 0.3808,-1.97395 -4.3473,-4.10714 2.9193,-4.36181 0.1269,-3.05647 -3.1732,-5.9219 -0.1587,-7.32278 0,0 z" />
  <path
     id="ES-AS"
     title="Asturias"
     d="m 1063.6584,16.110112 1.0472,2.005805 4.2838,1.400879 -0.7298,1.687423 1.8722,1.146174 0.9519,2.80176 6.7907,1.369041 -1.3327,1.178012 -0.6982,-0.764117 0.4126,2.005806 1.0789,-0.859632 -1.0155,1.687423 2.0309,0.254706 0.7298,-1.050661 1.4914,0.923309 2.4434,-1.878452 2.1895,1.209849 6.5051,-0.573086 1.9356,0.986984 7.584,-1.273528 1.6183,2.960951 1.3962,-1.082499 6.6955,0.509411 6.8541,7.322778 7.933,-1.241689 9.5197,3.12014 7.5522,-0.477571 4.4742,2.292347 3.0463,-0.382057 0.3173,1.496394 1.9039,-0.70044 10.0908,3.756904 6.6003,1.464556 9.2023,0.159184 0,0 0.095,1.560069 -2.3799,2.865435 1.8722,5.189621 -0.4443,4.043447 -2.2529,1.146174 -0.3808,-2.101318 -4.5694,-1.591908 -2.253,3.82058 -8.3138,1.241687 0.8568,2.674407 -1.5232,5.539842 -3.4905,-0.604927 -2.8241,1.209852 0,0 -0.4443,-0.222868 0,0 -1.9357,0.254706 0,0 -2.6337,-5.22146 -3.6492,-1.241689 -4.5694,3.088303 -2.7607,4.425506 -2.126,-1.305366 -4.6329,0.413896 -2.2847,9.296746 -3.3002,-0.127361 -0.6663,-1.337205 -5.1089,2.515217 0,0 -0.2539,0.573086 0,0 -9.9638,1.146173 -1.6501,-1.846612 -2.1578,-0.06368 -1.3327,0.986983 -0.6029,4.36183 -7.6475,-0.636764 -1.2058,3.979772 -12.2168,-1.560072 -4.7916,-2.738082 -3.2366,1.814776 -3.3954,6.558661 0.2539,1.910291 -3.6809,0.795955 -3.1415,0.09552 -1.7135,-2.069482 -2.4117,0.06368 0.2539,-1.591909 -2.2847,0.127361 -3.7444,-3.215654 -1.4914,-5.38065 -3.9982,1.178012 -5.2041,-2.387862 -1.4914,5.18962 -3.4271,1.40088 -3.427,-3.247492 -3.2684,0.06368 -1.1106,4.36183 -3.205,-0.827794 -1.7453,-2.260509 -0.9519,1.082497 -2.6972,-0.573086 -0.3491,-1.655585 -2.3482,-1.591907 -1.2375,2.101318 -2.0309,0.382058 0.3491,2.06948 -1.5866,0.35022 -1.0472,3.502199 -1.2058,-0.509411 -0.7616,1.337202 -2.2212,-1.178011 0,0 -0.5712,0.03184 0,0 0.4125,2.960949 3.3002,0.413897 -0.032,2.73808 -3.6492,0.76412 -1.1106,1.62375 -1.8722,-0.95516 -2.7924,1.75111 -5.9022,-1.40088 -6.60028,0.31838 -3.01454,0.63677 -3.23666,4.13896 -1.14236,-0.12736 0.15867,-1.91029 -4.41075,-1.84662 0,0 -1.45968,-1.46456 0.44426,-3.693221 -2.98282,-3.597714 -3.23667,-0.09552 -4.02997,-5.476164 -0.15867,4.712049 -1.30103,0.06368 -2.15777,-2.960949 1.36447,-2.451539 1.39621,0.764115 -0.0952,-3.12014 2.34816,-2.992787 2.12606,1.432718 1.71351,-2.005805 1.96739,0 3.554,-3.693228 0.60291,-2.451539 -2.88762,-3.374846 -2.50683,0.604926 0.15867,1.114336 -4.66461,2.929111 -1.58659,-0.254705 -2.03086,-3.629552 1.33274,-2.674406 -0.47597,-1.846614 -2.60204,-0.509411 -0.79329,-1.814775 -0.95197,1.050661 -3.52225,-3.565875 -0.82504,-2.833597 0.85677,-4.266314 -3.42707,0.191028 -2.60203,-3.215654 0.1904,-4.871241 -0.76158,-1.623746 -1.87218,1.05066 -1.55487,-0.955145 0.38078,-2.164996 0,0 -0.12687,-0.413895 0,0 0.0318,-2.992789 5.99735,0.318382 1.20582,-3.343008 2.95108,-2.06948 0,0 1.96738,-3.024626 -0.88848,-1.178014 0.98369,-2.578891 2.22124,0.191031 -2.15778,-1.751101 0.19039,-1.782936 4.66461,0.413895 1.90393,-1.751099 0.50771,0.668602 0.15867,-1.464556 4.72808,0.636764 1.11062,1.36904 2.12606,-1.560069 3.71264,1.942127 5.61657,-1.400879 1.84047,2.133156 1.20582,-1.719259 3.04628,0.413896 4.1569,-1.464556 0.69809,1.20985 1.30103,-0.445734 0.3173,1.337202 4.8867,-0.09552 0.7616,1.209848 5.2358,-0.382057 0.2538,-2.578892 3.6492,2.133158 2.8559,-0.85963 3.554,1.082497 8.5359,-3.215655 1.0154,-2.005805 1.9992,1.846614 1.0154,-0.795954 0.5077,1.496393 1.2693,-0.764114 -0.032,1.782936 2.3799,-0.541249 3.903,1.687423 8.3455,-3.947932 2.0309,1.846613 3.3001,-0.795955 1.6184,-1.782937 -0.8251,-0.445733 2.7924,-1.082499 0,-2.069481 2.9511,-0.06368 1.904,-1.496393 0.095,-2.26051 1.3645,-0.127352 z" />
  <path
     id="ES-CB"
     title="Cantabria"
     d="m 1284.6087,70.521541 -1.9039,-6.43131 3.4588,-1.623746 1.4914,0.827791 -1.7135,3.343008 0.095,3.343008 0,0 -1.4279,0.541249 z m -26.0837,-37.282495 0.063,1.337204 3.1098,-0.859632 0.9836,1.973967 1.904,-0.350219 1.2375,2.515215 6.0926,1.114336 0.6029,2.483378 -2.5386,0.541247 2.3799,3.247494 1.5232,-0.986983 3.8713,0.955145 3.6809,-0.891468 -0.1587,2.292347 1.8722,-1.114335 6.4734,1.528231 2.951,3.916096 3.4588,1.273525 0,0 -0.349,6.176605 -2.8877,0.382058 -1.5866,1.751099 -1.3327,-2.960949 -4.6329,2.228671 -1.3645,-1.241689 -2.3799,0.923308 -0.7933,-0.955144 -0.6346,2.674404 -3.7761,0.923307 -1.3328,2.833597 -4.4107,1.20985 0.6981,2.260511 0,0 0.5712,0.891468 0,0 1.4596,8.914687 0,0 -6.3781,0.03184 -7.0445,-2.260509 -2.602,0.286542 -0.7299,-2.164994 -3.3001,-1.40088 -2.8876,4.425505 0,0 -0.063,0.54125 0,0 -1.8087,2.674405 -4.1886,1.814776 -1.0472,2.387862 -5.68,0 -2.253,-1.114335 0.5077,5.794546 -3.6492,-0.03184 -2.2847,3.120141 -3.0463,1.623746 -3.1414,8.055058 1.4279,2.64257 3.7127,-0.4139 -0.2222,1.81477 5.6484,-6.558657 3.1731,3.151977 -3.078,3.47036 -3.8395,-1.52823 1.4596,2.67441 -2.6337,-0.0318 2.2212,0.95515 -1.301,1.7511 0,0 -0.1269,0.6686 0,0 3.4906,1.05066 0.7298,-4.29816 2.3799,1.14619 1.8405,5.22145 -0.5078,4.07529 -3.5539,1.46455 -2.6021,-2.10131 -1.5231,4.29814 -1.7453,-0.6686 -4.0617,1.78294 -0.3808,-1.20985 -1.4596,0 -0.5077,-7.32278 -1.3328,1.40088 0.4443,1.43272 -1.4597,0.73227 0.4125,1.33721 -1.777,0.89147 0.2539,1.87845 -3.0463,0.50941 -1.5232,-3.47036 -4.3155,0.22287 -2.8876,-2.4197 -0.1269,-1.3372 2.126,-1.94214 1.9357,0.60493 0.8885,-2.86543 -1.9357,-1.62375 -4.3155,3.12014 -2.1261,-1.43272 0.2221,-6.30395 -1.2692,-0.70044 -0.1904,-4.743891 -9.361,-2.069481 -4.6329,-7.227265 -5.3944,-3.215653 -1.301,2.610729 -3.6809,-0.827793 -3.2684,3.215656 -4.0617,-1.942128 -2.7925,2.228672 -3.8396,-1.082499 -4.5694,0.636763 -0.4442,-4.075285 -1.9991,-0.06368 -0.032,-2.26051 -5.6801,-3.183816 -1.6183,-2.801758 1.3962,-3.756905 -1.4597,-1.942127 1.0789,-0.986984 0,0 1.9357,-0.254706 0,0 0.4442,0.222868 0,0 2.8242,-1.209851 3.4905,0.604926 1.5232,-5.539842 -0.8568,-2.674407 8.3138,-1.241687 2.253,-3.82058 4.5694,1.591908 0.3808,2.101319 2.2529,-1.146175 0.4443,-4.043447 -1.8722,-5.18962 2.3799,-2.865436 -0.095,-1.560069 0,0 3.5539,0.541249 4.506,-1.114337 3.1097,0.89147 3.9348,-1.7511 1.3962,1.91029 3.681,0.127361 9.0753,-1.56007 5.4262,-2.101319 2.602,-2.324185 2.3482,0.573086 0.6664,-1.40088 1.0789,1.369041 1.2058,-1.878452 4.6963,1.273527 -1.1423,-0.413895 2.951,-3.5022 9.2341,-0.986982 2.2847,-1.91029 2.3482,0.382057 -0.1904,1.655585 1.9991,1.241689 -3.3636,0.764116 -2.8559,2.26051 -0.032,1.273527 2.0626,0.732278 -0.3491,2.706243 0.7933,-1.719262 0.3808,0.859632 1.9991,-1.273527 -1.1106,-1.305364 1.1741,-0.12736 0.4443,-1.878452 2.3164,-0.222868 -2.1261,-1.114335 3.205,0.127361 1.0789,-1.751099 2.9193,-0.19103 3.6809,-2.76992 2.6973,0.191028 2.3164,-1.910289 z m -45.2182,81.505704 0.1269,-0.15918 0,0 0.063,0 0,0 1.1424,0.57309 0,0 0.349,2.48338 -1.0789,0.76412 -0.8567,-2.61074 0,0 0.2538,-1.05066 z m -4.9185,0.38207 0.476,0.5094 0,0 -0.095,0.54125 0,0 -0.952,0.38206 0,0 -0.6029,-0.82779 0,0 -0.1269,-0.31838 0,0 0.063,-0.28654 0,0 0.3173,-0.12737 0,0 0.9202,0.12737 z" />
  <path
     id="ES-CL"
     title="Castile and Leon"
     d="m 1314.3734,140.21528 1.0472,1.30537 -1.6184,-0.63676 0,0 0.5712,-0.66861 z m -4.4742,0.44574 -0.6029,0.31838 0,0 0.095,-0.54124 0,0 0.2221,-0.35022 0,0 -0.063,-0.4139 0,0 -0.032,-0.12736 0,0 0.8568,-0.0955 0,0 -0.063,0.63676 0,0 -0.4125,0.57309 z m 14.1525,-21.07687 0.2538,-0.15918 0,0 7.933,-0.92331 7.584,3.34302 3.4905,-0.60493 1.2058,2.32419 2.6338,-1.43272 -1.3327,4.55286 -1.2693,1.49639 -0.952,-0.44573 -0.7615,2.19683 2.7606,3.31117 4.6964,-1.81478 0.476,4.42551 -2.6655,0.85963 -0.5395,-1.24169 -7.0127,0.22287 -1.9992,-2.89728 -3.903,-0.19103 -1.2058,1.40088 -4.2521,-0.47757 -1.5232,-3.7569 -3.3953,-1.20985 -3.8713,-3.62955 2.602,-4.90308 0,0 0.5077,-1.4964 0,0 0.3173,0.54125 0,0 0.2222,0.50941 z m -116.3297,-4.48918 0.6663,0.0637 0,0 0.2856,0.12737 0,0 0,0 0,0 0.1904,0.35021 0,0 -0.095,0.54126 0,0 -0.952,0.38205 0,0 -0.6029,-0.82779 0,0 -0.1269,-0.31838 0,0 0.063,-0.28654 0,0 0.3173,-0.12737 0,0 0.2539,0.0955 z m 6.4098,-0.19103 0.5395,0.25471 0,0 0.349,2.48338 -1.0789,0.76412 -0.8567,-2.61074 0,0 0.3808,-1.20985 0,0 0.063,0 0,0 0.6029,0.31838 z m -235.19793,-10.76129 4.41075,1.84661 -0.15867,1.91029 1.14235,0.12736 3.23668,-4.13896 3.01454,-0.63676 6.60026,-0.31838 5.90212,1.40087 2.7925,-1.75109 1.8722,0.95514 1.1106,-1.62375 3.6492,-0.76412 0.032,-2.738076 -3.3002,-0.413895 -0.4125,-2.960951 0,0 0.5712,-0.03184 0,0 2.2212,1.178012 0.7616,-1.337203 1.2058,0.509411 1.0472,-3.502197 1.5866,-0.350222 -0.3491,-2.06948 2.0309,-0.382058 1.2375,-2.10132 2.3482,1.59191 0.3491,1.655585 2.6972,0.573086 0.9519,-1.082497 1.7453,2.260509 3.205,0.827793 1.1106,-4.36183 3.2684,-0.06368 3.427,3.247495 3.4271,-1.400879 1.4914,-5.189622 5.2041,2.387861 3.9982,-1.178013 1.4914,5.380653 3.7444,3.215654 2.2847,-0.12736 -0.2539,1.591907 2.4117,-0.06368 1.7135,2.06948 3.1415,-0.09552 3.6809,-0.795955 -0.2539,-1.91029 3.3954,-6.558662 3.2366,-1.814774 4.7916,2.73808 12.2168,1.56007 1.2058,-3.97977 7.6475,0.636764 0.6029,-4.36183 1.3327,-0.986983 2.1578,0.06368 1.6501,1.846614 9.9638,-1.146174 0,0 0.2539,-0.573087 0,0 5.1088,-2.515215 0.6664,1.337202 3.3002,0.12736 2.2847,-9.296745 4.6328,-0.413896 2.1261,1.305364 2.7607,-4.425505 4.5694,-3.088302 3.6492,1.24169 2.6337,5.221459 0,0 -1.0788,0.986983 1.4596,1.942127 -1.3962,3.756905 1.6184,2.801759 5.68,3.183815 0.032,2.260511 1.9991,0.06368 0.4443,4.075285 4.5694,-0.636762 3.8396,1.082497 2.7924,-2.228671 4.0617,1.942129 3.2684,-3.215657 3.6809,0.827793 1.301,-2.610729 5.3945,3.215654 4.6328,7.227265 9.361,2.069481 0.1904,4.743887 1.2693,0.70044 -0.2222,6.30395 2.1261,1.43273 4.3156,-3.12015 1.9356,1.62375 -0.8885,2.86543 -1.9356,-0.60491 -2.1261,1.94212 0.1269,1.33721 2.8876,2.41969 4.3156,-0.22286 1.5231,3.47035 3.0463,-0.5094 -0.2539,-1.87846 1.777,-0.89147 -0.4125,-1.33719 1.4597,-0.73228 -0.4443,-1.43272 1.3328,-1.40088 0.5077,7.32278 1.4597,0 0.3807,1.20985 4.0617,-1.78294 1.7453,0.6686 1.5231,-4.29815 2.6021,2.10131 3.554,-1.46455 0.5394,-4.10713 -1.8404,-5.22146 -2.38,-1.14617 -0.7298,4.29816 -3.4905,-1.05066 0,0 0.1269,-0.6686 0,0 1.301,-1.75111 -2.2213,-0.95514 2.6338,0.0318 -1.4597,-2.6744 3.8396,1.52822 3.078,-3.47035 -3.1732,-3.151982 -5.6483,6.558662 0.2221,-1.81478 -3.7126,0.4139 -1.428,-2.64257 3.1415,-8.055053 3.0463,-1.623746 2.0943,-3.120141 3.6492,0.03184 -0.5077,-5.794546 2.2529,1.114335 5.6801,0 1.0471,-2.387863 4.1887,-1.814775 1.8087,-2.674407 0,0 0.063,-0.541247 0,0 2.8876,-4.425507 3.3002,1.400881 0.7298,2.164994 2.602,-0.286542 7.0446,2.260509 6.3781,-0.03184 0,0 14.1525,-7.609322 2.6972,3.12014 4.6964,-0.700439 2.0625,1.337202 -3.3635,5.794548 2.4751,1.687423 0.9202,-0.636763 0.6346,1.464554 -1.9674,2.738084 1.428,0.827791 -0.063,4.457344 -3.0145,0.923306 2.6972,1.7511 7.2032,0.477573 2.126,2.547052 -0.4125,1.273527 5.331,3.756898 -3.3953,3.53404 -6.2512,1.05067 -4.8868,-2.19684 0.1904,-1.91029 -6.8224,-1.814776 -5.2357,7.991376 6.0925,6.52683 0.825,-0.15918 -1.3327,-1.30538 2.602,-3.56586 2.9511,1.46455 3.3319,-4.13896 0.8885,2.45154 -4.3156,7.95954 2.9194,1.81477 -1.9992,3.72507 8.4725,-0.92331 0.5712,3.05647 2.1895,-0.15918 0,0 0,0.41389 0,0 3.1415,3.9161 4.3155,-0.44574 2.4117,1.65558 0.4442,2.76992 0,0 -0.2221,0.22288 0,0 0.9202,2.22866 2.6655,1.20986 0,0 -2.1578,2.03764 -1.1741,-0.79595 -1.2058,0.95514 -2.9511,-2.29235 -3.1732,0.4139 -1.9356,-1.11434 -1.1741,1.46456 -5.6483,-1.01882 1.9991,6.08109 0,0 -1.301,0.31838 0,0 -2.4751,3.78874 -2.5386,1.36904 0.8251,1.05066 3.0145,-0.60493 1.3962,1.11434 -0.3491,3.02463 -1.65,1.78293 4.2203,4.90308 -1.4279,2.51522 0.5712,6.33579 -2.1895,-3.02463 0.349,-2.29234 -1.9356,-0.0637 -0.3491,3.56587 1.777,0.0318 1.8405,2.89728 -3.9983,1.05066 0.6981,2.70624 0,0 0.5078,0.38206 0,0 -0.9837,1.43272 1.4914,7.86403 -1.2376,3.78872 -2.1578,1.84663 8.2504,12.89445 8.3138,-0.25469 1.8722,5.66717 0,0 0,0.92332 0,0 2.7607,2.67441 2.6337,-2.48339 3.8079,-0.76411 1.3327,-7.54565 0,0 0.2221,-0.79595 0,0 1.5232,-1.78294 1.9039,0.73229 1.3962,-0.82779 2.4434,2.48338 -0.2222,2.32416 -4.0617,5.95374 0.952,2.70626 3.5857,-0.70045 2.6021,2.10133 4.2203,-1.11433 3.7444,1.24168 2.8241,-6.55866 2.8242,-2.03764 0.1587,-5.18963 2.4116,0.82779 2.4116,-0.98698 1.4597,-2.4197 10.3764,-0.95515 3.3319,1.59191 1.2058,4.93493 2.8559,-1.62377 9.2657,0.50943 -0.095,2.19683 -2.7607,1.5919 4.5694,7.09992 -1.1424,0.98697 0.7299,3.94794 8.4724,2.06949 0,0 0.5078,0.50941 0,0 2.3481,2.29235 1.5866,-0.0955 9.2341,-5.53984 0,0 0.1268,7.29094 3.205,5.9219 -0.1587,3.0883 -2.8876,4.32998 4.3155,4.10714 -0.3807,1.97397 2.8876,1.40088 -3.1732,4.36182 0.2856,2.70626 -4.3473,0.2547 -1.3645,2.70624 -1.1741,0.0636 0,0 -0.7298,0.44572 0,0 -2.3482,4.04346 -5.9339,-0.0955 -0.1587,2.29235 2.3799,3.97978 -1.2058,6.84519 2.3799,2.86544 -0.1587,4.29816 1.4597,0.41389 -0.095,1.59191 -7.7744,2.61072 -1.2693,-1.36904 0.6982,-3.62955 -5.6166,-2.06946 -2.0309,8.56445 -3.3318,1.97397 0.5711,2.32419 -1.7452,4.99859 2.5068,12.06666 5.6166,1.40088 2.3482,2.86544 0,0 -0.952,3.82058 1.3962,4.07529 -0.7933,1.05067 -6.6003,-5.73089 -3.6809,3.88426 -4.5059,-1.56007 -2.6338,3.2475 -2.5703,-0.38204 -2.6655,1.59188 -2.8876,-3.31116 -5.331,3.21564 -1.1423,-1.68741 -3.2367,-0.57308 -1.2058,-4.26632 -2.3165,-0.50941 -0.6981,-3.2475 -1.7452,-1.46456 -3.2367,2.57889 -1.8087,-1.20985 1.3327,-3.27933 -3.6492,-0.73227 2.4434,-1.56008 0.3173,-2.89727 -3.427,0.98698 -1.428,-2.70624 -5.3944,-1.30537 -0.7616,-2.51522 -3.7761,0.0955 -1.3962,2.16498 -3.554,-0.35019 -4.0617,-1.94216 -0.3491,-4.96674 -3.2684,-1.20985 -2.8876,1.4964 -0.9202,2.45153 -5.8705,0.41391 -3.7126,1.71926 -10.8206,-3.40669 -4.03,1.24169 -1.8405,4.1708 -1.5548,-2.0058 -1.5549,2.06946 -2.8241,-0.38204 -1.0472,1.05065 -5.0137,-0.54124 -1.6818,-1.71926 1.3328,3.21566 -0.3808,3.66139 -3.4588,-0.19105 -1.8722,3.5659 -3.4905,1.52821 0,0 -0.7933,0.73229 0,0 -0.1904,0.1592 0,0 -0.9837,-0.31838 0,0 -0.9837,0 0,0 0,0 0,0 -4.3156,0.57309 -3.6492,2.61073 -3.903,6.01743 -5.4262,3.34298 -3.4905,5.98559 -9.71,3.91609 -2.5068,4.39365 -1.3963,0.28655 -3.5539,15.9191 -4.2521,0.66859 -3.6492,-1.3372 -2.3165,5.06227 -5.5213,6.81337 0,0 -1.9992,-0.98699 0,0 -1.301,0.35023 0,0 -4.5694,0.73227 -1.9039,1.46456 0,0 0,0 0,0 -1.3328,-0.47757 -2.4751,1.62374 -0.1586,1.91028 0,0 -1.2058,1.20987 3.7443,1.01881 0,0 1.0472,2.80176 -0.952,4.36184 -2.7606,1.59189 -0.5078,1.71927 1.0155,7.86403 -2.1578,3.27932 1.6183,2.96096 -8.6311,0.47757 -1.777,2.32419 0.3173,4.1708 -1.9039,1.05065 0.5395,2.41972 -3.9983,0.70043 -2.1578,-3.27933 -1.7135,0.28655 1.5231,5.53983 -3.427,3.91609 0.7615,3.9161 -1.65,0.85963 0,0 -5.4897,2.13315 -3.3318,-1.14617 -0.5712,-4.74389 -1.3645,-1.24168 0.5077,-2.4197 -3.5222,0.98698 0,0 -1.777,1.24168 0,0 -3.8396,-1.5919 -1.1741,2.45153 0.8568,2.26051 -5.6801,3.97978 0,0 -0.2538,0.57309 0,0 -4.0617,2.80175 -0.476,3.9161 -5.9656,2.67441 0,0 -0.8251,0.22286 0,0 -0.9837,-5.53983 -4.252,0.9233 -1.8088,2.96095 -0.9202,-0.35022 -3.554,3.97977 -2.5386,0.66859 -2.6972,0.38207 -0.8568,-2.6744 -4.3473,-0.38206 0,0 -0.5711,-0.1273 0,0 -3.3002,0.35023 0,0 -1.9039,-0.57309 0,0 -0.6029,-0.2547 0,0 -2.7924,-5.4125 -0.1587,-6.08108 2.3165,-5.22145 -7.3301,1.14617 -3.7127,4.87123 -2.2212,1.08249 -4.5695,0 0,0 -0.6981,-0.22286 0,0 -1.0471,-0.66859 0,0 -1.301,-0.66861 0,0 -2.5069,-0.54125 -0.6346,-3.18382 -2.4751,-0.47756 -0.6664,-2.26052 -2.8559,-2.45153 -4.0299,-0.22286 -2.3165,1.52822 -2.3482,-0.6686 -0.9202,-1.20985 1.5549,-2.86544 -2.1895,-4.23447 -7.2667,4.48918 -2.1895,4.64838 -4.9502,-1.59192 0,0 -0.8885,-0.60493 0,0 -2.3481,-1.68742 0,0 -0.4126,-0.57309 0,0 0.1904,-2.35601 -7.5522,-1.87846 1.9039,-0.9233 -0.3173,-1.52825 1.1106,-0.89147 -0.9837,-0.47756 1.5549,-0.57309 -1.6818,-1.17801 0,0 -0.4125,-0.15921 0,0 -3.2367,-1.52823 1.0472,-2.26051 -2.4751,0.66861 -1.1424,-2.51522 -6.2829,-3.31116 -10.1543,5.92189 0,0 -1.2058,1.24168 0,0 -0.5712,2.26052 -4.2203,0.44574 -1.9674,3.12012 -2.0943,-0.12729 -7.0446,3.56587 -1.4596,2.45155 0.5077,3.31117 -2.60204,2.32417 -6.63201,0.66861 -2.34817,2.4197 -2.25297,-3.05647 -3.33187,3.34301 -2.44338,-1.0825 0,0 -1.52313,0 0,0 -0.31732,0.82779 -2.41163,-0.57309 -2.76069,-2.35601 0,0 0.34904,-3.5022 5.99737,-3.69323 0.92023,-3.85242 -4.72809,-5.09411 -0.98368,-4.48918 4.41075,-7.13174 -0.44424,-4.36184 -3.58572,-2.10131 4.15689,-10.37923 -3.04627,-10.53845 1.23754,-6.0174 -0.85677,-4.23449 2.18951,-0.4139 0,-1.65558 -0.6981,-2.54705 -3.33186,-2.165 -0.95197,-5.53983 -5.39443,-5.95375 -0.92024,-2.96095 1.42794,-1.05066 4.72808,1.30538 4.44248,-1.11434 4.50596,-7.38646 -1.17409,-3.59771 6.06082,-5.6672 0.66638,-3.12014 3.64918,-4.33 4.22037,0.35023 0.82503,-1.24168 1.4597,1.84661 4.4742,-4.20264 0.8885,1.2417 1.6183,-0.41391 1.2058,-0.95515 -0.7933,-1.65558 3.554,-1.05066 2.729,-5.47616 3.2684,-1.30538 -1.3645,-1.14617 0.2539,-1.78292 1.8722,-0.987 1.4279,1.68743 2.9828,-0.95514 -1.3645,-2.73809 3.1732,-2.64256 -0.7933,-1.91029 9.8687,-14.29533 -1.1741,-2.64258 -2.5068,-1.05065 -5.3945,-6.11295 -12.6928,-2.96093 -1.2058,1.87844 -3.6174,1.27353 -4.2839,-3.37484 0.1269,-4.42551 -1.6818,-2.38787 4.5377,-14.39085 -4.7599,-1.71925 2.1578,-5.53985 -3.58568,-3.94793 -2.7607,2.99279 -6.79065,0.85964 -4.47422,-1.05067 -2.03085,-4.93491 -2.37992,-0.66861 -2.60201,5.44433 -9.83694,-0.0955 -1.23756,-2.67441 -2.06257,-0.63676 0,0 -0.476,-2.48337 2.31645,-3.72507 -1.17409,-3.21565 -2.91934,0.28655 -2.06259,-2.76994 2.53857,-1.24168 1.36447,-4.36184 3.07801,-0.85962 0.72985,-5.03044 3.74437,-2.00579 1.30103,-2.86544 3.61745,-1.40088 3.99823,2.26051 0.1904,-1.78294 0,0 -0.44426,-0.95514 0,0 5.1406,-7.54566 0.47598,-7.25909 -2.85589,-0.89147 -1.23754,-1.7511 -3.39533,-0.54125 -1.84047,-2.06948 0,0 0.0634,-0.25471 0,0 2.09432,-2.41969 -0.60291,-2.92911 1.30101,-1.65559 -1.33274,-3.05646 -2.69722,0.76411 -6.47334,-3.94793 -2.63377,0.38205 -1.26927,2.80177 -5.42619,-1.4964 0,0 -1.5866,-0.12736 0,0 -1.74527,-0.0955 1.42795,-2.51521 -0.53944,-2.80176 2.66548,-3.59772 -1.20581,-1.46455 0.12687,-3.85242 3.64919,-1.78293 -3.30013,-6.0811 2.88762,-3.343 3.30013,-0.22288 1.11062,-3.40667 2.12604,1.56007 5.90217,-5.47617 -0.15867,-1.68743 2.34816,-2.51521 -2.50683,-5.9219 3.17321,-0.9233 -0.57118,-2.89728 1.49141,-1.05065 z" />
  <path
     id="ES-CM"
     title="Castile-La Mancha"
     d="m 1199.0591,363.52818 1.9039,-1.46454 4.5694,-0.73229 0,0 1.3011,-0.3502 0,0 1.9991,0.98697 0,0 -1.2058,2.48338 1.1423,4.93493 -5.9021,2.22867 0,0 -1.428,0.12729 0,0 -1.4279,-0.41389 -0.6981,-2.51521 -1.6501,0.0319 0,0 -3.7444,-1.01884 1.2058,-1.20985 0,0 5.3628,-0.31837 -1.428,-2.76994 z m 63.4959,-55.8123 0.9837,0 0,0 0.9837,0.31839 0,0 0.1903,-0.1592 0,0 0.7933,-0.73229 0,0 3.4906,-1.52823 1.8722,-3.56587 3.4587,0.19103 0.3808,-3.6614 -1.3327,-3.21565 1.6818,1.71926 5.0137,0.54125 1.0471,-1.05066 2.8242,0.38206 1.5548,-2.06949 1.5549,2.00582 1.8405,-4.1708 4.0299,-1.2417 10.8207,3.40668 3.7126,-1.71926 5.8704,-0.41389 0.9203,-2.45155 2.8876,-1.49637 3.2684,1.20983 0.349,4.96677 4.0617,1.94212 3.554,0.35023 1.3962,-2.16501 3.7762,-0.0955 0.7615,2.51521 5.3945,1.30536 1.4279,2.70624 3.4271,-0.98698 -0.3173,2.89728 -2.4434,1.56007 3.6492,0.73227 -1.3328,3.27934 1.8088,1.20984 3.2366,-2.57888 1.7453,1.46455 0.6981,3.2475 2.3164,0.5094 1.2059,4.26634 3.2366,0.57309 1.1424,1.6874 5.331,-3.21567 2.8876,3.31118 2.6655,-1.59189 2.5703,0.38205 2.6337,-3.24751 4.506,1.56008 3.6809,-3.88425 6.6003,5.73086 0.7933,-1.05063 -1.3962,-4.07532 0.9519,-3.82057 0,0 8.06,-2.6744 4.2203,4.4255 0,0 1.0789,-0.31839 0,0 4.0617,3.88426 4.4425,1.4964 12.2486,12.7671 0,0 0.9837,1.52823 0,0 2.7607,2.4197 0,0 0.7933,1.87845 0,0 -1.0789,5.44433 4.1251,5.44433 1.428,0.28654 1.5231,3.94794 -0.2221,4.0116 -1.7135,2.38787 2.0943,5.89006 -2.3799,8.18241 1.5231,2.03763 -4.5059,3.85243 -6.4734,-3.34301 -1.6818,1.78293 -0.7933,4.5847 0.7933,5.31698 -4.4742,2.51521 -3.4588,6.11292 -0.7298,-0.70042 -0.7299,1.01881 -0.095,1.17802 2.3164,0.92331 4.2204,5.34879 0,0 0.5395,0.31839 0,0 2.0943,2.41971 -1.9357,0.1592 -0.7933,1.81478 0.7616,2.73809 2.602,-3.69323 12.788,13.5949 2.7607,-1.43272 3.0146,2.03763 3.0462,-1.30536 -0.9519,6.04926 0,0 -0.032,2.19684 3.7761,2.73807 -0.8885,0.85963 3.8714,8.65998 8.4407,1.0825 0,0 0.1587,0.31838 0,0 2.2846,0.73227 7.1398,-1.81477 0,0 1.9991,4.61653 0,0 -5.4579,2.38787 -0.5712,1.84661 1.2375,2.22867 0,0 -0.2855,1.36905 0,0 -1.4597,10.66579 -5.0771,7.70483 1.1106,4.45733 -1.3962,2.16502 -3.0463,0.92329 0,0 -2.3165,-1.11434 0,0 -2.4751,-0.9233 -2.951,2.51523 -5.0454,9.99717 -4.982,3.02463 1.5232,0.28654 0.3173,5.22146 -1.1106,0.50941 0.7615,2.00581 -0.8567,2.22868 -1.301,0.47756 0.7298,2.57889 1.9991,0.28655 0,0 -0.6346,0.76412 0,0 1.9039,0 -0.5712,2.06948 1.9357,0 -0.825,1.01881 1.2058,-0.6686 0,0 0.2221,-0.19103 0,0 0.6029,1.94213 -1.2375,0.0319 1.5865,0.57309 -0.1586,1.52823 0,0 -0.3808,0.19103 0,0 2.126,-1.56008 0,0 0.1904,0.50943 0,0 0.1904,1.05065 0.1587,-2.06947 2.1895,0.50939 -0.9202,0.987 2.126,0.1592 0,1.40088 1.4914,-0.12729 2.6655,2.45153 0.7298,-0.92331 0,0 0.5712,0.1592 0,0 2.9828,1.11434 0,0 0.5078,0 0,0 1.8087,0.22286 0,0 0.5077,0.25471 0,0 2.8876,1.11433 1.0154,-1.05066 3.9348,2.165 -1.6501,10.66578 -6.3464,11.52542 -0.6663,6.71785 3.2049,2.38788 7.0763,10.63394 9.5513,-0.60493 2.7924,-1.71926 3.554,0.63676 0.952,3.78874 2.0943,1.87844 -1.0155,4.13898 1.1107,3.53403 -0.4443,4.33 -2.8559,1.33719 3.9666,8.43712 -4.0935,4.36182 -5.5214,0.0955 0,0 -7.7426,-6.08109 -0.3173,-3.02464 -5.7752,-1.78292 -4.3473,1.36904 0,0 -1.0472,0.50941 0,0 -8.0599,6.62234 -2.0626,-2.92911 -1.6183,0.57308 -5.4262,5.38065 -0.3491,7.41829 -3.0145,2.13317 -0.8568,2.99278 1.4914,5.7627 0.1587,11.8438 -9.5831,7.19543 -6.8541,-0.0636 -1.9674,-3.18382 0,0 -0.032,-0.44573 0,0 0.825,-1.68742 -1.6183,-1.59193 -1.428,1.20987 -2.2847,-1.91029 -2.1895,0.19102 -0.095,1.46456 -2.126,-0.44573 0.9519,1.46454 -10.7889,6.43133 -6.3147,1.78293 -5.6166,-2.70624 -1.5865,1.17802 0,0 -1.1424,2.1013 0,0 -3.0145,4.26632 -8.5042,3.72508 -4.6964,10.47474 -5.4262,4.52103 -0.8567,4.48918 0,0 -7.0445,-0.63678 -7.9013,-4.20263 0,0 -1.1106,0 0,0 -2.3799,-1.40088 9.234,-11.23886 -0.6347,-3.43853 1.5866,-5.34881 -0.5077,-2.29235 -3.7761,-1.7511 0.1904,-10.44293 -7.7426,-1.97397 0.349,-8.40527 -2.7289,-2.48337 0,0 -0.7933,0 0,0 -5.6801,1.97396 -8.1868,-4.04344 -0.9203,2.45155 -0.6346,-0.54126 -0.3491,1.36904 -3.3636,1.62375 0,1.08249 -0.6663,-0.82779 -1.9991,1.08249 -1.7136,2.54706 -1.9991,-1.81477 -5.2675,-0.0319 -2.3799,2.0058 -0.7299,4.71205 -5.5213,-7.60932 -6.1243,4.23447 -12.0582,-2.03764 -3.8396,-2.35602 0,0 -0.476,-0.22288 0,0 -4.1569,1.33722 0,0 -0.349,0.98697 0,0 0.1269,2.16499 -4.1569,3.75692 -3.8079,0.95514 -5.2041,-1.20985 -0.6663,-3.56587 -2.6972,-0.987 -1.2059,0.22287 -0.5077,4.77572 -2.3164,1.20986 -9.9004,-3.37484 -0.8568,1.11433 -3.6174,-1.24168 0,0 -1.5867,0.50941 0,0 -2.126,0.63675 -0.6029,2.51524 -2.126,2.00578 -5.1089,0.63677 -18.6267,-1.20986 -11.5505,-2.29233 -1.1741,2.19683 0.7933,3.59771 -1.5548,0.41388 -14.2477,-6.36762 -7.584,-8.94653 -1.5231,0.57309 -0.7933,-1.36903 -1.6501,-0.35023 -0.6981,0.89147 -2.4751,-4.04345 -3.7444,-2.8336 -3.2367,-0.54125 -0.3807,-2.13315 -13.0102,-4.48918 -1.6183,-7.80035 -5.9657,0.25471 -4.9819,-1.36904 -0.6664,-2.48338 -3.1414,-1.36905 0,0 4.9819,-1.36905 4.7281,-13.59488 1.6818,-2.48337 5.7118,0.44572 1.3962,-5.95374 -6.283,-2.86544 -1.4597,0.38207 -3.5222,-10.9205 7.2666,2.83361 3.5857,-1.36905 0,0 0.2856,-0.1592 0,0 0.5395,-1.75108 -1.4914,-1.05067 0,0 -0.8885,-0.35021 0,0 -1.6501,-3.12014 2.9511,-6.7497 0,0 0.6029,0 0,0 2.126,-3.85241 5.9974,0.63676 7.8061,3.08829 -5.0771,-4.96674 -0.5078,-3.82058 -1.5866,-0.92331 -2.4433,-7.64116 4.6011,-0.92332 0.1904,-4.04344 3.0463,-6.62234 -1.7453,-2.9291 -4.2203,3.12014 0,0 -0.6664,0.28654 0,0 -2.5703,2.51522 -4.9185,0.95513 0,0 -0.2221,0.22288 0,0 -3.078,2.10132 -6.9493,-2.67441 -9.2658,-10.44292 -2.5385,-0.57308 -6.2195,-7.67301 0,0 -1.4597,-1.30536 0,0 -2.5703,-3.05646 3.9665,-4.96677 0,0 -0.032,-1.05065 0,0 1.8405,-7.03624 -2.9829,-4.4255 1.2376,-0.73227 -0.6664,-4.5847 -3.427,0.38206 -4.03,5.06228 -4.6646,-0.79598 -0.3491,-7.67298 2.3165,-3.88426 -3.554,-3.34302 -7.0128,1.59192 3.5857,-11.87564 -0.3173,-13.0218 2.8876,-1.78295 0,0 0.6029,0.2547 0,0 1.9039,0.57309 0,0 3.3002,-0.35022 0,0 0.5712,0.12729 0,0 4.3472,0.38205 0.8568,2.67442 2.6972,-0.38207 2.5386,-0.6686 3.554,-3.97977 0.9202,0.35023 1.8087,-2.96096 4.2521,-0.92331 0.9837,5.53986 0,0 0.8251,-0.22289 0,0 5.9656,-2.6744 0.476,-3.91609 4.0617,-2.80176 0,0 0.2538,-0.57309 0,0 5.6801,-3.97977 -0.8568,-2.26051 1.1741,-2.45154 3.8396,1.59191 0,0 1.777,-1.24168 0,0 3.5222,-0.98699 -0.5077,2.4197 1.3645,1.24168 0.5712,4.74389 3.3318,1.14617 5.4897,-2.13315 0,0 4.2203,1.91029 1.3645,-1.91029 6.7272,-2.35602 0.2221,-2.41969 4.4425,-3.34302 0.4443,-3.343 1.9039,1.178 0.5712,7.95955 1.4279,-0.0955 0.9837,1.46456 1.1741,-0.92331 0.825,1.59192 2.1578,-1.62374 1.9674,-4.45736 4.9819,-2.54704 4.1569,3.50219 -0.1268,2.06949 3.6809,0.41388 2.602,-2.64256 4.1887,1.87845 -0.1587,1.52823 2.9511,2.96096 3.3001,-0.41391 0.3491,2.67442 1.6183,-1.62375 1.3962,1.43272 3.3636,0 3.427,3.343 2.4434,-1.81477 3.1098,4.32999 2.4116,0.70043 1.9357,-1.62374 2.7924,1.68742 1.8404,-1.17801 0.4126,1.46456 4.728,2.45153 -1.2375,6.04926 -5.5531,4.58469 -1.3962,-0.47757 -1.1424,3.56586 -1.9357,0.92332 0.4443,0.95516 0,0 0.6981,0.22286 0,0 -0.349,0.76411 -1.9992,-0.89148 0.476,1.59193 -1.0471,0.82779 0.1586,-2.10132 -2.1895,2.13315 -2.0308,-0.9233 -2.0943,2.80176 -0.6347,-1.30539 -1.6501,0.3184 -1.7135,1.33721 0.6347,0.89145 0,0 -0.064,0.44575 0,0 0.6664,1.49638 5.2675,2.00581 3.6175,-3.66139 0,0 0.5712,-0.35021 0,0 1.1106,-2.22867 3.0145,-1.62376 1.0789,0.70045 6.0926,-2.19684 -0.9837,-2.35603 0,0 1.301,-0.31838 0,0 2.4434,-2.54705 5.9021,-0.85963 1.2376,-3.12014 3.1414,0.85962 1.8405,-0.95513 0.1587,1.3372 1.9039,-1.05066 2.4751,1.24168 1.8722,-2.22867 -0.1587,-2.26051 3.8078,-0.70043 2.6021,3.18382 2.3799,0.60491 0.7933,-1.05065 5.3944,-0.31839 1.2058,-2.51521 0,0 0.2222,0 0,0 1.6183,-1.01882 0.5394,2.96095 3.4271,0.35022 3.0463,-1.14617 2.7924,-3.82058 -3.6492,-4.01162 0.5712,-2.41969 1.7453,0.6686 -1.4915,-3.56588 0.6347,-4.29815 -1.777,-5.53984 -1.1423,-1.24169 -3.3002,2.45155 -1.9039,3.343 -1.9674,-1.4964 1.2693,-7.22726 3.427,-4.36183 -0.9836,-2.0058 1.9039,-4.17081 -2.1261,-3.88426 -3.7126,-0.31838 -0.2221,-8.18239 -2.729,-2.86544 -2.8559,0.28655 0,0 -0.5077,0.22286 0,0 -2.1578,-0.1273 1.0789,-3.88425 -4.03,-2.89726 0.7933,-1.84662 -1.3962,-1.49639 1.1741,-0.63676 0,0 0.1269,-1.27355 0,0 0.5077,-1.14617 -2.0308,1.75111 -2.0944,-1.05066 -0.6029,-3.62955 -1.8087,-1.56008 -1.0154,2.48339 -1.5232,-1.30537 -1.5866,0.70044 0,0 -0.095,-0.35021 0,0 -2.0309,-1.30537 2.7925,-4.52102 -1.3962,-0.92331 0.3173,-2.96094 0,0 0,-0.35023 0,0 -1.5231,-2.06948 -4.03,-0.47758 3.6809,-6.20844 -0.5077,-2.54705 2.7607,-1.78295 -1.6501,-2.9291 1.4914,-0.0319 2.3482,-9.20122 1.7135,-1.56008 -3.7444,-4.6802 1.1424,-4.48918 -5.4897,-1.33721 -1.8087,-4.74388 -2.5703,-1.52825 0.2539,-1.75109 z" />
  <path
     id="ES-CN"
     title="Canary Islands"
     d="m 20.276782,1708.4733 1.935656,0.796 1.681799,3.5659 -2.697225,3.3748 -1.078889,3.757 -2.570296,1.2098 -1.808728,7.7686 -2.728957,-0.9871 -3.522258,-4.1708 -8.1868698,-1.0506 L 0,1721.6225 l 0.50771287,-3.9797 1.71353093,-1.4328 4.6328798,1.6556 3.8078464,-0.8915 4.125167,-3.725 -0.380785,-2.1331 5.87043,-2.6427 z m 216.380878,-32.3157 1.5866,1.4646 -0.53945,3.2156 0,-2.6426 -0.8885,2.9929 0,-1.6874 -1.01542,0.7322 1.5866,3.8843 -0.76156,3.916 3.99824,4.8713 0.50771,1.7829 -1.42794,2.3561 2.1895,3.1838 -2.25297,0.8278 -0.7933,3.4704 0.76156,3.1518 -2.53856,1.1781 -1.14236,3.9479 -10.5985,3.7887 -1.77698,2.9292 -2.4751,0.2547 -5.1406,-2.1967 -1.26929,0.7321 -9.71001,-8.2779 -3.99824,-7.3865 0.85677,-10.1563 3.14147,-0.7323 5.68005,-4.7439 2.03085,-7.8958 -1.04717,-1.5283 2.25298,-0.4139 1.36447,1.1463 2.53857,-1.3373 3.14148,2.7062 6.4416,-1.0506 5.20406,2.8018 2.50683,-1.1144 -0.38078,-2.7699 1.96739,-1.4009 z m -160.119947,-3.3748 1.205819,-0.2548 1.427942,1.6875 4.156899,0.064 1.047158,1.974 5.553109,2.6744 1.332747,2.3559 0.190392,3.5341 -5.902162,5.6035 -2.602028,1.0825 -6.156019,-0.191 -4.252095,-3.2794 -0.126919,-1.7192 -2.379905,-2.165 0.317322,-5.2851 2.062583,-4.4256 4.125166,-1.6555 z m 44.139287,-15.728 3.07801,-0.063 4.53768,-2.5152 6.09256,0.7641 4.53768,-2.4834 3.4588,-0.063 6.98105,-6.5904 1.65006,-3.8525 2.41164,-1.942 4.02997,-0.8915 1.14235,-2.1969 8.63112,1.2735 5.61658,-2.2286 2.22124,0.7004 1.07889,2.1331 -0.47598,2.7063 -9.48788,4.4255 -1.45968,3.0883 -9.36095,7.3865 0,7.1318 -5.55311,10.0289 -0.12694,5.4443 -10.37638,12.0349 -4.22037,-0.4139 -4.15689,2.4834 -4.9502,-0.063 -0.85677,-4.1389 -2.28471,-0.9233 0.0635,-2.8973 -3.64919,-3.3748 -5.01366,-8.469 -0.34905,-5.6353 -4.82328,-6.6224 -2.41163,-0.9233 0.63464,-1.9103 7.29837,-3.1202 2.09432,1.592 3.99824,0.1273 z m 247.73215,-37.4099 4.91846,4.33 1.20582,11.8119 -1.80873,8.6919 -2.09431,2.2923 1.30101,8.5644 -3.68092,6.8134 -0.12687,3.5659 -1.74526,3.4385 -2.34818,2.2287 -3.64919,0.095 -2.18951,2.0377 -17.86514,4.1708 -9.77348,11.812 -12.40723,-3.2475 -2.85588,1.1462 1.42793,-4.3937 0.85677,0.9869 3.49053,-0.063 6.34641,-1.6874 12.4707,-9.1694 1.80872,-11.207 3.554,-4.1072 1.33275,-6.9088 4.5694,-4.5529 5.07713,-10.3792 -0.38077,-2.3878 2.60202,-5.8902 -0.6981,-3.8842 10.66197,-4.1071 z m 7.20317,-0.9233 -0.31732,2.4515 -1.36448,0.191 -0.60291,-1.4964 2.28471,-1.1461 z m -354.066255,-8.8829 4.537683,2.3879 4.220363,-1.2736 2.728957,0.5094 2.348172,6.6861 2.284708,2.9291 -3.998239,6.495 1.776996,5.1259 -0.825034,5.2533 -7.044516,11.5573 -2.348172,-2.0059 -1.047159,-6.5904 -3.934774,-5.508 -4.728076,-12.7671 -2.284707,-3.0883 0.158659,-2.6426 3.300134,-4.2345 4.855005,-2.8336 z m 383.767465,-36.4865 3.61745,1.8147 0.31732,2.3879 -0.72984,2.961 -3.10975,2.6107 1.42795,3.9797 -1.5866,3.152 0.0952,3.6933 -1.80874,2.5152 -4.41075,2.3242 -0.92024,1.6874 -4.25209,0.3502 -3.9665,2.9291 -7.99648,1.2099 -4.44249,6.7179 -1.20582,-1.974 -6.18776,0.3501 -0.76156,-3.0882 4.50595,-4.1708 -0.34905,-5.9856 1.58661,-4.3618 5.23578,-4.3937 4.02998,-0.1273 4.88673,-4.2663 1.55486,0.7323 2.72897,-1.974 4.66461,1.6875 1.96739,-2.2924 2.44336,-7.6411 2.22124,-1.9422 0.44426,1.1143 z m -3.61746,-6.2721 3.01455,2.6425 -2.76069,3.8524 -3.39533,0.5412 3.14147,-7.0361 z m 0.25386,-12.3851 1.49139,1.3054 -1.65006,1.7829 -1.93565,0.032 0.53944,-2.6744 1.55488,-0.4457 z" />
  <path
     id="ES-CT"
     title="Catalonia"
     d="m 1741.1377,158.52224 -4.8232,-0.76412 2.7925,-4.13896 0.4442,3.27933 1.5865,1.62375 z m 96.7511,36.83676 1.301,2.38785 3.205,0.47758 -0.6347,0.70044 3.7127,4.26632 -1.301,2.73807 0.032,4.52103 -0.8568,-0.12729 1.9993,3.94792 1.8086,0.4776 0.254,2.2605 -1.3328,0.9233 -0.6982,4.71206 -2.253,1.59191 -0.4442,2.29235 -2.2212,0.66859 -1.6817,2.38786 -2.5704,-0.38206 -5.0137,7.70485 -5.8386,2.51521 -3.6174,4.8394 -10.2178,3.18381 -2.2531,1.71926 -1.2057,2.96094 -21.0383,9.07389 -12.8198,8.5008 -9.3926,3.97977 -6.4735,8.53262 -2.4115,5.9219 1.2057,-5.09411 -1.7452,3.85243 -1.3962,0.1592 -0.1276,0.89147 1.4599,-0.44574 -2.2848,4.04345 -2.6655,2.13315 -8.0282,2.54706 -7.5522,0.38206 -5.3628,2.86544 -4.5377,0.0636 -6.2512,2.00579 -1.2057,1.4964 0.5394,-1.14618 -19.3566,4.23448 -9.9004,5.38065 -8.3772,0.5731 -4.6012,2.92909 -0.7933,0.25471 0.6981,-1.178 -3.078,1.14617 -3.1732,5.12593 -3.8713,-2.29233 -6.6003,1.178 -5.5848,2.70625 -10.8207,10.7613 -5.9973,9.20124 -3.4588,2.29233 -0.8885,2.64258 -3.5223,2.16499 2.6338,4.04345 4.4425,0.1592 -3.4271,-2.57889 2.4117,-0.1273 5.3944,6.68602 5.68,1.43271 -4.3472,4.64838 -7.7109,4.07529 -7.108,9.13754 -4.2838,0.66861 -2.253,-2.70624 1.4279,0.79595 -0.1268,-1.81478 3.427,2.29236 1.0472,-0.73227 -1.6184,-1.08252 5.5849,-0.85962 2.7289,-4.93492 -4.4425,-0.63677 -2.6655,1.71926 -5.3309,0.50941 0.2855,1.30538 -1.0154,-0.66861 -4.6963,5.53984 -2.1261,5.0941 0,0 -6.5368,-2.80175 0.4125,-3.47035 -3.5539,-2.76992 -5.3945,-0.66861 -5.0454,-2.35603 -1.301,-1.78292 1.7453,-5.18964 0,0 -0.6347,-0.2547 0,0 -0.2538,-0.28654 0,0 -0.8568,-0.85964 0,0 -1.9991,0.25471 0,0 -0.476,0 0,0 -0.9837,-3.59771 -2.4434,0.95515 -2.3799,-1.11433 0,0 -0.7933,-1.84663 1.2376,0.98699 0.1587,-1.52824 4.5059,-1.36903 0.476,-2.22867 3.7761,-3.85242 -3.3001,-7.09991 1.2375,-3.43854 0,0 -0.095,-0.63675 0,0 3.4588,-5.79455 -1.0472,-0.70043 0,0 0.1269,-0.85963 0,0 -1.9039,-3.85244 1.5866,-0.60491 -2.8242,-2.29235 -1.2058,0.63677 0.032,-1.43272 -1.1741,0.60492 1.0472,-1.49639 -0.952,-3.05647 -1.6183,-0.31836 0,-4.55288 1.0789,-1.27352 2.8558,0.82779 0.5395,-2.22867 3.554,-0.85963 2.2847,-7.54564 3.6174,-0.19105 0.1904,-1.49637 1.2376,0.1592 0.6664,-4.80757 -1.8722,-2.99278 0.349,-1.65559 -1.8087,-1.36903 2.2212,-2.86544 -4.6011,-4.77573 3.0145,-6.39947 -1.0789,-3.82059 4.7599,-0.70043 4.3155,-5.98558 -1.6818,-6.84521 -2.2847,1.05067 -4.5059,-0.76412 0.6663,-3.69322 -2.7607,-3.34303 0.1269,-2.16498 5.0137,-7.03624 0.9519,0.95515 0.2856,-2.96096 5.9339,-0.79595 1.3327,-4.07527 2.6338,-2.45154 2.602,0.0955 1.0472,-3.66139 2.0943,0.0955 0.063,-1.3372 2.2848,-0.987 -1.2376,-1.65557 0.2856,-3.62956 0.9837,-0.22286 -3.8396,-2.10133 2.1261,-3.343 1.5548,0.63676 1.1106,-3.15198 1.7136,-0.57308 0.4125,1.24169 1.0471,-1.97396 0,-4.80758 1.2059,-0.7641 2.7607,-8.2461 -0.7616,-3.88425 1.8087,-1.52824 -1.4597,-1.01881 0.3808,-1.91029 5.331,-15.56888 -2.0308,-1.75108 2.5703,-1.75111 -4.0617,-1.65558 1.9673,-2.19684 -4.6963,-11.78011 0.9202,-1.01883 1.0789,0.82779 2.1895,-2.10131 -1.6818,-0.89147 0.1269,-1.68743 1.1423,-1.43271 1.3645,0.60492 -0.825,-1.20985 2.2212,-7.80035 -5.331,-1.3372 -0.8567,-4.26632 -1.9357,-2.61072 0,0 -0.6664,-0.44574 0,0 -0.349,-0.79595 0,0 1.2375,0 0.5395,-2.03765 -1.6183,-4.80757 -1.8088,-0.63676 2.1261,-2.38786 -1.8722,-0.89147 2.1895,-2.57888 -1.0154,-3.91611 4.3155,-2.73807 5.8387,2.92911 2.253,-0.4139 4.5694,1.49639 6.0608,4.39367 2.9511,-1.94213 2.0309,2.26051 5.3627,0.6686 2.8559,-0.89147 4.2838,3.97978 0.4125,3.0883 3.078,2.32418 5.2993,-2.26051 1.9674,1.4964 8.8849,-0.50941 -0.4759,1.87845 3.1414,1.62374 0.063,2.38787 2.1895,1.65558 0.5077,3.47037 2.0943,2.57889 -1.3962,2.45153 1.4914,1.81478 -2.5703,3.5022 3.1098,-0.4139 1.5548,3.43852 -4.1886,3.18382 1.8722,0.98698 0.6346,4.42551 8.8216,0.60492 1.0154,-2.86543 1.5231,0.95514 1.6502,-2.13316 5.0771,0.0318 1.2057,-4.32999 2.8241,1.5919 1.8406,-1.3372 3.3635,1.71927 3.3636,-0.47757 3.078,1.05065 3.6176,3.85242 4.6329,-0.44574 0.3807,2.67441 1.5548,0.9233 0.603,4.68022 4.5693,3.97977 5.9657,-1.65558 0.6663,-1.78295 2.0309,-0.76411 0.7299,-3.02462 2.6336,-1.59191 3.9666,0.9233 4.7916,-2.61072 3.1732,1.81477 1.9991,-0.41389 3.078,2.45153 6.9493,1.36904 0.1276,2.06949 4.0934,4.13895 5.1089,0.79597 1.1107,-2.35604 1.9673,-0.54124 8.2187,2.06949 0.2221,-2.16501 -1.904,-3.343 1.5549,0.0637 0.2221,-1.94212 3.7761,-1.94214 3.3637,-0.60492 1.9673,1.59191 4.2205,-3.18382 1.0788,-2.29235 1.7134,0.54126 1.0789,-1.52824 3.9348,1.27353 2.5386,-3.02462 1.7135,1.94212 6.283,-0.92331 3.9983,5.60352 2.9511,-1.40088 4.6963,0.31838 -1.3962,0.79596 0.8568,1.30536 -1.5231,2.80176 1.1739,0.38206 -0.9836,1.05066 0.6663,2.32418 2.0627,1.01883 0.6345,1.87846 2.9195,-1.81479 1.9991,2.45153 1.4279,-1.17799 1.6817,1.71925 3.1098,0.6686 -3.0462,1.84661 1.0789,2.19685 -1.9357,-0.22288 0.9203,2.4197 -0.7616,1.43273 -2.1896,0.0319 0.825,1.78293 -3.0462,-1.56006 -0.825,2.26051 -3.3002,-1.65559 -0.9202,-2.19684 -2.8241,1.94214 -1.9675,4.96675 0.8568,8.15057 z" />
  <path
     id="ES-EX"
     title="Extremadura"
     d="m 975.28468,409.78906 2.76069,2.38786 2.41162,0.54124 0.31733,-0.79595 0,0 1.55488,-0.0319 0,0 2.44336,1.0825 3.33187,-3.34301 2.25297,3.05646 2.31645,-2.45154 6.66373,-0.6686 2.60202,-2.32417 -0.5077,-3.31117 1.4914,-2.45155 7.0128,-3.56587 2.126,0.12729 1.9674,-3.12013 4.2204,-0.44574 0.5712,-2.26051 0,0 1.2058,-1.24168 0,0 10.1225,-5.95374 6.2829,3.31117 1.1424,2.54706 2.4751,-0.66861 -1.0472,2.2605 3.2367,1.52824 0,0 0.3808,0.15921 0,0 1.7135,1.17801 -1.5866,0.57309 1.0154,0.50941 -1.1423,0.89147 0.349,1.52823 -1.9039,0.89147 7.5523,1.91029 -0.1904,2.35601 0,0 0.3807,0.57309 0,0 2.3482,1.68743 0,0 0.8885,0.60492 0,0 4.9502,1.59191 2.1895,-4.61653 7.2984,-4.48918 2.1895,4.23448 -1.5549,2.86544 0.9203,1.20984 2.3164,0.66861 2.3165,-1.52825 4.0299,0.22288 2.8559,2.45155 0.6664,2.2605 2.4751,0.47757 0.6346,3.18382 2.5068,0.54125 0,0 1.3011,0.6686 0,0 1.0471,0.6686 0,0 0.6664,0.22287 0,0 4.6011,-0.0319 2.2213,-1.08249 3.7126,-4.87123 7.3301,-1.14617 -2.3164,5.22145 0.1587,6.08109 2.7924,5.41249 0,0 -2.8876,1.78294 0.349,13.0218 -3.5857,11.8438 7.0128,-1.5919 3.5857,3.31116 -2.3164,3.9161 0.349,7.673 4.6646,0.79595 4.03,-5.06226 3.3953,-0.38207 0.6664,4.55286 -1.2375,0.73227 2.9828,4.42552 -1.8405,7.03624 0,0 0.032,1.08249 0,0 -3.9665,4.96675 2.5703,3.05646 0,0 1.4597,1.30536 0,0 6.2195,7.673 2.5068,0.57309 9.2658,10.44293 6.981,2.67439 3.078,-2.06946 0,0 0.1904,-0.22289 0,0 4.9502,-0.95513 2.5386,-2.51521 0,0 0.6981,-0.28655 0,0 4.1886,-3.12014 1.777,2.92912 -3.0463,6.62233 -0.1904,4.04345 -4.6011,0.95514 2.4434,7.60933 1.5866,0.92331 0.5077,3.8524 5.0771,4.96676 -7.8061,-3.0883 -5.9973,-0.63676 -2.1578,3.82058 0,0 -0.5712,0 0,0 -2.9511,6.74969 1.6501,3.15199 0,0 0.8885,0.35021 0,0 1.4914,1.05067 -0.5395,1.75108 0,0 -0.2855,0.1592 0,0 -3.5858,1.36904 -7.2666,-2.8336 3.4905,10.88865 1.4597,-0.38205 6.2829,2.86542 -1.3962,5.95374 -5.7117,-0.41389 -1.6501,2.45154 -4.7281,13.5949 -4.9819,1.36905 0,0 -4.4425,2.45153 -7.457,-1.14617 1.4914,4.26632 0,0 -0.1269,0.2547 0,0 -1.4914,0.19102 0.032,1.68743 -1.0472,-0.85964 -0.349,1.11434 -0.6981,-1.20985 -0.476,2.0058 -0.7616,-0.82779 -2.7924,3.53405 -3.078,1.56006 -1.6501,2.03764 0.2856,1.62375 -5.3944,-0.57309 -1.9357,3.27932 0.6981,1.59193 -1.4914,-0.82779 -1.2375,2.13315 0,0 0.349,0.82779 0,0 -5.8704,3.97977 -0.4125,2.29235 -3.0463,0 -2.2847,1.46456 -3.2049,5.25329 -0.095,1.78294 2.3482,2.26052 -1.3962,4.07527 4.1251,7.22727 -0.1268,6.36764 0,0 -0.3173,0.19103 0,0 -1.1106,2.06946 0.4759,2.45156 -3.2684,1.40087 -0.6029,2.03764 -4.4742,-0.73228 -6.156,6.17661 -2.4434,-0.73227 -0.6029,-4.42552 3.9348,-2.51521 -0.8568,-1.71925 0.9837,-0.50943 0.825,1.14618 -0.1268,-2.32418 -3.5858,-1.68742 -2.5068,1.78293 -2.1895,-0.54125 -1.5549,1.20986 -4.4742,0.31838 -2.253,1.78292 -0.2538,2.51522 -3.9348,2.96096 -0.2539,1.84661 1.8088,2.29235 -2.253,2.32419 -1.5549,5.66719 -8.4407,-0.28654 -5.6483,1.46454 -5.6483,4.80757 -1.777,-2.35602 -3.2684,0.31839 -1.1424,-1.30538 -4.4425,-0.79595 -1.9674,-2.00581 0,0 -0.4442,-0.1592 0,0 -2.3164,-2.0058 -0.8885,-3.66139 -3.9348,-1.01882 -3.2367,0.31837 0.7616,0.98699 -2.3164,1.87845 0.5077,1.91029 -1.0155,0.66861 -6.156,-2.38786 0,0 -1.0154,0 0,0 -2.09431,0.63675 -0.38079,-4.26632 0,0 -1.36448,-1.65558 0,0 -2.18951,-2.32417 -1.777,0.85962 -6.15602,-1.08251 -2.31644,0.95516 -1.96739,-0.85964 -0.0952,-1.36903 -3.33186,0.0319 1.36448,-7.25911 -4.34731,0.1273 -7.36182,-3.31117 0,0 -0.47599,-1.52822 -1.77699,0.19102 -1.36447,1.4964 -0.76158,-0.79597 -2.76069,0.76413 -1.45968,2.22867 -3.2684,-0.31838 -1.42794,1.62374 -4.63287,-6.36763 -1.36448,-5.22147 -1.45968,-0.41388 -8.72632,-12.32138 -0.63464,-3.05645 -3.14146,-2.16501 -1.58662,0.4139 3.23668,-4.1708 -2.25297,-0.35022 1.65006,-7.09992 5.14058,-8.851 -2.41163,-1.62374 1.04716,-9.42411 4.31557,-2.45153 6.94931,-7.48197 2.88762,-0.38206 2.72896,-4.04346 2.44336,-1.14617 0.53944,-1.71925 -1.55486,-3.15199 8.28206,-12.98997 -0.7933,-3.24748 -2.31644,-4.39369 -3.83958,-2.54705 -6.4416,1.94215 -2.63377,-0.98699 -0.7933,-1.49641 1.11062,-5.41247 -7.0445,-2.54706 -2.22126,-2.19683 -0.6981,-4.32999 1.39621,-3.02463 -6.4416,-6.3358 -1.39621,-5.03044 2.03085,-3.85241 0.41251,-5.15779 -4.53769,-3.0883 -1.42793,0.70045 -1.39621,-1.01882 -0.82503,-4.42551 -3.3636,-0.50941 -3.20494,-4.77572 -2.72895,-1.30537 -2.37992,-7.48197 -1.26927,-0.89146 7.26664,0.25471 10.43985,2.38784 7.26664,-2.9291 8.91671,1.52823 1.96738,-1.14617 5.0454,0.60492 4.44249,-1.46456 3.45878,-11.39806 -0.7933,-4.45733 2.79242,-1.30538 3.77612,-4.4255 0.25386,-6.81336 1.42794,-1.2417 0.41251,-5.03043 1.80874,-3.59771 -6.56855,-10.92049 -5.20405,-1.05067 -2.63377,-7.70483 1.61834,-4.52101 3.93477,-1.2417 1.11062,-2.26052 3.64919,0.38207 z" />
  <path
     id="ES-GA"
     title="Galicia"
     d="m 798.94965,186.95372 1.58661,1.87845 -1.99912,-0.54124 0.41251,-1.33721 z m -0.76157,-4.96677 1.80874,2.61075 -1.42795,1.84661 0.76157,-1.4964 -1.14236,-2.96096 z m -0.28559,-16.68319 -2.09432,4.71206 -0.0634,-3.08831 1.14235,-2.0058 1.01542,0.38205 z m -8.05994,-10.44291 1.23755,1.62374 -0.88849,0.79596 -0.34906,-2.4197 z m 12.02645,-10.41108 0.41251,1.11433 1.17409,-0.31838 0.38079,2.35602 -1.36447,0.25471 0.34903,2.13316 -0.85676,0.12736 -0.66636,-1.05066 0.92023,0.22287 -0.76158,-1.01883 0.92023,-1.97396 -1.96738,-1.24169 1.45967,-0.60492 z m 81.8687,-138.36868 1.99912,-3.4385222 1.07889,0.7322779 1.99912,-1.3053649 0.7933,1.2098504 -1.04716,3.4385222 1.80872,2.9927875 -2.12604,-1.4008792 -0.12687,3.9797713 -1.17407,0.382057 1.65007,1.464556 -2.88763,0.127352 2.15778,1.241688 2.53856,-1.655585 -1.39621,-2.92911 2.82416,-0.541249 0.7933,1.655584 1.52314,-0.541248 -1.96738,-1.7829379 1.58659,-0.7641159 -0.15867,-1.1143359 7.67915,-2.9291113 3.14148,-3.1201404 L 904.26834,0 l 2.2847,2.0058046 -3.30013,4.584696 1.71353,0.7004398 0.72985,-1.9739664 3.14146,-0.7641162 0.72985,3.6932275 1.87218,0.5094107 -0.63464,4.584697 1.07888,2.642567 0.53946,-3.151978 1.61834,-1.114336 -0.69812,-2.2286721 2.31645,0.191029 0.12686,-2.4197007 2.85589,-0.7641161 0.85677,1.5919084 3.96651,-0.095515 -0.76157,1.91029 10.40812,4.3936675 1.6818,4.712049 3.61745,3.916094 -1.14235,1.050659 1.52313,-0.477571 3.77612,2.22867 -0.92023,1.782938 -1.20583,-0.12736 1.65007,0.70044 -0.7933,0.70044 2.03086,-2.228671 6.37813,1.878451 4.37904,-0.955145 5.96561,0.700439 0.53945,2.356025 -1.39621,2.037642 -0.28559,5.603519 0,0 -2.95107,2.06948 -1.20583,3.343008 -5.99735,-0.318382 -0.0634,2.96095 0,0 0.15867,0.413896 0,0 -0.38077,2.164996 1.55486,0.955144 1.84045,-1.050659 0.79332,1.432717 -0.19041,4.871239 2.60204,3.215656 3.42706,-0.191029 -0.85676,4.266315 0.82503,2.833596 3.52225,3.565874 0.95197,-1.050659 0.7933,1.814776 2.60203,0.509411 0.47598,1.846612 -1.33275,2.674407 2.03086,3.629552 1.5866,0.254706 4.6646,-2.929113 -0.15867,-1.114335 2.50683,-0.604926 2.88761,3.374846 -0.60289,2.45154 -3.55401,3.693226 -1.96738,0 -1.71354,2.005804 -2.12604,-1.432716 -2.34818,2.992787 0.0952,3.120141 -1.39621,-0.764117 -1.36448,2.45154 2.15778,2.960948 1.30102,-0.06368 0.15867,-4.712048 4.02998,5.476165 3.23666,0.09552 2.98281,3.597712 -0.44424,3.693234 1.45968,1.46455 0,0 -1.45968,0.98699 0.57118,2.89726 -3.17322,0.92331 2.50684,5.9219 -2.34817,2.51522 0.15867,1.68742 -5.90216,5.47617 -2.12604,-1.56007 -1.11062,3.40668 -3.30013,0.22286 -2.88762,3.34302 3.30013,6.08108 -3.64919,1.78294 -0.12687,3.85242 1.20581,1.46456 -2.66549,3.59771 0.53945,2.80176 -1.42795,2.51521 1.74527,0.0955 0,0 1.5866,0.12735 0,0 5.42618,1.4964 1.26928,-2.80176 2.63377,-0.38206 6.47334,3.94794 2.69722,-0.76412 1.33274,3.05647 -1.30101,1.65557 0.60291,2.92912 -2.09432,2.4197 0,0 -0.0634,0.2547 0,0 1.84047,2.06949 3.39533,0.54124 1.23755,1.75111 2.85588,0.89146 -0.47597,7.25911 -5.1406,7.54564 0,0 0.44426,0.95513 0,0 -0.19041,1.78295 -3.99822,-2.26051 -3.61746,1.40088 -1.30102,2.86544 -3.74437,2.00581 -0.72985,5.03042 -3.07801,0.85964 -1.36448,4.36182 -2.53856,1.24169 2.06259,2.76993 2.91934,-0.28655 1.17409,3.21564 -2.31645,3.72507 0.47599,2.48338 0,0 -2.22124,2.67441 -5.29925,0.1592 -1.65008,-2.86544 -2.66549,-1.49637 -5.1406,0.70042 -0.92021,4.45735 1.11062,2.70625 -1.80874,4.4255 -10.05906,4.23448 -3.58572,0.2547 -0.85676,-1.20985 -4.98193,4.96676 -2.22125,-6.0811 -3.74438,-1.0825 -2.98281,3.53403 -7.33011,1.2417 0.95197,-4.39366 1.45966,-1.33722 -6.44161,-0.44572 -3.64917,-2.80176 -3.17321,1.71926 -1.80873,-0.70045 -2.69722,1.78295 -3.90304,0.44572 -3.74439,3.31119 -1.07889,-1.2417 0.50771,-7.0044 -1.52313,-0.57309 -1.61833,5.63537 -4.88675,0.60492 -3.10974,4.83941 -3.58572,1.65558 -6.21948,0.89147 -3.20493,-1.11433 -0.50771,-6.52683 -2.69724,0.35022 -1.30101,-4.36184 4.66461,-8.21424 2.85589,-2.76993 3.55398,-1.17801 0.34906,-3.75689 -2.53857,-3.72508 -5.99734,1.33721 -1.30103,-10.02903 -2.22124,2.4197 -1.99912,-0.70043 -0.95196,1.97397 -5.2358,2.19682 -1.17407,2.22868 -2.7607,-0.6686 -1.5866,1.59191 -3.61745,0.50941 -1.65007,-1.17802 -6.66373,0.28654 -0.44425,1.91029 -1.71354,0.95515 -7.45702,0.63678 -2.12605,2.29235 -0.72984,3.21563 -6.94932,4.36184 -0.92022,3.40668 -5.58486,2.67441 -4.28381,5.4125 -0.8885,-1.56008 -0.69812,-11.20704 1.07891,-3.18382 -2.12606,-12.89446 1.84047,0.0636 2.4751,-2.03765 1.42794,1.84663 0.88849,-0.44575 0.44425,-2.76992 -2.6655,-1.91029 2.37992,-0.0319 0.63464,-3.59771 3.20493,-2.06948 1.36448,-3.12012 1.90393,-0.0955 -1.14235,0.2547 1.04715,0.57309 6.94932,-6.81337 4.2521,-0.28655 -1.30103,-2.54705 1.36449,-3.97978 -1.84046,-1.14616 -0.34906,3.15198 -2.06257,1.3372 0.12686,2.76993 -4.5694,1.78293 -0.47599,-1.52823 -1.17408,0.22287 -0.53946,1.78294 -2.37989,1.56006 -1.55487,-0.60493 -0.82503,1.94213 -1.80873,-1.49638 -1.49142,0.9233 -2.15777,-1.14618 -0.66638,1.71926 -0.82503,-0.38205 1.49141,-6.87705 2.15777,3.59771 1.23756,-0.0319 -0.25385,-3.97976 -1.58662,-2.92911 3.0463,0 1.36447,1.27353 2.76069,-1.40087 2.53856,-5.22148 6.31467,-4.93491 -2.60203,0.79595 -0.76156,-2.19683 -7.17144,6.08109 -3.4588,-1.52823 -2.09431,1.94212 -3.64919,-3.59771 0.76157,-2.38786 -1.17409,-2.54706 -2.28471,-0.60492 -1.23754,1.33721 -1.49141,-1.4964 0.53944,-1.91029 4.1569,-0.15918 -0.19039,-1.46456 1.74527,-0.89147 1.36447,3.37485 -1.42794,1.27352 0.25385,1.62375 2.37992,-1.71926 2.0943,1.56007 -1.23754,-3.85242 1.99911,-1.36904 -1.07889,-1.49639 0.76158,-2.64258 -1.36449,1.17802 -0.88848,-3.66139 1.74525,-1.01882 -1.30101,-0.28654 0.31732,-1.59191 2.98281,-0.47757 2.53856,-2.54706 -1.07888,-1.56007 1.99912,-3.85242 -1.23756,-0.6686 -2.98281,1.94214 -1.52314,-1.08251 0.79331,-2.32418 -2.41164,-2.51522 0.0318,3.05647 -0.98369,-0.50941 -0.8885,2.22867 1.99912,1.65558 -1.777,0.73227 0.0952,2.3242 -2.63377,-0.47758 1.17409,-2.57889 -2.28471,-0.73228 -3.20495,3.6614 1.52315,2.48337 -2.72895,0.22287 -0.92024,1.75109 -2.22124,0.47757 -0.0952,3.56588 -4.6646,2.10132 0.82503,-4.74389 -1.90392,-2.16498 -1.55488,1.14617 -1.45966,-1.17802 4.28382,-6.87704 1.58661,-8.85101 1.20581,0 2.06259,-3.62955 2.69721,-0.60492 2.82416,-4.68022 1.30102,-0.54125 2.09431,2.29235 -1.20582,-2.26051 0.31732,-2.70624 2.95109,-1.62375 -1.33276,-0.0955 -0.82503,1.46455 -1.52313,-2.16499 -0.31732,3.82058 -1.42795,0.60493 -0.57118,-1.11434 -2.57029,3.24749 -1.61834,-1.68742 -0.0952,1.7511 -2.91934,-0.35022 -0.31732,-2.48338 -1.93566,1.81477 -1.93565,-0.12733 1.30101,2.2605 -3.55399,3.59771 -0.92023,-1.84661 -1.55487,0.0955 -1.52314,-4.45735 -1.39621,-0.76412 3.71265,-2.92911 -0.31732,-2.29235 -1.80872,-0.28653 -1.71353,-3.4067 1.87218,-4.10712 -2.85588,-0.50941 -2.95108,-5.38065 0.95195,4.87124 -2.31642,-0.1592 -1.01544,-2.86543 -1.17409,0.0637 -0.0634,1.68742 -2.69724,1.14617 -0.31732,4.29816 -1.04716,-1.14618 0.3808,-2.29234 -1.99913,-1.36905 0.38079,-2.13315 2.53857,-3.916099 0,-3.565875 1.17407,0.573087 0.57118,-1.018821 -2.50683,-0.70044 -1.87219,-5.412488 1.99912,1.273525 1.52313,-0.732277 0.0952,-4.807562 3.07801,0.509411 0.15867,-3.215657 3.10974,2.960951 1.90394,-3.852419 3.30013,-1.273527 -3.49053,0.732278 -0.0634,-2.92911 -1.5866,3.374844 -1.777,-0.604925 -0.88848,-3.884256 1.30101,0.827792 1.61833,-1.36904 0.50771,-3.088302 1.58661,1.082496 0.60291,-1.560069 1.30101,0.604924 0.44424,-0.85963 4.2521,1.973966 3.3636,-1.40088 2.53857,-4.712048 1.33274,1.942128 1.42794,-1.464556 3.04628,0.191029 -0.19039,1.496395 1.61833,-0.795954 0.98371,-2.387862 1.39621,0 -1.42795,-0.286544 -2.28471,2.801759 0.57118,-1.528234 -1.26929,-3.502197 -2.09431,0.12736 -1.30101,-1.623747 2.95108,-2.260511 2.47509,1.432718 0.25386,-1.400879 1.52314,0.09552 -0.25385,-3.406685 3.10974,1.114336 0.31731,-1.209852 2.18952,0.38206 0.50771,-3.056464 4.69634,4.871239 6.79067,1.560071 8.56765,-3.756906 4.41075,1.369043 1.93565,-0.573088 2.06259,-1.432717 1.26928,-3.725065 1.58661,0.732277 1.80872,-0.891468 1.74527,-2.738083 2.41163,1.591908 0.63464,-2.387863 1.52315,2.61073 -1.71354,0.604926 1.65007,1.050659 0.22212,2.706244 -0.25385,-1.273527 3.01454,-0.604924 0.9837,-3.725066 -1.45968,-0.318382 0.44424,-1.846613 3.71266,-1.114335 1.04715,2.483376 2.69724,0.286544 1.39621,2.101319 -0.34906,1.687423 3.64919,2.833596 -0.28559,-1.687423 1.01542,0.54125 -1.6818,-2.005806 0.92023,-1.20985 -0.98368,-3.502198 1.30101,-1.973967 2.79242,-0.191029 0.0952,-0.986983 -2.06259,-0.668601 -1.777,1.114336 -1.2058,-1.305365 -2.50684,1.273527 -1.80873,-2.101319 -3.20493,-1.05066 1.14234,-0.222867 -0.6981,-1.018822 3.4588,-1.050659 0.41251,0.986983 1.04715,-1.337203 2.25298,1.241689 2.34818,-0.445734 1.74527,-1.496395 -0.28559,-1.305363 1.14235,0.6686 0.72983,-2.228672 -6.02908,2.992789 0.0952,-1.146175 -1.45968,0.35022 0.15867,-1.846614 -1.80874,3.120141 -2.50683,0.795953 -1.74525,-1.178012 -1.90394,1.400879 -0.72983,-0.764116 2.50684,-3.884256 -0.76157,-2.642568 2.76069,-1.878452 -2.50683,-3.12014 1.11062,-0.986983 1.55486,1.591909 2.95109,-0.1592 5.9339,-5.253297 0.38077,-2.387863 2.95109,0.445735 -0.0952,2.324185 1.23755,-4.425504 2.60202,-0.668603 1.55488,-3.12014 0.57118,3.47036 1.33274,-0.732277 1.5866,1.273527 -1.80872,-1.91029 1.61833,0 -0.0952,-1.337203 -1.77698,0.03184 1.17407,-5.348812 2.53857,-1.1143362 2.82415,1.0506602 4.1569,-2.8335974 0.12687,-1.5282322 1.90392,0.3183818 z" />
  <path
     id="ES-RI"
     title="La Rioja"
     d="m 1407.7608,215.00314 -9.234,5.53985 -1.5866,0.0955 -2.3482,-2.29235 0,0 -0.5077,-0.50941 0,0 -8.4724,-2.06949 -0.7299,-3.94793 1.1424,-0.98698 -4.5694,-7.09991 2.7607,-1.59191 0.095,-2.19685 -9.2658,-0.5094 -2.8558,1.62375 -1.2059,-4.93492 -3.3318,-1.5919 -10.3764,0.95514 -1.4597,2.41971 -2.4116,0.98697 -2.4117,-0.82779 -0.1586,5.18963 -2.8242,2.03763 -2.8241,6.55867 -3.7444,-1.2417 -4.2204,1.11434 -2.602,-2.10131 -3.5857,0.70043 -0.952,-2.70623 4.0617,-5.95375 0.2221,-2.32417 -2.4433,-2.4834 -1.3962,0.82781 -1.904,-0.73228 -1.5231,1.78294 0,0 -0.2221,0.79595 0,0 -1.3011,7.41829 -3.8078,0.76412 -2.6338,2.48337 -2.7606,-2.67441 0,0 0,-0.92329 0,0 -1.8722,-5.6672 -8.3138,0.2547 -8.2504,-12.89445 2.1578,-1.84661 1.2376,-3.78875 -1.4914,-7.86403 0.9837,-1.43272 0,0 -0.5078,-0.38205 0,0 -0.6981,-2.70624 3.9983,-1.05067 -1.8405,-2.89727 -1.777,-0.0318 0.3491,-3.56587 1.9356,0.0637 -0.349,2.29234 2.1895,3.02463 -0.5712,-6.3358 1.4279,-2.51521 -4.2203,-4.90308 1.6501,-1.78293 0.349,-3.02463 -1.3962,-1.11434 -3.0145,0.60493 -0.8251,-1.05066 2.5386,-1.36905 2.4751,-3.78873 0,0 1.301,-0.31839 0,0 -1.9991,-6.08108 5.6483,1.01881 1.1741,-1.46455 1.9356,1.11434 3.1732,-0.4139 2.9511,2.29235 1.2058,-0.95515 1.1741,0.79596 2.1578,-2.03765 0,0 1.301,1.05067 0.063,2.41969 1.9992,-0.38205 -0.1269,2.45154 -1.777,1.11433 0,0 0.2539,1.27353 0,0 1.65,1.68742 0.3491,-1.52823 1.0471,0.44573 1.9991,-1.78294 1.3011,-4.93491 2.0943,0.0318 4.9819,3.15197 -0.8567,6.39948 0,0 -1.1424,2.76992 0,0 2.4434,-1.05066 -0.095,1.91029 1.9039,0.76412 0.8568,2.35602 3.5858,-2.32419 0.8884,3.59771 2.1578,-2.51521 3.3319,1.20985 -0.5712,-1.40088 2.4116,-2.80175 -0.4125,3.43852 3.2367,0.47757 2.4434,-1.20985 2.3481,0.82779 0,0 1.904,1.94213 4.0617,0.98699 0.6029,1.56007 1.1741,-0.28655 -0.3174,-1.33721 0,0 0.7299,-0.35021 0,0 2.5385,1.30536 0.063,-1.20985 0.8885,0.2547 0,0 0.6029,1.14618 0,0 0.5394,1.24169 2.9828,0.54125 -0.1904,1.20985 2.38,0.79595 -0.1269,0.89147 2.5385,-0.25471 1.3328,1.24169 1.4597,-1.24169 3.7126,-0.19102 -0.5394,2.38786 3.2049,3.59771 -0.7616,2.54707 1.6818,0.38204 4.3791,-2.99279 1.9356,0.70045 2.2213,1.20984 0.4125,2.10133 1.9674,-0.0319 0.9202,1.52822 1.1106,-0.66859 0.3491,3.15197 3.9347,1.40088 -0.1903,4.23448 1.5548,0.28654 0.2856,-1.08249 2.602,1.24169 0.5078,2.32417 8.3772,1.84663 1.2693,2.38786 1.9039,-0.0319 -1.7452,2.26051 1.6818,2.4834 -1.8088,1.27352 -1.4279,0.82778 -3.5223,-2.06948 -2.1577,1.46456 -3.554,-1.68743 -5.8705,7.89587 -1.1741,3.0883 0.603,3.27933 3.903,3.12014 0.7616,-0.54124 0,0 -0.8568,4.61653 z m -98.5597,-74.11925 0.1587,-0.44573 0,0 0.2221,-0.35022 0,0 -0.063,-0.4139 0,0 -0.032,-0.12736 0,0 0.8568,-0.0955 0,0 -0.063,0.63676 0,0 -0.4126,0.50942 0,0 -0.6029,0.31838 0,0 -0.063,-0.0318 z m 4.6329,-0.12736 0.5394,-0.50941 0,0 1.0472,1.30536 -1.6184,-0.63676 0,0 0,-0.15918 z" />
  <path
     id="ES-MD"
     title="Madrid"
     d="m 1199.0591,363.52818 1.428,2.7381 -5.3628,0.31838 0,0 0.1587,-1.9103 2.4751,-1.62374 1.301,0.47756 z m 63.4959,-55.8123 -0.1269,1.84662 2.5703,1.52823 1.8087,4.74389 5.4897,1.33721 -1.1424,4.48919 3.7444,4.68019 -1.7135,1.56006 -2.3482,9.20125 -1.4914,0.0319 1.65,2.9291 -2.7606,1.78294 0.5077,2.54706 -3.6809,6.20844 4.0299,0.47757 1.5232,2.06947 0,0 0,0.35023 0,0 -0.3174,2.96096 1.3963,0.92329 -2.7925,4.52102 2.0309,1.30537 0,0 0.095,0.35021 0,0 1.5866,-0.70042 1.5232,1.30536 1.0154,-2.48338 1.8087,1.56008 0.6029,3.62955 2.0943,1.05065 2.0309,-1.7511 -0.5077,1.14617 0,0 -0.1269,1.27353 0,0 -1.174,0.63676 1.3962,1.49641 -0.7934,1.8466 4.03,2.89728 -1.0789,3.88425 2.1578,0.1273 0,0 0.5077,-0.22289 0,0 2.8559,-0.28654 2.729,2.86544 0.2221,8.18241 3.7126,0.31838 2.1261,3.88426 -1.9039,4.1708 0.9837,2.0058 -3.4271,4.36184 -1.2693,7.22726 1.9674,1.49639 1.9039,-3.34302 3.3002,-2.45153 1.1423,1.24169 1.777,5.53985 -0.6346,4.29815 1.4914,3.56588 -1.7453,-0.66861 -0.5712,2.4197 3.6492,4.0116 -2.7924,3.8206 -3.0463,1.14617 -3.427,-0.35023 -0.5395,-2.96096 -1.6183,1.01884 0,0 -0.2221,0 0,0 -1.2059,2.51521 -5.3944,0.31839 -0.7933,1.05065 -2.3799,-0.60492 -2.602,-3.18382 -3.8079,0.70044 0.1587,2.26051 -1.8722,2.22867 -2.4751,-1.2417 -1.9039,1.05067 -0.1587,-1.33721 -1.8405,0.95515 -3.1414,-0.85963 -1.2376,3.12015 -5.9022,0.85962 -2.4433,2.54706 0,0 -1.3011,0.31838 0,0 0.9837,2.35601 -6.0925,2.19685 -1.0789,-0.70044 -3.0145,1.62374 -1.1107,2.22867 0,0 -0.5711,0.35023 0,0 -3.6175,3.66138 -5.2675,-2.00581 -0.6664,-1.49639 0,0 0.063,-0.44573 0,0 -0.6347,-0.89147 1.7135,-1.3372 1.6501,-0.31839 0.6347,1.30536 2.0943,-2.80175 2.0308,0.92331 2.1895,-2.13316 -0.1586,2.10132 1.0471,-0.82779 -0.476,-1.59191 1.9992,0.89147 0.349,-0.76412 0,0 -0.6981,-0.22287 0,0 -0.4442,-0.95513 1.9356,-0.92332 1.1424,-3.56586 1.3962,0.47756 5.5531,-4.5847 1.2376,-6.04924 -4.7281,-2.45153 -0.4125,-1.46456 -1.8405,1.17801 -2.7924,-1.68742 -1.9357,1.62374 -2.4116,-0.70044 -3.1098,-4.32999 -2.4433,1.81476 -3.4271,-3.343 -3.3636,0 -1.3962,-1.43271 -1.6183,1.62375 -0.3491,-2.67442 -3.3001,0.41391 -2.9511,-2.96096 0.1587,-1.52822 -4.1887,-1.87847 -2.602,2.64258 -3.6809,-0.4139 0.1269,-2.06948 -4.1569,-3.5022 -4.9819,2.54706 -1.9674,4.45733 -2.1578,1.62375 -0.8251,-1.5919 -1.174,0.92331 -0.9837,-1.46456 -1.428,0.0955 -0.5712,-7.95954 -1.9039,-1.17802 -0.4442,3.343 -4.4425,3.34301 -0.2221,2.41971 -6.7272,2.35602 -1.3645,1.9103 -4.2204,-1.9103 0,0 1.6501,-0.85963 -0.7616,-3.9161 3.4271,-3.91609 -1.5232,-5.53984 1.7136,-0.28655 2.1578,3.27933 4.0934,-0.47757 -0.5394,-2.41969 1.9039,-1.05066 -0.3174,-4.17081 1.777,-2.32417 8.6312,-0.47758 -1.6184,-2.96095 2.1578,-3.27932 -1.0154,-7.86403 0.5077,-1.71926 2.7607,-1.59193 0.952,-4.36182 -1.0472,-2.80175 0,0 1.65,-0.0319 0.6982,2.51521 1.4279,0.4139 0,0 1.428,-0.12729 0,0 5.9021,-2.22867 -1.1423,-4.93491 1.2058,-2.48338 0,0 5.5214,-6.81336 2.3164,-5.06227 3.6492,1.33719 4.2521,-0.66861 3.554,-15.91907 1.3962,-0.28655 2.5068,-4.39365 9.71,-3.9161 3.4905,-5.98558 5.4262,-3.343 3.9031,-6.01743 3.6492,-2.61071 4.2838,-0.73229 z" />
  <path
     id="ES-MC"
     title="Murcia"
     d="m 1504.6705,689.90124 -0.6346,3.75692 1.8087,6.52682 -2.2212,-6.14476 1.0471,-4.13898 z m -0.7298,-3.40667 -0.1904,1.91029 1.6501,1.46456 -1.7136,-1.30537 -0.6663,-1.91029 0.9202,-0.1592 z m -137.8441,-27.25347 0.8568,-4.48918 5.4262,-4.52102 4.6963,-10.47476 8.5042,-3.72508 3.0146,-4.2663 0,0 1.1423,-2.10132 0,0 1.5866,-1.17802 5.6166,2.70625 6.3147,-1.78294 10.7889,-6.43131 -0.952,-1.46456 2.1261,0.44575 0.095,-1.46456 2.1895,-0.19104 2.2847,1.9103 1.428,-1.20986 1.6183,1.59191 -0.825,1.68742 0,0 0.032,0.44575 0,0 1.9674,3.1838 6.8541,0.0636 9.5831,-7.19541 -0.1587,-11.8438 -1.4914,-5.76272 0.8567,-2.99278 3.0146,-2.13315 0.349,-7.41831 5.4262,-5.38065 1.6184,-0.57308 2.0626,2.92911 8.0599,-6.62233 0,0 1.0471,-0.50942 0,0 4.3473,-1.36904 5.7753,1.78294 0.3173,3.02462 7.7426,6.08109 0,0 2.1895,9.07388 -2.0626,5.57168 1.0155,2.92911 -6.8224,6.46316 1.2693,0.66858 -0.603,9.3286 9.2023,1.05065 1.904,4.83941 -1.904,9.07388 -4.2521,7.00439 0.5395,4.93491 10.1225,19.32577 6.2512,6.65419 4.1252,2.1013 1.8087,-0.2547 0,0 1.2058,6.20845 -3.1097,-3.08831 -1.6818,4.48919 -3.5223,3.05646 -1.3962,3.12014 5.2676,7.0044 5.3944,2.89727 1.8722,-2.51521 1.3328,2.22868 1.2692,-0.1273 -2.8559,3.47037 -5.2675,1.27351 -3.2366,2.19684 -2.1578,-1.0825 -2.7607,0.73229 -3.6492,2.6744 -3.7126,-0.73227 -0.3808,-0.85963 1.8087,-0.25471 -2.5386,-0.60493 -0.825,-1.33719 0.825,-1.01884 -1.65,-0.35021 0.4442,2.165 -1.7453,-0.44575 -1.301,1.40088 -4.3473,-1.20984 -3.1414,1.71927 -1.4597,1.81476 1.3962,1.94213 -4.7915,-0.76412 -0.476,-2.0058 -2.7924,-2.06949 -3.6175,-0.28654 -0.9837,2.06948 -6.0608,-0.54124 -6.4099,6.04924 -5.0771,2.22869 -2.3482,6.97256 -2.8241,-0.92331 -3.681,2.92911 -2.9193,0.47758 -2.7607,2.80175 0,0 -9.3927,-7.38646 -6.505,-1.17801 0.1268,1.97396 -3.1097,-2.29235 -12.9467,-21.01319 0,0 -0.5712,-0.6049 0,0 -0.9519,-5.22148 1.4914,-2.9291 -1.1741,-5.25331 1.1741,-7.29094 1.8087,-2.51521 -0.6346,-0.8278 0,0 -0.5395,0.0319 0,0 -1.5549,-0.66861 -1.3962,1.24169 -3.5222,-1.62374 -1.904,1.11433 -3.3953,-2.99278 -4.1569,1.30536 -6.9493,-5.41249 -3.9665,-7.09992 -3.3636,-2.57888 z" />
  <path
     id="ES-NC"
     title="Navarra"
     d="m 1425.3087,57.245025 2.5703,0.573088 -0.5712,2.833596 1.9356,3.693227 2.7607,0.254705 1.7136,-3.438522 -0.5395,-1.114336 4.2204,-0.6686 4.4742,2.674406 4.3156,-0.159183 2.5703,2.451538 0,7.418295 -1.6818,1.369041 -1.1107,5.921899 -5.0771,4.648372 2.8559,4.966753 7.457,2.10132 0.825,-7.83219 2.1261,-2.196832 4.2204,-0.604926 -3.3636,5.794546 3.9982,3.024626 4.2204,-1.018821 5.9973,3.311168 0.2222,1.910291 2.4116,-1.878451 2.8876,2.801758 5.9656,0.955145 1.3328,2.06948 4.5694,2.515216 3.2684,-1.20985 0.8568,1.050659 7.5205,0.445735 4.6963,-2.005805 2.0943,2.674407 -0.5712,1.27353 1.1107,1.78293 0,0 -4.982,-0.22286 -2.9828,2.2605 -0.2538,4.01161 -3.1733,2.51522 -0.349,5.60352 1.0472,1.43272 -1.4597,2.83359 -3.078,0.25471 -0.032,2.03764 -1.9357,-0.0318 -3.9982,4.71205 -4.8868,0.35022 -1.2058,1.11434 -0.032,5.15778 -9.71,-0.12736 -0.3808,4.32999 -1.9039,-0.0637 1.777,1.46457 -3.7444,2.51521 -0.1269,3.40668 0,0 -0.4442,0 0,0 -1.8087,0.79596 -3.0463,-1.68743 -2.0309,3.94794 1.0472,5.66719 -5.5848,5.95374 -1.5549,5.34881 2.0943,0.85963 0.4443,1.91029 -5.9974,7.29094 0.6346,2.10132 -2.2212,6.27211 2.1578,4.58471 -0.6029,6.33578 2.7924,2.32419 1.2375,3.88426 2.6655,0.0636 0,0 0.8885,-0.0955 0,0 0.5077,3.5022 -2.951,2.96095 -3.7762,7.0044 0.2856,1.56008 -2.4116,2.86543 -7.9648,-0.47759 0,0 -1.0154,0.95516 0,0 -1.65,0.50941 0,0 -2.0944,-0.41389 0,0 -8.3138,-5.8264 -5.3944,0.987 -4.5377,-4.42551 -5.9339,0.0955 -0.8885,-1.75109 0,0 -0.7616,0.57309 -3.903,-3.15199 -0.6029,-3.2475 1.1424,-3.12014 5.9021,-7.86403 3.5223,1.68743 2.1577,-1.46455 3.5223,2.06947 1.428,-0.82779 1.8087,-1.27352 -1.6818,-2.48337 1.7452,-2.26051 -1.9039,0 -1.301,-2.38787 -8.3773,-1.84661 -0.5077,-2.32419 -2.602,-1.24168 -0.2856,1.05065 -1.5549,-0.28654 0.1904,-4.20264 -3.9348,-1.40088 -0.3173,-3.15197 -1.1106,0.6686 -0.9202,-1.4964 -1.9357,0.0319 -0.4442,-2.13316 -2.2213,-1.20985 -1.9039,-0.70044 -4.379,2.99279 -1.6818,-0.38206 0.7933,-2.54705 -3.2367,-3.59772 0.5395,-2.38786 -3.7127,0.19103 -1.4597,1.24168 -1.3327,-1.24168 -2.5386,0.28654 0.095,-0.89147 -2.3482,-0.82779 0.1904,-1.20985 -3.0146,-0.54125 -0.5394,-1.20985 0,0 -0.5712,-1.14617 0,0 -0.9202,-0.25471 -0.063,1.20986 -2.5385,-1.30538 0,0 -0.7616,0.35023 0,0 0.3491,1.3372 -1.1741,0.28654 -0.6029,-1.52823 -4.0617,-0.98698 -1.904,-1.94213 0,0 -0.063,-2.45154 2.6338,-0.82779 -0.3491,-9.45594 -2.253,-0.9233 -2.5385,4.45734 -0.9203,-2.29235 -2.3799,0.0955 -0.7615,-3.43852 1.4596,0.38206 2.6655,-3.94794 3.1098,-1.84661 2.7607,0.70044 0.9519,1.56007 -0.7933,1.05067 7.6792,-2.06949 0.2856,-1.87845 -0.3808,-1.14617 -1.4914,0.63676 -1.1106,-6.01742 0.6029,-1.84661 4.728,-1.11433 -1.5548,-4.52102 4.0934,-6.36764 -0.825,-5.34881 0,0 -0.6981,-1.01882 0,0 1.0154,0.0318 0.1269,-3.40669 2.3481,-3.02462 2.5386,1.68742 4.6011,-0.57308 1.9992,-0.95515 1.1106,-3.024625 4.4742,-0.795955 0.952,-2.06948 -1.1741,-3.916096 1.7452,-1.942129 0,0 0.2222,-1.082497 0,0 0.476,-1.942128 5.6165,-2.897272 3.8713,-4.489182 -1.5231,-2.069482 0.5394,-8.468952 2.7607,1.973967 0.5077,-2.769922 1.2693,2.324188 1.0154,-1.369043 0,0 0.7299,-0.159184 0,0 4.0617,-2.483376 0.1587,-3.629552 0,0 0.9519,-1.082498 0,0 0.1904,-0.222867 0,0 1.301,0.12736 0,0 2.8559,-1.591908 0,0 3.2367,-1.591909 z" />
  <path
     id="ES-IB"
     title="Balearic Islands"
     d="m 1692.5243,579.64567 1.5231,2.51522 1.3645,-0.31839 0.5077,2.8336 3.2684,2.73809 1.1741,0.54125 3.3635,-2.10132 1.3963,2.54704 -1.0155,1.91029 -4.2203,-0.15919 -3.2049,-2.73809 -3.3954,-0.79596 -5.4579,4.87125 -0.4125,-8.65999 1.3962,-1.7511 0.7933,0.76411 1.8405,-0.98697 0.5712,-3.88425 0.5077,2.67439 z m -1.4597,-5.47616 0.8885,2.45154 -1.3327,-1.11434 0.4442,-1.3372 z m 9.7735,-35.5314 1.9039,2.64258 4.03,0.31838 -0.5395,0.85963 1.0155,0.41388 -1.5867,0.44575 -0.2855,1.40088 2.8559,3.91609 -3.1415,1.36904 -0.3491,2.86544 -4.03,0.66859 -0.2855,3.05647 -0.952,0.31838 0.7616,0.85963 -1.5866,-0.19102 -2.8876,3.75691 -1.7136,-0.50943 -0.032,1.56008 -1.4596,-1.43272 -0.1269,1.46457 -1.5231,-0.0636 -1.428,2.99279 0.2539,4.96676 -1.8722,-1.17801 -1.1741,1.30536 -2.3165,-4.39367 -2.0943,1.59191 -0.1586,-1.14618 -1.7136,0.50941 0,-1.49638 -2.2847,-0.41391 -2.0625,2.57889 -2.0626,-1.71926 -0.952,-3.47036 1.9674,-4.10712 -1.8087,-2.13315 1.2058,-1.78294 1.3645,0.9233 5.2992,-0.70044 -1.9039,-2.22867 1.2058,-1.8466 -0.4125,-2.48338 4.1569,-2.41971 1.4914,-2.29235 1.4597,1.27353 1.1106,-1.91029 2.4751,0.19103 0.6346,-1.59191 1.3645,1.24168 4.03,-3.24748 0.9202,1.30536 0.8568,-1.68742 2.3799,-0.35023 z m 122.4539,-5.18962 1.9357,0.66861 -1.6818,1.20984 0.095,2.29235 -3.1732,-0.0636 -0.3808,-3.82057 1.2694,2.03764 -0.1905,-1.30537 1.777,0.66861 0.349,-1.68743 z m -53.7857,-47.216 -2.3799,1.68742 2.9828,-2.96094 -0.6029,1.27352 z m 76.0934,-41.73984 -0.8568,1.75111 -4.0935,2.32417 -2.0307,-0.41389 -1.777,3.15199 -1.6183,-1.36904 -1.0473,1.17799 0.2857,2.64258 1.8405,2.10131 8.5042,-3.53402 -1.2694,0.98698 0.6663,2.29233 -1.5865,2.29235 -4.7597,0.66861 -0.063,3.4067 1.6502,2.96094 2.4116,2.22866 7.2983,3.12015 6.5052,-3.43853 1.6499,-3.31116 7.4254,4.99859 2.2848,-0.19103 -0.5394,2.76992 2.2528,0.82779 -1.9991,1.11433 -0.063,5.47618 -1.2376,-0.0636 -0.4124,2.45154 -2.5069,-0.2547 -1.2058,1.68742 -0.6981,3.56587 1.5549,1.17801 -2.1896,0.44575 -0.9202,2.70624 -3.1098,1.43271 0.6981,0.44574 -4.5694,5.41249 -1.1105,8.02321 -1.0789,-1.11434 0.5394,1.05067 -2.6656,5.18962 -0.9836,0 0.6347,0.63676 -3.9348,1.30536 -1.428,2.76993 -2.126,-0.38206 -6.4417,6.81336 -1.9355,0.38206 -3.1732,-4.9349 -2.3801,-0.66861 0.2857,-2.48338 -2.6656,-2.70625 -2.4751,-0.19102 -1.396,1.40087 -2.5704,-1.52822 -4.1252,-0.22288 -0.5711,1.2417 -1.9041,-1.20986 -1.6817,0.47759 -3.9982,-4.93493 0.4442,-3.91609 -2.1578,-3.85241 2.2848,-3.88426 -6.7906,-5.69904 -3.078,0.1592 0.7931,-0.70043 -0.9202,-0.12729 -0.7933,2.06949 1.428,-0.47758 -0.6663,0.95515 -2.253,-0.73227 -1.3644,2.32418 -4.4108,0.79596 0.6663,1.40087 -1.1741,0.70044 -0.9203,5.31697 -2.7924,-1.65559 -1.2376,0.73229 0.2539,-2.80175 -1.9673,-1.59192 2.0308,-1.33721 -2.3799,-2.13315 -2.8241,1.56007 0.2855,-1.5919 -1.4596,0 -1.5549,1.87844 0.032,-1.4964 -2.1896,0.19105 2.3165,-1.62374 -1.5231,0.25469 -2.2212,-2.29235 0.8567,-4.52101 9.1388,-5.34882 5.7752,-5.57168 2.3482,0.12729 2.6655,-1.8466 2.8876,-4.45735 3.7444,-1.84662 0.5078,-2.19682 1.0789,-0.73228 1.0154,0.95514 0.5394,-2.22868 6.5368,-3.24748 0.2537,-1.75111 5.8071,-0.60492 0.7615,-1.52823 7.0446,-3.2475 1.2693,-1.87844 2.8241,1.30536 5.1724,-3.2475 -0.3492,0.85964 1.9675,-0.31838 -0.095,1.46456 2.8243,-1.75111 2.2846,0.4139 3.9348,-3.12014 1.301,-0.12729 -0.5712,1.0825 3.3319,-1.01882 z m 82.535,12.38506 -11.3917,-7.51381 -6.5368,-2.51522 -5.1723,1.78294 -6.5368,0.0636 0.8566,-8.91468 -3.0462,0.3502 -0.6028,-2.45153 2.6972,-3.50219 3.8395,-0.73229 2.6972,-0.19103 1.9991,1.56007 1.0473,-1.91028 3.8712,1.33719 4.5694,-1.62374 1.8405,1.52823 3.0463,-1.87844 -0.6347,-2.29235 1.4915,0.35021 -0.5394,2.96096 0.9518,1.68742 2.5704,-2.10133 -0.5395,4.17082 1.1741,-0.95515 -0.3173,-3.59771 3.078,0.70043 -1.0155,2.92911 1.8088,1.40088 1.1424,-1.14617 0.8884,4.39367 0.1581,-2.22868 1.0789,1.81479 4.3156,0 -1.2376,0.44572 0.9838,1.20985 -1.0154,2.00581 1.2692,0.54125 -0.3808,1.46456 1.301,-0.54126 0.4444,4.36184 1.9356,1.56006 0.1904,2.03765 1.4596,0.44572 -1.4596,0.70045 -1.2376,-2.32419 -3.3319,-0.57309 3.3637,1.65558 0.9518,1.81479 -0.3171,3.72506 -2.6972,2.61073 -5.5532,-1.78293 -3.4589,-2.8336 z" />
  <path
     id="ES-PV"
     title="Basque Country"
     d="m 1327.7961,41.134912 2.8558,-1.178013 1.0155,3.183819 4.0934,2.76992 3.9031,-1.178012 2.475,2.897273 1.428,-0.35022 1.4914,1.496394 1.8722,-1.018822 1.1106,2.005805 3.4271,-0.382059 4.1569,4.839402 9.1388,4.393667 6.2195,0.413896 4.7281,-1.91029 1.9039,0.827793 0.2856,-0.923307 1.1106,2.260509 2.8559,0.89147 10.9158,-4.107124 3.3953,0.636762 -0.1586,-1.178012 2.7289,-1.496392 3.9348,0.191028 5.8387,-5.094107 5.0137,-1.910291 0.7298,3.916096 -2.1895,1.337202 4.2204,0.891469 1.8087,1.59191 0.5077,3.693226 0,0 -2.8559,1.591908 0,0 -1.301,-0.127361 0,0 -0.1904,0.191029 0,0 -0.9519,1.082498 0,0 -0.1587,3.66139 -4.0617,2.483376 0,0 -0.7299,0.159183 0,0 -1.0154,1.337202 -1.2693,-2.292347 -0.5077,2.738082 -2.7607,-1.942129 -0.5394,8.468954 1.5231,2.06948 -3.8713,4.457343 -5.6166,2.897275 -0.4442,1.942128 0,0 -0.2221,1.082496 0,0 -1.7453,1.910291 1.1741,3.916094 -0.9202,2.069482 -4.506,0.795953 -1.1106,2.992789 -1.9991,0.95514 -4.6012,0.57309 -2.5385,-1.687422 -2.38,3.024632 -0.1268,3.40668 -1.0472,-0.0318 0,0 0.6981,1.01882 0,0 0.8251,5.34881 -4.0935,6.36763 1.5549,4.52103 -4.7281,1.11433 -0.6029,1.84662 1.0789,6.04925 1.4914,-0.66861 0.4125,1.14618 -0.2856,1.87845 -7.6791,2.06948 0.825,-1.05065 -0.9837,-1.56008 -2.7289,-0.70044 -3.1098,1.84662 -2.6655,3.97977 -1.4597,-0.4139 0.7616,3.47036 2.3799,-0.0955 0.9203,2.29235 2.5385,-4.45735 2.253,0.89148 0.349,9.48777 -2.6337,0.82779 0.063,2.4197 0,0 -2.3482,-0.82779 -2.4433,1.20984 -3.2367,-0.47757 0.4125,-3.43852 -2.4116,2.80176 0.5712,1.40088 -3.3319,-1.20984 -2.1578,2.51521 -0.8885,-3.59771 -3.5857,2.32419 -0.8568,-2.35604 -1.9039,-0.76411 0.095,-1.91029 -2.4433,1.05066 0,0 1.1423,-2.76992 0,0 0.8568,-6.39947 -4.9819,-3.15198 -2.0943,-0.0318 -1.3011,4.93492 -1.9991,1.78293 -1.0471,-0.44574 -0.3491,1.52824 -1.6501,-1.68743 0,0 -0.2538,-1.27352 0,0 1.777,-1.11434 0.1268,-2.45154 -1.9991,0.38207 -0.063,-2.41971 -1.301,-1.05066 0,0 -2.6655,-1.20984 -0.9203,-2.22868 0,0 0.2222,-0.22286 0,0 -0.4443,-2.76992 -2.4116,-1.65559 -4.3156,0.44573 -3.1414,-3.91609 0,0 0,-0.4139 0,0 -2.1896,0.15918 -0.5711,-3.05646 -8.4725,0.92331 1.9991,-3.72507 -2.9193,-1.81477 4.3155,-7.95954 -0.8885,-2.45154 -3.3318,4.13896 -2.9511,-1.46456 -2.602,3.56588 1.3327,1.30536 -0.825,0.15919 -6.0926,-6.52682 5.2358,-7.991388 6.8224,1.814778 -0.1904,1.91029 4.8867,2.19683 6.2513,-1.05066 3.3953,-3.53403 -5.331,-3.756908 0.4125,-1.273528 -2.126,-2.547053 -7.2032,-0.477573 -2.6972,-1.751098 3.0145,-0.923306 0.063,-4.457345 -1.428,-0.827792 1.9674,-2.738083 -0.6346,-1.464554 -0.9203,0.636762 -2.4751,-1.687423 3.3636,-5.794546 -2.0625,-1.337203 -4.6964,0.700439 -2.6972,-3.120141 -14.1525,7.609322 0,0 -1.4597,-8.914686 0,0 -0.5712,-0.891468 0,0 -0.6981,-2.260511 4.4108,-1.20985 1.3327,-2.833597 3.7762,-0.923307 0.6346,-2.674405 0.7933,0.955145 2.3799,-0.923306 1.3645,1.241686 4.6329,-2.22867 1.3327,2.960949 1.5866,-1.751098 2.8876,-0.38206 0.3491,-6.176604 0,0 2.2212,-0.191028 1.0154,1.36904 0.603,-2.356024 1.0154,0 4.379,2.897274 1.2375,-0.891469 -0.9519,0.85963 2.0308,1.591908 0.5395,-2.706244 -1.9674,-3.024625 2.7924,-1.05066 2.9511,-3.565875 2.0309,0.03184 -0.032,-2.76992 11.8677,0.668601 2.0309,-1.687423 z m -43.1874,29.386629 -1.9039,-6.43131 3.4588,-1.623746 1.4914,0.827791 -1.7135,3.343008 0.095,3.343008 0,0 -1.4279,0.541249 z m 38.6497,47.852769 0.2221,0.0637 0,0 0.3173,0.54126 0,0 0.5077,0.44573 0,0 7.933,-0.92331 7.584,3.34301 3.4905,-0.60493 1.2058,2.3242 2.6338,-1.43273 -1.3327,4.55286 -1.2693,1.49639 -0.952,-0.44573 -0.7615,2.19684 2.7606,3.31117 4.6964,-1.81478 0.476,4.42551 -2.6655,0.85962 -0.5395,-1.24169 -7.0127,0.22288 -1.9992,-2.89728 -3.903,-0.19103 -1.2058,1.40088 -4.2521,-0.47757 -1.5232,-3.75691 -3.3953,-1.20984 -3.8713,-3.62956 2.602,-4.90307 0,0 0.2539,-1.65559 z" />
  <path
     id="ES-VC"
     title="Valencia"
     d="m 1442.8882,423.89336 4.0617,0.57309 0,0 0.9837,0.57308 0,0 1.5231,-0.63675 1.9674,0.95514 0,0 1.5549,-1.36905 0,0 1.428,-0.63677 -0.032,-5.66719 1.7135,-1.46455 0.095,1.01882 0,0 0.5395,1.36904 0,0 1.3644,3.343 2.5703,1.59193 0.032,3.24748 8.3772,0.41391 6.0926,4.90306 0.5394,2.19683 -1.0471,1.4964 -7.0446,2.89729 0,0 -7.1397,1.81476 -2.2847,-0.73227 0,0 -0.1587,-0.31838 0,0 -8.4407,-1.0825 -3.8713,-8.65998 0.8885,-0.85963 -3.7761,-2.7381 0.063,-2.22866 z m 26.7184,19.42127 1.5232,1.05067 0.6663,-1.178 2.0626,0.47756 1.7453,-1.2417 7.2031,-0.22286 4.7916,2.70624 1.0154,-0.89145 1.3962,2.83359 -0.7615,2.4197 1.0788,3.12015 -0.9519,2.0058 3.6492,2.76991 6.4416,-3.82058 -3.5858,-4.80755 0.1904,-5.98558 4.6329,-1.87845 2.3165,-5.89006 6.2195,0.22287 4.3472,-3.37485 1.3962,0.41389 -1.1423,-3.69324 1.5866,-2.61071 2.6338,-1.2417 3.0462,-12.92629 4.379,2.67441 5.7436,-1.7511 3.7443,-2.26052 -1.4914,-3.43852 0.952,-1.30536 1.9991,0.0955 2.3482,-3.94793 5.0137,-2.89727 -0.476,-2.51523 -5.1724,-6.24028 1.1107,-1.71927 5.331,-2.13314 -0.3808,-2.5789 -2.0626,-1.78294 0.6029,-10.85681 -2.6338,0.79596 -3.9347,-1.20985 -0.8251,-5.95374 4.2204,-1.5919 1.9356,2.19683 6.1243,-3.47037 0.5077,-5.63535 2.9511,-4.90307 4.4742,-0.1592 0.095,1.97396 3.078,2.73808 3.903,1.84663 3.4588,-0.28655 0,0 1.7135,-0.0955 0,0 1.7136,0.57308 0,0 0.032,0.35023 0,0 1.0154,3.18382 0,0 1.0154,0.38205 0,0 5.8387,-4.04343 3.3636,0.89145 1.9674,-1.65559 0,0 2.3799,1.11434 2.4434,-0.95514 0.9837,3.59771 0,0 0.476,0 0,0 1.9991,-0.2547 0,0 0.8567,0.85963 0,0 0.2539,0.28654 0,0 0.6346,0.25471 0,0 -1.7452,5.18961 1.301,1.78295 5.0454,2.35602 5.3944,0.6686 3.554,2.76991 -0.4125,3.47037 6.5368,2.80176 0,0 -3.2049,7.29094 -0.1587,-0.85963 -4.8867,7.51381 -0.7933,4.83939 -7.1397,9.23308 -3.3636,2.57889 -1.8088,5.03043 -6.2512,4.01162 -4.1886,10.50658 -8.409,5.53985 -4.7281,13.181 -5.1088,6.20843 -1.5549,0.1273 -8.4407,14.00879 -2.6021,8.94652 -4.4424,4.99859 -4.9502,10.88867 0.1586,6.81335 -1.2058,-0.92329 1.0789,1.8466 -1.4279,0.66861 2.6654,11.6846 7.7109,16.17379 -1.9673,1.36903 0.1903,3.47037 6.6638,16.52401 11.963,13.181 12.5659,2.80176 -1.3645,0.44575 0.6029,0.95513 0.4442,-0.9233 0,1.24168 6.6003,3.343 -1.2693,1.2417 0.6981,2.165 1.6501,1.52823 1.2058,-0.47758 0.8568,3.0883 -4.4425,1.75111 -2.8242,4.39365 -1.777,-0.66859 -2.6972,1.52823 -2.126,2.99279 0.7933,1.59191 -2.9511,-1.14617 -1.6818,1.78294 -2.7924,-0.54125 -2.2847,1.36904 -2.9829,4.39366 1.1107,1.78294 -4.03,4.23448 -4.6646,-1.24169 -1.8722,2.16498 -9.8369,3.12014 -7.6475,5.03044 -2.4751,4.26632 0.032,5.69903 -3.6809,-1.08249 -3.7761,3.94793 0.825,-1.84662 -1.9356,0.92331 -1.3328,5.73086 0.9203,8.56447 -1.2693,1.52824 -6.0608,0.1273 -1.8722,1.91029 -2.3799,7.83218 -0.3808,10.82499 -1.7453,2.83359 -2.8241,0.95515 -1.8722,6.08109 -2.6655,1.49638 -0.9837,5.47618 0,0 -1.8087,0.2547 -4.1252,-2.10132 -6.2512,-6.65418 -10.1225,-19.32576 -0.5395,-4.93491 4.2521,-7.00441 1.9039,-9.07387 -1.9039,-4.8394 -9.2023,-1.05066 0.6029,-9.32859 -1.2693,-0.66861 6.8224,-6.46315 -1.0154,-2.9291 2.0626,-5.57167 -2.1895,-9.07388 0,0 5.5214,-0.0955 4.0934,-4.36182 -3.9665,-8.43712 2.8559,-1.33719 0.4442,-4.33001 -1.1106,-3.53402 1.0154,-4.13896 -2.0943,-1.87847 -0.952,-3.78873 -3.5539,-0.63677 -2.7925,1.71927 -9.5513,0.60493 -7.0763,-10.63396 -3.2049,-2.38786 0.6664,-6.71785 6.3464,-11.52543 1.65,-10.66578 -3.9347,-2.16499 -1.0155,1.05065 -2.8876,-1.11433 0,0 -0.5077,-0.2547 0,0 -1.8087,-0.22286 0,0 -0.5077,0 0,0 -2.9828,-1.11434 0,0 -0.5712,-0.1592 0,0 -0.7299,0.92331 -2.6655,-2.45153 -1.4913,0.12728 0,-1.40088 -2.1261,-0.1592 0.9202,-0.98699 -2.1895,-0.50941 -0.1587,2.06949 -0.1903,-1.05065 0,0 -0.1904,-0.50943 0,0 -2.1261,1.56008 0,0 0.3808,-0.19102 0,0 0.1587,-1.52824 -1.5866,-0.57309 1.2375,-0.0319 -0.6029,-1.94214 0,0 -0.2221,0.19103 0,0 -1.2058,0.66861 0.825,-1.01882 -1.9357,0 0.5712,-2.06949 -1.9039,0 0,0 0.6346,-0.7641 0,0 -1.9991,-0.28655 -0.7298,-2.57889 1.301,-0.47757 0.8568,-2.22867 -0.7616,-2.00581 1.1106,-0.50941 -0.3173,-5.22147 -1.5231,-0.28654 4.9819,-3.02462 5.0454,-9.99718 2.9511,-2.51522 2.4751,0.9233 0,0 2.3164,1.11434 0,0 3.0463,-0.9233 1.3962,-2.16501 -1.1106,-4.45733 5.0771,-7.70483 1.4597,-10.66579 0,0 0.2856,-1.36904 0,0 -1.2376,-2.22869 0.5712,-1.84661 5.6483,-2.54705 z" />
  <path
     id="ES-CE"
     title="Ceuta"
     d="m 1107.328,891.40612 -0.3179,0.18386 -0.4386,0.66452 -0.2653,-0.0394 -0.21,-0.31256 -0.2758,0.23637 -0.239,-0.0289 -0.4334,-0.56207 -0.9797,-0.39135 -0.4045,-1.44987 0.022,-0.95346 -0.4335,-0.73805 0.2652,-0.37561 1.1924,-0.20749 0.7883,0.71704 0.5986,0.2758 0.1918,0.63301 0.8352,0.82472 0.2364,0.0394 0,-0.18912 0.696,-0.56733 0.1655,0.239 -0.1181,0.21801 0.6329,0.7302 0.3625,0.10505 0.6592,-0.42025 0.2811,0.05 0.1445,-0.81424 0.7433,-0.4728 0.1156,-0.29153 0.4965,0.68291 0.3808,0.0183 -0.055,0.68028 -0.2207,-0.0238 -0.3887,0.48854 -0.4965,0.19174 -0.2415,-0.0762 -0.901,0.52532 -1.0611,-0.32045 -0.712,0.8983 z" />
  <path
     id="ES-ML"
     title="Melilla"
     d="m 1313.1226,951.20883 0.4623,0.22354 -0.1451,0.7794 0.6132,0.51958 0.3566,0.69481 0.3353,0.26886 0.5557,0.0604 0.1058,0.27792 -0.027,0.19033 -0.1057,-0.29304 -0.2598,0.0845 -0.2084,-0.25072 -0.4742,0.24166 0.148,0.37157 -0.2447,0.0876 0.018,0.56189 0.4079,0.61626 0.3896,0.12386 -0.1752,0.34438 -0.719,0.39877 -0.8397,0.15707 -0.6495,-0.83376 -1.0242,-0.78846 0.061,-0.54375 -0.3172,-0.81565 0.8036,-2.28682 0.7461,-0.50448 z" />
</svg>
