<?xml version="1.0" encoding="UTF-8" standalone="no"?>
<svg
   xmlns:mapsvg="https://mapsvg.com"
   xmlns:dc="http://purl.org/dc/elements/1.1/"
   xmlns:cc="http://creativecommons.org/ns#"
   xmlns:rdf="http://www.w3.org/1999/02/22-rdf-syntax-ns#"
   xmlns:svg="http://www.w3.org/2000/svg"
   xmlns="http://www.w3.org/2000/svg"
   version="1.1"
   id="svg2"
   mapsvg:geoViewBox="29.3399999 -0.984397 40.4449653 -11.761254"
   width="2638.7319"
   height="2567.5276">
  <metadata
     id="metadata37">
    <rdf:RDF>
      <cc:Work
         rdf:about="">
        <dc:format>image/svg+xml</dc:format>
        <dc:type
           rdf:resource="http://purl.org/dc/dcmitype/StillImage" />
        <dc:title></dc:title>
      </cc:Work>
    </rdf:RDF>
  </metadata>
  <defs
     id="defs35" />
  <path
     id="TZ-29"
     title="Njombe"
     d="m 1415.9018,1916.9432 -22.4579,-1.3211 -22.4909,-16.0838 2.6421,-42.835 -56.8712,-20.047 0,-12.0546 -33.5877,-10.2381 -5.9447,15.6214 -5.3172,3.699 -7.7612,-0.9248 -8.8841,3.2696 -7.596,5.3833 -6.2089,12.517 -8.3227,8.884 -10.9977,4.3925 -12.2197,0.2642 -22.7551,-3.2696 -23.6798,5.8126 -13.6399,0.3303 -13.871,-1.288 -12.0216,4.9539 -2.4439,6.8695 -6.6053,2.1797 -17.5039,-6.0438 -12.9133,2.5761 -9.7757,8.7519 -13.6068,22.2927 1.3871,11.3941 7.8932,9.1483 5.4824,10.1721 3.9962,10.8326 -5.0531,2.7081 -1.288,4.987 8.0915,1.7834 2.576,3.2036 0.6275,7.5299 5.3172,6.9025 12.9794,22.4909 7.1667,9.8418 4.4255,1.9486 4.7888,0.6605 9.5446,9.5776 -0.9248,7.8603 0.3303,0.1981 2.2458,2.6752 3.2696,1.8494 8.0584,9.8088 1.7834,1.0238 4.0953,4.4916 6.8364,3.1705 23.0854,24.4725 7.0676,2.576 1.4862,3.1706 0.5944,4.2934 1.189,4.5576 1.354,1.9155 5.2842,5.4824 1.0899,0.5945 4.2604,4.1613 0.2972,0.9908 23.6468,29.4594 2.7082,4.9539 7.1337,10.1061 2.7742,8.2565 0.2972,2.6091 -0.4624,2.7412 -2.1136,4.7227 -0.4954,2.3779 1.8164,8.2236 7.8603,17.7681 2.2457,12.8142 1.9816,5.2511 0.5284,2.9724 -0.066,2.5761 -4.8218,26.3219 1.0568,5.1851 4.5576,7.6621 1.0238,4.4916 -0.5284,2.2788 -2.2127,5.4163 -0.4624,3.1045 0.1321,1.288 0.5284,-0.033 6.1099,-1.156 2.9393,0.6606 2.7412,1.8164 7.4309,-0.4624 6.7043,-3.0384 20.5093,-13.2765 10.9317,-15.4563 17.5039,-8.6199 20.3442,-15.8196 1.222,-15.8195 5.6805,-6.242 7.9924,-2.9063 8.6859,0.066 8.5207,-1.8164 3.0054,-8.0914 19.9479,-27.8412 -2.2788,-15.7865 -9.3795,-13.772 0.7596,-11.7573 -3.6329,-8.5868 -5.2181,-4.921 -4.3925,-6.5392 2.2788,-6.5392 7.8272,-4.2934 17.2728,-7.1336 23.0853,-24.7037 15.3903,-8.2896 20.6083,-19.2213 9.0162,-5.8786 7.1337,-7.4309 9.0492,-5.7136 10.8656,-5.2512 8.5208,-6.2089 7.1337,-6.8695 -0.6936,-11.427 -3.2696,-10.9317 -44.8827,-35.4042 -16.2489,-24.8688 -5.086,-2.4439 -3.9632,3.3357 -4.4585,2.1467 -17.3388,5.7796 z" />
  <path
     id="TZ-27"
     title="Geita"
     d="m 756.26831,524.88634 20.47628,-56.40885 -20.70747,-17.37182 6.01078,-18.03233 -41.34887,-24.04312 12.64905,-24.07614 -40.02782,-6.67131 -7.33183,-10.00695 -12.25274,-4.12829 -9.77578,-6.57222 -15.32418,-10.00696 -18.03234,-9.34643 -6.6713,-5.35025 -3.99618,-7.33183 0.66052,-6.01078 -2.67512,-5.35026 -4.6567,-4.52459 -0.95777,-7.49697 -1.84947,-12.21971 -4.35946,-14.26735 -13.87103,5.9117 -17.1076,1.78342 -3.03842,4.22736 1.42013,6.90249 0.39631,4.72276 -1.42012,4.35946 -1.71737,1.78342 -0.0661,2.41092 -10.40327,4.98696 -11.92248,12.35182 -16.41405,-0.66052 -47.55782,-20.8726 -10.83261,-1.68434 -12.51695,4.19434 -15.85261,2.50999 -7.49696,-1.68433 -35.04086,60.10779 -25.85956,12.51695 -8.32262,23.38259 10.83262,11.6913 11.69129,10.00695 2.87329,14.99392 9.97393,3.96316 5.54841,10.53537 0.26421,3.69894 1.78342,2.87329 1.91552,0.82565 1.12289,1.81645 0.4954,17.93326 -6.60526,17.04155 -8.98314,13.87103 -0.46237,13.14445 2.08066,2.47697 2.90631,0.033 3.4017,-4.0292 4.49157,-2.84026 12.4509,9.21433 2.67513,17.1076 6.04381,16.51313 4.35946,8.19051 5.08605,7.59604 0,-0.0661 0.33026,0.6275 4.06223,8.0584 -0.7596,8.81802 1.02381,7.52998 2.17973,8.19051 0.52842,16.31498 5.74657,14.89484 13.30958,12.68208 14.3334,31.54008 4.16131,19.41944 -1.32105,11.55919 -7.86025,21.96246 -0.66053,11.72433 1.94855,7.2988 0.95776,7.52999 2.84026,3.53381 0.75961,4.19433 5.05301,12.3188 7.86025,12.48392 5.41631,-8.32262 2.44394,-10.00695 6.10986,-7.66209 9.64367,-2.64211 22.8872,2.47697 16.38102,-8.09143 -1.32105,-6.6713 -2.84026,-6.27499 -4.55762,-2.77421 -1.8825,-4.35946 3.33565,-7.19973 9.34644,-14.16826 -3.23658,-16.61221 3.33565,-15.05998 13.34261,-20.07996 20.83957,-18.3626 25.03391,-11.72432 24.17522,-3.33566 21.69825,-1.68434 3.33565,-18.3626 -4.19433,-23.41561 -3.33565,-24.20825 5.01999,-15.88563 10.23814,-13.24353 7.39788,-5.87868 9.01617,-2.60907 7.1667,4.95394 2.04762,8.88406 6.14289,5.01999 7.46393,0.79263 3.83105,-7.9263 5.58144,-6.44012 7.03459,-5.74657 14.79576,-7.1667 7.6621,-1.5192 z" />
  <path
     id="TZ-30"
     title="Simiyu"
     d="m 1078.8028,286.60188 -9.3795,-5.21815 0.099,-2.24579 -3.699,-9.3134 -7.0015,-6.70433 -8.785,-2.14671 -8.8511,4.39249 -10.7665,7.86025 -2.2458,1.05684 -3.5338,1.12289 -3.1705,2.70816 -5.5154,5.87867 -9.3795,-4.68973 -13.44166,-2.41091 -14.23432,-0.46237 -11.65827,1.08987 -6.5392,2.47696 -3.43473,0.39632 30.21903,57.26753 7.03459,9.37946 18.16446,21.0047 10.4033,10.27117 8.6198,7.69512 10.7996,4.92091 10.8326,6.6713 5.7136,10.86564 -0.8257,6.73736 -4.5907,4.62368 -4.7557,-0.26421 -4.1613,1.75039 -9.0492,7.06762 -16.348,-4.72276 -6.4732,4.16131 -5.6805,1.61829 -3.9632,3.59986 -3.6328,4.39249 -5.61451,1.3871 -3.4017,6.04381 7.33183,26.58614 -2.0146,9.61064 -6.80341,20.57536 -1.58526,11.29498 -3.10447,7.36486 -5.94473,5.54841 -5.81262,17.1076 12.31879,1.42013 11.29499,10.07301 16.97549,15.75352 20.7405,10.03999 11.9225,3.17052 8.785,-1.8825 8.1574,-4.42552 6.9356,3.1375 6.9024,13.24353 11.295,6.90248 17.603,1.8825 21.9625,0.6275 19.4855,5.68052 7.53,12.583 8.1905,27.08153 10.04,23.28352 13.1774,16.97549 10.073,9.44551 11.3611,8.22354 7.1006,-5.25117 8.4547,-2.57605 8.6529,-1.78342 40.3251,-16.348 3.0054,-5.05302 6.341,-5.21814 8.5538,-1.55224 -2.6421,-9.21432 0.9248,-9.51157 6.341,-9.01617 8.1245,-7.39788 1.4531,-3.36868 0.3963,-3.63289 4.6567,-1.98157 5.5815,1.51921 6.4401,-6.10986 2.0476,-169.52379 8.2896,1.22197 8.9171,7.19973 5.6475,8.75196 9.0492,2.87328 4.0292,-2.51 3.6989,-3.07144 12.9133,-5.81262 6.5062,-12.08761 15.6544,-67.63778 -2.0146,-22.95325 -130.3877,1.02382 -8.7189,-3.83105 -13.3096,-9.11525 -6.0108,-0.33026 -7.662,0.95776 -6.8035,-3.43473 -5.3502,-8.32262 -6.5392,-7.59604 -17.5039,-10.23814 -7.8272,-5.74657 -5.5154,-7.95932 -5.4494,-3.23658 -6.5392,-1.28802 -18.5277,-9.94091 -8.3226,-0.033 -8.2896,-1.02382 -15.1591,-14.03616 -5.8126,3.50079 -1.6183,8.28959 -9.4124,0.85868 -16.0508,-0.92473 -6.2089,2.90631 z" />
  <path
     id="TZ-28"
     title="Katavi"
     d="m 347.99769,1010.5705 -1.51921,-0.2642 -1.61828,-1.4532 -3.23658,-5.2181 -7.52998,-4.75579 -10.79959,-0.69356 -65.35897,0.39632 -8.15748,5.68053 -15.32419,17.3718 -9.37945,8.0584 -11.62525,2.7082 -50.69531,0.5944 -4.19433,5.3503 21.53312,18.2965 9.08222,20.5754 15.52234,90.7231 6.77039,19.5516 14.30037,26.6522 7.33183,20.5423 10.96471,6.6383 7.62907,8.7189 -2.47697,14.8948 4.19434,9.6767 0.82565,10.7996 -22.45785,15.4233 -7.06762,20.9386 -6.10986,8.2896 -56.4749,47.2936 -8.45473,5.7796 10.33722,5.2842 18.52773,15.4893 34.11613,39.9288 14.16826,22.0615 67.17542,-48.6807 25.85956,-7.8272 51.65307,-2.576 20.64141,7.7942 10.33722,31.2098 0,20.8395 10.33722,15.6215 33.5877,2.609 38.7398,2.6091 12.91327,15.6214 2.57605,26.0247 5.18512,36.494 5.1521,33.852 30.97863,5.2181 38.77283,5.2182 52.90806,8.917 -4.1613,-8.3556 6.53919,-20.5423 9.31341,-19.2874 8.25656,-12.7151 24.37338,-9.3134 8.61986,-17.0085 9.44551,-25.9586 0.1321,-25.2982 53.96491,-18.6598 12.18669,-6.7704 5.61446,-23.944 2.47697,-24.4395 -1.48618,-24.8687 1.12289,-24.8358 6.90249,-21.9955 13.93708,-17.7351 6.67131,-3.9301 4.75578,-6.1759 2.31184,-4.2604 1.3871,-4.5576 -1.75039,-3.4017 -2.14671,-3.2036 -1.12289,-4.9539 -4.09526,-2.3449 -34.44639,-2.9723 -9.74274,-3.732 -7.26578,-7.53 -8.65288,-13.7389 -3.50078,-3.5008 -2.27881,-1.0238 -5.31723,-0.8257 -4.45855,-3.3026 -8.32261,-3.6659 -2.47697,-1.6843 -1.35408,-1.255 -2.47697,-3.699 -0.23118,-1.0898 0.42934,-2.7412 -0.19816,-1.0899 -1.42013,-1.1559 -3.00539,-0.4954 -1.42013,-0.7596 -3.23657,-2.3779 -12.28577,-6.5722 -5.64749,-4.4916 -6.0438,-6.7374 -5.51539,-8.1244 -3.99618,-8.6199 -4.16131,-16.0507 -3.03841,-4.3265 -1.51921,-3.9301 0.16513,-11.7243 -0.99079,-4.6897 -1.68434,-2.0146 -4.52459,-4.0292 -1.91553,-2.2128 -0.85868,-2.2458 -0.7596,-2.6751 -0.92474,-2.2788 -1.42013,-0.9578 -5.01999,-0.6275 -13.63984,-4.2274 0,-1.6513 -3.69894,1.9816 -4.16131,-0.2312 -10.96472,-2.1467 -5.61447,-2.8402 -0.85868,0.2311 -0.85868,0.7596 -1.02381,0.4624 -1.38711,-0.7266 -2.21276,-2.4769 -1.25499,-1.0899 -1.38711,-0.4293 -7.03459,1.5192 -5.21815,3.5668 -4.6567,4.2604 -5.01999,3.6659 -4.78881,2.0476 -1.84947,1.222 -2.57605,2.477 -1.35408,1.6513 -0.033,0.7596 -3.07144,0.6605 -8.91709,3.5338 -2.64211,1.5523 -2.44394,0.3633 -17.7351,-5.4164 -2.57605,0.6275 -2.47697,3.699 -3.56683,-2.6421 -4.09526,0.2972 -4.49157,1.4862 -4.78881,0.8587 -5.2842,-0.7926 -4.6567,-1.9816 -8.75196,-5.5154 -4.39249,1.7174 -9.8088,-1.1229 -4.49157,1.8494 -4.19434,0.8917 -3.46776,-3.5668 -4.55762,-8.0584 -4.6567,-1.6513 -4.82184,0.8256 -4.7888,1.6844 -4.49157,0.9247 -3.17053,-0.6935 -0.52842,-1.6513 1.255,-3.4348 -0.23118,-1.4201 -1.12289,-2.2458 -0.26421,-1.222 1.61828,-5.4493 -0.99079,-3.9631 -0.8917,-2.2458 -1.18895,-2.0807 0.59447,-1.7834 0.13211,-1.5192 -0.72658,-1.5853 -1.12289,-0.3963 -3.33566,0.1651 -1.35407,-0.5614 -15.7205,-11.9885 -1.08987,-0.3303 -0.82565,-0.7266 -1.65132,-3.864 -0.69355,-2.8403 0.16513,-2.7412 6.77039,-3.798 0.62749,-5.9117 -5.74656,-19.3204 -2.21276,-3.0714 -4.06223,-4.2604 -1.02382,-1.5522 -2.87328,-5.9117 -1.81645,-1.9156 -1.81644,-1.5522 -1.68434,-1.8495 -1.28802,-2.8402 -0.89171,-10.2051 -1.45316,-4.2604 -4.09525,-1.7834 -4.12829,2.0146 -5.15209,9.5115 -3.56684,3.2696 -5.08604,-3.9301 -7.00157,-9.9739 -5.87867,-4.1283 -1.58526,-0.1982 -3.50079,0.4624 z" />
  <path
     id="TZ-25"
     title="Tanga"
     d="m 2340.2407,876.58297 -20.113,-14.56458 -20.2451,-14.59761 -20.2451,-14.63063 -20.2451,-14.63063 -20.2451,-14.59761 -20.2451,-14.63063 -20.2451,-14.63064 -20.212,-14.5976 -20.2781,-14.56458 -1.5523,-1.15592 -0.033,0.033 -80.8483,115.85612 -10.7335,7.43091 -11.8234,12.54998 -1.8825,15.7205 -0.1321,11.49314 3.2696,10.17208 4.6897,6.20894 1.6843,7.7942 2.7412,6.6713 3.9632,6.14289 2.0476,8.98314 -11.3941,-0.42934 -6.5722,-3.73197 -6.275,-4.55762 -4.1613,0.23118 -16.2159,3.43473 -11.8234,3.96315 -14.5646,3.43473 -14.1022,-3.36868 -11.5261,-3.86407 -11.7904,0 -13.0784,11.79038 -34.9418,42.30667 -1.9816,5.5484 1.9486,6.2089 -0.2312,6.8034 -5.2512,22.9863 -5.3172,15.8196 -21.7643,28.1714 -4.5246,12.8142 -5.086,27.9402 -7.497,12.2527 -28.2044,19.2544 3.5998,25.166 7.1337,3.6989 6.308,2.1137 -4.8879,7.0015 0.8917,6.242 0.8587,1.5522 -0.033,2.2458 5.3502,5.7136 6.3411,4.1943 6.341,-6.341 4.6898,-9.6107 10.073,-7.4969 7.4969,-9.1483 8.5869,-3.5008 7.629,-6.8364 4.3265,-27.3788 3.5668,-6.341 7.563,2.543 1.288,0.9908 0.6275,1.7173 3.0054,1.1229 3.6659,-0.3963 4.0623,2.1467 4.1283,0.4624 8.0253,3.3356 2.7742,10.9648 15.3903,17.669 5.7135,4.9209 6.4071,-6.5062 12.4179,0.6606 9.5776,-3.0715 -0.2972,-6.6713 3.5338,-3.0054 5.6805,1.7174 3.831,-3.5008 35.9326,-9.6767 16.0838,3.699 6.8695,-1.1229 6.1098,-2.9724 16.9095,1.3541 14.8618,7.4309 6.6713,7.3649 8.851,3.2365 10.1061,2.6421 6.2089,8.719 6.5062,2.7742 7.563,-0.4294 3.5998,3.5999 4.0292,2.4109 7.9263,1.6843 2.3779,-2.0146 2.6421,-1.7173 4.1944,1.6513 4.8218,-0.033 3.4017,-0.8587 3.1045,1.7173 13.6068,-5.9117 5.1851,-1.6513 4.2934,-4.4585 3.2696,-0.3633 3.2696,0.6275 4.7558,-1.5853 3.8641,-3.1044 19.8157,3.3026 0,0 0.1652,-0.7926 0.9247,-2.2458 1.3211,-2.0807 1.5522,-1.6513 1.0238,-2.3118 0.066,-15.3572 0.8917,-5.5815 1.6843,-5.1521 5.2512,-7.9593 4.2934,-8.851 3.0384,-3.7981 2.2788,-4.4255 0.1982,-11.0968 1.5522,-4.9209 -3.2366,-1.4532 7.7612,-4.9869 8.2896,-12.517 6.8034,-14.0031 3.2036,-9.4455 -0.3303,-3.7981 -1.6513,-1.4531 -1.8495,-0.8917 -1.0238,-2.0146 0.6936,-3.2366 2.1797,-1.8825 2.7412,-1.321 2.4769,-1.6514 3.3027,-4.4255 2.576,-5.2181 10.2712,-29.8558 -1.4202,-2.9393 -3.6659,4.6567 -2.576,1.9816 -1.8825,-1.7504 0.7926,-1.7174 7.2328,-10.93169 4.7227,-9.84182 1.5523,-2.0146 9.0161,-7.9263 0.9578,-1.71737 -0.4294,-2.21276 -2.609,-5.71354 -0.1652,-3.59986 -7.596,3.13749 -3.4017,0.16513 0.3963,-3.23657 2.3449,-4.62368 0.8917,-1.18894 2.0476,-0.89171 3.699,1.15592 1.6182,-1.02382 0.6936,-2.37789 -0.8257,-13.54076 -0.6275,-2.34487 -4.0952,-6.40709 5.1521,0.39631 3.5998,-4.35946 4.1944,-12.28577 1.4862,4.19433 -0.7597,4.5246 -1.5192,4.59065 -0.8256,4.72275 1.3871,3.46776 3.0384,-2.90631 7.563,-12.88024 1.5523,-3.79802 0.8917,-4.09526 0.2642,-5.05301 -0.5945,-5.2842 -2.0476,-1.32106 -3.5669,-0.29723 -5.2511,-2.11368 6.4731,-3.2696 4.4255,-4.06223 1.288,-7.72815 -1.5192,-6.6713 -4.1943,-1.15592 -1.6183,-1.48618 z" />
  <path
     id="TZ-13"
     title="Mara"
     d="m 1279.9327,101.15943 -38.4096,-21.434041 -50.9265,-28.435609 -50.8934,-28.435609 -17.7682,-9.907877 -8.818,-0.693552 -3.1705,-2.080654 -0.4624,-6.2089369 -3.6989,-0.099079 -0.9578,0.099079 -18.0653,0 -19.4525,0 -43.3635,0 -1.7834,0 -41.64609,0 -7.06762,0 -36.32889,0 -43.42953,0 -43.3965,0 -14.16827,0 -29.26126,0 -0.36329,0 -4.35947,110.5719189 4.0292,3.50078 145.48068,-2.34486 28.83192,11.29498 2.54302,12.12063 -1.12289,12.97932 0.56145,13.17748 -2.11369,12.28577 -6.17591,-5.08605 -10.50235,-1.15591 -9.97393,7.23275 -10.03998,22.68904 1.02381,3.56683 3.30263,4.95394 -1.84947,3.20355 -0.23118,1.71736 0.16513,3.50079 -0.89171,0.42934 -5.74657,3.56683 7.46393,5.21815 9.14828,-4.62367 9.41248,-6.57223 8.28959,-0.52842 0.66053,-2.41092 1.78342,-1.08986 2.60907,-0.13211 3.00539,0.39632 -1.55223,2.87328 1.3871,1.91553 5.01999,3.33565 1.91552,2.6421 -0.39631,1.32105 -6.37407,4.12828 10.17209,0.95776 9.41248,2.27882 -0.4624,0.95776 -0.099,0.16513 -0.2973,0 -0.8917,0.49539 1.7834,0.75961 0.6275,0.46236 0.6936,-0.1321 1.8825,-1.08987 3.6989,4.02921 -1.0568,3.43473 -2.8073,3.13749 -1.5852,3.30263 -1.8165,-0.72658 -10.99771,-0.066 -15.42326,-10.50235 -7.46393,-2.11368 -6.5392,6.10985 6.60525,9.74275 -3.33565,0.82566 -0.79263,0.85868 -0.72658,1.68434 -9.31341,-8.09144 -3.83104,-0.62749 0.0661,6.96854 -1.61829,0 -1.71736,-3.53381 -3.23657,-4.65671 -3.59987,-2.57604 -2.80723,2.6421 3.56684,1.71736 1.78342,3.00539 0.0661,3.30263 -1.61829,2.60907 -1.15592,-0.95776 -5.87867,-1.55223 0.0661,0.29723 -6.6713,-0.29723 -1.18895,-0.29724 -0.52842,-0.69355 -0.49539,0.26421 -1.02382,2.47697 0.52842,0.033 0.56145,2.01461 0.46237,2.50999 0.066,1.78342 -0.85868,2.51 -2.14671,3.2696 -0.23118,2.47696 0.52842,1.98158 0.82565,1.71737 1.8825,2.7742 4.29341,-4.85486 4.68973,-2.47697 5.51539,0 6.70433,2.47697 6.10986,3.40171 2.57604,2.41091 1.02382,3.10447 1.48618,2.04763 3.43473,-0.39632 6.5392,-2.47696 11.65827,-1.08987 14.23432,0.46237 13.44166,2.41091 9.3795,4.68973 5.5154,-5.87867 3.1705,-2.70816 3.5338,-1.12289 2.2458,-1.05684 10.7665,-7.86025 8.8511,-4.39249 8.785,2.14671 7.0015,6.70433 3.699,9.3134 -0.099,2.24579 9.3795,5.21815 6.2089,-2.90631 16.0508,0.92473 9.4124,-0.85868 1.6183,-8.28959 5.8126,-3.50079 15.1591,14.03616 8.2896,1.02382 8.3226,0.033 18.5277,9.94091 6.5392,1.28802 5.4494,3.23658 5.5154,7.95932 7.8272,5.74657 17.5039,10.23814 6.5392,7.59604 5.3502,8.32262 6.8035,3.43473 7.662,-0.95776 6.0108,0.33026 13.3096,9.11525 8.7189,3.83105 130.3877,-1.02382 9.7758,-27.77508 5.7466,-2.70816 6.6713,-2.11368 6.0107,-12.74813 3.5338,-14.00314 -3.3356,-11.75734 -13.4747,-3.99618 -8.9501,-5.84565 -1.8825,-10.60143 5.086,-93.53036 0,-0.033 -10.7665,-6.01078 -50.9265,-28.43561 -50.8935,-28.40258 -12.4839,-7.00157 z" />
  <path
     id="TZ-09"
     title="Kilimanjaro"
     d="m 1921.4017,459.5604 -0.1321,-0.033 -10.4693,-2.37789 -19.5516,-8.09144 -7.7281,-4.52459 -8.5868,-1.02382 -4.6237,1.61829 -4.0953,-1.48618 -12.0546,0.39631 -10.9647,7.23275 -14.1682,11.62525 -6.0108,6.27499 -7.8933,3.4017 -15.8526,4.68973 -5.4493,15.58839 0.3633,11.39406 2.1797,11.12985 5.7796,5.58144 7.596,3.30263 16.5131,10.89866 8.8511,16.28195 0.4954,43.06624 5.8456,-1.48618 6.0108,-0.59447 6.4732,0.66052 6.308,-6.34104 4.7227,-1.35408 4.6898,-0.46237 3.0384,3.59987 2.9063,4.29341 6.5722,2.11368 6.9355,0.42934 3.4678,3.00539 -0.9578,4.49157 7.3318,17.37182 12.7152,13.87102 8.7519,14.92787 7.0346,12.38485 4.1943,10.5684 -0.8256,26.38798 2.1137,12.02156 2.8733,4.85486 5.2181,18.03234 1.4201,6.44012 0.2312,6.57223 -3.5668,8.6859 -0.1652,7.39788 0.5285,7.6621 -1.3211,18.3626 0.4624,18.23049 7.8602,13.47472 12.2197,10.03998 5.4824,0.7596 20.6414,11.52617 16.4471,12.583 5.7135,2.08066 5.4163,-0.85869 8.719,-5.48236 5.3172,-0.72657 14.3004,0.49539 3.2696,1.32105 2.3779,1.55223 4.7227,0.92474 2.477,1.05684 5.1521,4.5246 6.275,7.39788 10.7335,-7.43091 80.8483,-115.85612 0.033,-0.033 -18.6598,-13.47472 -20.2451,-14.5976 -20.2451,-14.63063 -20.2121,-14.56458 -20.2451,-14.63064 -20.2451,-14.5976 -20.212,-14.63064 -12.9463,-9.28038 -3.2366,-4.26038 -2.3779,-4.85486 -4.1283,-14.66366 -1.7834,-3.63289 -3.3026,-3.03842 -4.4916,-2.17973 -4.987,-1.32105 -5.086,-0.42934 -11.361,0.66052 -0.6606,-3.2696 1.8825,-4.6567 0.9578,-3.93012 -1.222,-1.84947 -3.8971,-0.4954 -1.6843,-1.75039 -0.3963,-2.50999 0.6275,-2.77421 1.1229,-2.6421 1.1889,-2.11368 3.4678,-3.83105 5.2842,-4.19433 5.6475,-3.00539 4.4915,-0.36329 -0.3633,-4.22736 0.8587,-3.33565 2.3449,-2.01461 4.2934,-0.33026 -4.7558,-29.03008 -0.4954,-3.1375 -4.1943,-25.72745 -3.6329,-5.84565 -19.5846,-10.96472 -32.729,-18.29654 z" />
  <path
     id="TZ-26"
     title="Manyara"
     d="m 2006.9727,857.09748 -5.7135,-2.08066 -16.4471,-12.583 -20.6414,-11.52617 -5.4824,-0.7596 -12.2197,-10.03998 -7.8602,-13.47472 -0.4624,-18.23049 1.3211,-18.3626 -0.5285,-7.6621 0.1652,-7.39788 3.5668,-8.6859 -0.2312,-6.57223 -1.4201,-6.44012 -5.2181,-18.03234 -2.8733,-4.85486 -2.1137,-12.02156 0.8256,-26.38798 -4.1943,-10.5684 -7.0346,-12.38485 -8.7519,-14.92787 -12.7152,-13.87102 -7.3318,-17.37182 0.9578,-4.49157 -3.4678,-3.00539 -6.9355,-0.42934 -6.5722,-2.11368 -2.9063,-4.29341 -3.0384,-3.59987 -4.6898,0.46237 -4.7227,1.35408 -6.308,6.34104 -6.4732,-0.66052 -6.0108,0.59447 -5.8456,1.48618 -8.2566,3.13749 -7.53,5.05302 -4.3925,6.20894 -5.4163,4.88789 -17.8342,0.19815 -6.2089,6.86946 -5.8456,7.86025 -7.2328,1.68434 -4.4916,-7.95932 -4.2603,-2.90632 -4.3925,-1.22197 -17.3058,0.89171 -1.6843,1.81645 0,2.47697 -1.7174,3.93012 -4.6897,1.61829 -4.9209,4.29341 -4.5907,0.92474 -4.2934,1.68434 -14.1683,18.59378 -3.8971,9.64367 2.0807,27.14758 5.3172,30.0539 -0.3303,13.60682 -3.3686,1.71736 -3.8971,-1.55223 -6.7374,-0.29724 -6.4731,2.08066 -11.1299,0.95776 -10.6675,2.08065 -2.3118,4.85486 -10.9977,1.3871 -11.7904,-4.95393 -53.5686,-77.80987 -11.295,-21.23589 -7.7942,-11.16287 -13.6729,4.62367 -11.4931,15.19208 -8.4547,7.39789 -6.308,7.99235 -0.6936,7.13367 -4.8218,1.35408 -5.1851,-16.348 1.6843,-17.30576 5.8456,-17.07457 -3.1375,-11.26196 -6.2749,-0.85868 -1.3871,16.54615 -4.1283,8.48775 -28.1714,7.52999 0.7596,9.14827 -4.1613,6.24197 -10.7005,-1.45316 -7.1667,-7.43091 4.6567,-8.02538 6.0107,-6.86946 -7.3978,-3.13749 -9.5446,-1.8825 -9.2144,-4.98697 -10.0069,0.0991 -15.7535,15.88563 -9.4125,3.46776 -8.2566,5.68052 -6.6713,2.21276 -7.2658,-0.0991 -22.5899,13.838 -2.2128,2.93934 -0.7596,3.46775 -3.3026,3.53381 -13.9041,4.29342 -8.2235,4.39249 -8.9832,3.73197 -8.1905,4.42552 8.719,17.96628 20.2781,22.02852 0.5945,7.10064 -13.5738,18.06537 -12.6491,22.92022 -8.818,24.04312 10.7005,11.92248 16.1499,9.57761 11.8234,13.60682 8.7189,19.22128 15.7865,7.69512 2.2458,9.41248 -0.099,10.00696 9.5446,6.57223 13.9041,2.44394 8.9501,16.71129 14.1352,5.44933 3.1706,0.36329 2.9063,1.3871 21.6982,2.0146 12.3849,-2.08065 5.2181,-8.45472 16.315,-33.15837 12.0216,-19.05615 2.2457,-9.08222 -4.1943,-8.4217 -1.321,-3.79802 -0.4294,-3.99617 1.0899,-4.19434 2.1467,-1.22197 5.2181,2.0146 18.6599,-12.84721 10.2051,-9.77578 2.51,-4.06223 3.831,-2.67512 4.1283,1.68434 3.9962,2.24578 5.7135,-2.84026 5.8127,-3.99617 11.7573,0.29723 7.2658,-12.08761 2.6751,-1.94855 5.8457,-3.43473 7.0345,-5.38328 59.3152,-16.77734 1.6513,70.54409 2.3119,13.34261 3.831,13.01235 5.4824,12.12063 1.288,7.76117 -2.7412,48.38347 -8.752,57.23451 -5.086,16.71129 -7.53,11.72428 -5.1521,12.7482 2.5761,15.0269 -4.0953,13.3757 3.1705,10.9316 9.0823,9.5777 12.3188,9.8748 11.0637,11.0308 6.8035,11.9225 8.3226,10.8326 14.4324,8.884 15.2582,7.2328 9.5115,11.5922 6.8365,13.871 8.5868,13.4087 11.8234,10.4363 15.8856,6.242 16.4801,4.8218 12.6821,-4.1613 34.5125,-27.8411 28.2044,-19.2544 7.497,-12.2527 5.086,-27.9402 4.5246,-12.8142 21.7643,-28.1714 5.3172,-15.8196 5.2512,-22.9863 0.2312,-6.8034 -1.9486,-6.2089 1.9816,-5.5484 34.9418,-42.30665 13.0784,-11.79038 11.7904,0 11.5261,3.86407 14.1022,3.36868 14.5646,-3.43473 11.8234,-3.96315 16.2159,-3.43473 4.1613,-0.23118 6.275,4.55762 6.5722,3.73197 11.3941,0.42934 -2.0476,-8.98314 -3.9632,-6.14289 -2.7412,-6.6713 -1.6843,-7.7942 -4.6897,-6.20894 -3.2696,-10.17208 0.1321,-11.49314 1.8825,-15.7205 11.8234,-12.54998 -6.275,-7.39788 -5.1521,-4.5246 -2.477,-1.05684 -4.7227,-0.92474 -2.3779,-1.55223 -3.2696,-1.32105 -14.3004,-0.49539 -5.3172,0.72657 -8.719,5.48236 -5.4163,0.85869 z" />
  <path
     id="TZ-01"
     title="Arusha"
     d="m 1921.4017,459.5604 -18.1644,-10.13907 -50.9265,-28.46863 -50.8935,-28.43561 -50.8935,-28.46864 -50.8934,-28.43561 -50.9265,-28.40258 -50.8935,-28.46863 -50.8935,-28.43561 -50.8934,-28.43561 -50.8935,-28.46864 -40.1269,-22.3918 0,0.033 -5.086,93.53036 1.8825,10.60143 8.9501,5.84565 13.4747,3.99618 3.3356,11.75734 -3.5338,14.00314 -6.0107,12.74813 -6.6713,2.11368 -5.7466,2.70816 -9.7758,27.77508 2.0146,22.95325 -15.6544,67.63778 -6.5062,12.08761 -12.9133,5.81262 -3.6989,3.07144 -4.0292,2.51 -9.0492,-2.87328 -5.6475,-8.75196 -8.9171,-7.19973 -8.2896,-1.22197 -2.0476,169.52379 -6.4401,6.10986 -5.5815,-1.51921 -4.6567,1.98157 -0.3963,3.63289 -1.4531,3.36868 -8.1245,7.39788 -6.341,9.01617 -0.9248,9.51157 2.6421,9.21432 14.9279,13.63985 16.2819,11.92248 8.1905,-4.42552 8.9832,-3.73197 8.2235,-4.39249 13.9041,-4.29342 3.3026,-3.53381 0.7596,-3.46775 2.2128,-2.93934 22.5899,-13.838 7.2658,0.0991 6.6713,-2.21276 8.2566,-5.68052 9.4125,-3.46776 15.7535,-15.88563 10.0069,-0.0991 9.2144,4.98697 9.5446,1.8825 7.3978,3.13749 -6.0107,6.86946 -4.6567,8.02538 7.1667,7.43091 10.7005,1.45316 4.1613,-6.24197 -0.7596,-9.14827 28.1714,-7.52999 4.1283,-8.48775 1.3871,-16.54615 6.2749,0.85868 3.1375,11.26196 -5.8456,17.07457 -1.6843,17.30576 5.1851,16.348 4.8218,-1.35408 0.6936,-7.13367 6.308,-7.99235 8.4547,-7.39789 11.4931,-15.19208 13.6729,-4.62367 7.7942,11.16287 11.295,21.23589 53.5686,77.80987 11.7904,4.95393 10.9977,-1.3871 2.3118,-4.85486 10.6675,-2.08065 11.1299,-0.95776 6.4731,-2.08066 6.7374,0.29724 3.8971,1.55223 3.3686,-1.71736 0.3303,-13.60682 -5.3172,-30.0539 -2.0807,-27.14758 3.8971,-9.64367 14.1683,-18.59378 4.2934,-1.68434 4.5907,-0.92474 4.9209,-4.29341 4.6897,-1.61829 1.7174,-3.93012 0,-2.47697 1.6843,-1.81645 17.3058,-0.89171 4.3925,1.22197 4.2603,2.90632 4.4916,7.95932 7.2328,-1.68434 5.8456,-7.86025 6.2089,-6.86946 17.8342,-0.19815 5.4163,-4.88789 4.3925,-6.20894 7.53,-5.05302 8.2566,-3.13749 -0.4954,-43.06624 -8.8511,-16.28195 -16.5131,-10.89866 -7.596,-3.30263 -5.7796,-5.58144 -2.1797,-11.12985 -0.3633,-11.39406 5.4493,-15.58839 15.8526,-4.68973 7.8933,-3.4017 6.0108,-6.27499 14.1682,-11.62525 10.9647,-7.23275 12.0546,-0.39631 4.0953,1.48618 4.6237,-1.61829 8.5868,1.02382 7.7281,4.52459 19.5516,8.09144 10.4693,2.37789 0.1321,0.033 z" />
  <path
     id="TZ-23"
     title="Singida"
     d="m 1321.0173,693.94776 -16.2819,-11.92248 -14.9279,-13.63985 -8.5538,1.55224 -6.341,5.21814 -3.0054,5.05302 -40.3251,16.348 -8.6529,1.78342 -8.4547,2.57605 -7.1006,5.25117 -6.0108,6.44012 -14.3664,3.73197 -9.0492,7.7942 -0.8257,10.40327 -1.8825,4.29341 -2.3118,3.79802 -1.7504,7.52999 -7.4639,0.7596 -7.563,-2.57605 -5.5154,4.65671 -12.2197,21.03772 -10.2382,22.06155 -28.1714,36.49401 -5.1191,21.66523 2.6421,20.11299 0.4954,20.44325 -8.4877,22.95325 0.1321,11.95551 3.9631,11.39406 2.0477,9.3134 -6.7044,18.65984 1.4202,9.97393 2.3448,10.07301 6.8695,7.00157 12.0546,4.49157 10.7005,6.341 7.6291,6.209 8.1244,5.2512 21.0377,21.2358 5.1521,6.5062 -6.6382,10.3372 -8.8181,9.0162 -15.4232,13.0784 -10.4693,16.0508 5.1851,6.1759 7.1337,5.3172 0.7265,10.7005 -4.8879,9.9739 -6.341,5.02 -1.3871,4.2604 -0.5945,4.6897 -0.1981,20.8396 -12.4509,46.3359 -0.6606,19.8818 2.6752,8.1905 0.9577,7.6951 -16.348,12.2197 -13.871,11.6583 -8.3556,13.4417 -2.5761,2.0476 -5.8456,0.7926 -5.0861,2.1467 -9.4455,6.8365 -24.1422,24.5715 -17.1406,6.5392 -3.6659,2.0807 -11.32803,13.5077 2.51,5.2512 -1.55224,25.3311 1.35408,25.2981 -10.30419,21.0708 7.23275,6.1098 5.41633,7.8603 3.3026,12.3848 1.8164,13.0454 5.7466,9.5446 10.106,3.798 8.2236,7.9924 5.6144,10.5684 3.765,5.5154 4.6237,4.7888 13.6068,4.1613 3.0385,5.5154 0.7596,6.4731 4.1943,9.9739 0.9247,9.8419 3.8971,2.2788 4.6567,1.1889 9.8749,7.0676 10.7665,4.8219 20.8066,-11.6583 19.5846,-13.3426 7.2988,-10.2712 8.1574,-9.0161 10.8657,0.099 10.6344,3.8971 11.0638,0.4954 11.0638,-1.6183 4.6567,-3.864 -0.3963,-7.464 11.9555,-14.3994 69.7845,-14.5976 8.851,-16.7774 2.7082,-23.1183 8.752,-7.0677 10.106,-5.7465 4.0622,-3.1045 4.7228,-1.8495 4.3264,-2.7411 3.5999,-3.5008 9.0822,0.8256 9.8418,2.477 9.8419,1.1559 9.5115,2.9063 -1.1229,-25.3972 -3.831,-22.2266 29.8887,-1.3871 6.5392,-15.9187 -4.1943,-40.8865 2.477,-21.4341 3.9301,-7.596 0.099,-8.5868 -2.2128,-9.4125 -4.8218,-8.4217 -1.9486,-20.7405 5.1521,-21.434 0.8587,-27.676 8.4547,-19.8488 6.0769,-8.9501 2.3118,-9.1153 1.189,-9.6106 7.3648,-6.4401 4.8879,-6.0108 -2.6421,-6.9025 -7.8933,-8.5208 -5.9777,-9.9079 -0.5615,-4.5906 -1.0238,-3.8641 -2.2458,-0.5284 -1.6843,-1.4862 -2.543,-3.0384 -3.5338,-2.2788 -4.1944,-6.9355 -2.9393,-7.497 -6.4401,-6.9355 -5.4824,-7.9263 -3.765,-16.1498 -4.2934,-9.3465 -3.0384,-9.6436 0.2312,-8.8841 -0.7596,-8.85105 -4.8549,-7.99235 1.255,-7.92631 57.829,-39.69756 2.1467,-6.17591 3.9301,-7.9263 -0.9578,-8.38867 -14.1352,-5.44933 -8.9501,-16.71129 -13.9041,-2.44394 -9.5446,-6.57223 0.099,-10.00696 -2.2458,-9.41248 -15.7865,-7.69512 -8.7189,-19.22128 -11.8234,-13.60682 -16.1499,-9.57761 -10.7005,-11.92248 8.818,-24.04312 12.6491,-22.92022 13.5738,-18.06537 -0.5945,-7.10064 -20.2781,-22.02852 -8.719,-17.96628 z" />
  <path
     id="TZ-21"
     title="Ruvuma"
     d="m 1717.2003,2567.5274 14.8619,-2.3779 3.5338,-1.2219 6.308,-0.7266 1.7504,-1.0899 1.288,-1.5522 2.2788,-1.9155 8.752,-3.3357 2.7411,-1.4531 2.1137,-2.0146 6.6053,-9.7098 10.7335,-12.7811 3.9962,-1.3541 2.2788,1.1559 4.6567,0.3633 5.9117,3.8311 3.5008,0.6605 21.9294,-1.9816 2.2128,-0.9578 2.1137,-1.6182 3.7319,-2.1798 2.8403,7.4309 6.4401,8.1245 8.2896,7.0016 8.3226,4.0292 20.146,4.5906 10.3373,1.1229 8.5207,-0.9247 2.3119,-1.0238 1.8494,-1.222 1.8495,-0.8917 2.2128,-0.1652 2.7412,1.3211 4.2273,4.4585 1.9486,0.9908 11.7243,3.3357 5.4163,0 4.4916,-0.7596 1.6182,-0.8587 1.9816,-1.7174 1.3211,-2.4109 1.3541,-3.3356 1.8164,-3.0054 2.8733,-1.3211 4.9539,-1.0238 8.5868,-4.5576 5.1521,-1.0238 7.497,-0.066 5.086,-0.8917 4.4256,-2.543 10.5353,-8.4878 17.2728,-7.629 4.9209,-3.5008 2.9724,-2.6421 1.9155,-3.2366 -0.4294,-2.9724 -1.4201,-2.9723 -0.9578,-3.2036 1.255,-5.4493 5.6806,-10.1721 -0.3303,-4.3594 2.2128,-2.9394 3.6659,-10.9317 0.5944,-3.5338 1.6183,-2.1137 14.8949,-8.4877 3.9301,-0.9578 9.6437,-0.5945 2.1136,-0.5614 2.2458,-2.3449 13.5408,-2.3448 5.3502,0.1321 0,-0.066 -16.381,-57.0033 -7.4309,-49.077 -11.7904,-21.9625 -5.2842,-5.9447 -4.0622,-6.2089 -3.3687,-11.3281 -6.1098,-10.6674 -1.5853,-5.3173 -2.576,-5.6475 -5.8127,-9.7757 -6.4401,-5.1521 -7.1667,-4.0292 -11.0968,-8.0915 -131.6427,-32.2996 -57.3336,-22.0616 -11.7243,-10.073 0.7266,-17.3388 -0.8917,-17.5039 1.6183,-14.6637 6.0438,-13.1774 19.6176,-17.9003 18.0984,-20.0799 10.3702,-14.9609 5.6805,-14.0032 3.2366,-14.3664 -17.669,5.2182 -21.1038,15.8526 -7.6291,3.4347 -18.6928,11.8895 -15.7536,14.2343 -13.6728,16.381 -19.0562,16.6452 -21.9294,12.1207 -16.1168,0.4293 -5.9778,-11.4271 12.9133,-16.9755 7.4309,-19.4524 -9.5776,-17.537 -7.3649,-18.2965 0.2312,-7.8272 -3.0715,-6.7374 -2.6751,1.3541 -4.9209,1.3871 0.099,10.7996 -2.1137,6.0107 -10.5023,14.9279 -6.1099,6.4401 -1.3871,1.0899 -19.6176,2.8072 -14.4655,-2.4439 -20.6744,5.3502 -6.3411,-3.798 -1.255,-2.0476 -2.1797,0.6275 -1.7504,-1.8165 0.6935,-3.0714 -10.4363,3.0054 -10.7335,9.4125 -2.1797,6.5062 -3.9632,5.0199 -8.3886,0.5615 -8.5538,-1.255 -33.0263,1.222 -10.3042,-7.9924 1.5192,-14.5976 3.798,-3.1375 5.2512,-0.2972 4.5576,-3.7981 10.4694,-16.6452 8.1574,-10.139 1.6514,-5.0531 -2.2128,-5.086 0.9578,-7.596 3.5998,-7.3979 9.6107,-8.785 3.6659,-12.0876 -4.0953,-7.9924 -2.6751,-8.4547 -0.8257,-17.1076 -1.0898,-4.8879 -0.066,-3.9631 1.5523,-2.2458 -0.8257,-2.2788 -15.2251,17.2397 -14.0031,13.1774 -9.2474,3.5999 -9.6106,2.3118 -7.1337,6.8695 -8.5208,6.2089 -10.8656,5.2512 -9.0492,5.7136 -7.1337,7.4309 -9.0162,5.8786 -20.6083,19.2213 -15.3903,8.2896 -23.0853,24.7037 -17.2728,7.1336 -7.8272,4.2934 -2.2788,6.5392 4.3925,6.5392 5.2181,4.921 3.6329,8.5868 -0.7596,11.7573 9.3795,13.772 2.2788,15.7865 -19.9479,27.8412 -3.0054,8.0914 -8.5207,1.8164 -8.6859,-0.066 -7.9924,2.9063 -5.6805,6.242 -1.222,15.8195 -20.3442,15.8196 -17.5039,8.6199 -10.9317,15.4563 -20.5093,13.2765 -6.7043,3.0384 -7.4309,0.4624 -2.7412,-1.8164 -2.9393,-0.6606 -6.1099,1.156 -0.5284,0.033 0.2312,1.8825 1.1229,3.3356 1.5522,3.1706 1.9155,2.7411 2.0146,0.9578 2.0477,-0.1321 0.7926,0.2312 0.8256,0.2312 0.6606,2.8402 -0.1982,4.6237 0.6605,1.4201 5.0861,6.0769 2.2458,4.8548 0.1981,5.2512 -3.1375,5.086 1.5192,2.2458 0.3963,1.0569 1.0239,1.3871 1.5192,1.1229 1.4201,1.7173 0.6275,3.1045 -2.9063,2.1797 -1.4201,2.0476 0.8917,6.3081 -3.0715,15.093 0,10.7005 -0.4954,2.51 -4.3594,9.8418 -2.2128,2.8403 -4.7227,6.0768 -1.156,6.0768 1.0238,4.954 3.1706,9.9078 0.6605,5.9117 1.8164,4.2604 11.295,9.7758 1.222,2.3779 0.7596,2.1137 1.1229,1.5192 4.2934,1.0898 1.8825,1.3211 1.4532,1.8495 0.5944,2.1797 0.7596,5.5154 2.1137,4.7227 3.1045,3.5338 3.7319,2.1467 0,1.4862 -1.3871,0.8257 -2.0476,1.5852 -1.4201,0.7597 5.2512,9.8418 1.5192,1.8494 1.5522,-0.1651 3.0384,-2.6751 1.7504,-0.5945 1.9486,0.2312 10.2381,3.4678 5.7466,3.0384 4.4255,4.0292 1.7834,4.9539 0.9908,1.8495 4.4585,3.6989 2.0146,6.5392 2.2458,2.543 2.2128,1.9486 1.0238,1.7504 0.5284,1.4531 1.1229,2.1798 1.189,2.8402 0.5284,3.5338 0,12.55 0.3963,2.0807 98.9136,1.0238 9.9079,-0.2972 0.3963,1.321 1.5853,1.5522 2.2128,0.7266 5.8126,0.2973 1.0238,-0.099 3.1705,-1.288 0.066,-0.2312 1.5192,-0.4294 0.9577,-0.5614 1.0899,0.1321 2.1137,1.6183 1.255,1.8164 0.6275,1.6844 1.0898,1.354 2.6752,0.8587 0.2972,-4.1283 2.6091,-0.1981 3.798,1.5192 3.8971,0.9908 5.5814,-3.1375 0.2642,0 12.7812,-3.3687 2.3779,-1.5192 1.6843,-4.987 1.9816,-3.3356 2.6091,-3.2366 2.8733,-1.8825 -1.8495,-5.2842 4.3925,-2.6091 11.8894,-2.1797 4.1944,-3.3026 7.3979,-9.4125 3.1375,-2.1467 9.7097,1.8164 6.7043,2.8733 1.5192,0.4293 8.9501,-0.099 3.1706,1.5522 4.0952,4.987 -2.2458,5.4163 2.1137,4.5576 4.4255,2.3449 4.5907,-1.3541 3.4017,-0.1982 4.9539,2.2128 8.6529,5.3502 2.3449,0.9578 5.2181,1.3871 2.2788,0.9578 2.0146,1.5852 1.5192,1.6183 1.6183,1.255 2.1798,0.4954 3.798,1.8495 1.321,4.5246 0.5615,5.4823 1.5852,4.8219 -1.5192,3.6329 0.6936,4.9869 2.1467,4.3925 2.7081,1.8825 9.7758,-1.6843 2.8733,0.5284 3.6659,2.2458 2.4439,0.6935 3.4678,-0.3633 8.6529,-2.4769 7.4309,-1.1559 1.6513,-1.1229 1.222,-1.1229 1.1229,-0.5285 27.709,0 1.8495,1.3211 1.4201,5.6805 1.4862,1.255 1.321,0.5284 5.9778,2.9724 4.0952,0.4293 z" />
  <path
     id="TZ-17"
     title="Mtwara"
     d="m 2635.7597,2263.917 0.1321,-3.1705 -1.0899,-2.2458 -1.321,-1.8164 -0.6606,-1.8165 0.3633,-2.6751 2.5761,-8.1575 -1.5192,0.099 -3.1375,-0.2642 -1.5192,0.1651 3.0384,-3.798 3.9301,-3.6329 2.1797,-3.8641 -2.0806,-4.3594 -1.3871,-2.1467 -0.8257,-2.444 -1.0238,-1.9815 -2.2127,-0.8257 -2.9724,0.4293 -2.1797,1.222 -0.7927,2.0807 1.0899,2.8402 4.1613,-0.8587 2.8403,3.732 -1.0899,4.7558 -7.6621,2.2458 -1.1559,-0.4624 -7.9593,-1.5853 -0.6275,0.3964 -2.3779,-2.2458 -7.6291,-17.1407 -1.321,-2.1467 -2.444,-2.1136 -5.3172,-2.5761 -2.0807,-1.7174 -1.255,-2.9393 -0.7265,-3.3687 -1.3541,-2.7081 -3.1375,-1.0238 -8.0914,10.0399 12.2857,5.2182 4.0292,1.1889 -1.9155,1.189 -1.4201,0.4624 -1.4202,-0.3633 -1.8494,-1.2881 -0.6275,1.7174 -0.6275,1.288 -0.4294,1.5192 0.066,2.2128 -2.9394,-2.0476 -5.5153,-4.9209 -2.8733,-2.0146 -2.51,-1.0239 -1.4532,0.2643 -0.7266,1.4201 -0.1981,2.51 -0.7926,1.9155 -1.8495,-0.3963 -3.9632,-2.444 -1.1229,0.1652 -1.255,0.5614 -1.2549,-0.1321 -1.222,-1.9485 0.6935,-1.4862 2.3119,-1.0238 1.7504,-1.222 -0.7266,-2.2128 -1.9486,-4.0622 0.7596,-3.5338 1.5853,-3.2035 0.4293,-3.1375 -0.7596,-2.6091 -0.7265,-0.3633 -1.156,0.2642 -9.4785,-3.4347 -4.6237,-1.1229 -7.3318,-3.2036 -3.4678,-1.0238 -4.5246,-0.6605 -2.8072,0.2642 -0.5284,2.0476 2.1467,4.8549 1.1889,3.6989 -0.033,4.1944 -1.222,3.9631 -2.4439,2.8733 -1.9485,-7.2327 -0.099,-3.0715 0,0 -7.5961,4.7558 -8.2896,6.341 -38.3104,21.8634 -9.9079,3.6329 -6.0768,8.0254 -1.5192,10.3042 -4.0953,9.3464 0.099,6.4732 6.1098,5.2511 1.2881,8.6199 -5.5815,8.4877 -7.8272,7.3319 -9.6767,-5.1521 -6.9355,-16.9095 -3.798,-2.543 -3.3687,-4.3264 -7.8602,-22.0946 -18.1975,-11.6583 -5.8126,0.1652 -5.9778,0.9907 -6.0438,6.8035 -7.3318,3.5668 -7.6291,-0.4624 -2.6421,5.5484 -2.4109,10.1391 -10.5024,2.1137 -2.9393,-6.4401 -1.5522,-7.5961 -7.7942,-1.6513 -9.6107,4.0292 -19.6506,10.9977 -11.0308,3.666 -18.3295,8.4217 -6.5062,4.7888 -4.3925,4.9209 -16.5462,1.3871 -9.2143,-2.6421 -6.8694,-4.8219 -8.0915,-0.2642 -7.4639,3.6329 -21.2359,1.6513 -63.0141,26.1568 -14.6967,14.9279 -11.6583,17.6691 -8.3226,5.6144 -41.514,2.9724 7.4309,49.077 16.381,57.0033 0,0.066 1.8495,0.033 0,-0.3963 0.7596,-0.6936 1.189,-0.5614 1.4531,-0.033 0.3963,0.5944 1.255,2.2458 0.7596,0.4624 2.3119,0.7596 4.6567,3.4347 2.8072,0.7596 2.7412,-0.4623 5.2181,-2.1798 2.3779,-0.6605 10.9317,1.7174 8.5208,5.9117 13.0784,13.838 8.4217,4.3264 18.7919,4.7558 6.9356,4.0622 0.1321,0.066 5.9117,-7.3319 23.3495,-15.9186 5.3503,-6.7704 3.798,-3.2696 7.0676,-1.9155 4.7888,-2.2458 2.5761,-0.4954 2.8402,0.2972 5.1191,1.222 2.6421,0.099 4.3264,-2.3118 9.4455,-9.0492 3.1375,-1.9816 4.921,-1.255 4.1943,-2.9063 6.341,-5.5815 7.9924,-1.8494 31.0116,0.033 8.2236,-1.6183 7.2988,-3.3356 5.5814,1.1228 9.6437,5.2842 5.02,1.8495 6.275,0.099 5.9777,-1.8164 5.5154,-3.0385 46.501,-37.4517 3.765,-2.0477 4.0622,-1.354 18.2635,-1.3871 39.7967,-8.752 5.9777,-2.543 23.7459,-16.4471 24.4725,-10.5024 4.5246,-2.3778 29.6245,-23.2836 6.6383,-2.4769 2.7742,-2.7082 4.4585,-5.8787 14.0032,-13.9701 8.9831,-6.7373 15.3572,-5.3833 8.4878,-6.1099 7.563,-7.596 3.765,-7.0016 z" />
  <path
     id="TZ-12"
     title="Lindi"
     d="m 2441.6974,1927.5446 -1.4201,-4.2934 -12.2528,-5.9778 0.2642,3.9962 2.8733,2.8403 3.699,4.8548 4.2603,2.8403 2.5761,-4.2604 z m -22.0946,-131.5766 -2.543,-2.5431 -3.1045,-1.9815 -2.8402,-0.5615 1.1229,4.5246 3.4017,3.1045 4.4915,0.8587 -0.5284,-3.4017 z m -234.4864,-8.0254 -3.8641,-9.7428 -3.8641,-22.689 -17.5039,-16.8104 -11.5922,-7.9593 -21.7973,-19.2543 -13.1775,-6.7374 -29.2282,-6.4071 -28.1384,-9.8418 -12.0216,-7.3648 -33.1253,-25.3312 -1.5192,1.9155 -2.3449,4.6568 -1.5192,2.1136 -1.9485,1.5853 -6.1429,3.4677 -3.798,3.1706 -2.7082,3.3356 -4.8218,8.3557 -1.4532,1.6513 -1.5853,1.321 -1.288,1.4202 -0.5614,2.1467 -0.033,2.4109 -0.3303,1.6843 -0.7596,1.5523 -6.0108,7.0676 -1.8164,3.1705 -0.7596,3.732 -1.5853,3.6989 -3.732,1.9486 -4.2934,1.2219 -3.3026,1.4862 -1.8495,2.0476 -8.2235,13.0454 -2.8403,6.9355 -3.5008,4.8549 -1.1229,3.3687 -1.1559,1.7173 -1.7504,1.222 -3.4017,1.1559 -1.4201,0.9578 -4.5576,5.8456 -6.7374,12.3188 -4.0952,5.5484 -4.8219,4.8879 -4.7888,6.1759 -1.8825,7.0346 4.0953,7.3649 0.9247,3.0384 -0.099,5.086 -0.7265,5.3173 -5.4824,18.3956 -10.2712,21.1038 -1.5192,6.9685 3.3687,21.7643 -0.1321,7.9593 6.275,15.5884 -2.0476,14.9609 7.0346,10.3042 -1.7174,9.3795 -13.1775,4.2604 -10.9317,9.0822 -2.0146,15.2581 -2.8072,7.1667 -3.8641,6.6053 -18.4947,58.2913 -3.2366,14.3664 -5.6805,14.0032 -10.3702,14.9609 -18.0984,20.0799 -19.6176,17.9003 -6.0438,13.1774 -1.6183,14.6637 0.8917,17.5039 -0.7266,17.3388 11.7243,10.073 57.3336,22.0616 131.6427,32.2996 11.0968,8.0915 7.1667,4.0292 6.4401,5.1521 5.8127,9.7757 2.576,5.6475 1.5853,5.3173 6.1098,10.6674 3.3687,11.3281 4.0622,6.2089 5.2842,5.9447 11.7904,21.9625 41.514,-2.9724 8.3226,-5.6144 11.6583,-17.6691 14.6967,-14.9279 63.0141,-26.1568 21.2359,-1.6513 7.4639,-3.6329 8.0915,0.2642 6.8694,4.8219 9.2143,2.6421 16.5462,-1.3871 4.3925,-4.9209 6.5062,-4.7888 18.3295,-8.4217 11.0308,-3.666 19.6506,-10.9977 9.6107,-4.0292 7.7942,1.6513 1.5522,7.5961 2.9393,6.4401 10.5024,-2.1137 2.4109,-10.1391 2.6421,-5.5484 7.6291,0.4624 7.3318,-3.5668 6.0438,-6.8035 5.9778,-0.9907 5.8126,-0.1652 18.1975,11.6583 7.8602,22.0946 3.3687,4.3264 3.798,2.543 6.9355,16.9095 9.6767,5.1521 7.8272,-7.3319 5.5815,-8.4877 -1.2881,-8.6199 -6.1098,-5.2511 -0.099,-6.4732 4.0953,-9.3464 1.5192,-10.3042 6.0768,-8.0254 9.9079,-3.6329 38.3104,-21.8634 8.2896,-6.341 7.5961,-4.7558 0,0 -0.3633,-10.7996 -14.3664,-23.977 -5.9117,-4.5577 -3.1706,-0.5944 -3.4677,0.1651 -3.1375,-0.4293 -5.053,-5.0531 -7.0676,0.4954 -3.1706,-1.7834 -4.8548,-0.5284 -11.0638,13.4747 -6.1099,1.0899 3.4678,-2.51 2.7742,-2.7412 1.7173,-3.3687 0.4624,-4.4916 -2.9724,-6.1098 0.099,-2.7412 7.2988,-1.8164 8.1905,-3.4678 2.5431,-1.7174 -0.2312,-2.1136 -6.7704,-5.2182 -1.9816,-3.2696 6.8695,0.8257 4.4585,-2.3449 1.7174,-4.9209 -1.5853,-6.8364 -1.5852,-2.7412 -1.8495,-1.7834 -3.8971,-2.8733 -1.4862,-2.477 -1.8825,-6.5062 -0.7596,-1.7173 -1.7834,-0.1982 -9.4125,0.1982 -1.9485,-0.8917 1.0898,-2.0477 3.9632,-3.798 4.7888,-1.8164 1.9485,-1.5853 -2.1797,-4.6567 0.8257,-4.8879 -1.3541,-2.6091 -3.1375,-3.1375 -1.1559,-1.6843 -1.189,-2.6091 0.5285,-1.9815 1.9155,-1.5193 0.5944,-1.5192 -3.2035,-2.2788 -2.477,-3.6329 -2.8072,-13.1114 -1.9816,-4.7558 -5.6805,-5.2181 -1.6183,-2.2128 0.033,-1.8825 0.5285,-2.7411 -0.3633,-2.477 -2.6421,-1.1229 -0.9908,-0.2312 -0.7926,-0.6605 -1.5192,-1.5853 -2.3449,-1.1889 -1.189,1.0238 -0.5614,2.6421 -4.9209,0.2312 -2.7082,0.4954 -2.1137,1.0568 -0.7596,-4.6567 -0.033,-3.3687 1.189,-2.2127 2.9723,-1.3871 3.765,-0.3633 2.3119,0.3302 2.0806,-0.4623 3.1705,-2.8073 3.2036,-4.0622 0.7926,-2.8733 -0.7266,-7.9593 0.2973,-2.3449 1.321,-4.8218 0,-2.6751 -1.0568,-1.8165 -1.7834,-1.9816 -1.3871,-1.9815 0.1651,-1.6844 3.732,-7.563 -1.1229,-7.4309 -4.0623,-6.9025 -10.2051,-12.9793 -3.4347,-3.1705 -2.8403,0.1981 -2.6421,2.1798 -3.831,2.4439 -4.0622,1.9486 -3.3687,0.7265 0.9908,-2.4109 0,-1.8164 -1.7504,-3.8641 -0.4624,-2.6421 0.9247,-1.7174 1.3871,-1.5852 0.6936,-2.3119 -0.5615,-1.4201 -1.0568,-0.7596 -1.1229,-0.4293 -0.4954,-0.5945 0.1652,-0.8587 1.288,-2.4109 0.066,-0.3963 -0.066,-4.5246 -0.5284,-0.8917 -2.1467,-1.6513 -0.5615,-0.8917 0.2972,-5.3503 1.3871,-4.7558 -0.033,-3.3356 -4.0292,-1.2881 -4.6237,-0.4293 -1.8494,-1.3871 0.7926,-2.477 3.1375,-3.9301 -14.3004,1.3871 -3.5998,-1.3871 4.8218,-6.8695 0.9578,-0.6605 1.3871,-0.3963 2.6751,-1.0899 4.5576,-0.6275 3.5999,2.1137 4.8218,5.9117 4.5576,4.2604 0.4624,0.4954 3.4678,2.6751 1.6843,0.5945 2.8403,0.1651 3.3026,-0.9247 -1.4202,-2.1797 -6.6713,-5.0861 -2.609,-3.8641 -2.7412,-8.4216 -2.0146,-3.3357 -3.0715,-2.1467 -2.8402,-1.255 -2.6091,-1.7834 -2.0806,-3.9301 -0.9908,-5.0531 -0.1321,-2.9723 -1.4202,-1.4202 -4.7557,-0.3632 -2.5761,-0.7266 -0.9578,-1.6844 -0.6935,-1.9155 -1.3871,-1.4862 -8.2896,-2.3779 1.3211,-4.6897 0.4293,-20.0139 -0.9578,-5.4163 -2.0806,-6.1759 -2.9724,-5.5484 -7.9263,-8.1575 -0.7266,-6.7374 1.5853,-13.904 -0.2972,-7.2988 -1.0569,-6.6713 -1.9485,-6.275 -1.9156,-3.8971 0,0 -3.3686,-1.255 -8.818,-7.0346 -11.8565,0.3963 -46.0056,10.1391 -29.5254,9.9409 -14.7958,3.1705 -3.9962,-1.3871 -2.2458,-3.5338 -4.5576,-1.4202 -16.5461,3.732 -6.1099,10.007 -5.053,13.2435 -11.0308,6.7043 -13.5077,-0.4293 z" />
  <path
     id="TZ-04"
     title="Iringa"
     d="m 1365.7679,1411.179 -9.5115,-2.9063 -9.8419,-1.1559 -9.8418,-2.477 -9.0822,-0.8256 -3.5999,3.5008 -4.3264,2.7411 -4.7228,1.8495 -4.0622,3.1045 -10.106,5.7465 -8.752,7.0677 -2.7082,23.1183 -8.851,16.7774 -69.7845,14.5976 -11.9555,14.3994 0.3963,7.464 -4.6567,3.864 -11.0638,1.6183 -11.0638,-0.4954 -10.6344,-3.8971 -10.8657,-0.099 -8.1574,9.0161 -7.2988,10.2712 -19.5846,13.3426 -20.8066,11.6583 6.1099,4.0952 3.831,4.4255 -3.4017,6.6383 -4.7227,5.7136 -6.5062,15.3572 -5.4163,9.2804 -6.4401,8.5538 -4.3265,8.851 -2.0476,9.7427 3.4347,6.9686 9.0823,1.222 110.3077,-5.5815 12.1867,0.9908 35.1069,8.3556 8.7519,6.1429 10.1061,3.3357 64.203,10.2712 2.3779,7.2327 -0.8587,6.1759 6.275,1.0899 11.4271,-0.9578 10.7666,3.8641 6.5061,6.6713 -5.7135,7.7942 -10.3703,8.0914 -13.0453,3.8971 -5.7466,7.1007 -8.5538,19.8487 -6.2089,10.4033 -8.3887,6.4401 -10.007,3.4017 -8.6859,8.1245 -6.7373,10.3703 -4.954,9.9409 3.765,9.7427 5.0861,7.4639 3.831,8.1905 -2.7742,15.6545 33.5877,10.2381 0,12.0546 56.8712,20.047 -2.6421,42.835 22.4909,16.0838 22.4579,1.3211 17.3388,-5.7796 -2.8733,-9.3795 0.8917,-17.0746 -2.1797,-4.8548 -4.2935,-2.0146 -0.3302,-3.7981 6.0438,-8.851 -0.2973,-10.6675 -3.897,-9.6767 1.1889,-10.6014 19.0231,-0.5945 21.6652,6.242 27.1476,4.6237 3.8311,5.5814 1.1229,20.3442 5.086,4.3594 2.8733,-10.8656 -0.3633,-11.4271 8.818,-30.5493 7.0346,-6.7373 21.9625,-10.2051 16.8434,-15.1591 8.884,-24.8688 16.315,-20.4432 18.3626,-17.1406 20.7405,-12.7152 8.818,1.8825 7.6291,-1.9155 13.7719,-2.1137 4.0953,-7.0015 -1.5192,-8.0584 -1.2881,-3.9302 -0.3302,-4.0952 0.1321,-3.1045 0.3633,-2.543 7.4639,-7.1667 17.2727,-13.2766 20.8396,-7.6951 22.3258,2.2128 20.9056,6.2089 17.9663,-5.2181 8.6529,-21.2359 10.7005,-20.047 17.0085,-15.7205 11.6583,-15.3572 -4.954,-1.1559 -2.4439,0 -0.7927,-0.1321 -3.5338,-1.5192 -11.8894,-1.1229 -1.9486,0.066 -3.2365,1.1559 -3.2696,1.6513 -3.699,0.5945 -4.3594,-1.9156 -1.7504,-2.1797 -0.5285,-2.543 0.9248,-7.497 -0.1982,-0.8587 -0.6275,-0.8586 -1.3541,-1.0899 -1.7173,-0.7926 -3.5008,-0.7927 -6.1429,-0.6935 -4.7227,-1.9486 -5.5485,-1.2219 -0.9577,-0.5945 -2.2128,-2.8072 -4.0952,-3.3687 -5.02,-2.0807 -10.7996,-2.543 -3.1045,-0.3633 -5.2842,0.9578 -3.2035,0.1651 -6.9686,-3.1375 -4.0952,-7.0346 -5.2842,-24.1422 -1.255,-5.7796 -1.5192,-3.4017 -4.0292,-2.6421 -5.6806,-1.1559 -10.9977,0.1321 -6.3741,2.0807 -3.1375,0.3963 -2.9723,-1.5523 -0.8587,-1.8164 -0.6605,-4.6897 -0.9248,-1.8825 -1.321,-1.7834 -2.7082,-5.5485 -1.7834,-1.7503 -3.6329,-2.2458 -1.1889,-1.0569 -2.1798,-4.8879 -1.6513,-5.4163 -2.8072,-4.3594 -5.5154,-1.8165 -4.5906,-0.7596 -21.4341,-8.5538 -3.2035,-0.3302 -5.1851,0.2972 -2.7082,-0.2312 -1.8825,-0.9578 -3.4347,-0.9247 -13.7059,3.3357 -4.954,-0.9248 -9.3794,-3.2696 -4.1283,-0.7265 -3.5338,-1.5523 -4.2274,-2.7742 -2.4109,-0.5614 -20.8726,-5.1521 -7.596,0.5614 -8.3887,-0.6935 -16.9425,-9.3465 -11.394,-4.1943 -11.4271,-1.255 -3.4017,-2.0146 0.066,-3.765 -2.9723,-4.8218 -5.3173,-2.8733 -11.1298,-3.8311 -11.361,-0.9907 -7.9594,1.321 -8.0254,0 -6.7703,1.7504 -4.8549,5.1191 -23.878,3.7319 -23.0193,-13.9701 z" />
  <path
     id="TZ-03"
     title="Dodoma"
     d="m 1788.0086,1192.0498 -16.4801,-4.8218 -15.8856,-6.242 -11.8234,-10.4363 -8.5868,-13.4087 -6.8365,-13.871 -9.5115,-11.5922 -15.2582,-7.2328 -14.4324,-8.884 -8.3226,-10.8326 -6.8035,-11.9225 -11.0637,-11.0308 -12.3188,-9.8748 -9.0823,-9.5777 -3.1705,-10.9316 4.0953,-13.3757 -2.5761,-15.0269 5.1521,-12.7482 7.53,-11.72428 5.086,-16.71129 8.752,-57.23451 2.7412,-48.38347 -1.288,-7.76117 -5.4824,-12.12063 -3.831,-13.01235 -2.3119,-13.34261 -1.6513,-70.54409 -59.3152,16.77734 -7.0345,5.38328 -5.8457,3.43473 -2.6751,1.94855 -7.2658,12.08761 -11.7573,-0.29723 -5.8127,3.99617 -5.7135,2.84026 -3.9962,-2.24578 -4.1283,-1.68434 -3.831,2.67512 -2.51,4.06223 -10.2051,9.77578 -18.6599,12.84721 -5.2181,-2.0146 -2.1467,1.22197 -1.0899,4.19434 0.4294,3.99617 1.321,3.79802 4.1943,8.4217 -2.2457,9.08222 -12.0216,19.05615 -16.315,33.15837 -5.2181,8.45472 -12.3849,2.08065 -21.6982,-2.0146 -2.9063,-1.3871 -3.1706,-0.36329 0.9578,8.38867 -3.9301,7.9263 -2.1467,6.17591 -57.829,39.69756 -1.255,7.92631 4.8549,7.99235 0.7596,8.85105 -0.2312,8.8841 3.0384,9.6436 4.2934,9.3465 3.765,16.1498 5.4824,7.9263 6.4401,6.9355 2.9393,7.497 4.1944,6.9355 3.5338,2.2788 2.543,3.0384 1.6843,1.4862 2.2458,0.5284 1.0238,3.8641 0.5615,4.5906 5.9777,9.9079 7.8933,8.5208 2.6421,6.9025 -4.8879,6.0108 -7.3648,6.4401 -1.189,9.6106 -2.3118,9.1153 -6.0769,8.9501 -8.4547,19.8488 -0.8587,27.676 -5.1521,21.434 1.9486,20.7405 4.8218,8.4217 2.2128,9.4125 -0.099,8.5868 -3.9301,7.596 -2.477,21.4341 4.1943,40.8865 -6.5392,15.9187 -29.8887,1.3871 3.831,22.2266 1.1229,25.3972 23.0193,13.9701 23.878,-3.7319 4.8549,-5.1191 6.7703,-1.7504 8.0254,0 7.9594,-1.321 11.361,0.9907 11.1298,3.8311 5.3173,2.8733 2.9723,4.8218 -0.066,3.765 3.4017,2.0146 11.4271,1.255 11.394,4.1943 16.9425,9.3465 8.3887,0.6935 7.596,-0.5614 20.8726,5.1521 2.4109,0.5614 4.2274,2.7742 3.5338,1.5523 4.1283,0.7265 9.3794,3.2696 4.954,0.9248 13.7059,-3.3357 3.4347,0.9247 1.8825,0.9578 2.7082,0.2312 5.1851,-0.2972 3.2035,0.3302 21.4341,8.5538 4.5906,0.7596 5.5154,1.8165 2.8072,4.3594 1.6513,5.4163 2.1798,4.8879 1.1889,1.0569 3.6329,2.2458 1.7834,1.7503 2.7082,5.5485 1.321,1.7834 0.9248,1.8825 0.6605,4.6897 0.8587,1.8164 2.9723,1.5523 3.1375,-0.3963 6.3741,-2.0807 10.9977,-0.1321 5.6806,1.1559 4.0292,2.6421 1.5192,3.4017 1.255,5.7796 8.7519,-9.1152 1.7834,-11.1629 -2.9393,-11.5262 -1.4862,-11.7243 2.9724,-10.7996 10.1391,-21.2689 19.4524,-12.0876 1.189,-10.7005 -1.222,-42.9341 5.6145,-17.7351 3.6328,-5.2182 -0.1321,-5.9447 -2.6751,-3.8311 0.6936,-3.798 3.3686,0.9578 3.3357,0.4954 2.7081,-4.2934 1.4202,-5.0531 4.9869,-11.9224 5.8457,-23.3496 9.7758,-4.8549 12.8142,-19.3864 -6.4402,-56.2107 0.3633,-13.6728 7.0676,-11.5262 z" />
  <path
     id="TZ-15"
     title="Zanzibar West"
     d="m 2360.0565,1199.6128 -8.5869,-0.7596 -8.6198,0.7266 -0.8587,-0.033 1.6183,5.4493 1.9155,13.7719 -8.5208,10.4033 2.1137,4.2934 3.0054,10.7336 2.2458,3.7319 11.9555,13.838 0.5615,0.9908 0.7926,0.8917 2.1467,1.3871 2.2128,0.9578 0.8917,-0.1321 0.3632,-0.5284 0.5945,-0.2973 -2.543,-2.7742 -0.8587,-5.3502 1.0238,-3.732 3.1706,2.2128 -0.2312,-1.3211 0.1981,-1.0238 -0.1981,-0.6936 -1.3871,-0.2311 0,-1.7504 3.2365,-1.7504 1.8165,1.5192 0,0 -0.2642,-1.4532 -0.6936,-4.9209 -4.1613,-4.3925 -2.4109,-5.4163 -0.4293,-6.0768 1.4531,-18.7259 -1.1889,-4.7228 -0.3633,-4.8218 z" />
  <path
     id="TZ-07"
     title="Kaskazini-Unguja (Zanzibar North)"
     d="m 2351.4366,1157.2071 0,-4.7228 -1.4531,-3.1044 1.6183,-2.444 -1.9486,-2.9393 -1.1559,-4.2274 0.1651,-3.2696 -2.7742,1.9816 0.6605,4.8879 -0.6605,6.6713 -0.4954,4.2274 0.4954,3.4347 2.6091,0.1651 2.9393,-0.6605 z m 28.3696,13.3426 -0.7266,-3.6659 0.066,-3.699 1.6843,-10.0399 -1.4201,-8.3887 -7.2658,-13.0784 -2.7742,-7.2658 -4.3265,4.3265 -1.6513,17.603 -1.9485,7.5299 -3.8971,4.5577 -8.4878,7.0676 -3.9631,6.4401 -0.6936,-1.321 -1.8164,-2.444 -0.7266,-1.288 -0.9908,1.7834 -0.6605,2.4109 -0.2312,2.8073 0.2642,2.9063 -1.0568,13.3756 2.8072,9.3795 0.8587,0.033 8.6198,-0.7266 8.5869,0.7596 17.2067,-1.1559 9.0822,-6.0108 1.321,-0.7926 0,-0.033 -4.2934,-7.0346 -1.0568,-3.732 -0.4294,-3.5008 -2.0806,-6.8034 z" />
  <path
     id="TZ-19"
     title="Pwani"
     d="m 2472.676,1685.0328 9.8749,-10.9978 2.543,-3.1044 -1.1229,-3.4018 -5.3503,-0.2642 -7.629,0.8587 -6.4732,7.8933 -2.8402,5.053 -1.3871,6.209 1.3871,3.9631 3.9631,0.2642 7.0346,-6.4731 z m 34.2152,-74.5403 3.765,-16.1168 0.3963,-7.7282 -3.6329,-4.0292 -0.4623,2.411 -2.4109,6.1428 -1.156,1.255 -2.1136,1.3211 -2.3449,3.1375 -1.9155,3.5338 -1.6183,6.1429 -2.1797,1.8825 -5.0861,2.1137 -4.3264,3.0384 -2.51,1.321 -2.8403,0.6936 0,1.4862 6.1099,-0.6606 2.2458,0.3633 1.321,1.9155 -4.0622,0.8257 -7.3979,3.4347 -3.9632,0.8257 -4.3264,-0.066 -3.732,0.5284 -2.7081,1.8495 -1.3211,4.0292 2.1798,2.6751 -3.4348,5.4824 -10.2051,9.9409 -1.3541,0.4294 -1.6182,-0.099 -1.3541,0.4293 -0.5615,1.8165 -0.3302,0.033 -0.7596,1.5852 -0.6275,1.6844 -0.033,0.6935 -2.0146,0.7927 -4.0292,0.1651 -2.2127,0.5284 3.831,2.9063 6.275,6.7374 4.7888,1.9485 3.9301,-0.1321 4.7889,-1.0898 9.3794,-3.699 2.2788,-3.2365 1.4202,-5.4824 3.0384,-5.1851 6.8694,-2.2458 6.5723,1.9485 2.8072,0 1.1559,-2.8733 0.4293,-1.6843 2.0807,-2.8072 0.6936,-1.288 1.6182,-4.921 0.3303,-1.5522 -0.066,-1.5192 0.4953,-1.7834 3.1375,-4.3265 6.7704,-15.5223 z m -414.1162,-452.79 -16.9095,-1.3541 -6.1098,2.9724 -6.8695,1.1229 -16.0838,-3.699 -35.9326,9.6767 11.229,8.5538 7.1667,12.2197 0.3963,6.8365 1.5192,6.5392 4.2604,4.5246 6.4401,13.937 6.0438,7.8933 2.7742,5.7136 3.5008,5.1521 6.341,1.9815 5.4494,0.9578 -3.4348,0.6605 -1.5522,2.0807 6.1429,2.9393 4.2934,5.1851 0.7596,19.2213 -4.9209,36.494 -6.0108,14.0362 -4.3264,4.7558 -0.2312,5.2512 -0.8917,-0.1652 2.3118,3.8971 3.0715,3.8971 2.2457,5.4163 4.3595,1.9816 6.8364,0.9578 6.8695,3.4677 23.7459,8.9171 5.6144,0.6275 5.5154,-0.9908 2.2788,-1.9816 2.6091,-1.288 4.4916,-0.3633 4.1943,0.8917 4.0623,17.9333 -6.0769,14.2013 -2.2127,14.0362 9.2473,13.2765 5.1851,-0.1981 4.2274,2.6421 2.2458,2.2127 2.8402,1.288 3.732,-0.9247 3.5999,-1.4201 4.8218,0.9908 3.6329,2.4439 6.0108,-0.4624 4.4255,3.5338 0.7926,8.4548 2.3119,2.7081 1.3871,3.1045 -5.9448,12.1206 -8.5538,10.7336 -5.2511,10.139 -9.4125,1.1229 -8.818,5.3503 -6.7374,8.785 -5.7796,17.7351 10.2712,29.6906 4.6897,10.139 -1.288,8.6859 -38.1784,6.5723 -11.5592,4.0292 -11.8894,2.2457 -8.2896,-2.0806 -8.6529,-0.9578 -21.1038,4.0623 -9.1152,3.1375 -7.0676,6.374 -1.9156,11.9886 0.066,12.5169 -2.576,11.2289 0.5284,11.6583 -1.0238,1.0899 -1.3541,2.0146 -0.8917,1.9815 -0.8587,0.4294 -0.8257,0.8256 -1.3871,1.7504 -0.6935,1.3211 -2.6091,10.139 -0.5945,5.4824 -0.6935,2.6751 -1.8825,2.3779 33.1253,25.3312 12.0216,7.3648 28.1384,9.8418 29.2282,6.4071 13.1775,6.7374 21.7973,19.2543 11.5922,7.9593 17.5039,16.8104 3.8641,22.689 3.8641,9.7428 13.5077,0.4293 11.0308,-6.7043 5.053,-13.2435 6.1099,-10.007 16.5461,-3.732 4.5576,1.4202 2.2458,3.5338 3.9962,1.3871 14.7958,-3.1705 29.5254,-9.9409 46.0056,-10.1391 11.8565,-0.3963 8.818,7.0346 3.3686,1.255 0,0 -1.0898,-2.2458 3.5338,-1.288 1.6843,-2.1137 -0.099,-2.8072 -1.8824,-3.4678 2.2788,0.6605 1.9485,1.4862 3.8641,4.2604 1.4201,-4.4916 0.066,-1.9155 3.3686,1.4862 -0.6605,-4.2274 0.5615,-8.5868 -1.6513,-3.5338 1.8494,-0.3303 0.7596,-0.3963 0.7266,-0.066 1.6183,0.7926 3.4677,-6.5392 7.8933,-21.5662 7.6291,-12.1536 2.9724,-6.7704 0.7265,-7.3649 -1.1889,1.156 -3.6659,2.2457 -1.0238,-4.2934 -0.2312,-9.3464 -2.543,-8.3557 0.2972,-2.9393 3.5008,-7.7612 1.5522,-5.9117 -0.7596,-3.3686 -6.4731,-6.3081 -4.1614,-2.9393 -4.0292,-0.4624 -8.917,0.8918 3.7649,-3.5669 -0.3632,-3.4017 -2.8403,-3.2696 -3.6659,-3.0054 -2.0146,7.6951 -3.3687,7.9594 -5.1851,5.9447 -7.2658,1.6183 10.5684,-12.3849 1.1559,-4.1943 -3.5998,-8.752 0.8256,-3.4017 1.3871,-3.5668 -0.7926,-4.4916 -3.0384,-7.6621 -0.9908,-4.9539 -0.2642,-4.8879 4.1613,-26.3549 2.7742,-9.0492 6.275,-5.7796 2.51,-4.3925 2.1137,-4.8879 1.0568,-3.5008 -0.033,-5.1521 -1.6183,-3.0384 -2.3449,-2.6751 -2.3118,-3.8641 2.9063,-0.1651 3.765,0.2311 3.3026,-0.6275 1.3871,-2.7081 -0.6605,-1.8495 -1.0568,-2.1137 -0.2312,-1.8164 1.8494,-0.7266 1.9816,-0.2312 1.4862,-0.5944 3.0714,-2.444 2.7412,-3.2696 1.0238,-3.5338 0.5615,-3.831 1.3541,-4.2604 1.8825,-2.543 0,0 -0.1652,-0.1652 -2.7412,-3.6989 -3.1705,0.9908 -0.3633,-33.885 -5.1851,-8.5538 -6.6052,-7.596 -6.1429,-1.7834 -5.9117,-0.8257 -3.4348,0.3633 -3.0384,-0.2972 -7.9593,0.9247 -5.4163,7.9263 -3.732,0.3303 -3.4347,-0.4954 -2.0807,4.1943 -3.5998,3.0714 -4.2604,-1.4531 -3.6329,-1.6843 -4.8218,3.6989 -3.2036,5.3833 -5.4823,3.5008 -4.8879,-4.5907 -4.5577,1.6183 -2.8072,-2.5761 2.8733,-5.6805 4.1943,-5.053 1.222,-5.7466 2.8072,-4.9209 4.7228,-2.8072 2.576,-4.5246 -2.1136,-5.1191 -1.222,-4.7557 -6.7043,-4.2274 -1.7835,-8.2566 -0.099,-4.5576 -3.0054,-2.576 -5.7136,-0.3633 0.5615,-3.5669 6.6713,-8.4547 3.0384,-10.4033 1.1559,-11.5922 4.3595,-10.6014 4.3594,-3.699 4.0623,-4.5906 1.6513,-1.5522 0,-0.033 -7.2658,-8.7849 -13.1114,-12.4509 -4.9539,-2.2128 -6.7704,-2.1137 4.6567,3.1045 3.831,1.5192 2.0476,0.8917 0.2312,1.9155 -2.543,0.9248 -2.4109,-0.9248 -2.5761,-1.4862 -6.5722,-0.3302 -3.0054,-0.5615 -1.0898,-1.1229 -0.6606,-1.6513 -0.8256,-1.5522 -1.6183,-0.7266 -3.1045,-0.1321 -1.1889,-0.4954 -1.3871,-0.9908 -1.8825,-2.0476 -1.5523,-2.4439 -1.0568,-2.7082 -0.3633,-2.543 -1.0238,-2.3119 -2.4439,-1.6513 -2.9064,-1.4862 -2.576,-1.8825 -2.9724,-5.9447 -0.8256,-13.3756 -1.8165,-5.9447 2.8073,-3.4678 1.6843,-5.1521 0.5615,-5.7466 -0.9248,-8.9831 -0.4293,-1.4862 -3.699,-3.1375 -5.2181,-3.3687 -1.3871,-1.354 -0.9908,-2.3779 -2.2458,-9.1813 -1.0568,-1.5853 -2.9394,-3.4017 -0.8917,-1.5522 -0.2312,-5.7466 1.7504,-5.2181 2.2458,-4.8219 1.288,-6.0768 -19.8157,-3.3026 -3.8641,3.1044 -4.7558,1.5853 -3.2696,-0.6275 -3.2696,0.3633 -4.2934,4.4585 -5.1851,1.6513 -13.6068,5.9117 -3.1045,-1.7173 -3.4017,0.8587 -4.8218,0.033 -4.1944,-1.6513 -2.6421,1.7173 -2.3779,2.0146 -7.9263,-1.6843 -4.0292,-2.4109 -3.5998,-3.5999 -7.563,0.4294 -6.5062,-2.7742 -6.2089,-8.719 -10.1061,-2.6421 -8.851,-3.2365 -6.6713,-7.3649 -14.8618,-7.4309 z" />
  <path
     id="TZ-10"
     title="Kusini-Pemba"
     d="m 2451.5062,1066.6491 0.5284,-2.9063 -2.3449,-3.0384 -3.5998,-0.9908 -3.765,-1.3871 -2.7742,-4.2934 -2.51,-3.4678 -3.4678,-2.2128 -2.0806,-1.0898 -1.5192,2.7742 2.51,3.4677 2.7742,2.9063 2.0806,3.0385 3.5999,4.2934 4.1943,3.3356 6.3741,-0.4293 z m 30.6153,-66.3167 -0.7926,-3.33569 0.7926,-3.36868 -1.9815,-2.74118 -6.8365,-0.19816 -2.1797,1.15592 0.8587,3.93013 -1.7835,4.59066 1.7504,1.7834 -4.3925,0.1321 -8.0584,-1.1889 -2.2788,-0.7266 -2.2458,1.1229 -1.5852,-0.4624 -1.6844,-1.22196 -2.543,-1.05684 1.7504,3.0714 2.7082,2.444 2.8733,0.8917 2.3448,-1.5192 10.7996,6.8034 5.7796,1.6513 4.7888,-1.7834 -1.6183,4.7888 -2.3448,0.6936 -4.2935,-2.2458 -3.7319,0.1981 -5.6805,1.4862 -3.699,-0.033 1.4862,2.0476 1.9155,1.3211 2.3119,0.8917 2.7081,0.6275 -2.3118,2.1797 -4.1944,0.7266 -4.6567,-0.3303 -3.6989,-0.9577 1.3541,3.6659 4.9539,6.1098 1.9155,3.3687 -8.3556,-1.4532 -2.9724,0.4954 1.4862,2.5761 -2.2128,3.3026 -0.9247,3.798 -0.099,8.3227 1.3871,3.2365 3.4348,1.1229 8.2565,-0.2972 1.6844,2.8402 1.9485,-0.3963 2.543,-1.5852 3.4017,-0.8587 0,1.7834 -2.1136,1.3211 -0.8257,1.5192 0.6605,0.8917 2.2788,-0.6275 3.3357,-2.1137 2.6751,-2.477 1.255,-2.6421 -0.7926,-2.543 1.1229,-1.222 0.8256,-1.3871 1.5853,-3.8971 1.3211,0 -1.189,4.2604 1.3871,1.9155 2.0807,-0.5614 1.0898,-3.1375 0.099,-4.0292 0.3303,-1.4862 0.9908,-1.0238 1.8164,-2.543 7.0346,-21.0708 2.8403,-3.3356 -1.7835,-1.7835 1.7174,-3.831 0.066,-11.1959 0,0 -6.6713,2.21276 -4.5246,2.37784 -4.6898,-0.9907 z" />
  <path
     id="TZ-06"
     title="Kaskazini-Pemba"
     d="m 2498.0072,996.7325 0,-2.84026 1.6182,-9.11525 -0.3963,-4.19433 -3.0054,-1.32105 -0.3632,1.18894 0.3963,2.31184 -0.1652,2.27881 -2.1797,0.99079 -0.2312,-1.255 -2.2788,-7.13367 0.7596,-4.5246 1.4532,-4.6567 0.7596,-4.62367 -1.189,-4.22737 3.2036,-1.58526 4.2273,-3.33565 2.6752,-4.29341 -2.7082,-8.91709 0.6275,-5.68052 0,-4.85486 -3.2035,-2.08065 0.4623,3.10447 -0.5284,4.49157 -1.3871,4.75578 -1.9485,3.8971 -0.3303,-1.35408 -0.8257,-1.78342 -0.2642,-1.71736 -2.8072,2.87328 -0.033,2.6421 0.8917,2.31184 0.1651,1.91552 -1.5522,1.84947 -0.9908,-0.85868 -0.5615,-2.41092 -0.1651,-2.70815 -1.9816,-1.8825 -10.9647,-6.27499 -0.7926,-1.08986 -3.8311,-3.83105 -1.1889,-0.82565 -1.4532,0.92473 -0.5284,1.98158 -0.8587,1.75039 -2.6421,0.36329 -0.2312,-1.05684 -0.7926,-2.27882 -1.288,-2.24578 -1.8495,-1.05684 -0.6935,-0.23119 -0.6936,-0.69355 -0.5614,-0.99078 -0.5284,-1.22198 -0.2973,3.63289 -1.4531,6.63828 0.1321,2.77421 2.6751,3.23657 3.831,2.08065 2.6752,2.21276 -0.9248,3.83105 -4.1282,-2.47697 -3.2036,1.12289 -1.288,3.46776 1.9485,4.39249 3.4017,-1.61828 -1.0238,2.44394 -3.2696,2.67513 -0.6935,2.24578 7.6951,2.93934 2.0146,1.22197 1.5192,2.37789 0.1982,2.08066 -1.2881,0.79263 -2.7742,-1.32105 -1.8164,0.19815 -1.222,2.54302 -0.2972,3.36868 0.9577,2.80723 -0.8917,1.45316 -0.3633,1.05684 -0.5284,2.6421 2.8072,-1.51921 2.3779,0.0991 1.8495,1.15592 1.3871,1.75039 -0.6605,1.55224 -1.255,4.82183 3.2035,-3.30262 2.5761,1.25499 2.1797,-1.15592 6.8365,0.19816 1.9815,2.74118 -0.7926,3.36868 0.7926,3.33567 4.6898,0.9907 4.5246,-2.37782 6.6713,-2.21276 0,0 z" />
  <path
     id="TZ-16"
     title="Morogoro"
     d="m 1925.9593,1147.6955 -3.0054,-1.1229 -0.6275,-1.7173 -1.288,-0.9908 -7.563,-2.543 -3.5668,6.341 -4.3265,27.3788 -7.629,6.8364 -8.5869,3.5008 -7.4969,9.1483 -10.073,7.4969 -4.6898,9.6107 -6.341,6.341 -6.3411,-4.1943 -5.3502,-5.7136 0.033,-2.2458 -0.8587,-1.5522 -0.8917,-6.242 4.8879,-7.0015 -6.308,-2.1137 -7.1337,-3.6989 -3.5998,-25.166 -34.5125,27.8411 -12.6821,4.1613 -7.0676,11.5262 -0.3633,13.6728 6.4402,56.2107 -12.8142,19.3864 -9.7758,4.8549 -5.8457,23.3496 -4.9869,11.9224 -1.4202,5.0531 -2.7081,4.2934 -3.3357,-0.4954 -3.3686,-0.9578 -0.6936,3.798 2.6751,3.8311 0.1321,5.9447 -3.6328,5.2182 -5.6145,17.7351 1.222,42.9341 -1.189,10.7005 -19.4524,12.0876 -10.1391,21.2689 -2.9724,10.7996 1.4862,11.7243 2.9393,11.5262 -1.7834,11.1629 -8.7519,9.1152 5.2842,24.1422 4.0952,7.0346 6.9686,3.1375 3.2035,-0.1651 5.2842,-0.9578 3.1045,0.3633 10.7996,2.543 5.02,2.0807 4.0952,3.3687 2.2128,2.8072 0.9577,0.5945 5.5485,1.2219 4.7227,1.9486 6.1429,0.6935 3.5008,0.7927 1.7173,0.7926 1.3541,1.0899 0.6275,0.8586 0.1982,0.8587 -0.9248,7.497 0.5285,2.543 1.7504,2.1797 4.3594,1.9156 3.699,-0.5945 3.2696,-1.6513 3.2365,-1.1559 1.9486,-0.066 11.8894,1.1229 3.5338,1.5192 0.7927,0.1321 2.4439,0 4.954,1.1559 -11.6583,15.3572 -17.0085,15.7205 -10.7005,20.047 -8.6529,21.2359 -17.9663,5.2181 -20.9056,-6.2089 -22.3258,-2.2128 -20.8396,7.6951 -17.2727,13.2766 -7.4639,7.1667 -0.3633,2.543 -0.1321,3.1045 0.3302,4.0952 1.2881,3.9302 1.5192,8.0584 -4.0953,7.0015 -13.7719,2.1137 -7.6291,1.9155 -8.818,-1.8825 -20.7405,12.7152 -18.3626,17.1406 -16.315,20.4432 -8.884,24.8688 -16.8434,15.1591 -21.9625,10.2051 -7.0346,6.7373 -8.818,30.5493 0.3633,11.4271 -2.8733,10.8656 -5.086,-4.3594 -1.1229,-20.3442 -3.8311,-5.5814 -27.1476,-4.6237 -21.6652,-6.242 -19.0231,0.5945 -1.1889,10.6014 3.897,9.6767 0.2973,10.6675 -6.0438,8.851 0.3302,3.7981 4.2935,2.0146 2.1797,4.8548 -0.8917,17.0746 2.8733,9.3795 4.4585,-2.1467 3.9632,-3.3357 5.086,2.4439 16.2489,24.8688 44.8827,35.4042 3.2696,10.9317 0.6936,11.427 9.6106,-2.3118 9.2474,-3.5999 14.0031,-13.1774 15.2251,-17.2397 0.8257,2.2788 -1.5523,2.2458 0.066,3.9631 1.0898,4.8879 0.8257,17.1076 2.6751,8.4547 4.0953,7.9924 -3.6659,12.0876 -9.6107,8.785 -3.5998,7.3979 -0.9578,7.596 2.2128,5.086 -1.6514,5.0531 -8.1574,10.139 -10.4694,16.6452 -4.5576,3.7981 -5.2512,0.2972 -3.798,3.1375 -1.5192,14.5976 10.3042,7.9924 33.0263,-1.222 8.5538,1.255 8.3886,-0.5615 3.9632,-5.0199 2.1797,-6.5062 10.7335,-9.4125 10.4363,-3.0054 -0.6935,3.0714 1.7504,1.8165 2.1797,-0.6275 1.255,2.0476 6.3411,3.798 20.6744,-5.3502 14.4655,2.4439 19.6176,-2.8072 1.3871,-1.0899 6.1099,-6.4401 10.5023,-14.9279 2.1137,-6.0107 -0.099,-10.7996 4.9209,-1.3871 2.6751,-1.3541 3.0715,6.7374 -0.2312,7.8272 7.3649,18.2965 9.5776,17.537 -7.4309,19.4524 -12.9133,16.9755 5.9778,11.4271 16.1168,-0.4293 21.9294,-12.1207 19.0562,-16.6452 13.6728,-16.381 15.7536,-14.2343 18.6928,-11.8895 7.6291,-3.4347 21.1038,-15.8526 17.669,-5.2182 18.4947,-58.2913 3.8641,-6.6053 2.8072,-7.1667 2.0146,-15.2581 10.9317,-9.0822 13.1775,-4.2604 1.7174,-9.3795 -7.0346,-10.3042 2.0476,-14.9609 -6.275,-15.5884 0.1321,-7.9593 -3.3687,-21.7643 1.5192,-6.9685 10.2712,-21.1038 5.4824,-18.3956 0.7265,-5.3173 0.099,-5.086 -0.9247,-3.0384 -4.0953,-7.3649 1.8825,-7.0346 4.7888,-6.1759 4.8219,-4.8879 4.0952,-5.5484 6.7374,-12.3188 4.5576,-5.8456 1.4201,-0.9578 3.4017,-1.1559 1.7504,-1.222 1.1559,-1.7173 1.1229,-3.3687 3.5008,-4.8549 2.8403,-6.9355 8.2235,-13.0454 1.8495,-2.0476 3.3026,-1.4862 4.2934,-1.2219 3.732,-1.9486 1.5853,-3.6989 0.7596,-3.732 1.8164,-3.1705 6.0108,-7.0676 0.7596,-1.5523 0.3303,-1.6843 0.033,-2.4109 0.5614,-2.1467 1.288,-1.4202 1.5853,-1.321 1.4532,-1.6513 4.8218,-8.3557 2.7082,-3.3356 3.798,-3.1706 6.1429,-3.4677 1.9485,-1.5853 1.5192,-2.1136 2.3449,-4.6568 1.5192,-1.9155 1.8825,-2.3779 0.6935,-2.6751 0.5945,-5.4824 2.6091,-10.139 0.6935,-1.3211 1.3871,-1.7504 0.8257,-0.8256 0.8587,-0.4294 0.8917,-1.9815 1.3541,-2.0146 1.0238,-1.0899 -0.5284,-11.6583 2.576,-11.2289 -0.066,-12.5169 1.9156,-11.9886 7.0676,-6.374 9.1152,-3.1375 21.1038,-4.0623 8.6529,0.9578 8.2896,2.0806 11.8894,-2.2457 11.5592,-4.0292 38.1784,-6.5723 1.288,-8.6859 -4.6897,-10.139 -10.2712,-29.6906 5.7796,-17.7351 6.7374,-8.785 8.818,-5.3503 9.4125,-1.1229 5.2511,-10.139 8.5538,-10.7336 5.9448,-12.1206 -1.3871,-3.1045 -2.3119,-2.7081 -0.7926,-8.4548 -4.4255,-3.5338 -6.0108,0.4624 -3.6329,-2.4439 -4.8218,-0.9908 -3.5999,1.4201 -3.732,0.9247 -2.8402,-1.288 -2.2458,-2.2127 -4.2274,-2.6421 -5.1851,0.1981 -9.2473,-13.2765 2.2127,-14.0362 6.0769,-14.2013 -4.0623,-17.9333 -4.1943,-0.8917 -4.4916,0.3633 -2.6091,1.288 -2.2788,1.9816 -5.5154,0.9908 -5.6144,-0.6275 -23.7459,-8.9171 -6.8695,-3.4677 -6.8364,-0.9578 -4.3595,-1.9816 -2.2457,-5.4163 -3.0715,-3.8971 -2.3118,-3.8971 0.8917,0.1652 0.2312,-5.2512 4.3264,-4.7558 6.0108,-14.0362 4.9209,-36.494 -0.7596,-19.2213 -4.2934,-5.1851 -6.1429,-2.9393 1.5522,-2.0807 3.4348,-0.6605 -5.4494,-0.9578 -6.341,-1.9815 -3.5008,-5.1521 -2.7742,-5.7136 -6.0438,-7.8933 -6.4401,-13.937 -4.2604,-4.5246 -1.5192,-6.5392 -0.3963,-6.8365 -7.1667,-12.2197 -11.229,-8.5538 -3.831,3.5008 -5.6805,-1.7174 -3.5338,3.0054 0.2972,6.6713 -9.5776,3.0715 -12.4179,-0.6606 -6.4071,6.5062 -5.7135,-4.9209 -15.3903,-17.669 -2.7742,-10.9648 -8.0253,-3.3356 -4.1283,-0.4624 -4.0623,-2.1467 -3.6659,0.3963 z" />
  <path
     id="TZ-02"
     title="Dar-Es-Salaam"
     d="m 2398.1358,1473.5987 0.2642,-0.3303 9.9739,-7.0016 0.7926,4.0623 1.6844,2.1467 2.2457,0.033 2.6421,-2.0807 1.3872,-2.8072 1.8164,-6.4731 2.3779,-3.0385 3.5668,0.3303 0.2312,-6.308 -2.0146,-15.2251 0.5614,-1.5192 1.255,-1.255 1.156,-1.4532 0.2642,-2.3118 -0.7596,-1.6513 -11.328,-15.06 -1.9816,-7.0346 -4.3925,-5.7796 -0.9908,-3.3026 -1.6843,-1.3541 -8.6859,0.099 -3.5338,-1.255 -2.9724,-1.6513 -7.1667,-0.6606 -3.6329,-0.9577 -6.7374,-4.0953 -3.4347,-1.354 -4.3594,-0.2643 1.0568,1.9486 0.3963,1.8495 0.1651,4.3594 -4.7888,-4.4915 -0.1321,-8.4548 1.1229,-9.3134 -1.0568,-6.9355 -3.8311,4.1283 -4.2604,-3.1705 -3.5338,-6.5392 -1.4861,-5.9447 -0.3303,-3.0385 -0.9247,-3.1044 -1.5853,-2.7082 -2.0146,-1.7504 -4.0292,-2.4439 -2.1137,-2.1798 -3.5668,-6.1428 -1.8495,-2.0477 -6.242,-4.4915 -0.5614,-0.6606 0,0.033 -1.6513,1.5522 -4.0623,4.5906 -4.3594,3.699 -4.3595,10.6014 -1.1559,11.5922 -3.0384,10.4033 -6.6713,8.4547 -0.5615,3.5669 5.7136,0.3633 3.0054,2.576 0.099,4.5576 1.7835,8.2566 6.7043,4.2274 1.222,4.7557 2.1136,5.1191 -2.576,4.5246 -4.7228,2.8072 -2.8072,4.9209 -1.222,5.7466 -4.1943,5.053 -2.8733,5.6805 2.8072,2.5761 4.5577,-1.6183 4.8879,4.5907 5.4823,-3.5008 3.2036,-5.3833 4.8218,-3.6989 3.6329,1.6843 4.2604,1.4531 3.5998,-3.0714 2.0807,-4.1943 3.4347,0.4954 3.732,-0.3303 5.4163,-7.9263 7.9593,-0.9247 3.0384,0.2972 3.4348,-0.3633 5.9117,0.8257 6.1429,1.7834 6.6052,7.596 5.1851,8.5538 0.3633,33.885 3.1705,-0.9908 2.7412,3.6989 0.1652,0.1652 z" />
  <path
     id="TZ-08"
     title="Kigoma"
     d="m 403.91115,527.82567 -2.90631,-0.033 -2.08066,-2.47697 0.46237,-13.14445 8.98314,-13.87103 6.60526,-17.04155 -0.4954,-17.93326 -1.12289,-1.81645 -1.91552,-0.82565 -1.78342,-2.87329 -0.26421,-3.69894 -5.54841,-10.53537 -9.97393,-3.96316 -23.31654,21.23589 -4.3925,6.14288 -4.75578,5.35026 -6.24196,3.30262 -0.72658,1.28803 -7.33183,8.45472 -1.55223,3.76499 1.15592,3.50079 5.84565,5.48236 2.34486,3.30262 0.033,1.255 -1.1229,3.17052 -0.19815,1.35408 0.82565,1.78342 3.10447,2.27881 0.95776,1.68434 0.26421,3.00539 -0.42934,2.97236 -2.04763,5.64749 -3.36868,4.78881 0.13211,1.75039 1.05684,4.22736 0.0991,1.3871 -3.56684,6.37407 -5.71354,3.8971 -6.57223,0.72658 -6.27498,-3.10447 -0.72658,2.80723 -1.51921,2.14671 -2.31184,1.28802 -2.90631,0.39632 -6.50617,2.44394 -5.21815,3.23657 -4.49157,4.16131 -4.35947,5.25118 1.65131,0.92473 7.1667,3.8971 -0.29723,6.34104 -6.24197,6.04381 -11.09682,5.18512 -3.10447,3.66592 -1.8825,1.65131 -1.61828,0.59447 -6.34104,1.45316 -0.36329,0.56144 -0.39632,2.08066 -0.26421,0.52842 -4.5246,0.36329 -0.1321,-0.46237 -0.46237,-0.033 -3.93012,0.59448 -0.6275,0.72657 -0.85868,2.80723 -0.59448,0.95777 -6.60525,4.72275 -1.28802,2.84026 0.56144,4.78881 -0.0991,4.32644 -1.78341,4.42552 -9.77578,15.39023 -1.65131,4.29342 0,0.16513 -0.26421,4.42552 0.99079,3.99617 1.35408,3.66592 0.72657,3.69894 -0.79263,4.16131 -10.5684,-3.43473 -6.01078,3.83104 -9.11525,15.75353 -12.4509,12.78116 -2.84025,4.85486 -4.12829,17.14063 -3.66591,8.88406 -0.6275,1.51921 -5.58144,9.64367 -7.13367,8.71893 -16.14984,13.44169 -2.47697,3.53381 -6.04381,14.49853 -2.97236,3.79802 -5.2842,2.97236 -2.41092,1.94855 -8.12446,4.62367 -8.48775,7.99236 -12.61603,5.9117 -2.08065,0.72658 -3.96315,-0.69355 -2.57605,-1.28803 -2.51,-0.33026 -3.86407,2.37789 -0.42934,0.82566 -0.49539,3.8971 -1.22198,2.0146 -4.06223,1.91552 -1.48618,1.3871 -0.89171,3.36868 -0.0991,3.07144 -0.72658,2.67513 -2.741182,2.11368 -1.089866,-0.39631 -9.676694,-0.75961 -11.65827,-2.7742 -55.517141,0.72657 0.759604,3.03842 0.858682,9.44551 -2.278812,20.11299 L 4.6897288,894.21899 0,914.36501 l 0.6605252,19.94786 4.5245975,18.9901 0.3302626,1.45315 7.9593287,19.38642 18.461679,33.91796 9.643667,38.5086 23.052329,54.4603 4.491571,20.047 -2.245785,18.3956 -7.629066,13.4417 -17.735101,24.0101 -4.722755,15.126 0.594472,9.4455 7.166699,26.6852 3.930124,28.4687 2.906311,9.3794 6.704331,11.262 16.116814,20.8395 11.955506,32.1346 5.38328,9.0162 7.496961,7.8932 31.870339,24.3074 22.75509,11.6582 8.45473,-5.7796 56.4749,-47.2936 6.10986,-8.2896 7.06762,-20.9386 22.45785,-15.4233 -0.82565,-10.7996 -4.19434,-9.6767 2.47697,-14.8948 -7.62907,-8.7189 -10.96471,-6.6383 -7.33183,-20.5423 -14.30037,-26.6522 -6.77039,-19.5516 -15.52234,-90.7231 -9.08222,-20.5754 -21.53312,-18.2965 4.19433,-5.3503 50.69531,-0.5944 11.62525,-2.7082 9.37945,-8.0584 15.32419,-17.3718 8.15748,-5.68053 65.35897,-0.39632 10.79959,0.69356 7.52998,4.75579 3.23658,5.2181 1.61828,1.4532 1.51921,0.2642 3.50079,-0.4624 1.58526,0.1982 5.87867,4.1283 7.00157,9.9739 5.08604,3.9301 3.56684,-3.2696 5.15209,-9.5115 4.12829,-2.0146 4.09525,1.7834 1.45316,4.2604 0.89171,10.2051 1.28802,2.8402 1.68434,1.8495 1.81644,1.5522 1.81645,1.9156 2.87328,5.9117 1.02382,1.5522 4.06223,4.2604 2.21276,3.0714 5.74656,19.3204 18.3626,-4.9209 17.07458,-3.8641 4.42552,-8.2896 -8.85104,-37.782 2.08066,-27.47787 11.52616,-32.10152 -1.02381,-6.37407 -2.84026,-3.69894 -1.51921,-3.96315 1.48618,-0.79263 11.79038,-9.01617 5.44933,-1.81644 1.65131,-1.05685 1.05684,-1.58526 0.92474,-3.76499 0.92473,-1.58526 4.22736,-2.6421 10.89867,-5.11907 1.91552,-2.87328 -2.57605,-24.9018 1.22198,-4.22737 4.45854,-3.07144 13.21051,-4.95394 2.11368,-2.34486 3.66591,-10.83261 -4.22736,-18.03234 -2.17973,-17.80115 -2.87329,-5.84565 -6.57222,0.66052 -1.65132,-10.76656 -0.0991,-11.03077 -7.86025,-12.48392 -5.05301,-12.3188 -0.75961,-4.19433 -2.84026,-3.53381 -0.95776,-7.52999 -1.94855,-7.2988 0.66053,-11.72433 7.86025,-21.96246 1.32105,-11.55919 -4.16131,-19.41944 -14.3334,-31.54008 -13.30958,-12.68208 -5.74657,-14.89484 -0.52842,-16.31498 -2.17973,-8.19051 -1.02381,-7.52998 0.7596,-8.81802 -4.06223,-8.0584 -0.33026,-0.6275 0,0.0661 -5.08605,-7.59604 -4.35946,-8.19051 -6.04381,-16.51313 -2.67513,-17.1076 -12.4509,-9.21433 -4.49157,2.84026 -3.4017,4.0292 z" />
  <path
     id="TZ-05"
     title="Kagera"
     d="m 345.28954,0 -8.95012,4.6567025 -8.98314,2.8402583 -3.43473,1.783418 -8.48775,8.9831422 -3.00539,2.509996 -5.71354,-1.816444 -5.1521,-0.561447 -11.9555,1.122893 -4.42552,1.023814 -2.84026,0.231184 -1.35408,-0.627499 -1.22197,-1.32105 -1.75039,-1.188946 -2.93934,-0.26421 -1.91552,1.552234 -0.29724,0.297237 -1.88249,1.948549 -1.81645,2.609075 -0.7596,2.675127 0.79263,2.543021 3.46776,2.377891 0.79263,3.236574 -0.52842,1.387102 -0.89171,1.354077 -0.6275,1.420129 0.39631,1.420129 2.08066,1.387103 1.88249,-0.26421 1.55224,-0.858683 0.99079,-0.26421 2.90631,2.113681 0.99078,1.486182 0.92474,6.109857 1.45315,3.467758 4.32644,7.133672 1.38711,4.85486 2.21276,2.840258 0.46236,1.948549 -0.23118,0.726578 -0.52842,1.05684 -0.56145,1.387103 -0.23118,1.750392 1.255,3.79802 3.07144,2.311838 6.96854,2.906311 2.51,1.750391 3.56683,3.401705 2.17974,1.32105 15.65444,5.812622 4.6567,0.660525 4.59065,2.774206 1.35408,6.208935 -0.42934,6.17591 -0.72658,2.80723 -1.28802,1.35408 1.42013,3.10447 3.93012,5.25117 2.93934,3.1375 1.05684,1.81644 2.27881,8.52078 2.27881,5.35025 3.73197,2.90631 5.61446,-2.1467 1.7504,5.01999 -0.19816,6.10986 -3.07144,18.69286 -0.0661,2.54302 0.52842,1.22197 2.11369,3.23657 0.59447,2.21276 -2.74118,6.50618 0.85868,2.50999 1.8825,9.51157 -1.28803,4.0292 -2.44394,3.53381 -1.32105,3.66591 1.81644,4.22736 -3.86407,3.03842 -1.42013,1.51921 -1.18894,1.91552 7.10064,1.12289 0.72658,6.30802 -3.13749,13.80498 4.42552,-0.95777 4.29341,2.11369 3.59986,3.63288 2.54302,3.43473 1.98158,6.90249 -8.15749,26.38798 -2.04763,10.46933 0.99079,16.21589 -0.99079,4.85486 -2.44394,4.42552 -3.10447,2.24579 -3.96315,1.75039 -3.66591,2.11368 -3.33566,0.79263 -1.71736,0.99079 -2.14671,0.59447 -1.91552,-0.46237 -12.38485,-6.10986 -2.54302,-0.82565 -3.07144,0.42934 -2.70815,2.1467 -3.40171,6.37407 -2.6421,2.21276 -4.98697,0.29724 -5.11907,-1.48618 -5.05301,-0.6275 -4.59065,2.67512 -7.86025,9.90788 -3.17052,5.01999 -8.98315,21.89641 -1.94855,7.52999 -1.02381,2.51 -2.27881,2.97236 -5.68052,5.38328 -1.91552,2.93934 -0.92474,5.84564 2.6421,2.54303 4.59065,0.033 5.02,-1.65131 8.48774,-3.86407 5.44934,-2.0146 -1.51921,4.49157 -13.63985,14.33339 -1.91552,3.10447 -0.79263,3.69894 -0.0661,6.01078 -5.18512,7.00157 -2.70816,5.2842 0.4954,4.09526 5.94472,7.69512 3.59987,3.36867 4.32644,1.18895 -1.08987,2.60907 1.3871,1.8825 2.04763,2.0146 0.99079,2.97237 0.033,0.0991 1.15592,-0.56144 4.68973,-6.47315 2.80723,-2.34486 3.30263,-1.22198 1.91552,0.33027 15.42327,9.21432 3.13749,1.32105 1.02381,0.69356 0.59448,1.45315 0.66052,3.86407 0.66053,1.05684 3.13749,0.69356 2.47697,-0.6275 2.37789,-0.92474 2.93934,-0.19816 2.90631,1.05684 5.41631,3.56684 3.13749,0.92473 5.54841,-0.46236 11.0638,-3.10447 5.54841,0.033 -1.58526,2.84025 6.24196,-3.30262 4.75578,-5.35026 4.3925,-6.14288 23.31654,-21.23589 -2.87329,-14.99392 -11.69129,-10.00695 -10.83262,-11.6913 8.32262,-23.38259 25.85956,-12.51695 35.04086,-60.10779 7.49696,1.68433 15.85261,-2.50999 12.51695,-4.19434 10.83261,1.68434 47.55782,20.8726 16.41405,0.66052 11.92248,-12.35182 10.40327,-4.98696 0.0661,-2.41092 1.71737,-1.78342 1.42012,-4.35946 -0.39631,-4.72276 -1.42013,-6.90249 3.03842,-4.22736 17.1076,-1.78342 13.87103,-5.9117 196.04387,-161.13511 4.35947,-110.5719189 -43.03322,0 -43.42953,0 -43.3965,0 -43.42953,0 -1.255,0 -42.14151,0 -43.42953,0 -43.3965,0 -38.34349,0 -5.08604,0 -43.39651,0 -43.42953,0 -15.29116,0 L 353.64518,2.1136806 345.28954,0 Z" />
  <path
     id="TZ-24"
     title="Tabora"
     d="m 1032.599,699.62827 -4.7227,-3.66591 -1.0569,-6.07683 -13.2765,-3.03842 -13.6729,3.46776 -6.53921,2.34486 -16.11681,0 -13.24353,-3.43473 -27.41179,6.60525 -21.03773,9.97393 -12.64906,0.59448 -14.16826,-1.18895 -10.73354,-9.01617 -9.64367,-3.23657 -11.39406,4.92091 -16.90944,-3.66591 -4.09526,2.08065 -3.36867,3.43473 -15.25814,6.60525 -13.01234,4.29342 2.60907,13.60682 -3.50078,13.01234 -5.68052,0.89171 -2.67512,4.32644 -4.06223,3.59986 -1.71737,4.16131 4.09526,4.85486 4.7888,4.19434 10.60143,3.63288 -4.35946,12.64906 -23.01931,6.77039 -5.68051,0.19815 -0.39632,-3.99617 0.29724,-4.45855 -2.57605,-6.73736 -4.45854,-4.72275 -7.86025,-3.63289 -8.32262,5.11907 -6.24196,0.99079 -3.79802,6.10986 -1.58526,9.34643 1.58526,8.98314 -0.82566,5.11907 -3.66592,2.87328 -6.07683,7.6621 -8.52077,1.78341 -9.51156,-4.52459 -9.01617,-5.54841 -19.35339,-6.07684 -19.71668,3.83105 -19.45246,14.86182 -17.66905,8.22354 1.78341,-9.0492 0.69356,-9.84183 -3.40171,-11.72432 -0.95776,-12.25274 0.6275,-12.91327 -1.68434,-12.25274 -6.93551,-6.60525 -7.99236,-5.74657 -21.07075,-4.35947 -27.70903,-8.48774 -9.34644,14.16826 -3.33565,7.19973 1.8825,4.35946 4.55762,2.77421 2.84026,6.27499 1.32105,6.6713 -16.38102,8.09143 -22.8872,-2.47697 -9.64367,2.64211 -6.10986,7.66209 -2.44394,10.00695 -5.41631,8.32262 0.0991,11.03077 1.65132,10.76656 6.57222,-0.66052 2.87329,5.84565 2.17973,17.80115 4.22736,18.03234 -3.66591,10.83261 -2.11368,2.34486 -13.21051,4.95394 -4.45854,3.07144 -1.22198,4.22737 2.57605,24.9018 -1.91552,2.87328 -10.89867,5.11907 -4.22736,2.6421 -0.92473,1.58526 -0.92474,3.76499 -1.05684,1.58526 -1.65131,1.05685 -5.44933,1.81644 -11.79038,9.01617 -1.48618,0.79263 1.51921,3.96315 2.84026,3.69894 1.02381,6.37407 -11.52616,32.10152 -2.08066,27.47787 8.85104,37.782 -4.42552,8.2896 -17.07458,3.8641 -18.3626,4.9209 -0.62749,5.9117 -6.77039,3.798 -0.16513,2.7412 0.69355,2.8403 1.65132,3.864 0.82565,0.7266 1.08987,0.3303 15.7205,11.9885 1.35407,0.5614 3.33566,-0.1651 1.12289,0.3963 0.72658,1.5853 -0.13211,1.5192 -0.59447,1.7834 1.18895,2.0807 0.8917,2.2458 0.99079,3.9631 -1.61828,5.4493 0.26421,1.222 1.12289,2.2458 0.23118,1.4201 -1.255,3.4348 0.52842,1.6513 3.17053,0.6935 4.49157,-0.9247 4.7888,-1.6844 4.82184,-0.8256 4.6567,1.6513 4.55762,8.0584 3.46776,3.5668 4.19434,-0.8917 4.49157,-1.8494 9.8088,1.1229 4.39249,-1.7174 8.75196,5.5154 4.6567,1.9816 5.2842,0.7926 4.78881,-0.8587 4.49157,-1.4862 4.09526,-0.2972 3.56683,2.6421 2.47697,-3.699 2.57605,-0.6275 17.7351,5.4164 2.44394,-0.3633 2.64211,-1.5523 8.91709,-3.5338 3.07144,-0.6605 0.033,-0.7596 1.35408,-1.6513 2.57605,-2.477 1.84947,-1.222 4.78881,-2.0476 5.01999,-3.6659 4.6567,-4.2604 5.21815,-3.5668 7.03459,-1.5192 1.38711,0.4293 1.25499,1.0899 2.21276,2.4769 1.38711,0.7266 1.02381,-0.4624 0.85868,-0.7596 0.85868,-0.2311 5.61447,2.8402 10.96472,2.1467 4.16131,0.2312 3.69894,-1.9816 0,1.6513 13.63984,4.2274 5.01999,0.6275 1.42013,0.9578 0.92474,2.2788 0.7596,2.6751 0.85868,2.2458 1.91553,2.2128 4.52459,4.0292 1.68434,2.0146 0.99079,4.6897 -0.16513,11.7243 1.51921,3.9301 3.03841,4.3265 4.16131,16.0507 3.99618,8.6199 5.51539,8.1244 6.0438,6.7374 5.64749,4.4916 12.28577,6.5722 3.23657,2.3779 1.42013,0.7596 3.00539,0.4954 1.42013,1.1559 0.19816,1.0899 -0.42934,2.7412 0.23118,1.0898 2.47697,3.699 1.35408,1.255 2.47697,1.6843 8.32261,3.6659 4.45855,3.3026 5.31723,0.8257 2.27881,1.0238 3.50078,3.5008 8.65288,13.7389 7.26578,7.53 9.74274,3.732 34.44639,2.9723 4.09526,2.3449 1.12289,4.9539 2.14671,3.2036 1.75039,3.4017 -1.3871,4.5576 -2.31184,4.2604 -4.75578,6.1759 -6.67131,3.9301 -13.93708,17.7351 -6.90249,21.9955 -1.12289,24.8358 1.48618,24.8687 -2.47697,24.4395 -5.61446,23.944 16.54616,0.3963 16.11681,-2.7411 6.14288,-4.5577 15.22511,-24.5385 2.77421,-6.0108 5.9117,-2.3779 10.37024,1.0569 7.99236,-5.0861 5.68051,-5.2181 7.49696,-2.6751 20.34418,-4.7888 19.38641,5.7465 16.44708,11.0638 19.08918,4.3595 51.48794,-3.0384 10.30419,-21.0708 -1.35408,-25.2981 1.55224,-25.3311 -2.51,-5.2512 11.32803,-13.5077 3.6659,-2.0807 17.1406,-6.5392 24.1422,-24.5715 9.4455,-6.8365 5.0861,-2.1467 5.8456,-0.7926 2.5761,-2.0476 8.3556,-13.4417 13.871,-11.6583 16.348,-12.2197 -0.9577,-7.6951 -2.6752,-8.1905 0.6606,-19.8818 12.4509,-46.3359 0.1981,-20.8396 0.5945,-4.6897 1.3871,-4.2604 6.341,-5.02 4.8879,-9.9739 -0.7265,-10.7005 -7.1337,-5.3172 -5.1851,-6.1759 10.4693,-16.0508 15.4232,-13.0784 8.8181,-9.0162 6.6382,-10.3372 -5.1521,-6.5062 -21.0377,-21.2358 -8.1244,-5.2512 -7.6291,-6.209 -10.7005,-6.341 -12.0546,-4.49157 -6.8695,-7.00157 -2.3448,-10.07301 -1.4202,-9.97393 6.7044,-18.65984 -2.0477,-9.3134 -3.9631,-11.39406 -0.1321,-11.95551 8.4877,-22.95325 -0.4954,-20.44325 -2.6421,-20.11299 5.1191,-21.66523 28.1714,-36.49401 10.2382,-22.06155 12.2197,-21.03772 5.5154,-4.65671 7.563,2.57605 7.4639,-0.7596 1.7504,-7.52999 2.3118,-3.79802 1.8825,-4.29341 0.8257,-10.40327 -6.8034,-0.95776 -5.4494,2.97236 -3.1044,5.71354 -6.5392,0.16513 -8.0915,-3.36868 -8.5207,-0.59447 -4.7558,-1.35407 -3.6659,-3.46776 -4.6237,-1.84947 -5.3833,1.58526 -7.563,-0.16513 -7.7612,-2.08066 -6.4401,-4.62367 -4.8549,-6.50618 -6.2749,-3.93012 -7.53,-1.02382 -14.2343,-0.42934 -17.7682,-6.07683 -8.1575,0.23118 -7.8272,1.255 z" />
  <path
     id="TZ-22"
     title="Shinyanga"
     d="m 798.04652,584.26755 -8.85103,-0.29724 -18.9901,-11.55919 -8.4217,-6.37407 -0.0661,-12.15366 1.71737,-13.2105 -1.98158,-8.81801 -5.18512,-6.96854 -7.6621,1.5192 -14.79576,7.1667 -7.03459,5.74657 -5.58144,6.44012 -3.83105,7.9263 -7.46393,-0.79263 -6.14289,-5.01999 -2.04762,-8.88406 -7.1667,-4.95394 -9.01617,2.60907 -7.39788,5.87868 -10.23814,13.24353 -5.01999,15.88563 3.33565,24.20825 4.19433,23.41561 -3.33565,18.3626 -21.69825,1.68434 -24.17522,3.33566 -25.03391,11.72432 -20.83957,18.3626 -13.34261,20.07996 -3.33565,15.05998 3.23658,16.61221 27.70903,8.48774 21.07075,4.35947 7.99236,5.74657 6.93551,6.60525 1.68434,12.25274 -0.6275,12.91327 0.95776,12.25274 3.40171,11.72432 -0.69356,9.84183 -1.78341,9.0492 17.66905,-8.22354 19.45246,-14.86182 19.71668,-3.83105 19.35339,6.07684 9.01617,5.54841 9.51156,4.52459 8.52077,-1.78341 6.07683,-7.6621 3.66592,-2.87328 0.82566,-5.11907 -1.58526,-8.98314 1.58526,-9.34643 3.79802,-6.10986 6.24196,-0.99079 8.32262,-5.11907 7.86025,3.63289 4.45854,4.72275 2.57605,6.73736 -0.29724,4.45855 0.39632,3.99617 5.68051,-0.19815 23.01931,-6.77039 4.35946,-12.64906 -10.60143,-3.63288 -4.7888,-4.19434 -4.09526,-4.85486 1.71737,-4.16131 4.06223,-3.59986 2.67512,-4.32644 5.68052,-0.89171 3.50078,-13.01234 -2.60907,-13.60682 13.01234,-4.29342 15.25814,-6.60525 3.36867,-3.43473 4.09526,-2.08065 16.90944,3.66591 11.39406,-4.92091 9.64367,3.23657 10.73354,9.01617 14.16826,1.18895 12.64906,-0.59448 21.03773,-9.97393 27.41179,-6.60525 13.24353,3.43473 16.11681,0 6.53916,-2.34486 13.6729,-3.46776 13.2765,3.03842 1.0569,6.07683 4.7227,3.66591 7.8272,-1.255 8.1575,-0.23118 17.7682,6.07683 14.2343,0.42934 7.53,1.02382 6.2749,3.93012 4.8549,6.50618 6.4401,4.62367 7.7612,2.08066 7.563,0.16513 5.3833,-1.58526 4.6237,1.84947 3.6659,3.46776 4.7558,1.35407 8.5207,0.59447 8.0915,3.36868 6.5392,-0.16513 3.1044,-5.71354 5.4494,-2.97236 6.8034,0.95776 9.0492,-7.7942 14.3664,-3.73197 6.0108,-6.44012 -11.3611,-8.22354 -10.073,-9.44551 -13.1774,-16.97549 -10.04,-23.28352 -8.1905,-27.08153 -7.53,-12.583 -19.4855,-5.68052 -21.9625,-0.6275 -17.603,-1.8825 -11.295,-6.90248 -6.9024,-13.24353 -6.9356,-3.1375 -8.1574,4.42552 -8.785,1.8825 -11.9225,-3.17052 -20.7405,-10.03999 -16.97544,-15.75352 -11.29499,-10.07301 -12.31879,-1.42013 -12.94629,7.82722 -9.31341,2.74118 -10.17209,1.38711 -8.88406,-2.14671 -8.22354,2.93934 -9.01617,17.60299 -15.65444,7.33183 -5.58144,-3.2696 -4.6567,-4.55762 -4.42552,-2.0146 -4.85486,-0.6275 -7.33183,-3.73197 -7.72815,-2.34486 -6.37407,-4.98697 -3.79802,-8.71893 -6.6713,-6.4071 -7.33183,-5.51538 -6.86946,1.42013 -7.7942,2.47697 -6.14288,-1.71737 -4.78881,2.84026 -3.56684,7.46393 -7.00156,3.30263 -6.83644,-0.42934 -1.68434,6.5392 -3.30262,8.95011 1.08986,7.49696 5.54841,0.89171 -0.26421,6.57223 z" />
  <path
     id="TZ-18"
     title="Mwanza"
     d="m 806.17098,118.03585 -4.0292,-3.50078 -196.04387,161.13511 4.35946,14.26735 1.84947,12.21971 0.95777,7.49697 4.6567,4.52459 2.67512,5.35026 -0.66052,6.01078 3.99618,7.33183 6.6713,5.35025 18.03234,9.34643 15.32418,10.00696 9.77578,6.57222 12.25274,4.12829 7.33183,10.00695 40.02782,6.67131 -12.64905,24.07614 41.34887,24.04312 -6.01078,18.03233 20.70747,17.37182 -20.47628,56.40885 5.18512,6.96854 1.98158,8.81801 -1.71737,13.2105 0.0661,12.15366 8.4217,6.37407 18.9901,11.55919 8.85103,0.29724 0.26421,-6.57223 -5.54841,-0.89171 -1.08986,-7.49696 3.30262,-8.95011 1.68434,-6.5392 6.83644,0.42934 7.00156,-3.30263 3.56684,-7.46393 4.78881,-2.84026 6.14288,1.71737 7.7942,-2.47697 6.86946,-1.42013 7.33183,5.51538 6.6713,6.4071 3.79802,8.71893 6.37407,4.98697 7.72815,2.34486 7.33183,3.73197 4.85486,0.6275 4.42552,2.0146 4.6567,4.55762 5.58144,3.2696 15.65444,-7.33183 9.01617,-17.60299 8.22354,-2.93934 8.88406,2.14671 10.17209,-1.38711 9.31341,-2.74118 12.94629,-7.82722 5.81262,-17.1076 5.94473,-5.54841 3.10447,-7.36486 1.58526,-11.29498 6.80341,-20.57536 2.0146,-9.61064 -7.33183,-26.58614 3.4017,-6.04381 5.61456,-1.3871 3.6328,-4.39249 3.9632,-3.59986 5.6805,-1.61829 6.4732,-4.16131 16.348,4.72276 9.0492,-7.06762 4.1613,-1.75039 4.7557,0.26421 4.5907,-4.62368 0.8257,-6.73736 -5.7136,-10.86564 -10.8326,-6.6713 -10.7996,-4.92091 -8.6198,-7.69512 -10.4033,-10.27117 -18.16451,-21.0047 -7.03459,-9.37946 -30.21903,-57.26753 -1.48618,-2.04763 -1.02382,-3.10447 -2.57604,-2.41091 -6.10986,-3.40171 -6.70433,-2.47697 -5.51539,0 -4.68973,2.47697 -4.29341,4.85486 -1.8825,-2.7742 -0.82565,-1.71737 -0.52842,-1.98158 0.23118,-2.47696 2.14671,-3.2696 0.85868,-2.51 -0.066,-1.78342 -0.46237,-2.50999 -0.56145,-2.01461 -0.52842,-0.033 1.02382,-2.47697 0.49539,-0.26421 0.52842,0.69355 1.18895,0.29724 6.6713,0.29723 -0.0661,-0.29723 5.87867,1.55223 1.15592,0.95776 1.61829,-2.60907 -0.0661,-3.30263 -1.78342,-3.00539 -3.56684,-1.71736 2.80723,-2.6421 3.59987,2.57604 3.23657,4.65671 1.71736,3.53381 1.61829,0 -0.0661,-6.96854 3.83104,0.62749 9.31341,8.09144 0.72658,-1.68434 0.79263,-0.85868 3.33565,-0.82566 -6.60525,-9.74275 6.5392,-6.10985 7.46393,2.11368 15.42326,10.50235 10.99776,0.066 1.8165,0.72658 1.5852,-3.30263 2.8073,-3.13749 1.0568,-3.43473 -3.6989,-4.02921 -1.8825,1.08987 -0.6936,0.1321 -0.6275,-0.46236 -1.7834,-0.75961 0.8917,-0.49539 0.2973,0 0.099,-0.16513 0.4624,-0.95776 -9.41253,-2.27882 -10.17209,-0.95776 6.37407,-4.12828 0.39631,-1.32105 -1.91552,-2.6421 -5.01999,-3.33565 -1.3871,-1.91553 1.55223,-2.87328 -3.00539,-0.39632 -2.60907,0.13211 -1.78342,1.08986 -0.66053,2.41092 -8.28959,0.52842 -9.41248,6.57223 -9.14828,4.62367 -7.46393,-5.21815 5.74657,-3.56683 0.89171,-0.42934 -0.16513,-3.50079 0.23118,-1.71736 1.84947,-3.20355 -3.30263,-4.95394 -1.02381,-3.56683 10.03998,-22.68904 9.97393,-7.23275 10.50235,1.15591 6.17591,5.08605 2.11369,-12.28577 -0.56145,-13.17748 1.12289,-12.97932 -2.54302,-12.12063 -28.83192,-11.29498 -145.48068,2.34486 z" />
  <path
     id="TZ-11"
     title="Zanzibar South"
     d="m 2423.8962,1268.1423 -4.3925,-34.8757 -2.1136,-6.7704 -4.1283,-5.4493 -0.4954,5.2181 1.1229,7.1006 -0.066,4.954 -3.798,-0.9908 -0.2972,0.9247 0,0.4294 -0.2973,0.1321 -1.0568,0.1651 -1.189,-2.9393 -1.9155,0.1981 -1.5522,2.3119 -0.1982,3.5338 -2.3448,-2.0807 -1.8165,-2.6751 -2.1137,-1.4532 -3.4347,1.4532 0.8257,-2.6751 1.1889,-1.9486 2.8403,-3.5338 -1.6844,-2.9063 -0.9577,-2.6751 -0.4624,-2.8733 -0.1321,-3.8311 0.5284,-3.2035 1.0238,-2.9393 0.5945,-2.9394 -0.5284,-3.2035 -5.02,-0.7927 -1.4532,-0.8256 -2.6421,-10.9317 -0.2642,-0.4293 0,0.033 -1.321,0.7926 -9.0822,6.0108 -17.2067,1.1559 0.3633,4.8218 1.1889,4.7228 -1.4531,18.7259 0.4293,6.0768 2.4109,5.4163 4.1613,4.3925 0.6936,4.9209 0.2642,1.4532 2.0806,1.7174 7.4309,11.5591 6.176,6.5392 1.354,3.666 -1.0238,4.5906 6.6053,2.4439 1.1559,-1.288 0.2972,-5.3502 -1.4531,-3.2696 -2.2128,-3.1375 -0.033,-2.5761 5.3172,-1.6183 -0.5284,3.5669 4.6567,20.3111 2.3118,4.7888 3.2036,4.1944 3.4347,3.0714 8.7189,2.5761 8.4878,-2.8403 5.9777,-7.1667 1.0899,-10.3372 -6.3741,-11.295 -0.8917,-2.1467 z" />
  <path
     id="TZ-20"
     title="Rukwa"
     d="m 637.63798,1618.8481 -52.90806,-8.917 -38.77283,-5.2182 -30.97863,-5.2181 -5.1521,-33.852 -5.18512,-36.494 -2.57605,-26.0247 -12.91327,-15.6214 -38.7398,-2.6091 -33.5877,-2.609 -10.33722,-15.6215 0,-20.8395 -10.33722,-31.2098 -20.64141,-7.7942 -51.65307,2.576 -25.85956,7.8272 -67.17542,48.6807 17.83418,38.4096 8.35565,30.0869 2.34486,15.7865 6.37407,22.557 50.5632,79.23 17.37182,42.3066 5.68051,21.5662 6.20894,22.7551 11.85643,23.7128 15.093,21.8304 16.01773,17.1076 7.7942,6.1098 9.77577,5.8457 10.46933,3.831 9.97393,0.066 5.01999,-2.477 4.82183,-3.5008 5.05302,-2.6091 5.71354,0 2.77421,1.9156 4.49157,6.0438 2.54302,1.9155 3.03842,0.4954 2.0146,-0.6936 1.81644,-1.2219 12.25274,-4.3925 2.77421,-0.5945 1.68434,-0.6605 0.59447,-0.9578 0.75961,-0.3302 2.11368,1.255 0.89171,1.5192 0.79263,4.3594 0.79263,1.6844 3.17052,2.0806 3.03841,0.2973 3.23658,-0.3633 3.56683,0.2972 3.73197,1.9155 5.08604,5.9117 3.79802,2.4109 9.11525,2.5761 4.72276,3.9962 1.61828,6.0768 0,8.9501 1.78342,10.2712 5.44933,7.3318 22.82115,17.636 4.0292,1.5523 4.78881,0.033 4.85486,-1.7504 8.05841,-4.3925 5.51538,-0.4624 35.3381,9.7098 -4.45855,9.7097 0,11.8564 4.82184,9.4455 10.07301,2.4109 4.92091,-2.0476 3.43473,-2.543 3.76499,-1.6183 6.04381,0.8587 6.83644,3.9631 2.47696,0.7266 2.21276,-0.1981 4.55763,-1.0899 2.1467,0.099 2.70816,1.4531 0.0991,-1.5522 -2.17974,-14.3334 2.27882,-2.8403 3.79802,-0.4623 -3.03842,-9.7098 -9.21433,-8.5207 -5.35025,-3.8311 -4.26039,-4.7558 4.85486,-6.8034 -8.45472,-8.818 -10.89867,-7.3979 5.02,-9.6106 29.52547,-10.5684 13.67287,-8.3887 17.76813,-22.656 1.08987,-27.0155 -4.09526,-13.0123 0.82566,-13.6729 8.71893,-10.5354 14.56458,-0.4954 29.75666,-20.245 6.20894,2.9063 0.99078,4.7888 -0.99078,7.1667 3.56683,5.9447 0.26421,7.1006 1.12289,6.9356 19.74971,25.166 9.84182,0.8256 9.21433,-1.222 8.91709,1.6844 -1.84947,-15.7205 -54.79057,-73.3183 -11.09682,-11.2289 -44.024,-29.4925 -63.70766,-33.4226 z" />
  <path
     id="TZ-14"
     title="Mbeya"
     d="m 935.83208,1419.5677 -19.08918,-4.3595 -16.44708,-11.0638 -19.38641,-5.7465 -20.34418,4.7888 -7.49696,2.6751 -5.68051,5.2181 -7.99236,5.0861 -10.37024,-1.0569 -5.9117,2.3779 -2.77421,6.0108 -15.22511,24.5385 -6.14288,4.5577 -16.11681,2.7411 -16.54616,-0.3963 -12.18669,6.7704 -53.96491,18.6598 -0.1321,25.2982 -9.44551,25.9586 -8.61986,17.0085 -24.37338,9.3134 -8.25656,12.7151 -9.31341,19.2874 -6.53919,20.5423 4.1613,8.3556 63.70766,33.4226 44.024,29.4925 11.09682,11.2289 54.79057,73.3183 1.84947,15.7205 -8.91709,-1.6844 -9.21433,1.222 -9.84182,-0.8256 -19.74971,-25.166 -1.12289,-6.9356 -0.26421,-7.1006 -3.56683,-5.9447 0.99078,-7.1667 -0.99078,-4.7888 -6.20894,-2.9063 -29.75666,20.245 -14.56458,0.4954 -8.71893,10.5354 -0.82566,13.6729 4.09526,13.0123 -1.08987,27.0155 -17.76813,22.656 -13.67287,8.3887 -29.52547,10.5684 -5.02,9.6106 10.89867,7.3979 8.45472,8.818 -4.85486,6.8034 4.26039,4.7558 5.35025,3.8311 9.21433,8.5207 3.03842,9.7098 -3.79802,0.4623 -2.27882,2.8403 2.17974,14.3334 -0.0991,1.5522 2.21276,1.189 8.71893,8.884 4.6567,3.5008 4.78881,1.6844 5.05302,0.6605 30.87955,-0.6275 9.57761,2.3779 8.61986,5.8126 2.57605,3.3356 4.62367,10.9317 3.40171,5.2512 3.23657,2.1467 8.88406,0.7266 20.41023,4.4916 16.9755,1.4201 3.00539,1.6183 3.2696,3.5668 0.89171,1.8165 0.72658,3.5998 1.3871,1.7834 1.71736,0.6275 4.12829,-0.4293 1.75039,0.3633 10.99774,7.3318 17.70208,6.7374 3.66591,2.3118 3.63289,-3.8971 4.5246,-2.3118 4.59065,-0.1982 4.19433,2.444 11.85643,11.8564 14.59761,11.361 2.1467,0.8587 6.37407,1.4201 6.96854,2.7412 0.89171,0.5284 2.14671,-0.7265 3.2696,-2.7082 1.55223,-0.7926 3.30263,-0.033 4.92091,1.5192 2.84026,0.2642 2.04763,-0.6606 3.76499,-2.4769 2.08065,-0.3963 4.26039,1.4861 13.30958,9.5116 4.3925,4.1613 4.09525,8.9171 2.84026,4.4916 3.66592,2.609 4.59065,1.4202 9.84182,0.6935 7.36486,-1.8164 5.58144,-3.2696 5.77962,-2.4109 8.0254,0.8586 7.2327,2.2789 6.242,1.0898 0.099,0.033 6.0438,-0.7927 6.275,-3.5668 7.596,-2.1137 6.5062,4.0622 6.0438,6.1429 6.1429,4.0292 5.5814,2.3119 6.7043,4.0292 5.7136,4.8218 2.576,4.7888 2.7742,2.0146 3.8971,-4.2604 0,-1.6513 3.5008,-2.3118 1.9486,-2.444 0.8256,-3.1375 0.1982,-4.3925 1.6513,-7.2657 0.4293,-4.1944 -4.3925,-10.7335 3.5338,-6.0438 5.5815,-4.6567 2.8733,-3.3026 3.864,-3.4348 8.2236,3.0054 7.3648,4.8549 0.9248,-7.8603 -9.5446,-9.5776 -4.7888,-0.6605 -4.4255,-1.9486 -7.1667,-9.8418 -12.9794,-22.4909 -5.3172,-6.9025 -0.6275,-7.5299 -2.576,-3.2036 -8.0915,-1.7834 1.288,-4.987 5.0531,-2.7081 -3.9962,-10.8326 -5.4824,-10.1721 -7.8932,-9.1483 -1.3871,-11.3941 13.6068,-22.2927 9.7757,-8.7519 12.9133,-2.5761 17.5039,6.0438 6.6053,-2.1797 2.4439,-6.8695 12.0216,-4.9539 13.871,1.288 13.6399,-0.3303 23.6798,-5.8126 22.7551,3.2696 12.2197,-0.2642 10.9977,-4.3925 8.3227,-8.884 6.2089,-12.517 7.596,-5.3833 8.8841,-3.2696 7.7612,0.9248 5.3172,-3.699 5.9447,-15.6214 2.7742,-15.6545 -3.831,-8.1905 -5.0861,-7.4639 -3.765,-9.7427 4.954,-9.9409 6.7373,-10.3703 8.6859,-8.1245 10.007,-3.4017 8.3887,-6.4401 6.2089,-10.4033 8.5538,-19.8487 5.7466,-7.1007 13.0453,-3.8971 10.3703,-8.0914 5.7135,-7.7942 -6.5061,-6.6713 -10.7666,-3.8641 -11.4271,0.9578 -6.275,-1.0899 0.8587,-6.1759 -2.3779,-7.2327 -64.203,-10.2712 -10.1061,-3.3357 -8.7519,-6.1429 -35.1069,-8.3556 -12.1867,-0.9908 -110.3077,5.5815 -9.0823,-1.222 -3.4347,-6.9686 2.0476,-9.7427 4.3265,-8.851 6.4401,-8.5538 5.4163,-9.2804 6.5062,-15.3572 4.7227,-5.7136 3.4017,-6.6383 -3.831,-4.4255 -6.1099,-4.0952 -10.7665,-4.8219 -9.8749,-7.0676 -4.6567,-1.1889 -3.8971,-2.2788 -0.9247,-9.8419 -4.1943,-9.9739 -0.7596,-6.4731 -3.0385,-5.5154 -13.6068,-4.1613 -4.6237,-4.7888 -3.765,-5.5154 -5.6144,-10.5684 -8.2236,-7.9924 -10.106,-3.798 -5.7466,-9.5446 -1.8164,-13.0454 -3.3026,-12.3848 -5.41635,-7.8603 -7.23275,-6.1098 -51.48794,3.0384 z" />
</svg>
