<?xml version="1.0" encoding="UTF-8" standalone="no"?>
<!-- Created for MapSVG plugin: http://mapsvg.com -->

<svg
   xmlns:mapsvg="http://mapsvg.com"
   xmlns:dc="http://purl.org/dc/elements/1.1/"
   xmlns:cc="http://creativecommons.org/ns#"
   xmlns:rdf="http://www.w3.org/1999/02/22-rdf-syntax-ns#"
   xmlns:svg="http://www.w3.org/2000/svg"
   xmlns="http://www.w3.org/2000/svg"
   xmlns:sodipodi="http://sodipodi.sourceforge.net/DTD/sodipodi-0.dtd"
   xmlns:inkscape="http://www.inkscape.org/namespaces/inkscape"
   height="751.84155"
   width="799.54303"
   id="svg2"
   version="1.1"
   mapsvg:geoViewBox="-61.931190 11.344441 -60.518932 10.042597"
   inkscape:version="0.91 r13725"
   sodipodi:docname="trinidad-and-tobago.svg">
  <metadata
     id="metadata22">
    <rdf:RDF>
      <cc:Work
         rdf:about="">
        <dc:format>image/svg+xml</dc:format>
        <dc:type
           rdf:resource="http://purl.org/dc/dcmitype/StillImage" />
        <dc:title></dc:title>
      </cc:Work>
    </rdf:RDF>
  </metadata>
  <defs
     id="defs20" />
  <sodipodi:namedview
     pagecolor="#ffffff"
     bordercolor="#666666"
     borderopacity="1"
     objecttolerance="10"
     gridtolerance="10"
     guidetolerance="10"
     inkscape:pageopacity="0"
     inkscape:pageshadow="2"
     inkscape:window-width="1240"
     inkscape:window-height="714"
     id="namedview18"
     showgrid="false"
     fit-margin-top="0"
     fit-margin-left="0"
     fit-margin-right="0"
     fit-margin-bottom="0"
     inkscape:zoom="1.2466339"
     inkscape:cx="271.42633"
     inkscape:cy="-11.813973"
     inkscape:window-x="0"
     inkscape:window-y="0"
     inkscape:window-maximized="0"
     inkscape:current-layer="svg2" />
  <path
     id="TT-TOB"
     title="Tobago"
     class="land"
     d="m 794.5134,0.32579909 -6.15001,4.39713761 -10.82003,12.7745283 -4.18001,0.516143 -9.04003,-5.310313 -6.91002,1.290356 -6.68002,3.781737 -16.03004,3.374778 -10.74003,3.950476 -7.89002,2.898339 -7.21002,3.722182 -5.87002,4.357434 -10.27003,10.104484 -48.07013,31.435067 -5.64001,7.434438 -3.21001,7.484067 -7.35002,2.947969 -7.88002,1.260579 -4.81002,2.402048 -1.31,8.724781 4.64001,5.65772 7.91002,1.33999 8.52003,-4.28796 4.02001,9.19131 9.60002,-3.85122 15.30005,-13.19141 10.07002,-2.3822 34.3501,-17.260986 5.36001,0.208442 6.86002,1.399541 7.19002,0.07941 6.29002,-3.791662 4.13001,-3.32515 13.18004,-8.109393 2.01,-0.446662 8.50003,-11.325359 1.11,-2.521158 5.60001,-0.138962 5.66002,1.915683 4.99001,-0.962804 3.49001,-8.625536 3.51001,0 6.34002,1.498798 4.25001,-12.446976 1.96001,-17.63818 -0.55,-14.2733268 -4.23002,-4.25817611 z"
     style="fill:#cccccc;fill-opacity:1;stroke:#ffffff;stroke-width:0.49814269;stroke-opacity:1"
     inkscape:connector-curvature="0" />
  <path
     id="TT-POS"
     title="Port of Spain"
     class="land"
     d="m 237.37187,388.14737 -8.35002,-1.24072 -4.70001,0.3474 -6.06002,4.89343 -2.29,1.03228 0.01,0 11.51003,5.25076 18.79005,12.77453 0.01,-0.0199 2.32001,-12.01024 -0.93001,-2.49138 -2.23,-4.2681 -8.08003,-4.26811 z"
     style="fill:#cccccc;fill-opacity:1;stroke:#ffffff;stroke-width:0.49814269;stroke-opacity:1"
     inkscape:connector-curvature="0" />
  <path
     id="TT-CHA"
     title="Chaguanas"
     class="land"
     d="m 318.2721,451.43439 -23.17007,-0.44666 -17.76005,0.74444 -11.12003,15.40487 -0.91,0 -0.01,0 -0.04,8.89353 0.02,0 0.03,0 7.92002,0.82384 3.73001,0.95288 4.21001,2.67005 5.40002,1.03228 4.30001,3.55345 6.90002,2.13405 14.52004,-1.03229 3.96001,-3.58322 0.69,-5.7272 3.87001,-13.24104 -2.54,-12.17898 z"
     style="fill:#cccccc;fill-opacity:1;stroke:#ffffff;stroke-width:0.49814269;stroke-opacity:1"
     inkscape:connector-curvature="0" />
  <path
     id="TT-SFO"
     title="San Fernando"
     class="land"
     d="m 277.08198,627.0916 7.75002,-29.20175 -15.07004,0.98265 -2.98001,-0.79406 0.71001,4.29788 -2.14001,11.45439 -4.37001,7.41459 -6.87002,7.78184 -4.54001,3.6527 0.59,0.74444 26.92007,-6.33268 z"
     style="fill:#cccccc;fill-opacity:1;stroke:#ffffff;stroke-width:0.49814269;stroke-opacity:1"
     inkscape:connector-curvature="0" />
  <path
     id="TT-TUP"
     title="Tunapuna/Piarco"
     class="land"
     d="m 430.3824,314.63676 -4.83001,3.66263 -65.91018,-0.27792 -30.09008,-3.64278 -1.99001,0.16874 0,0 1.82001,3.6527 4.27001,14.35273 4.63001,9.48909 -0.63,6.40215 -3.60001,4.29788 -3.43001,1.07199 -9.85003,-2.3425 -4.14001,-0.23822 -4.18001,1.1514 -3.64001,0.35733 -15.16004,-2.16383 -4.86001,1.4591 -3.17001,5.71727 -1.19001,9.96552 4.05001,25.20165 -0.19,14.28326 6.81002,43.78278 23.17007,0.44666 2.48,-4.50632 2.78001,0 5.53002,1.1514 7.13002,-0.37718 7.03001,-3.17627 8.00003,-1.8065 24.52006,-1.04221 16.27005,-5.12172 14.63004,-6.93815 2.37001,-3.61299 3.57001,-4.47655 0.93,-4.17877 -0.02,-4.08944 -1.19001,-3.53359 -4.25001,-5.5386 -2.16,-4.08944 -1.85001,-9.45931 2.42001,-8.68509 0.22,-10.14418 -0.56,-4.8041 -3.00001,-2.61049 -2.44001,-1.18117 -3.57001,-0.23822 -2.92001,-0.95288 -2.4,-1.06206 1.08,-2.25316 16.09005,-1.60799 5.16001,-1.59805 3.23001,-2.40205 9.28002,-10.40226 3.71001,-2.58071 4.86002,-2.40205 3.36001,-3.14649 0.13,-5.10187 -0.57,-5.10187 -5.48002,-7.95058 -2.26001,-1.77672 z m -58.47016,112.78708 -5.00001,-0.11911 -5.22001,-1.68739 -1.40001,-0.9231 -0.32,-1.00251 0.19,-1.10177 0.66,-1.03228 2.14001,-2.01494 0.91,-1.25066 0.63,-3.22589 -0.09,-1.04221 -0.14,-1.06206 0.06,-1.07199 0.2,-0.91317 0.46,-0.86355 0.51001,-0.59555 0.32,-0.67495 -0.17,-0.71466 -0.49,-0.9231 -0.08,-1.38962 0.64001,-5.13165 8.04002,7.65281 0.81,3.97033 2.48001,8.05976 0.15,3.47404 -0.88,2.22338 -1.72001,0.70473 -2.69001,0.65511 z"
     style="fill:#cccccc;fill-opacity:1;stroke:#ffffff;stroke-width:0.49814269;stroke-opacity:1"
     inkscape:connector-curvature="0" />
  <path
     id="TT-PTF"
     title="Point Fortin"
     class="land"
     d="m 134.78159,693.93207 5.42002,-0.47644 6.45002,-2.18368 12.10003,-10.12434 3.45001,-4.79417 2.29,-3.88099 5.10002,-7.10689 0.66,-3.04723 -1.52,-2.77922 -3.01001,-3.07701 -1.00001,-1.31021 0,0.01 -16.90004,14.9185 -21.77006,10.39234 1.85,2.51123 6.88002,10.94818 z"
     style="fill:#cccccc;fill-opacity:1;stroke:#ffffff;stroke-width:0.49814269;stroke-opacity:1"
     inkscape:connector-curvature="0" />
  <path
     id="TT-PED"
     title="Penal-Debe"
     class="land"
     d="m 312.52208,733.76438 0,-0.0298 3.55001,-82.78133 -4.44001,-5.92571 -6.24002,-5.67757 -28.31008,-12.25839 -26.92007,6.33268 -0.59,-0.74444 -3.04001,2.45168 -6.42002,2.5013 -6.38002,0.2283 -1.69,0.0695 2.46001,3.78174 15.49004,13.55866 7.10002,4.44677 2.91001,5.29046 1.57,4.08944 -0.25,9.85634 -2.31001,10.48166 -2.65,5.52868 -7.11002,8.31784 -2.89001,4.85372 -2.05001,6.24334 -2.82,21.27103 0,0 0.61,0.11911 48.62013,-3.9207 21.80006,1.91569 z"
     style="fill:#cccccc;fill-opacity:1;stroke:#ffffff;stroke-width:0.49814269;stroke-opacity:1"
     inkscape:connector-curvature="0" />
  <path
     id="TT-CTT"
     title="Couva-Tabaquite-Talparo"
     class="land"
     d="m 415.87236,514.01668 -11.04003,-3.11671 -0.83,-2.51123 -0.34,-4.95298 4.68001,-12.88372 0.12,-9.10197 -4.41001,-4.62543 -1.77,-4.64529 -1.66001,-24.18922 -2.33,-6.13415 -6.28002,-5.30039 -16.27005,5.12172 -24.52006,1.04221 -8.00003,1.8065 -7.03001,3.17627 -7.13002,0.37718 -5.53002,-1.1514 -2.78001,0 -2.48,4.50632 2.54,12.17898 -3.87001,13.24104 -0.69,5.7272 -3.96001,3.58322 -14.52004,1.03229 -6.90002,-2.13405 -4.30001,-3.55345 -5.40002,-1.03228 -4.21001,-2.67005 -3.73001,-0.95288 -7.92002,-0.82384 -0.03,0 -0.02,0 -0.01,2.14398 -3.79001,21.7971 -7.53002,17.77714 -3.24001,11.3055 1.25,8.25829 2.13001,3.92069 3.30001,11.21618 0.56,4.45669 -0.97,1.67746 -1.95001,0.39704 -1.54,0.84369 0.23,3.12663 1.75,2.51124 4.97002,4.15891 1.04,3.09686 1.53,10.74966 2.86001,9.28064 0.93,5.32024 0,0.01 2.98001,0.79406 15.07004,-0.98265 11.37004,-1.18118 19.42005,-8.10939 19.03005,-3.613 16.26005,-0.29777 9.91002,1.65761 7.25002,1.89583 4.86002,2.25316 4.59001,1.38962 6.93002,2.92811 5.05001,4.74454 8.14002,-11.79187 4.59002,-15.63316 3.41001,-32.82469 2.63,-11.37498 7.60002,-13.916 z"
     style="fill:#cccccc;fill-opacity:1;stroke:#ffffff;stroke-width:0.49814269;stroke-opacity:1"
     inkscape:connector-curvature="0" />
  <path
     id="TT-PRT"
     title="Princes Town"
     class="land"
     d="m 389.50229,599.55738 -5.05001,-4.74454 -6.93002,-2.92811 -4.59001,-1.38962 -4.86002,-2.25316 -7.25002,-1.89583 -9.91002,-1.65761 -16.26005,0.29777 -19.03005,3.613 -19.42005,8.10939 -11.37004,1.18118 -7.75002,29.20175 28.31008,12.25839 6.24002,5.67757 4.44001,5.92571 -3.55001,82.78133 0,0.0298 22.95006,2.00501 36.1701,-7.10688 12.50004,-1.09184 34.85009,5.63786 7.94002,-0.79406 -8.13002,-88.74675 -9.37002,-16.3379 -5.30002,-6.52126 -4.79001,-1.00251 -2.10001,-4.85372 -3.65001,-2.55094 -4.09001,-12.84401 z"
     style="fill:#cccccc;fill-opacity:1;stroke:#ffffff;stroke-width:0.49814269;stroke-opacity:1"
     inkscape:connector-curvature="0" />
  <path
     id="TT-SJL"
     title="San Juan-Laventille"
     class="land"
     d="m 330.62213,353.81397 3.43001,-1.07199 3.60001,-4.29788 0.63,-6.40215 -4.63001,-9.48909 -4.27001,-14.35273 -1.82001,-3.6527 -7.93002,0.64518 -3.60001,3.13656 -10.75003,12.55616 -4.67001,4.22839 -1.06001,-0.3474 -10.95003,0.3474 -1.39,1.33006 -2.22001,2.73953 -3.33,2.66012 -4.71002,1.12162 4.25001,-4.27803 -1.57,-2.19361 -1.34,-1.24072 -0.95001,-1.51865 -0.39,-2.88842 -3.49001,0 0.16,5.92572 -0.16,1.91568 -4.23001,0 -2.91001,-7.07711 -2.92,2.36235 -4.34002,5.74704 -7.12002,3.24575 -2.47,-0.0298 0.22,2.36234 0.97,11.98047 -3.23001,13.29067 -10.06003,17.57862 8.08003,4.26811 2.23,4.2681 0.93001,2.49138 -2.32001,12.01024 -0.01,0.0199 3.88001,2.63034 -4.18001,3.52367 13.61004,17.23122 5.76001,21.04273 -0.05,11.50403 0.01,0 0.91,0 11.12003,-15.40487 17.76005,-0.74444 -6.81002,-43.78278 0.19,-14.28326 -4.05001,-25.20165 1.19001,-9.96552 3.17001,-5.71727 4.86001,-1.4591 15.16004,2.16383 3.64001,-0.35733 4.18001,-1.1514 4.14001,0.23822 9.85003,2.3425 z"
     style="fill:#cccccc;fill-opacity:1;stroke:#ffffff;stroke-width:0.49814269;stroke-opacity:1"
     inkscape:connector-curvature="0" />
  <path
     id="TT-MRC"
     title="Rio Claro-Mayaro"
     class="land"
     d="m 506.01261,509.83791 -32.30009,-3.37478 -57.84016,7.55355 -7.60002,13.916 -2.63,11.37498 -3.41001,32.82469 -4.59002,15.63316 -8.14002,11.79187 4.09001,12.84401 3.65001,2.55094 2.10001,4.85372 4.79001,1.00251 5.30002,6.52126 9.37002,16.3379 8.13002,88.74675 0.01,0 5.85002,-0.56578 25.54007,-6.10437 12.89004,-4.79418 10.03002,-6.69 10.06003,-8.54613 12.92004,-7.93073 13.68003,-4.14899 12.20004,2.66012 -4.16001,-29.13228 0.3,-33.46986 7.14002,-29.63849 16.44004,-17.62825 -21.11006,-14.84903 -10.16002,-15.01776 -3.79001,-7.27563 -2.92001,-7.84139 -5.84002,-31.60381 z"
     style="fill:#cccccc;fill-opacity:1;stroke:#ffffff;stroke-width:0.49814269;stroke-opacity:1"
     inkscape:connector-curvature="0" />
  <path
     id="TT-SGE"
     title="Sangre Grande"
     class="land"
     d="m 526.55267,374.64826 29.82008,-36.79501 24.12007,-42.27406 -23.59007,-4.67506 -73.6602,8.2285 -10.24003,4.31773 -33.12009,3.99018 -9.49003,7.19622 -0.01,0 2.26001,1.77672 5.48002,7.95058 0.57,5.10187 -0.13,5.10187 -3.36001,3.14649 -4.86002,2.40205 -3.71001,2.58071 -9.28002,10.40226 -3.23001,2.40205 -5.16001,1.59805 -16.09005,1.60799 -1.08,2.25316 2.4,1.06206 2.92001,0.95288 3.57001,0.23822 2.44001,1.18117 3.00001,2.61049 0.56,4.8041 -0.22,10.14418 -2.42001,8.68509 1.85001,9.45931 2.16,4.08944 4.25001,5.5386 1.19001,3.53359 0.02,4.08944 -0.93,4.17877 -3.57001,4.47655 -2.37001,3.61299 -14.63004,6.93815 6.28002,5.30039 2.33,6.13415 1.66001,24.18922 1.77,4.64529 4.41001,4.62543 -0.12,9.10197 -4.68001,12.88372 0.34,4.95298 0.83,2.51123 11.04003,3.11671 57.84016,-7.55355 32.30009,3.37478 -1.95,-10.45189 -0.34,-16.09968 16.43004,-14.06488 -2.29001,-16.993 -11.02003,-34.8694 -0.63,-16.47686 3.05001,-17.15182 6.73002,-10.9978 10.56003,1.91568 z"
     style="fill:#cccccc;fill-opacity:1;stroke:#ffffff;stroke-width:0.49814269;stroke-opacity:1"
     inkscape:connector-curvature="0" />
  <path
     id="TT-ARI"
     title="Arima"
     class="land"
     d="m 371.91224,427.42384 2.69001,-0.65511 1.72001,-0.70473 0.88,-2.22338 -0.15,-3.47404 -2.48001,-8.05976 -0.81,-3.97033 -8.04002,-7.65281 -0.64001,5.13165 0.08,1.38962 0.49,0.9231 0.17,0.71466 -0.32,0.67495 -0.51001,0.59555 -0.46,0.86355 -0.2,0.91317 -0.06,1.07199 0.14,1.06206 0.09,1.04221 -0.63,3.22589 -0.91,1.25066 -2.14001,2.01494 -0.66,1.03228 -0.19,1.10177 0.32,1.00251 1.40001,0.9231 5.22001,1.68739 5.00001,0.11911 z"
     style="fill:#cccccc;fill-opacity:1;stroke:#ffffff;stroke-width:0.49814269;stroke-opacity:1"
     inkscape:connector-curvature="0" />
  <path
     id="TT-SIP"
     title="Siparia"
     class="land"
     d="m 12.551263,751.37278 9.920027,-0.13896 11.620032,-4.42692 11.050031,-6.54111 8.320022,-6.45178 10.310029,-4.94306 13.470037,-1.58813 49.200129,0.0993 11.65003,1.34991 10.56003,3.1167 6.55002,3.73211 5.17001,3.82144 5.64002,2.9579 8.02002,1.24072 5.76002,-0.6551 11.16003,-2.66012 6.35001,-0.6551 16.18005,-6.47164 5.32001,-1.31021 22.69007,3.80159 2.82,-21.27103 2.05001,-6.24334 2.89001,-4.85372 7.11002,-8.31784 2.65,-5.52868 2.31001,-10.48166 0.25,-9.85634 -1.57,-4.08944 -2.91001,-5.29046 -7.10002,-4.44677 -15.49004,-13.55866 -2.46001,-3.78174 0,0 -22.35006,0.81392 -29.35008,-5.03239 -8.60003,0.13896 -7.21002,3.78173 0.49001,17.27093 -0.30001,0.24814 1.00001,1.31021 3.01001,3.07701 1.52,2.77922 -0.66,3.04723 -5.10002,7.10689 -2.29,3.88099 -3.45001,4.79417 -12.10003,10.12434 -6.45002,2.18368 -5.42002,0.47644 -6.88002,-10.94818 -1.85,-2.51123 0,0 -2.66001,1.28043 -43.790113,13.00282 -9.500026,4.61551 -8.880024,6.70985 -5.910016,8.59576 -3.750011,3.613 -18.42005,3.45418 -6.240017,1.90576 -2.700008,2.14397 -18.3100498,9.57842 -5.54001525,7.76199 12.20003305,8.23843 z"
     style="fill:#cccccc;fill-opacity:1;stroke:#ffffff;stroke-width:0.49814269;stroke-opacity:1"
     inkscape:connector-curvature="0" />
  <path
     id="TT-DMN"
     title="Diego Martin"
     class="land"
     d="m 103.13151,378.36052 -5.370013,-0.60548 -2.720007,2.40205 -0.770003,2.02487 -1.220003,7.21607 0.11,2.36234 3.190009,-0.53599 4.650007,0.13896 1.25,-1.79657 -3.38,-2.24324 -0.830002,-1.93553 1.390004,-1.70724 1.729998,-0.65511 1.48,0.27792 3.79001,2.31272 1.20001,-1.88591 -4.50001,-5.36986 z m 32.79009,8.32776 0.69,-1.83628 4.21001,-2.1539 -0.12,-3.80159 0.72,-2.70975 -0.99,-2.24323 -4.09001,-0.0695 -4.39002,1.77672 -4.28001,9.80671 1.41001,1.14147 5.48001,0.98265 1.36001,-0.89332 z m 113.77031,-41.39067 -0.22,-2.36234 0,0 -14.22004,-0.17866 -26.14007,6.09445 -23.27007,-1.96531 -7.67002,3.19611 -29.52008,20.31815 3.59001,6.67015 2.79001,3.08693 3.61001,1.12162 28.96008,1.95538 12.15003,2.57079 16.22005,7.37488 2.29,-1.03228 6.06002,-4.89343 4.70001,-0.3474 8.35002,1.24072 10.06003,-17.57862 3.23001,-13.29067 -0.97,-11.98047 z"
     style="fill:#cccccc;fill-opacity:1;stroke:#ffffff;stroke-width:0.49814269;stroke-opacity:1"
     inkscape:connector-curvature="0" />
</svg>
