<svg version="1.1" xmlns="http://www.w3.org/2000/svg" xmlns:xlink="http://www.w3.org/1999/xlink" x="0px" y="0px"
     viewBox="0 0 1403.3 696.6" xml:space="preserve"><title>Map of Maryland Regions</title>
    <path id="WesternRegion"
          d="M581,13.4c-27.3,0-54.9-0.1-82.4-0.4c-58-0.6-112.8-1.2-163.2-1.6c-61.6-0.5-116.7-1-163.4-1.3C69.1,9.4,7.3,9.2,7.3,9.2L1.5,208.6c0.1,0.6,0.7,0.9,1.5,0.9c2.8-0.3,5.4-1.9,6.9-4.2c2.6-3.9,8-6.2,10.9-10c2.9-3.8,5.7-7.2,10.8-9.6c5-2.5,1.5-2.9,5.7-6.8c4.2-3.9,3.8-0.7,7.5-4.3c3.7-3.6,0.9-5.5,5.5-6c0.3,0,0.5,0,0.8,0c1,0,2.1,0.3,3,0.7c0.8,0.4,1.6,0.7,2.5,0.7c1,0,2.2-0.4,4.1-1.8c2.5-1.9,2.9-2.6,2.9-3.2c0-0.3-0.1-0.5-0.1-0.9c0.1-1.1,0.5-2.2,1.2-3c3.1-4.5,1.6-4.9,5.5-7.6c3.9-2.8,2-4.8,6.4-6.6c0.9-0.4,1.9-0.6,2.9-0.6c0.6,0,1.1,0,1.7,0.1c0.5,0.1,1,0.1,1.5,0.1c1.1,0,2.1-0.4,3-2c2.1-3.9,2.6-5.9,7.1-7.7c4.1-1.7,4.6-6.9,8-6.9c0.3,0,0.6,0,0.9,0.1c0.3,0.1,0.7,0.1,1,0.1c3.3,0,3.8-4.5,5.2-6c1.6-1.7,2-3.2,4.1-5.5c2-1.8,3.2-4.2,3.7-6.9c0.8-3.4,2-4.8,5.8-7.5c1.1-0.8,2.4-1.2,3.8-1.2c0.3,0,0.5,0,0.8,0c0.2,0,0.3,0,0.5,0.1h0c1.9,0.3,3.8,1,5.7,1c0.2,0,0.4,0,0.6,0c0.2,0,0.4,0,0.5,0c3,0,0.7,2.8,5.3,4.3c4.9,1.6,3.7,1.3,6.2,3.1c1.7,1.4,3.7,2.5,5.7,3.4c2.6,1.3,4.1,4.1,5.2,4.1c0.3,0,0.6-0.2,0.8-0.6c1.6-2.5,3-5.2,3.9-8c2-5.2,3.5-4.5,6.1-8.7c2.6-4.2,6.3-2.6,8.9-8.4c2.6-5.9,0.9-5.5,3.8-7.2c2.8-1.8,4.5-0.2,5.9-4.7c1.5-4.5,0-5.3,3.1-8.2c0.6-0.7,1.5-1.1,2.4-1.2c0.4,0,0.7,0.1,1.1,0.2c0.3,0.1,0.6,0.2,0.9,0.2c0.5,0,0.9-0.3,1.2-0.7c1.7-2.1,1.3-3.8,2.9-7c1.6-3.3-0.1-2.9,4.6-9c4.7-6.2,5.8-10.8,8.1-11.9c0.2-0.1,0.4-0.2,0.6-0.2c0.1,0,0.2,0.1,0.2,0.2c-0.3,0.9-0.5,1.8-0.7,2.7c0,0.9,0.5,1.7,1.3,2.1c1.4,0.9,1.6,2.6,1.6,4.4c0,0.5,0,1.1,0,1.6c0,1.7,0.1,3.3,1.3,4c2.8,1.9,4.2,7.9,8.4,9.3c4.1,1.4,5.5,4.1,7.4,6.6c1.9,2.4,3.7,3.6,7.8,4.6c3.6,0.9,6.3,3.3,9.4,3.3c0.6,0,1.1-0.1,1.7-0.2c2.7-0.8,5.5-1.2,8.4-1.3c0.8,0,1.6,0.1,2.4,0.2c0.4,0.1,0.7,0.1,1.1,0.1c0.5,0,1.1-0.1,1.6-0.1c0.5-0.1,1-0.1,1.5-0.1c1.3,0,2.6,0.7,3.2,1.9c2,3.3,4,6.6,6.4,7.2c0.2,0.1,0.5,0.1,0.7,0.1c1.7,0,2.1-1.7,5.6-2.6c1.4-0.4,2.9-0.7,4.4-0.7c2.3,0,4.8,0.6,8.8,1.7c1.5,0.5,3,0.8,4.6,0.9c2.3,0,3-1.2,4.8-2.7c2.6-2.2,1.2-5,5.8-5.5c0.8-0.1,1.5-0.1,2.3-0.1c0.3,0,0.5,0,0.8,0c0.2,0,0.4,0,0.6,0c0.9,0,1.4-0.1,1.4-0.7c-0.1-0.8-0.4-1.6-0.8-2.3c-1.9-4.1-0.5-1.3-4.2-4.6c-2.5-2.3-5.2-5.1-5.2-7.1c0-0.9,0.6-1.7,2.1-2.1c0.7-0.2,1.5-0.3,2.2-0.3c1.4,0,2.8,0.2,4.1,0.4c1.2,0.2,2.5,0.4,3.7,0.4c1.6,0,2.7-0.5,2.9-2c0.1-0.4,0.1-0.8,0.1-1.2c0-2.8-2-1.6-2.5-4.2c-0.5-2.9-2.7-1.9-2.7-3.8V53c0.1-2,0.3-2.8,5.2-3.2c0.4,0,0.9-0.1,1.3-0.1c1.1,0,2.1,0.1,3.2,0.2c1,0.1,2,0.2,3,0.2c2,0.1,3.9-0.8,5.2-2.3c2.7-3.2,4.6-4.1,7-4.1c0.1,0,0.3,0,0.4,0h0.1c0.2,0,0.3,0,0.5,0c0.3,0,0.7,0.1,1,0.1c3.5,0.4,4.5,1.5,9,2.9c3.6,1.2,5.1,3.7,6.8,3.7c0.5,0,1-0.2,1.4-0.5c2.1-1.4,4.1-3,6-4.7c2.1-1.9,3.7-3.6,5.4-9.3c1.5-4.6,1.6-6.3,3.5-6.3c0.5,0,1.1,0.1,1.6,0.2c0.5,0.1,0.9,0.2,1.4,0.2c1.2,0.1,2.4-0.5,3-1.6c0,0,1.3-5.4,4.1-5.5c1.5,0,3.4-0.3,5.8-0.3c2.6,0,5.3,0.4,7.8,1.1c6,1.8,10.4,5.7,17.2,6.1c6.8,0.4,2.4,5,7,6.5c4.5,1.5,0.2,7.8,4.6,9.6c4.4,1.9,7,10.1,10.4,11.4c0.6,0.2,1.2,0.3,1.9,0.3c1.1-0.1,2.1-0.3,3.2-0.6c1.3-0.4,2.7-0.6,4.1-0.6c0.4,0,0.7,0,1.1,0c3.5,0.3,3.7,1.1,5.1,1.1c1.1-0.1,2.3-0.3,3.3-0.7c4-1.2,2.6-3.3,3.9-3.3c0.8,0.1,1.6,0.3,2.4,0.7c3.3,1.3,5.3,2.3,7,2.3c1.1,0,2.1-0.4,2.9-1.2c0.9-1,2.3-1.7,3.7-1.7c1.5,0.1,3.1,0.4,4.6,0.8c4.6,1.1,3.4,7.7,5.4,8.2c0.9,0.2,1.1,1.2,1.1,2.3c-0.1,1.5-0.3,2.9-0.7,4.3c-0.2,0.8-1.3,1-2.6,1c-0.5,0-1,0-1.5,0c-0.5,0-1,0-1.6,0c-0.9,0-1.8,0.1-2.7,0.4c-2.4,0.9-7.4,2.4-7.4,3.8c0,0.2,0.1,0.4,0.3,0.6c2.9,2.4,5.4,5.3,7.3,8.6c1.1,2.1,2.2,2.5,3.3,2.5c0.5,0,0.9-0.1,1.4-0.2c0.4-0.1,0.9-0.1,1.4-0.2c0.5,0,1,0.1,1.5,0.4c0.7,0.3,1.2,1.1,1.2,1.9c0,0.9-0.3,1.9-0.3,3.2c0,0.7,0.1,1.4,0.3,2.1c1.2,3.5-1.5,4.5,5.1,5.7c0.6,0.1,1.2,0.2,1.8,0.2c1.5,0.1,2.9-0.5,4-1.5c0.9-0.8,1.5-1.5,2.6-1.5c0.4,0,0.8,0.1,1.1,0.2c1.7,0.6,2.7,2.3,2.5,4c0,1.4-0.4,2.8-1.1,4c-1,1.2-3.5,2.3-3.5,4.3c0,0.3,0.1,0.7,0.2,1c0.2,0.6,0.3,1.3,0.3,2c0,2.4-0.9,5.3-0.9,7.2c0,0.1,0,0.3,0,0.4c0,0.2,0,0.5,0,0.7c0,0.2,0,0.3,0,0.4c0,0.7,0.3,0.2,3.9,2.6c4.9,3.2,6.8,2,7.1,4.1c0.4,2.1,2.1,3.3,2.9,5.1c0.6,1.5,1,3.1,1,4.7c0,0.9-0.1,1.9-0.3,2.8c-0.6,2.5-2.2,2.4-2.2,4.9c0,0.7,0.1,1.3,0.2,2c0.6,3.1,1.7,3.3,1.7,4c0,0.3-0.3,0.8-1.1,1.8c-1.8,2.3-4.1,4-4.1,5.3c0,0.4,0.3,0.8,0.9,1.2c1.5,0.9,5.7,3.5,8.8,5.5c0.1,0,0.2,0,0.4,0h0.1c0.9,0.1,1.4,0.2,1.7,0.2c0.8,0,0.5-0.4,3.2-1.8c1.8-1,3.8-1.4,5.8-1.4c0.8,0,1.7,0.1,2.6,0.1l0,0l0.6,0c0-0.3,0-0.6,0-0.9c0-0.9,0.1-1.9,0.2-2.8c0.4-1.8,6.3-11.7,7.2-15.4c0.9-3.7,2.5-7.8,3.1-10.2c0.1-0.5,0.2-1.1,0.2-1.6c0-1.7-0.4-3.8-0.4-5.8c0-0.8,0.1-1.5,0.2-2.3c0.7-3.1,2.2-2.7,3.1-6.4c0.9-3.7-0.4-4,1.5-5.1c1.3-0.9,2-2.4,2-4c0.1-0.8-0.3-1.6-0.8-2.2c-0.6-0.3-0.9-0.9-1-1.6c0-0.7,0.5-1.4,1.3-2.5c0.7-0.9,1.1-1.5,1.1-2c0-0.6-0.4-1.2-1.3-2.2c-0.8-0.9-1.1-1.4-1.1-2c0-0.7,0.5-1.5,1-3.2c1-3,0.1-5.8,3-8.6c2.7-2.6,3.9-4.7,3.9-7.3c0-0.3,0-0.5,0-0.8c0-0.2,0-0.4,0-0.6c0-2.8,1.8-5.6,2.2-7.3c0.2-1.6,0.7-3.1,1.4-4.5c1.3-2.6,0-6.8,1.5-9c1.5-2.2,3.6-1.7,5.8-4.1c1.9-2.1,3.2-3.4,4.5-3.4c0.2,0,0.3,0,0.5,0.1c0.5,0.1,1,0.2,1.5,0.2c1,0,1.9-0.5,2.6-2.5c1-3,3.6-1.7,3.9-4.2c0.3-2.5,0.8-4.7,3-5.7c1.3-0.6,2.2-1.9,2.2-3.3c0-0.9-0.5-1.8-1.2-2.2c-2-1.3-3-1.4-3.2-1.4h0c0.5-1.3,1.5-2.5,2.7-3.2c1.8-0.9,2.7-0.6,3.5-4c0.6-2.4,3-2.9,4.4-5.3l0-0.1c0.1-0.2,0.2-0.4,0.3-0.5C585.4,13.4,583.2,13.4,581,13.4z M336.9,13.4c0,0.1,0.1,0.1,0.1,0.2C337,13.5,337,13.4,336.9,13.4L336.9,13.4z M336.1,12.3l-0.2-0.2C336,12.1,336,12.2,336.1,12.3L336.1,12.3z M336.6,13l-0.2-0.2C336.5,12.8,336.6,12.9,336.6,13L336.6,13z"
          class="region western-region"></path>
    <path id="CapitalRegion"
          d="M824,449.8c0-0.8,0-1.6-0.1-2.4c-0.1-0.9-0.2-1.8-0.2-2.8c0-1.7,0.2-2.7,0.2-3.8c0-0.4,0-0.8-0.1-1.2c-0.1-0.4-0.1-0.8-0.1-1.2c0-1.2,0.2-2.7,0.2-4.2c0.1-1.3-0.2-2.6-0.8-3.8c-1.6-2.6-4.1-8.7-4.1-12.2c0-0.1,0-0.2,0-0.3c0.1-2,0.4-3.7,0.4-4.9c0.1-0.7-0.2-1.5-0.8-2c-1.3-0.9-2.3-5.5-2.3-7.6c0-0.1,0-0.2,0-0.3c0-0.1,0-0.2,0-0.3c0-1.7-1.1-2.9-1.1-4.6c0-0.1,0-0.2,0-0.3c0-0.2,0-0.4,0-0.6c-0.1-1.3-0.4-2.6-0.9-3.8c-0.1-0.2-0.1-0.4-0.1-0.6c0-1.6,1.5-3.4,1.5-5.3c0-0.1,0-0.1,0-0.2c0-0.1,0-0.1,0-0.2c0-2.1,1.5-2,2.3-2.8c0.3-0.5,0.5-1.1,0.4-1.7c0-0.6-0.1-1.3-0.1-2c-0.2,0-0.4,0.1-0.6,0.1c-0.7,0-1.4-0.3-1.9-0.8c-1.3-1.3-0.9-1.5-1.3-2.9c-0.1-0.7-0.2-1.4-0.2-2.1c0-0.8,0.1-1.5,0.1-1.5c-1.9-0.7-3.2-2.4-3.5-4.4c0-0.2,0-0.4,0-0.6c0-2.4,2.6-1.5,2.6-3c0-0.1,0-0.2,0-0.4c-0.4-1.8-2.6-2-2.6-3.8c0-0.3,0.1-0.7,0.2-1c0.5-1.3,0.8-2.7,0.9-4.1c0-0.3,0-0.6,0-0.8c0,0,0,0,0,0c0-0.9,3.4-0.8,3.4-2.1c0-1.3-0.5-10.1-0.5-10.1c0.4-1.8,1-3.5,1.8-5c1-1.5,1.9-3,2.7-4.5c1.1-2,0.4-4.4,1.8-4.7c0.7-0.2,0.9-0.4,0.9-0.8c-0.1-0.6-0.3-1.2-0.6-1.7c-0.3-0.5-0.5-1.2-0.6-1.8c0-0.5,0.3-0.9,1-1.4c0.6-0.4,0.8-0.7,0.8-1.1c0-0.7-0.7-1.5-1.9-2.3c-1-0.7-1-1.1-1-1.4v-0.1c0-0.3,0-0.6-0.6-1.1c-1.1-1.1-2.4-1.1-2.4-2c0-0.3,0.1-0.5,0.2-0.7c0.5-1.2,1.3-1.3,1.3-1.7c0-0.2-0.2-0.5-0.7-1c-1.5-1.6-2-2.1-2-3.5c0-0.1,0-0.1,0-0.2c0-0.6,0.1-1.1,0.1-1.6c0-1-0.2-1.9-0.7-2.7c-0.2-0.4-0.3-0.8-0.3-1.2c0-0.5,0.2-1,0.2-1.5c0-0.5-0.2-1-0.5-1.4c-0.3-0.4-0.5-0.5-0.6-0.5c-0.1,0-0.2,0-0.2,0.1c0,0-0.1,0.1-0.2,0.1c-0.2,0-0.4-0.4-1-2.1c-0.2-0.5-0.3-1.1-0.3-1.6c0-2,1.5-2.9,1.6-4c0-0.3-0.1-0.7-0.4-0.9c-1.5-2-3.1-3.3-3.8-4.4c-0.2-0.3-0.6-0.5-1-0.5c-0.2,0-0.3,0-0.5,0s-0.4,0-0.5,0c-0.5,0.1-1-0.2-1.2-0.7c-0.6-1.4,0.1-1.6-1.8-3.3c-1.9-1.7-3.5-3.1-3.5-4.4c-0.3-1.8-1.1-3.5-2.4-4.8c-1.3-1.3-4.3-1-5.9-3.6c-0.7-1.1-1-1.3-1.5-1.3c-0.2,0-0.4,0.1-0.6,0.1c-0.3,0.1-0.6,0.1-0.9,0.1c-0.5,0-1-0.1-1.5-0.3c-1.9-0.7-3.5-2-4.6-3.7c-1.6-1.2-3.3-2.3-5.1-3.1c-2.9-1.3-3.8-1.5-4.8-2.8c-0.2-0.3-0.3-0.4-0.3-0.6c0-0.4,1-0.5,1-3.3v-0.2c0,0,0-0.1,0-0.1c0-2.5,1-3.5,1.7-3.9l0.1,0c0.2-0.1,0.4-0.2,0.6-0.2l-1.6-1.3c0,0,0,0,0,0c-0.1,0-0.8-0.1-1.4-2c-0.5-1.4-0.6-1.7-1-2c-0.2-0.2-0.6-0.4-1.2-0.8c-1.7-1-4.6,0.5-7-2s-2.9-4.2-4-5.1c-0.7-0.5-1.6-0.8-2.5-0.8h-0.1c-0.8,0-1.5,0.2-2.2,0.6c-0.6,0.4-1.3,0.6-2,0.6c-1.3,0-3-0.7-4.9-2.5c-1.3-1.2-2-1.6-2.6-1.6c-0.8,0-1.2,0.9-1.9,1.5c-0.8,0.7-1.4,1.6-2.1,1.6c-0.5-0.1-1-0.3-1.3-0.8c-0.5-0.4-0.7-1-0.7-1.7c0-0.4,0.1-0.8,0.1-1.2c0-0.4-0.1-0.8-0.3-1.2c-0.9-1.5-0.9-1.8-3.6-2.5c-2-0.5-2.7-0.1-2.7-0.7c0-0.4,0.1-0.8,0.2-1.1c0.4-1.7-0.6-3.4-2.3-3.8c-0.1,0-0.3-0.1-0.4-0.1c-0.6-0.1-1.2-0.2-1.8-0.2c-0.8,0-1.6,0.1-2.4,0.1l-1-2.8c-0.6-0.6-1.4-1.1-2.2-1.5c-0.4-0.1-0.5-0.3-0.5-0.7c0-0.6,0.3-1.5,0.4-2.8c0-0.2,0-0.4,0-0.6c0-1.7-0.8-2.1-0.8-4.4c0-2.6-0.9-3.1-0.9-3.1c-2.2-1.3-4.2-3-5.9-4.9c-1.6-2.2-3-4.6-4.1-7.1l-4.8-0.2c0,0,0-0.1,0-0.3c0-0.9-0.1-3.4-1.5-4.3c-1.7-1-3.5-3.1-4.6-3.7c-2.5-1-5.1-1.9-7.8-2.5c-2.4-0.6-5.9-1.1-5.9-1.1l-0.4-3.6l-1.2-0.3c0,0,0-0.3,0-0.8c0-1.3-0.2-4-1.9-5.1c-3.4-2.2-6.4-5.1-8.6-8.5c-1.8-3.2-3.1-6.7-3.9-10.3c1.8-1.1,2.9-1.9,3.3-2.1c0.4-0.3,0.8-0.5,1.2-0.7c0.2-0.8,0.8-2.5,1.8-5.1c1.5-3.8,0.7-3.1,2.3-7.2c1.3-3.4,3-3.7,3-5.2c0-0.4-0.1-0.8-0.2-1.2c-0.3-1-0.5-2-0.5-3c0.1-1.5,0.4-3,0.9-4.3c0.9-2.4,8.6-14.4,8.6-14.4s-0.6-1.7-0.9-3.1c-0.2-0.9-0.5-1-0.5-1.6c0-0.5,0.1-0.9,0.2-1.4c0.4-1.9,3.2-5,3.2-6.7c0-0.2,0-0.4-0.2-0.6c-2.1-2.6-4.5-4.9-7.1-6.8c-1.1-0.6-1.1-3.2-1.1-3.5v0l-5-0.5l0.1-3.9v0l0-0.6c-1.1,0.3-2.3,0.5-3.5,0.6c-0.7,0.1-1.4-0.1-2-0.6c-0.4-0.4-0.5-0.9-0.5-1.4c0-1.3,0.6-2.9,0.6-4c0-0.1,0-0.3,0-0.4c-0.3-1.4-0.6-3-1.5-3.3l-2.1-0.5c-1.4-1.5-2.6-3.1-3.7-4.7c-1-1.6-1.3-2.3-2-2.3c-0.4,0-0.7,0.1-1.1,0.2c-0.7,0.2-1.4,0.3-2,0.3c-0.4,0-0.8,0-1.2-0.1l-3.9-3.8l-2.2-0.2c0,0-2.3-3.8-3.6-4.1c-0.2,0-0.4-0.1-0.6-0.1c-0.9,0.1-1.7,0.3-2.5,0.6l-0.7,1.5l-1.3-2.6l-1.7-4.9l-8.5,0.6c0-0.1,0-0.3,0-0.4c0-0.9,0.4-1.7,1-2.3c0.3-0.3,0.5-0.7,0.6-1.2c0-0.8-0.9-1.6-2.1-2.1c-0.8-0.4-1.3-1.2-1.3-2.1c0-0.8,0.4-1.4,1.1-1.4c0.1,0,0.2,0,0.3,0c1.8,0.4,3.3,2.4,5.1,2.8c0.2,0.1,0.4,0.1,0.7,0.1c1-0.1,2-0.5,2.8-1.2c-0.1-0.3-0.1-0.6-0.1-0.9c0-1.1,0.4-2.2,1-3.1c1.5-2.2,0-4.2,2.5-6.5c2.5-2.3,5.7-2.2,6.5-4.3c0.6-1.5,1.5-2.2,1.5-3.4c0-0.6-0.2-1.3-0.5-1.8c-0.6-1.2-1.3-2.4-2.1-3.4l7.8-0.4c0.1-0.3,0.2-0.6,0.2-1c0-0.6-0.2-1.2-0.5-1.7c-0.5-0.9-0.9-1.2-0.9-1.6c0.1-0.5,0.3-1,0.6-1.4c0.3-0.6,0.8-1.5,1.3-2.5l0-0.1l0.3-0.5c-24.3,0.2-49.1,0.3-74,0.4c-1.3,2.9-4.1,3.3-4.7,5.9c-0.8,3.4-1.7,3.1-3.5,4c-1.2,0.7-2.2,1.9-2.7,3.2h0c0.2,0,0.4,0,0.6,0.1l0,0c0.9,0.3,1.8,0.7,2.6,1.3c0.8,0.5,1.2,1.3,1.2,2.2c-0.1,1.4-0.9,2.7-2.2,3.3c-2.2,1.1-2.7,3.2-3,5.7c-0.3,2.5-2.9,1.3-3.9,4.2c-0.7,2-1.6,2.5-2.6,2.5c-0.5,0-1-0.1-1.5-0.2c-0.2,0-0.3-0.1-0.5-0.1c-1.3,0-2.5,1.3-4.5,3.4c-2.2,2.4-4.3,1.9-5.8,4.1c-1.5,2.2-0.2,6.4-1.5,9c-0.7,1.4-1.2,2.9-1.4,4.5c-0.4,1.7-2.2,4.5-2.2,7.3c0,0.2,0,0.4,0,0.6c0,0.3,0,0.5,0,0.8c0,2.6-1.2,4.7-3.9,7.3c-2.9,2.9-2,5.7-3,8.6c-0.6,1.7-1,2.4-1,3.2c0,0.6,0.3,1.1,1.1,2c0.9,1,1.3,1.6,1.3,2.2c0,0.6-0.4,1.1-1.1,2c-0.8,1.1-1.3,1.8-1.3,2.5c0.1,0.7,0.4,1.2,1,1.6c0.6,0.6,0.9,1.4,0.8,2.2c0,1.6-0.7,3.1-2,4c-1.9,1.2-0.7,1.5-1.5,5.1c-0.9,3.7-2.4,3.3-3.1,6.4c-0.2,0.8-0.2,1.5-0.2,2.3c0,2,0.4,4,0.4,5.8c0,0.5,0,1.1-0.2,1.6c-0.6,2.4-2.2,6.6-3.1,10.2c-0.9,3.7-6.7,13.6-7.2,15.4c-0.2,0.9-0.3,1.9-0.2,2.8c0,0.3,0,0.6,0,0.9c0.6,0,1.2,0.1,1.8,0.1c4.4,0.3,2.8,3.5,7,8.2c1.3,1.7,3.4,2.7,5.5,2.7c0.7,0,1.4-0.1,2.1-0.2c0.6-0.1,1.2-0.2,1.9-0.2c0.3,0,0.6,0,0.9,0.1c0.3,0.1,0.7,0.1,1,0.2c1.4,0,1.1-1.3,4.8-2.4c3.7-1.2,4.4-1.9,5.4-1.9c0.2,0,0.5,0,0.7,0.1c1.5,0.4,4.5,5.1,5.1,7.7c0.6,2.6,3.3,8.5,6.3,9.6c3,1.1,3.4-0.8,5,2.8c1.6,3.6,6.3,2.7,8.5,3.3c2.3,0.5,1.8,0.8,2.5,4.6c0.7,3.8,2.2,2.6,3.7,4.9c0.4,0.5,0.5,1.1,0.6,1.7c0,0.6-0.2,1.1-0.4,1.7c-0.6,1.3-1.1,2.6-1.5,4c-0.9,3.8-2.3,2.7-3.9,6c-1.5,3.3-3.1,4.5-4.8,4.9c-1.7,0.4-5.4,0.7-7.5,2.7c-0.4,0.3-0.6,0.8-0.6,1.3c0,1.3,1.3,2.7,1.2,4.6c0,0.6-0.2,1.3-0.4,1.9c-0.9,1.9-1.5,3.1-1.5,4.3c0,1,0.5,2,1.7,3.5c2.6,3.1,2.1,3.3,6.9,5.3c4.8,1.9,1.5,0.7,5.9,2.6c4.4,1.8,1.9,0.4,4.4,5.5c2.5,5,1.7,4.8,3.3,6.5c1.6,1.6,1.3,2.7,3.6,3.7c2.2,1,3,0.7,6.6,1.2c0.3,0,0.6,0.1,0.9,0.1c0.8,0,1.6-0.2,2.2-0.7c0.8-0.5,1.7-0.7,2.6-0.7c0.6,0,1.2,0.1,1.8,0.2c5.1,0.8,4.2,1,7.3,1.7c0.4,0.1,0.7,0.1,1.1,0.1c1.9,0,1.9-1.6,5.8-1.8c1.2-0.1,2.4-0.2,3.7-0.5c0.6,0,0.8,0.4,1.6,2.1c0.5,1,0.9,1.3,1.3,1.3c0.2,0,0.5-0.1,0.7-0.2c0.2-0.1,0.5-0.2,0.8-0.2c0.7,0.1,1.3,0.4,1.7,0.9c0.9,0.9,1.4,1.1,1.8,1.1c0.2,0,0.4-0.1,0.6-0.1c0.2-0.1,0.4-0.1,0.5-0.1c0.4,0,0.8,0.2,1.5,1c2.2,2.6,0.5,1.3,2.7,3.9c2.2,2.5,4.3,0.6,6.4,2.3c2,1.7,3.2,1.9,4.9,3.2c1.1,0.8,1.8,2.1,1.7,3.5c0,2.4-1.3,5.1-1.7,7c-0.1,0.4-0.1,0.8-0.1,1.2c0,2.3,1.8,3.5,2.6,5.5c1.1,2.3,4.4,2.3,6.7,4.4c0.7,0.8,1.8,1.3,2.9,1.3c0.4,0,0.8,0,1.2-0.1s0.9-0.1,1.4-0.1c0.5,0,1,0,1.5,0.1c0.2,0,0.5,0.1,0.7,0.1c0.8,0.1,1.6-0.3,2.1-1c0.4-0.7,1.2-1.1,2-1c0.1,0,0.3,0,0.5,0c3.2,0.3,4.3,0.6,6.6,2.8c2.4,2.2,3.6-1.6,9.5,6.3c0.5,0.6,0.9,1.2,1.2,1.7l0,0c0.1,0.2,0.2,0.3,0.3,0.4c1.3,2,1.7,3,1.7,3.7c0,1.1-0.9,1.3-0.9,2.3c0,0.2,0,0.3,0.1,0.5c0.6,2.6,4.5,5.1,6.1,7.1c1.5,2,4.2,1,5.1,2.4c0.9,1.4,6.2,8,9.3,12.3c1.4,2.1,1.7,2.8,1.7,3.4c0,0.3-0.1,0.6-0.1,1c0,0.5,0.1,0.9,0.3,1.3c0.4,1.5,0.6,3,0.5,4.5c0,2.9-0.3,5.9-0.8,8.8c-0.1,0.6-0.2,1.1-0.2,1.7c0,0.9,0.1,1.8,0.1,2.9c0,2.1-0.4,4.2-1.2,6.1c-0.3,0.7-0.5,1.5-0.7,2.3l0.4-0.4l0.4-0.5l-0.8,0.8c-0.2,0.7-0.3,1.4-0.3,2.1c0,2.2,0.9,3.6,1,5.7c0,0.6,0,1.1,0,1.5c0,1.8-0.3,3.5-0.8,5.2c-0.2,0.6-0.3,1.3-0.3,2c0,1.8,0.9,2.7,2.1,5.8c0.1,0.4,0.2,0.8,0.2,1.2c0,2.7-5.1,2.1-8.8,4.2c-1.6,0.9-3.8,2.1-5.9,3.4l10.8,30.9l0.1,0.1l0.2,0.6c0,0,0.1-0.2,0.3-0.5l0.1-0.1c0.8-1.1,2.5-3.4,3.6-3.9c1.4-0.6,2.2-2.7,2.5-3.9c0.5-1.3,1.1-2.6,1.9-3.8c0,0,3.5-1.1,6.7-2.3c3.1-0.9,6.4-1.4,9.7-1.4c0.4,0,0.7,0,1,0c1.9,0.1,8.5,1,10.3,1.5c1.5,0.3,3.1,0.4,4.7,0.4c1.5,0.1,3-0.1,4.4-0.5c2.6-1,5.4-1.6,8.2-1.8c0.5,0,1,0.1,1.5,0.2c2.1,0.8,33.7,15.7,33.7,15.7v0.1c0,1,0,7.1,1.1,8.8c0.3,0.6,0.5,1.2,0.5,1.9c0,0.6-0.1,1.2-0.1,1.8c0,0.5,0.1,1,0.4,1.4c0.2,0.4,0.3,0.9,0.3,1.4c0,1.6-0.6,4-0.6,5.5c-0.1,0.4,0.1,0.9,0.3,1.2c2.2,1.8,4.7,3.1,7.4,4c3.6,1.2,5.7,1.7,8.3,3.2c1.2,0.8,2.5,1.4,3.9,1.8l0.2,0.1c0.4,0.1,0.6,0.2,0.6,0.2c-0.4-0.9-0.5-1.9-0.4-2.8C823.6,456.5,824,452.8,824,449.8z"
          class="region capital-region"></path>
    <path id="SouthernRegion"
          d="M931.1,639.2c-0.1,0.7-0.2,1.3-0.2,2c0,1.7,0.3,3.4,0.3,4.5c0,0.8-0.2,1.4-0.8,1.4c-0.2,0-0.5-0.1-0.7-0.2c-3-1.1-8.6-4.9-8.6-4.9s-3-6.3-5.5-9.4c-1.5-2.1-3.8-3.5-6.3-3.9c-2-0.5-2.2-3-6-3.9c-2-0.5-2.3-1.1-2.3-1.9c0-0.3,0.1-0.7,0.1-1c0-0.5-0.1-1-0.4-1.4c-1.2-1.9-3.4-6.5-3.4-6.5c-1-0.2-2-0.3-3-0.4c-0.7-0.1-1.3,0.1-1.9,0.5c-1,1-2.1,3.6-3,7.4c-0.2,0.7-0.3,1.5-0.3,2.3c0,0.5,0.1,0.8,0.1,1c0,0.5-0.2,0.5-1.5,0.8c-0.2,0-0.3,0.1-0.5,0.1c-2.3,0-3.6-3.9-4.5-4.9c-1-1-0.7-3.8-2.3-5.8c-1.5-1.7-3.5-2.9-5.7-3.3c0,0-0.1,0-0.2,0c-0.8,0.2-1.5,0.6-2,1.1c-0.6,0.6-1.4,1-2.3,1.1c-0.5,0-1.1-0.3-1.5-1.2c-1.7-3.3-3.5-4.1-4.4-7.2c-1-3,0.2-6.4-4.4-12.4c-4.7-5.9-5.4-4.9-6.3-7.6c-1-2.7-6.9-3.2-11.5-4.3c-4.6-1.1-7.1-2.5-9.8-3.1c-2.7-0.6-4.4-2.3-5.6-2.5c-1-0.1-2-0.2-3-0.2c-2.6,0-6,0.2-7.3,1c-1.9,1.2-6.2,0.6-9.8,2.2c-3.6,1.6-1.5,4.5-4,4.7c-0.2,0-0.4,0-0.6,0c-2.8,0-8.1-1.4-9.8-4.1c-1.8-2.8-6.1-5.1-6.2-6.3c-0.1-1.2-1.1-1.8-1.1-5.3c0-0.2,0-0.4,0-0.6c0.1-3.3,1.1-5.6,1.1-7.7c0-0.5-0.1-0.9-0.1-1.4c-0.6-2.6-2.7-3.9-4-5.4c-0.7-0.7-1.7-1.1-2.7-1.1c-0.1,0-0.1,0-0.2,0c-1.2-0.1-2.3,0.7-2.6,1.8c0,0.2-0.1,0.4-0.1,0.7c0,2.1,2.2,4.5,2.7,7.2c0.1,0.5,0.1,1.1,0.1,1.7c-0.1,1.9-0.4,3.7-1,5.4c-0.1,0.3-0.8,0.5-1.7,0.5c-2.1-0.1-4.3-0.4-6.3-0.8c-2.3-1.4-4.5-3-6.6-4.7c-2.5-2.3-4.7-4.9-6.7-7.7c-2.1-3-4.4-3.9-4.6-8c-0.3-4.2-4.6-4.8-6.4-5.6c-1.8-0.8-4-5.4-5.7-6.6c-1.8-1.3-4.6-2.7-5.2-8.9c-0.5-6.2-1.7-10.1-2.8-12c-1.2-1.9-3.3-10.1-3.8-13.1c-0.5-2.9-3.6-4.1-4.3-5.9c-0.2-0.4-0.4-0.5-0.7-0.5c-1.1,0-3.2,2.5-5.7,3.5c-3.1,1.3-7.5,0.7-9.4,3.8c-2,3.2-3.8,7.2-6.5,8.6c-2.8,1.4-4.4,1.4-7.5,4.3c-3.1,2.9-9,3.5-13.5,5.7c-4.6,2.2-5.9,4.2-11.2,6.3c-2.5,0.9-4,1.5-5,1.5c-1,0-1.3-0.7-1.4-2.2c-0.1-2.9-5-4.4-6.3-7.6c-1.2-3-6.1-9.6-6.1-13.2c0-0.2,0-0.5,0.1-0.7c0.1-0.6,0.2-1.1,0.2-1.7c0-3.8-1.8-9.9-1.8-13.4v-0.3c0-0.1,0-0.2,0-0.3c0-3.4-1.6-8-1.6-11.2c0-0.5,0-1,0.1-1.5c0.7-3,1.4-7.7,5.7-12c4.2-4.3,3.7-3.6,4.2-5.9c0.6-2.3,3.5-2.8,7.7-5.1c4.2-2.3,3.7-5.2,6.7-9.4c3-4.1,1.7-5.3,2.5-7.1c0.8-1.8,4.1-1.9,6.9-2c2.9-0.2,5.7,0.1,9.5-0.6c1.7-0.3,2.2-1,2.2-2.1c0-1.3-0.7-3.1-0.9-5.3c-0.2-2.7-0.8-3.4-1.8-3.4c-0.7,0.1-1.3,0.2-2,0.5c-0.3,0.1-0.8,0.3-1.3,0.5c-0.1,0-0.1,0-0.2,0.1c-0.2,0.1-0.4,0.1-0.6,0.2c0.8-2.6,2.2-6.7,2.8-9.4c0.8-3.7,2.4-7.2,4.8-10.2c1.4-1.7,4.7-3.9,8-6l11.1,31.7c0,0,2.5-3.9,4-4.5c1.4-0.6,2.2-2.7,2.5-3.9c0.5-1.3,1.1-2.6,1.8-3.7c0,0,3.5-1.1,6.7-2.3c3.1-0.9,6.4-1.4,9.7-1.4c0.4,0,0.7,0,1,0c1.9,0.1,8.5,1,10.3,1.5c1.5,0.3,3.1,0.4,4.6,0.4c1.5,0.1,3-0.1,4.4-0.5c2.6-1,5.4-1.6,8.2-1.8c0.5,0,1,0.1,1.5,0.2c2.1,0.8,33.7,15.7,33.7,15.7v0.1c0,1,0,7.1,1.1,8.8c0.3,0.6,0.5,1.2,0.5,1.9c0,0.6-0.1,1.2-0.1,1.8c0,0.5,0.1,1,0.4,1.4c0.2,0.4,0.3,0.9,0.3,1.4c0,1.6-0.6,4-0.6,5.5c-0.1,0.4,0.1,0.9,0.3,1.2c2.2,1.8,4.8,3.1,7.5,4c3.6,1.2,5.7,1.7,8.3,3.2c1.4,0.9,3,1.6,4.7,2.1c-0.4-0.9-0.5-1.9-0.4-2.8c0-2.6,0.5-6.3,0.5-9.3c0-0.8,0-1.6-0.1-2.4c-0.1-0.9-0.2-1.8-0.2-2.8c0-1.7,0.2-2.7,0.2-3.8c0-0.4-0.1-0.8-0.2-1.2c-0.1-0.4-0.1-0.8-0.1-1.2c0-1.2,0.2-2.7,0.2-4.2c0.1-1.3-0.2-2.6-0.8-3.8c-1.6-2.6-4.2-8.7-4.1-12.2v-0.3c0.1-2,0.5-3.7,0.5-4.9c0.1-0.7-0.2-1.5-0.8-2c-1.3-0.9-2.3-5.5-2.3-7.6c0-0.1,0-0.3,0-0.4c0-0.1,0-0.2,0-0.3c0-1.7-1.1-2.9-1.1-4.6c0-0.1,0-0.2,0-0.3c0-0.2,0-0.4,0-0.6c-0.1-1.3-0.4-2.6-0.9-3.8c-0.1-0.2-0.1-0.4-0.1-0.6c0-1.6,1.6-3.4,1.5-5.3v-0.4c0-2.1,1.5-2.1,2.3-2.8c0.3-0.5,0.5-1.1,0.4-1.7c0-0.6-0.1-1.3-0.1-2c0-0.4,0-0.7,0-1c0-0.3,0-0.5,0-0.8c0.3-1.2,2.4-0.4,3.3-1.8c1-1.4,3.4-2.1,5.6-3.2c1.2-0.6,4-0.8,6.3-0.8c1.8,0,3.2,0.1,3.2,0.1l-0.3,14.8c0.6,0.8,1.3,1.5,2.1,2.1c0.9,0.6,1.2,0.7,1.4,0.7c0.1,0,0.1,0,0.1,0l21.2-1.1c0.6,0.2,1.2,0.4,1.8,0.7c1,1,1.8,2.2,2.5,3.5c-0.2,0.9-0.3,1.8-0.3,2.7c0,4,1.2,9.1,2.2,12.9c1.3,4.8,0.7,7.4,1.4,11.3c0.9,4.1,1.5,8.4,1.7,12.6v0.8c0,0.1,0,0.2,0,0.4c0,3.6,1.4,7.5,1.4,11.7c0,0.4,0,0.8,0,1.2c-0.3,3.5-1.4,6.3-1.4,10.4c0,1.8,0.2,3.5,0.6,5.2c1.5,7.2,3.6,9,5.5,12.7c2.9,4.9,6.3,9.5,10.2,13.7c4.2,4.6,6.3,6,11,13.6c4.7,7.6,4.3,5.5,7.7,10.3c3.3,4.8,2.2,4.5,3.6,12.2c0.2,0.8,0.3,1.7,0.3,2.5c0,4.5-3.8,3-5.6,4.7c-0.5,0.5-0.8,1.2-0.8,1.9c0,1.9,1.6,4.1,2.6,5.8c0.1,0.2,0.2,0.4,0.4,0.5c1.4,1.9,2.5,2.4,5.3,4.9c3,2.7,1.8,2.4,3.3,4.8c0.3,0.3,0.4,0.8,0.5,1.2c0,1.2-1.9,1.3-3.8,2.5c-2.3,1.5-3.3,3.7-4.4,8.3c-0.2,0.6-0.2,1.2-0.2,1.8c0,3.2,2.3,4.6,3.5,8.7c1.3,4.7,2.3,9.1,7,15c4.7,6,4.6,4.7,9.1,9.4c4.6,4.7,2.1,3.3,4.2,8.3c0.6,1.2,1,2.4,1.2,3.7c0,0.8-0.6,0.9-1.4,2.4c-1.4,2.5-3.9,4.7-3.9,7.9v0.1c0,3.3,2.8,5.1,3.8,9.8c0.6,3.4,1.4,4.7,1.4,6.6C931.4,637.5,931.3,638.4,931.1,639.2z"
          class="region southern-region"></path>
    <path id="CentralRegion"
          d="M999.1,109.3c-1.3-2.7,0.7-6.3-2.8-8.8c-3.5-2.4-10.3-2.8-12.1-3.6c-1.6-0.8-2.9-3-2.9-5.9c0-0.4,0-0.8,0.1-1.2c0.5-3.6,0.4-10.1,4.6-12.3c1.6-0.9,3.2-1.8,4.6-2.5v0c0.2-0.1,0.4-0.2,0.6-0.3c-1.6-2.4-5.2-7.8-8.4-12.8c-4.2-6.8-8.2-11.9-10.9-14.2c-2.7-2.3-3.1-0.7-4.1-4.5c-1.1-3.8-0.8-6.3-5.2-10.9c-4.4-4.6-9.5-7.4-13-12.1c-2.3-3.1-5.3-9.5-7-13.3c-28.4,1-60.6,2-95.4,2.9c-20,0.5-40.9,1-62.5,1.5c-39,0.8-80.4,1.5-123,1.8c-0.5,1.1-1,2.1-1.6,3.1c-0.3,0.4-0.5,0.9-0.6,1.4c0,0.4,0.4,0.7,0.9,1.6c0.3,0.5,0.5,1.1,0.5,1.7c0,0.3-0.1,0.7-0.2,1l-7.8,0.4c0,0,0.1,0.1,0.4,0.5c0,0,0,0.1,0.1,0.1c0.6,0.9,1.2,1.8,1.7,2.8c0.3,0.6,0.5,1.2,0.5,1.8c0,1.2-0.9,2-1.5,3.4c-0.8,2.1-4,2-6.5,4.3c-2.5,2.3-1,4.3-2.5,6.5c-0.7,0.9-1,2-1.1,3.1c0,0.3,0,0.6,0.1,0.9c-0.8,0.7-1.8,1.1-2.8,1.2c-0.2,0-0.4,0-0.7-0.1c-1.8-0.4-3.3-2.4-5.1-2.8c-0.1,0-0.2,0-0.3,0c-0.7,0-1.1,0.7-1.1,1.4c0,0.9,0.5,1.7,1.3,2.1c1.2,0.5,2.1,1.2,2.1,2.1c0,0.5-0.2,0.9-0.6,1.2c-0.6,0.6-1,1.4-1,2.3c0,0.1,0,0.3,0,0.4l8.5-0.6l1.8,4.9l1,1.9l0.1,0.1l0.3,0.6l0.3-0.6l0.1-0.2l0.4-0.8c0.8-0.4,1.6-0.6,2.5-0.6c0.2,0,0.4,0,0.6,0c1.2,0.3,3.6,4.1,3.6,4.1l2.2,0.2l3.9,3.8c0.4,0.1,0.8,0.1,1.2,0.1c0.7,0,1.4-0.1,2.1-0.3c0.3-0.1,0.7-0.2,1.1-0.3c0.7,0,1,0.6,2,2.3c1.1,1.7,2.3,3.3,3.7,4.7c0,0,1.2,0.3,2.1,0.5c0.9,0.2,1.2,1.9,1.5,3.3c0,0.1,0,0.3,0,0.4c0,1-0.6,2.7-0.6,3.9c0,0.5,0.1,1.1,0.5,1.5c0.6,0.4,1.3,0.6,2,0.6c1.2,0,2.4-0.2,3.5-0.6l-0.1,4.5l5,0.5v0c0,0.3,0,2.9,1.1,3.5c2.6,2,5,4.3,7.1,6.8c0.1,0.2,0.2,0.4,0.2,0.6c0,1.7-2.7,4.8-3.2,6.7c-0.1,0.4-0.2,0.9-0.2,1.4c0,0.6,0.3,0.7,0.5,1.6c0.3,1.4,0.9,3.1,0.9,3.1s-7.7,12.1-8.6,14.4c-0.6,1.4-0.9,2.9-0.9,4.3c0,1,0.2,2,0.5,3c0.1,0.4,0.2,0.8,0.2,1.2c0,1.6-1.7,1.8-3,5.2c-1.6,4.1-0.8,3.4-2.3,7.2c-0.7,1.7-1.3,3.3-1.8,5.1c-0.4,0.2-0.8,0.4-1.2,0.7c-0.4,0.3-1.5,1-3.3,2.1c0.8,3.6,2.1,7.1,3.9,10.3c2.3,3.4,5.2,6.3,8.7,8.5c1.6,1.1,1.9,3.8,1.9,5.1c0,0.5,0,0.8,0,0.8l1.2,0.3l0.4,3.7c0,0,3.4,0.5,5.9,1.1c2.7,0.6,5.3,1.5,7.8,2.5c1.2,0.6,2.9,2.6,4.6,3.7c1.4,0.9,1.5,3.4,1.5,4.3v0.3l0.6,0l4.2,0.1c1.1,2.5,2.5,4.9,4.1,7.1c1.7,1.9,3.7,3.6,5.9,4.9c0,0,0.9,0.5,0.9,3.1c0,2.3,0.8,2.7,0.8,4.4c0,0.2,0,0.4,0,0.6c-0.1,1.3-0.4,2.3-0.4,2.8c0,0.4,0.1,0.7,0.5,0.7c0.8,0.3,1.6,0.8,2.2,1.5l1,2.8c0.8-0.1,1.6-0.1,2.4-0.1c0.6,0,1.2,0,1.8,0.1c1.5,0.3,2.7,1.5,2.7,3.1c0,0.3,0,0.5-0.1,0.8c-0.1,0.4-0.2,0.8-0.2,1.1c0,0.6,0.7,0.3,2.7,0.7c2.8,0.6,2.7,0.9,3.6,2.5c0.2,0.4,0.3,0.8,0.3,1.2c0,0.4-0.1,0.8-0.1,1.2c0,0.6,0.3,1.3,0.8,1.7c0.3,0.4,0.8,0.7,1.3,0.8c0.8,0,1.3-0.9,2.1-1.6c0.7-0.6,1.1-1.5,1.9-1.5c0.6,0,1.3,0.4,2.6,1.6c2,1.9,3.6,2.5,4.9,2.5c0.7,0,1.4-0.2,2-0.6c0.7-0.4,1.4-0.6,2.2-0.6h0.1c0.9,0,1.8,0.2,2.5,0.8c1.1,0.9,1.6,2.7,3.9,5.1c2.3,2.5,5.3,0.9,7,2c0.6,0.4,1,0.6,1.2,0.7c0.1,0.1,0.3,0.2,0.4,0.4c0,0,0,0,0,0.1c0.2,0.5,0.5,1,0.6,1.6c0.7,1.9,1.3,2,1.4,2h0l1.6,1.3c0,0-2.3,0.4-2.3,4.2v0.3c0,2.8-1,2.9-1,3.3c0,0.1,0.1,0.3,0.3,0.6c1,1.2,1.9,1.4,4.8,2.8c1.8,0.8,3.5,1.9,5.1,3.1c1.1,1.7,2.7,3,4.6,3.7c0.5,0.2,1,0.3,1.5,0.3c0.3,0,0.6,0,0.9-0.1c0.2-0.1,0.4-0.1,0.7-0.1c0.4,0,0.8,0.3,1.5,1.3c1.7,2.6,4.6,2.4,5.9,3.6c1.3,1.3,2.2,3,2.4,4.8c0,1.3,1.6,2.6,3.5,4.4c1.8,1.7,1.2,1.9,1.8,3.3c0.2,0.5,0.7,0.8,1.2,0.7c0.2,0,0.4,0,0.5,0c0.2,0,0.4,0,0.5,0c0.4-0.1,0.8,0.1,1.1,0.5c0.7,1.1,2.3,2.5,3.8,4.4c0.2,0.3,0.3,0.6,0.4,0.9c0,1.1-1.5,2-1.6,4c0,0.6,0.1,1.1,0.3,1.6c0.6,1.7,0.8,2.1,1,2.1c0.1,0,0.1,0,0.2-0.1c0.1-0.1,0.1-0.1,0.2-0.1c0.1,0,0.3,0.1,0.6,0.5c0.3,0.4,0.5,0.9,0.5,1.4c0,0.5-0.1,0.9-0.1,1.5c0,0.4,0.1,0.8,0.3,1.2c0.4,0.8,0.7,1.8,0.7,2.7c0,0.5,0,1-0.1,1.6v0.2c0,1.4,0.6,1.9,2,3.5c0.5,0.5,0.7,0.8,0.7,1c0,0.5-0.8,0.5-1.3,1.7c-0.1,0.2-0.2,0.5-0.2,0.8c0,1,1.3,1,2.4,2c0.6,0.5,0.6,0.8,0.6,1.1v0.1c0,0.3,0,0.7,1.1,1.4c1.2,0.9,1.9,1.7,1.9,2.4c-0.1,0.5-0.4,0.9-0.8,1.1c-0.8,0.5-1,0.9-1,1.4c0.1,0.6,0.3,1.2,0.6,1.8c0.3,0.5,0.5,1.1,0.6,1.7c0,0.4-0.2,0.6-0.9,0.8c-1.4,0.3-0.7,2.7-1.8,4.7c-0.8,1.6-1.7,3.1-2.7,4.5c-0.8,1.6-1.4,3.3-1.8,5c0,0,0.5,8.8,0.5,10.1c0,1.3-3.4,1.1-3.4,2.1c0,0,0,0,0,0c0,0.2,0,0.5,0,0.8c-0.1,1.4-0.4,2.8-0.9,4.1c-0.1,0.3-0.2,0.6-0.2,1c0,1.7,2.2,2,2.6,3.8c0,0.1,0,0.2,0,0.4c0,1.4-2.6,0.6-2.6,2.9c0,0.2,0,0.4,0.1,0.6c0.3,2,1.6,3.6,3.5,4.4c0,0-0.1,0.7-0.1,1.5c0,0.7,0.1,1.4,0.2,2.1c0.3,1.4-0.1,1.6,1.3,2.9c0.5,0.5,1.2,0.8,1.9,0.8c0.2,0,0.4,0,0.6-0.1c0-0.3,0-0.7,0-1c0-0.3,0-0.5,0-0.8c0.3-1.2,2.4-0.4,3.3-1.8c1-1.4,3.4-2.1,5.6-3.2c1.2-0.6,4-0.8,6.3-0.8c1.8,0,3.2,0.1,3.2,0.1l-0.3,14.8c0.6,0.8,1.3,1.5,2.1,2.1c0.9,0.6,1.2,0.7,1.4,0.7c0.1,0,0.1-0.1,0.1-0.1l21.2-1.1c0.6,0.2,1.2,0.4,1.8,0.7c0.8,0.8,1.5,1.8,2.1,2.8c0,0.1,0.1,0.1,0.1,0.2c0.1,0.2,0.2,0.3,0.3,0.5c0-0.1,0-0.2,0-0.3l0-0.3c0-0.1,0.1-0.2,0.1-0.2c0.6-2.5,1.3-4.1,1.3-5.6c0-0.8-0.2-1.6-0.7-2.2c-1.4-2.4-4-1.8-5.6-3.7c-1.3-1.7-4.7-4.5-4.7-7.5c0-0.6,0.1-1.1,0.4-1.6c1.7-3.7,5.3-3.2,7.9-7.4c2.6-4.3,3.6-3.2,4.8-7c1.3-3.8,7.7-6.7,8.4-9.8c0.4-1.2,0.6-2.4,0.7-3.6c-0.1-1.5-0.7-2.9-1.7-3.9c-2.5-3-5.2-3.7-5.6-5.4c-0.1-0.3-0.1-0.6-0.1-0.9c0-1.8,0.9-4.4,2.9-7.4c2.5-3.4,0.6-4.3,2.6-7.5c2-3.2,1.5-1.3,4.8-5c2.5-2.9,4.9-5.2,5-8.3c0-1-0.2-2-0.7-2.9c-1.6-3.3-2.2-5.3-2.2-7.1c0-0.6,0.1-1.3,0.2-1.9c0.6-2.3,4.7-2.6,9.1-6c4.4-3.4,7.4-3.9,8.6-7.2c0.9-2.5,2.8-2.3,2.8-3.7c-0.1-0.9-0.5-1.7-1-2.4c-2.6-4.3-1.4-4.4-3.6-7.4c-2.1-2.9-3.3,0.5-5.6-3.7c-0.6-1-1-2.2-1.1-3.5c0-1.6,0.9-2.5,1.3-4.3c0.1-0.4,0.1-0.8,0.1-1.1c0-2.1-1.3-4-2.3-8.7c-0.3-1.4-0.5-2.8-0.5-4.2v-1c0-1.5-0.3-3-0.9-4.4c-0.3-0.7-0.4-1.4-0.5-2.2c0-1,0.4-1.3,0.4-1.8c0-0.6-0.5-1.4-2.3-3.4c-4.5-5.1-5.3-4.9-7-6.5c-1.6-1.6-3.9-2.1-7.4-3c-3.5-0.8-3.9-0.5-7.1-4.1c-3-3.4-7.4-5.7-7.4-7.9c0-0.1,0-0.2,0-0.3c0,0,0-0.1,0-0.1c0.5-2.3,1.4-6.1,4.6-7.5c0.5-0.2,1.1-0.3,1.7-0.4c1.2,0.1,2.4,0.6,3.3,1.4c0.6,0.5,1.2,1.1,1.7,1.7c0.9,1.4,2.3,2.5,3.9,3.2c0.2,0.1,0.4,0.1,0.6,0.2c0.6,0.2,1.3,0.4,1.9,0.6c0.7,0.2,1.4,0.3,2.2,0.3c1.3,0,2.6-0.2,3.9-0.6c1.1-0.3,2.2-0.5,3.3-0.6c0.3,0,0.7,0,1,0.1c0.4,0.1,0.8,0.2,1.2,0.2c2.2-0.2,4.3-0.9,6.1-2.1c1.4-0.9,1.7-7.4,3.6-8.5c1.9-1.1,6.6-2.1,7.2-4.4c0-0.2,0.1-0.3,0.1-0.5c0-1.9-2.8-2.5-3.7-6.4c-0.1-0.6-0.2-1.2-0.2-1.8c0-2.8,2-3.7,3.1-6.9c1.3-3.7,0.9-7.1,3.3-8.9c2.5-1.9,7.6-1.1,9.8-2.2c1.1-0.6,1.8-1.8,1.6-3c0-1.1-0.2-2.2-0.6-3.2c-0.1-0.3-0.1-0.6-0.2-0.9c0-0.7,0.4-1,0.4-2.3c0-1.3-0.2-2.6-0.6-3.8c-0.2-0.9-0.4-1.8-0.4-2.7c0-2.8,2-2.5,3.7-2.9c0,0,0,0,0.1,0l0.4-0.1c0,0,0.1,0,0.2,0c0.4-0.1,0.9-0.2,1.3-0.2c1.6,0,2.9,0.9,2.9,2.3c0,0,0,0.1,0,0.1v1c0,2.9,0.2,9.4,1.7,10.8c1.6,1.5,3.5,2.7,3.5,3.8c0,0.1,0,0.2,0,0.2v0.1c0,0.6,1.4,1.4,2.8,1.4c1.2,0.1,2.3-0.6,2.6-1.8c0.7-3.1,1.8-9.3,2.9-12.3c1.1-3,2.4-6.7,4.1-7.1c0.1,0,0.1,0,0.2,0c1.7,0,3.2,4.9,5.1,5.3c0.2,0,0.4,0.1,0.5,0c2.3,0,7.4-2.2,10-5.3c2.8-3.4,5-9,7.6-13.2c2.6-4.3,4.5-5.4,9.8-7c5.3-1.6,7-7.3,9.8-8.6c1.2-0.6,2.5-0.8,3.9-0.8c0.3,0,0.7,0,1,0c0.3,0,0.7,0,1,0c0.7,0,1.4-0.1,2.1-0.3c1.8-0.6,4.7-1.8,4.7-3.8C999.4,110.1,999.3,109.7,999.1,109.3z M675.7,151.4c0.1,0,0.1,0,0.2-0.1c0.1,0,0.1,0,0.2-0.1C675.9,151.3,675.8,151.4,675.7,151.4z M784.5,11.7c-0.1,0.3-0.2,0.6-0.2,0.9C784.4,12.3,784.5,12,784.5,11.7L784.5,11.7z"
          class="region central-region"></path>
    <path id="EasternShore" transform="translate(911.817 98.919)"
          d="M302.5,385.1l-101.4,2.8l-3.5-42.2l-2.1-25.1l-16.3-195L176,87.1l-4.1-48.7c-0.2,0-0.3,0-0.5,0c0.2,0,0.3,0,0.5,0L160.6-97.3c0,0-50.3,2.5-129.8,5.2c0.1,0.2,0.1,0.3,0.2,0.5l0,0c1.7,3.9,4.6,9.8,6.8,12.8c3.4,4.7,8.6,7.5,13,12.1s4.1,7.1,5.2,10.9s1.4,2.3,4.1,4.5c2.7,2.2,6.6,7.4,10.9,14.2c3.1,5.1,6.7,10.4,8.4,12.8c1.8-1,3.7-1.6,5.7-2c3.3-0.4,6.3-0.9,11.8-2.1c5.2-1.1,6.8-5.1,9.2-5.1c0.2,0,0.3,0,0.5,0.1c2.3,0.6,4.8,3.7,4.8,6.5c0,0.3,0,0.7-0.1,1c-0.7,3.1-5.7,6.8-6.8,9.8c-1.4,4.1-2.5,8.3-3.4,12.6c-0.2,0.9-0.3,1.8-0.3,2.7c0,3.6,2.1,5.2,2.1,6.9c0,0.2,0,0.3-0.1,0.5c0,0.2-0.1,0.3-0.1,0.5c0,1.7,2.8,1.1,5.2,3.6c0.4,0.3,0.6,0.8,0.6,1.3c0,2.3-4.8,4.8-6.7,7.4c-2.4,3.1-5.2,2.8-9.2,6.3c-1.7,1.4-2.1,2.1-2.1,2.5c0,0.5,0.7,0.8,0.7,1.7c0,0.2,0,0.5-0.1,0.7C91,30.9,91,31.2,91,31.4c0,1.9,2.5,1.6,3.3,2.9c0.8,1.2,6.3,3.9,6.8,5.6l0,0c0,0.1,0,0.2,0,0.3c0,0.1,0,0.2-0.1,0.3c0,0.1-0.1,0.2-0.2,0.3c-1.2,1.3-2.9,1.9-4.6,1.9c-0.8,0-1.5-0.1-2.3-0.3c-3.1-0.7-7.9-2.7-13.5-3.2c-0.7-0.1-1.3-0.1-1.9-0.1c-4.4,0-7.2,1.6-9.2,3.9c-2.3,2.7-3.2,5-7.3,8.5c-4.1,3.5-1.7,4-7,5.6c-5.2,1.6-6,3.1-6.3,4.2c0,0.1,0,0.1,0,0.2c0,0.9,1.8,0.9,1.8,4.2c0,0,0,0.1,0,0.1c0,3.6-0.1,10.9-5.6,13.3c-5.5,2.3-6.7,7.7-7.4,10.4c-0.6,2.7-3,11.1-3.6,13.7c-0.6,2.7-5.5,8-6.3,11.5c-0.8,3.5-2,8.5-2.5,10.8c0,0.2-0.1,0.3-0.1,0.5c0,1.8,2.5,2.3,2.5,4.4c0,0.1,0,0.1,0,0.2c0,0,0,0.1,0,0.1c0,2.3,6.6,3.9,6.6,6.2c0,0,0,0.1,0,0.1c0,0.1,0,0.1,0,0.2c0,2.5,3.5,9.2,3.7,11.7c0,0.3,0,0.6,0,1c-0.2,4.6-0.7,9.1-1.5,13.7c-0.5,2.4-0.7,4.8-0.8,7.2c0,2.2,0.5,4.3,1.3,6.3c0.8,1.9,1.5,2.5,2.1,2.5c1,0,2-1.6,3.1-2.1c0.4-0.1,0.8-0.2,1.1-0.2c0.5,0,0.9,0.1,1.4,0.1c0.4,0.1,0.9,0.1,1.3,0.1c0.8,0.1,1.5-0.4,1.7-1.2c0.1-0.2,0.1-0.4,0.1-0.7c0-1.8-1.9-2.5-1.9-5.5c0-2.6,1.1-3.6,1.1-6.3c0-0.8-0.1-1.6-0.3-2.4c-0.4-1.8-0.6-3.7-0.7-5.6c0-1.3,0.2-2.6,0.5-3.8c0.5-2.3,2.9-5.4,4.2-5.9c0.4-0.1,0.8-0.2,1.3-0.1c1,0,2.3,0.1,3.6,0.2s2.6,0.2,3.6,0.2c0.2,0,0.4,0,0.5,0c0.2,0,0.4,0,0.6-0.1h0c0.1,0,0.1,0,0.2,0c0.1,0,0.2,0,0.3,0c1.3,0.1,2.3,1.1,2.4,2.4c0,0.5-0.1,1-0.4,1.4c-1.3,2.1-2.2,4.3-3.7,6.8c-1.4,2.5-5,2.5-5.7,5.1c-0.4,1.9-0.6,3.8-0.5,5.7c0,2.2,0.2,4.2,0.9,5c1.1,1.4,2.9,4.2,2.9,6.2c0,0.2,0,0.4-0.1,0.6c-0.1,0.2-0.1,0.5-0.1,0.7c0,0.6,0.2,1.2,0.2,1.9c0,1-0.3,2.3-2.1,4.2c-2.3,2.8-5.1,5.1-8.2,7c-0.5,0.3-1,0.5-1.6,0.5c-2.7,0-5.2-3.7-6.5-4l-6.1-1.4c-3.4-0.8-6.4-0.3-7.8-1.4c-1.4-1.2-1.4-1.2-3.2-5.2c-1.9-4.1-3.2-10.5-4.3-12.8c-0.2-0.4-0.4-0.6-0.7-0.6c-1,0-2.2,3.3-3.6,4.9c-1.7,2.1-0.8,3.5-2.2,7.6c-1.3,4.1-2.9,8-4.8,11.8c-2.3,4.7-4,12-4.8,15.5c-0.8,3.5-2.4,10.4-2.6,12.8c-0.1,2.4,0,11.8-0.9,16c-0.8,3.5-2.3,7.2-2.3,9.3c0,0.4,0.1,0.8,0.2,1.2c0.1,0.1,0.1,0.2,0.2,0.2c0.5,0,1.6-2.1,2.9-4.2s3.1-4.2,5.1-4.2c0,0,0.1,0,0.1,0c0.2,0,0.4,0,0.6,0c3.8,0,4-1.9,6.5-4.4c0.6-0.6,0.9-1.4,0.9-2.2c0-1.9-1.4-4-1.4-6c0-0.4,0.1-0.8,0.2-1.2c1.1-3,1.7-3.7,3.4-4.1c0.1,0,0.2,0,0.3,0c0.6,0.1,1.2,0.3,1.7,0.6c0.5,0.4,1.1,0.6,1.8,0.6c0.8,0,1.5-0.4,1.9-1.1c2.3-2.8,1.4-9.4,4-12c1.3-1.4,3.1-2.3,5-2.5h0.1c-0.2,1.2-0.3,2.5-0.3,3.7c-0.1,1.1,0.1,2.3,0.7,3.3c1,1.2,3.6,3.7,4.9,3.7c0.4,0,0.7-0.2,0.8-0.7c0.1-0.3,0.1-0.7,0.1-1c0-1-0.2-2.2-0.2-3.3c0-1.8,0.4-3.4,2.5-4c1.2-0.3,2.3-0.5,3.6-0.6c1.4,0.1,2.8,0.3,4.1,0.7c0.8,0.2,1,0.9,1,1.9c0,1.4-0.4,3.3-0.4,5c0,0.6,0.1,1.2,0.2,1.8c0.2,1,0.3,2.1,0.3,3.2c0,0.5,0,1,0,1.5c0,2.8,0.2,5.9,2.5,7.7c2,1.4,3.1,3.7,3.1,6.1c0,0.3,0,0.5,0,0.8c-0.1,0.8-0.2,1.5-0.4,2.3c-0.5,2-1.5,1.9-1.5,3.6c0,0.9,0.2,1.8,0.5,2.7c0.7,2.5,1.3,4.4,1.3,5.8c0,1.3-0.7,2.4-1.8,3c-1.5,1-3.2,1.5-4.9,1.5c-0.5,0-1-0.1-1.5-0.2c-1.2-0.3-1.7-1.6-4.2-4.6c-2.6-3-4.2-4.6-5.7-7.1c-1.2-1.9-3.9-4.8-5.7-4.8c-0.4,0-0.7,0.1-1,0.4c-1.6,1.7-2.4,3.5-3.2,6.9c-0.8,3.5-2.7,3-5.5,6c-2.7,3-3,4.2-3.4,5.7c-0.1,0.3-0.1,0.5-0.1,0.8c0,0.6,0.1,1.3,0.1,2c0.1,1.7-0.5,3.3-1.7,4.5c-2.6,2.6-2.1,3.6-3.6,6.9c-1.6,3.3-3.1,4.5-3.7,6.9c-0.1,0.4-0.1,0.8-0.1,1.3c0,1.4,0.5,2.9,0.5,4.9c0,0.5,0,1-0.1,1.6c0,0.3-0.1,0.6-0.1,0.9c0,2.3,1.3,3.4,1.3,5.3c0,0.6-0.1,1.2-0.3,1.7c-1.1,3.4-0.9,5.8-1.1,8.3c0,0.3,0,0.5,0,0.8c0,1.8,0.7,2.6,5.1,3.6c0.8,0.2,1.6,0.3,2.4,0.3c2.9,0,4.4-1.7,4.4-4c0-0.3,0-0.5-0.1-0.8c-0.4-3.4-1.8-4.5-2.7-9.2c-0.1-0.6-0.2-1.1-0.2-1.7c0-3.1,2.2-3.4,2.7-5.4c0.1-0.6,0.4-0.8,0.6-0.8c0.9,0,2.4,2.2,3.6,3.4c1.7,1.6,2.6,4.3,4.6,4.7c0.1,0,0.1,0,0.2,0c1.9,0,3.9-5.2,4.6-6.6c0.6-1.2,2.5-1.8,3.8-1.8c0.2,0,0.5,0,0.7,0.1c1.1,0.3,3.4,8.1,4.9,10.1c1.5,2,0.3,0.5,4.9,5.2c4.6,4.7,1,4.3,7.9,5.9c7,1.6,3.5-0.8,6.5,3.6c3,4.4,2.7,3.9,3.7,6.5c0.4,1,0.7,2,0.8,3.1c0,1-0.5,1.8-1.8,2.8c0,0-0.1,0.1-0.1,0.1c0.2,0.1,0.4,0.2,0.5,0.3l0.1,0l0.1,0c-0.2-0.1-0.5-0.2-0.7-0.3c-2.4,1.7-3.5,1.1-6.8,3.5c-3.4,2.4-2.2,4.3-5.6,4.7c-1.5,0.3-3.1,0.6-4.7,0.7c-1,0.1-1.9-0.4-2.5-1.1c-1.5-2,0.1-4.1-2-5.4c-0.4-0.2-0.8-0.4-1.3-0.4c-1.7,0-3.4,1.7-6.5,2.6c-3.9,1.1-6.9,3.6-7.4,5.5c0,0.2-0.1,0.3-0.1,0.5c0,1.3,1.3,2,1.3,3.9c0,0.4,0,0.8-0.1,1.2c-0.7,3.1-2.2,2.3-4.5,3.4c-1,0.5-1.7,1.6-1.6,2.7c0.1,1.5,0.6,3,1.5,4.1c1.8,2.4,5.1,4,5.1,5.9c0,0,0,0.1,0,0.1c0,1.8,0,2,0,2l0,0l0,0l0,0c0.2,2.4,1.6,2,5.1,2.4c0.4,0,0.9,0.1,1.3,0.1c0.5,0,1.1,0,1.6-0.1c0.5,0,0.8-0.1,1.2-0.1c0.7,0,1.4,0.4,1.7,1.1c0.3,0.4,0.5,0.9,0.5,1.4c0,1.1-0.9,2.1-1.5,4.9c-0.9,3.9-3.6,4.9-7.3,5.2c-3,0.3-5.1,1.3-7.4,1.3c-0.6,0-1.2-0.1-1.7-0.2c-0.4-0.1-0.8-0.1-1.3-0.1c-2.3,0-3.8,1.6-5.7,2.2c-2.1,0.7-2.4-0.2-3.3,2c-0.1,0.3-0.2,0.6-0.2,0.9c0,1.9,2.2,3.9,5.2,8.8c3.5,5.7,4.2,6.2,7.5,12.7c3.3,6.5,1.9,3.7,3.8,9.4c1.9,5.7,0.8,5.4,1.4,7.6c0.7,2.2,3.9,6.2,8.9,7.3c2.3,0.5,3,0.6,3,0.9c0,0.3-1,1-1.5,3.1c-0.9,3.8-2.9,2.2-3.4,4.1c-0.2,0.9-0.4,1.8-0.4,2.7c0.1,1.7,0.6,3.4,1.4,4.9c2,3.7,2.3,4.2,4.1,5c1.8,0.8,7.6,2.2,9,2.9c1.4,0.8,1.5,2.4,3.4,7.7c1.6,4.3,3.6,8.5,6,12.4c2.1,3.3,3.8,2.9,5.8,4.6c2,1.6,2.2,4.4,6.3,4.4c0.1,0,0.3,0,0.4,0c4.4-0.1,4.1-2.2,4.5-3.8c0-0.1,0-0.2,0-0.3c0-1.5-3.1-2.9-6.3-4.1c-3.4-1.2-5.3-3.2-7-6.5c-0.8-1.3-1.3-2.7-1.4-4.2c0-0.1,0-0.1,0-0.2c0.1-1.6,1.4-2.8,3-2.8c0,0,0.1,0,0.1,0c0.5,0,1.1,0.1,1.6,0.2c4.6,1.1,6,0.2,9.1,0.9c0.2,0.1,0.4,0.1,0.7,0.1c0.9,0,1-0.6,1.1-1.3s0.2-1.3,1.2-1.3c0.3,0,0.6,0,0.8,0.1c3.4,0.8,2.5,4.6,2.9,8.4c0.3,3.7,0.2,2.5,6,5.5c3,1.5,3.5,2.7,3.5,3.7c0,0.5-0.1,0.9-0.1,1.3c0,0.4,0.2,0.8,0.5,1.1c1.6,1.6,3.2,5.3,6.3,6c0.6,0.1,1.2,0.2,1.8,0.2c1.9,0,2.9-1.1,3.5-3.5c0.1-0.5,0.2-1,0.2-1.5c0-1.8-1.1-2.3-1.4-3.7c-0.1-0.3-0.1-0.6-0.1-1c0-1.5,0.8-3.3,1.8-6.3c0.3-0.9,0.4-1.7,0.4-2.6c-0.2-3.6-1.2-7-3.1-10.1c-1.4-2.2-2.6-4.6-3.6-7c-0.1-0.2-0.1-0.4-0.1-0.6c0-1.4,1.2-3.4,2.6-4.9c1.6-1.6,2.8-1.4,5.2-3.2c2.5-1.9,1.5-4.9,2.6-9.5c1.1-4.6,0.9-3.9,4.9-4.9c0.5-0.2,1-0.3,1.6-0.3c1.8,0,1.1,2.2,3.7,6.8c3.2,5.6,3,4.4,4.8,7.2c0.4,0.5,0.6,1.1,0.7,1.7c0,1.1-1.5,1.4-2.3,3.6c-0.6,1.4-2,1.8-3.5,1.8c-0.8,0-1.5-0.1-2.3-0.2c-0.6-0.1-1.2-0.2-1.8-0.2h0c-1.7,0-3.4,2.1-4.6,4.2c-0.3,0.3-0.4,0.7-0.5,1.2c0,1,1.5,1.4,3.7,4.1c2.8,3.5,2.6,6.3,5.2,10.5c2.7,4.3,2.3,3.8,3.1,7.2c0.8,3.3,2.6,5.3,4.9,5.3c0.1,0,0.2,0,0.4,0c2.5-0.2,0.9-1.8,3-2.5c0.5-0.2,0.7-0.4,0.7-0.8c0-1.2-2-3.2-2-5.3c0-0.1,0-0.2,0-0.3c0.2-2.8-0.3-2.5,2.5-5.5c1.3-1.4,1.7-2,2.2-2c0.3,0,0.6,0.3,1.2,0.6l0,0c0.2,0.1,0.3,0.2,0.5,0.3c0.1-0.2,0.1-0.4,0.2-0.6l0,0l-0.2,0.6c0.3,0.2,0.6,0.4,1,0.5c3.3,1.5,4,3.7,6.2,8.3c0.5,0.9,0.7,1.8,0.7,2.8c-0.1,0.7-0.2,1.3-0.3,1.9c0,0.4,0.4,0.7,1.8,1.1c0.3,0.1,0.6,0.1,0.9,0.1c1.2,0,1.6-0.9,2.1-1.8c0.4-1.1,1.5-1.8,2.7-1.8c0.3,0,0.6,0,0.8,0.1c0.5,0.1,0.9,0.1,1.3,0.2c0.2,0,0.4,0.1,0.5,0.1l0.1,0c2.3,0.5,1.7,0.9,2.6,2.8c1.1,2.2,1.9,2.1,3.7,4.9c0.7,1.1,1,1.6,1,2.1c0,0.8-0.8,1.4-2.5,4c-0.5,1-1.5,1.7-2.6,1.7c-2.1,0-4.5-2.3-7-2.4h0c-3.6,0-6.5,3.8-11.2,6.3c-1.5,0.8-3.2,1.2-4.9,1.1c-0.4,0-0.9,0-1.3,0s-0.8,0-1.1,0h0c-1.3,0-2.3,0.2-2.6,1.5c-0.1,0.2-0.1,0.5-0.1,0.7c0,1.9,2.1,2.1,2.1,5.1c0,0.7-0.1,1.5-0.3,2.2c-0.5,1.9-0.8,3.9-0.9,5.9c0,2.1,0.3,4.2,0.8,6.3c1.4,6,0,4.9,2,5.4c0.1,0,0.3,0.1,0.4,0.1c1.7,0,2.9-2.3,7-4c4.5-1.8,0.9-3.8,5.4-4c3.9,0,7.8-0.3,11.6-0.9c3-0.6,4.7-2,7.6-2c0.8,0,1.7,0.1,2.5,0.3c1.2,0.3,1.6,0.8,1.6,1.5c0,2-4.1,5.4-6.2,7.6c-2.7,3-2.5,1.9-3,4.2c-0.5,2.3-2.7,2.6-5.6,6.4c-0.8,0.8-1.2,1.8-1.4,2.9c0,1.2,0.9,2,0.9,3.8c0,0.2,0,0.3,0,0.5c0,0.3-0.1,0.6-0.1,0.9c0,1.5,0.6,1.7,2.6,1.7c0.4,0,0.8,0,1.3,0s1,0,1.6,0h0.5c0.1,0,0.2,0,0.3,0c1,0.1,2-0.1,2.9-0.4c0.4-0.2,0.5-0.4,0.8-0.4c0.6,0.1,1.2,0.2,1.7,0.5c1.6,0.6,2.2,0.7,2.2,1c0,0.4-0.7,1.1-1.6,3.2c-1.8,4.1-4.1,3.5-6.7,4.5c-2.7,1-2.4,3.1-3.8,4c-1.4,0.9-3.2-0.4-3.9,2.7c-0.7,3.1-2.1,8.8-3.2,15.5c-0.2,0.9-0.2,1.8-0.3,2.7c0,3.2,1.4,3.6,1.4,5.7c0,0.5-0.1,1-0.2,1.6c-0.8,2.8-1.2,5.7-1.2,8.6c0,1.8,0.1,3.6,0.3,5.4c0.4,4,1.3,4.9,2.3,4.9c0.8,0,1.6-0.5,2.3-0.5c1.6,0,1.4-2.5,9.4-7.1c7.9-4.6,5.6-4.8,9.4-7.5c3.9-2.7,4.7-2.6,11.6-6.2c2.1-1.1,3.2-1.5,3.8-1.5c0.7,0,0.9,0.4,1.6,0.8c1.2,0.6,2.5,0.9,3.8,0.8c0.4,0,0.8,0,1.3,0c7.8-0.5,2.4-2.2,7.1-2.2c0.2,0,0.5,0,0.8,0c6,0.2,1.9,0.4,7.7,1.8c5.7,1.4,4.9,0,6.5,3.2c0.3,0.5,0.6,1,0.7,1.6c0,0.3-0.5,0.1-1.1,0.9l0.5,0.1c0,0,0,0,0.1,0c2.3,0.3,4.8,0.6,6.3,1c0.3,0.1,0.5,0.1,0.8,0.1c1,0,1.2-0.7,1.2-1.7c0-0.6-0.1-1.4-0.1-2.2c0-0.9,0.1-1.7,0.4-2.6c0.9-2.4,1.5-3,1.5-4.4c0-0.8-0.1-1.6-0.4-2.3c-0.1-0.3-0.1-0.6-0.1-1c0-3.3,3.2-7.2,3.2-7.2l0.6-0.1l0.5-0.1l107.5-13c0.3-0.9,0.7-1.8,1-2.8c2.4-7.1,7.7-5.1,10.1-10.2c2.4-5.1,3.1-4.5,4.6-11.1s3.4-8.9,4.4-11.9c1.2-3,1.8-5.7,3.3-12.2c1.2-5.8,3-11.5,5.2-17c3.1-8.2,6.4-16.7,7.5-26.6c0.7-6,1.8-12,3.4-17.9c0.7-3.1,0.8-1.5,4.2-5.9c3.5-4.4,4.5-7,5.9-9.5c1.4-2.5,3.9-11.3,5.3-17.4c0.2-1,0.4-2.1,0.4-3.2c0-3-1-5.5-1-9c0-1.6,0.2-3.3,0.6-4.8c0.4-1.5,0.6-2.8,0.9-4v0c0-0.2,0.1-0.4,0.1-0.6L302.5,385.1z M120.9,552.6c0-1.1-0.9-1-2.5-2.4c-2.8-2.3-0.9-3-6.7-4.4c-2.6-0.6-3.3-1.1-3.8-1.1c-0.6,0-1,0.7-4.4,2.8c-5.8,3.6-6.6,5.9-6.6,7.1c0,0.1,0,0.1,0,0.2c0.1,1.3,0.4,3.3,0.6,6.2c0,0.4,0,0.7,0,1.1c0,0.7,0,1.3,0,1.8c0,1.5,0.2,3.1,0.6,4.6c0.9,3,2.6,4.7,2.6,6.3c0.1,1.5,2.3,6.1,2.3,7.8c0,0.2,0,0.3-0.1,0.5c-0.3,0.5-0.5,1.1-0.5,1.7c0,2.3,2.2,4.5,2.2,6.3c0,0.1,0,0.3-0.1,0.4c0,0.2-0.1,0.3-0.1,0.5c0,0.6,0.4,1.1,1,1.1c0.1,0,0.1,0,0.2,0c1,0,2.4-0.8,3.2-2.6c0.5-1,0.8-1.2,1.3-1.2c0.2,0,0.3,0,0.4,0c0.2,0,0.3,0,0.5,0c0.9,0,2-0.5,3.9-4.4c3.8-7.6,3.8-7.6,5.4-14.1c0.2-0.8,0.3-1.6,0.3-2.5c0-3.2-1.9-4.6-1.9-7.6c0-1.2,0.3-2.4,0.7-3.5C120.5,554.6,120.9,553.3,120.9,552.6z M106.7,534.9c0.4,0,0.9,0,1.4-0.1c2.2-0.2,4.6,0.5,4.6-2.6c0-0.7-0.1-1.4-0.2-2.1c-0.9-4.5-2.4-5.4-2.4-8.7c0-0.9,0.1-1.8,0.3-2.8c0.1-0.7,0.2-1.5,0.2-2.3c0-3.9-2.2-5-3.9-9.6c-0.1-0.3-0.2-0.5-0.3-0.7c-1.5-4.1-0.1-0.2-1.5-9c-1.5-9.3,0.4-5.2-4.6-8.4c-3.7-2.4-5.5-3.4-7.6-3.4c-0.7,0-1.5,0.1-2.2,0.3c-3.4,0.8-4.2,3.9-5,7.4c-0.4,1.7-0.5,3.5-0.5,5.3c0,2.2,0.1,4.8,0.1,8.4c0,0.2,0,0.3,0,0.5c0,5.8,0.4,5.9,0.4,8.8c0,0.3,0,0.6,0,1c0,0.1,0,0.2,0,0.3c0,2.9,1.8,5.1,3.6,5.1c0.7,0,1.3-0.3,1.8-0.8c1.9-2,4.3-3.6,6.9-4.7c0.2-0.1,0.3-0.1,0.5-0.1c0.1,0,0.2,0,0.2,0c0.1,0,0.3,0,0.4,0c0.1,0,0.3,0,0.4,0c0.8,0.2,1.1,0.9,1.1,1.9c-0.1,1.8-0.8,3.4-1.8,4.9c-1.8,2.4-3,7.4-3,7.4v0c0,0.4,0.3,3.2,8,3.9C104.7,534.8,105.7,534.9,106.7,534.9z"
          class="region eastern-shore"></path>
    <a><path id="WesternRegion-Gray" d="M581,13.4c-27.3,0-54.9-0.1-82.4-0.4c-58-0.6-112.8-1.2-163.2-1.6c-61.6-0.5-116.7-1-163.4-1.3C69.1,9.4,7.3,9.2,7.3,9.2L1.5,208.6c0.1,0.6,0.7,0.9,1.5,0.9c2.8-0.3,5.4-1.9,6.9-4.2c2.6-3.9,8-6.2,10.9-10c2.9-3.8,5.7-7.2,10.8-9.6c5-2.5,1.5-2.9,5.7-6.8c4.2-3.9,3.8-0.7,7.5-4.3c3.7-3.6,0.9-5.5,5.5-6c0.3,0,0.5,0,0.8,0c1,0,2.1,0.3,3,0.7c0.8,0.4,1.6,0.7,2.5,0.7c1,0,2.2-0.4,4.1-1.8c2.5-1.9,2.9-2.6,2.9-3.2c0-0.3-0.1-0.5-0.1-0.9c0.1-1.1,0.5-2.2,1.2-3c3.1-4.5,1.6-4.9,5.5-7.6c3.9-2.8,2-4.8,6.4-6.6c0.9-0.4,1.9-0.6,2.9-0.6c0.6,0,1.1,0,1.7,0.1c0.5,0.1,1,0.1,1.5,0.1c1.1,0,2.1-0.4,3-2c2.1-3.9,2.6-5.9,7.1-7.7c4.1-1.7,4.6-6.9,8-6.9c0.3,0,0.6,0,0.9,0.1c0.3,0.1,0.7,0.1,1,0.1c3.3,0,3.8-4.5,5.2-6c1.6-1.7,2-3.2,4.1-5.5c2-1.8,3.2-4.2,3.7-6.9c0.8-3.4,2-4.8,5.8-7.5c1.1-0.8,2.4-1.2,3.8-1.2c0.3,0,0.5,0,0.8,0c0.2,0,0.3,0,0.5,0.1h0c1.9,0.3,3.8,1,5.7,1c0.2,0,0.4,0,0.6,0c0.2,0,0.4,0,0.5,0c3,0,0.7,2.8,5.3,4.3c4.9,1.6,3.7,1.3,6.2,3.1c1.7,1.4,3.7,2.5,5.7,3.4c2.6,1.3,4.1,4.1,5.2,4.1c0.3,0,0.6-0.2,0.8-0.6c1.6-2.5,3-5.2,3.9-8c2-5.2,3.5-4.5,6.1-8.7c2.6-4.2,6.3-2.6,8.9-8.4c2.6-5.9,0.9-5.5,3.8-7.2c2.8-1.8,4.5-0.2,5.9-4.7c1.5-4.5,0-5.3,3.1-8.2c0.6-0.7,1.5-1.1,2.4-1.2c0.4,0,0.7,0.1,1.1,0.2c0.3,0.1,0.6,0.2,0.9,0.2c0.5,0,0.9-0.3,1.2-0.7c1.7-2.1,1.3-3.8,2.9-7c1.6-3.3-0.1-2.9,4.6-9c4.7-6.2,5.8-10.8,8.1-11.9c0.2-0.1,0.4-0.2,0.6-0.2c0.1,0,0.2,0.1,0.2,0.2c-0.3,0.9-0.5,1.8-0.7,2.7c0,0.9,0.5,1.7,1.3,2.1c1.4,0.9,1.6,2.6,1.6,4.4c0,0.5,0,1.1,0,1.6c0,1.7,0.1,3.3,1.3,4c2.8,1.9,4.2,7.9,8.4,9.3c4.1,1.4,5.5,4.1,7.4,6.6c1.9,2.4,3.7,3.6,7.8,4.6c3.6,0.9,6.3,3.3,9.4,3.3c0.6,0,1.1-0.1,1.7-0.2c2.7-0.8,5.5-1.2,8.4-1.3c0.8,0,1.6,0.1,2.4,0.2c0.4,0.1,0.7,0.1,1.1,0.1c0.5,0,1.1-0.1,1.6-0.1c0.5-0.1,1-0.1,1.5-0.1c1.3,0,2.6,0.7,3.2,1.9c2,3.3,4,6.6,6.4,7.2c0.2,0.1,0.5,0.1,0.7,0.1c1.7,0,2.1-1.7,5.6-2.6c1.4-0.4,2.9-0.7,4.4-0.7c2.3,0,4.8,0.6,8.8,1.7c1.5,0.5,3,0.8,4.6,0.9c2.3,0,3-1.2,4.8-2.7c2.6-2.2,1.2-5,5.8-5.5c0.8-0.1,1.5-0.1,2.3-0.1c0.3,0,0.5,0,0.8,0c0.2,0,0.4,0,0.6,0c0.9,0,1.4-0.1,1.4-0.7c-0.1-0.8-0.4-1.6-0.8-2.3c-1.9-4.1-0.5-1.3-4.2-4.6c-2.5-2.3-5.2-5.1-5.2-7.1c0-0.9,0.6-1.7,2.1-2.1c0.7-0.2,1.5-0.3,2.2-0.3c1.4,0,2.8,0.2,4.1,0.4c1.2,0.2,2.5,0.4,3.7,0.4c1.6,0,2.7-0.5,2.9-2c0.1-0.4,0.1-0.8,0.1-1.2c0-2.8-2-1.6-2.5-4.2c-0.5-2.9-2.7-1.9-2.7-3.8V53c0.1-2,0.3-2.8,5.2-3.2c0.4,0,0.9-0.1,1.3-0.1c1.1,0,2.1,0.1,3.2,0.2c1,0.1,2,0.2,3,0.2c2,0.1,3.9-0.8,5.2-2.3c2.7-3.2,4.6-4.1,7-4.1c0.1,0,0.3,0,0.4,0h0.1c0.2,0,0.3,0,0.5,0c0.3,0,0.7,0.1,1,0.1c3.5,0.4,4.5,1.5,9,2.9c3.6,1.2,5.1,3.7,6.8,3.7c0.5,0,1-0.2,1.4-0.5c2.1-1.4,4.1-3,6-4.7c2.1-1.9,3.7-3.6,5.4-9.3c1.5-4.6,1.6-6.3,3.5-6.3c0.5,0,1.1,0.1,1.6,0.2c0.5,0.1,0.9,0.2,1.4,0.2c1.2,0.1,2.4-0.5,3-1.6c0,0,1.3-5.4,4.1-5.5c1.5,0,3.4-0.3,5.8-0.3c2.6,0,5.3,0.4,7.8,1.1c6,1.8,10.4,5.7,17.2,6.1c6.8,0.4,2.4,5,7,6.5c4.5,1.5,0.2,7.8,4.6,9.6c4.4,1.9,7,10.1,10.4,11.4c0.6,0.2,1.2,0.3,1.9,0.3c1.1-0.1,2.1-0.3,3.2-0.6c1.3-0.4,2.7-0.6,4.1-0.6c0.4,0,0.7,0,1.1,0c3.5,0.3,3.7,1.1,5.1,1.1c1.1-0.1,2.3-0.3,3.3-0.7c4-1.2,2.6-3.3,3.9-3.3c0.8,0.1,1.6,0.3,2.4,0.7c3.3,1.3,5.3,2.3,7,2.3c1.1,0,2.1-0.4,2.9-1.2c0.9-1,2.3-1.7,3.7-1.7c1.5,0.1,3.1,0.4,4.6,0.8c4.6,1.1,3.4,7.7,5.4,8.2c0.9,0.2,1.1,1.2,1.1,2.3c-0.1,1.5-0.3,2.9-0.7,4.3c-0.2,0.8-1.3,1-2.6,1c-0.5,0-1,0-1.5,0c-0.5,0-1,0-1.6,0c-0.9,0-1.8,0.1-2.7,0.4c-2.4,0.9-7.4,2.4-7.4,3.8c0,0.2,0.1,0.4,0.3,0.6c2.9,2.4,5.4,5.3,7.3,8.6c1.1,2.1,2.2,2.5,3.3,2.5c0.5,0,0.9-0.1,1.4-0.2c0.4-0.1,0.9-0.1,1.4-0.2c0.5,0,1,0.1,1.5,0.4c0.7,0.3,1.2,1.1,1.2,1.9c0,0.9-0.3,1.9-0.3,3.2c0,0.7,0.1,1.4,0.3,2.1c1.2,3.5-1.5,4.5,5.1,5.7c0.6,0.1,1.2,0.2,1.8,0.2c1.5,0.1,2.9-0.5,4-1.5c0.9-0.8,1.5-1.5,2.6-1.5c0.4,0,0.8,0.1,1.1,0.2c1.7,0.6,2.7,2.3,2.5,4c0,1.4-0.4,2.8-1.1,4c-1,1.2-3.5,2.3-3.5,4.3c0,0.3,0.1,0.7,0.2,1c0.2,0.6,0.3,1.3,0.3,2c0,2.4-0.9,5.3-0.9,7.2c0,0.1,0,0.3,0,0.4c0,0.2,0,0.5,0,0.7c0,0.2,0,0.3,0,0.4c0,0.7,0.3,0.2,3.9,2.6c4.9,3.2,6.8,2,7.1,4.1c0.4,2.1,2.1,3.3,2.9,5.1c0.6,1.5,1,3.1,1,4.7c0,0.9-0.1,1.9-0.3,2.8c-0.6,2.5-2.2,2.4-2.2,4.9c0,0.7,0.1,1.3,0.2,2c0.6,3.1,1.7,3.3,1.7,4c0,0.3-0.3,0.8-1.1,1.8c-1.8,2.3-4.1,4-4.1,5.3c0,0.4,0.3,0.8,0.9,1.2c1.5,0.9,5.7,3.5,8.8,5.5c0.1,0,0.2,0,0.4,0h0.1c0.9,0.1,1.4,0.2,1.7,0.2c0.8,0,0.5-0.4,3.2-1.8c1.8-1,3.8-1.4,5.8-1.4c0.8,0,1.7,0.1,2.6,0.1l0,0l0.6,0c0-0.3,0-0.6,0-0.9c0-0.9,0.1-1.9,0.2-2.8c0.4-1.8,6.3-11.7,7.2-15.4c0.9-3.7,2.5-7.8,3.1-10.2c0.1-0.5,0.2-1.1,0.2-1.6c0-1.7-0.4-3.8-0.4-5.8c0-0.8,0.1-1.5,0.2-2.3c0.7-3.1,2.2-2.7,3.1-6.4c0.9-3.7-0.4-4,1.5-5.1c1.3-0.9,2-2.4,2-4c0.1-0.8-0.3-1.6-0.8-2.2c-0.6-0.3-0.9-0.9-1-1.6c0-0.7,0.5-1.4,1.3-2.5c0.7-0.9,1.1-1.5,1.1-2c0-0.6-0.4-1.2-1.3-2.2c-0.8-0.9-1.1-1.4-1.1-2c0-0.7,0.5-1.5,1-3.2c1-3,0.1-5.8,3-8.6c2.7-2.6,3.9-4.7,3.9-7.3c0-0.3,0-0.5,0-0.8c0-0.2,0-0.4,0-0.6c0-2.8,1.8-5.6,2.2-7.3c0.2-1.6,0.7-3.1,1.4-4.5c1.3-2.6,0-6.8,1.5-9c1.5-2.2,3.6-1.7,5.8-4.1c1.9-2.1,3.2-3.4,4.5-3.4c0.2,0,0.3,0,0.5,0.1c0.5,0.1,1,0.2,1.5,0.2c1,0,1.9-0.5,2.6-2.5c1-3,3.6-1.7,3.9-4.2c0.3-2.5,0.8-4.7,3-5.7c1.3-0.6,2.2-1.9,2.2-3.3c0-0.9-0.5-1.8-1.2-2.2c-2-1.3-3-1.4-3.2-1.4h0c0.5-1.3,1.5-2.5,2.7-3.2c1.8-0.9,2.7-0.6,3.5-4c0.6-2.4,3-2.9,4.4-5.3l0-0.1c0.1-0.2,0.2-0.4,0.3-0.5C585.4,13.4,583.2,13.4,581,13.4z M336.9,13.4c0,0.1,0.1,0.1,0.1,0.2C337,13.5,337,13.4,336.9,13.4L336.9,13.4z M336.1,12.3l-0.2-0.2C336,12.1,336,12.2,336.1,12.3L336.1,12.3z M336.6,13l-0.2-0.2C336.5,12.8,336.6,12.9,336.6,13L336.6,13z" class="region region-gray western-region"></path></a>
    <a><path id="CapitalRegion-Gray" d="M824,449.8c0-0.8,0-1.6-0.1-2.4c-0.1-0.9-0.2-1.8-0.2-2.8c0-1.7,0.2-2.7,0.2-3.8c0-0.4,0-0.8-0.1-1.2c-0.1-0.4-0.1-0.8-0.1-1.2c0-1.2,0.2-2.7,0.2-4.2c0.1-1.3-0.2-2.6-0.8-3.8c-1.6-2.6-4.1-8.7-4.1-12.2c0-0.1,0-0.2,0-0.3c0.1-2,0.4-3.7,0.4-4.9c0.1-0.7-0.2-1.5-0.8-2c-1.3-0.9-2.3-5.5-2.3-7.6c0-0.1,0-0.2,0-0.3c0-0.1,0-0.2,0-0.3c0-1.7-1.1-2.9-1.1-4.6c0-0.1,0-0.2,0-0.3c0-0.2,0-0.4,0-0.6c-0.1-1.3-0.4-2.6-0.9-3.8c-0.1-0.2-0.1-0.4-0.1-0.6c0-1.6,1.5-3.4,1.5-5.3c0-0.1,0-0.1,0-0.2c0-0.1,0-0.1,0-0.2c0-2.1,1.5-2,2.3-2.8c0.3-0.5,0.5-1.1,0.4-1.7c0-0.6-0.1-1.3-0.1-2c-0.2,0-0.4,0.1-0.6,0.1c-0.7,0-1.4-0.3-1.9-0.8c-1.3-1.3-0.9-1.5-1.3-2.9c-0.1-0.7-0.2-1.4-0.2-2.1c0-0.8,0.1-1.5,0.1-1.5c-1.9-0.7-3.2-2.4-3.5-4.4c0-0.2,0-0.4,0-0.6c0-2.4,2.6-1.5,2.6-3c0-0.1,0-0.2,0-0.4c-0.4-1.8-2.6-2-2.6-3.8c0-0.3,0.1-0.7,0.2-1c0.5-1.3,0.8-2.7,0.9-4.1c0-0.3,0-0.6,0-0.8c0,0,0,0,0,0c0-0.9,3.4-0.8,3.4-2.1c0-1.3-0.5-10.1-0.5-10.1c0.4-1.8,1-3.5,1.8-5c1-1.5,1.9-3,2.7-4.5c1.1-2,0.4-4.4,1.8-4.7c0.7-0.2,0.9-0.4,0.9-0.8c-0.1-0.6-0.3-1.2-0.6-1.7c-0.3-0.5-0.5-1.2-0.6-1.8c0-0.5,0.3-0.9,1-1.4c0.6-0.4,0.8-0.7,0.8-1.1c0-0.7-0.7-1.5-1.9-2.3c-1-0.7-1-1.1-1-1.4v-0.1c0-0.3,0-0.6-0.6-1.1c-1.1-1.1-2.4-1.1-2.4-2c0-0.3,0.1-0.5,0.2-0.7c0.5-1.2,1.3-1.3,1.3-1.7c0-0.2-0.2-0.5-0.7-1c-1.5-1.6-2-2.1-2-3.5c0-0.1,0-0.1,0-0.2c0-0.6,0.1-1.1,0.1-1.6c0-1-0.2-1.9-0.7-2.7c-0.2-0.4-0.3-0.8-0.3-1.2c0-0.5,0.2-1,0.2-1.5c0-0.5-0.2-1-0.5-1.4c-0.3-0.4-0.5-0.5-0.6-0.5c-0.1,0-0.2,0-0.2,0.1c0,0-0.1,0.1-0.2,0.1c-0.2,0-0.4-0.4-1-2.1c-0.2-0.5-0.3-1.1-0.3-1.6c0-2,1.5-2.9,1.6-4c0-0.3-0.1-0.7-0.4-0.9c-1.5-2-3.1-3.3-3.8-4.4c-0.2-0.3-0.6-0.5-1-0.5c-0.2,0-0.3,0-0.5,0s-0.4,0-0.5,0c-0.5,0.1-1-0.2-1.2-0.7c-0.6-1.4,0.1-1.6-1.8-3.3c-1.9-1.7-3.5-3.1-3.5-4.4c-0.3-1.8-1.1-3.5-2.4-4.8c-1.3-1.3-4.3-1-5.9-3.6c-0.7-1.1-1-1.3-1.5-1.3c-0.2,0-0.4,0.1-0.6,0.1c-0.3,0.1-0.6,0.1-0.9,0.1c-0.5,0-1-0.1-1.5-0.3c-1.9-0.7-3.5-2-4.6-3.7c-1.6-1.2-3.3-2.3-5.1-3.1c-2.9-1.3-3.8-1.5-4.8-2.8c-0.2-0.3-0.3-0.4-0.3-0.6c0-0.4,1-0.5,1-3.3v-0.2c0,0,0-0.1,0-0.1c0-2.5,1-3.5,1.7-3.9l0.1,0c0.2-0.1,0.4-0.2,0.6-0.2l-1.6-1.3c0,0,0,0,0,0c-0.1,0-0.8-0.1-1.4-2c-0.5-1.4-0.6-1.7-1-2c-0.2-0.2-0.6-0.4-1.2-0.8c-1.7-1-4.6,0.5-7-2s-2.9-4.2-4-5.1c-0.7-0.5-1.6-0.8-2.5-0.8h-0.1c-0.8,0-1.5,0.2-2.2,0.6c-0.6,0.4-1.3,0.6-2,0.6c-1.3,0-3-0.7-4.9-2.5c-1.3-1.2-2-1.6-2.6-1.6c-0.8,0-1.2,0.9-1.9,1.5c-0.8,0.7-1.4,1.6-2.1,1.6c-0.5-0.1-1-0.3-1.3-0.8c-0.5-0.4-0.7-1-0.7-1.7c0-0.4,0.1-0.8,0.1-1.2c0-0.4-0.1-0.8-0.3-1.2c-0.9-1.5-0.9-1.8-3.6-2.5c-2-0.5-2.7-0.1-2.7-0.7c0-0.4,0.1-0.8,0.2-1.1c0.4-1.7-0.6-3.4-2.3-3.8c-0.1,0-0.3-0.1-0.4-0.1c-0.6-0.1-1.2-0.2-1.8-0.2c-0.8,0-1.6,0.1-2.4,0.1l-1-2.8c-0.6-0.6-1.4-1.1-2.2-1.5c-0.4-0.1-0.5-0.3-0.5-0.7c0-0.6,0.3-1.5,0.4-2.8c0-0.2,0-0.4,0-0.6c0-1.7-0.8-2.1-0.8-4.4c0-2.6-0.9-3.1-0.9-3.1c-2.2-1.3-4.2-3-5.9-4.9c-1.6-2.2-3-4.6-4.1-7.1l-4.8-0.2c0,0,0-0.1,0-0.3c0-0.9-0.1-3.4-1.5-4.3c-1.7-1-3.5-3.1-4.6-3.7c-2.5-1-5.1-1.9-7.8-2.5c-2.4-0.6-5.9-1.1-5.9-1.1l-0.4-3.6l-1.2-0.3c0,0,0-0.3,0-0.8c0-1.3-0.2-4-1.9-5.1c-3.4-2.2-6.4-5.1-8.6-8.5c-1.8-3.2-3.1-6.7-3.9-10.3c1.8-1.1,2.9-1.9,3.3-2.1c0.4-0.3,0.8-0.5,1.2-0.7c0.2-0.8,0.8-2.5,1.8-5.1c1.5-3.8,0.7-3.1,2.3-7.2c1.3-3.4,3-3.7,3-5.2c0-0.4-0.1-0.8-0.2-1.2c-0.3-1-0.5-2-0.5-3c0.1-1.5,0.4-3,0.9-4.3c0.9-2.4,8.6-14.4,8.6-14.4s-0.6-1.7-0.9-3.1c-0.2-0.9-0.5-1-0.5-1.6c0-0.5,0.1-0.9,0.2-1.4c0.4-1.9,3.2-5,3.2-6.7c0-0.2,0-0.4-0.2-0.6c-2.1-2.6-4.5-4.9-7.1-6.8c-1.1-0.6-1.1-3.2-1.1-3.5v0l-5-0.5l0.1-3.9v0l0-0.6c-1.1,0.3-2.3,0.5-3.5,0.6c-0.7,0.1-1.4-0.1-2-0.6c-0.4-0.4-0.5-0.9-0.5-1.4c0-1.3,0.6-2.9,0.6-4c0-0.1,0-0.3,0-0.4c-0.3-1.4-0.6-3-1.5-3.3l-2.1-0.5c-1.4-1.5-2.6-3.1-3.7-4.7c-1-1.6-1.3-2.3-2-2.3c-0.4,0-0.7,0.1-1.1,0.2c-0.7,0.2-1.4,0.3-2,0.3c-0.4,0-0.8,0-1.2-0.1l-3.9-3.8l-2.2-0.2c0,0-2.3-3.8-3.6-4.1c-0.2,0-0.4-0.1-0.6-0.1c-0.9,0.1-1.7,0.3-2.5,0.6l-0.7,1.5l-1.3-2.6l-1.7-4.9l-8.5,0.6c0-0.1,0-0.3,0-0.4c0-0.9,0.4-1.7,1-2.3c0.3-0.3,0.5-0.7,0.6-1.2c0-0.8-0.9-1.6-2.1-2.1c-0.8-0.4-1.3-1.2-1.3-2.1c0-0.8,0.4-1.4,1.1-1.4c0.1,0,0.2,0,0.3,0c1.8,0.4,3.3,2.4,5.1,2.8c0.2,0.1,0.4,0.1,0.7,0.1c1-0.1,2-0.5,2.8-1.2c-0.1-0.3-0.1-0.6-0.1-0.9c0-1.1,0.4-2.2,1-3.1c1.5-2.2,0-4.2,2.5-6.5c2.5-2.3,5.7-2.2,6.5-4.3c0.6-1.5,1.5-2.2,1.5-3.4c0-0.6-0.2-1.3-0.5-1.8c-0.6-1.2-1.3-2.4-2.1-3.4l7.8-0.4c0.1-0.3,0.2-0.6,0.2-1c0-0.6-0.2-1.2-0.5-1.7c-0.5-0.9-0.9-1.2-0.9-1.6c0.1-0.5,0.3-1,0.6-1.4c0.3-0.6,0.8-1.5,1.3-2.5l0-0.1l0.3-0.5c-24.3,0.2-49.1,0.3-74,0.4c-1.3,2.9-4.1,3.3-4.7,5.9c-0.8,3.4-1.7,3.1-3.5,4c-1.2,0.7-2.2,1.9-2.7,3.2h0c0.2,0,0.4,0,0.6,0.1l0,0c0.9,0.3,1.8,0.7,2.6,1.3c0.8,0.5,1.2,1.3,1.2,2.2c-0.1,1.4-0.9,2.7-2.2,3.3c-2.2,1.1-2.7,3.2-3,5.7c-0.3,2.5-2.9,1.3-3.9,4.2c-0.7,2-1.6,2.5-2.6,2.5c-0.5,0-1-0.1-1.5-0.2c-0.2,0-0.3-0.1-0.5-0.1c-1.3,0-2.5,1.3-4.5,3.4c-2.2,2.4-4.3,1.9-5.8,4.1c-1.5,2.2-0.2,6.4-1.5,9c-0.7,1.4-1.2,2.9-1.4,4.5c-0.4,1.7-2.2,4.5-2.2,7.3c0,0.2,0,0.4,0,0.6c0,0.3,0,0.5,0,0.8c0,2.6-1.2,4.7-3.9,7.3c-2.9,2.9-2,5.7-3,8.6c-0.6,1.7-1,2.4-1,3.2c0,0.6,0.3,1.1,1.1,2c0.9,1,1.3,1.6,1.3,2.2c0,0.6-0.4,1.1-1.1,2c-0.8,1.1-1.3,1.8-1.3,2.5c0.1,0.7,0.4,1.2,1,1.6c0.6,0.6,0.9,1.4,0.8,2.2c0,1.6-0.7,3.1-2,4c-1.9,1.2-0.7,1.5-1.5,5.1c-0.9,3.7-2.4,3.3-3.1,6.4c-0.2,0.8-0.2,1.5-0.2,2.3c0,2,0.4,4,0.4,5.8c0,0.5,0,1.1-0.2,1.6c-0.6,2.4-2.2,6.6-3.1,10.2c-0.9,3.7-6.7,13.6-7.2,15.4c-0.2,0.9-0.3,1.9-0.2,2.8c0,0.3,0,0.6,0,0.9c0.6,0,1.2,0.1,1.8,0.1c4.4,0.3,2.8,3.5,7,8.2c1.3,1.7,3.4,2.7,5.5,2.7c0.7,0,1.4-0.1,2.1-0.2c0.6-0.1,1.2-0.2,1.9-0.2c0.3,0,0.6,0,0.9,0.1c0.3,0.1,0.7,0.1,1,0.2c1.4,0,1.1-1.3,4.8-2.4c3.7-1.2,4.4-1.9,5.4-1.9c0.2,0,0.5,0,0.7,0.1c1.5,0.4,4.5,5.1,5.1,7.7c0.6,2.6,3.3,8.5,6.3,9.6c3,1.1,3.4-0.8,5,2.8c1.6,3.6,6.3,2.7,8.5,3.3c2.3,0.5,1.8,0.8,2.5,4.6c0.7,3.8,2.2,2.6,3.7,4.9c0.4,0.5,0.5,1.1,0.6,1.7c0,0.6-0.2,1.1-0.4,1.7c-0.6,1.3-1.1,2.6-1.5,4c-0.9,3.8-2.3,2.7-3.9,6c-1.5,3.3-3.1,4.5-4.8,4.9c-1.7,0.4-5.4,0.7-7.5,2.7c-0.4,0.3-0.6,0.8-0.6,1.3c0,1.3,1.3,2.7,1.2,4.6c0,0.6-0.2,1.3-0.4,1.9c-0.9,1.9-1.5,3.1-1.5,4.3c0,1,0.5,2,1.7,3.5c2.6,3.1,2.1,3.3,6.9,5.3c4.8,1.9,1.5,0.7,5.9,2.6c4.4,1.8,1.9,0.4,4.4,5.5c2.5,5,1.7,4.8,3.3,6.5c1.6,1.6,1.3,2.7,3.6,3.7c2.2,1,3,0.7,6.6,1.2c0.3,0,0.6,0.1,0.9,0.1c0.8,0,1.6-0.2,2.2-0.7c0.8-0.5,1.7-0.7,2.6-0.7c0.6,0,1.2,0.1,1.8,0.2c5.1,0.8,4.2,1,7.3,1.7c0.4,0.1,0.7,0.1,1.1,0.1c1.9,0,1.9-1.6,5.8-1.8c1.2-0.1,2.4-0.2,3.7-0.5c0.6,0,0.8,0.4,1.6,2.1c0.5,1,0.9,1.3,1.3,1.3c0.2,0,0.5-0.1,0.7-0.2c0.2-0.1,0.5-0.2,0.8-0.2c0.7,0.1,1.3,0.4,1.7,0.9c0.9,0.9,1.4,1.1,1.8,1.1c0.2,0,0.4-0.1,0.6-0.1c0.2-0.1,0.4-0.1,0.5-0.1c0.4,0,0.8,0.2,1.5,1c2.2,2.6,0.5,1.3,2.7,3.9c2.2,2.5,4.3,0.6,6.4,2.3c2,1.7,3.2,1.9,4.9,3.2c1.1,0.8,1.8,2.1,1.7,3.5c0,2.4-1.3,5.1-1.7,7c-0.1,0.4-0.1,0.8-0.1,1.2c0,2.3,1.8,3.5,2.6,5.5c1.1,2.3,4.4,2.3,6.7,4.4c0.7,0.8,1.8,1.3,2.9,1.3c0.4,0,0.8,0,1.2-0.1s0.9-0.1,1.4-0.1c0.5,0,1,0,1.5,0.1c0.2,0,0.5,0.1,0.7,0.1c0.8,0.1,1.6-0.3,2.1-1c0.4-0.7,1.2-1.1,2-1c0.1,0,0.3,0,0.5,0c3.2,0.3,4.3,0.6,6.6,2.8c2.4,2.2,3.6-1.6,9.5,6.3c0.5,0.6,0.9,1.2,1.2,1.7l0,0c0.1,0.2,0.2,0.3,0.3,0.4c1.3,2,1.7,3,1.7,3.7c0,1.1-0.9,1.3-0.9,2.3c0,0.2,0,0.3,0.1,0.5c0.6,2.6,4.5,5.1,6.1,7.1c1.5,2,4.2,1,5.1,2.4c0.9,1.4,6.2,8,9.3,12.3c1.4,2.1,1.7,2.8,1.7,3.4c0,0.3-0.1,0.6-0.1,1c0,0.5,0.1,0.9,0.3,1.3c0.4,1.5,0.6,3,0.5,4.5c0,2.9-0.3,5.9-0.8,8.8c-0.1,0.6-0.2,1.1-0.2,1.7c0,0.9,0.1,1.8,0.1,2.9c0,2.1-0.4,4.2-1.2,6.1c-0.3,0.7-0.5,1.5-0.7,2.3l0.4-0.4l0.4-0.5l-0.8,0.8c-0.2,0.7-0.3,1.4-0.3,2.1c0,2.2,0.9,3.6,1,5.7c0,0.6,0,1.1,0,1.5c0,1.8-0.3,3.5-0.8,5.2c-0.2,0.6-0.3,1.3-0.3,2c0,1.8,0.9,2.7,2.1,5.8c0.1,0.4,0.2,0.8,0.2,1.2c0,2.7-5.1,2.1-8.8,4.2c-1.6,0.9-3.8,2.1-5.9,3.4l10.8,30.9l0.1,0.1l0.2,0.6c0,0,0.1-0.2,0.3-0.5l0.1-0.1c0.8-1.1,2.5-3.4,3.6-3.9c1.4-0.6,2.2-2.7,2.5-3.9c0.5-1.3,1.1-2.6,1.9-3.8c0,0,3.5-1.1,6.7-2.3c3.1-0.9,6.4-1.4,9.7-1.4c0.4,0,0.7,0,1,0c1.9,0.1,8.5,1,10.3,1.5c1.5,0.3,3.1,0.4,4.7,0.4c1.5,0.1,3-0.1,4.4-0.5c2.6-1,5.4-1.6,8.2-1.8c0.5,0,1,0.1,1.5,0.2c2.1,0.8,33.7,15.7,33.7,15.7v0.1c0,1,0,7.1,1.1,8.8c0.3,0.6,0.5,1.2,0.5,1.9c0,0.6-0.1,1.2-0.1,1.8c0,0.5,0.1,1,0.4,1.4c0.2,0.4,0.3,0.9,0.3,1.4c0,1.6-0.6,4-0.6,5.5c-0.1,0.4,0.1,0.9,0.3,1.2c2.2,1.8,4.7,3.1,7.4,4c3.6,1.2,5.7,1.7,8.3,3.2c1.2,0.8,2.5,1.4,3.9,1.8l0.2,0.1c0.4,0.1,0.6,0.2,0.6,0.2c-0.4-0.9-0.5-1.9-0.4-2.8C823.6,456.5,824,452.8,824,449.8z" class="region region-gray capital-region"></path></a>
    <a><path id="SouthernRegion-Gray" d="M931.1,639.2c-0.1,0.7-0.2,1.3-0.2,2c0,1.7,0.3,3.4,0.3,4.5c0,0.8-0.2,1.4-0.8,1.4c-0.2,0-0.5-0.1-0.7-0.2c-3-1.1-8.6-4.9-8.6-4.9s-3-6.3-5.5-9.4c-1.5-2.1-3.8-3.5-6.3-3.9c-2-0.5-2.2-3-6-3.9c-2-0.5-2.3-1.1-2.3-1.9c0-0.3,0.1-0.7,0.1-1c0-0.5-0.1-1-0.4-1.4c-1.2-1.9-3.4-6.5-3.4-6.5c-1-0.2-2-0.3-3-0.4c-0.7-0.1-1.3,0.1-1.9,0.5c-1,1-2.1,3.6-3,7.4c-0.2,0.7-0.3,1.5-0.3,2.3c0,0.5,0.1,0.8,0.1,1c0,0.5-0.2,0.5-1.5,0.8c-0.2,0-0.3,0.1-0.5,0.1c-2.3,0-3.6-3.9-4.5-4.9c-1-1-0.7-3.8-2.3-5.8c-1.5-1.7-3.5-2.9-5.7-3.3c0,0-0.1,0-0.2,0c-0.8,0.2-1.5,0.6-2,1.1c-0.6,0.6-1.4,1-2.3,1.1c-0.5,0-1.1-0.3-1.5-1.2c-1.7-3.3-3.5-4.1-4.4-7.2c-1-3,0.2-6.4-4.4-12.4c-4.7-5.9-5.4-4.9-6.3-7.6c-1-2.7-6.9-3.2-11.5-4.3c-4.6-1.1-7.1-2.5-9.8-3.1c-2.7-0.6-4.4-2.3-5.6-2.5c-1-0.1-2-0.2-3-0.2c-2.6,0-6,0.2-7.3,1c-1.9,1.2-6.2,0.6-9.8,2.2c-3.6,1.6-1.5,4.5-4,4.7c-0.2,0-0.4,0-0.6,0c-2.8,0-8.1-1.4-9.8-4.1c-1.8-2.8-6.1-5.1-6.2-6.3c-0.1-1.2-1.1-1.8-1.1-5.3c0-0.2,0-0.4,0-0.6c0.1-3.3,1.1-5.6,1.1-7.7c0-0.5-0.1-0.9-0.1-1.4c-0.6-2.6-2.7-3.9-4-5.4c-0.7-0.7-1.7-1.1-2.7-1.1c-0.1,0-0.1,0-0.2,0c-1.2-0.1-2.3,0.7-2.6,1.8c0,0.2-0.1,0.4-0.1,0.7c0,2.1,2.2,4.5,2.7,7.2c0.1,0.5,0.1,1.1,0.1,1.7c-0.1,1.9-0.4,3.7-1,5.4c-0.1,0.3-0.8,0.5-1.7,0.5c-2.1-0.1-4.3-0.4-6.3-0.8c-2.3-1.4-4.5-3-6.6-4.7c-2.5-2.3-4.7-4.9-6.7-7.7c-2.1-3-4.4-3.9-4.6-8c-0.3-4.2-4.6-4.8-6.4-5.6c-1.8-0.8-4-5.4-5.7-6.6c-1.8-1.3-4.6-2.7-5.2-8.9c-0.5-6.2-1.7-10.1-2.8-12c-1.2-1.9-3.3-10.1-3.8-13.1c-0.5-2.9-3.6-4.1-4.3-5.9c-0.2-0.4-0.4-0.5-0.7-0.5c-1.1,0-3.2,2.5-5.7,3.5c-3.1,1.3-7.5,0.7-9.4,3.8c-2,3.2-3.8,7.2-6.5,8.6c-2.8,1.4-4.4,1.4-7.5,4.3c-3.1,2.9-9,3.5-13.5,5.7c-4.6,2.2-5.9,4.2-11.2,6.3c-2.5,0.9-4,1.5-5,1.5c-1,0-1.3-0.7-1.4-2.2c-0.1-2.9-5-4.4-6.3-7.6c-1.2-3-6.1-9.6-6.1-13.2c0-0.2,0-0.5,0.1-0.7c0.1-0.6,0.2-1.1,0.2-1.7c0-3.8-1.8-9.9-1.8-13.4v-0.3c0-0.1,0-0.2,0-0.3c0-3.4-1.6-8-1.6-11.2c0-0.5,0-1,0.1-1.5c0.7-3,1.4-7.7,5.7-12c4.2-4.3,3.7-3.6,4.2-5.9c0.6-2.3,3.5-2.8,7.7-5.1c4.2-2.3,3.7-5.2,6.7-9.4c3-4.1,1.7-5.3,2.5-7.1c0.8-1.8,4.1-1.9,6.9-2c2.9-0.2,5.7,0.1,9.5-0.6c1.7-0.3,2.2-1,2.2-2.1c0-1.3-0.7-3.1-0.9-5.3c-0.2-2.7-0.8-3.4-1.8-3.4c-0.7,0.1-1.3,0.2-2,0.5c-0.3,0.1-0.8,0.3-1.3,0.5c-0.1,0-0.1,0-0.2,0.1c-0.2,0.1-0.4,0.1-0.6,0.2c0.8-2.6,2.2-6.7,2.8-9.4c0.8-3.7,2.4-7.2,4.8-10.2c1.4-1.7,4.7-3.9,8-6l11.1,31.7c0,0,2.5-3.9,4-4.5c1.4-0.6,2.2-2.7,2.5-3.9c0.5-1.3,1.1-2.6,1.8-3.7c0,0,3.5-1.1,6.7-2.3c3.1-0.9,6.4-1.4,9.7-1.4c0.4,0,0.7,0,1,0c1.9,0.1,8.5,1,10.3,1.5c1.5,0.3,3.1,0.4,4.6,0.4c1.5,0.1,3-0.1,4.4-0.5c2.6-1,5.4-1.6,8.2-1.8c0.5,0,1,0.1,1.5,0.2c2.1,0.8,33.7,15.7,33.7,15.7v0.1c0,1,0,7.1,1.1,8.8c0.3,0.6,0.5,1.2,0.5,1.9c0,0.6-0.1,1.2-0.1,1.8c0,0.5,0.1,1,0.4,1.4c0.2,0.4,0.3,0.9,0.3,1.4c0,1.6-0.6,4-0.6,5.5c-0.1,0.4,0.1,0.9,0.3,1.2c2.2,1.8,4.8,3.1,7.5,4c3.6,1.2,5.7,1.7,8.3,3.2c1.4,0.9,3,1.6,4.7,2.1c-0.4-0.9-0.5-1.9-0.4-2.8c0-2.6,0.5-6.3,0.5-9.3c0-0.8,0-1.6-0.1-2.4c-0.1-0.9-0.2-1.8-0.2-2.8c0-1.7,0.2-2.7,0.2-3.8c0-0.4-0.1-0.8-0.2-1.2c-0.1-0.4-0.1-0.8-0.1-1.2c0-1.2,0.2-2.7,0.2-4.2c0.1-1.3-0.2-2.6-0.8-3.8c-1.6-2.6-4.2-8.7-4.1-12.2v-0.3c0.1-2,0.5-3.7,0.5-4.9c0.1-0.7-0.2-1.5-0.8-2c-1.3-0.9-2.3-5.5-2.3-7.6c0-0.1,0-0.3,0-0.4c0-0.1,0-0.2,0-0.3c0-1.7-1.1-2.9-1.1-4.6c0-0.1,0-0.2,0-0.3c0-0.2,0-0.4,0-0.6c-0.1-1.3-0.4-2.6-0.9-3.8c-0.1-0.2-0.1-0.4-0.1-0.6c0-1.6,1.6-3.4,1.5-5.3v-0.4c0-2.1,1.5-2.1,2.3-2.8c0.3-0.5,0.5-1.1,0.4-1.7c0-0.6-0.1-1.3-0.1-2c0-0.4,0-0.7,0-1c0-0.3,0-0.5,0-0.8c0.3-1.2,2.4-0.4,3.3-1.8c1-1.4,3.4-2.1,5.6-3.2c1.2-0.6,4-0.8,6.3-0.8c1.8,0,3.2,0.1,3.2,0.1l-0.3,14.8c0.6,0.8,1.3,1.5,2.1,2.1c0.9,0.6,1.2,0.7,1.4,0.7c0.1,0,0.1,0,0.1,0l21.2-1.1c0.6,0.2,1.2,0.4,1.8,0.7c1,1,1.8,2.2,2.5,3.5c-0.2,0.9-0.3,1.8-0.3,2.7c0,4,1.2,9.1,2.2,12.9c1.3,4.8,0.7,7.4,1.4,11.3c0.9,4.1,1.5,8.4,1.7,12.6v0.8c0,0.1,0,0.2,0,0.4c0,3.6,1.4,7.5,1.4,11.7c0,0.4,0,0.8,0,1.2c-0.3,3.5-1.4,6.3-1.4,10.4c0,1.8,0.2,3.5,0.6,5.2c1.5,7.2,3.6,9,5.5,12.7c2.9,4.9,6.3,9.5,10.2,13.7c4.2,4.6,6.3,6,11,13.6c4.7,7.6,4.3,5.5,7.7,10.3c3.3,4.8,2.2,4.5,3.6,12.2c0.2,0.8,0.3,1.7,0.3,2.5c0,4.5-3.8,3-5.6,4.7c-0.5,0.5-0.8,1.2-0.8,1.9c0,1.9,1.6,4.1,2.6,5.8c0.1,0.2,0.2,0.4,0.4,0.5c1.4,1.9,2.5,2.4,5.3,4.9c3,2.7,1.8,2.4,3.3,4.8c0.3,0.3,0.4,0.8,0.5,1.2c0,1.2-1.9,1.3-3.8,2.5c-2.3,1.5-3.3,3.7-4.4,8.3c-0.2,0.6-0.2,1.2-0.2,1.8c0,3.2,2.3,4.6,3.5,8.7c1.3,4.7,2.3,9.1,7,15c4.7,6,4.6,4.7,9.1,9.4c4.6,4.7,2.1,3.3,4.2,8.3c0.6,1.2,1,2.4,1.2,3.7c0,0.8-0.6,0.9-1.4,2.4c-1.4,2.5-3.9,4.7-3.9,7.9v0.1c0,3.3,2.8,5.1,3.8,9.8c0.6,3.4,1.4,4.7,1.4,6.6C931.4,637.5,931.3,638.4,931.1,639.2z" class="region region-gray southern-region"></path></a>
    <a><path id="CentralRegion-Gray" d="M999.1,109.3c-1.3-2.7,0.7-6.3-2.8-8.8c-3.5-2.4-10.3-2.8-12.1-3.6c-1.6-0.8-2.9-3-2.9-5.9c0-0.4,0-0.8,0.1-1.2c0.5-3.6,0.4-10.1,4.6-12.3c1.6-0.9,3.2-1.8,4.6-2.5v0c0.2-0.1,0.4-0.2,0.6-0.3c-1.6-2.4-5.2-7.8-8.4-12.8c-4.2-6.8-8.2-11.9-10.9-14.2c-2.7-2.3-3.1-0.7-4.1-4.5c-1.1-3.8-0.8-6.3-5.2-10.9c-4.4-4.6-9.5-7.4-13-12.1c-2.3-3.1-5.3-9.5-7-13.3c-28.4,1-60.6,2-95.4,2.9c-20,0.5-40.9,1-62.5,1.5c-39,0.8-80.4,1.5-123,1.8c-0.5,1.1-1,2.1-1.6,3.1c-0.3,0.4-0.5,0.9-0.6,1.4c0,0.4,0.4,0.7,0.9,1.6c0.3,0.5,0.5,1.1,0.5,1.7c0,0.3-0.1,0.7-0.2,1l-7.8,0.4c0,0,0.1,0.1,0.4,0.5c0,0,0,0.1,0.1,0.1c0.6,0.9,1.2,1.8,1.7,2.8c0.3,0.6,0.5,1.2,0.5,1.8c0,1.2-0.9,2-1.5,3.4c-0.8,2.1-4,2-6.5,4.3c-2.5,2.3-1,4.3-2.5,6.5c-0.7,0.9-1,2-1.1,3.1c0,0.3,0,0.6,0.1,0.9c-0.8,0.7-1.8,1.1-2.8,1.2c-0.2,0-0.4,0-0.7-0.1c-1.8-0.4-3.3-2.4-5.1-2.8c-0.1,0-0.2,0-0.3,0c-0.7,0-1.1,0.7-1.1,1.4c0,0.9,0.5,1.7,1.3,2.1c1.2,0.5,2.1,1.2,2.1,2.1c0,0.5-0.2,0.9-0.6,1.2c-0.6,0.6-1,1.4-1,2.3c0,0.1,0,0.3,0,0.4l8.5-0.6l1.8,4.9l1,1.9l0.1,0.1l0.3,0.6l0.3-0.6l0.1-0.2l0.4-0.8c0.8-0.4,1.6-0.6,2.5-0.6c0.2,0,0.4,0,0.6,0c1.2,0.3,3.6,4.1,3.6,4.1l2.2,0.2l3.9,3.8c0.4,0.1,0.8,0.1,1.2,0.1c0.7,0,1.4-0.1,2.1-0.3c0.3-0.1,0.7-0.2,1.1-0.3c0.7,0,1,0.6,2,2.3c1.1,1.7,2.3,3.3,3.7,4.7c0,0,1.2,0.3,2.1,0.5c0.9,0.2,1.2,1.9,1.5,3.3c0,0.1,0,0.3,0,0.4c0,1-0.6,2.7-0.6,3.9c0,0.5,0.1,1.1,0.5,1.5c0.6,0.4,1.3,0.6,2,0.6c1.2,0,2.4-0.2,3.5-0.6l-0.1,4.5l5,0.5v0c0,0.3,0,2.9,1.1,3.5c2.6,2,5,4.3,7.1,6.8c0.1,0.2,0.2,0.4,0.2,0.6c0,1.7-2.7,4.8-3.2,6.7c-0.1,0.4-0.2,0.9-0.2,1.4c0,0.6,0.3,0.7,0.5,1.6c0.3,1.4,0.9,3.1,0.9,3.1s-7.7,12.1-8.6,14.4c-0.6,1.4-0.9,2.9-0.9,4.3c0,1,0.2,2,0.5,3c0.1,0.4,0.2,0.8,0.2,1.2c0,1.6-1.7,1.8-3,5.2c-1.6,4.1-0.8,3.4-2.3,7.2c-0.7,1.7-1.3,3.3-1.8,5.1c-0.4,0.2-0.8,0.4-1.2,0.7c-0.4,0.3-1.5,1-3.3,2.1c0.8,3.6,2.1,7.1,3.9,10.3c2.3,3.4,5.2,6.3,8.7,8.5c1.6,1.1,1.9,3.8,1.9,5.1c0,0.5,0,0.8,0,0.8l1.2,0.3l0.4,3.7c0,0,3.4,0.5,5.9,1.1c2.7,0.6,5.3,1.5,7.8,2.5c1.2,0.6,2.9,2.6,4.6,3.7c1.4,0.9,1.5,3.4,1.5,4.3v0.3l0.6,0l4.2,0.1c1.1,2.5,2.5,4.9,4.1,7.1c1.7,1.9,3.7,3.6,5.9,4.9c0,0,0.9,0.5,0.9,3.1c0,2.3,0.8,2.7,0.8,4.4c0,0.2,0,0.4,0,0.6c-0.1,1.3-0.4,2.3-0.4,2.8c0,0.4,0.1,0.7,0.5,0.7c0.8,0.3,1.6,0.8,2.2,1.5l1,2.8c0.8-0.1,1.6-0.1,2.4-0.1c0.6,0,1.2,0,1.8,0.1c1.5,0.3,2.7,1.5,2.7,3.1c0,0.3,0,0.5-0.1,0.8c-0.1,0.4-0.2,0.8-0.2,1.1c0,0.6,0.7,0.3,2.7,0.7c2.8,0.6,2.7,0.9,3.6,2.5c0.2,0.4,0.3,0.8,0.3,1.2c0,0.4-0.1,0.8-0.1,1.2c0,0.6,0.3,1.3,0.8,1.7c0.3,0.4,0.8,0.7,1.3,0.8c0.8,0,1.3-0.9,2.1-1.6c0.7-0.6,1.1-1.5,1.9-1.5c0.6,0,1.3,0.4,2.6,1.6c2,1.9,3.6,2.5,4.9,2.5c0.7,0,1.4-0.2,2-0.6c0.7-0.4,1.4-0.6,2.2-0.6h0.1c0.9,0,1.8,0.2,2.5,0.8c1.1,0.9,1.6,2.7,3.9,5.1c2.3,2.5,5.3,0.9,7,2c0.6,0.4,1,0.6,1.2,0.7c0.1,0.1,0.3,0.2,0.4,0.4c0,0,0,0,0,0.1c0.2,0.5,0.5,1,0.6,1.6c0.7,1.9,1.3,2,1.4,2h0l1.6,1.3c0,0-2.3,0.4-2.3,4.2v0.3c0,2.8-1,2.9-1,3.3c0,0.1,0.1,0.3,0.3,0.6c1,1.2,1.9,1.4,4.8,2.8c1.8,0.8,3.5,1.9,5.1,3.1c1.1,1.7,2.7,3,4.6,3.7c0.5,0.2,1,0.3,1.5,0.3c0.3,0,0.6,0,0.9-0.1c0.2-0.1,0.4-0.1,0.7-0.1c0.4,0,0.8,0.3,1.5,1.3c1.7,2.6,4.6,2.4,5.9,3.6c1.3,1.3,2.2,3,2.4,4.8c0,1.3,1.6,2.6,3.5,4.4c1.8,1.7,1.2,1.9,1.8,3.3c0.2,0.5,0.7,0.8,1.2,0.7c0.2,0,0.4,0,0.5,0c0.2,0,0.4,0,0.5,0c0.4-0.1,0.8,0.1,1.1,0.5c0.7,1.1,2.3,2.5,3.8,4.4c0.2,0.3,0.3,0.6,0.4,0.9c0,1.1-1.5,2-1.6,4c0,0.6,0.1,1.1,0.3,1.6c0.6,1.7,0.8,2.1,1,2.1c0.1,0,0.1,0,0.2-0.1c0.1-0.1,0.1-0.1,0.2-0.1c0.1,0,0.3,0.1,0.6,0.5c0.3,0.4,0.5,0.9,0.5,1.4c0,0.5-0.1,0.9-0.1,1.5c0,0.4,0.1,0.8,0.3,1.2c0.4,0.8,0.7,1.8,0.7,2.7c0,0.5,0,1-0.1,1.6v0.2c0,1.4,0.6,1.9,2,3.5c0.5,0.5,0.7,0.8,0.7,1c0,0.5-0.8,0.5-1.3,1.7c-0.1,0.2-0.2,0.5-0.2,0.8c0,1,1.3,1,2.4,2c0.6,0.5,0.6,0.8,0.6,1.1v0.1c0,0.3,0,0.7,1.1,1.4c1.2,0.9,1.9,1.7,1.9,2.4c-0.1,0.5-0.4,0.9-0.8,1.1c-0.8,0.5-1,0.9-1,1.4c0.1,0.6,0.3,1.2,0.6,1.8c0.3,0.5,0.5,1.1,0.6,1.7c0,0.4-0.2,0.6-0.9,0.8c-1.4,0.3-0.7,2.7-1.8,4.7c-0.8,1.6-1.7,3.1-2.7,4.5c-0.8,1.6-1.4,3.3-1.8,5c0,0,0.5,8.8,0.5,10.1c0,1.3-3.4,1.1-3.4,2.1c0,0,0,0,0,0c0,0.2,0,0.5,0,0.8c-0.1,1.4-0.4,2.8-0.9,4.1c-0.1,0.3-0.2,0.6-0.2,1c0,1.7,2.2,2,2.6,3.8c0,0.1,0,0.2,0,0.4c0,1.4-2.6,0.6-2.6,2.9c0,0.2,0,0.4,0.1,0.6c0.3,2,1.6,3.6,3.5,4.4c0,0-0.1,0.7-0.1,1.5c0,0.7,0.1,1.4,0.2,2.1c0.3,1.4-0.1,1.6,1.3,2.9c0.5,0.5,1.2,0.8,1.9,0.8c0.2,0,0.4,0,0.6-0.1c0-0.3,0-0.7,0-1c0-0.3,0-0.5,0-0.8c0.3-1.2,2.4-0.4,3.3-1.8c1-1.4,3.4-2.1,5.6-3.2c1.2-0.6,4-0.8,6.3-0.8c1.8,0,3.2,0.1,3.2,0.1l-0.3,14.8c0.6,0.8,1.3,1.5,2.1,2.1c0.9,0.6,1.2,0.7,1.4,0.7c0.1,0,0.1-0.1,0.1-0.1l21.2-1.1c0.6,0.2,1.2,0.4,1.8,0.7c0.8,0.8,1.5,1.8,2.1,2.8c0,0.1,0.1,0.1,0.1,0.2c0.1,0.2,0.2,0.3,0.3,0.5c0-0.1,0-0.2,0-0.3l0-0.3c0-0.1,0.1-0.2,0.1-0.2c0.6-2.5,1.3-4.1,1.3-5.6c0-0.8-0.2-1.6-0.7-2.2c-1.4-2.4-4-1.8-5.6-3.7c-1.3-1.7-4.7-4.5-4.7-7.5c0-0.6,0.1-1.1,0.4-1.6c1.7-3.7,5.3-3.2,7.9-7.4c2.6-4.3,3.6-3.2,4.8-7c1.3-3.8,7.7-6.7,8.4-9.8c0.4-1.2,0.6-2.4,0.7-3.6c-0.1-1.5-0.7-2.9-1.7-3.9c-2.5-3-5.2-3.7-5.6-5.4c-0.1-0.3-0.1-0.6-0.1-0.9c0-1.8,0.9-4.4,2.9-7.4c2.5-3.4,0.6-4.3,2.6-7.5c2-3.2,1.5-1.3,4.8-5c2.5-2.9,4.9-5.2,5-8.3c0-1-0.2-2-0.7-2.9c-1.6-3.3-2.2-5.3-2.2-7.1c0-0.6,0.1-1.3,0.2-1.9c0.6-2.3,4.7-2.6,9.1-6c4.4-3.4,7.4-3.9,8.6-7.2c0.9-2.5,2.8-2.3,2.8-3.7c-0.1-0.9-0.5-1.7-1-2.4c-2.6-4.3-1.4-4.4-3.6-7.4c-2.1-2.9-3.3,0.5-5.6-3.7c-0.6-1-1-2.2-1.1-3.5c0-1.6,0.9-2.5,1.3-4.3c0.1-0.4,0.1-0.8,0.1-1.1c0-2.1-1.3-4-2.3-8.7c-0.3-1.4-0.5-2.8-0.5-4.2v-1c0-1.5-0.3-3-0.9-4.4c-0.3-0.7-0.4-1.4-0.5-2.2c0-1,0.4-1.3,0.4-1.8c0-0.6-0.5-1.4-2.3-3.4c-4.5-5.1-5.3-4.9-7-6.5c-1.6-1.6-3.9-2.1-7.4-3c-3.5-0.8-3.9-0.5-7.1-4.1c-3-3.4-7.4-5.7-7.4-7.9c0-0.1,0-0.2,0-0.3c0,0,0-0.1,0-0.1c0.5-2.3,1.4-6.1,4.6-7.5c0.5-0.2,1.1-0.3,1.7-0.4c1.2,0.1,2.4,0.6,3.3,1.4c0.6,0.5,1.2,1.1,1.7,1.7c0.9,1.4,2.3,2.5,3.9,3.2c0.2,0.1,0.4,0.1,0.6,0.2c0.6,0.2,1.3,0.4,1.9,0.6c0.7,0.2,1.4,0.3,2.2,0.3c1.3,0,2.6-0.2,3.9-0.6c1.1-0.3,2.2-0.5,3.3-0.6c0.3,0,0.7,0,1,0.1c0.4,0.1,0.8,0.2,1.2,0.2c2.2-0.2,4.3-0.9,6.1-2.1c1.4-0.9,1.7-7.4,3.6-8.5c1.9-1.1,6.6-2.1,7.2-4.4c0-0.2,0.1-0.3,0.1-0.5c0-1.9-2.8-2.5-3.7-6.4c-0.1-0.6-0.2-1.2-0.2-1.8c0-2.8,2-3.7,3.1-6.9c1.3-3.7,0.9-7.1,3.3-8.9c2.5-1.9,7.6-1.1,9.8-2.2c1.1-0.6,1.8-1.8,1.6-3c0-1.1-0.2-2.2-0.6-3.2c-0.1-0.3-0.1-0.6-0.2-0.9c0-0.7,0.4-1,0.4-2.3c0-1.3-0.2-2.6-0.6-3.8c-0.2-0.9-0.4-1.8-0.4-2.7c0-2.8,2-2.5,3.7-2.9c0,0,0,0,0.1,0l0.4-0.1c0,0,0.1,0,0.2,0c0.4-0.1,0.9-0.2,1.3-0.2c1.6,0,2.9,0.9,2.9,2.3c0,0,0,0.1,0,0.1v1c0,2.9,0.2,9.4,1.7,10.8c1.6,1.5,3.5,2.7,3.5,3.8c0,0.1,0,0.2,0,0.2v0.1c0,0.6,1.4,1.4,2.8,1.4c1.2,0.1,2.3-0.6,2.6-1.8c0.7-3.1,1.8-9.3,2.9-12.3c1.1-3,2.4-6.7,4.1-7.1c0.1,0,0.1,0,0.2,0c1.7,0,3.2,4.9,5.1,5.3c0.2,0,0.4,0.1,0.5,0c2.3,0,7.4-2.2,10-5.3c2.8-3.4,5-9,7.6-13.2c2.6-4.3,4.5-5.4,9.8-7c5.3-1.6,7-7.3,9.8-8.6c1.2-0.6,2.5-0.8,3.9-0.8c0.3,0,0.7,0,1,0c0.3,0,0.7,0,1,0c0.7,0,1.4-0.1,2.1-0.3c1.8-0.6,4.7-1.8,4.7-3.8C999.4,110.1,999.3,109.7,999.1,109.3z M675.7,151.4c0.1,0,0.1,0,0.2-0.1c0.1,0,0.1,0,0.2-0.1C675.9,151.3,675.8,151.4,675.7,151.4z M784.5,11.7c-0.1,0.3-0.2,0.6-0.2,0.9C784.4,12.3,784.5,12,784.5,11.7L784.5,11.7z" class="region region-gray central-region"></path></a>
    <a><path id="EasternShore-Gray" transform="translate(911.817 98.919)" d="M302.5,385.1l-101.4,2.8l-3.5-42.2l-2.1-25.1l-16.3-195L176,87.1l-4.1-48.7c-0.2,0-0.3,0-0.5,0c0.2,0,0.3,0,0.5,0L160.6-97.3c0,0-50.3,2.5-129.8,5.2c0.1,0.2,0.1,0.3,0.2,0.5l0,0c1.7,3.9,4.6,9.8,6.8,12.8c3.4,4.7,8.6,7.5,13,12.1s4.1,7.1,5.2,10.9s1.4,2.3,4.1,4.5c2.7,2.2,6.6,7.4,10.9,14.2c3.1,5.1,6.7,10.4,8.4,12.8c1.8-1,3.7-1.6,5.7-2c3.3-0.4,6.3-0.9,11.8-2.1c5.2-1.1,6.8-5.1,9.2-5.1c0.2,0,0.3,0,0.5,0.1c2.3,0.6,4.8,3.7,4.8,6.5c0,0.3,0,0.7-0.1,1c-0.7,3.1-5.7,6.8-6.8,9.8c-1.4,4.1-2.5,8.3-3.4,12.6c-0.2,0.9-0.3,1.8-0.3,2.7c0,3.6,2.1,5.2,2.1,6.9c0,0.2,0,0.3-0.1,0.5c0,0.2-0.1,0.3-0.1,0.5c0,1.7,2.8,1.1,5.2,3.6c0.4,0.3,0.6,0.8,0.6,1.3c0,2.3-4.8,4.8-6.7,7.4c-2.4,3.1-5.2,2.8-9.2,6.3c-1.7,1.4-2.1,2.1-2.1,2.5c0,0.5,0.7,0.8,0.7,1.7c0,0.2,0,0.5-0.1,0.7C91,30.9,91,31.2,91,31.4c0,1.9,2.5,1.6,3.3,2.9c0.8,1.2,6.3,3.9,6.8,5.6l0,0c0,0.1,0,0.2,0,0.3c0,0.1,0,0.2-0.1,0.3c0,0.1-0.1,0.2-0.2,0.3c-1.2,1.3-2.9,1.9-4.6,1.9c-0.8,0-1.5-0.1-2.3-0.3c-3.1-0.7-7.9-2.7-13.5-3.2c-0.7-0.1-1.3-0.1-1.9-0.1c-4.4,0-7.2,1.6-9.2,3.9c-2.3,2.7-3.2,5-7.3,8.5c-4.1,3.5-1.7,4-7,5.6c-5.2,1.6-6,3.1-6.3,4.2c0,0.1,0,0.1,0,0.2c0,0.9,1.8,0.9,1.8,4.2c0,0,0,0.1,0,0.1c0,3.6-0.1,10.9-5.6,13.3c-5.5,2.3-6.7,7.7-7.4,10.4c-0.6,2.7-3,11.1-3.6,13.7c-0.6,2.7-5.5,8-6.3,11.5c-0.8,3.5-2,8.5-2.5,10.8c0,0.2-0.1,0.3-0.1,0.5c0,1.8,2.5,2.3,2.5,4.4c0,0.1,0,0.1,0,0.2c0,0,0,0.1,0,0.1c0,2.3,6.6,3.9,6.6,6.2c0,0,0,0.1,0,0.1c0,0.1,0,0.1,0,0.2c0,2.5,3.5,9.2,3.7,11.7c0,0.3,0,0.6,0,1c-0.2,4.6-0.7,9.1-1.5,13.7c-0.5,2.4-0.7,4.8-0.8,7.2c0,2.2,0.5,4.3,1.3,6.3c0.8,1.9,1.5,2.5,2.1,2.5c1,0,2-1.6,3.1-2.1c0.4-0.1,0.8-0.2,1.1-0.2c0.5,0,0.9,0.1,1.4,0.1c0.4,0.1,0.9,0.1,1.3,0.1c0.8,0.1,1.5-0.4,1.7-1.2c0.1-0.2,0.1-0.4,0.1-0.7c0-1.8-1.9-2.5-1.9-5.5c0-2.6,1.1-3.6,1.1-6.3c0-0.8-0.1-1.6-0.3-2.4c-0.4-1.8-0.6-3.7-0.7-5.6c0-1.3,0.2-2.6,0.5-3.8c0.5-2.3,2.9-5.4,4.2-5.9c0.4-0.1,0.8-0.2,1.3-0.1c1,0,2.3,0.1,3.6,0.2s2.6,0.2,3.6,0.2c0.2,0,0.4,0,0.5,0c0.2,0,0.4,0,0.6-0.1h0c0.1,0,0.1,0,0.2,0c0.1,0,0.2,0,0.3,0c1.3,0.1,2.3,1.1,2.4,2.4c0,0.5-0.1,1-0.4,1.4c-1.3,2.1-2.2,4.3-3.7,6.8c-1.4,2.5-5,2.5-5.7,5.1c-0.4,1.9-0.6,3.8-0.5,5.7c0,2.2,0.2,4.2,0.9,5c1.1,1.4,2.9,4.2,2.9,6.2c0,0.2,0,0.4-0.1,0.6c-0.1,0.2-0.1,0.5-0.1,0.7c0,0.6,0.2,1.2,0.2,1.9c0,1-0.3,2.3-2.1,4.2c-2.3,2.8-5.1,5.1-8.2,7c-0.5,0.3-1,0.5-1.6,0.5c-2.7,0-5.2-3.7-6.5-4l-6.1-1.4c-3.4-0.8-6.4-0.3-7.8-1.4c-1.4-1.2-1.4-1.2-3.2-5.2c-1.9-4.1-3.2-10.5-4.3-12.8c-0.2-0.4-0.4-0.6-0.7-0.6c-1,0-2.2,3.3-3.6,4.9c-1.7,2.1-0.8,3.5-2.2,7.6c-1.3,4.1-2.9,8-4.8,11.8c-2.3,4.7-4,12-4.8,15.5c-0.8,3.5-2.4,10.4-2.6,12.8c-0.1,2.4,0,11.8-0.9,16c-0.8,3.5-2.3,7.2-2.3,9.3c0,0.4,0.1,0.8,0.2,1.2c0.1,0.1,0.1,0.2,0.2,0.2c0.5,0,1.6-2.1,2.9-4.2s3.1-4.2,5.1-4.2c0,0,0.1,0,0.1,0c0.2,0,0.4,0,0.6,0c3.8,0,4-1.9,6.5-4.4c0.6-0.6,0.9-1.4,0.9-2.2c0-1.9-1.4-4-1.4-6c0-0.4,0.1-0.8,0.2-1.2c1.1-3,1.7-3.7,3.4-4.1c0.1,0,0.2,0,0.3,0c0.6,0.1,1.2,0.3,1.7,0.6c0.5,0.4,1.1,0.6,1.8,0.6c0.8,0,1.5-0.4,1.9-1.1c2.3-2.8,1.4-9.4,4-12c1.3-1.4,3.1-2.3,5-2.5h0.1c-0.2,1.2-0.3,2.5-0.3,3.7c-0.1,1.1,0.1,2.3,0.7,3.3c1,1.2,3.6,3.7,4.9,3.7c0.4,0,0.7-0.2,0.8-0.7c0.1-0.3,0.1-0.7,0.1-1c0-1-0.2-2.2-0.2-3.3c0-1.8,0.4-3.4,2.5-4c1.2-0.3,2.3-0.5,3.6-0.6c1.4,0.1,2.8,0.3,4.1,0.7c0.8,0.2,1,0.9,1,1.9c0,1.4-0.4,3.3-0.4,5c0,0.6,0.1,1.2,0.2,1.8c0.2,1,0.3,2.1,0.3,3.2c0,0.5,0,1,0,1.5c0,2.8,0.2,5.9,2.5,7.7c2,1.4,3.1,3.7,3.1,6.1c0,0.3,0,0.5,0,0.8c-0.1,0.8-0.2,1.5-0.4,2.3c-0.5,2-1.5,1.9-1.5,3.6c0,0.9,0.2,1.8,0.5,2.7c0.7,2.5,1.3,4.4,1.3,5.8c0,1.3-0.7,2.4-1.8,3c-1.5,1-3.2,1.5-4.9,1.5c-0.5,0-1-0.1-1.5-0.2c-1.2-0.3-1.7-1.6-4.2-4.6c-2.6-3-4.2-4.6-5.7-7.1c-1.2-1.9-3.9-4.8-5.7-4.8c-0.4,0-0.7,0.1-1,0.4c-1.6,1.7-2.4,3.5-3.2,6.9c-0.8,3.5-2.7,3-5.5,6c-2.7,3-3,4.2-3.4,5.7c-0.1,0.3-0.1,0.5-0.1,0.8c0,0.6,0.1,1.3,0.1,2c0.1,1.7-0.5,3.3-1.7,4.5c-2.6,2.6-2.1,3.6-3.6,6.9c-1.6,3.3-3.1,4.5-3.7,6.9c-0.1,0.4-0.1,0.8-0.1,1.3c0,1.4,0.5,2.9,0.5,4.9c0,0.5,0,1-0.1,1.6c0,0.3-0.1,0.6-0.1,0.9c0,2.3,1.3,3.4,1.3,5.3c0,0.6-0.1,1.2-0.3,1.7c-1.1,3.4-0.9,5.8-1.1,8.3c0,0.3,0,0.5,0,0.8c0,1.8,0.7,2.6,5.1,3.6c0.8,0.2,1.6,0.3,2.4,0.3c2.9,0,4.4-1.7,4.4-4c0-0.3,0-0.5-0.1-0.8c-0.4-3.4-1.8-4.5-2.7-9.2c-0.1-0.6-0.2-1.1-0.2-1.7c0-3.1,2.2-3.4,2.7-5.4c0.1-0.6,0.4-0.8,0.6-0.8c0.9,0,2.4,2.2,3.6,3.4c1.7,1.6,2.6,4.3,4.6,4.7c0.1,0,0.1,0,0.2,0c1.9,0,3.9-5.2,4.6-6.6c0.6-1.2,2.5-1.8,3.8-1.8c0.2,0,0.5,0,0.7,0.1c1.1,0.3,3.4,8.1,4.9,10.1c1.5,2,0.3,0.5,4.9,5.2c4.6,4.7,1,4.3,7.9,5.9c7,1.6,3.5-0.8,6.5,3.6c3,4.4,2.7,3.9,3.7,6.5c0.4,1,0.7,2,0.8,3.1c0,1-0.5,1.8-1.8,2.8c0,0-0.1,0.1-0.1,0.1c0.2,0.1,0.4,0.2,0.5,0.3l0.1,0l0.1,0c-0.2-0.1-0.5-0.2-0.7-0.3c-2.4,1.7-3.5,1.1-6.8,3.5c-3.4,2.4-2.2,4.3-5.6,4.7c-1.5,0.3-3.1,0.6-4.7,0.7c-1,0.1-1.9-0.4-2.5-1.1c-1.5-2,0.1-4.1-2-5.4c-0.4-0.2-0.8-0.4-1.3-0.4c-1.7,0-3.4,1.7-6.5,2.6c-3.9,1.1-6.9,3.6-7.4,5.5c0,0.2-0.1,0.3-0.1,0.5c0,1.3,1.3,2,1.3,3.9c0,0.4,0,0.8-0.1,1.2c-0.7,3.1-2.2,2.3-4.5,3.4c-1,0.5-1.7,1.6-1.6,2.7c0.1,1.5,0.6,3,1.5,4.1c1.8,2.4,5.1,4,5.1,5.9c0,0,0,0.1,0,0.1c0,1.8,0,2,0,2l0,0l0,0l0,0c0.2,2.4,1.6,2,5.1,2.4c0.4,0,0.9,0.1,1.3,0.1c0.5,0,1.1,0,1.6-0.1c0.5,0,0.8-0.1,1.2-0.1c0.7,0,1.4,0.4,1.7,1.1c0.3,0.4,0.5,0.9,0.5,1.4c0,1.1-0.9,2.1-1.5,4.9c-0.9,3.9-3.6,4.9-7.3,5.2c-3,0.3-5.1,1.3-7.4,1.3c-0.6,0-1.2-0.1-1.7-0.2c-0.4-0.1-0.8-0.1-1.3-0.1c-2.3,0-3.8,1.6-5.7,2.2c-2.1,0.7-2.4-0.2-3.3,2c-0.1,0.3-0.2,0.6-0.2,0.9c0,1.9,2.2,3.9,5.2,8.8c3.5,5.7,4.2,6.2,7.5,12.7c3.3,6.5,1.9,3.7,3.8,9.4c1.9,5.7,0.8,5.4,1.4,7.6c0.7,2.2,3.9,6.2,8.9,7.3c2.3,0.5,3,0.6,3,0.9c0,0.3-1,1-1.5,3.1c-0.9,3.8-2.9,2.2-3.4,4.1c-0.2,0.9-0.4,1.8-0.4,2.7c0.1,1.7,0.6,3.4,1.4,4.9c2,3.7,2.3,4.2,4.1,5c1.8,0.8,7.6,2.2,9,2.9c1.4,0.8,1.5,2.4,3.4,7.7c1.6,4.3,3.6,8.5,6,12.4c2.1,3.3,3.8,2.9,5.8,4.6c2,1.6,2.2,4.4,6.3,4.4c0.1,0,0.3,0,0.4,0c4.4-0.1,4.1-2.2,4.5-3.8c0-0.1,0-0.2,0-0.3c0-1.5-3.1-2.9-6.3-4.1c-3.4-1.2-5.3-3.2-7-6.5c-0.8-1.3-1.3-2.7-1.4-4.2c0-0.1,0-0.1,0-0.2c0.1-1.6,1.4-2.8,3-2.8c0,0,0.1,0,0.1,0c0.5,0,1.1,0.1,1.6,0.2c4.6,1.1,6,0.2,9.1,0.9c0.2,0.1,0.4,0.1,0.7,0.1c0.9,0,1-0.6,1.1-1.3s0.2-1.3,1.2-1.3c0.3,0,0.6,0,0.8,0.1c3.4,0.8,2.5,4.6,2.9,8.4c0.3,3.7,0.2,2.5,6,5.5c3,1.5,3.5,2.7,3.5,3.7c0,0.5-0.1,0.9-0.1,1.3c0,0.4,0.2,0.8,0.5,1.1c1.6,1.6,3.2,5.3,6.3,6c0.6,0.1,1.2,0.2,1.8,0.2c1.9,0,2.9-1.1,3.5-3.5c0.1-0.5,0.2-1,0.2-1.5c0-1.8-1.1-2.3-1.4-3.7c-0.1-0.3-0.1-0.6-0.1-1c0-1.5,0.8-3.3,1.8-6.3c0.3-0.9,0.4-1.7,0.4-2.6c-0.2-3.6-1.2-7-3.1-10.1c-1.4-2.2-2.6-4.6-3.6-7c-0.1-0.2-0.1-0.4-0.1-0.6c0-1.4,1.2-3.4,2.6-4.9c1.6-1.6,2.8-1.4,5.2-3.2c2.5-1.9,1.5-4.9,2.6-9.5c1.1-4.6,0.9-3.9,4.9-4.9c0.5-0.2,1-0.3,1.6-0.3c1.8,0,1.1,2.2,3.7,6.8c3.2,5.6,3,4.4,4.8,7.2c0.4,0.5,0.6,1.1,0.7,1.7c0,1.1-1.5,1.4-2.3,3.6c-0.6,1.4-2,1.8-3.5,1.8c-0.8,0-1.5-0.1-2.3-0.2c-0.6-0.1-1.2-0.2-1.8-0.2h0c-1.7,0-3.4,2.1-4.6,4.2c-0.3,0.3-0.4,0.7-0.5,1.2c0,1,1.5,1.4,3.7,4.1c2.8,3.5,2.6,6.3,5.2,10.5c2.7,4.3,2.3,3.8,3.1,7.2c0.8,3.3,2.6,5.3,4.9,5.3c0.1,0,0.2,0,0.4,0c2.5-0.2,0.9-1.8,3-2.5c0.5-0.2,0.7-0.4,0.7-0.8c0-1.2-2-3.2-2-5.3c0-0.1,0-0.2,0-0.3c0.2-2.8-0.3-2.5,2.5-5.5c1.3-1.4,1.7-2,2.2-2c0.3,0,0.6,0.3,1.2,0.6l0,0c0.2,0.1,0.3,0.2,0.5,0.3c0.1-0.2,0.1-0.4,0.2-0.6l0,0l-0.2,0.6c0.3,0.2,0.6,0.4,1,0.5c3.3,1.5,4,3.7,6.2,8.3c0.5,0.9,0.7,1.8,0.7,2.8c-0.1,0.7-0.2,1.3-0.3,1.9c0,0.4,0.4,0.7,1.8,1.1c0.3,0.1,0.6,0.1,0.9,0.1c1.2,0,1.6-0.9,2.1-1.8c0.4-1.1,1.5-1.8,2.7-1.8c0.3,0,0.6,0,0.8,0.1c0.5,0.1,0.9,0.1,1.3,0.2c0.2,0,0.4,0.1,0.5,0.1l0.1,0c2.3,0.5,1.7,0.9,2.6,2.8c1.1,2.2,1.9,2.1,3.7,4.9c0.7,1.1,1,1.6,1,2.1c0,0.8-0.8,1.4-2.5,4c-0.5,1-1.5,1.7-2.6,1.7c-2.1,0-4.5-2.3-7-2.4h0c-3.6,0-6.5,3.8-11.2,6.3c-1.5,0.8-3.2,1.2-4.9,1.1c-0.4,0-0.9,0-1.3,0s-0.8,0-1.1,0h0c-1.3,0-2.3,0.2-2.6,1.5c-0.1,0.2-0.1,0.5-0.1,0.7c0,1.9,2.1,2.1,2.1,5.1c0,0.7-0.1,1.5-0.3,2.2c-0.5,1.9-0.8,3.9-0.9,5.9c0,2.1,0.3,4.2,0.8,6.3c1.4,6,0,4.9,2,5.4c0.1,0,0.3,0.1,0.4,0.1c1.7,0,2.9-2.3,7-4c4.5-1.8,0.9-3.8,5.4-4c3.9,0,7.8-0.3,11.6-0.9c3-0.6,4.7-2,7.6-2c0.8,0,1.7,0.1,2.5,0.3c1.2,0.3,1.6,0.8,1.6,1.5c0,2-4.1,5.4-6.2,7.6c-2.7,3-2.5,1.9-3,4.2c-0.5,2.3-2.7,2.6-5.6,6.4c-0.8,0.8-1.2,1.8-1.4,2.9c0,1.2,0.9,2,0.9,3.8c0,0.2,0,0.3,0,0.5c0,0.3-0.1,0.6-0.1,0.9c0,1.5,0.6,1.7,2.6,1.7c0.4,0,0.8,0,1.3,0s1,0,1.6,0h0.5c0.1,0,0.2,0,0.3,0c1,0.1,2-0.1,2.9-0.4c0.4-0.2,0.5-0.4,0.8-0.4c0.6,0.1,1.2,0.2,1.7,0.5c1.6,0.6,2.2,0.7,2.2,1c0,0.4-0.7,1.1-1.6,3.2c-1.8,4.1-4.1,3.5-6.7,4.5c-2.7,1-2.4,3.1-3.8,4c-1.4,0.9-3.2-0.4-3.9,2.7c-0.7,3.1-2.1,8.8-3.2,15.5c-0.2,0.9-0.2,1.8-0.3,2.7c0,3.2,1.4,3.6,1.4,5.7c0,0.5-0.1,1-0.2,1.6c-0.8,2.8-1.2,5.7-1.2,8.6c0,1.8,0.1,3.6,0.3,5.4c0.4,4,1.3,4.9,2.3,4.9c0.8,0,1.6-0.5,2.3-0.5c1.6,0,1.4-2.5,9.4-7.1c7.9-4.6,5.6-4.8,9.4-7.5c3.9-2.7,4.7-2.6,11.6-6.2c2.1-1.1,3.2-1.5,3.8-1.5c0.7,0,0.9,0.4,1.6,0.8c1.2,0.6,2.5,0.9,3.8,0.8c0.4,0,0.8,0,1.3,0c7.8-0.5,2.4-2.2,7.1-2.2c0.2,0,0.5,0,0.8,0c6,0.2,1.9,0.4,7.7,1.8c5.7,1.4,4.9,0,6.5,3.2c0.3,0.5,0.6,1,0.7,1.6c0,0.3-0.5,0.1-1.1,0.9l0.5,0.1c0,0,0,0,0.1,0c2.3,0.3,4.8,0.6,6.3,1c0.3,0.1,0.5,0.1,0.8,0.1c1,0,1.2-0.7,1.2-1.7c0-0.6-0.1-1.4-0.1-2.2c0-0.9,0.1-1.7,0.4-2.6c0.9-2.4,1.5-3,1.5-4.4c0-0.8-0.1-1.6-0.4-2.3c-0.1-0.3-0.1-0.6-0.1-1c0-3.3,3.2-7.2,3.2-7.2l0.6-0.1l0.5-0.1l107.5-13c0.3-0.9,0.7-1.8,1-2.8c2.4-7.1,7.7-5.1,10.1-10.2c2.4-5.1,3.1-4.5,4.6-11.1s3.4-8.9,4.4-11.9c1.2-3,1.8-5.7,3.3-12.2c1.2-5.8,3-11.5,5.2-17c3.1-8.2,6.4-16.7,7.5-26.6c0.7-6,1.8-12,3.4-17.9c0.7-3.1,0.8-1.5,4.2-5.9c3.5-4.4,4.5-7,5.9-9.5c1.4-2.5,3.9-11.3,5.3-17.4c0.2-1,0.4-2.1,0.4-3.2c0-3-1-5.5-1-9c0-1.6,0.2-3.3,0.6-4.8c0.4-1.5,0.6-2.8,0.9-4v0c0-0.2,0.1-0.4,0.1-0.6L302.5,385.1z M120.9,552.6c0-1.1-0.9-1-2.5-2.4c-2.8-2.3-0.9-3-6.7-4.4c-2.6-0.6-3.3-1.1-3.8-1.1c-0.6,0-1,0.7-4.4,2.8c-5.8,3.6-6.6,5.9-6.6,7.1c0,0.1,0,0.1,0,0.2c0.1,1.3,0.4,3.3,0.6,6.2c0,0.4,0,0.7,0,1.1c0,0.7,0,1.3,0,1.8c0,1.5,0.2,3.1,0.6,4.6c0.9,3,2.6,4.7,2.6,6.3c0.1,1.5,2.3,6.1,2.3,7.8c0,0.2,0,0.3-0.1,0.5c-0.3,0.5-0.5,1.1-0.5,1.7c0,2.3,2.2,4.5,2.2,6.3c0,0.1,0,0.3-0.1,0.4c0,0.2-0.1,0.3-0.1,0.5c0,0.6,0.4,1.1,1,1.1c0.1,0,0.1,0,0.2,0c1,0,2.4-0.8,3.2-2.6c0.5-1,0.8-1.2,1.3-1.2c0.2,0,0.3,0,0.4,0c0.2,0,0.3,0,0.5,0c0.9,0,2-0.5,3.9-4.4c3.8-7.6,3.8-7.6,5.4-14.1c0.2-0.8,0.3-1.6,0.3-2.5c0-3.2-1.9-4.6-1.9-7.6c0-1.2,0.3-2.4,0.7-3.5C120.5,554.6,120.9,553.3,120.9,552.6z M106.7,534.9c0.4,0,0.9,0,1.4-0.1c2.2-0.2,4.6,0.5,4.6-2.6c0-0.7-0.1-1.4-0.2-2.1c-0.9-4.5-2.4-5.4-2.4-8.7c0-0.9,0.1-1.8,0.3-2.8c0.1-0.7,0.2-1.5,0.2-2.3c0-3.9-2.2-5-3.9-9.6c-0.1-0.3-0.2-0.5-0.3-0.7c-1.5-4.1-0.1-0.2-1.5-9c-1.5-9.3,0.4-5.2-4.6-8.4c-3.7-2.4-5.5-3.4-7.6-3.4c-0.7,0-1.5,0.1-2.2,0.3c-3.4,0.8-4.2,3.9-5,7.4c-0.4,1.7-0.5,3.5-0.5,5.3c0,2.2,0.1,4.8,0.1,8.4c0,0.2,0,0.3,0,0.5c0,5.8,0.4,5.9,0.4,8.8c0,0.3,0,0.6,0,1c0,0.1,0,0.2,0,0.3c0,2.9,1.8,5.1,3.6,5.1c0.7,0,1.3-0.3,1.8-0.8c1.9-2,4.3-3.6,6.9-4.7c0.2-0.1,0.3-0.1,0.5-0.1c0.1,0,0.2,0,0.2,0c0.1,0,0.3,0,0.4,0c0.1,0,0.3,0,0.4,0c0.8,0.2,1.1,0.9,1.1,1.9c-0.1,1.8-0.8,3.4-1.8,4.9c-1.8,2.4-3,7.4-3,7.4v0c0,0.4,0.3,3.2,8,3.9C104.7,534.8,105.7,534.9,106.7,534.9z" class="region region-gray eastern-shore"></path></a>
    <g id="Regions"><text transform="matrix(1 0 0 1 73 20)" class="region-label"><tspan text-anchor="middle" x="0" dy="1.2em" class="all-caps ca">Western</tspan><tspan
            text-anchor="middle" x="0" dy="1.2em" class="all-caps ca">Maryland</tspan></text>
        <text transform="matrix(1 0 0 1 645 190)" class="region-label"><tspan text-anchor="middle" x="0" dy="1.2em" class="all-caps ca">Capital</tspan>
            <tspan text-anchor="middle" x="0" dy="1.2em" class="all-caps ca">Region</tspan></text>
        <text transform="matrix(1 0 0 1 800 100)" class="region-label"><tspan text-anchor="middle" x="0" dy="1.2em" class="all-caps ca">Central</tspan>
            <tspan text-anchor="middle" x="0" dy="1.2em" class="all-caps ca">Maryland</tspan></text>
        <text transform="matrix(1 0 0 1 1175 550)" class="region-label"><tspan text-anchor="middle" x="0" dy="1.2em" class="all-caps ca">Eastern</tspan>
            <tspan text-anchor="middle" x="0" dy="1.2em" class="all-caps ca">Shore</tspan></text>
        <text transform="matrix(1 0 0 1 807 475)" class="region-label"><tspan text-anchor="middle" x="0" dy="1.2em" class="all-caps ca">Southern</tspan>
            <tspan text-anchor="middle" x="0" dy="1.2em" class="all-caps ca">Maryland</tspan></text></g>
    <g id="Cities-Buttons"><a href="/regions-cities/frederick" class="map-marker-button marker-active"><g id="Frederick" transform="translate(923.75 -15862)"><circle cx="-358" cy="15945.1" r="5.5"></circle><g
            transform="translate(-1 -8)"><path d="M-341.5,15937.6h85c2.8,0,5,2.2,5,5v25c0,2.8-2.2,5-5,5h-85c-2.8,0-5-2.2-5-5v-25C-346.5,15939.8-344.3,15937.6-341.5,15937.6z"></path>
        <text transform="matrix(1 0 0 1 -336.4936 15960.5723)">Frederick</text></g></g></a>
        <a href="/regions-cities/national-harbor" class="map-marker-button marker-active"><g id="NationalHarbor" transform="translate(1084.75 -15603)"><circle cx="-358" cy="15945.1" r="5.5"></circle><g
                transform="translate(-1 -8)"><path d="M-341.5,15937.6h76c2.8,0,5,2.2,5,5v43c0,2.8-2.2,5-5,5h-76c-2.8,0-5-2.2-5-5v-43C-346.5,15939.8-344.3,15937.6-341.5,15937.6z"></path>
            <text transform="matrix(1 0 0 1 -336.6815 15960.5723)">National</text>
            <text transform="matrix(1 0 0 1 -330.7036 15978.5723)">Harbor</text></g></g></a>
        <a href="/regions-cities/deep-creek" class="map-marker-button marker-active"><g id="DeepCreek" transform="translate(407.75 -15853)"><circle cx="-358" cy="15945.1" r="5.5"></circle><g
                transform="translate(-1 -8)"><path d="M-341.5,15937.6h102c2.8,0,5,2.2,5,5v25c0,2.8-2.2,5-5,5h-102c-2.8,0-5-2.2-5-5v-25C-346.5,15939.8-344.3,15937.6-341.5,15937.6z"></path>
            <text transform="matrix(1 0 0 1 -336.4936 15960.5723)">Deep Creek</text></g></g></a>
        <a href="/regions-cities/hagerstown" class="map-marker-button marker-active"><g id="Hagerstown" transform="translate(864.75 -15908)"><circle cx="-358" cy="15945.1" r="5.5"></circle><g
                transform="translate(-1 -8)"><path d="M-341.5,15937.6h106c2.8,0,5,2.2,5,5v25c0,2.8-2.2,5-5,5h-106c-2.8,0-5-2.2-5-5v-25C-346.5,15939.8-344.3,15937.6-341.5,15937.6z"></path>
            <text transform="matrix(1 0 0 1 -336.4936 15960.5723)">Hagerstown</text></g></g></a>
        <a href="/regions-cities/baltimore" class="map-marker-button marker-active"><g id="Baltimore" transform="translate(1220.75 -15758)"><circle cx="-358" cy="15945.1" r="5.5"></circle><g
                transform="translate(-1 -8)"><path d="M-341.5,15937.6h88c2.8,0,5,2.2,5,5v25c0,2.8-2.2,5-5,5h-88c-2.8,0-5-2.2-5-5v-25C-346.5,15939.8-344.3,15937.6-341.5,15937.6z"></path>
            <text transform="matrix(1 0 0 1 -336.4937 15960.5723)">Baltimore</text></g></g></a>
        <a href="/regions-cities/annapolis" class="map-marker-button marker-active"><g id="Annapolis" transform="translate(1233.75 -15650)"><circle cx="-358" cy="15945.1" r="5.5"></circle><g
                transform="translate(-1 -8)"><path d="M-341.5,15937.6h89c2.8,0,5,2.2,5,5v25c0,2.8-2.2,5-5,5h-89c-2.8,0-5-2.2-5-5v-25C-346.5,15939.8-344.3,15937.6-341.5,15937.6z"></path>
            <text transform="matrix(1 0 0 1 -336.4937 15960.5723)">Annapolis</text></g></g></a>
        <a href="/regions-cities/ocean-city" class="map-marker-button marker-active"><g id="OceanCity" transform="translate(1644.75 -15439)"><circle cx="-358" cy="15945.1" r="5.5"></circle><g
                transform="translate(-1 -8)"><path d="M-341.5,15937.6h96c2.8,0,5,2.2,5,5v25c0,2.8-2.2,5-5,5h-96c-2.8,0-5-2.2-5-5v-25C-346.5,15939.8-344.3,15937.6-341.5,15937.6z"></path>
            <text transform="matrix(1 0 0 1 -336.4937 15960.5723)">Ocean City</text></g></g></a></g>
    <g id="Cities-Text"><g id="Bethesda" transform="translate(2630 -3697)" class="map-marker-text"><circle id="Ellipse_25_1_" cx="-1944.7" cy="3981.6" r="3" class="st3"></circle><text
            transform="matrix(1 0 0 1 -1940.0135 3977.572)">Bethesda</text></g>
        <g id="Cambridge" transform="translate(2897 -3507)" class="map-marker-text"><circle id="Ellipse_25-2_9_" cx="-1944.7" cy="3981.6" r="3" class="st3"></circle>
            <text transform="matrix(1 0 0 1 -1939.0266 3986.572)">Cambridge</text></g>
        <g id="StMarysCity" transform="translate(2897 -3507)" class="map-marker-text"><circle id="Ellipse_25-2_4_" cx="-1991.5" cy="4115" r="3" class="st3"></circle>
            <text transform="matrix(1, 0, 0, 1, -2024, 4073)"><tspan x="0" y="0">St. </tspan>
                <tspan x="-13.92" y="16.8">Marys </tspan>
                <tspan x="-4.99" y="33.6">City</tspan></text></g>
        <g id="StMichaels" transform="translate(2897 -3507)" class="map-marker-text"><circle id="Ellipse_25-2_7_" cx="-1948.6" cy="3867.3" r="3" class="st3"></circle>
            <text transform="matrix(1 0 0 1 -1942.8359 3872.2927)">St. Michaels</text></g>
        <g id="ChesapeakeCity" transform="translate(2897 -3507)" class="map-marker-text"><circle id="Ellipse_25-2_6_" cx="-1828.9" cy="3588.5" r="3" class="st3"></circle>
            <text transform="matrix(1 0 0 1 -1891.2477 3566.7861)">Chesapeake </text>
            <text transform="matrix(1 0 0 1 -1861.4277 3583.5862)">City</text></g>
        <g id="Columbia" transform="translate(2897 -3507)" class="map-marker-text"><circle id="Ellipse_25-2_11_" cx="-2083.4" cy="3724.5" r="3" class="st6"></circle>
            <text transform="matrix(1 0 0 1 -2124.4243 3716.4822)" class="st6 st1 st7">Columbia</text></g>
        <g id="Cumberland" transform="translate(2897 -3507)" class="map-marker-text"><circle id="Ellipse_25-2_5_" cx="-2685.3" cy="3533.6" r="3" class="st3"></circle>
            <text transform="matrix(1 0 0 1 -2679.5564 3538.5972)">Cumberland</text></g>
        <g id="DC" class="map-marker-text"><line x1="669" y1="320.1" x2="690" y2="305.1" class="black-outline"></line>
            <text transform="matrix(1 0 0 1 570.4154 337.572)" class="st6 st1 st4">Washington, DC</text>
            <g transform="translate(214 -135.507)"><g transform="translate(840 -15506.493)"><path d="M-353.5,15948.6c-5,0-9-4-9-9c0-5,4-9,9-9s9,4,9,9C-344.5,15944.5-348.5,15948.6-353.5,15948.6z"></path><path
                    d="M-353.5,15931.6c-4.4,0-8,3.6-8,8s3.6,8,8,8s8-3.6,8-8S-349.1,15931.6-353.5,15931.6 M-353.5,15929.6c5.5,0,10,4.5,10,10c0,5.5-4.5,10-10,10s-10-4.5-10-10C-363.5,15934-359,15929.6-353.5,15929.6z"
                    class="gold"></path></g>
                <path d="M486.2,427l1.5,4.6h4.8l-3.9,2.8l1.5,4.6l-3.9-2.8l-3.9,2.8l1.5-4.6l-3.9-2.8h4.8L486.2,427z"
                      class="gold"></path></g></g></g></svg>